G04 Layer: BottomPasteMaskLayer*
G04 EasyEDA v6.4.7, 2021-02-24T17:41:02+08:00*
G04 aefd34b0273d4d6584ca49087094e06a,119f753a6ce64b8d841f2ad33262ab0c,10*
G04 Gerber Generator version 0.2*
G04 Scale: 100 percent, Rotated: No, Reflected: No *
G04 Dimensions in millimeters *
G04 leading zeros omitted , absolute positions ,3 integer and 3 decimal *
%FSLAX33Y33*%
%MOMM*%
G90*
D02*

%ADD53R,2.340000X3.599993*%
%ADD59R,1.019988X5.274005*%

%LPD*%
G36*
G01X59385Y5600D02*
G01X60085Y5600D01*
G01X60085Y1300D01*
G01X59385Y1300D01*
G01X59385Y5600D01*
G37*
G36*
G01X58385Y5600D02*
G01X59085Y5600D01*
G01X59085Y1300D01*
G01X58385Y1300D01*
G01X58385Y5600D01*
G37*
G36*
G01X60385Y5600D02*
G01X61085Y5600D01*
G01X61085Y1300D01*
G01X60385Y1300D01*
G01X60385Y5600D01*
G37*
G36*
G01X62385Y5600D02*
G01X63085Y5600D01*
G01X63085Y1300D01*
G01X62385Y1300D01*
G01X62385Y5600D01*
G37*
G36*
G01X61385Y5600D02*
G01X62085Y5600D01*
G01X62085Y1300D01*
G01X61385Y1300D01*
G01X61385Y5600D01*
G37*
G36*
G01X64385Y5600D02*
G01X65085Y5600D01*
G01X65085Y1300D01*
G01X64385Y1300D01*
G01X64385Y5600D01*
G37*
G36*
G01X63385Y5600D02*
G01X64085Y5600D01*
G01X64085Y1300D01*
G01X63385Y1300D01*
G01X63385Y5600D01*
G37*
G36*
G01X46385Y5600D02*
G01X47085Y5600D01*
G01X47085Y1300D01*
G01X46385Y1300D01*
G01X46385Y5600D01*
G37*
G36*
G01X45385Y5600D02*
G01X46085Y5600D01*
G01X46085Y2400D01*
G01X45385Y2400D01*
G01X45385Y5600D01*
G37*
G36*
G01X47385Y5600D02*
G01X48085Y5600D01*
G01X48085Y1300D01*
G01X47385Y1300D01*
G01X47385Y5600D01*
G37*
G36*
G01X53385Y5600D02*
G01X54085Y5600D01*
G01X54085Y1300D01*
G01X53385Y1300D01*
G01X53385Y5600D01*
G37*
G36*
G01X52385Y5600D02*
G01X53085Y5600D01*
G01X53085Y1300D01*
G01X52385Y1300D01*
G01X52385Y5600D01*
G37*
G36*
G01X55385Y5599D02*
G01X56085Y5599D01*
G01X56085Y2399D01*
G01X55385Y2399D01*
G01X55385Y5599D01*
G37*
G36*
G01X54385Y5600D02*
G01X55085Y5600D01*
G01X55085Y1300D01*
G01X54385Y1300D01*
G01X54385Y5600D01*
G37*
G36*
G01X49385Y5600D02*
G01X50085Y5600D01*
G01X50085Y1300D01*
G01X49385Y1300D01*
G01X49385Y5600D01*
G37*
G36*
G01X48385Y5600D02*
G01X49085Y5600D01*
G01X49085Y1300D01*
G01X48385Y1300D01*
G01X48385Y5600D01*
G37*
G36*
G01X51385Y5600D02*
G01X52085Y5600D01*
G01X52085Y1300D01*
G01X51385Y1300D01*
G01X51385Y5600D01*
G37*
G36*
G01X50385Y5600D02*
G01X51085Y5600D01*
G01X51085Y1300D01*
G01X50385Y1300D01*
G01X50385Y5600D01*
G37*
G36*
G01X62687Y13846D02*
G01X62687Y14761D01*
G01X61772Y14761D01*
G01X61772Y13846D01*
G01X62687Y13846D01*
G37*
G36*
G01X62687Y15243D02*
G01X62687Y16158D01*
G01X61772Y16158D01*
G01X61772Y15243D01*
G01X62687Y15243D01*
G37*
G36*
G01X64465Y13846D02*
G01X64465Y14761D01*
G01X63550Y14761D01*
G01X63550Y13846D01*
G01X64465Y13846D01*
G37*
G36*
G01X64465Y15243D02*
G01X64465Y16158D01*
G01X63550Y16158D01*
G01X63550Y15243D01*
G01X64465Y15243D01*
G37*
G36*
G01X60909Y13846D02*
G01X60909Y14761D01*
G01X59994Y14761D01*
G01X59994Y13846D01*
G01X60909Y13846D01*
G37*
G36*
G01X60909Y15243D02*
G01X60909Y16158D01*
G01X59994Y16158D01*
G01X59994Y15243D01*
G01X60909Y15243D01*
G37*
G36*
G01X59131Y13846D02*
G01X59131Y14761D01*
G01X58216Y14761D01*
G01X58216Y13846D01*
G01X59131Y13846D01*
G37*
G36*
G01X59131Y15243D02*
G01X59131Y16158D01*
G01X58216Y16158D01*
G01X58216Y15243D01*
G01X59131Y15243D01*
G37*
G36*
G01X57353Y13846D02*
G01X57353Y14761D01*
G01X56438Y14761D01*
G01X56438Y13846D01*
G01X57353Y13846D01*
G37*
G36*
G01X57353Y15243D02*
G01X57353Y16158D01*
G01X56438Y16158D01*
G01X56438Y15243D01*
G01X57353Y15243D01*
G37*
G36*
G01X36043Y20141D02*
G01X36043Y19161D01*
G01X33703Y19161D01*
G01X33703Y20141D01*
G01X36043Y20141D01*
G37*
G36*
G01X36043Y17841D02*
G01X36043Y16861D01*
G01X33703Y16861D01*
G01X33703Y17841D01*
G01X36043Y17841D01*
G37*
G36*
G01X36043Y15541D02*
G01X36043Y14561D01*
G01X33703Y14561D01*
G01X33703Y15541D01*
G01X36043Y15541D01*
G37*
G54D53*
G01X29134Y17351D03*
G36*
G01X36043Y26999D02*
G01X36043Y26019D01*
G01X33703Y26019D01*
G01X33703Y26999D01*
G01X36043Y26999D01*
G37*
G36*
G01X36043Y24699D02*
G01X36043Y23719D01*
G01X33703Y23719D01*
G01X33703Y24699D01*
G01X36043Y24699D01*
G37*
G36*
G01X36043Y22399D02*
G01X36043Y21419D01*
G01X33703Y21419D01*
G01X33703Y22399D01*
G01X36043Y22399D01*
G37*
G01X29134Y24209D03*
G36*
G01X49225Y26064D02*
G01X48310Y26064D01*
G01X48310Y25149D01*
G01X49225Y25149D01*
G01X49225Y26064D01*
G37*
G36*
G01X47828Y26064D02*
G01X46913Y26064D01*
G01X46913Y25149D01*
G01X47828Y25149D01*
G01X47828Y26064D01*
G37*
G36*
G01X49225Y24286D02*
G01X48310Y24286D01*
G01X48310Y23371D01*
G01X49225Y23371D01*
G01X49225Y24286D01*
G37*
G36*
G01X47828Y24286D02*
G01X46913Y24286D01*
G01X46913Y23371D01*
G01X47828Y23371D01*
G01X47828Y24286D01*
G37*
G36*
G01X57581Y28070D02*
G01X58496Y28070D01*
G01X58496Y28985D01*
G01X57581Y28985D01*
G01X57581Y28070D01*
G37*
G36*
G01X58978Y28070D02*
G01X59893Y28070D01*
G01X59893Y28985D01*
G01X58978Y28985D01*
G01X58978Y28070D01*
G37*
G36*
G01X60756Y28070D02*
G01X61671Y28070D01*
G01X61671Y28985D01*
G01X60756Y28985D01*
G01X60756Y28070D01*
G37*
G36*
G01X62153Y28070D02*
G01X63068Y28070D01*
G01X63068Y28985D01*
G01X62153Y28985D01*
G01X62153Y28070D01*
G37*
G36*
G01X63161Y59952D02*
G01X62061Y59952D01*
G01X62061Y57952D01*
G01X63161Y57952D01*
G01X63161Y59952D01*
G37*
G36*
G01X60621Y59952D02*
G01X59521Y59952D01*
G01X59521Y57952D01*
G01X60621Y57952D01*
G01X60621Y59952D01*
G37*
G36*
G01X60621Y68952D02*
G01X59521Y68952D01*
G01X59521Y66952D01*
G01X60621Y66952D01*
G01X60621Y68952D01*
G37*
G36*
G01X63161Y68952D02*
G01X62061Y68952D01*
G01X62061Y66952D01*
G01X63161Y66952D01*
G01X63161Y68952D01*
G37*
G36*
G01X58081Y59952D02*
G01X56981Y59952D01*
G01X56981Y57952D01*
G01X58081Y57952D01*
G01X58081Y59952D01*
G37*
G36*
G01X55541Y59952D02*
G01X54441Y59952D01*
G01X54441Y57952D01*
G01X55541Y57952D01*
G01X55541Y59952D01*
G37*
G36*
G01X53001Y59952D02*
G01X51901Y59952D01*
G01X51901Y57952D01*
G01X53001Y57952D01*
G01X53001Y59952D01*
G37*
G36*
G01X50461Y59952D02*
G01X49361Y59952D01*
G01X49361Y57952D01*
G01X50461Y57952D01*
G01X50461Y59952D01*
G37*
G36*
G01X58081Y68952D02*
G01X56981Y68952D01*
G01X56981Y66952D01*
G01X58081Y66952D01*
G01X58081Y68952D01*
G37*
G36*
G01X55541Y68952D02*
G01X54441Y68952D01*
G01X54441Y66952D01*
G01X55541Y66952D01*
G01X55541Y68952D01*
G37*
G36*
G01X53001Y68952D02*
G01X51901Y68952D01*
G01X51901Y66952D01*
G01X53001Y66952D01*
G01X53001Y68952D01*
G37*
G36*
G01X50461Y68952D02*
G01X49361Y68952D01*
G01X49361Y66952D01*
G01X50461Y66952D01*
G01X50461Y68952D01*
G37*
G36*
G01X47921Y59952D02*
G01X46821Y59952D01*
G01X46821Y57952D01*
G01X47921Y57952D01*
G01X47921Y59952D01*
G37*
G36*
G01X45381Y59952D02*
G01X44281Y59952D01*
G01X44281Y57952D01*
G01X45381Y57952D01*
G01X45381Y59952D01*
G37*
G36*
G01X45381Y68952D02*
G01X44281Y68952D01*
G01X44281Y66952D01*
G01X45381Y66952D01*
G01X45381Y68952D01*
G37*
G36*
G01X47921Y68952D02*
G01X46821Y68952D01*
G01X46821Y66952D01*
G01X47921Y66952D01*
G01X47921Y68952D01*
G37*
G36*
G01X42841Y59952D02*
G01X41741Y59952D01*
G01X41741Y57952D01*
G01X42841Y57952D01*
G01X42841Y59952D01*
G37*
G36*
G01X40301Y59952D02*
G01X39201Y59952D01*
G01X39201Y57952D01*
G01X40301Y57952D01*
G01X40301Y59952D01*
G37*
G36*
G01X37761Y59952D02*
G01X36661Y59952D01*
G01X36661Y57952D01*
G01X37761Y57952D01*
G01X37761Y59952D01*
G37*
G36*
G01X35221Y59952D02*
G01X34121Y59952D01*
G01X34121Y57952D01*
G01X35221Y57952D01*
G01X35221Y59952D01*
G37*
G36*
G01X42841Y68952D02*
G01X41741Y68952D01*
G01X41741Y66952D01*
G01X42841Y66952D01*
G01X42841Y68952D01*
G37*
G36*
G01X40301Y68952D02*
G01X39201Y68952D01*
G01X39201Y66952D01*
G01X40301Y66952D01*
G01X40301Y68952D01*
G37*
G36*
G01X37761Y68952D02*
G01X36661Y68952D01*
G01X36661Y66952D01*
G01X37761Y66952D01*
G01X37761Y68952D01*
G37*
G36*
G01X35221Y68952D02*
G01X34121Y68952D01*
G01X34121Y66952D01*
G01X35221Y66952D01*
G01X35221Y68952D01*
G37*
G36*
G01X31914Y65331D02*
G01X30315Y65331D01*
G01X30315Y63807D01*
G01X31914Y63807D01*
G01X31914Y65331D01*
G37*
G36*
G01X30715Y61919D02*
G01X29515Y61919D01*
G01X29515Y60719D01*
G01X30715Y60719D01*
G01X30715Y61919D01*
G37*
G36*
G01X32714Y61919D02*
G01X31514Y61919D01*
G01X31514Y60719D01*
G01X32714Y60719D01*
G01X32714Y61919D01*
G37*
G36*
G01X54044Y28573D02*
G01X54044Y29373D01*
G01X53143Y29373D01*
G01X53143Y28573D01*
G01X54044Y28573D01*
G37*
G36*
G01X54044Y27173D02*
G01X54044Y27973D01*
G01X53143Y27973D01*
G01X53143Y27173D01*
G01X54044Y27173D01*
G37*
G36*
G01X52647Y28573D02*
G01X52647Y29373D01*
G01X51746Y29373D01*
G01X51746Y28573D01*
G01X52647Y28573D01*
G37*
G36*
G01X52647Y27173D02*
G01X52647Y27973D01*
G01X51746Y27973D01*
G01X51746Y27173D01*
G01X52647Y27173D01*
G37*
G36*
G01X51250Y28573D02*
G01X51250Y29373D01*
G01X50349Y29373D01*
G01X50349Y28573D01*
G01X51250Y28573D01*
G37*
G36*
G01X51250Y27173D02*
G01X51250Y27973D01*
G01X50349Y27973D01*
G01X50349Y27173D01*
G01X51250Y27173D01*
G37*
G36*
G01X48404Y29422D02*
G01X47604Y29422D01*
G01X47604Y28522D01*
G01X48404Y28522D01*
G01X48404Y29422D01*
G37*
G36*
G01X49804Y29422D02*
G01X49004Y29422D01*
G01X49004Y28522D01*
G01X49804Y28522D01*
G01X49804Y29422D01*
G37*
G36*
G01X49004Y27125D02*
G01X49804Y27125D01*
G01X49804Y28025D01*
G01X49004Y28025D01*
G01X49004Y27125D01*
G37*
G36*
G01X47604Y27125D02*
G01X48404Y27125D01*
G01X48404Y28025D01*
G01X47604Y28025D01*
G01X47604Y27125D01*
G37*
G36*
G01X18783Y36922D02*
G01X18806Y36921D01*
G01X18828Y36917D01*
G01X18850Y36910D01*
G01X18871Y36900D01*
G01X18891Y36888D01*
G01X18909Y36874D01*
G01X18925Y36858D01*
G01X18940Y36840D01*
G01X18951Y36820D01*
G01X18961Y36799D01*
G01X18968Y36777D01*
G01X18972Y36754D01*
G01X18973Y36732D01*
G01X18972Y36708D01*
G01X18968Y36686D01*
G01X18961Y36664D01*
G01X18951Y36643D01*
G01X18940Y36623D01*
G01X18925Y36605D01*
G01X18909Y36589D01*
G01X18891Y36575D01*
G01X18871Y36563D01*
G01X18850Y36554D01*
G01X18828Y36547D01*
G01X18806Y36542D01*
G01X18783Y36541D01*
G01X17132Y36541D01*
G01X17109Y36542D01*
G01X17086Y36547D01*
G01X17064Y36554D01*
G01X17043Y36563D01*
G01X17024Y36575D01*
G01X17006Y36589D01*
G01X16989Y36605D01*
G01X16975Y36623D01*
G01X16963Y36643D01*
G01X16954Y36664D01*
G01X16947Y36686D01*
G01X16943Y36708D01*
G01X16941Y36732D01*
G01X16943Y36754D01*
G01X16947Y36777D01*
G01X16954Y36799D01*
G01X16963Y36820D01*
G01X16975Y36840D01*
G01X16989Y36858D01*
G01X17006Y36874D01*
G01X17024Y36888D01*
G01X17043Y36900D01*
G01X17064Y36910D01*
G01X17086Y36917D01*
G01X17109Y36921D01*
G01X17132Y36922D01*
G01X18783Y36922D01*
G37*
G36*
G01X18783Y36272D02*
G01X18806Y36271D01*
G01X18828Y36266D01*
G01X18850Y36259D01*
G01X18871Y36250D01*
G01X18891Y36238D01*
G01X18909Y36224D01*
G01X18925Y36208D01*
G01X18940Y36190D01*
G01X18951Y36170D01*
G01X18961Y36149D01*
G01X18968Y36127D01*
G01X18972Y36104D01*
G01X18973Y36081D01*
G01X18972Y36059D01*
G01X18968Y36036D01*
G01X18961Y36014D01*
G01X18951Y35993D01*
G01X18940Y35973D01*
G01X18925Y35955D01*
G01X18909Y35939D01*
G01X18891Y35925D01*
G01X18871Y35913D01*
G01X18850Y35903D01*
G01X18828Y35896D01*
G01X18806Y35892D01*
G01X18783Y35891D01*
G01X17132Y35891D01*
G01X17109Y35892D01*
G01X17086Y35896D01*
G01X17064Y35903D01*
G01X17043Y35913D01*
G01X17024Y35925D01*
G01X17006Y35939D01*
G01X16989Y35955D01*
G01X16975Y35973D01*
G01X16963Y35993D01*
G01X16954Y36014D01*
G01X16947Y36036D01*
G01X16943Y36059D01*
G01X16941Y36081D01*
G01X16943Y36104D01*
G01X16947Y36127D01*
G01X16954Y36149D01*
G01X16963Y36170D01*
G01X16975Y36190D01*
G01X16989Y36208D01*
G01X17006Y36224D01*
G01X17024Y36238D01*
G01X17043Y36250D01*
G01X17064Y36259D01*
G01X17086Y36266D01*
G01X17109Y36271D01*
G01X17132Y36272D01*
G01X18783Y36272D01*
G37*
G36*
G01X18783Y35622D02*
G01X18806Y35621D01*
G01X18828Y35617D01*
G01X18850Y35610D01*
G01X18871Y35600D01*
G01X18891Y35588D01*
G01X18909Y35574D01*
G01X18925Y35558D01*
G01X18940Y35540D01*
G01X18951Y35520D01*
G01X18961Y35499D01*
G01X18968Y35477D01*
G01X18972Y35454D01*
G01X18973Y35432D01*
G01X18972Y35409D01*
G01X18968Y35386D01*
G01X18961Y35364D01*
G01X18951Y35343D01*
G01X18940Y35323D01*
G01X18925Y35305D01*
G01X18909Y35289D01*
G01X18891Y35275D01*
G01X18871Y35263D01*
G01X18850Y35254D01*
G01X18828Y35247D01*
G01X18806Y35242D01*
G01X18783Y35241D01*
G01X17132Y35241D01*
G01X17109Y35242D01*
G01X17086Y35247D01*
G01X17064Y35254D01*
G01X17043Y35263D01*
G01X17024Y35275D01*
G01X17006Y35289D01*
G01X16989Y35305D01*
G01X16975Y35323D01*
G01X16963Y35343D01*
G01X16954Y35364D01*
G01X16947Y35386D01*
G01X16943Y35409D01*
G01X16941Y35432D01*
G01X16943Y35454D01*
G01X16947Y35477D01*
G01X16954Y35499D01*
G01X16963Y35520D01*
G01X16975Y35540D01*
G01X16989Y35558D01*
G01X17006Y35574D01*
G01X17024Y35588D01*
G01X17043Y35600D01*
G01X17064Y35610D01*
G01X17086Y35617D01*
G01X17109Y35621D01*
G01X17132Y35622D01*
G01X18783Y35622D01*
G37*
G36*
G01X18783Y34972D02*
G01X18806Y34971D01*
G01X18828Y34967D01*
G01X18850Y34960D01*
G01X18871Y34950D01*
G01X18891Y34938D01*
G01X18909Y34924D01*
G01X18925Y34908D01*
G01X18940Y34890D01*
G01X18951Y34870D01*
G01X18961Y34849D01*
G01X18968Y34827D01*
G01X18972Y34805D01*
G01X18973Y34782D01*
G01X18972Y34759D01*
G01X18968Y34736D01*
G01X18961Y34714D01*
G01X18951Y34693D01*
G01X18940Y34673D01*
G01X18925Y34655D01*
G01X18909Y34639D01*
G01X18891Y34625D01*
G01X18871Y34613D01*
G01X18850Y34603D01*
G01X18828Y34597D01*
G01X18806Y34592D01*
G01X18783Y34591D01*
G01X17132Y34591D01*
G01X17109Y34592D01*
G01X17086Y34597D01*
G01X17064Y34603D01*
G01X17043Y34613D01*
G01X17024Y34625D01*
G01X17006Y34639D01*
G01X16989Y34655D01*
G01X16975Y34673D01*
G01X16963Y34693D01*
G01X16954Y34714D01*
G01X16947Y34736D01*
G01X16943Y34759D01*
G01X16941Y34782D01*
G01X16943Y34805D01*
G01X16947Y34827D01*
G01X16954Y34849D01*
G01X16963Y34870D01*
G01X16975Y34890D01*
G01X16989Y34908D01*
G01X17006Y34924D01*
G01X17024Y34938D01*
G01X17043Y34950D01*
G01X17064Y34960D01*
G01X17086Y34967D01*
G01X17109Y34971D01*
G01X17132Y34972D01*
G01X18783Y34972D01*
G37*
G36*
G01X18783Y34322D02*
G01X18806Y34320D01*
G01X18828Y34316D01*
G01X18850Y34309D01*
G01X18871Y34300D01*
G01X18891Y34288D01*
G01X18909Y34274D01*
G01X18925Y34258D01*
G01X18940Y34240D01*
G01X18951Y34220D01*
G01X18961Y34199D01*
G01X18968Y34177D01*
G01X18972Y34154D01*
G01X18973Y34131D01*
G01X18972Y34108D01*
G01X18968Y34086D01*
G01X18961Y34064D01*
G01X18951Y34043D01*
G01X18940Y34023D01*
G01X18925Y34005D01*
G01X18909Y33989D01*
G01X18891Y33975D01*
G01X18871Y33963D01*
G01X18850Y33953D01*
G01X18828Y33946D01*
G01X18806Y33942D01*
G01X18783Y33941D01*
G01X17132Y33941D01*
G01X17109Y33942D01*
G01X17086Y33946D01*
G01X17064Y33953D01*
G01X17043Y33963D01*
G01X17024Y33975D01*
G01X17006Y33989D01*
G01X16989Y34005D01*
G01X16975Y34023D01*
G01X16963Y34043D01*
G01X16954Y34064D01*
G01X16947Y34086D01*
G01X16943Y34108D01*
G01X16941Y34131D01*
G01X16943Y34154D01*
G01X16947Y34177D01*
G01X16954Y34199D01*
G01X16963Y34220D01*
G01X16975Y34240D01*
G01X16989Y34258D01*
G01X17006Y34274D01*
G01X17024Y34288D01*
G01X17043Y34300D01*
G01X17064Y34309D01*
G01X17086Y34316D01*
G01X17109Y34320D01*
G01X17132Y34322D01*
G01X18783Y34322D01*
G37*
G36*
G01X18783Y33672D02*
G01X18806Y33671D01*
G01X18828Y33667D01*
G01X18850Y33660D01*
G01X18871Y33650D01*
G01X18891Y33638D01*
G01X18909Y33624D01*
G01X18925Y33608D01*
G01X18940Y33590D01*
G01X18951Y33570D01*
G01X18961Y33549D01*
G01X18968Y33527D01*
G01X18972Y33505D01*
G01X18973Y33482D01*
G01X18972Y33459D01*
G01X18968Y33436D01*
G01X18961Y33414D01*
G01X18951Y33393D01*
G01X18940Y33373D01*
G01X18925Y33355D01*
G01X18909Y33339D01*
G01X18891Y33325D01*
G01X18871Y33313D01*
G01X18850Y33304D01*
G01X18828Y33297D01*
G01X18806Y33292D01*
G01X18783Y33291D01*
G01X17132Y33291D01*
G01X17109Y33292D01*
G01X17086Y33297D01*
G01X17064Y33304D01*
G01X17043Y33313D01*
G01X17024Y33325D01*
G01X17006Y33339D01*
G01X16989Y33355D01*
G01X16975Y33373D01*
G01X16963Y33393D01*
G01X16954Y33414D01*
G01X16947Y33436D01*
G01X16943Y33459D01*
G01X16941Y33482D01*
G01X16943Y33505D01*
G01X16947Y33527D01*
G01X16954Y33549D01*
G01X16963Y33570D01*
G01X16975Y33590D01*
G01X16989Y33608D01*
G01X17006Y33624D01*
G01X17024Y33638D01*
G01X17043Y33650D01*
G01X17064Y33660D01*
G01X17086Y33667D01*
G01X17109Y33671D01*
G01X17132Y33672D01*
G01X18783Y33672D01*
G37*
G36*
G01X18783Y33022D02*
G01X18806Y33021D01*
G01X18828Y33017D01*
G01X18850Y33010D01*
G01X18871Y33001D01*
G01X18891Y32989D01*
G01X18909Y32974D01*
G01X18925Y32958D01*
G01X18940Y32940D01*
G01X18951Y32920D01*
G01X18961Y32900D01*
G01X18968Y32877D01*
G01X18972Y32855D01*
G01X18973Y32832D01*
G01X18972Y32809D01*
G01X18968Y32786D01*
G01X18961Y32764D01*
G01X18951Y32743D01*
G01X18940Y32724D01*
G01X18925Y32705D01*
G01X18909Y32689D01*
G01X18891Y32675D01*
G01X18871Y32663D01*
G01X18850Y32654D01*
G01X18828Y32647D01*
G01X18806Y32643D01*
G01X18783Y32641D01*
G01X17132Y32641D01*
G01X17109Y32643D01*
G01X17086Y32647D01*
G01X17064Y32654D01*
G01X17043Y32663D01*
G01X17024Y32675D01*
G01X17006Y32689D01*
G01X16989Y32705D01*
G01X16975Y32724D01*
G01X16963Y32743D01*
G01X16954Y32764D01*
G01X16947Y32786D01*
G01X16943Y32809D01*
G01X16941Y32832D01*
G01X16943Y32855D01*
G01X16947Y32877D01*
G01X16954Y32900D01*
G01X16963Y32920D01*
G01X16975Y32940D01*
G01X16989Y32958D01*
G01X17006Y32974D01*
G01X17024Y32989D01*
G01X17043Y33001D01*
G01X17064Y33010D01*
G01X17086Y33017D01*
G01X17109Y33021D01*
G01X17132Y33022D01*
G01X18783Y33022D01*
G37*
G36*
G01X18783Y32372D02*
G01X18806Y32371D01*
G01X18828Y32367D01*
G01X18850Y32360D01*
G01X18871Y32350D01*
G01X18891Y32338D01*
G01X18909Y32324D01*
G01X18925Y32308D01*
G01X18940Y32290D01*
G01X18951Y32270D01*
G01X18961Y32249D01*
G01X18968Y32227D01*
G01X18972Y32205D01*
G01X18973Y32182D01*
G01X18972Y32159D01*
G01X18968Y32136D01*
G01X18961Y32114D01*
G01X18951Y32093D01*
G01X18940Y32074D01*
G01X18925Y32055D01*
G01X18909Y32039D01*
G01X18891Y32025D01*
G01X18871Y32013D01*
G01X18850Y32004D01*
G01X18828Y31997D01*
G01X18806Y31992D01*
G01X18783Y31991D01*
G01X17132Y31991D01*
G01X17109Y31992D01*
G01X17086Y31997D01*
G01X17064Y32004D01*
G01X17043Y32013D01*
G01X17024Y32025D01*
G01X17006Y32039D01*
G01X16989Y32055D01*
G01X16975Y32074D01*
G01X16963Y32093D01*
G01X16954Y32114D01*
G01X16947Y32136D01*
G01X16943Y32159D01*
G01X16941Y32182D01*
G01X16943Y32205D01*
G01X16947Y32227D01*
G01X16954Y32249D01*
G01X16963Y32270D01*
G01X16975Y32290D01*
G01X16989Y32308D01*
G01X17006Y32324D01*
G01X17024Y32338D01*
G01X17043Y32350D01*
G01X17064Y32360D01*
G01X17086Y32367D01*
G01X17109Y32371D01*
G01X17132Y32372D01*
G01X18783Y32372D01*
G37*
G36*
G01X18783Y31722D02*
G01X18806Y31721D01*
G01X18828Y31717D01*
G01X18850Y31710D01*
G01X18871Y31700D01*
G01X18891Y31688D01*
G01X18909Y31674D01*
G01X18925Y31658D01*
G01X18940Y31640D01*
G01X18951Y31620D01*
G01X18961Y31599D01*
G01X18968Y31577D01*
G01X18972Y31555D01*
G01X18973Y31532D01*
G01X18972Y31509D01*
G01X18968Y31486D01*
G01X18961Y31464D01*
G01X18951Y31443D01*
G01X18940Y31424D01*
G01X18925Y31405D01*
G01X18909Y31389D01*
G01X18891Y31375D01*
G01X18871Y31363D01*
G01X18850Y31354D01*
G01X18828Y31347D01*
G01X18806Y31342D01*
G01X18783Y31341D01*
G01X17132Y31341D01*
G01X17109Y31342D01*
G01X17086Y31347D01*
G01X17064Y31354D01*
G01X17043Y31363D01*
G01X17024Y31375D01*
G01X17006Y31389D01*
G01X16989Y31405D01*
G01X16975Y31424D01*
G01X16963Y31443D01*
G01X16954Y31464D01*
G01X16947Y31486D01*
G01X16943Y31509D01*
G01X16941Y31532D01*
G01X16943Y31555D01*
G01X16947Y31577D01*
G01X16954Y31599D01*
G01X16963Y31620D01*
G01X16975Y31640D01*
G01X16989Y31658D01*
G01X17006Y31674D01*
G01X17024Y31688D01*
G01X17043Y31700D01*
G01X17064Y31710D01*
G01X17086Y31717D01*
G01X17109Y31721D01*
G01X17132Y31722D01*
G01X18783Y31722D01*
G37*
G36*
G01X18783Y31072D02*
G01X18806Y31071D01*
G01X18828Y31066D01*
G01X18850Y31060D01*
G01X18871Y31050D01*
G01X18891Y31038D01*
G01X18909Y31024D01*
G01X18925Y31008D01*
G01X18940Y30990D01*
G01X18951Y30970D01*
G01X18961Y30949D01*
G01X18968Y30927D01*
G01X18972Y30904D01*
G01X18973Y30881D01*
G01X18972Y30859D01*
G01X18968Y30836D01*
G01X18961Y30814D01*
G01X18951Y30793D01*
G01X18940Y30773D01*
G01X18925Y30755D01*
G01X18909Y30739D01*
G01X18891Y30725D01*
G01X18871Y30713D01*
G01X18850Y30703D01*
G01X18828Y30697D01*
G01X18806Y30693D01*
G01X18783Y30691D01*
G01X17132Y30691D01*
G01X17109Y30693D01*
G01X17086Y30697D01*
G01X17064Y30703D01*
G01X17043Y30713D01*
G01X17024Y30725D01*
G01X17006Y30739D01*
G01X16989Y30755D01*
G01X16975Y30773D01*
G01X16963Y30793D01*
G01X16954Y30814D01*
G01X16947Y30836D01*
G01X16943Y30859D01*
G01X16941Y30881D01*
G01X16943Y30904D01*
G01X16947Y30927D01*
G01X16954Y30949D01*
G01X16963Y30970D01*
G01X16975Y30990D01*
G01X16989Y31008D01*
G01X17006Y31024D01*
G01X17024Y31038D01*
G01X17043Y31050D01*
G01X17064Y31060D01*
G01X17086Y31066D01*
G01X17109Y31071D01*
G01X17132Y31072D01*
G01X18783Y31072D01*
G37*
G36*
G01X18783Y30422D02*
G01X18806Y30420D01*
G01X18828Y30416D01*
G01X18850Y30409D01*
G01X18871Y30400D01*
G01X18891Y30388D01*
G01X18909Y30374D01*
G01X18925Y30357D01*
G01X18940Y30339D01*
G01X18951Y30320D01*
G01X18961Y30299D01*
G01X18968Y30277D01*
G01X18972Y30254D01*
G01X18973Y30231D01*
G01X18972Y30208D01*
G01X18968Y30186D01*
G01X18961Y30164D01*
G01X18951Y30143D01*
G01X18940Y30123D01*
G01X18925Y30105D01*
G01X18909Y30088D01*
G01X18891Y30075D01*
G01X18871Y30063D01*
G01X18850Y30053D01*
G01X18828Y30046D01*
G01X18806Y30042D01*
G01X18783Y30041D01*
G01X17132Y30041D01*
G01X17109Y30042D01*
G01X17086Y30046D01*
G01X17064Y30053D01*
G01X17043Y30063D01*
G01X17024Y30075D01*
G01X17006Y30088D01*
G01X16989Y30105D01*
G01X16975Y30123D01*
G01X16963Y30143D01*
G01X16954Y30164D01*
G01X16947Y30186D01*
G01X16943Y30208D01*
G01X16941Y30231D01*
G01X16943Y30254D01*
G01X16947Y30277D01*
G01X16954Y30299D01*
G01X16963Y30320D01*
G01X16975Y30339D01*
G01X16989Y30357D01*
G01X17006Y30374D01*
G01X17024Y30388D01*
G01X17043Y30400D01*
G01X17064Y30409D01*
G01X17086Y30416D01*
G01X17109Y30420D01*
G01X17132Y30422D01*
G01X18783Y30422D01*
G37*
G36*
G01X18783Y29772D02*
G01X18806Y29770D01*
G01X18828Y29766D01*
G01X18850Y29760D01*
G01X18871Y29750D01*
G01X18891Y29738D01*
G01X18909Y29724D01*
G01X18925Y29708D01*
G01X18940Y29690D01*
G01X18951Y29670D01*
G01X18961Y29649D01*
G01X18968Y29627D01*
G01X18972Y29604D01*
G01X18973Y29582D01*
G01X18972Y29559D01*
G01X18968Y29536D01*
G01X18961Y29514D01*
G01X18951Y29493D01*
G01X18940Y29473D01*
G01X18925Y29455D01*
G01X18909Y29439D01*
G01X18891Y29425D01*
G01X18871Y29413D01*
G01X18850Y29403D01*
G01X18828Y29397D01*
G01X18806Y29392D01*
G01X18783Y29391D01*
G01X17132Y29391D01*
G01X17109Y29392D01*
G01X17086Y29397D01*
G01X17064Y29403D01*
G01X17043Y29413D01*
G01X17024Y29425D01*
G01X17006Y29439D01*
G01X16989Y29455D01*
G01X16975Y29473D01*
G01X16963Y29493D01*
G01X16954Y29514D01*
G01X16947Y29536D01*
G01X16943Y29559D01*
G01X16941Y29582D01*
G01X16943Y29604D01*
G01X16947Y29627D01*
G01X16954Y29649D01*
G01X16963Y29670D01*
G01X16975Y29690D01*
G01X16989Y29708D01*
G01X17006Y29724D01*
G01X17024Y29738D01*
G01X17043Y29750D01*
G01X17064Y29760D01*
G01X17086Y29766D01*
G01X17109Y29770D01*
G01X17132Y29772D01*
G01X18783Y29772D01*
G37*
G36*
G01X18783Y29122D02*
G01X18806Y29121D01*
G01X18828Y29117D01*
G01X18850Y29110D01*
G01X18871Y29100D01*
G01X18891Y29088D01*
G01X18909Y29074D01*
G01X18925Y29058D01*
G01X18940Y29040D01*
G01X18951Y29020D01*
G01X18961Y28999D01*
G01X18968Y28977D01*
G01X18972Y28955D01*
G01X18973Y28932D01*
G01X18972Y28909D01*
G01X18968Y28886D01*
G01X18961Y28864D01*
G01X18951Y28843D01*
G01X18940Y28824D01*
G01X18925Y28806D01*
G01X18909Y28789D01*
G01X18891Y28775D01*
G01X18871Y28763D01*
G01X18850Y28754D01*
G01X18828Y28747D01*
G01X18806Y28743D01*
G01X18783Y28741D01*
G01X17132Y28741D01*
G01X17109Y28743D01*
G01X17086Y28747D01*
G01X17064Y28754D01*
G01X17043Y28763D01*
G01X17024Y28775D01*
G01X17006Y28789D01*
G01X16989Y28806D01*
G01X16975Y28824D01*
G01X16963Y28843D01*
G01X16954Y28864D01*
G01X16947Y28886D01*
G01X16943Y28909D01*
G01X16941Y28932D01*
G01X16943Y28955D01*
G01X16947Y28977D01*
G01X16954Y28999D01*
G01X16963Y29020D01*
G01X16975Y29040D01*
G01X16989Y29058D01*
G01X17006Y29074D01*
G01X17024Y29088D01*
G01X17043Y29100D01*
G01X17064Y29110D01*
G01X17086Y29117D01*
G01X17109Y29121D01*
G01X17132Y29122D01*
G01X18783Y29122D01*
G37*
G36*
G01X18783Y28472D02*
G01X18806Y28471D01*
G01X18828Y28466D01*
G01X18850Y28460D01*
G01X18871Y28450D01*
G01X18891Y28438D01*
G01X18909Y28424D01*
G01X18925Y28408D01*
G01X18940Y28390D01*
G01X18951Y28370D01*
G01X18961Y28349D01*
G01X18968Y28327D01*
G01X18972Y28304D01*
G01X18973Y28282D01*
G01X18972Y28258D01*
G01X18968Y28236D01*
G01X18961Y28214D01*
G01X18951Y28193D01*
G01X18940Y28173D01*
G01X18925Y28155D01*
G01X18909Y28139D01*
G01X18891Y28125D01*
G01X18871Y28113D01*
G01X18850Y28103D01*
G01X18828Y28097D01*
G01X18806Y28092D01*
G01X18783Y28091D01*
G01X17132Y28091D01*
G01X17109Y28092D01*
G01X17086Y28097D01*
G01X17064Y28103D01*
G01X17043Y28113D01*
G01X17024Y28125D01*
G01X17006Y28139D01*
G01X16989Y28155D01*
G01X16975Y28173D01*
G01X16963Y28193D01*
G01X16954Y28214D01*
G01X16947Y28236D01*
G01X16943Y28258D01*
G01X16941Y28282D01*
G01X16943Y28304D01*
G01X16947Y28327D01*
G01X16954Y28349D01*
G01X16963Y28370D01*
G01X16975Y28390D01*
G01X16989Y28408D01*
G01X17006Y28424D01*
G01X17024Y28438D01*
G01X17043Y28450D01*
G01X17064Y28460D01*
G01X17086Y28466D01*
G01X17109Y28471D01*
G01X17132Y28472D01*
G01X18783Y28472D01*
G37*
G36*
G01X11671Y28472D02*
G01X11694Y28471D01*
G01X11716Y28466D01*
G01X11738Y28460D01*
G01X11759Y28450D01*
G01X11779Y28438D01*
G01X11797Y28424D01*
G01X11813Y28408D01*
G01X11828Y28390D01*
G01X11839Y28370D01*
G01X11849Y28349D01*
G01X11856Y28327D01*
G01X11860Y28304D01*
G01X11861Y28282D01*
G01X11860Y28258D01*
G01X11856Y28236D01*
G01X11849Y28214D01*
G01X11839Y28193D01*
G01X11828Y28173D01*
G01X11813Y28155D01*
G01X11797Y28139D01*
G01X11779Y28125D01*
G01X11759Y28113D01*
G01X11738Y28103D01*
G01X11716Y28097D01*
G01X11694Y28092D01*
G01X11671Y28091D01*
G01X10020Y28091D01*
G01X9997Y28092D01*
G01X9974Y28097D01*
G01X9952Y28103D01*
G01X9931Y28113D01*
G01X9912Y28125D01*
G01X9894Y28139D01*
G01X9877Y28155D01*
G01X9863Y28173D01*
G01X9851Y28193D01*
G01X9842Y28214D01*
G01X9835Y28236D01*
G01X9831Y28258D01*
G01X9829Y28282D01*
G01X9831Y28304D01*
G01X9835Y28327D01*
G01X9842Y28349D01*
G01X9851Y28370D01*
G01X9863Y28390D01*
G01X9877Y28408D01*
G01X9894Y28424D01*
G01X9912Y28438D01*
G01X9931Y28450D01*
G01X9952Y28460D01*
G01X9974Y28466D01*
G01X9997Y28471D01*
G01X10020Y28472D01*
G01X11671Y28472D01*
G37*
G36*
G01X11671Y29122D02*
G01X11694Y29121D01*
G01X11716Y29117D01*
G01X11738Y29110D01*
G01X11759Y29100D01*
G01X11779Y29088D01*
G01X11797Y29074D01*
G01X11813Y29058D01*
G01X11828Y29040D01*
G01X11839Y29020D01*
G01X11849Y28999D01*
G01X11856Y28977D01*
G01X11860Y28955D01*
G01X11861Y28932D01*
G01X11860Y28909D01*
G01X11856Y28886D01*
G01X11849Y28864D01*
G01X11839Y28843D01*
G01X11828Y28824D01*
G01X11813Y28806D01*
G01X11797Y28789D01*
G01X11779Y28775D01*
G01X11759Y28763D01*
G01X11738Y28754D01*
G01X11716Y28747D01*
G01X11694Y28743D01*
G01X11671Y28741D01*
G01X10020Y28741D01*
G01X9997Y28743D01*
G01X9974Y28747D01*
G01X9952Y28754D01*
G01X9931Y28763D01*
G01X9912Y28775D01*
G01X9894Y28789D01*
G01X9877Y28806D01*
G01X9863Y28824D01*
G01X9851Y28843D01*
G01X9842Y28864D01*
G01X9835Y28886D01*
G01X9831Y28909D01*
G01X9829Y28932D01*
G01X9831Y28955D01*
G01X9835Y28977D01*
G01X9842Y28999D01*
G01X9851Y29020D01*
G01X9863Y29040D01*
G01X9877Y29058D01*
G01X9894Y29074D01*
G01X9912Y29088D01*
G01X9931Y29100D01*
G01X9952Y29110D01*
G01X9974Y29117D01*
G01X9997Y29121D01*
G01X10020Y29122D01*
G01X11671Y29122D01*
G37*
G36*
G01X11671Y29772D02*
G01X11694Y29770D01*
G01X11716Y29766D01*
G01X11738Y29760D01*
G01X11759Y29750D01*
G01X11779Y29738D01*
G01X11797Y29724D01*
G01X11813Y29708D01*
G01X11828Y29690D01*
G01X11839Y29670D01*
G01X11849Y29649D01*
G01X11856Y29627D01*
G01X11860Y29604D01*
G01X11861Y29582D01*
G01X11860Y29559D01*
G01X11856Y29536D01*
G01X11849Y29514D01*
G01X11839Y29493D01*
G01X11828Y29473D01*
G01X11813Y29455D01*
G01X11797Y29439D01*
G01X11779Y29425D01*
G01X11759Y29413D01*
G01X11738Y29403D01*
G01X11716Y29397D01*
G01X11694Y29392D01*
G01X11671Y29391D01*
G01X10020Y29391D01*
G01X9997Y29392D01*
G01X9974Y29397D01*
G01X9952Y29403D01*
G01X9931Y29413D01*
G01X9912Y29425D01*
G01X9894Y29439D01*
G01X9877Y29455D01*
G01X9863Y29473D01*
G01X9851Y29493D01*
G01X9842Y29514D01*
G01X9835Y29536D01*
G01X9831Y29559D01*
G01X9829Y29582D01*
G01X9831Y29604D01*
G01X9835Y29627D01*
G01X9842Y29649D01*
G01X9851Y29670D01*
G01X9863Y29690D01*
G01X9877Y29708D01*
G01X9894Y29724D01*
G01X9912Y29738D01*
G01X9931Y29750D01*
G01X9952Y29760D01*
G01X9974Y29766D01*
G01X9997Y29770D01*
G01X10020Y29772D01*
G01X11671Y29772D01*
G37*
G36*
G01X11671Y30422D02*
G01X11694Y30420D01*
G01X11716Y30416D01*
G01X11738Y30409D01*
G01X11759Y30400D01*
G01X11779Y30388D01*
G01X11797Y30374D01*
G01X11813Y30357D01*
G01X11828Y30339D01*
G01X11839Y30320D01*
G01X11849Y30299D01*
G01X11856Y30277D01*
G01X11860Y30254D01*
G01X11861Y30231D01*
G01X11860Y30208D01*
G01X11856Y30186D01*
G01X11849Y30164D01*
G01X11839Y30143D01*
G01X11828Y30123D01*
G01X11813Y30105D01*
G01X11797Y30088D01*
G01X11779Y30075D01*
G01X11759Y30063D01*
G01X11738Y30053D01*
G01X11716Y30046D01*
G01X11694Y30042D01*
G01X11671Y30041D01*
G01X10020Y30041D01*
G01X9997Y30042D01*
G01X9974Y30046D01*
G01X9952Y30053D01*
G01X9931Y30063D01*
G01X9912Y30075D01*
G01X9894Y30088D01*
G01X9877Y30105D01*
G01X9863Y30123D01*
G01X9851Y30143D01*
G01X9842Y30164D01*
G01X9835Y30186D01*
G01X9831Y30208D01*
G01X9829Y30231D01*
G01X9831Y30254D01*
G01X9835Y30277D01*
G01X9842Y30299D01*
G01X9851Y30320D01*
G01X9863Y30339D01*
G01X9877Y30357D01*
G01X9894Y30374D01*
G01X9912Y30388D01*
G01X9931Y30400D01*
G01X9952Y30409D01*
G01X9974Y30416D01*
G01X9997Y30420D01*
G01X10020Y30422D01*
G01X11671Y30422D01*
G37*
G36*
G01X11671Y31072D02*
G01X11694Y31071D01*
G01X11716Y31066D01*
G01X11738Y31060D01*
G01X11759Y31050D01*
G01X11779Y31038D01*
G01X11797Y31024D01*
G01X11813Y31008D01*
G01X11828Y30990D01*
G01X11839Y30970D01*
G01X11849Y30949D01*
G01X11856Y30927D01*
G01X11860Y30904D01*
G01X11861Y30881D01*
G01X11860Y30859D01*
G01X11856Y30836D01*
G01X11849Y30814D01*
G01X11839Y30793D01*
G01X11828Y30773D01*
G01X11813Y30755D01*
G01X11797Y30739D01*
G01X11779Y30725D01*
G01X11759Y30713D01*
G01X11738Y30703D01*
G01X11716Y30697D01*
G01X11694Y30693D01*
G01X11671Y30691D01*
G01X10020Y30691D01*
G01X9997Y30693D01*
G01X9974Y30697D01*
G01X9952Y30703D01*
G01X9931Y30713D01*
G01X9912Y30725D01*
G01X9894Y30739D01*
G01X9877Y30755D01*
G01X9863Y30773D01*
G01X9851Y30793D01*
G01X9842Y30814D01*
G01X9835Y30836D01*
G01X9831Y30859D01*
G01X9829Y30881D01*
G01X9831Y30904D01*
G01X9835Y30927D01*
G01X9842Y30949D01*
G01X9851Y30970D01*
G01X9863Y30990D01*
G01X9877Y31008D01*
G01X9894Y31024D01*
G01X9912Y31038D01*
G01X9931Y31050D01*
G01X9952Y31060D01*
G01X9974Y31066D01*
G01X9997Y31071D01*
G01X10020Y31072D01*
G01X11671Y31072D01*
G37*
G36*
G01X11671Y31722D02*
G01X11694Y31721D01*
G01X11716Y31717D01*
G01X11738Y31710D01*
G01X11759Y31700D01*
G01X11779Y31688D01*
G01X11797Y31674D01*
G01X11813Y31658D01*
G01X11828Y31640D01*
G01X11839Y31620D01*
G01X11849Y31599D01*
G01X11856Y31577D01*
G01X11860Y31555D01*
G01X11861Y31532D01*
G01X11860Y31509D01*
G01X11856Y31486D01*
G01X11849Y31464D01*
G01X11839Y31443D01*
G01X11828Y31424D01*
G01X11813Y31405D01*
G01X11797Y31389D01*
G01X11779Y31375D01*
G01X11759Y31363D01*
G01X11738Y31354D01*
G01X11716Y31347D01*
G01X11694Y31342D01*
G01X11671Y31341D01*
G01X10020Y31341D01*
G01X9997Y31342D01*
G01X9974Y31347D01*
G01X9952Y31354D01*
G01X9931Y31363D01*
G01X9912Y31375D01*
G01X9894Y31389D01*
G01X9877Y31405D01*
G01X9863Y31424D01*
G01X9851Y31443D01*
G01X9842Y31464D01*
G01X9835Y31486D01*
G01X9831Y31509D01*
G01X9829Y31532D01*
G01X9831Y31555D01*
G01X9835Y31577D01*
G01X9842Y31599D01*
G01X9851Y31620D01*
G01X9863Y31640D01*
G01X9877Y31658D01*
G01X9894Y31674D01*
G01X9912Y31688D01*
G01X9931Y31700D01*
G01X9952Y31710D01*
G01X9974Y31717D01*
G01X9997Y31721D01*
G01X10020Y31722D01*
G01X11671Y31722D01*
G37*
G36*
G01X11671Y32372D02*
G01X11694Y32371D01*
G01X11716Y32367D01*
G01X11738Y32360D01*
G01X11759Y32350D01*
G01X11779Y32338D01*
G01X11797Y32324D01*
G01X11813Y32308D01*
G01X11828Y32290D01*
G01X11839Y32270D01*
G01X11849Y32249D01*
G01X11856Y32227D01*
G01X11860Y32205D01*
G01X11861Y32182D01*
G01X11860Y32159D01*
G01X11856Y32136D01*
G01X11849Y32114D01*
G01X11839Y32093D01*
G01X11828Y32074D01*
G01X11813Y32055D01*
G01X11797Y32039D01*
G01X11779Y32025D01*
G01X11759Y32013D01*
G01X11738Y32004D01*
G01X11716Y31997D01*
G01X11694Y31992D01*
G01X11671Y31991D01*
G01X10020Y31991D01*
G01X9997Y31992D01*
G01X9974Y31997D01*
G01X9952Y32004D01*
G01X9931Y32013D01*
G01X9912Y32025D01*
G01X9894Y32039D01*
G01X9877Y32055D01*
G01X9863Y32074D01*
G01X9851Y32093D01*
G01X9842Y32114D01*
G01X9835Y32136D01*
G01X9831Y32159D01*
G01X9829Y32182D01*
G01X9831Y32205D01*
G01X9835Y32227D01*
G01X9842Y32249D01*
G01X9851Y32270D01*
G01X9863Y32290D01*
G01X9877Y32308D01*
G01X9894Y32324D01*
G01X9912Y32338D01*
G01X9931Y32350D01*
G01X9952Y32360D01*
G01X9974Y32367D01*
G01X9997Y32371D01*
G01X10020Y32372D01*
G01X11671Y32372D01*
G37*
G36*
G01X11671Y33022D02*
G01X11694Y33021D01*
G01X11716Y33017D01*
G01X11738Y33010D01*
G01X11759Y33001D01*
G01X11779Y32989D01*
G01X11797Y32974D01*
G01X11813Y32958D01*
G01X11828Y32940D01*
G01X11839Y32920D01*
G01X11849Y32900D01*
G01X11856Y32877D01*
G01X11860Y32855D01*
G01X11861Y32832D01*
G01X11860Y32809D01*
G01X11856Y32786D01*
G01X11849Y32764D01*
G01X11839Y32743D01*
G01X11828Y32724D01*
G01X11813Y32705D01*
G01X11797Y32689D01*
G01X11779Y32675D01*
G01X11759Y32663D01*
G01X11738Y32654D01*
G01X11716Y32647D01*
G01X11694Y32643D01*
G01X11671Y32641D01*
G01X10020Y32641D01*
G01X9997Y32643D01*
G01X9974Y32647D01*
G01X9952Y32654D01*
G01X9931Y32663D01*
G01X9912Y32675D01*
G01X9894Y32689D01*
G01X9877Y32705D01*
G01X9863Y32724D01*
G01X9851Y32743D01*
G01X9842Y32764D01*
G01X9835Y32786D01*
G01X9831Y32809D01*
G01X9829Y32832D01*
G01X9831Y32855D01*
G01X9835Y32877D01*
G01X9842Y32900D01*
G01X9851Y32920D01*
G01X9863Y32940D01*
G01X9877Y32958D01*
G01X9894Y32974D01*
G01X9912Y32989D01*
G01X9931Y33001D01*
G01X9952Y33010D01*
G01X9974Y33017D01*
G01X9997Y33021D01*
G01X10020Y33022D01*
G01X11671Y33022D01*
G37*
G36*
G01X11671Y33672D02*
G01X11694Y33671D01*
G01X11716Y33667D01*
G01X11738Y33660D01*
G01X11759Y33650D01*
G01X11779Y33638D01*
G01X11797Y33624D01*
G01X11813Y33608D01*
G01X11828Y33590D01*
G01X11839Y33570D01*
G01X11849Y33549D01*
G01X11856Y33527D01*
G01X11860Y33505D01*
G01X11861Y33482D01*
G01X11860Y33459D01*
G01X11856Y33436D01*
G01X11849Y33414D01*
G01X11839Y33393D01*
G01X11828Y33373D01*
G01X11813Y33355D01*
G01X11797Y33339D01*
G01X11779Y33325D01*
G01X11759Y33313D01*
G01X11738Y33304D01*
G01X11716Y33297D01*
G01X11694Y33292D01*
G01X11671Y33291D01*
G01X10020Y33291D01*
G01X9997Y33292D01*
G01X9974Y33297D01*
G01X9952Y33304D01*
G01X9931Y33313D01*
G01X9912Y33325D01*
G01X9894Y33339D01*
G01X9877Y33355D01*
G01X9863Y33373D01*
G01X9851Y33393D01*
G01X9842Y33414D01*
G01X9835Y33436D01*
G01X9831Y33459D01*
G01X9829Y33482D01*
G01X9831Y33505D01*
G01X9835Y33527D01*
G01X9842Y33549D01*
G01X9851Y33570D01*
G01X9863Y33590D01*
G01X9877Y33608D01*
G01X9894Y33624D01*
G01X9912Y33638D01*
G01X9931Y33650D01*
G01X9952Y33660D01*
G01X9974Y33667D01*
G01X9997Y33671D01*
G01X10020Y33672D01*
G01X11671Y33672D01*
G37*
G36*
G01X11671Y34322D02*
G01X11694Y34320D01*
G01X11716Y34316D01*
G01X11738Y34309D01*
G01X11759Y34300D01*
G01X11779Y34288D01*
G01X11797Y34274D01*
G01X11813Y34258D01*
G01X11828Y34240D01*
G01X11839Y34220D01*
G01X11849Y34199D01*
G01X11856Y34177D01*
G01X11860Y34154D01*
G01X11861Y34131D01*
G01X11860Y34108D01*
G01X11856Y34086D01*
G01X11849Y34064D01*
G01X11839Y34043D01*
G01X11828Y34023D01*
G01X11813Y34005D01*
G01X11797Y33989D01*
G01X11779Y33975D01*
G01X11759Y33963D01*
G01X11738Y33953D01*
G01X11716Y33946D01*
G01X11694Y33942D01*
G01X11671Y33941D01*
G01X10020Y33941D01*
G01X9997Y33942D01*
G01X9974Y33946D01*
G01X9952Y33953D01*
G01X9931Y33963D01*
G01X9912Y33975D01*
G01X9894Y33989D01*
G01X9877Y34005D01*
G01X9863Y34023D01*
G01X9851Y34043D01*
G01X9842Y34064D01*
G01X9835Y34086D01*
G01X9831Y34108D01*
G01X9829Y34131D01*
G01X9831Y34154D01*
G01X9835Y34177D01*
G01X9842Y34199D01*
G01X9851Y34220D01*
G01X9863Y34240D01*
G01X9877Y34258D01*
G01X9894Y34274D01*
G01X9912Y34288D01*
G01X9931Y34300D01*
G01X9952Y34309D01*
G01X9974Y34316D01*
G01X9997Y34320D01*
G01X10020Y34322D01*
G01X11671Y34322D01*
G37*
G36*
G01X11671Y34972D02*
G01X11694Y34971D01*
G01X11716Y34967D01*
G01X11738Y34960D01*
G01X11759Y34950D01*
G01X11779Y34938D01*
G01X11797Y34924D01*
G01X11813Y34908D01*
G01X11828Y34890D01*
G01X11839Y34870D01*
G01X11849Y34849D01*
G01X11856Y34827D01*
G01X11860Y34805D01*
G01X11861Y34782D01*
G01X11860Y34759D01*
G01X11856Y34736D01*
G01X11849Y34714D01*
G01X11839Y34693D01*
G01X11828Y34673D01*
G01X11813Y34655D01*
G01X11797Y34639D01*
G01X11779Y34625D01*
G01X11759Y34613D01*
G01X11738Y34603D01*
G01X11716Y34597D01*
G01X11694Y34592D01*
G01X11671Y34591D01*
G01X10020Y34591D01*
G01X9997Y34592D01*
G01X9974Y34597D01*
G01X9952Y34603D01*
G01X9931Y34613D01*
G01X9912Y34625D01*
G01X9894Y34639D01*
G01X9877Y34655D01*
G01X9863Y34673D01*
G01X9851Y34693D01*
G01X9842Y34714D01*
G01X9835Y34736D01*
G01X9831Y34759D01*
G01X9829Y34782D01*
G01X9831Y34805D01*
G01X9835Y34827D01*
G01X9842Y34849D01*
G01X9851Y34870D01*
G01X9863Y34890D01*
G01X9877Y34908D01*
G01X9894Y34924D01*
G01X9912Y34938D01*
G01X9931Y34950D01*
G01X9952Y34960D01*
G01X9974Y34967D01*
G01X9997Y34971D01*
G01X10020Y34972D01*
G01X11671Y34972D01*
G37*
G36*
G01X11671Y35622D02*
G01X11694Y35621D01*
G01X11716Y35617D01*
G01X11738Y35610D01*
G01X11759Y35600D01*
G01X11779Y35588D01*
G01X11797Y35574D01*
G01X11813Y35558D01*
G01X11828Y35540D01*
G01X11839Y35520D01*
G01X11849Y35499D01*
G01X11856Y35477D01*
G01X11860Y35454D01*
G01X11861Y35432D01*
G01X11860Y35409D01*
G01X11856Y35386D01*
G01X11849Y35364D01*
G01X11839Y35343D01*
G01X11828Y35323D01*
G01X11813Y35305D01*
G01X11797Y35289D01*
G01X11779Y35275D01*
G01X11759Y35263D01*
G01X11738Y35254D01*
G01X11716Y35247D01*
G01X11694Y35242D01*
G01X11671Y35241D01*
G01X10020Y35241D01*
G01X9997Y35242D01*
G01X9974Y35247D01*
G01X9952Y35254D01*
G01X9931Y35263D01*
G01X9912Y35275D01*
G01X9894Y35289D01*
G01X9877Y35305D01*
G01X9863Y35323D01*
G01X9851Y35343D01*
G01X9842Y35364D01*
G01X9835Y35386D01*
G01X9831Y35409D01*
G01X9829Y35432D01*
G01X9831Y35454D01*
G01X9835Y35477D01*
G01X9842Y35499D01*
G01X9851Y35520D01*
G01X9863Y35540D01*
G01X9877Y35558D01*
G01X9894Y35574D01*
G01X9912Y35588D01*
G01X9931Y35600D01*
G01X9952Y35610D01*
G01X9974Y35617D01*
G01X9997Y35621D01*
G01X10020Y35622D01*
G01X11671Y35622D01*
G37*
G36*
G01X11671Y36272D02*
G01X11694Y36271D01*
G01X11716Y36267D01*
G01X11738Y36260D01*
G01X11759Y36251D01*
G01X11779Y36239D01*
G01X11797Y36224D01*
G01X11813Y36208D01*
G01X11828Y36190D01*
G01X11839Y36171D01*
G01X11849Y36149D01*
G01X11856Y36128D01*
G01X11860Y36105D01*
G01X11861Y36082D01*
G01X11860Y36059D01*
G01X11856Y36036D01*
G01X11849Y36014D01*
G01X11839Y35993D01*
G01X11828Y35974D01*
G01X11813Y35956D01*
G01X11797Y35939D01*
G01X11779Y35925D01*
G01X11759Y35913D01*
G01X11738Y35904D01*
G01X11716Y35897D01*
G01X11694Y35893D01*
G01X11671Y35891D01*
G01X10020Y35891D01*
G01X9997Y35893D01*
G01X9974Y35897D01*
G01X9952Y35904D01*
G01X9931Y35913D01*
G01X9912Y35925D01*
G01X9894Y35939D01*
G01X9877Y35956D01*
G01X9863Y35974D01*
G01X9851Y35993D01*
G01X9842Y36014D01*
G01X9835Y36036D01*
G01X9831Y36059D01*
G01X9829Y36082D01*
G01X9831Y36105D01*
G01X9835Y36128D01*
G01X9842Y36149D01*
G01X9851Y36171D01*
G01X9863Y36190D01*
G01X9877Y36208D01*
G01X9894Y36224D01*
G01X9912Y36239D01*
G01X9931Y36251D01*
G01X9952Y36260D01*
G01X9974Y36267D01*
G01X9997Y36271D01*
G01X10020Y36272D01*
G01X11671Y36272D01*
G37*
G36*
G01X11671Y36922D02*
G01X11694Y36921D01*
G01X11716Y36917D01*
G01X11738Y36910D01*
G01X11759Y36900D01*
G01X11779Y36888D01*
G01X11797Y36874D01*
G01X11813Y36858D01*
G01X11828Y36840D01*
G01X11839Y36820D01*
G01X11849Y36799D01*
G01X11856Y36777D01*
G01X11860Y36754D01*
G01X11861Y36732D01*
G01X11860Y36708D01*
G01X11856Y36686D01*
G01X11849Y36664D01*
G01X11839Y36643D01*
G01X11828Y36623D01*
G01X11813Y36605D01*
G01X11797Y36589D01*
G01X11779Y36575D01*
G01X11759Y36563D01*
G01X11738Y36554D01*
G01X11716Y36547D01*
G01X11694Y36542D01*
G01X11671Y36541D01*
G01X10020Y36541D01*
G01X9997Y36542D01*
G01X9974Y36547D01*
G01X9952Y36554D01*
G01X9931Y36563D01*
G01X9912Y36575D01*
G01X9894Y36589D01*
G01X9877Y36605D01*
G01X9863Y36623D01*
G01X9851Y36643D01*
G01X9842Y36664D01*
G01X9835Y36686D01*
G01X9831Y36708D01*
G01X9829Y36732D01*
G01X9831Y36754D01*
G01X9835Y36777D01*
G01X9842Y36799D01*
G01X9851Y36820D01*
G01X9863Y36840D01*
G01X9877Y36858D01*
G01X9894Y36874D01*
G01X9912Y36888D01*
G01X9931Y36900D01*
G01X9952Y36910D01*
G01X9974Y36917D01*
G01X9997Y36921D01*
G01X10020Y36922D01*
G01X11671Y36922D01*
G37*
G36*
G01X51580Y17018D02*
G01X51580Y15398D01*
G01X53626Y15398D01*
G01X53626Y17018D01*
G01X51580Y17018D01*
G37*
G36*
G01X48495Y17018D02*
G01X48495Y15398D01*
G01X46449Y15398D01*
G01X46449Y17018D01*
G01X48495Y17018D01*
G37*
G36*
G01X44912Y31136D02*
G01X44112Y31136D01*
G01X44112Y30236D01*
G01X44912Y30236D01*
G01X44912Y31136D01*
G37*
G36*
G01X46311Y31136D02*
G01X45511Y31136D01*
G01X45511Y30236D01*
G01X46311Y30236D01*
G01X46311Y31136D01*
G37*
G36*
G01X42118Y31136D02*
G01X41318Y31136D01*
G01X41318Y30236D01*
G01X42118Y30236D01*
G01X42118Y31136D01*
G37*
G36*
G01X43517Y31136D02*
G01X42717Y31136D01*
G01X42717Y30236D01*
G01X43517Y30236D01*
G01X43517Y31136D01*
G37*
G54D59*
G01X6731Y33118D03*
G36*
G01X7241Y39587D02*
G01X6220Y39587D01*
G01X6220Y44861D01*
G01X7241Y44861D01*
G01X7241Y39587D01*
G37*
G36*
G01X12747Y43951D02*
G01X12747Y43051D01*
G01X14118Y43051D01*
G01X14118Y43951D01*
G01X12747Y43951D01*
G37*
G36*
G01X12747Y42581D02*
G01X12747Y41681D01*
G01X14118Y41681D01*
G01X14118Y42581D01*
G01X12747Y42581D01*
G37*
G36*
G01X12747Y41281D02*
G01X12747Y40381D01*
G01X14118Y40381D01*
G01X14118Y41281D01*
G01X12747Y41281D01*
G37*
G36*
G01X12747Y39911D02*
G01X12747Y39011D01*
G01X14118Y39011D01*
G01X14118Y39911D01*
G01X12747Y39911D01*
G37*
G36*
G01X17478Y39011D02*
G01X17478Y39911D01*
G01X16107Y39911D01*
G01X16107Y39011D01*
G01X17478Y39011D01*
G37*
G36*
G01X17478Y40381D02*
G01X17478Y41281D01*
G01X16107Y41281D01*
G01X16107Y40381D01*
G01X17478Y40381D01*
G37*
G36*
G01X17478Y41681D02*
G01X17478Y42581D01*
G01X16107Y42581D01*
G01X16107Y41681D01*
G01X17478Y41681D01*
G37*
G36*
G01X17478Y43051D02*
G01X17478Y43951D01*
G01X16107Y43951D01*
G01X16107Y43051D01*
G01X17478Y43051D01*
G37*
G36*
G01X12747Y51063D02*
G01X12747Y50163D01*
G01X14118Y50163D01*
G01X14118Y51063D01*
G01X12747Y51063D01*
G37*
G36*
G01X12747Y49693D02*
G01X12747Y48793D01*
G01X14118Y48793D01*
G01X14118Y49693D01*
G01X12747Y49693D01*
G37*
G36*
G01X12747Y48393D02*
G01X12747Y47493D01*
G01X14118Y47493D01*
G01X14118Y48393D01*
G01X12747Y48393D01*
G37*
G36*
G01X12747Y47023D02*
G01X12747Y46123D01*
G01X14118Y46123D01*
G01X14118Y47023D01*
G01X12747Y47023D01*
G37*
G36*
G01X17478Y46123D02*
G01X17478Y47023D01*
G01X16107Y47023D01*
G01X16107Y46123D01*
G01X17478Y46123D01*
G37*
G36*
G01X17478Y47493D02*
G01X17478Y48393D01*
G01X16107Y48393D01*
G01X16107Y47493D01*
G01X17478Y47493D01*
G37*
G36*
G01X17478Y48793D02*
G01X17478Y49693D01*
G01X16107Y49693D01*
G01X16107Y48793D01*
G01X17478Y48793D01*
G37*
G36*
G01X17478Y50163D02*
G01X17478Y51063D01*
G01X16107Y51063D01*
G01X16107Y50163D01*
G01X17478Y50163D01*
G37*

%LPD*%
G36*
G01X58403Y32631D02*
G01X57540Y32631D01*
G01X57061Y32172D01*
G01X57061Y31740D01*
G01X57540Y31281D01*
G01X58403Y31281D01*
G01X58503Y31381D01*
G01X58503Y32531D01*
G01X58403Y32631D01*
G37*

%LPD*%
G36*
G01X55997Y32631D02*
G01X55134Y32631D01*
G01X55034Y32531D01*
G01X55034Y31381D01*
G01X55134Y31281D01*
G01X55997Y31281D01*
G01X56476Y31740D01*
G01X56476Y32172D01*
G01X55997Y32631D01*
G37*

%LPD*%
G36*
G01X62340Y32631D02*
G01X61477Y32631D01*
G01X60998Y32172D01*
G01X60998Y31740D01*
G01X61477Y31281D01*
G01X62340Y31281D01*
G01X62440Y31381D01*
G01X62440Y32531D01*
G01X62340Y32631D01*
G37*

%LPD*%
G36*
G01X59934Y32631D02*
G01X59071Y32631D01*
G01X58971Y32531D01*
G01X58971Y31381D01*
G01X59071Y31281D01*
G01X59934Y31281D01*
G01X60413Y31740D01*
G01X60413Y32172D01*
G01X59934Y32631D01*
G37*

%LPD*%
G36*
G01X53961Y29351D02*
G01X53226Y29351D01*
G01X53161Y29287D01*
G01X53161Y28991D01*
G01X53455Y28588D01*
G01X53732Y28588D01*
G01X54026Y28991D01*
G01X54026Y29287D01*
G01X53961Y29351D01*
G37*

%LPD*%
G36*
G01X53732Y27958D02*
G01X53455Y27958D01*
G01X53161Y27556D01*
G01X53161Y27260D01*
G01X53226Y27196D01*
G01X53961Y27196D01*
G01X54026Y27260D01*
G01X54026Y27556D01*
G01X53732Y27958D01*
G37*

%LPD*%
G36*
G01X52564Y29351D02*
G01X51829Y29351D01*
G01X51764Y29287D01*
G01X51764Y28991D01*
G01X52058Y28588D01*
G01X52335Y28588D01*
G01X52629Y28991D01*
G01X52629Y29287D01*
G01X52564Y29351D01*
G37*

%LPD*%
G36*
G01X52335Y27958D02*
G01X52058Y27958D01*
G01X51764Y27556D01*
G01X51764Y27260D01*
G01X51829Y27196D01*
G01X52564Y27196D01*
G01X52629Y27260D01*
G01X52629Y27556D01*
G01X52335Y27958D01*
G37*

%LPD*%
G36*
G01X51167Y29351D02*
G01X50432Y29351D01*
G01X50367Y29287D01*
G01X50367Y28991D01*
G01X50661Y28588D01*
G01X50938Y28588D01*
G01X51232Y28991D01*
G01X51232Y29287D01*
G01X51167Y29351D01*
G37*

%LPD*%
G36*
G01X50938Y27958D02*
G01X50661Y27958D01*
G01X50367Y27556D01*
G01X50367Y27260D01*
G01X50432Y27196D01*
G01X51167Y27196D01*
G01X51232Y27260D01*
G01X51232Y27556D01*
G01X50938Y27958D01*
G37*

%LPD*%
G36*
G01X47986Y29404D02*
G01X47690Y29404D01*
G01X47626Y29340D01*
G01X47626Y28604D01*
G01X47690Y28540D01*
G01X47986Y28540D01*
G01X48389Y28834D01*
G01X48389Y29110D01*
G01X47986Y29404D01*
G37*

%LPD*%
G36*
G01X49718Y29404D02*
G01X49422Y29404D01*
G01X49019Y29110D01*
G01X49019Y28834D01*
G01X49422Y28540D01*
G01X49718Y28540D01*
G01X49782Y28604D01*
G01X49782Y29340D01*
G01X49718Y29404D01*
G37*

%LPD*%
G36*
G01X49718Y28007D02*
G01X49422Y28007D01*
G01X49019Y27713D01*
G01X49019Y27437D01*
G01X49422Y27143D01*
G01X49718Y27143D01*
G01X49782Y27207D01*
G01X49782Y27943D01*
G01X49718Y28007D01*
G37*

%LPD*%
G36*
G01X47986Y28007D02*
G01X47690Y28007D01*
G01X47626Y27943D01*
G01X47626Y27207D01*
G01X47690Y27143D01*
G01X47986Y27143D01*
G01X48389Y27437D01*
G01X48389Y27713D01*
G01X47986Y28007D01*
G37*

%LPD*%
G36*
G01X44494Y31118D02*
G01X44198Y31118D01*
G01X44134Y31054D01*
G01X44134Y30318D01*
G01X44198Y30254D01*
G01X44494Y30254D01*
G01X44896Y30548D01*
G01X44896Y30825D01*
G01X44494Y31118D01*
G37*

%LPD*%
G36*
G01X46225Y31118D02*
G01X45929Y31118D01*
G01X45527Y30825D01*
G01X45527Y30548D01*
G01X45929Y30254D01*
G01X46225Y30254D01*
G01X46289Y30318D01*
G01X46289Y31054D01*
G01X46225Y31118D01*
G37*

%LPD*%
G36*
G01X41700Y31118D02*
G01X41404Y31118D01*
G01X41340Y31054D01*
G01X41340Y30318D01*
G01X41404Y30254D01*
G01X41700Y30254D01*
G01X42102Y30548D01*
G01X42102Y30825D01*
G01X41700Y31118D01*
G37*

%LPD*%
G36*
G01X43431Y31118D02*
G01X43135Y31118D01*
G01X42733Y30825D01*
G01X42733Y30548D01*
G01X43135Y30254D01*
G01X43431Y30254D01*
G01X43495Y30318D01*
G01X43495Y31054D01*
G01X43431Y31118D01*
G37*

%LPD*%
G36*
G01X10592Y49417D02*
G01X10346Y49417D01*
G01X10246Y49317D01*
G01X10246Y47882D01*
G01X10346Y47782D01*
G01X11497Y47782D01*
G01X11597Y47882D01*
G01X11597Y49317D01*
G01X11497Y49417D01*
G01X11251Y49417D01*
G01X11151Y49317D01*
G01X11151Y48962D01*
G01X11051Y48862D01*
G01X10792Y48862D01*
G01X10692Y48962D01*
G01X10692Y49317D01*
G01X10592Y49417D01*
G37*

%LPD*%
G36*
G01X11497Y52452D02*
G01X10346Y52452D01*
G01X10246Y52352D01*
G01X10246Y50917D01*
G01X10346Y50817D01*
G01X10592Y50817D01*
G01X10692Y50917D01*
G01X10692Y51273D01*
G01X10792Y51373D01*
G01X11051Y51373D01*
G01X11151Y51273D01*
G01X11151Y50917D01*
G01X11251Y50817D01*
G01X11497Y50817D01*
G01X11597Y50917D01*
G01X11597Y52352D01*
G01X11497Y52452D01*
G37*

%LPD*%
G36*
G01X8814Y49417D02*
G01X8568Y49417D01*
G01X8468Y49317D01*
G01X8468Y47882D01*
G01X8568Y47782D01*
G01X9719Y47782D01*
G01X9819Y47882D01*
G01X9819Y49317D01*
G01X9719Y49417D01*
G01X9473Y49417D01*
G01X9373Y49317D01*
G01X9373Y48962D01*
G01X9273Y48862D01*
G01X9014Y48862D01*
G01X8914Y48962D01*
G01X8914Y49317D01*
G01X8814Y49417D01*
G37*

%LPD*%
G36*
G01X9719Y52452D02*
G01X8568Y52452D01*
G01X8468Y52352D01*
G01X8468Y50917D01*
G01X8568Y50817D01*
G01X8814Y50817D01*
G01X8914Y50917D01*
G01X8914Y51273D01*
G01X9014Y51373D01*
G01X9273Y51373D01*
G01X9373Y51273D01*
G01X9373Y50917D01*
G01X9473Y50817D01*
G01X9719Y50817D01*
G01X9819Y50917D01*
G01X9819Y52352D01*
G01X9719Y52452D01*
G37*

%LPD*%
G36*
G01X7036Y49417D02*
G01X6790Y49417D01*
G01X6690Y49317D01*
G01X6690Y47882D01*
G01X6790Y47782D01*
G01X7941Y47782D01*
G01X8041Y47882D01*
G01X8041Y49317D01*
G01X7941Y49417D01*
G01X7695Y49417D01*
G01X7595Y49317D01*
G01X7595Y48962D01*
G01X7495Y48862D01*
G01X7236Y48862D01*
G01X7136Y48962D01*
G01X7136Y49317D01*
G01X7036Y49417D01*
G37*

%LPD*%
G36*
G01X7941Y52452D02*
G01X6790Y52452D01*
G01X6690Y52352D01*
G01X6690Y50917D01*
G01X6790Y50817D01*
G01X7036Y50817D01*
G01X7136Y50917D01*
G01X7136Y51273D01*
G01X7236Y51373D01*
G01X7495Y51373D01*
G01X7595Y51273D01*
G01X7595Y50917D01*
G01X7695Y50817D01*
G01X7941Y50817D01*
G01X8041Y50917D01*
G01X8041Y52352D01*
G01X7941Y52452D01*
G37*

%LPD*%
G36*
G01X5258Y49417D02*
G01X5012Y49417D01*
G01X4912Y49317D01*
G01X4912Y47882D01*
G01X5012Y47782D01*
G01X6163Y47782D01*
G01X6263Y47882D01*
G01X6263Y49317D01*
G01X6163Y49417D01*
G01X5917Y49417D01*
G01X5817Y49317D01*
G01X5817Y48962D01*
G01X5717Y48862D01*
G01X5458Y48862D01*
G01X5358Y48962D01*
G01X5358Y49317D01*
G01X5258Y49417D01*
G37*

%LPD*%
G36*
G01X6163Y52452D02*
G01X5012Y52452D01*
G01X4912Y52352D01*
G01X4912Y50917D01*
G01X5012Y50817D01*
G01X5258Y50817D01*
G01X5358Y50917D01*
G01X5358Y51273D01*
G01X5458Y51373D01*
G01X5717Y51373D01*
G01X5817Y51273D01*
G01X5817Y50917D01*
G01X5917Y50817D01*
G01X6163Y50817D01*
G01X6263Y50917D01*
G01X6263Y52352D01*
G01X6163Y52452D01*
G37*
M00*
M02*
