G04 Layer: BottomSolderMaskLayer*
G04 EasyEDA v6.4.7, 2021-02-24T17:41:02+08:00*
G04 aefd34b0273d4d6584ca49087094e06a,119f753a6ce64b8d841f2ad33262ab0c,10*
G04 Gerber Generator version 0.2*
G04 Scale: 100 percent, Rotated: No, Reflected: No *
G04 Dimensions in millimeters *
G04 leading zeros omitted , absolute positions ,3 integer and 3 decimal *
%FSLAX33Y33*%
%MOMM*%
G90*
D02*

%ADD68C,1.403198*%
%ADD69C,5.203190*%
%ADD72C,1.003198*%
%ADD73C,0.903199*%
%ADD74C,1.203198*%
%ADD76C,1.448003*%
%ADD77C,2.003196*%
%ADD79C,1.803197*%
%ADD81C,1.703197*%
%ADD84R,1.727200X1.727200*%
%ADD85C,1.727200*%
%ADD92C,1.103198*%
%ADD93C,2.703195*%
%ADD104R,1.573200X1.103198*%

%LPD*%
G54D69*
G01X8001Y12525D02*
G01X8001Y12525D01*
G54D72*
G01X17111Y22440D02*
G01X16111Y22440D01*
G01X17111Y15282D02*
G01X16111Y15282D01*
G54D73*
G01X20508Y22492D02*
G01X20508Y22492D01*
G01X20508Y21542D02*
G01X20508Y21542D01*
G01X20508Y19692D02*
G01X20508Y19692D01*
G01X20508Y18792D02*
G01X20508Y18792D01*
G01X20508Y17892D02*
G01X20508Y17892D01*
G01X20508Y16942D02*
G01X20508Y16942D01*
G01X20508Y15992D02*
G01X20508Y15992D01*
G01X21909Y15992D02*
G01X21909Y15992D01*
G01X21909Y16942D02*
G01X21909Y16942D01*
G01X21909Y18792D02*
G01X21909Y18792D01*
G01X21909Y19692D02*
G01X21909Y19692D01*
G01X21909Y20592D02*
G01X21909Y20592D01*
G01X21909Y21542D02*
G01X21909Y21542D01*
G01X21909Y22492D02*
G01X21909Y22492D01*
G54D74*
G01X23138Y17742D02*
G01X23138Y16742D01*
G01X23138Y21742D02*
G01X23138Y20742D01*
G01X19279Y17742D02*
G01X19279Y16742D01*
G01X19279Y21742D02*
G01X19279Y20742D01*
G36*
G01X59385Y5600D02*
G01X60085Y5600D01*
G01X60085Y1300D01*
G01X59385Y1300D01*
G01X59385Y5600D01*
G37*
G36*
G01X58385Y5600D02*
G01X59085Y5600D01*
G01X59085Y1300D01*
G01X58385Y1300D01*
G01X58385Y5600D01*
G37*
G36*
G01X60385Y5600D02*
G01X61085Y5600D01*
G01X61085Y1300D01*
G01X60385Y1300D01*
G01X60385Y5600D01*
G37*
G36*
G01X62385Y5600D02*
G01X63085Y5600D01*
G01X63085Y1300D01*
G01X62385Y1300D01*
G01X62385Y5600D01*
G37*
G36*
G01X61385Y5600D02*
G01X62085Y5600D01*
G01X62085Y1300D01*
G01X61385Y1300D01*
G01X61385Y5600D01*
G37*
G36*
G01X64385Y5600D02*
G01X65085Y5600D01*
G01X65085Y1300D01*
G01X64385Y1300D01*
G01X64385Y5600D01*
G37*
G36*
G01X63385Y5600D02*
G01X64085Y5600D01*
G01X64085Y1300D01*
G01X63385Y1300D01*
G01X63385Y5600D01*
G37*
G36*
G01X46385Y5600D02*
G01X47085Y5600D01*
G01X47085Y1300D01*
G01X46385Y1300D01*
G01X46385Y5600D01*
G37*
G36*
G01X45385Y5600D02*
G01X46085Y5600D01*
G01X46085Y2400D01*
G01X45385Y2400D01*
G01X45385Y5600D01*
G37*
G36*
G01X47385Y5600D02*
G01X48085Y5600D01*
G01X48085Y1300D01*
G01X47385Y1300D01*
G01X47385Y5600D01*
G37*
G36*
G01X53385Y5600D02*
G01X54085Y5600D01*
G01X54085Y1300D01*
G01X53385Y1300D01*
G01X53385Y5600D01*
G37*
G36*
G01X52385Y5600D02*
G01X53085Y5600D01*
G01X53085Y1300D01*
G01X52385Y1300D01*
G01X52385Y5600D01*
G37*
G36*
G01X55385Y5599D02*
G01X56085Y5599D01*
G01X56085Y2399D01*
G01X55385Y2399D01*
G01X55385Y5599D01*
G37*
G36*
G01X54385Y5600D02*
G01X55085Y5600D01*
G01X55085Y1300D01*
G01X54385Y1300D01*
G01X54385Y5600D01*
G37*
G36*
G01X49385Y5600D02*
G01X50085Y5600D01*
G01X50085Y1300D01*
G01X49385Y1300D01*
G01X49385Y5600D01*
G37*
G36*
G01X48385Y5600D02*
G01X49085Y5600D01*
G01X49085Y1300D01*
G01X48385Y1300D01*
G01X48385Y5600D01*
G37*
G36*
G01X51385Y5600D02*
G01X52085Y5600D01*
G01X52085Y1300D01*
G01X51385Y1300D01*
G01X51385Y5600D01*
G37*
G36*
G01X50385Y5600D02*
G01X51085Y5600D01*
G01X51085Y1300D01*
G01X50385Y1300D01*
G01X50385Y5600D01*
G37*
G54D69*
G01X8001Y66246D03*
G54D76*
G01X37846Y9160D03*
G01X8001Y8334D03*
G01X8001Y62055D03*
G54D77*
G01X13208Y25098D03*
G01X13208Y22558D03*
G01X10668Y25098D03*
G01X10668Y22558D03*
G01X8128Y25098D03*
G36*
G01X7127Y21558D02*
G01X7127Y23559D01*
G01X9128Y23559D01*
G01X9128Y21558D01*
G01X7127Y21558D01*
G37*
G54D79*
G01X60706Y53038D03*
G01X60706Y55578D03*
G01X60706Y49101D03*
G01X60706Y46561D03*
G36*
G01X61671Y13745D02*
G01X61671Y14862D01*
G01X62788Y14862D01*
G01X62788Y13745D01*
G01X61671Y13745D01*
G37*
G36*
G01X61671Y15142D02*
G01X61671Y16259D01*
G01X62788Y16259D01*
G01X62788Y15142D01*
G01X61671Y15142D01*
G37*
G36*
G01X63449Y13745D02*
G01X63449Y14862D01*
G01X64566Y14862D01*
G01X64566Y13745D01*
G01X63449Y13745D01*
G37*
G36*
G01X63449Y15142D02*
G01X63449Y16259D01*
G01X64566Y16259D01*
G01X64566Y15142D01*
G01X63449Y15142D01*
G37*
G36*
G01X59893Y13745D02*
G01X59893Y14862D01*
G01X61010Y14862D01*
G01X61010Y13745D01*
G01X59893Y13745D01*
G37*
G36*
G01X59893Y15142D02*
G01X59893Y16259D01*
G01X61010Y16259D01*
G01X61010Y15142D01*
G01X59893Y15142D01*
G37*
G36*
G01X58115Y13745D02*
G01X58115Y14862D01*
G01X59232Y14862D01*
G01X59232Y13745D01*
G01X58115Y13745D01*
G37*
G36*
G01X58115Y15142D02*
G01X58115Y16259D01*
G01X59232Y16259D01*
G01X59232Y15142D01*
G01X58115Y15142D01*
G37*
G36*
G01X56337Y13745D02*
G01X56337Y14862D01*
G01X57454Y14862D01*
G01X57454Y13745D01*
G01X56337Y13745D01*
G37*
G36*
G01X56337Y15142D02*
G01X56337Y16259D01*
G01X57454Y16259D01*
G01X57454Y15142D01*
G01X56337Y15142D01*
G37*
G36*
G01X55384Y33392D02*
G01X55384Y35093D01*
G01X57086Y35093D01*
G01X57086Y33392D01*
G01X55384Y33392D01*
G37*
G54D81*
G01X61112Y34242D03*
G36*
G01X57043Y31230D02*
G01X57043Y32683D01*
G01X58554Y32683D01*
G01X58554Y31230D01*
G01X57043Y31230D01*
G37*
G36*
G01X54983Y31230D02*
G01X54983Y32683D01*
G01X56494Y32683D01*
G01X56494Y31230D01*
G01X54983Y31230D01*
G37*
G36*
G01X60980Y31230D02*
G01X60980Y32683D01*
G01X62491Y32683D01*
G01X62491Y31230D01*
G01X60980Y31230D01*
G37*
G36*
G01X58920Y31230D02*
G01X58920Y32683D01*
G01X60431Y32683D01*
G01X60431Y31230D01*
G01X58920Y31230D01*
G37*
G36*
G01X33652Y19112D02*
G01X33652Y20191D01*
G01X36095Y20191D01*
G01X36095Y19112D01*
G01X33652Y19112D01*
G37*
G36*
G01X33652Y16810D02*
G01X33652Y17892D01*
G01X36095Y17892D01*
G01X36095Y16810D01*
G01X33652Y16810D01*
G37*
G36*
G01X33652Y14512D02*
G01X33652Y15591D01*
G01X36095Y15591D01*
G01X36095Y14512D01*
G01X33652Y14512D01*
G37*
G36*
G01X27912Y15500D02*
G01X27912Y19203D01*
G01X30355Y19203D01*
G01X30355Y15500D01*
G01X27912Y15500D01*
G37*
G36*
G01X33652Y25970D02*
G01X33652Y27049D01*
G01X36095Y27049D01*
G01X36095Y25970D01*
G01X33652Y25970D01*
G37*
G36*
G01X33652Y23668D02*
G01X33652Y24750D01*
G01X36095Y24750D01*
G01X36095Y23668D01*
G01X33652Y23668D01*
G37*
G36*
G01X33652Y21370D02*
G01X33652Y22449D01*
G01X36095Y22449D01*
G01X36095Y21370D01*
G01X33652Y21370D01*
G37*
G36*
G01X27912Y22358D02*
G01X27912Y26061D01*
G01X30355Y26061D01*
G01X30355Y22358D01*
G01X27912Y22358D01*
G37*
G36*
G01X48209Y25048D02*
G01X48209Y26165D01*
G01X49326Y26165D01*
G01X49326Y25048D01*
G01X48209Y25048D01*
G37*
G36*
G01X46812Y25048D02*
G01X46812Y26165D01*
G01X47929Y26165D01*
G01X47929Y25048D01*
G01X46812Y25048D01*
G37*
G36*
G01X48209Y23270D02*
G01X48209Y24387D01*
G01X49326Y24387D01*
G01X49326Y23270D01*
G01X48209Y23270D01*
G37*
G36*
G01X46812Y23270D02*
G01X46812Y24387D01*
G01X47929Y24387D01*
G01X47929Y23270D01*
G01X46812Y23270D01*
G37*
G36*
G01X57480Y27969D02*
G01X57480Y29086D01*
G01X58597Y29086D01*
G01X58597Y27969D01*
G01X57480Y27969D01*
G37*
G36*
G01X58877Y27969D02*
G01X58877Y29086D01*
G01X59994Y29086D01*
G01X59994Y27969D01*
G01X58877Y27969D01*
G37*
G36*
G01X60655Y27969D02*
G01X60655Y29086D01*
G01X61772Y29086D01*
G01X61772Y27969D01*
G01X60655Y27969D01*
G37*
G36*
G01X62052Y27969D02*
G01X62052Y29086D01*
G01X63169Y29086D01*
G01X63169Y27969D01*
G01X62052Y27969D01*
G37*
G54D84*
G01X5080Y20018D03*
G54D85*
G01X5080Y25098D03*
G01X5080Y22558D03*
G36*
G01X61960Y57852D02*
G01X61960Y60054D01*
G01X63263Y60054D01*
G01X63263Y57852D01*
G01X61960Y57852D01*
G37*
G36*
G01X59420Y57852D02*
G01X59420Y60054D01*
G01X60723Y60054D01*
G01X60723Y57852D01*
G01X59420Y57852D01*
G37*
G36*
G01X59420Y66851D02*
G01X59420Y69053D01*
G01X60723Y69053D01*
G01X60723Y66851D01*
G01X59420Y66851D01*
G37*
G36*
G01X61960Y66851D02*
G01X61960Y69053D01*
G01X63263Y69053D01*
G01X63263Y66851D01*
G01X61960Y66851D01*
G37*
G36*
G01X56880Y57852D02*
G01X56880Y60054D01*
G01X58183Y60054D01*
G01X58183Y57852D01*
G01X56880Y57852D01*
G37*
G36*
G01X54340Y57852D02*
G01X54340Y60054D01*
G01X55643Y60054D01*
G01X55643Y57852D01*
G01X54340Y57852D01*
G37*
G36*
G01X51800Y57852D02*
G01X51800Y60054D01*
G01X53103Y60054D01*
G01X53103Y57852D01*
G01X51800Y57852D01*
G37*
G36*
G01X49260Y57852D02*
G01X49260Y60054D01*
G01X50563Y60054D01*
G01X50563Y57852D01*
G01X49260Y57852D01*
G37*
G36*
G01X56880Y66851D02*
G01X56880Y69053D01*
G01X58183Y69053D01*
G01X58183Y66851D01*
G01X56880Y66851D01*
G37*
G36*
G01X54340Y66851D02*
G01X54340Y69053D01*
G01X55643Y69053D01*
G01X55643Y66851D01*
G01X54340Y66851D01*
G37*
G36*
G01X51800Y66851D02*
G01X51800Y69053D01*
G01X53103Y69053D01*
G01X53103Y66851D01*
G01X51800Y66851D01*
G37*
G36*
G01X49260Y66851D02*
G01X49260Y69053D01*
G01X50563Y69053D01*
G01X50563Y66851D01*
G01X49260Y66851D01*
G37*
G36*
G01X46720Y57852D02*
G01X46720Y60054D01*
G01X48023Y60054D01*
G01X48023Y57852D01*
G01X46720Y57852D01*
G37*
G36*
G01X44180Y57852D02*
G01X44180Y60054D01*
G01X45483Y60054D01*
G01X45483Y57852D01*
G01X44180Y57852D01*
G37*
G36*
G01X44180Y66851D02*
G01X44180Y69053D01*
G01X45483Y69053D01*
G01X45483Y66851D01*
G01X44180Y66851D01*
G37*
G36*
G01X46720Y66851D02*
G01X46720Y69053D01*
G01X48023Y69053D01*
G01X48023Y66851D01*
G01X46720Y66851D01*
G37*
G36*
G01X41640Y57852D02*
G01X41640Y60054D01*
G01X42943Y60054D01*
G01X42943Y57852D01*
G01X41640Y57852D01*
G37*
G36*
G01X39100Y57852D02*
G01X39100Y60054D01*
G01X40403Y60054D01*
G01X40403Y57852D01*
G01X39100Y57852D01*
G37*
G36*
G01X36560Y57852D02*
G01X36560Y60054D01*
G01X37863Y60054D01*
G01X37863Y57852D01*
G01X36560Y57852D01*
G37*
G36*
G01X34020Y57852D02*
G01X34020Y60054D01*
G01X35323Y60054D01*
G01X35323Y57852D01*
G01X34020Y57852D01*
G37*
G36*
G01X41640Y66851D02*
G01X41640Y69053D01*
G01X42943Y69053D01*
G01X42943Y66851D01*
G01X41640Y66851D01*
G37*
G36*
G01X39100Y66851D02*
G01X39100Y69053D01*
G01X40403Y69053D01*
G01X40403Y66851D01*
G01X39100Y66851D01*
G37*
G36*
G01X36560Y66851D02*
G01X36560Y69053D01*
G01X37863Y69053D01*
G01X37863Y66851D01*
G01X36560Y66851D01*
G37*
G36*
G01X34020Y66851D02*
G01X34020Y69053D01*
G01X35323Y69053D01*
G01X35323Y66851D01*
G01X34020Y66851D01*
G37*
G54D79*
G01X54102Y46561D03*
G01X54102Y49101D03*
G01X47498Y46561D03*
G01X47498Y49101D03*
G01X40894Y46561D03*
G01X40894Y49101D03*
G01X34290Y46561D03*
G01X34290Y49101D03*
G01X27686Y46561D03*
G01X27686Y49101D03*
G36*
G01X30213Y63706D02*
G01X30213Y65434D01*
G01X32016Y65434D01*
G01X32016Y63706D01*
G01X30213Y63706D01*
G37*
G36*
G01X29413Y60618D02*
G01X29413Y62020D01*
G01X30817Y62020D01*
G01X30817Y60618D01*
G01X29413Y60618D01*
G37*
G36*
G01X31412Y60618D02*
G01X31412Y62020D01*
G01X32816Y62020D01*
G01X32816Y60618D01*
G01X31412Y60618D01*
G37*
G01X54102Y53038D03*
G01X54102Y55578D03*
G01X47498Y53038D03*
G01X47498Y55578D03*
G01X40894Y53038D03*
G01X40894Y55578D03*
G01X34290Y53038D03*
G01X34290Y55578D03*
G01X27686Y53038D03*
G01X27686Y55578D03*
G36*
G01X53093Y28522D02*
G01X53093Y29424D01*
G01X54094Y29424D01*
G01X54094Y28522D01*
G01X53093Y28522D01*
G37*
G36*
G01X53093Y27123D02*
G01X53093Y28024D01*
G01X54094Y28024D01*
G01X54094Y27123D01*
G01X53093Y27123D01*
G37*
G36*
G01X51696Y28522D02*
G01X51696Y29424D01*
G01X52697Y29424D01*
G01X52697Y28522D01*
G01X51696Y28522D01*
G37*
G36*
G01X51696Y27123D02*
G01X51696Y28024D01*
G01X52697Y28024D01*
G01X52697Y27123D01*
G01X51696Y27123D01*
G37*
G36*
G01X50299Y28522D02*
G01X50299Y29424D01*
G01X51300Y29424D01*
G01X51300Y28522D01*
G01X50299Y28522D01*
G37*
G36*
G01X50299Y27123D02*
G01X50299Y28024D01*
G01X51300Y28024D01*
G01X51300Y27123D01*
G01X50299Y27123D01*
G37*
G36*
G01X47553Y28472D02*
G01X47553Y29472D01*
G01X48455Y29472D01*
G01X48455Y28472D01*
G01X47553Y28472D01*
G37*
G36*
G01X48953Y28472D02*
G01X48953Y29472D01*
G01X49855Y29472D01*
G01X49855Y28472D01*
G01X48953Y28472D01*
G37*
G36*
G01X48953Y27075D02*
G01X48953Y28075D01*
G01X49855Y28075D01*
G01X49855Y27075D01*
G01X48953Y27075D01*
G37*
G36*
G01X47553Y27075D02*
G01X47553Y28075D01*
G01X48455Y28075D01*
G01X48455Y27075D01*
G01X47553Y27075D01*
G37*
G36*
G01X17129Y36440D02*
G01X17096Y36442D01*
G01X17061Y36447D01*
G01X17028Y36457D01*
G01X16995Y36473D01*
G01X16967Y36490D01*
G01X16939Y36513D01*
G01X16913Y36539D01*
G01X16891Y36567D01*
G01X16873Y36594D01*
G01X16857Y36627D01*
G01X16847Y36660D01*
G01X16842Y36696D01*
G01X16840Y36732D01*
G01X16842Y36767D01*
G01X16847Y36803D01*
G01X16857Y36836D01*
G01X16873Y36866D01*
G01X16891Y36897D01*
G01X16913Y36925D01*
G01X16939Y36950D01*
G01X16967Y36973D01*
G01X16995Y36991D01*
G01X17028Y37006D01*
G01X17061Y37016D01*
G01X17096Y37021D01*
G01X17129Y37024D01*
G01X18785Y37024D01*
G01X18818Y37021D01*
G01X18851Y37016D01*
G01X18887Y37006D01*
G01X18917Y36991D01*
G01X18948Y36973D01*
G01X18976Y36950D01*
G01X19001Y36925D01*
G01X19024Y36897D01*
G01X19042Y36866D01*
G01X19057Y36836D01*
G01X19067Y36800D01*
G01X19072Y36767D01*
G01X19075Y36732D01*
G01X19072Y36696D01*
G01X19067Y36660D01*
G01X19057Y36627D01*
G01X19042Y36594D01*
G01X19024Y36567D01*
G01X19001Y36539D01*
G01X18976Y36513D01*
G01X18948Y36490D01*
G01X18917Y36473D01*
G01X18887Y36457D01*
G01X18854Y36447D01*
G01X18818Y36442D01*
G01X18785Y36440D01*
G01X17129Y36440D01*
G37*
G36*
G01X17129Y35789D02*
G01X17096Y35792D01*
G01X17061Y35797D01*
G01X17028Y35807D01*
G01X16995Y35822D01*
G01X16967Y35840D01*
G01X16939Y35863D01*
G01X16913Y35888D01*
G01X16891Y35916D01*
G01X16873Y35947D01*
G01X16857Y35977D01*
G01X16847Y36010D01*
G01X16842Y36046D01*
G01X16840Y36081D01*
G01X16842Y36117D01*
G01X16847Y36152D01*
G01X16857Y36186D01*
G01X16873Y36219D01*
G01X16891Y36246D01*
G01X16913Y36274D01*
G01X16939Y36300D01*
G01X16967Y36323D01*
G01X16995Y36340D01*
G01X17028Y36356D01*
G01X17061Y36366D01*
G01X17096Y36371D01*
G01X17129Y36373D01*
G01X18785Y36373D01*
G01X18818Y36371D01*
G01X18854Y36366D01*
G01X18887Y36356D01*
G01X18917Y36340D01*
G01X18948Y36323D01*
G01X18976Y36300D01*
G01X19001Y36274D01*
G01X19024Y36246D01*
G01X19042Y36219D01*
G01X19057Y36186D01*
G01X19067Y36152D01*
G01X19072Y36117D01*
G01X19075Y36081D01*
G01X19072Y36046D01*
G01X19067Y36013D01*
G01X19057Y35977D01*
G01X19042Y35947D01*
G01X19024Y35916D01*
G01X19001Y35888D01*
G01X18976Y35863D01*
G01X18948Y35840D01*
G01X18917Y35822D01*
G01X18887Y35807D01*
G01X18851Y35797D01*
G01X18818Y35792D01*
G01X18785Y35789D01*
G01X17129Y35789D01*
G37*
G36*
G01X17129Y35139D02*
G01X17096Y35142D01*
G01X17061Y35149D01*
G01X17028Y35159D01*
G01X16995Y35172D01*
G01X16939Y35213D01*
G01X16913Y35238D01*
G01X16891Y35266D01*
G01X16873Y35297D01*
G01X16857Y35327D01*
G01X16847Y35360D01*
G01X16842Y35396D01*
G01X16840Y35431D01*
G01X16842Y35467D01*
G01X16847Y35502D01*
G01X16857Y35535D01*
G01X16873Y35568D01*
G01X16891Y35599D01*
G01X16913Y35627D01*
G01X16939Y35650D01*
G01X16967Y35672D01*
G01X16995Y35690D01*
G01X17028Y35705D01*
G01X17061Y35716D01*
G01X17096Y35721D01*
G01X17129Y35723D01*
G01X18785Y35723D01*
G01X18818Y35721D01*
G01X18851Y35716D01*
G01X18887Y35705D01*
G01X18917Y35690D01*
G01X18948Y35672D01*
G01X18976Y35650D01*
G01X19001Y35627D01*
G01X19024Y35599D01*
G01X19042Y35568D01*
G01X19057Y35535D01*
G01X19067Y35502D01*
G01X19072Y35467D01*
G01X19075Y35431D01*
G01X19072Y35396D01*
G01X19067Y35363D01*
G01X19057Y35327D01*
G01X19042Y35297D01*
G01X19024Y35266D01*
G01X19001Y35238D01*
G01X18976Y35213D01*
G01X18948Y35190D01*
G01X18917Y35172D01*
G01X18887Y35159D01*
G01X18854Y35149D01*
G01X18818Y35142D01*
G01X18785Y35139D01*
G01X17129Y35139D01*
G37*
G36*
G01X17129Y34489D02*
G01X17096Y34491D01*
G01X17061Y34499D01*
G01X17028Y34509D01*
G01X16995Y34522D01*
G01X16967Y34540D01*
G01X16939Y34562D01*
G01X16913Y34588D01*
G01X16891Y34616D01*
G01X16873Y34646D01*
G01X16857Y34679D01*
G01X16847Y34712D01*
G01X16842Y34745D01*
G01X16840Y34781D01*
G01X16842Y34816D01*
G01X16847Y34852D01*
G01X16857Y34885D01*
G01X16873Y34918D01*
G01X16891Y34949D01*
G01X16913Y34976D01*
G01X16939Y34999D01*
G01X16967Y35022D01*
G01X16995Y35040D01*
G01X17028Y35055D01*
G01X17061Y35065D01*
G01X17096Y35070D01*
G01X17129Y35073D01*
G01X18785Y35073D01*
G01X18818Y35070D01*
G01X18851Y35065D01*
G01X18887Y35055D01*
G01X18917Y35040D01*
G01X18948Y35022D01*
G01X18976Y34999D01*
G01X19001Y34976D01*
G01X19024Y34949D01*
G01X19042Y34918D01*
G01X19057Y34885D01*
G01X19067Y34852D01*
G01X19072Y34816D01*
G01X19075Y34781D01*
G01X19072Y34745D01*
G01X19067Y34712D01*
G01X19057Y34679D01*
G01X19042Y34646D01*
G01X19024Y34616D01*
G01X19001Y34588D01*
G01X18976Y34562D01*
G01X18948Y34540D01*
G01X18917Y34522D01*
G01X18887Y34509D01*
G01X18851Y34499D01*
G01X18818Y34491D01*
G01X18785Y34489D01*
G01X17129Y34489D01*
G37*
G36*
G01X17129Y33839D02*
G01X17096Y33841D01*
G01X17061Y33849D01*
G01X17028Y33859D01*
G01X16995Y33872D01*
G01X16939Y33912D01*
G01X16913Y33938D01*
G01X16891Y33966D01*
G01X16873Y33996D01*
G01X16857Y34029D01*
G01X16847Y34062D01*
G01X16842Y34095D01*
G01X16840Y34131D01*
G01X16842Y34166D01*
G01X16847Y34202D01*
G01X16857Y34235D01*
G01X16873Y34268D01*
G01X16891Y34298D01*
G01X16913Y34326D01*
G01X16939Y34349D01*
G01X16967Y34372D01*
G01X16995Y34390D01*
G01X17028Y34405D01*
G01X17061Y34415D01*
G01X17096Y34420D01*
G01X17129Y34423D01*
G01X18785Y34423D01*
G01X18818Y34420D01*
G01X18851Y34415D01*
G01X18887Y34405D01*
G01X18917Y34390D01*
G01X18948Y34372D01*
G01X18976Y34349D01*
G01X19001Y34326D01*
G01X19024Y34298D01*
G01X19042Y34268D01*
G01X19057Y34235D01*
G01X19067Y34202D01*
G01X19072Y34166D01*
G01X19075Y34131D01*
G01X19072Y34095D01*
G01X19067Y34062D01*
G01X19057Y34029D01*
G01X19042Y33996D01*
G01X19024Y33966D01*
G01X19001Y33938D01*
G01X18976Y33912D01*
G01X18948Y33892D01*
G01X18917Y33872D01*
G01X18887Y33859D01*
G01X18854Y33849D01*
G01X18818Y33841D01*
G01X18785Y33839D01*
G01X17129Y33839D01*
G37*
G36*
G01X17129Y33188D02*
G01X17096Y33191D01*
G01X17061Y33198D01*
G01X17028Y33209D01*
G01X16995Y33224D01*
G01X16967Y33242D01*
G01X16939Y33262D01*
G01X16913Y33287D01*
G01X16891Y33315D01*
G01X16873Y33346D01*
G01X16857Y33379D01*
G01X16847Y33412D01*
G01X16842Y33447D01*
G01X16840Y33480D01*
G01X16842Y33516D01*
G01X16847Y33552D01*
G01X16857Y33585D01*
G01X16873Y33618D01*
G01X16891Y33648D01*
G01X16913Y33676D01*
G01X16939Y33701D01*
G01X16967Y33722D01*
G01X16995Y33739D01*
G01X17028Y33755D01*
G01X17061Y33765D01*
G01X17096Y33773D01*
G01X18818Y33773D01*
G01X18854Y33765D01*
G01X18887Y33755D01*
G01X18917Y33739D01*
G01X18948Y33722D01*
G01X18976Y33701D01*
G01X19001Y33676D01*
G01X19024Y33648D01*
G01X19042Y33618D01*
G01X19057Y33585D01*
G01X19067Y33552D01*
G01X19072Y33516D01*
G01X19075Y33480D01*
G01X19072Y33447D01*
G01X19067Y33412D01*
G01X19057Y33379D01*
G01X19042Y33346D01*
G01X19024Y33315D01*
G01X19001Y33287D01*
G01X18976Y33262D01*
G01X18948Y33242D01*
G01X18917Y33224D01*
G01X18887Y33209D01*
G01X18854Y33198D01*
G01X18818Y33191D01*
G01X18785Y33188D01*
G01X17129Y33188D01*
G37*
G36*
G01X17096Y32541D02*
G01X17061Y32548D01*
G01X17028Y32558D01*
G01X16995Y32574D01*
G01X16967Y32591D01*
G01X16939Y32612D01*
G01X16913Y32637D01*
G01X16891Y32665D01*
G01X16873Y32696D01*
G01X16857Y32729D01*
G01X16847Y32762D01*
G01X16842Y32797D01*
G01X16840Y32833D01*
G01X16842Y32868D01*
G01X16847Y32901D01*
G01X16857Y32937D01*
G01X16873Y32967D01*
G01X16891Y32998D01*
G01X16913Y33026D01*
G01X16939Y33051D01*
G01X16995Y33092D01*
G01X17028Y33104D01*
G01X17061Y33115D01*
G01X17096Y33122D01*
G01X17129Y33125D01*
G01X18785Y33125D01*
G01X18818Y33122D01*
G01X18851Y33115D01*
G01X18887Y33104D01*
G01X18917Y33092D01*
G01X18948Y33071D01*
G01X18976Y33051D01*
G01X19001Y33026D01*
G01X19024Y32998D01*
G01X19042Y32967D01*
G01X19057Y32937D01*
G01X19067Y32901D01*
G01X19072Y32868D01*
G01X19075Y32833D01*
G01X19072Y32797D01*
G01X19067Y32762D01*
G01X19057Y32729D01*
G01X19042Y32696D01*
G01X19024Y32665D01*
G01X19001Y32637D01*
G01X18976Y32612D01*
G01X18948Y32591D01*
G01X18917Y32574D01*
G01X18887Y32558D01*
G01X18854Y32548D01*
G01X18818Y32541D01*
G01X17096Y32541D01*
G37*
G36*
G01X17096Y31890D02*
G01X17061Y31898D01*
G01X17028Y31908D01*
G01X16995Y31923D01*
G01X16967Y31941D01*
G01X16939Y31964D01*
G01X16913Y31987D01*
G01X16891Y32015D01*
G01X16873Y32045D01*
G01X16857Y32078D01*
G01X16847Y32111D01*
G01X16842Y32147D01*
G01X16840Y32182D01*
G01X16842Y32218D01*
G01X16847Y32251D01*
G01X16857Y32287D01*
G01X16873Y32317D01*
G01X16891Y32348D01*
G01X16913Y32376D01*
G01X16939Y32401D01*
G01X16995Y32442D01*
G01X17028Y32454D01*
G01X17061Y32464D01*
G01X17096Y32472D01*
G01X17129Y32475D01*
G01X18785Y32475D01*
G01X18818Y32472D01*
G01X18851Y32464D01*
G01X18887Y32454D01*
G01X18917Y32442D01*
G01X18948Y32421D01*
G01X18976Y32401D01*
G01X19001Y32376D01*
G01X19024Y32348D01*
G01X19042Y32317D01*
G01X19057Y32287D01*
G01X19067Y32251D01*
G01X19072Y32218D01*
G01X19075Y32182D01*
G01X19072Y32147D01*
G01X19067Y32111D01*
G01X19057Y32078D01*
G01X19042Y32045D01*
G01X19024Y32015D01*
G01X19001Y31987D01*
G01X18976Y31964D01*
G01X18948Y31941D01*
G01X18917Y31923D01*
G01X18887Y31908D01*
G01X18854Y31898D01*
G01X18818Y31890D01*
G01X17096Y31890D01*
G37*
G36*
G01X17129Y31240D02*
G01X17096Y31243D01*
G01X17061Y31248D01*
G01X17028Y31258D01*
G01X16995Y31273D01*
G01X16967Y31291D01*
G01X16939Y31314D01*
G01X16913Y31339D01*
G01X16891Y31365D01*
G01X16873Y31395D01*
G01X16857Y31428D01*
G01X16847Y31461D01*
G01X16842Y31497D01*
G01X16840Y31532D01*
G01X16842Y31568D01*
G01X16847Y31601D01*
G01X16857Y31636D01*
G01X16873Y31667D01*
G01X16891Y31697D01*
G01X16913Y31725D01*
G01X16939Y31751D01*
G01X16995Y31791D01*
G01X17061Y31817D01*
G01X17096Y31822D01*
G01X17129Y31824D01*
G01X18785Y31824D01*
G01X18818Y31822D01*
G01X18851Y31817D01*
G01X18887Y31804D01*
G01X18917Y31791D01*
G01X18948Y31771D01*
G01X18976Y31751D01*
G01X19001Y31725D01*
G01X19024Y31697D01*
G01X19042Y31667D01*
G01X19057Y31636D01*
G01X19067Y31601D01*
G01X19072Y31568D01*
G01X19075Y31532D01*
G01X19072Y31497D01*
G01X19067Y31461D01*
G01X19057Y31428D01*
G01X19042Y31395D01*
G01X19024Y31365D01*
G01X19001Y31339D01*
G01X18976Y31314D01*
G01X18948Y31291D01*
G01X18917Y31273D01*
G01X18887Y31258D01*
G01X18854Y31248D01*
G01X18818Y31243D01*
G01X18785Y31240D01*
G01X17129Y31240D01*
G37*
G36*
G01X17129Y30590D02*
G01X17096Y30592D01*
G01X17061Y30598D01*
G01X17028Y30608D01*
G01X16995Y30623D01*
G01X16967Y30641D01*
G01X16939Y30664D01*
G01X16913Y30686D01*
G01X16891Y30714D01*
G01X16873Y30745D01*
G01X16857Y30778D01*
G01X16847Y30811D01*
G01X16842Y30846D01*
G01X16840Y30882D01*
G01X16842Y30918D01*
G01X16847Y30953D01*
G01X16857Y30986D01*
G01X16873Y31017D01*
G01X16891Y31047D01*
G01X16913Y31075D01*
G01X16939Y31100D01*
G01X16995Y31141D01*
G01X17028Y31154D01*
G01X17061Y31164D01*
G01X17096Y31172D01*
G01X17129Y31174D01*
G01X18785Y31174D01*
G01X18818Y31172D01*
G01X18854Y31164D01*
G01X18887Y31154D01*
G01X18917Y31141D01*
G01X18948Y31121D01*
G01X18976Y31100D01*
G01X19001Y31075D01*
G01X19024Y31047D01*
G01X19042Y31017D01*
G01X19057Y30986D01*
G01X19067Y30951D01*
G01X19072Y30918D01*
G01X19075Y30882D01*
G01X19072Y30846D01*
G01X19067Y30811D01*
G01X19057Y30778D01*
G01X19042Y30745D01*
G01X19024Y30714D01*
G01X19001Y30686D01*
G01X18976Y30664D01*
G01X18948Y30641D01*
G01X18917Y30623D01*
G01X18887Y30608D01*
G01X18851Y30598D01*
G01X18818Y30592D01*
G01X18785Y30590D01*
G01X17129Y30590D01*
G37*
G36*
G01X17129Y29940D02*
G01X17096Y29942D01*
G01X17061Y29947D01*
G01X17028Y29957D01*
G01X16995Y29973D01*
G01X16967Y29990D01*
G01X16939Y30013D01*
G01X16913Y30036D01*
G01X16891Y30064D01*
G01X16873Y30095D01*
G01X16857Y30128D01*
G01X16847Y30161D01*
G01X16842Y30196D01*
G01X16840Y30232D01*
G01X16842Y30267D01*
G01X16847Y30300D01*
G01X16857Y30336D01*
G01X16873Y30366D01*
G01X16891Y30397D01*
G01X16913Y30425D01*
G01X16939Y30450D01*
G01X16995Y30491D01*
G01X17061Y30516D01*
G01X17096Y30521D01*
G01X17129Y30524D01*
G01X18785Y30524D01*
G01X18818Y30521D01*
G01X18851Y30516D01*
G01X18887Y30504D01*
G01X18917Y30491D01*
G01X18948Y30471D01*
G01X18976Y30450D01*
G01X19001Y30425D01*
G01X19024Y30397D01*
G01X19042Y30366D01*
G01X19057Y30336D01*
G01X19067Y30300D01*
G01X19072Y30267D01*
G01X19075Y30232D01*
G01X19072Y30196D01*
G01X19067Y30161D01*
G01X19057Y30128D01*
G01X19042Y30095D01*
G01X19024Y30064D01*
G01X19001Y30036D01*
G01X18976Y30013D01*
G01X18948Y29990D01*
G01X18917Y29973D01*
G01X18887Y29957D01*
G01X18854Y29947D01*
G01X18818Y29942D01*
G01X18785Y29940D01*
G01X17129Y29940D01*
G37*
G36*
G01X17129Y29289D02*
G01X17096Y29292D01*
G01X17061Y29297D01*
G01X17028Y29307D01*
G01X16995Y29322D01*
G01X16967Y29340D01*
G01X16939Y29363D01*
G01X16913Y29388D01*
G01X16891Y29416D01*
G01X16873Y29444D01*
G01X16857Y29477D01*
G01X16847Y29510D01*
G01X16842Y29546D01*
G01X16840Y29582D01*
G01X16842Y29617D01*
G01X16847Y29653D01*
G01X16857Y29686D01*
G01X16873Y29716D01*
G01X16891Y29747D01*
G01X16913Y29775D01*
G01X16939Y29800D01*
G01X16967Y29823D01*
G01X16995Y29841D01*
G01X17028Y29856D01*
G01X17061Y29866D01*
G01X17096Y29871D01*
G01X17129Y29874D01*
G01X18785Y29874D01*
G01X18818Y29871D01*
G01X18851Y29866D01*
G01X18887Y29856D01*
G01X18917Y29841D01*
G01X18948Y29823D01*
G01X18976Y29800D01*
G01X19001Y29775D01*
G01X19024Y29747D01*
G01X19042Y29716D01*
G01X19057Y29686D01*
G01X19067Y29650D01*
G01X19072Y29617D01*
G01X19075Y29582D01*
G01X19072Y29546D01*
G01X19067Y29510D01*
G01X19057Y29477D01*
G01X19042Y29444D01*
G01X19024Y29416D01*
G01X19001Y29388D01*
G01X18976Y29363D01*
G01X18948Y29340D01*
G01X18917Y29322D01*
G01X18887Y29307D01*
G01X18854Y29297D01*
G01X18818Y29292D01*
G01X18785Y29289D01*
G01X17129Y29289D01*
G37*
G36*
G01X17129Y28639D02*
G01X17096Y28642D01*
G01X17061Y28647D01*
G01X16995Y28672D01*
G01X16939Y28713D01*
G01X16913Y28738D01*
G01X16891Y28766D01*
G01X16873Y28797D01*
G01X16857Y28827D01*
G01X16847Y28863D01*
G01X16842Y28896D01*
G01X16840Y28931D01*
G01X16842Y28967D01*
G01X16847Y29002D01*
G01X16857Y29035D01*
G01X16873Y29068D01*
G01X16891Y29099D01*
G01X16913Y29127D01*
G01X16939Y29150D01*
G01X16967Y29173D01*
G01X16995Y29190D01*
G01X17028Y29206D01*
G01X17061Y29216D01*
G01X17096Y29221D01*
G01X17129Y29223D01*
G01X18785Y29223D01*
G01X18818Y29221D01*
G01X18854Y29216D01*
G01X18887Y29206D01*
G01X18917Y29190D01*
G01X18948Y29173D01*
G01X18976Y29150D01*
G01X19001Y29127D01*
G01X19024Y29099D01*
G01X19042Y29068D01*
G01X19057Y29035D01*
G01X19067Y29002D01*
G01X19072Y28967D01*
G01X19075Y28931D01*
G01X19072Y28896D01*
G01X19067Y28863D01*
G01X19057Y28827D01*
G01X19042Y28797D01*
G01X19024Y28766D01*
G01X19001Y28738D01*
G01X18976Y28713D01*
G01X18948Y28693D01*
G01X18917Y28672D01*
G01X18887Y28659D01*
G01X18851Y28647D01*
G01X18818Y28642D01*
G01X18785Y28639D01*
G01X17129Y28639D01*
G37*
G36*
G01X17129Y27989D02*
G01X17096Y27991D01*
G01X17061Y27999D01*
G01X17028Y28009D01*
G01X16995Y28022D01*
G01X16939Y28063D01*
G01X16913Y28088D01*
G01X16891Y28116D01*
G01X16873Y28146D01*
G01X16857Y28177D01*
G01X16847Y28210D01*
G01X16842Y28245D01*
G01X16840Y28281D01*
G01X16842Y28317D01*
G01X16847Y28352D01*
G01X16857Y28385D01*
G01X16873Y28418D01*
G01X16891Y28449D01*
G01X16913Y28477D01*
G01X16939Y28499D01*
G01X16967Y28522D01*
G01X16995Y28540D01*
G01X17028Y28555D01*
G01X17061Y28566D01*
G01X17096Y28571D01*
G01X17129Y28573D01*
G01X18785Y28573D01*
G01X18818Y28571D01*
G01X18851Y28566D01*
G01X18887Y28555D01*
G01X18917Y28540D01*
G01X18948Y28522D01*
G01X18976Y28499D01*
G01X19001Y28477D01*
G01X19024Y28449D01*
G01X19042Y28418D01*
G01X19057Y28385D01*
G01X19067Y28352D01*
G01X19072Y28317D01*
G01X19075Y28281D01*
G01X19072Y28245D01*
G01X19067Y28212D01*
G01X19057Y28177D01*
G01X19042Y28146D01*
G01X19024Y28116D01*
G01X19001Y28088D01*
G01X18976Y28063D01*
G01X18948Y28040D01*
G01X18917Y28022D01*
G01X18887Y28009D01*
G01X18854Y27999D01*
G01X18818Y27991D01*
G01X18785Y27989D01*
G01X17129Y27989D01*
G37*
G36*
G01X10017Y27989D02*
G01X9984Y27991D01*
G01X9949Y27999D01*
G01X9916Y28009D01*
G01X9883Y28022D01*
G01X9827Y28063D01*
G01X9801Y28088D01*
G01X9779Y28116D01*
G01X9761Y28146D01*
G01X9745Y28177D01*
G01X9735Y28210D01*
G01X9730Y28245D01*
G01X9728Y28281D01*
G01X9730Y28317D01*
G01X9735Y28352D01*
G01X9745Y28385D01*
G01X9761Y28418D01*
G01X9779Y28449D01*
G01X9801Y28477D01*
G01X9827Y28499D01*
G01X9855Y28522D01*
G01X9883Y28540D01*
G01X9916Y28555D01*
G01X9949Y28566D01*
G01X9984Y28571D01*
G01X10017Y28573D01*
G01X11673Y28573D01*
G01X11706Y28571D01*
G01X11739Y28566D01*
G01X11775Y28555D01*
G01X11805Y28540D01*
G01X11836Y28522D01*
G01X11864Y28499D01*
G01X11889Y28477D01*
G01X11912Y28449D01*
G01X11930Y28418D01*
G01X11945Y28385D01*
G01X11955Y28352D01*
G01X11960Y28317D01*
G01X11963Y28281D01*
G01X11960Y28245D01*
G01X11955Y28212D01*
G01X11945Y28177D01*
G01X11930Y28146D01*
G01X11912Y28116D01*
G01X11889Y28088D01*
G01X11864Y28063D01*
G01X11836Y28040D01*
G01X11805Y28022D01*
G01X11775Y28009D01*
G01X11742Y27999D01*
G01X11706Y27991D01*
G01X11673Y27989D01*
G01X10017Y27989D01*
G37*
G36*
G01X10017Y28639D02*
G01X9984Y28642D01*
G01X9949Y28647D01*
G01X9883Y28672D01*
G01X9827Y28713D01*
G01X9801Y28738D01*
G01X9779Y28766D01*
G01X9761Y28797D01*
G01X9745Y28827D01*
G01X9735Y28863D01*
G01X9730Y28896D01*
G01X9728Y28931D01*
G01X9730Y28967D01*
G01X9735Y29002D01*
G01X9745Y29035D01*
G01X9761Y29068D01*
G01X9779Y29099D01*
G01X9801Y29127D01*
G01X9827Y29150D01*
G01X9855Y29173D01*
G01X9883Y29190D01*
G01X9916Y29206D01*
G01X9949Y29216D01*
G01X9984Y29221D01*
G01X10017Y29223D01*
G01X11673Y29223D01*
G01X11706Y29221D01*
G01X11742Y29216D01*
G01X11775Y29206D01*
G01X11805Y29190D01*
G01X11836Y29173D01*
G01X11864Y29150D01*
G01X11889Y29127D01*
G01X11912Y29099D01*
G01X11930Y29068D01*
G01X11945Y29035D01*
G01X11955Y29002D01*
G01X11960Y28967D01*
G01X11963Y28931D01*
G01X11960Y28896D01*
G01X11955Y28863D01*
G01X11945Y28827D01*
G01X11930Y28797D01*
G01X11912Y28766D01*
G01X11889Y28738D01*
G01X11864Y28713D01*
G01X11836Y28693D01*
G01X11805Y28672D01*
G01X11775Y28659D01*
G01X11739Y28647D01*
G01X11706Y28642D01*
G01X11673Y28639D01*
G01X10017Y28639D01*
G37*
G36*
G01X10017Y29289D02*
G01X9984Y29292D01*
G01X9949Y29297D01*
G01X9916Y29307D01*
G01X9883Y29322D01*
G01X9855Y29340D01*
G01X9827Y29363D01*
G01X9801Y29388D01*
G01X9779Y29416D01*
G01X9761Y29444D01*
G01X9745Y29477D01*
G01X9735Y29510D01*
G01X9730Y29546D01*
G01X9728Y29582D01*
G01X9730Y29617D01*
G01X9735Y29653D01*
G01X9745Y29686D01*
G01X9761Y29716D01*
G01X9779Y29747D01*
G01X9801Y29775D01*
G01X9827Y29800D01*
G01X9855Y29823D01*
G01X9883Y29841D01*
G01X9916Y29856D01*
G01X9949Y29866D01*
G01X9984Y29871D01*
G01X10017Y29874D01*
G01X11673Y29874D01*
G01X11706Y29871D01*
G01X11739Y29866D01*
G01X11775Y29856D01*
G01X11805Y29841D01*
G01X11836Y29823D01*
G01X11864Y29800D01*
G01X11889Y29775D01*
G01X11912Y29747D01*
G01X11930Y29716D01*
G01X11945Y29686D01*
G01X11955Y29650D01*
G01X11960Y29617D01*
G01X11963Y29582D01*
G01X11960Y29546D01*
G01X11955Y29510D01*
G01X11945Y29477D01*
G01X11930Y29444D01*
G01X11912Y29416D01*
G01X11889Y29388D01*
G01X11864Y29363D01*
G01X11836Y29340D01*
G01X11805Y29322D01*
G01X11775Y29307D01*
G01X11742Y29297D01*
G01X11706Y29292D01*
G01X11673Y29289D01*
G01X10017Y29289D01*
G37*
G36*
G01X10017Y29940D02*
G01X9984Y29942D01*
G01X9949Y29947D01*
G01X9916Y29957D01*
G01X9883Y29973D01*
G01X9855Y29990D01*
G01X9827Y30013D01*
G01X9801Y30036D01*
G01X9779Y30064D01*
G01X9761Y30095D01*
G01X9745Y30128D01*
G01X9735Y30161D01*
G01X9730Y30196D01*
G01X9728Y30232D01*
G01X9730Y30267D01*
G01X9735Y30300D01*
G01X9745Y30336D01*
G01X9761Y30366D01*
G01X9779Y30397D01*
G01X9801Y30425D01*
G01X9827Y30450D01*
G01X9883Y30491D01*
G01X9949Y30516D01*
G01X9984Y30521D01*
G01X10017Y30524D01*
G01X11673Y30524D01*
G01X11706Y30521D01*
G01X11739Y30516D01*
G01X11775Y30504D01*
G01X11805Y30491D01*
G01X11836Y30471D01*
G01X11864Y30450D01*
G01X11889Y30425D01*
G01X11912Y30397D01*
G01X11930Y30366D01*
G01X11945Y30336D01*
G01X11955Y30300D01*
G01X11960Y30267D01*
G01X11963Y30232D01*
G01X11960Y30196D01*
G01X11955Y30161D01*
G01X11945Y30128D01*
G01X11930Y30095D01*
G01X11912Y30064D01*
G01X11889Y30036D01*
G01X11864Y30013D01*
G01X11836Y29990D01*
G01X11805Y29973D01*
G01X11775Y29957D01*
G01X11742Y29947D01*
G01X11706Y29942D01*
G01X11673Y29940D01*
G01X10017Y29940D01*
G37*
G36*
G01X10017Y30590D02*
G01X9984Y30592D01*
G01X9949Y30598D01*
G01X9916Y30608D01*
G01X9883Y30623D01*
G01X9855Y30641D01*
G01X9827Y30664D01*
G01X9801Y30686D01*
G01X9779Y30714D01*
G01X9761Y30745D01*
G01X9745Y30778D01*
G01X9735Y30811D01*
G01X9730Y30846D01*
G01X9728Y30882D01*
G01X9730Y30918D01*
G01X9735Y30953D01*
G01X9745Y30986D01*
G01X9761Y31017D01*
G01X9779Y31047D01*
G01X9801Y31075D01*
G01X9827Y31100D01*
G01X9883Y31141D01*
G01X9916Y31154D01*
G01X9949Y31164D01*
G01X9984Y31172D01*
G01X10017Y31174D01*
G01X11673Y31174D01*
G01X11706Y31172D01*
G01X11742Y31164D01*
G01X11775Y31154D01*
G01X11805Y31141D01*
G01X11836Y31121D01*
G01X11864Y31100D01*
G01X11889Y31075D01*
G01X11912Y31047D01*
G01X11930Y31017D01*
G01X11945Y30986D01*
G01X11955Y30951D01*
G01X11960Y30918D01*
G01X11963Y30882D01*
G01X11960Y30846D01*
G01X11955Y30811D01*
G01X11945Y30778D01*
G01X11930Y30745D01*
G01X11912Y30714D01*
G01X11889Y30686D01*
G01X11864Y30664D01*
G01X11836Y30641D01*
G01X11805Y30623D01*
G01X11775Y30608D01*
G01X11739Y30598D01*
G01X11706Y30592D01*
G01X11673Y30590D01*
G01X10017Y30590D01*
G37*
G36*
G01X10017Y31240D02*
G01X9984Y31243D01*
G01X9949Y31248D01*
G01X9916Y31258D01*
G01X9883Y31273D01*
G01X9855Y31291D01*
G01X9827Y31314D01*
G01X9801Y31339D01*
G01X9779Y31365D01*
G01X9761Y31395D01*
G01X9745Y31428D01*
G01X9735Y31461D01*
G01X9730Y31497D01*
G01X9728Y31532D01*
G01X9730Y31568D01*
G01X9735Y31601D01*
G01X9745Y31636D01*
G01X9761Y31667D01*
G01X9779Y31697D01*
G01X9801Y31725D01*
G01X9827Y31751D01*
G01X9883Y31791D01*
G01X9949Y31817D01*
G01X9984Y31822D01*
G01X10017Y31824D01*
G01X11673Y31824D01*
G01X11706Y31822D01*
G01X11739Y31817D01*
G01X11775Y31804D01*
G01X11805Y31791D01*
G01X11836Y31771D01*
G01X11864Y31751D01*
G01X11889Y31725D01*
G01X11912Y31697D01*
G01X11930Y31667D01*
G01X11945Y31636D01*
G01X11955Y31601D01*
G01X11960Y31568D01*
G01X11963Y31532D01*
G01X11960Y31497D01*
G01X11955Y31461D01*
G01X11945Y31428D01*
G01X11930Y31395D01*
G01X11912Y31365D01*
G01X11889Y31339D01*
G01X11864Y31314D01*
G01X11836Y31291D01*
G01X11805Y31273D01*
G01X11775Y31258D01*
G01X11742Y31248D01*
G01X11706Y31243D01*
G01X11673Y31240D01*
G01X10017Y31240D01*
G37*
G36*
G01X9984Y31890D02*
G01X9949Y31898D01*
G01X9916Y31908D01*
G01X9883Y31923D01*
G01X9855Y31941D01*
G01X9827Y31964D01*
G01X9801Y31987D01*
G01X9779Y32015D01*
G01X9761Y32045D01*
G01X9745Y32078D01*
G01X9735Y32111D01*
G01X9730Y32147D01*
G01X9728Y32182D01*
G01X9730Y32218D01*
G01X9735Y32251D01*
G01X9745Y32287D01*
G01X9761Y32317D01*
G01X9779Y32348D01*
G01X9801Y32376D01*
G01X9827Y32401D01*
G01X9883Y32442D01*
G01X9916Y32454D01*
G01X9949Y32464D01*
G01X9984Y32472D01*
G01X10017Y32475D01*
G01X11673Y32475D01*
G01X11706Y32472D01*
G01X11739Y32464D01*
G01X11775Y32454D01*
G01X11805Y32442D01*
G01X11836Y32421D01*
G01X11864Y32401D01*
G01X11889Y32376D01*
G01X11912Y32348D01*
G01X11930Y32317D01*
G01X11945Y32287D01*
G01X11955Y32251D01*
G01X11960Y32218D01*
G01X11963Y32182D01*
G01X11960Y32147D01*
G01X11955Y32111D01*
G01X11945Y32078D01*
G01X11930Y32045D01*
G01X11912Y32015D01*
G01X11889Y31987D01*
G01X11864Y31964D01*
G01X11836Y31941D01*
G01X11805Y31923D01*
G01X11775Y31908D01*
G01X11742Y31898D01*
G01X11706Y31890D01*
G01X9984Y31890D01*
G37*
G36*
G01X9984Y32541D02*
G01X9949Y32548D01*
G01X9916Y32558D01*
G01X9883Y32574D01*
G01X9855Y32591D01*
G01X9827Y32612D01*
G01X9801Y32637D01*
G01X9779Y32665D01*
G01X9761Y32696D01*
G01X9745Y32729D01*
G01X9735Y32762D01*
G01X9730Y32797D01*
G01X9728Y32833D01*
G01X9730Y32868D01*
G01X9735Y32901D01*
G01X9745Y32937D01*
G01X9761Y32967D01*
G01X9779Y32998D01*
G01X9801Y33026D01*
G01X9827Y33051D01*
G01X9883Y33092D01*
G01X9916Y33104D01*
G01X9949Y33115D01*
G01X9984Y33122D01*
G01X10017Y33125D01*
G01X11673Y33125D01*
G01X11706Y33122D01*
G01X11739Y33115D01*
G01X11775Y33104D01*
G01X11805Y33092D01*
G01X11836Y33071D01*
G01X11864Y33051D01*
G01X11889Y33026D01*
G01X11912Y32998D01*
G01X11930Y32967D01*
G01X11945Y32937D01*
G01X11955Y32901D01*
G01X11960Y32868D01*
G01X11963Y32833D01*
G01X11960Y32797D01*
G01X11955Y32762D01*
G01X11945Y32729D01*
G01X11930Y32696D01*
G01X11912Y32665D01*
G01X11889Y32637D01*
G01X11864Y32612D01*
G01X11836Y32591D01*
G01X11805Y32574D01*
G01X11775Y32558D01*
G01X11742Y32548D01*
G01X11706Y32541D01*
G01X9984Y32541D01*
G37*
G36*
G01X10017Y33188D02*
G01X9984Y33191D01*
G01X9949Y33198D01*
G01X9916Y33209D01*
G01X9883Y33224D01*
G01X9855Y33242D01*
G01X9827Y33262D01*
G01X9801Y33287D01*
G01X9779Y33315D01*
G01X9761Y33346D01*
G01X9745Y33379D01*
G01X9735Y33412D01*
G01X9730Y33447D01*
G01X9728Y33480D01*
G01X9730Y33516D01*
G01X9735Y33552D01*
G01X9745Y33585D01*
G01X9761Y33618D01*
G01X9779Y33648D01*
G01X9801Y33676D01*
G01X9827Y33701D01*
G01X9855Y33722D01*
G01X9883Y33739D01*
G01X9916Y33755D01*
G01X9949Y33765D01*
G01X9984Y33773D01*
G01X11706Y33773D01*
G01X11742Y33765D01*
G01X11775Y33755D01*
G01X11805Y33739D01*
G01X11836Y33722D01*
G01X11864Y33701D01*
G01X11889Y33676D01*
G01X11912Y33648D01*
G01X11930Y33618D01*
G01X11945Y33585D01*
G01X11955Y33552D01*
G01X11960Y33516D01*
G01X11963Y33480D01*
G01X11960Y33447D01*
G01X11955Y33412D01*
G01X11945Y33379D01*
G01X11930Y33346D01*
G01X11912Y33315D01*
G01X11889Y33287D01*
G01X11864Y33262D01*
G01X11836Y33242D01*
G01X11805Y33224D01*
G01X11775Y33209D01*
G01X11742Y33198D01*
G01X11706Y33191D01*
G01X11673Y33188D01*
G01X10017Y33188D01*
G37*
G36*
G01X10017Y33839D02*
G01X9984Y33841D01*
G01X9949Y33849D01*
G01X9916Y33859D01*
G01X9883Y33872D01*
G01X9827Y33912D01*
G01X9801Y33938D01*
G01X9779Y33966D01*
G01X9761Y33996D01*
G01X9745Y34029D01*
G01X9735Y34062D01*
G01X9730Y34095D01*
G01X9728Y34131D01*
G01X9730Y34166D01*
G01X9735Y34202D01*
G01X9745Y34235D01*
G01X9761Y34268D01*
G01X9779Y34298D01*
G01X9801Y34326D01*
G01X9827Y34349D01*
G01X9855Y34372D01*
G01X9883Y34390D01*
G01X9916Y34405D01*
G01X9949Y34415D01*
G01X9984Y34420D01*
G01X10017Y34423D01*
G01X11673Y34423D01*
G01X11706Y34420D01*
G01X11739Y34415D01*
G01X11775Y34405D01*
G01X11805Y34390D01*
G01X11836Y34372D01*
G01X11864Y34349D01*
G01X11889Y34326D01*
G01X11912Y34298D01*
G01X11930Y34268D01*
G01X11945Y34235D01*
G01X11955Y34202D01*
G01X11960Y34166D01*
G01X11963Y34131D01*
G01X11960Y34095D01*
G01X11955Y34062D01*
G01X11945Y34029D01*
G01X11930Y33996D01*
G01X11912Y33966D01*
G01X11889Y33938D01*
G01X11864Y33912D01*
G01X11836Y33892D01*
G01X11805Y33872D01*
G01X11775Y33859D01*
G01X11742Y33849D01*
G01X11706Y33841D01*
G01X11673Y33839D01*
G01X10017Y33839D01*
G37*
G36*
G01X10017Y34489D02*
G01X9984Y34491D01*
G01X9949Y34499D01*
G01X9916Y34509D01*
G01X9883Y34522D01*
G01X9855Y34540D01*
G01X9827Y34562D01*
G01X9801Y34588D01*
G01X9779Y34616D01*
G01X9761Y34646D01*
G01X9745Y34679D01*
G01X9735Y34712D01*
G01X9730Y34745D01*
G01X9728Y34781D01*
G01X9730Y34816D01*
G01X9735Y34852D01*
G01X9745Y34885D01*
G01X9761Y34918D01*
G01X9779Y34949D01*
G01X9801Y34976D01*
G01X9827Y34999D01*
G01X9855Y35022D01*
G01X9883Y35040D01*
G01X9916Y35055D01*
G01X9949Y35065D01*
G01X9984Y35070D01*
G01X10017Y35073D01*
G01X11673Y35073D01*
G01X11706Y35070D01*
G01X11739Y35065D01*
G01X11775Y35055D01*
G01X11805Y35040D01*
G01X11836Y35022D01*
G01X11864Y34999D01*
G01X11889Y34976D01*
G01X11912Y34949D01*
G01X11930Y34918D01*
G01X11945Y34885D01*
G01X11955Y34852D01*
G01X11960Y34816D01*
G01X11963Y34781D01*
G01X11960Y34745D01*
G01X11955Y34712D01*
G01X11945Y34679D01*
G01X11930Y34646D01*
G01X11912Y34616D01*
G01X11889Y34588D01*
G01X11864Y34562D01*
G01X11836Y34540D01*
G01X11805Y34522D01*
G01X11775Y34509D01*
G01X11739Y34499D01*
G01X11706Y34491D01*
G01X11673Y34489D01*
G01X10017Y34489D01*
G37*
G36*
G01X10017Y35139D02*
G01X9984Y35142D01*
G01X9949Y35149D01*
G01X9916Y35159D01*
G01X9883Y35172D01*
G01X9827Y35213D01*
G01X9801Y35238D01*
G01X9779Y35266D01*
G01X9761Y35297D01*
G01X9745Y35327D01*
G01X9735Y35360D01*
G01X9730Y35396D01*
G01X9728Y35431D01*
G01X9730Y35467D01*
G01X9735Y35502D01*
G01X9745Y35535D01*
G01X9761Y35568D01*
G01X9779Y35599D01*
G01X9801Y35627D01*
G01X9827Y35650D01*
G01X9855Y35672D01*
G01X9883Y35690D01*
G01X9916Y35705D01*
G01X9949Y35716D01*
G01X9984Y35721D01*
G01X10017Y35723D01*
G01X11673Y35723D01*
G01X11706Y35721D01*
G01X11739Y35716D01*
G01X11775Y35705D01*
G01X11805Y35690D01*
G01X11836Y35672D01*
G01X11864Y35650D01*
G01X11889Y35627D01*
G01X11912Y35599D01*
G01X11930Y35568D01*
G01X11945Y35535D01*
G01X11955Y35502D01*
G01X11960Y35467D01*
G01X11963Y35431D01*
G01X11960Y35396D01*
G01X11955Y35363D01*
G01X11945Y35327D01*
G01X11930Y35297D01*
G01X11912Y35266D01*
G01X11889Y35238D01*
G01X11864Y35213D01*
G01X11836Y35190D01*
G01X11805Y35172D01*
G01X11775Y35159D01*
G01X11742Y35149D01*
G01X11706Y35142D01*
G01X11673Y35139D01*
G01X10017Y35139D01*
G37*
G36*
G01X10017Y35789D02*
G01X9984Y35792D01*
G01X9949Y35799D01*
G01X9916Y35810D01*
G01X9883Y35822D01*
G01X9827Y35863D01*
G01X9801Y35888D01*
G01X9779Y35916D01*
G01X9761Y35947D01*
G01X9745Y35977D01*
G01X9735Y36013D01*
G01X9730Y36046D01*
G01X9728Y36081D01*
G01X9730Y36117D01*
G01X9735Y36152D01*
G01X9745Y36186D01*
G01X9761Y36219D01*
G01X9779Y36249D01*
G01X9801Y36277D01*
G01X9827Y36300D01*
G01X9855Y36323D01*
G01X9883Y36340D01*
G01X9916Y36356D01*
G01X9949Y36366D01*
G01X9984Y36371D01*
G01X10017Y36373D01*
G01X11673Y36373D01*
G01X11706Y36371D01*
G01X11742Y36366D01*
G01X11775Y36356D01*
G01X11805Y36340D01*
G01X11836Y36323D01*
G01X11864Y36300D01*
G01X11889Y36277D01*
G01X11912Y36249D01*
G01X11930Y36219D01*
G01X11945Y36186D01*
G01X11955Y36152D01*
G01X11960Y36117D01*
G01X11963Y36081D01*
G01X11960Y36046D01*
G01X11955Y36013D01*
G01X11945Y35977D01*
G01X11930Y35947D01*
G01X11912Y35916D01*
G01X11889Y35888D01*
G01X11864Y35863D01*
G01X11836Y35843D01*
G01X11805Y35822D01*
G01X11775Y35810D01*
G01X11742Y35799D01*
G01X11706Y35792D01*
G01X11673Y35789D01*
G01X10017Y35789D01*
G37*
G36*
G01X10017Y36440D02*
G01X9984Y36442D01*
G01X9949Y36447D01*
G01X9916Y36457D01*
G01X9883Y36473D01*
G01X9855Y36490D01*
G01X9827Y36513D01*
G01X9801Y36539D01*
G01X9779Y36567D01*
G01X9761Y36594D01*
G01X9745Y36627D01*
G01X9735Y36660D01*
G01X9730Y36696D01*
G01X9728Y36732D01*
G01X9730Y36767D01*
G01X9735Y36803D01*
G01X9745Y36836D01*
G01X9761Y36866D01*
G01X9779Y36897D01*
G01X9801Y36925D01*
G01X9827Y36950D01*
G01X9855Y36973D01*
G01X9883Y36991D01*
G01X9916Y37006D01*
G01X9949Y37016D01*
G01X9984Y37021D01*
G01X10017Y37024D01*
G01X11673Y37024D01*
G01X11706Y37021D01*
G01X11739Y37016D01*
G01X11775Y37006D01*
G01X11805Y36991D01*
G01X11836Y36973D01*
G01X11864Y36950D01*
G01X11889Y36925D01*
G01X11912Y36897D01*
G01X11930Y36866D01*
G01X11945Y36836D01*
G01X11955Y36800D01*
G01X11960Y36767D01*
G01X11963Y36732D01*
G01X11960Y36696D01*
G01X11955Y36660D01*
G01X11945Y36627D01*
G01X11930Y36594D01*
G01X11912Y36567D01*
G01X11889Y36539D01*
G01X11864Y36513D01*
G01X11836Y36490D01*
G01X11805Y36473D01*
G01X11775Y36457D01*
G01X11742Y36447D01*
G01X11706Y36442D01*
G01X11673Y36440D01*
G01X10017Y36440D01*
G37*
G36*
G01X51528Y15347D02*
G01X51528Y17069D01*
G01X53677Y17069D01*
G01X53677Y15347D01*
G01X51528Y15347D01*
G37*
G36*
G01X46398Y15347D02*
G01X46398Y17069D01*
G01X48547Y17069D01*
G01X48547Y15347D01*
G01X46398Y15347D01*
G37*
G36*
G01X44061Y30186D02*
G01X44061Y31187D01*
G01X44963Y31187D01*
G01X44963Y30186D01*
G01X44061Y30186D01*
G37*
G36*
G01X45460Y30186D02*
G01X45460Y31187D01*
G01X46362Y31187D01*
G01X46362Y30186D01*
G01X45460Y30186D01*
G37*
G36*
G01X41267Y30186D02*
G01X41267Y31187D01*
G01X42169Y31187D01*
G01X42169Y30186D01*
G01X41267Y30186D01*
G37*
G36*
G01X42666Y30186D02*
G01X42666Y31187D01*
G01X43568Y31187D01*
G01X43568Y30186D01*
G01X42666Y30186D01*
G37*
G36*
G01X6169Y30430D02*
G01X6169Y35807D01*
G01X7292Y35807D01*
G01X7292Y30430D01*
G01X6169Y30430D01*
G37*
G36*
G01X6169Y39536D02*
G01X6169Y44913D01*
G01X7292Y44913D01*
G01X7292Y39536D01*
G01X6169Y39536D01*
G37*
G36*
G01X10195Y47732D02*
G01X10195Y49467D01*
G01X11648Y49467D01*
G01X11648Y47732D01*
G01X10195Y47732D01*
G37*
G36*
G01X10195Y50768D02*
G01X10195Y52502D01*
G01X11648Y52502D01*
G01X11648Y50768D01*
G01X10195Y50768D01*
G37*
G36*
G01X8417Y47732D02*
G01X8417Y49467D01*
G01X9870Y49467D01*
G01X9870Y47732D01*
G01X8417Y47732D01*
G37*
G36*
G01X8417Y50768D02*
G01X8417Y52502D01*
G01X9870Y52502D01*
G01X9870Y50768D01*
G01X8417Y50768D01*
G37*
G36*
G01X6639Y47732D02*
G01X6639Y49467D01*
G01X8092Y49467D01*
G01X8092Y47732D01*
G01X6639Y47732D01*
G37*
G36*
G01X6639Y50768D02*
G01X6639Y52502D01*
G01X8092Y52502D01*
G01X8092Y50768D01*
G01X6639Y50768D01*
G37*
G36*
G01X4861Y47732D02*
G01X4861Y49467D01*
G01X6314Y49467D01*
G01X6314Y47732D01*
G01X4861Y47732D01*
G37*
G36*
G01X4861Y50768D02*
G01X4861Y52502D01*
G01X6314Y52502D01*
G01X6314Y50768D01*
G01X4861Y50768D01*
G37*
G36*
G01X12646Y42950D02*
G01X12646Y44052D01*
G01X14218Y44052D01*
G01X14218Y42950D01*
G01X12646Y42950D01*
G37*
G54D104*
G01X13433Y42131D03*
G36*
G01X12646Y40280D02*
G01X12646Y41382D01*
G01X14218Y41382D01*
G01X14218Y40280D01*
G01X12646Y40280D01*
G37*
G36*
G01X12646Y38911D02*
G01X12646Y40013D01*
G01X14218Y40013D01*
G01X14218Y38911D01*
G01X12646Y38911D01*
G37*
G36*
G01X16007Y38911D02*
G01X16007Y40013D01*
G01X17579Y40013D01*
G01X17579Y38911D01*
G01X16007Y38911D01*
G37*
G36*
G01X16007Y40280D02*
G01X16007Y41382D01*
G01X17579Y41382D01*
G01X17579Y40280D01*
G01X16007Y40280D01*
G37*
G36*
G01X16007Y41580D02*
G01X16007Y42683D01*
G01X17579Y42683D01*
G01X17579Y41580D01*
G01X16007Y41580D01*
G37*
G36*
G01X16007Y42950D02*
G01X16007Y44052D01*
G01X17579Y44052D01*
G01X17579Y42950D01*
G01X16007Y42950D01*
G37*
G36*
G01X12646Y50062D02*
G01X12646Y51164D01*
G01X14218Y51164D01*
G01X14218Y50062D01*
G01X12646Y50062D01*
G37*
G01X13433Y49243D03*
G36*
G01X12646Y47392D02*
G01X12646Y48494D01*
G01X14218Y48494D01*
G01X14218Y47392D01*
G01X12646Y47392D01*
G37*
G36*
G01X12646Y46023D02*
G01X12646Y47125D01*
G01X14218Y47125D01*
G01X14218Y46023D01*
G01X12646Y46023D01*
G37*
G36*
G01X16007Y46023D02*
G01X16007Y47125D01*
G01X17579Y47125D01*
G01X17579Y46023D01*
G01X16007Y46023D01*
G37*
G36*
G01X16007Y47392D02*
G01X16007Y48494D01*
G01X17579Y48494D01*
G01X17579Y47392D01*
G01X16007Y47392D01*
G37*
G36*
G01X16007Y48692D02*
G01X16007Y49795D01*
G01X17579Y49795D01*
G01X17579Y48692D01*
G01X16007Y48692D01*
G37*
G36*
G01X16007Y50062D02*
G01X16007Y51164D01*
G01X17579Y51164D01*
G01X17579Y50062D01*
G01X16007Y50062D01*
G37*
G54D92*
G01X16390Y17561D03*
G01X17391Y18211D03*
G01X16390Y18861D03*
G01X17391Y19512D03*
G01X16390Y20162D03*
G54D68*
G01X26936Y21618D03*
G01X25133Y20818D03*
G01X25133Y19218D03*
G01X26936Y20018D03*
G01X26936Y18418D03*
G54D93*
G01X26047Y16018D03*
G01X26047Y24018D03*
M00*
M02*
