G04 Layer: TopSolderMaskLayer*
G04 EasyEDA v6.4.7, 2021-02-24T17:41:02+08:00*
G04 aefd34b0273d4d6584ca49087094e06a,119f753a6ce64b8d841f2ad33262ab0c,10*
G04 Gerber Generator version 0.2*
G04 Scale: 100 percent, Rotated: No, Reflected: No *
G04 Dimensions in millimeters *
G04 leading zeros omitted , absolute positions ,3 integer and 3 decimal *
%FSLAX33Y33*%
%MOMM*%
G90*
D02*

%ADD68C,1.403198*%
%ADD69C,5.203190*%
%ADD70C,0.444602*%
%ADD71C,0.406400*%
%ADD72C,1.003198*%
%ADD73C,0.903199*%
%ADD74C,1.203198*%
%ADD75C,0.803199*%
%ADD76C,1.448003*%
%ADD77C,2.003196*%
%ADD79C,1.803197*%
%ADD81C,1.703197*%
%ADD84R,1.727200X1.727200*%
%ADD85C,1.727200*%
%ADD86R,1.117600X1.117600*%
%ADD90C,1.092200*%
%ADD92C,1.103198*%
%ADD93C,2.703195*%

%LPD*%
G54D68*
G01X62611Y68420D02*
G01X62611Y67120D01*
G01X60071Y68420D02*
G01X60071Y67120D01*
G01X57531Y68420D02*
G01X57531Y67120D01*
G01X54991Y68420D02*
G01X54991Y67120D01*
G01X52451Y68420D02*
G01X52451Y67120D01*
G01X49911Y68420D02*
G01X49911Y67120D01*
G01X47371Y68420D02*
G01X47371Y67120D01*
G01X39751Y68420D02*
G01X39751Y67120D01*
G01X62611Y60800D02*
G01X62611Y59500D01*
G01X60071Y60800D02*
G01X60071Y59500D01*
G01X57531Y60800D02*
G01X57531Y59500D01*
G01X54991Y60800D02*
G01X54991Y59500D01*
G01X52451Y60800D02*
G01X52451Y59500D01*
G01X49911Y60800D02*
G01X49911Y59500D01*
G01X47371Y60800D02*
G01X47371Y59500D01*
G01X44831Y60800D02*
G01X44831Y59500D01*
G01X42291Y60800D02*
G01X42291Y59500D01*
G01X39751Y60800D02*
G01X39751Y59500D01*
G01X37211Y68420D02*
G01X37211Y67120D01*
G01X34671Y68420D02*
G01X34671Y67120D01*
G01X32131Y68420D02*
G01X32131Y67120D01*
G01X29591Y68420D02*
G01X29591Y67120D01*
G01X27051Y68420D02*
G01X27051Y67120D01*
G01X37211Y60800D02*
G01X37211Y59500D01*
G01X34671Y60800D02*
G01X34671Y59500D01*
G01X32131Y60800D02*
G01X32131Y59500D01*
G01X29591Y60800D02*
G01X29591Y59500D01*
G01X27051Y60800D02*
G01X27051Y59500D01*
G01X44831Y68420D02*
G01X44831Y67120D01*
G01X42291Y68420D02*
G01X42291Y67120D01*
G54D69*
G01X8001Y12525D02*
G01X8001Y12525D01*
G54D70*
G01X51088Y35652D02*
G01X51088Y37040D01*
G01X50438Y35652D02*
G01X50438Y37040D01*
G01X49788Y35652D02*
G01X49788Y37040D01*
G01X49138Y35652D02*
G01X49138Y37040D01*
G01X48488Y35652D02*
G01X48488Y37040D01*
G01X47838Y35652D02*
G01X47838Y37040D01*
G01X47187Y35652D02*
G01X47187Y37040D01*
G01X46537Y35652D02*
G01X46537Y37040D01*
G01X45887Y35652D02*
G01X45887Y37040D01*
G01X45237Y35652D02*
G01X45237Y37040D01*
G01X44587Y35652D02*
G01X44587Y37040D01*
G01X43937Y35652D02*
G01X43937Y37040D01*
G01X43287Y35652D02*
G01X43287Y37040D01*
G01X42637Y35652D02*
G01X42637Y37040D01*
G01X51088Y29920D02*
G01X51088Y31309D01*
G01X50438Y29920D02*
G01X50438Y31309D01*
G01X49788Y29920D02*
G01X49788Y31309D01*
G01X49138Y29920D02*
G01X49138Y31309D01*
G01X48488Y29920D02*
G01X48488Y31309D01*
G01X47838Y29920D02*
G01X47838Y31309D01*
G01X47187Y29920D02*
G01X47187Y31309D01*
G01X46537Y29920D02*
G01X46537Y31309D01*
G01X45887Y29920D02*
G01X45887Y31309D01*
G01X45237Y29920D02*
G01X45237Y31309D01*
G01X44587Y29920D02*
G01X44587Y31309D01*
G01X43937Y29920D02*
G01X43937Y31309D01*
G01X43287Y29920D02*
G01X43287Y31309D01*
G01X42637Y29920D02*
G01X42637Y31309D01*
G54D71*
G01X51286Y19577D02*
G01X52040Y20332D01*
G01X59818Y19012D02*
G01X59064Y19766D01*
G01X58404Y17598D02*
G01X57650Y18352D01*
G01X61233Y20426D02*
G01X60478Y21180D01*
G01X60950Y20143D02*
G01X60195Y20897D01*
G01X60384Y19577D02*
G01X59630Y20332D01*
G01X60101Y19295D02*
G01X59347Y20049D01*
G01X58687Y17881D02*
G01X57933Y18635D01*
G01X58970Y18163D02*
G01X58216Y18918D01*
G01X60667Y19860D02*
G01X59912Y20615D01*
G01X51192Y23113D02*
G01X50437Y23867D01*
G01X58121Y17315D02*
G01X57367Y18069D01*
G01X56518Y27073D02*
G01X57273Y27827D01*
G01X50154Y20709D02*
G01X50909Y21463D01*
G01X57556Y16749D02*
G01X56801Y17504D01*
G01X60195Y23396D02*
G01X60950Y24150D01*
G01X59253Y18446D02*
G01X58498Y19201D01*
G01X53548Y17315D02*
G01X54303Y18069D01*
G01X52134Y18729D02*
G01X52889Y19483D01*
G01X50909Y22830D02*
G01X50154Y23585D01*
G01X55152Y27073D02*
G01X54397Y27827D01*
G01X57838Y17032D02*
G01X57084Y17786D01*
G01X61515Y20709D02*
G01X60761Y21463D01*
G01X54114Y16749D02*
G01X54869Y17503D01*
G01X53831Y17032D02*
G01X54586Y17786D01*
G01X59535Y18729D02*
G01X58781Y19483D01*
G01X57273Y16466D02*
G01X56518Y17221D01*
G01X59912Y23679D02*
G01X60667Y24433D01*
G01X59630Y23962D02*
G01X60384Y24716D01*
G01X52606Y24527D02*
G01X51852Y25282D01*
G01X52889Y24810D02*
G01X52134Y25564D01*
G01X52323Y24244D02*
G01X51569Y24999D01*
G01X51757Y23679D02*
G01X51003Y24433D01*
G01X53171Y25093D02*
G01X52417Y25847D01*
G01X53454Y25376D02*
G01X52700Y26130D01*
G01X51474Y23396D02*
G01X50720Y24150D01*
G01X52040Y23962D02*
G01X51286Y24716D01*
G01X57932Y25659D02*
G01X58687Y26413D01*
G01X56801Y26790D02*
G01X57555Y27544D01*
G01X57084Y26507D02*
G01X57838Y27261D01*
G01X57650Y25941D02*
G01X58404Y26696D01*
G01X57367Y26224D02*
G01X58121Y26978D01*
G01X50720Y20143D02*
G01X51474Y20897D01*
G01X50437Y20426D02*
G01X51191Y21180D01*
G01X51003Y19860D02*
G01X51757Y20615D01*
G01X52983Y17881D02*
G01X53737Y18635D01*
G01X53266Y17598D02*
G01X54020Y18352D01*
G01X58781Y24810D02*
G01X59535Y25564D01*
G01X52700Y18163D02*
G01X53454Y18918D01*
G01X52417Y18446D02*
G01X53171Y19201D01*
G01X59064Y24527D02*
G01X59818Y25282D01*
G01X58498Y25093D02*
G01X59253Y25847D01*
G01X58215Y25376D02*
G01X58970Y26130D01*
G01X59347Y24244D02*
G01X60101Y24999D01*
G01X54397Y16466D02*
G01X55152Y17220D01*
G01X53737Y25659D02*
G01X52983Y26413D01*
G01X54586Y26507D02*
G01X53831Y27261D01*
G01X54020Y25941D02*
G01X53266Y26696D01*
G01X51851Y19012D02*
G01X52606Y19766D01*
G01X60761Y22830D02*
G01X61515Y23585D01*
G01X60478Y23113D02*
G01X61233Y23867D01*
G01X54303Y26224D02*
G01X53548Y26978D01*
G01X51568Y19295D02*
G01X52323Y20049D01*
G01X54869Y26790D02*
G01X54114Y27544D01*
G54D72*
G01X17111Y22440D02*
G01X16111Y22440D01*
G01X17111Y15282D02*
G01X16111Y15282D01*
G54D73*
G01X20508Y22492D02*
G01X20508Y22492D01*
G01X20508Y21542D02*
G01X20508Y21542D01*
G01X20508Y19692D02*
G01X20508Y19692D01*
G01X20508Y18792D02*
G01X20508Y18792D01*
G01X20508Y17892D02*
G01X20508Y17892D01*
G01X20508Y16942D02*
G01X20508Y16942D01*
G01X20508Y15992D02*
G01X20508Y15992D01*
G01X21909Y15992D02*
G01X21909Y15992D01*
G01X21909Y16942D02*
G01X21909Y16942D01*
G01X21909Y18792D02*
G01X21909Y18792D01*
G01X21909Y19692D02*
G01X21909Y19692D01*
G01X21909Y20592D02*
G01X21909Y20592D01*
G01X21909Y21542D02*
G01X21909Y21542D01*
G01X21909Y22492D02*
G01X21909Y22492D01*
G54D74*
G01X23138Y17742D02*
G01X23138Y16742D01*
G01X23138Y21742D02*
G01X23138Y20742D01*
G01X19279Y17742D02*
G01X19279Y16742D01*
G01X19279Y21742D02*
G01X19279Y20742D01*
G54D75*
G01X39878Y35979D02*
G01X39878Y37179D01*
G01X38608Y35979D02*
G01X38608Y37179D01*
G01X37338Y35979D02*
G01X37338Y37179D01*
G01X36068Y35979D02*
G01X36068Y37179D01*
G01X34798Y35979D02*
G01X34798Y37179D01*
G01X33528Y35979D02*
G01X33528Y37179D01*
G01X32258Y35979D02*
G01X32258Y37179D01*
G01X30988Y35979D02*
G01X30988Y37179D01*
G01X39878Y30036D02*
G01X39878Y31236D01*
G01X38608Y30036D02*
G01X38608Y31236D01*
G01X37338Y30036D02*
G01X37338Y31236D01*
G01X36068Y30036D02*
G01X36068Y31236D01*
G01X34798Y30036D02*
G01X34798Y31236D01*
G01X33528Y30036D02*
G01X33528Y31236D01*
G01X32258Y30036D02*
G01X32258Y31236D01*
G01X30988Y30036D02*
G01X30988Y31236D01*
G36*
G01X59385Y5600D02*
G01X60085Y5600D01*
G01X60085Y1300D01*
G01X59385Y1300D01*
G01X59385Y5600D01*
G37*
G36*
G01X58385Y5600D02*
G01X59085Y5600D01*
G01X59085Y1300D01*
G01X58385Y1300D01*
G01X58385Y5600D01*
G37*
G36*
G01X60385Y5600D02*
G01X61085Y5600D01*
G01X61085Y1300D01*
G01X60385Y1300D01*
G01X60385Y5600D01*
G37*
G36*
G01X62385Y5600D02*
G01X63085Y5600D01*
G01X63085Y1300D01*
G01X62385Y1300D01*
G01X62385Y5600D01*
G37*
G36*
G01X61385Y5600D02*
G01X62085Y5600D01*
G01X62085Y1300D01*
G01X61385Y1300D01*
G01X61385Y5600D01*
G37*
G36*
G01X64385Y5600D02*
G01X65085Y5600D01*
G01X65085Y1300D01*
G01X64385Y1300D01*
G01X64385Y5600D01*
G37*
G36*
G01X63385Y5600D02*
G01X64085Y5600D01*
G01X64085Y2400D01*
G01X63385Y2400D01*
G01X63385Y5600D01*
G37*
G36*
G01X46385Y5600D02*
G01X47085Y5600D01*
G01X47085Y1300D01*
G01X46385Y1300D01*
G01X46385Y5600D01*
G37*
G36*
G01X45385Y5600D02*
G01X46085Y5600D01*
G01X46085Y1300D01*
G01X45385Y1300D01*
G01X45385Y5600D01*
G37*
G36*
G01X47385Y5600D02*
G01X48085Y5600D01*
G01X48085Y1300D01*
G01X47385Y1300D01*
G01X47385Y5600D01*
G37*
G36*
G01X53385Y5600D02*
G01X54085Y5600D01*
G01X54085Y1300D01*
G01X53385Y1300D01*
G01X53385Y5600D01*
G37*
G36*
G01X52385Y5600D02*
G01X53085Y5600D01*
G01X53085Y1300D01*
G01X52385Y1300D01*
G01X52385Y5600D01*
G37*
G36*
G01X55385Y5600D02*
G01X56085Y5600D01*
G01X56085Y1300D01*
G01X55385Y1300D01*
G01X55385Y5600D01*
G37*
G36*
G01X54385Y5600D02*
G01X55085Y5600D01*
G01X55085Y1300D01*
G01X54385Y1300D01*
G01X54385Y5600D01*
G37*
G36*
G01X49385Y5600D02*
G01X50085Y5600D01*
G01X50085Y1300D01*
G01X49385Y1300D01*
G01X49385Y5600D01*
G37*
G36*
G01X48385Y5600D02*
G01X49085Y5600D01*
G01X49085Y1300D01*
G01X48385Y1300D01*
G01X48385Y5600D01*
G37*
G36*
G01X51385Y5600D02*
G01X52085Y5600D01*
G01X52085Y1300D01*
G01X51385Y1300D01*
G01X51385Y5600D01*
G37*
G36*
G01X50385Y5600D02*
G01X51085Y5600D01*
G01X51085Y1300D01*
G01X50385Y1300D01*
G01X50385Y5600D01*
G37*
G54D69*
G01X8001Y66246D03*
G54D76*
G01X37846Y9160D03*
G01X8001Y8334D03*
G01X8001Y62055D03*
G54D77*
G01X13208Y25098D03*
G01X13208Y22558D03*
G01X10668Y25098D03*
G01X10668Y22558D03*
G01X8128Y25098D03*
G36*
G01X7127Y21558D02*
G01X7127Y23559D01*
G01X9128Y23559D01*
G01X9128Y21558D01*
G01X7127Y21558D01*
G37*
G54D79*
G01X60706Y53038D03*
G01X60706Y55578D03*
G01X60706Y49101D03*
G01X60706Y46561D03*
G36*
G01X55384Y33392D02*
G01X55384Y35093D01*
G01X57086Y35093D01*
G01X57086Y33392D01*
G01X55384Y33392D01*
G37*
G54D81*
G01X61112Y34242D03*
G36*
G01X44386Y14862D02*
G01X44386Y17555D01*
G01X46672Y17555D01*
G01X46672Y14862D01*
G01X44386Y14862D01*
G37*
G36*
G01X37401Y14862D02*
G01X37401Y17555D01*
G01X39687Y17555D01*
G01X39687Y14862D01*
G01X37401Y14862D01*
G37*
G36*
G01X34074Y16480D02*
G01X34074Y18309D01*
G01X35659Y18309D01*
G01X35659Y16480D01*
G01X34074Y16480D01*
G37*
G36*
G01X30888Y16480D02*
G01X30888Y18309D01*
G01X32473Y18309D01*
G01X32473Y16480D01*
G01X30888Y16480D01*
G37*
G36*
G01X34074Y14151D02*
G01X34074Y15980D01*
G01X35659Y15980D01*
G01X35659Y14151D01*
G01X34074Y14151D01*
G37*
G36*
G01X30888Y14151D02*
G01X30888Y15980D01*
G01X32473Y15980D01*
G01X32473Y14151D01*
G01X30888Y14151D01*
G37*
G36*
G01X37401Y19561D02*
G01X37401Y22254D01*
G01X39687Y22254D01*
G01X39687Y19561D01*
G01X37401Y19561D01*
G37*
G36*
G01X44386Y19561D02*
G01X44386Y22254D01*
G01X46672Y22254D01*
G01X46672Y19561D01*
G01X44386Y19561D01*
G37*
G36*
G01X30888Y21136D02*
G01X30888Y22965D01*
G01X32473Y22965D01*
G01X32473Y21136D01*
G01X30888Y21136D01*
G37*
G36*
G01X34074Y21136D02*
G01X34074Y22965D01*
G01X35659Y22965D01*
G01X35659Y21136D01*
G01X34074Y21136D01*
G37*
G36*
G01X30888Y18807D02*
G01X30888Y20636D01*
G01X32473Y20636D01*
G01X32473Y18807D01*
G01X30888Y18807D01*
G37*
G36*
G01X34074Y18807D02*
G01X34074Y20636D01*
G01X35659Y20636D01*
G01X35659Y18807D01*
G01X34074Y18807D01*
G37*
G54D84*
G01X5080Y20018D03*
G54D85*
G01X5080Y25098D03*
G01X5080Y22558D03*
G54D79*
G01X54102Y46561D03*
G01X54102Y49101D03*
G01X47498Y46561D03*
G01X47498Y49101D03*
G01X40894Y46561D03*
G01X40894Y49101D03*
G01X34290Y46561D03*
G01X34290Y49101D03*
G01X27686Y46561D03*
G01X27686Y49101D03*
G01X54102Y53038D03*
G01X54102Y55578D03*
G01X47498Y53038D03*
G01X47498Y55578D03*
G01X40894Y53038D03*
G01X40894Y55578D03*
G01X34290Y53038D03*
G01X34290Y55578D03*
G01X27686Y53038D03*
G01X27686Y55578D03*
G36*
G01X12138Y32525D02*
G01X12100Y32530D01*
G01X12062Y32538D01*
G01X12026Y32553D01*
G01X11993Y32571D01*
G01X11960Y32591D01*
G01X11932Y32617D01*
G01X11907Y32647D01*
G01X11884Y32678D01*
G01X11866Y32711D01*
G01X11854Y32749D01*
G01X11844Y32784D01*
G01X11841Y32823D01*
G01X11841Y32861D01*
G01X11844Y32899D01*
G01X11854Y32937D01*
G01X11866Y32972D01*
G01X11884Y33008D01*
G01X11907Y33038D01*
G01X11930Y33064D01*
G01X12887Y34021D01*
G01X12913Y34044D01*
G01X12943Y34067D01*
G01X12979Y34085D01*
G01X13014Y34098D01*
G01X13053Y34108D01*
G01X13091Y34110D01*
G01X13129Y34110D01*
G01X13167Y34108D01*
G01X13202Y34098D01*
G01X13238Y34085D01*
G01X13274Y34067D01*
G01X13304Y34044D01*
G01X13335Y34019D01*
G01X13360Y33991D01*
G01X13380Y33958D01*
G01X13398Y33925D01*
G01X13413Y33889D01*
G01X13421Y33851D01*
G01X13426Y33813D01*
G01X13426Y33775D01*
G01X13421Y33737D01*
G01X13413Y33699D01*
G01X13398Y33663D01*
G01X13380Y33630D01*
G01X13360Y33597D01*
G01X12354Y32591D01*
G01X12321Y32571D01*
G01X12288Y32553D01*
G01X12252Y32538D01*
G01X12214Y32530D01*
G01X12176Y32525D01*
G01X12138Y32525D01*
G37*
G36*
G01X11562Y33099D02*
G01X11523Y33104D01*
G01X11488Y33115D01*
G01X11452Y33127D01*
G01X11417Y33145D01*
G01X11386Y33168D01*
G01X11358Y33193D01*
G01X11333Y33221D01*
G01X11310Y33252D01*
G01X11292Y33287D01*
G01X11280Y33323D01*
G01X11269Y33358D01*
G01X11264Y33397D01*
G01X11264Y33437D01*
G01X11269Y33475D01*
G01X11280Y33511D01*
G01X11292Y33546D01*
G01X11310Y33582D01*
G01X11333Y33612D01*
G01X11356Y33640D01*
G01X12311Y34595D01*
G01X12339Y34618D01*
G01X12369Y34641D01*
G01X12402Y34659D01*
G01X12440Y34672D01*
G01X12476Y34682D01*
G01X12514Y34687D01*
G01X12555Y34687D01*
G01X12590Y34682D01*
G01X12628Y34672D01*
G01X12664Y34659D01*
G01X12697Y34641D01*
G01X12730Y34618D01*
G01X12758Y34593D01*
G01X12783Y34565D01*
G01X12806Y34532D01*
G01X12824Y34499D01*
G01X12837Y34463D01*
G01X12847Y34425D01*
G01X12852Y34390D01*
G01X12852Y34349D01*
G01X12847Y34311D01*
G01X12837Y34275D01*
G01X12824Y34237D01*
G01X12806Y34204D01*
G01X12783Y34174D01*
G01X12760Y34146D01*
G01X11805Y33191D01*
G01X11777Y33168D01*
G01X11747Y33145D01*
G01X11711Y33127D01*
G01X11676Y33115D01*
G01X11640Y33104D01*
G01X11602Y33099D01*
G01X11562Y33099D01*
G37*
G36*
G01X9875Y34789D02*
G01X9837Y34794D01*
G01X9799Y34801D01*
G01X9763Y34816D01*
G01X9730Y34834D01*
G01X9697Y34855D01*
G01X9669Y34880D01*
G01X9644Y34910D01*
G01X9621Y34941D01*
G01X9603Y34974D01*
G01X9591Y35012D01*
G01X9580Y35048D01*
G01X9575Y35086D01*
G01X9575Y35124D01*
G01X9580Y35162D01*
G01X9591Y35200D01*
G01X9603Y35236D01*
G01X9621Y35269D01*
G01X9644Y35302D01*
G01X9667Y35327D01*
G01X10624Y36285D01*
G01X10650Y36307D01*
G01X10683Y36330D01*
G01X10716Y36346D01*
G01X10751Y36361D01*
G01X10789Y36368D01*
G01X10825Y36373D01*
G01X10866Y36373D01*
G01X10904Y36368D01*
G01X10939Y36361D01*
G01X10977Y36346D01*
G01X11010Y36330D01*
G01X11041Y36307D01*
G01X11071Y36282D01*
G01X11097Y36254D01*
G01X11117Y36221D01*
G01X11135Y36188D01*
G01X11150Y36152D01*
G01X11158Y36114D01*
G01X11163Y36076D01*
G01X11163Y36038D01*
G01X11158Y36000D01*
G01X11150Y35962D01*
G01X11135Y35926D01*
G01X11117Y35893D01*
G01X11097Y35860D01*
G01X11071Y35835D01*
G01X10116Y34877D01*
G01X10088Y34855D01*
G01X10058Y34834D01*
G01X10025Y34816D01*
G01X9989Y34801D01*
G01X9951Y34794D01*
G01X9913Y34789D01*
G01X9875Y34789D01*
G37*
G36*
G01X8742Y35919D02*
G01X8704Y35924D01*
G01X8669Y35934D01*
G01X8633Y35947D01*
G01X8597Y35965D01*
G01X8567Y35987D01*
G01X8536Y36013D01*
G01X8511Y36041D01*
G01X8491Y36071D01*
G01X8473Y36107D01*
G01X8460Y36142D01*
G01X8450Y36180D01*
G01X8445Y36219D01*
G01X8445Y36257D01*
G01X8450Y36295D01*
G01X8460Y36330D01*
G01X8473Y36368D01*
G01X8491Y36401D01*
G01X8511Y36432D01*
G01X8536Y36460D01*
G01X9491Y37415D01*
G01X9519Y37438D01*
G01X9550Y37461D01*
G01X9583Y37478D01*
G01X9618Y37491D01*
G01X9657Y37501D01*
G01X9695Y37506D01*
G01X9733Y37506D01*
G01X9771Y37501D01*
G01X9809Y37491D01*
G01X9845Y37478D01*
G01X9878Y37461D01*
G01X9911Y37440D01*
G01X9939Y37412D01*
G01X9964Y37384D01*
G01X9987Y37354D01*
G01X10005Y37318D01*
G01X10017Y37283D01*
G01X10027Y37247D01*
G01X10033Y37207D01*
G01X10033Y37171D01*
G01X10027Y37130D01*
G01X10017Y37095D01*
G01X10005Y37059D01*
G01X9987Y37024D01*
G01X9964Y36993D01*
G01X9941Y36965D01*
G01X8983Y36010D01*
G01X8958Y35987D01*
G01X8928Y35965D01*
G01X8892Y35947D01*
G01X8856Y35934D01*
G01X8818Y35924D01*
G01X8780Y35919D01*
G01X8742Y35919D01*
G37*
G36*
G01X9705Y37618D02*
G01X9667Y37623D01*
G01X9631Y37633D01*
G01X9596Y37646D01*
G01X9560Y37664D01*
G01X9530Y37687D01*
G01X9502Y37710D01*
G01X8547Y38665D01*
G01X8524Y38692D01*
G01X8501Y38723D01*
G01X8483Y38759D01*
G01X8470Y38794D01*
G01X8460Y38830D01*
G01X8455Y38868D01*
G01X8455Y38908D01*
G01X8460Y38946D01*
G01X8470Y38982D01*
G01X8483Y39018D01*
G01X8501Y39053D01*
G01X8524Y39084D01*
G01X8549Y39114D01*
G01X8577Y39137D01*
G01X8610Y39160D01*
G01X8643Y39178D01*
G01X8679Y39190D01*
G01X8717Y39200D01*
G01X8755Y39206D01*
G01X8793Y39206D01*
G01X8831Y39200D01*
G01X8869Y39190D01*
G01X8905Y39178D01*
G01X8938Y39160D01*
G01X8971Y39137D01*
G01X8996Y39114D01*
G01X9951Y38159D01*
G01X9977Y38131D01*
G01X9997Y38101D01*
G01X10015Y38068D01*
G01X10027Y38032D01*
G01X10038Y37994D01*
G01X10043Y37956D01*
G01X10043Y37918D01*
G01X10038Y37880D01*
G01X10027Y37842D01*
G01X10015Y37806D01*
G01X9997Y37773D01*
G01X9974Y37740D01*
G01X9949Y37712D01*
G01X9921Y37687D01*
G01X9890Y37664D01*
G01X9855Y37646D01*
G01X9819Y37633D01*
G01X9784Y37623D01*
G01X9745Y37618D01*
G01X9705Y37618D01*
G37*
G36*
G01X10271Y38184D02*
G01X10233Y38190D01*
G01X10195Y38197D01*
G01X10160Y38212D01*
G01X10126Y38230D01*
G01X10093Y38251D01*
G01X9088Y39256D01*
G01X9067Y39289D01*
G01X9050Y39322D01*
G01X9034Y39358D01*
G01X9027Y39396D01*
G01X9022Y39434D01*
G01X9022Y39472D01*
G01X9027Y39510D01*
G01X9034Y39548D01*
G01X9050Y39584D01*
G01X9067Y39617D01*
G01X9090Y39650D01*
G01X9116Y39678D01*
G01X9144Y39703D01*
G01X9174Y39726D01*
G01X9210Y39744D01*
G01X9245Y39757D01*
G01X9281Y39767D01*
G01X9319Y39769D01*
G01X9359Y39769D01*
G01X9395Y39767D01*
G01X9433Y39757D01*
G01X9469Y39744D01*
G01X9504Y39726D01*
G01X9535Y39703D01*
G01X9560Y39681D01*
G01X10518Y38726D01*
G01X10541Y38698D01*
G01X10563Y38667D01*
G01X10581Y38632D01*
G01X10594Y38596D01*
G01X10604Y38558D01*
G01X10609Y38520D01*
G01X10609Y38482D01*
G01X10604Y38444D01*
G01X10594Y38408D01*
G01X10581Y38372D01*
G01X10563Y38337D01*
G01X10541Y38306D01*
G01X10515Y38276D01*
G01X10487Y38253D01*
G01X10454Y38230D01*
G01X10421Y38212D01*
G01X10386Y38197D01*
G01X10347Y38190D01*
G01X10309Y38184D01*
G01X10271Y38184D01*
G37*
G36*
G01X10838Y38751D02*
G01X10800Y38756D01*
G01X10761Y38764D01*
G01X10726Y38776D01*
G01X10693Y38794D01*
G01X10660Y38817D01*
G01X10634Y38840D01*
G01X9677Y39797D01*
G01X9654Y39823D01*
G01X9631Y39856D01*
G01X9613Y39889D01*
G01X9601Y39924D01*
G01X9591Y39962D01*
G01X9588Y40001D01*
G01X9588Y40039D01*
G01X9593Y40077D01*
G01X9601Y40112D01*
G01X9613Y40150D01*
G01X9631Y40183D01*
G01X9654Y40216D01*
G01X9679Y40244D01*
G01X9707Y40270D01*
G01X9740Y40290D01*
G01X9773Y40308D01*
G01X9809Y40323D01*
G01X9847Y40331D01*
G01X9885Y40336D01*
G01X9923Y40336D01*
G01X9961Y40331D01*
G01X9999Y40323D01*
G01X10035Y40308D01*
G01X10068Y40290D01*
G01X10101Y40270D01*
G01X11107Y39264D01*
G01X11127Y39231D01*
G01X11145Y39198D01*
G01X11160Y39162D01*
G01X11168Y39124D01*
G01X11173Y39086D01*
G01X11173Y39048D01*
G01X11168Y39010D01*
G01X11160Y38972D01*
G01X11145Y38936D01*
G01X11127Y38903D01*
G01X11107Y38870D01*
G01X11082Y38842D01*
G01X11054Y38817D01*
G01X11021Y38794D01*
G01X10988Y38776D01*
G01X10949Y38764D01*
G01X10914Y38756D01*
G01X10876Y38751D01*
G01X10838Y38751D01*
G37*
G36*
G01X11402Y39315D02*
G01X11363Y39320D01*
G01X11328Y39330D01*
G01X11290Y39343D01*
G01X11257Y39361D01*
G01X11226Y39383D01*
G01X11198Y39406D01*
G01X10243Y40361D01*
G01X10220Y40389D01*
G01X10198Y40420D01*
G01X10180Y40455D01*
G01X10167Y40491D01*
G01X10157Y40526D01*
G01X10152Y40564D01*
G01X10152Y40605D01*
G01X10157Y40641D01*
G01X10167Y40679D01*
G01X10180Y40714D01*
G01X10198Y40750D01*
G01X10220Y40780D01*
G01X10246Y40808D01*
G01X10274Y40834D01*
G01X10307Y40857D01*
G01X10340Y40874D01*
G01X10375Y40887D01*
G01X10414Y40897D01*
G01X10449Y40902D01*
G01X10490Y40902D01*
G01X10528Y40897D01*
G01X10563Y40887D01*
G01X10599Y40874D01*
G01X10634Y40857D01*
G01X10665Y40834D01*
G01X10693Y40811D01*
G01X11648Y39856D01*
G01X11671Y39828D01*
G01X11694Y39797D01*
G01X11711Y39762D01*
G01X11724Y39726D01*
G01X11734Y39691D01*
G01X11739Y39653D01*
G01X11739Y39612D01*
G01X11734Y39576D01*
G01X11724Y39538D01*
G01X11711Y39503D01*
G01X11694Y39470D01*
G01X11671Y39437D01*
G01X11645Y39409D01*
G01X11617Y39383D01*
G01X11587Y39361D01*
G01X11551Y39343D01*
G01X11516Y39330D01*
G01X11478Y39320D01*
G01X11440Y39315D01*
G01X11402Y39315D01*
G37*
G36*
G01X11968Y39881D02*
G01X11930Y39886D01*
G01X11892Y39894D01*
G01X11856Y39909D01*
G01X11823Y39927D01*
G01X11790Y39947D01*
G01X11765Y39970D01*
G01X10810Y40928D01*
G01X10784Y40953D01*
G01X10764Y40986D01*
G01X10746Y41019D01*
G01X10731Y41055D01*
G01X10723Y41093D01*
G01X10718Y41131D01*
G01X10718Y41169D01*
G01X10723Y41207D01*
G01X10731Y41245D01*
G01X10746Y41281D01*
G01X10764Y41314D01*
G01X10784Y41347D01*
G01X10810Y41375D01*
G01X10838Y41400D01*
G01X10871Y41423D01*
G01X10904Y41441D01*
G01X10942Y41453D01*
G01X10977Y41461D01*
G01X11015Y41466D01*
G01X11054Y41466D01*
G01X11092Y41461D01*
G01X11130Y41453D01*
G01X11165Y41441D01*
G01X11198Y41423D01*
G01X11231Y41400D01*
G01X11257Y41377D01*
G01X12214Y40420D01*
G01X12237Y40394D01*
G01X12260Y40361D01*
G01X12278Y40328D01*
G01X12291Y40293D01*
G01X12298Y40255D01*
G01X12303Y40216D01*
G01X12303Y40178D01*
G01X12298Y40140D01*
G01X12291Y40105D01*
G01X12278Y40067D01*
G01X12260Y40034D01*
G01X12237Y40003D01*
G01X12212Y39973D01*
G01X12184Y39947D01*
G01X12151Y39927D01*
G01X12118Y39909D01*
G01X12082Y39894D01*
G01X12044Y39886D01*
G01X12006Y39881D01*
G01X11968Y39881D01*
G37*
G36*
G01X13098Y41012D02*
G01X13060Y41017D01*
G01X13025Y41027D01*
G01X12987Y41039D01*
G01X12954Y41057D01*
G01X12923Y41080D01*
G01X12895Y41103D01*
G01X11940Y42058D01*
G01X11917Y42086D01*
G01X11894Y42116D01*
G01X11877Y42149D01*
G01X11864Y42188D01*
G01X11854Y42223D01*
G01X11849Y42261D01*
G01X11849Y42299D01*
G01X11854Y42337D01*
G01X11864Y42375D01*
G01X11877Y42411D01*
G01X11894Y42444D01*
G01X11915Y42477D01*
G01X11943Y42505D01*
G01X11971Y42530D01*
G01X12001Y42553D01*
G01X12037Y42571D01*
G01X12072Y42584D01*
G01X12108Y42594D01*
G01X12148Y42599D01*
G01X12184Y42599D01*
G01X12225Y42594D01*
G01X12260Y42584D01*
G01X12296Y42571D01*
G01X12331Y42553D01*
G01X12362Y42530D01*
G01X12390Y42508D01*
G01X13345Y41553D01*
G01X13368Y41525D01*
G01X13390Y41494D01*
G01X13408Y41459D01*
G01X13421Y41423D01*
G01X13431Y41387D01*
G01X13436Y41347D01*
G01X13436Y41311D01*
G01X13431Y41271D01*
G01X13421Y41235D01*
G01X13408Y41199D01*
G01X13390Y41164D01*
G01X13368Y41133D01*
G01X13342Y41105D01*
G01X13314Y41080D01*
G01X13284Y41057D01*
G01X13248Y41039D01*
G01X13213Y41027D01*
G01X13174Y41017D01*
G01X13136Y41012D01*
G01X13098Y41012D01*
G37*
G36*
G01X12534Y40445D02*
G01X12496Y40450D01*
G01X12458Y40460D01*
G01X12423Y40473D01*
G01X12387Y40491D01*
G01X12357Y40514D01*
G01X12331Y40537D01*
G01X11374Y41492D01*
G01X11351Y41520D01*
G01X11328Y41550D01*
G01X11310Y41586D01*
G01X11297Y41621D01*
G01X11287Y41659D01*
G01X11285Y41697D01*
G01X11285Y41735D01*
G01X11287Y41774D01*
G01X11297Y41809D01*
G01X11310Y41845D01*
G01X11328Y41880D01*
G01X11351Y41911D01*
G01X11376Y41941D01*
G01X11404Y41964D01*
G01X11437Y41987D01*
G01X11470Y42005D01*
G01X11506Y42020D01*
G01X11544Y42028D01*
G01X11582Y42033D01*
G01X11620Y42033D01*
G01X11658Y42028D01*
G01X11696Y42020D01*
G01X11732Y42005D01*
G01X11765Y41987D01*
G01X11798Y41967D01*
G01X12804Y40961D01*
G01X12824Y40928D01*
G01X12842Y40895D01*
G01X12857Y40859D01*
G01X12865Y40821D01*
G01X12870Y40783D01*
G01X12870Y40745D01*
G01X12865Y40707D01*
G01X12857Y40669D01*
G01X12842Y40633D01*
G01X12824Y40600D01*
G01X12804Y40567D01*
G01X12778Y40539D01*
G01X12748Y40514D01*
G01X12717Y40491D01*
G01X12682Y40473D01*
G01X12646Y40460D01*
G01X12611Y40450D01*
G01X12573Y40445D01*
G01X12534Y40445D01*
G37*
G36*
G01X13665Y41578D02*
G01X13627Y41583D01*
G01X13589Y41591D01*
G01X13553Y41606D01*
G01X13520Y41624D01*
G01X13487Y41644D01*
G01X13462Y41667D01*
G01X12504Y42624D01*
G01X12481Y42650D01*
G01X12461Y42683D01*
G01X12443Y42716D01*
G01X12428Y42751D01*
G01X12420Y42790D01*
G01X12415Y42828D01*
G01X12415Y42866D01*
G01X12420Y42904D01*
G01X12428Y42942D01*
G01X12443Y42977D01*
G01X12461Y43010D01*
G01X12481Y43041D01*
G01X12506Y43071D01*
G01X12537Y43097D01*
G01X12567Y43117D01*
G01X12600Y43135D01*
G01X12636Y43150D01*
G01X12674Y43158D01*
G01X12712Y43163D01*
G01X12750Y43163D01*
G01X12788Y43158D01*
G01X12827Y43150D01*
G01X12862Y43135D01*
G01X12895Y43117D01*
G01X12928Y43097D01*
G01X12954Y43074D01*
G01X13911Y42116D01*
G01X13934Y42091D01*
G01X13954Y42058D01*
G01X13972Y42025D01*
G01X13987Y41989D01*
G01X13995Y41951D01*
G01X14000Y41913D01*
G01X14000Y41875D01*
G01X13995Y41837D01*
G01X13987Y41799D01*
G01X13972Y41763D01*
G01X13954Y41730D01*
G01X13934Y41700D01*
G01X13909Y41669D01*
G01X13878Y41644D01*
G01X13848Y41624D01*
G01X13815Y41606D01*
G01X13779Y41591D01*
G01X13741Y41583D01*
G01X13703Y41578D01*
G01X13665Y41578D01*
G37*
G36*
G01X15925Y32530D02*
G01X15887Y32536D01*
G01X15852Y32543D01*
G01X15814Y32558D01*
G01X15781Y32576D01*
G01X15750Y32596D01*
G01X15722Y32619D01*
G01X14767Y33577D01*
G01X14744Y33602D01*
G01X14721Y33635D01*
G01X14704Y33668D01*
G01X14691Y33704D01*
G01X14681Y33742D01*
G01X14676Y33780D01*
G01X14676Y33818D01*
G01X14681Y33856D01*
G01X14691Y33894D01*
G01X14704Y33930D01*
G01X14721Y33963D01*
G01X14744Y33996D01*
G01X14770Y34024D01*
G01X14798Y34049D01*
G01X14828Y34072D01*
G01X14864Y34090D01*
G01X14899Y34103D01*
G01X14935Y34113D01*
G01X14975Y34115D01*
G01X15013Y34115D01*
G01X15052Y34113D01*
G01X15087Y34103D01*
G01X15123Y34090D01*
G01X15158Y34072D01*
G01X15189Y34049D01*
G01X15217Y34027D01*
G01X16172Y33069D01*
G01X16195Y33044D01*
G01X16217Y33011D01*
G01X16235Y32977D01*
G01X16248Y32942D01*
G01X16258Y32904D01*
G01X16263Y32866D01*
G01X16263Y32828D01*
G01X16258Y32790D01*
G01X16248Y32751D01*
G01X16235Y32716D01*
G01X16217Y32683D01*
G01X16195Y32650D01*
G01X16169Y32622D01*
G01X16141Y32596D01*
G01X16111Y32576D01*
G01X16075Y32558D01*
G01X16040Y32543D01*
G01X16002Y32536D01*
G01X15966Y32530D01*
G01X15925Y32530D01*
G37*
G36*
G01X16492Y33094D02*
G01X16454Y33099D01*
G01X16416Y33110D01*
G01X16380Y33122D01*
G01X16347Y33140D01*
G01X16314Y33163D01*
G01X16289Y33186D01*
G01X15331Y34141D01*
G01X15308Y34169D01*
G01X15288Y34199D01*
G01X15270Y34235D01*
G01X15255Y34270D01*
G01X15247Y34306D01*
G01X15242Y34344D01*
G01X15242Y34385D01*
G01X15247Y34423D01*
G01X15255Y34458D01*
G01X15270Y34494D01*
G01X15288Y34529D01*
G01X15308Y34560D01*
G01X15333Y34588D01*
G01X15361Y34616D01*
G01X15394Y34636D01*
G01X15427Y34654D01*
G01X15463Y34667D01*
G01X15501Y34677D01*
G01X15539Y34682D01*
G01X15577Y34682D01*
G01X15615Y34677D01*
G01X15654Y34667D01*
G01X15689Y34654D01*
G01X15722Y34636D01*
G01X15755Y34616D01*
G01X15781Y34590D01*
G01X16738Y33635D01*
G01X16761Y33610D01*
G01X16781Y33577D01*
G01X16799Y33544D01*
G01X16814Y33508D01*
G01X16822Y33470D01*
G01X16827Y33432D01*
G01X16827Y33394D01*
G01X16822Y33356D01*
G01X16814Y33318D01*
G01X16799Y33282D01*
G01X16781Y33249D01*
G01X16761Y33216D01*
G01X16736Y33188D01*
G01X16708Y33163D01*
G01X16675Y33140D01*
G01X16642Y33122D01*
G01X16606Y33110D01*
G01X16568Y33099D01*
G01X16530Y33094D01*
G01X16492Y33094D01*
G37*
G36*
G01X15369Y31969D02*
G01X15333Y31974D01*
G01X15295Y31982D01*
G01X15260Y31997D01*
G01X15224Y32015D01*
G01X15194Y32035D01*
G01X15168Y32058D01*
G01X14211Y33016D01*
G01X14188Y33041D01*
G01X14165Y33074D01*
G01X14147Y33107D01*
G01X14135Y33143D01*
G01X14124Y33181D01*
G01X14122Y33219D01*
G01X14122Y33257D01*
G01X14124Y33295D01*
G01X14135Y33331D01*
G01X14147Y33369D01*
G01X14165Y33402D01*
G01X14188Y33435D01*
G01X14213Y33463D01*
G01X14241Y33488D01*
G01X14274Y33508D01*
G01X14307Y33526D01*
G01X14343Y33541D01*
G01X14381Y33549D01*
G01X14419Y33554D01*
G01X14457Y33554D01*
G01X14495Y33549D01*
G01X14533Y33541D01*
G01X14569Y33526D01*
G01X14602Y33508D01*
G01X14632Y33488D01*
G01X14660Y33465D01*
G01X15615Y32508D01*
G01X15638Y32482D01*
G01X15661Y32449D01*
G01X15679Y32416D01*
G01X15694Y32381D01*
G01X15702Y32342D01*
G01X15707Y32304D01*
G01X15707Y32266D01*
G01X15702Y32228D01*
G01X15694Y32190D01*
G01X15679Y32155D01*
G01X15661Y32122D01*
G01X15638Y32088D01*
G01X15615Y32061D01*
G01X15585Y32035D01*
G01X15554Y32015D01*
G01X15519Y31997D01*
G01X15483Y31982D01*
G01X15448Y31974D01*
G01X15410Y31969D01*
G01X15369Y31969D01*
G37*
G36*
G01X11005Y33656D02*
G01X10967Y33661D01*
G01X10932Y33671D01*
G01X10896Y33684D01*
G01X10861Y33701D01*
G01X10830Y33724D01*
G01X10800Y33750D01*
G01X10777Y33778D01*
G01X10754Y33808D01*
G01X10736Y33844D01*
G01X10721Y33879D01*
G01X10713Y33917D01*
G01X10708Y33955D01*
G01X10708Y33993D01*
G01X10713Y34032D01*
G01X10721Y34067D01*
G01X10736Y34105D01*
G01X10754Y34138D01*
G01X10774Y34169D01*
G01X10800Y34197D01*
G01X11755Y35152D01*
G01X11780Y35175D01*
G01X11813Y35197D01*
G01X11846Y35215D01*
G01X11882Y35228D01*
G01X11920Y35238D01*
G01X11958Y35243D01*
G01X11996Y35243D01*
G01X12034Y35238D01*
G01X12072Y35228D01*
G01X12108Y35215D01*
G01X12141Y35197D01*
G01X12174Y35175D01*
G01X12202Y35152D01*
G01X12227Y35121D01*
G01X12250Y35091D01*
G01X12268Y35055D01*
G01X12280Y35020D01*
G01X12291Y34984D01*
G01X12296Y34946D01*
G01X12296Y34905D01*
G01X12291Y34867D01*
G01X12280Y34832D01*
G01X12268Y34796D01*
G01X12250Y34761D01*
G01X12227Y34730D01*
G01X12204Y34702D01*
G01X11247Y33747D01*
G01X11221Y33724D01*
G01X11188Y33701D01*
G01X11155Y33684D01*
G01X11120Y33671D01*
G01X11082Y33661D01*
G01X11046Y33656D01*
G01X11005Y33656D01*
G37*
G36*
G01X9319Y35345D02*
G01X9281Y35350D01*
G01X9243Y35360D01*
G01X9207Y35373D01*
G01X9171Y35390D01*
G01X9141Y35411D01*
G01X9113Y35436D01*
G01X9088Y35467D01*
G01X9065Y35497D01*
G01X9047Y35533D01*
G01X9034Y35568D01*
G01X9024Y35604D01*
G01X9019Y35642D01*
G01X9019Y35683D01*
G01X9024Y35721D01*
G01X9034Y35756D01*
G01X9047Y35792D01*
G01X9065Y35827D01*
G01X9088Y35858D01*
G01X9110Y35883D01*
G01X10066Y36841D01*
G01X10093Y36864D01*
G01X10124Y36887D01*
G01X10160Y36904D01*
G01X10195Y36917D01*
G01X10231Y36927D01*
G01X10269Y36932D01*
G01X10309Y36932D01*
G01X10347Y36927D01*
G01X10383Y36917D01*
G01X10419Y36904D01*
G01X10454Y36887D01*
G01X10485Y36864D01*
G01X10513Y36838D01*
G01X10538Y36810D01*
G01X10561Y36777D01*
G01X10579Y36744D01*
G01X10591Y36709D01*
G01X10601Y36671D01*
G01X10607Y36633D01*
G01X10607Y36594D01*
G01X10601Y36556D01*
G01X10591Y36518D01*
G01X10579Y36483D01*
G01X10561Y36450D01*
G01X10538Y36419D01*
G01X10515Y36391D01*
G01X9560Y35436D01*
G01X9532Y35411D01*
G01X9502Y35390D01*
G01X9469Y35373D01*
G01X9431Y35360D01*
G01X9395Y35350D01*
G01X9357Y35345D01*
G01X9319Y35345D01*
G37*
G36*
G01X10449Y34214D02*
G01X10411Y34220D01*
G01X10373Y34227D01*
G01X10337Y34240D01*
G01X10304Y34258D01*
G01X10271Y34281D01*
G01X10243Y34306D01*
G01X10218Y34334D01*
G01X10198Y34367D01*
G01X10180Y34400D01*
G01X10165Y34435D01*
G01X10157Y34474D01*
G01X10152Y34512D01*
G01X10152Y34550D01*
G01X10157Y34588D01*
G01X10165Y34626D01*
G01X10180Y34662D01*
G01X10198Y34695D01*
G01X10218Y34728D01*
G01X11224Y35733D01*
G01X11257Y35754D01*
G01X11290Y35771D01*
G01X11325Y35787D01*
G01X11363Y35794D01*
G01X11402Y35799D01*
G01X11440Y35799D01*
G01X11478Y35794D01*
G01X11516Y35787D01*
G01X11551Y35771D01*
G01X11584Y35754D01*
G01X11617Y35733D01*
G01X11645Y35708D01*
G01X11671Y35680D01*
G01X11694Y35647D01*
G01X11709Y35614D01*
G01X11724Y35576D01*
G01X11732Y35540D01*
G01X11737Y35502D01*
G01X11737Y35464D01*
G01X11732Y35426D01*
G01X11724Y35388D01*
G01X11709Y35352D01*
G01X11691Y35319D01*
G01X11671Y35286D01*
G01X11648Y35261D01*
G01X10690Y34303D01*
G01X10665Y34281D01*
G01X10632Y34258D01*
G01X10599Y34240D01*
G01X10563Y34227D01*
G01X10525Y34220D01*
G01X10487Y34214D01*
G01X10449Y34214D01*
G37*
G36*
G01X12702Y31946D02*
G01X12666Y31951D01*
G01X12628Y31961D01*
G01X12593Y31974D01*
G01X12557Y31992D01*
G01X12527Y32015D01*
G01X12499Y32040D01*
G01X12473Y32068D01*
G01X12451Y32101D01*
G01X12433Y32134D01*
G01X12420Y32170D01*
G01X12410Y32208D01*
G01X12405Y32246D01*
G01X12405Y32284D01*
G01X12410Y32322D01*
G01X12420Y32360D01*
G01X12433Y32396D01*
G01X12451Y32429D01*
G01X12473Y32462D01*
G01X12496Y32487D01*
G01X13451Y33442D01*
G01X13479Y33468D01*
G01X13510Y33488D01*
G01X13545Y33506D01*
G01X13581Y33521D01*
G01X13616Y33529D01*
G01X13655Y33534D01*
G01X13695Y33534D01*
G01X13731Y33529D01*
G01X13769Y33521D01*
G01X13804Y33506D01*
G01X13837Y33488D01*
G01X13870Y33468D01*
G01X13898Y33442D01*
G01X13924Y33412D01*
G01X13947Y33381D01*
G01X13964Y33346D01*
G01X13977Y33310D01*
G01X13987Y33275D01*
G01X13992Y33237D01*
G01X13992Y33196D01*
G01X13987Y33160D01*
G01X13977Y33122D01*
G01X13964Y33087D01*
G01X13947Y33054D01*
G01X13924Y33021D01*
G01X13901Y32993D01*
G01X12946Y32038D01*
G01X12918Y32015D01*
G01X12887Y31992D01*
G01X12854Y31974D01*
G01X12816Y31961D01*
G01X12781Y31951D01*
G01X12743Y31946D01*
G01X12702Y31946D01*
G37*
G36*
G01X17622Y34227D02*
G01X17584Y34232D01*
G01X17546Y34240D01*
G01X17510Y34255D01*
G01X17477Y34273D01*
G01X17444Y34293D01*
G01X17419Y34316D01*
G01X16464Y35274D01*
G01X16438Y35299D01*
G01X16418Y35332D01*
G01X16400Y35365D01*
G01X16388Y35401D01*
G01X16377Y35439D01*
G01X16372Y35477D01*
G01X16372Y35515D01*
G01X16377Y35553D01*
G01X16388Y35591D01*
G01X16400Y35627D01*
G01X16418Y35660D01*
G01X16438Y35693D01*
G01X16466Y35721D01*
G01X16494Y35746D01*
G01X16525Y35766D01*
G01X16560Y35784D01*
G01X16596Y35799D01*
G01X16631Y35807D01*
G01X16670Y35812D01*
G01X16710Y35812D01*
G01X16748Y35807D01*
G01X16784Y35799D01*
G01X16819Y35784D01*
G01X16855Y35766D01*
G01X16885Y35746D01*
G01X16911Y35721D01*
G01X17868Y34766D01*
G01X17891Y34740D01*
G01X17914Y34707D01*
G01X17932Y34674D01*
G01X17945Y34639D01*
G01X17955Y34601D01*
G01X17960Y34562D01*
G01X17960Y34524D01*
G01X17955Y34486D01*
G01X17945Y34448D01*
G01X17932Y34413D01*
G01X17914Y34380D01*
G01X17891Y34347D01*
G01X17866Y34319D01*
G01X17838Y34293D01*
G01X17805Y34273D01*
G01X17772Y34255D01*
G01X17736Y34240D01*
G01X17698Y34232D01*
G01X17660Y34227D01*
G01X17622Y34227D01*
G37*
G36*
G01X18188Y34791D02*
G01X18150Y34796D01*
G01X18112Y34806D01*
G01X18077Y34819D01*
G01X18044Y34837D01*
G01X18011Y34860D01*
G01X17985Y34882D01*
G01X17028Y35838D01*
G01X17005Y35865D01*
G01X16984Y35896D01*
G01X16964Y35929D01*
G01X16951Y35967D01*
G01X16941Y36003D01*
G01X16939Y36041D01*
G01X16939Y36079D01*
G01X16941Y36119D01*
G01X16951Y36155D01*
G01X16964Y36191D01*
G01X16984Y36226D01*
G01X17005Y36257D01*
G01X17030Y36285D01*
G01X17058Y36310D01*
G01X17091Y36333D01*
G01X17124Y36351D01*
G01X17160Y36363D01*
G01X17198Y36373D01*
G01X17236Y36379D01*
G01X17274Y36379D01*
G01X17312Y36373D01*
G01X17350Y36363D01*
G01X17386Y36351D01*
G01X17419Y36333D01*
G01X17452Y36310D01*
G01X17477Y36287D01*
G01X18435Y35332D01*
G01X18458Y35304D01*
G01X18478Y35274D01*
G01X18496Y35241D01*
G01X18511Y35203D01*
G01X18519Y35167D01*
G01X18524Y35129D01*
G01X18524Y35088D01*
G01X18519Y35053D01*
G01X18511Y35015D01*
G01X18496Y34979D01*
G01X18478Y34946D01*
G01X18458Y34913D01*
G01X18432Y34885D01*
G01X18404Y34860D01*
G01X18371Y34837D01*
G01X18338Y34819D01*
G01X18303Y34806D01*
G01X18265Y34796D01*
G01X18227Y34791D01*
G01X18188Y34791D01*
G37*
G36*
G01X18755Y35357D02*
G01X18717Y35363D01*
G01X18679Y35373D01*
G01X18643Y35385D01*
G01X18608Y35403D01*
G01X18577Y35426D01*
G01X18552Y35449D01*
G01X17594Y36404D01*
G01X17571Y36432D01*
G01X17548Y36462D01*
G01X17531Y36495D01*
G01X17518Y36533D01*
G01X17508Y36569D01*
G01X17505Y36607D01*
G01X17505Y36645D01*
G01X17508Y36683D01*
G01X17518Y36721D01*
G01X17531Y36757D01*
G01X17548Y36793D01*
G01X17571Y36823D01*
G01X17597Y36851D01*
G01X17625Y36876D01*
G01X17658Y36899D01*
G01X17691Y36917D01*
G01X17726Y36930D01*
G01X17764Y36940D01*
G01X17802Y36945D01*
G01X17840Y36945D01*
G01X17879Y36940D01*
G01X17917Y36930D01*
G01X17952Y36917D01*
G01X17985Y36899D01*
G01X18016Y36876D01*
G01X18044Y36854D01*
G01X18999Y35898D01*
G01X19024Y35871D01*
G01X19044Y35840D01*
G01X19062Y35805D01*
G01X19077Y35769D01*
G01X19085Y35733D01*
G01X19090Y35695D01*
G01X19090Y35657D01*
G01X19085Y35617D01*
G01X19077Y35581D01*
G01X19062Y35545D01*
G01X19044Y35510D01*
G01X19024Y35479D01*
G01X18999Y35451D01*
G01X18968Y35426D01*
G01X18938Y35403D01*
G01X18905Y35385D01*
G01X18867Y35373D01*
G01X18831Y35363D01*
G01X18793Y35357D01*
G01X18755Y35357D01*
G37*
G36*
G01X17056Y33661D02*
G01X17020Y33666D01*
G01X16982Y33676D01*
G01X16946Y33689D01*
G01X16911Y33706D01*
G01X16880Y33729D01*
G01X16855Y33752D01*
G01X15897Y34707D01*
G01X15875Y34735D01*
G01X15852Y34766D01*
G01X15834Y34799D01*
G01X15821Y34834D01*
G01X15811Y34872D01*
G01X15808Y34910D01*
G01X15808Y34949D01*
G01X15811Y34987D01*
G01X15821Y35025D01*
G01X15834Y35060D01*
G01X15852Y35093D01*
G01X15875Y35126D01*
G01X15900Y35154D01*
G01X15928Y35180D01*
G01X15961Y35203D01*
G01X15994Y35220D01*
G01X16029Y35233D01*
G01X16068Y35243D01*
G01X16106Y35248D01*
G01X16144Y35248D01*
G01X16182Y35243D01*
G01X16220Y35233D01*
G01X16256Y35220D01*
G01X16289Y35203D01*
G01X16322Y35180D01*
G01X16347Y35157D01*
G01X17302Y34202D01*
G01X17327Y34174D01*
G01X17348Y34143D01*
G01X17365Y34108D01*
G01X17381Y34072D01*
G01X17388Y34037D01*
G01X17393Y33999D01*
G01X17393Y33958D01*
G01X17388Y33920D01*
G01X17381Y33884D01*
G01X17365Y33849D01*
G01X17348Y33813D01*
G01X17325Y33783D01*
G01X17299Y33752D01*
G01X17272Y33729D01*
G01X17241Y33706D01*
G01X17205Y33689D01*
G01X17170Y33676D01*
G01X17134Y33666D01*
G01X17096Y33661D01*
G01X17056Y33661D01*
G37*
G36*
G01X19319Y35924D02*
G01X19281Y35926D01*
G01X19243Y35937D01*
G01X19207Y35949D01*
G01X19174Y35967D01*
G01X19141Y35990D01*
G01X19116Y36013D01*
G01X18161Y36970D01*
G01X18135Y36996D01*
G01X18115Y37026D01*
G01X18097Y37062D01*
G01X18082Y37097D01*
G01X18074Y37135D01*
G01X18069Y37174D01*
G01X18069Y37212D01*
G01X18074Y37250D01*
G01X18082Y37285D01*
G01X18097Y37323D01*
G01X18115Y37356D01*
G01X18135Y37387D01*
G01X18161Y37417D01*
G01X18191Y37443D01*
G01X18221Y37463D01*
G01X18254Y37481D01*
G01X18293Y37496D01*
G01X18328Y37504D01*
G01X18366Y37509D01*
G01X18404Y37509D01*
G01X18442Y37504D01*
G01X18481Y37496D01*
G01X18516Y37481D01*
G01X18552Y37463D01*
G01X18582Y37443D01*
G01X18608Y37417D01*
G01X19565Y36462D01*
G01X19588Y36434D01*
G01X19611Y36404D01*
G01X19629Y36371D01*
G01X19641Y36335D01*
G01X19651Y36297D01*
G01X19654Y36259D01*
G01X19654Y36221D01*
G01X19651Y36183D01*
G01X19641Y36145D01*
G01X19629Y36109D01*
G01X19611Y36076D01*
G01X19588Y36043D01*
G01X19563Y36015D01*
G01X19535Y35990D01*
G01X19502Y35967D01*
G01X19469Y35949D01*
G01X19433Y35937D01*
G01X19395Y35926D01*
G01X19357Y35924D01*
G01X19319Y35924D01*
G37*
G36*
G01X18371Y37608D02*
G01X18333Y37613D01*
G01X18295Y37621D01*
G01X18260Y37636D01*
G01X18224Y37654D01*
G01X18194Y37674D01*
G01X18166Y37699D01*
G01X18140Y37730D01*
G01X18117Y37760D01*
G01X18100Y37793D01*
G01X18087Y37831D01*
G01X18077Y37867D01*
G01X18072Y37905D01*
G01X18072Y37946D01*
G01X18077Y37981D01*
G01X18087Y38019D01*
G01X18100Y38055D01*
G01X18117Y38091D01*
G01X18140Y38121D01*
G01X18163Y38146D01*
G01X19118Y39104D01*
G01X19146Y39127D01*
G01X19177Y39150D01*
G01X19210Y39167D01*
G01X19248Y39180D01*
G01X19283Y39190D01*
G01X19321Y39193D01*
G01X19359Y39193D01*
G01X19397Y39190D01*
G01X19436Y39180D01*
G01X19471Y39167D01*
G01X19504Y39150D01*
G01X19537Y39127D01*
G01X19565Y39101D01*
G01X19591Y39073D01*
G01X19613Y39040D01*
G01X19631Y39007D01*
G01X19644Y38972D01*
G01X19654Y38934D01*
G01X19659Y38896D01*
G01X19659Y38858D01*
G01X19654Y38819D01*
G01X19644Y38781D01*
G01X19631Y38746D01*
G01X19613Y38713D01*
G01X19591Y38680D01*
G01X19568Y38654D01*
G01X18613Y37699D01*
G01X18585Y37674D01*
G01X18554Y37654D01*
G01X18519Y37636D01*
G01X18483Y37621D01*
G01X18445Y37613D01*
G01X18407Y37608D01*
G01X18371Y37608D01*
G37*
G36*
G01X17795Y38182D02*
G01X17757Y38187D01*
G01X17719Y38197D01*
G01X17683Y38210D01*
G01X17650Y38228D01*
G01X17617Y38251D01*
G01X17589Y38276D01*
G01X17564Y38304D01*
G01X17543Y38334D01*
G01X17526Y38370D01*
G01X17510Y38405D01*
G01X17503Y38444D01*
G01X17498Y38482D01*
G01X17498Y38520D01*
G01X17503Y38558D01*
G01X17510Y38593D01*
G01X17526Y38632D01*
G01X17543Y38665D01*
G01X17564Y38695D01*
G01X17586Y38723D01*
G01X18544Y39678D01*
G01X18569Y39701D01*
G01X18602Y39724D01*
G01X18635Y39742D01*
G01X18671Y39754D01*
G01X18709Y39764D01*
G01X18747Y39769D01*
G01X18785Y39769D01*
G01X18823Y39764D01*
G01X18862Y39754D01*
G01X18897Y39742D01*
G01X18930Y39724D01*
G01X18963Y39701D01*
G01X18991Y39675D01*
G01X19016Y39648D01*
G01X19039Y39617D01*
G01X19057Y39581D01*
G01X19070Y39546D01*
G01X19080Y39510D01*
G01X19083Y39470D01*
G01X19083Y39432D01*
G01X19080Y39394D01*
G01X19070Y39358D01*
G01X19057Y39322D01*
G01X19039Y39287D01*
G01X19016Y39256D01*
G01X18994Y39228D01*
G01X18036Y38273D01*
G01X18011Y38251D01*
G01X17978Y38228D01*
G01X17945Y38210D01*
G01X17909Y38197D01*
G01X17871Y38187D01*
G01X17833Y38182D01*
G01X17795Y38182D01*
G37*
G36*
G01X17221Y38759D02*
G01X17183Y38761D01*
G01X17145Y38771D01*
G01X17109Y38784D01*
G01X17076Y38802D01*
G01X17043Y38825D01*
G01X17015Y38850D01*
G01X16990Y38878D01*
G01X16967Y38911D01*
G01X16949Y38944D01*
G01X16936Y38980D01*
G01X16926Y39018D01*
G01X16924Y39056D01*
G01X16924Y39094D01*
G01X16926Y39132D01*
G01X16936Y39170D01*
G01X16949Y39206D01*
G01X16967Y39239D01*
G01X16990Y39272D01*
G01X17012Y39297D01*
G01X17970Y40252D01*
G01X17995Y40277D01*
G01X18026Y40298D01*
G01X18061Y40316D01*
G01X18097Y40331D01*
G01X18135Y40338D01*
G01X18173Y40343D01*
G01X18211Y40343D01*
G01X18249Y40338D01*
G01X18285Y40331D01*
G01X18323Y40316D01*
G01X18356Y40298D01*
G01X18387Y40277D01*
G01X18417Y40252D01*
G01X18442Y40222D01*
G01X18463Y40191D01*
G01X18481Y40158D01*
G01X18496Y40120D01*
G01X18503Y40084D01*
G01X18508Y40046D01*
G01X18508Y40008D01*
G01X18503Y39970D01*
G01X18496Y39932D01*
G01X18481Y39896D01*
G01X18463Y39861D01*
G01X18442Y39830D01*
G01X18417Y39805D01*
G01X17462Y38847D01*
G01X17437Y38825D01*
G01X17404Y38802D01*
G01X17371Y38784D01*
G01X17335Y38771D01*
G01X17297Y38761D01*
G01X17259Y38759D01*
G01X17221Y38759D01*
G37*
G36*
G01X16664Y39315D02*
G01X16626Y39320D01*
G01X16588Y39327D01*
G01X16553Y39343D01*
G01X16520Y39361D01*
G01X16487Y39381D01*
G01X16459Y39406D01*
G01X16433Y39437D01*
G01X16410Y39467D01*
G01X16393Y39500D01*
G01X16380Y39536D01*
G01X16370Y39574D01*
G01X16365Y39612D01*
G01X16365Y39650D01*
G01X16370Y39688D01*
G01X16380Y39726D01*
G01X16393Y39762D01*
G01X16410Y39795D01*
G01X16433Y39828D01*
G01X16456Y39853D01*
G01X17411Y40811D01*
G01X17439Y40834D01*
G01X17470Y40854D01*
G01X17505Y40872D01*
G01X17541Y40887D01*
G01X17576Y40895D01*
G01X17614Y40900D01*
G01X17655Y40900D01*
G01X17693Y40895D01*
G01X17729Y40887D01*
G01X17764Y40872D01*
G01X17800Y40854D01*
G01X17830Y40834D01*
G01X17858Y40808D01*
G01X17884Y40778D01*
G01X17907Y40747D01*
G01X17924Y40714D01*
G01X17937Y40679D01*
G01X17947Y40641D01*
G01X17952Y40603D01*
G01X17952Y40564D01*
G01X17947Y40526D01*
G01X17937Y40488D01*
G01X17924Y40453D01*
G01X17907Y40420D01*
G01X17884Y40387D01*
G01X17861Y40361D01*
G01X16906Y39404D01*
G01X16878Y39381D01*
G01X16847Y39361D01*
G01X16814Y39343D01*
G01X16776Y39327D01*
G01X16741Y39320D01*
G01X16703Y39315D01*
G01X16664Y39315D01*
G37*
G36*
G01X15532Y40445D02*
G01X15494Y40450D01*
G01X15458Y40460D01*
G01X15420Y40473D01*
G01X15387Y40491D01*
G01X15356Y40514D01*
G01X15326Y40539D01*
G01X15300Y40567D01*
G01X15280Y40597D01*
G01X15262Y40633D01*
G01X15247Y40669D01*
G01X15240Y40707D01*
G01X15234Y40742D01*
G01X15234Y40783D01*
G01X15240Y40821D01*
G01X15247Y40857D01*
G01X15262Y40892D01*
G01X15280Y40928D01*
G01X15300Y40958D01*
G01X15326Y40986D01*
G01X16281Y41941D01*
G01X16306Y41964D01*
G01X16339Y41987D01*
G01X16372Y42005D01*
G01X16408Y42017D01*
G01X16446Y42028D01*
G01X16484Y42033D01*
G01X16522Y42033D01*
G01X16560Y42028D01*
G01X16598Y42017D01*
G01X16634Y42005D01*
G01X16667Y41987D01*
G01X16700Y41964D01*
G01X16728Y41939D01*
G01X16753Y41911D01*
G01X16776Y41880D01*
G01X16794Y41845D01*
G01X16807Y41809D01*
G01X16817Y41771D01*
G01X16819Y41735D01*
G01X16819Y41695D01*
G01X16817Y41657D01*
G01X16807Y41621D01*
G01X16794Y41586D01*
G01X16776Y41550D01*
G01X16753Y41520D01*
G01X16730Y41492D01*
G01X15773Y40537D01*
G01X15748Y40514D01*
G01X15714Y40491D01*
G01X15681Y40473D01*
G01X15646Y40460D01*
G01X15608Y40450D01*
G01X15570Y40445D01*
G01X15532Y40445D01*
G37*
G36*
G01X16108Y39871D02*
G01X16068Y39876D01*
G01X16032Y39884D01*
G01X15996Y39899D01*
G01X15961Y39917D01*
G01X15930Y39937D01*
G01X15902Y39962D01*
G01X15875Y39993D01*
G01X15854Y40023D01*
G01X15836Y40059D01*
G01X15824Y40095D01*
G01X15814Y40130D01*
G01X15808Y40168D01*
G01X15808Y40206D01*
G01X15814Y40244D01*
G01X15824Y40283D01*
G01X15836Y40318D01*
G01X15854Y40351D01*
G01X15875Y40384D01*
G01X15900Y40410D01*
G01X16855Y41367D01*
G01X16883Y41390D01*
G01X16913Y41413D01*
G01X16946Y41431D01*
G01X16984Y41443D01*
G01X17020Y41453D01*
G01X17058Y41456D01*
G01X17096Y41456D01*
G01X17134Y41453D01*
G01X17172Y41443D01*
G01X17208Y41431D01*
G01X17244Y41413D01*
G01X17274Y41390D01*
G01X17302Y41365D01*
G01X17327Y41337D01*
G01X17350Y41304D01*
G01X17368Y41271D01*
G01X17381Y41235D01*
G01X17391Y41197D01*
G01X17396Y41159D01*
G01X17396Y41121D01*
G01X17391Y41083D01*
G01X17381Y41045D01*
G01X17368Y41009D01*
G01X17350Y40976D01*
G01X17327Y40945D01*
G01X17305Y40918D01*
G01X16349Y39962D01*
G01X16322Y39937D01*
G01X16291Y39917D01*
G01X16256Y39899D01*
G01X16220Y39884D01*
G01X16184Y39876D01*
G01X16146Y39871D01*
G01X16108Y39871D01*
G37*
G36*
G01X14401Y41578D02*
G01X14363Y41583D01*
G01X14325Y41591D01*
G01X14290Y41606D01*
G01X14257Y41624D01*
G01X14224Y41644D01*
G01X14196Y41669D01*
G01X14170Y41697D01*
G01X14147Y41730D01*
G01X14130Y41763D01*
G01X14117Y41799D01*
G01X14107Y41837D01*
G01X14102Y41875D01*
G01X14102Y41913D01*
G01X14107Y41951D01*
G01X14117Y41989D01*
G01X14130Y42025D01*
G01X14147Y42058D01*
G01X14170Y42091D01*
G01X14193Y42116D01*
G01X15151Y43074D01*
G01X15176Y43097D01*
G01X15206Y43117D01*
G01X15242Y43135D01*
G01X15278Y43150D01*
G01X15313Y43158D01*
G01X15354Y43163D01*
G01X15392Y43163D01*
G01X15430Y43158D01*
G01X15466Y43150D01*
G01X15501Y43135D01*
G01X15537Y43117D01*
G01X15567Y43097D01*
G01X15598Y43071D01*
G01X15623Y43041D01*
G01X15643Y43010D01*
G01X15661Y42977D01*
G01X15674Y42942D01*
G01X15684Y42904D01*
G01X15689Y42866D01*
G01X15689Y42828D01*
G01X15684Y42790D01*
G01X15674Y42751D01*
G01X15661Y42716D01*
G01X15643Y42683D01*
G01X15623Y42650D01*
G01X15598Y42624D01*
G01X14643Y41667D01*
G01X14615Y41644D01*
G01X14584Y41624D01*
G01X14551Y41606D01*
G01X14516Y41591D01*
G01X14478Y41583D01*
G01X14439Y41578D01*
G01X14401Y41578D01*
G37*
G36*
G01X14975Y41001D02*
G01X14937Y41006D01*
G01X14899Y41017D01*
G01X14864Y41029D01*
G01X14831Y41047D01*
G01X14798Y41070D01*
G01X14770Y41095D01*
G01X14744Y41123D01*
G01X14724Y41156D01*
G01X14706Y41189D01*
G01X14691Y41225D01*
G01X14683Y41263D01*
G01X14678Y41301D01*
G01X14678Y41339D01*
G01X14683Y41377D01*
G01X14691Y41415D01*
G01X14706Y41451D01*
G01X14724Y41484D01*
G01X14744Y41517D01*
G01X14767Y41542D01*
G01X15725Y42497D01*
G01X15750Y42523D01*
G01X15783Y42543D01*
G01X15816Y42561D01*
G01X15852Y42574D01*
G01X15890Y42584D01*
G01X15928Y42589D01*
G01X15966Y42589D01*
G01X16004Y42584D01*
G01X16042Y42574D01*
G01X16078Y42561D01*
G01X16111Y42543D01*
G01X16144Y42523D01*
G01X16172Y42495D01*
G01X16197Y42467D01*
G01X16217Y42436D01*
G01X16235Y42401D01*
G01X16250Y42365D01*
G01X16258Y42330D01*
G01X16263Y42292D01*
G01X16263Y42251D01*
G01X16258Y42215D01*
G01X16250Y42177D01*
G01X16235Y42142D01*
G01X16217Y42106D01*
G01X16197Y42076D01*
G01X16174Y42050D01*
G01X15217Y41093D01*
G01X15191Y41070D01*
G01X15158Y41047D01*
G01X15125Y41029D01*
G01X15090Y41017D01*
G01X15052Y41006D01*
G01X15013Y41001D01*
G01X14975Y41001D01*
G37*
G36*
G01X16410Y24692D02*
G01X16410Y26521D01*
G01X17995Y26521D01*
G01X17995Y24692D01*
G01X16410Y24692D01*
G37*
G36*
G01X19596Y24692D02*
G01X19596Y26521D01*
G01X21181Y26521D01*
G01X21181Y24692D01*
G01X19596Y24692D01*
G37*
G54D86*
G01X34417Y27003D03*
G01X34417Y28400D03*
G01X36195Y27003D03*
G01X36195Y28400D03*
G01X37973Y27003D03*
G01X37973Y28400D03*
G01X39751Y27003D03*
G01X39751Y28400D03*
G01X17653Y45037D03*
G01X17653Y46434D03*
G36*
G01X6106Y50834D02*
G01X6106Y52675D01*
G01X7609Y52675D01*
G01X7609Y50834D01*
G01X6106Y50834D01*
G37*
G36*
G01X6106Y43615D02*
G01X6106Y45215D01*
G01X7609Y45215D01*
G01X7609Y43615D01*
G01X6106Y43615D01*
G37*
G36*
G01X11904Y27666D02*
G01X11904Y29388D01*
G01X14053Y29388D01*
G01X14053Y27666D01*
G01X11904Y27666D01*
G37*
G36*
G01X6774Y27666D02*
G01X6774Y29388D01*
G01X8923Y29388D01*
G01X8923Y27666D01*
G01X6774Y27666D01*
G37*
G36*
G01X14140Y27666D02*
G01X14140Y29388D01*
G01X16289Y29388D01*
G01X16289Y27666D01*
G01X14140Y27666D01*
G37*
G36*
G01X19270Y27666D02*
G01X19270Y29388D01*
G01X21419Y29388D01*
G01X21419Y27666D01*
G01X19270Y27666D01*
G37*
G36*
G01X17475Y54380D02*
G01X17475Y55497D01*
G01X18592Y55497D01*
G01X18592Y54380D01*
G01X17475Y54380D01*
G37*
G36*
G01X16078Y54380D02*
G01X16078Y55497D01*
G01X17195Y55497D01*
G01X17195Y54380D01*
G01X16078Y54380D01*
G37*
G36*
G01X17475Y56163D02*
G01X17475Y57280D01*
G01X18592Y57280D01*
G01X18592Y56163D01*
G01X17475Y56163D01*
G37*
G36*
G01X16078Y56163D02*
G01X16078Y57280D01*
G01X17195Y57280D01*
G01X17195Y56163D01*
G01X16078Y56163D01*
G37*
G01X14097Y45037D03*
G01X14097Y46434D03*
G54D90*
G01X55835Y28151D03*
G01X55975Y15923D03*
G36*
G01X4099Y30806D02*
G01X4099Y32317D01*
G01X5552Y32317D01*
G01X5552Y30806D01*
G01X4099Y30806D01*
G37*
G36*
G01X4099Y32866D02*
G01X4099Y34377D01*
G01X5552Y34377D01*
G01X5552Y32866D01*
G01X4099Y32866D01*
G37*
G36*
G01X5877Y30806D02*
G01X5877Y32317D01*
G01X7330Y32317D01*
G01X7330Y30806D01*
G01X5877Y30806D01*
G37*
G36*
G01X5877Y32866D02*
G01X5877Y34377D01*
G01X7330Y34377D01*
G01X7330Y32866D01*
G01X5877Y32866D01*
G37*
G54D92*
G01X16390Y17561D03*
G01X17391Y18211D03*
G01X16390Y18861D03*
G01X17391Y19512D03*
G01X16390Y20162D03*
G54D68*
G01X26936Y21618D03*
G01X25133Y20818D03*
G01X25133Y19218D03*
G01X26936Y20018D03*
G01X26936Y18418D03*
G54D93*
G01X26047Y16018D03*
G01X26047Y24018D03*
M00*
M02*
