G04 Layer: TopSilkLayer*
G04 EasyEDA v6.4.7, 2021-02-17T16:00:46+08:00*
G04 6587b44a977046f298512b0a2d276df7,119f753a6ce64b8d841f2ad33262ab0c,10*
G04 Gerber Generator version 0.2*
G04 Scale: 100 percent, Rotated: No, Reflected: No *
G04 Dimensions in millimeters *
G04 leading zeros omitted , absolute positions ,3 integer and 3 decimal *
%FSLAX33Y33*%
%MOMM*%
G90*
D02*

%ADD10C,0.151994*%
%ADD12C,0.299999*%
%ADD13C,0.180010*%
%ADD15C,0.399999*%
%ADD16C,0.254000*%
%ADD18C,0.203200*%
%ADD59C,0.100000*%
%ADD60C,0.200000*%
%ADD61C,0.152400*%
%ADD62C,0.304800*%
%ADD63C,0.060960*%
%ADD64C,0.121920*%

%LPD*%

%LPD*%
G36*
G01X3562Y25923D02*
G01X127Y25923D01*
G01X127Y18177D01*
G01X3562Y18177D01*
G01X3562Y25923D01*
G37*

%LPC*%
G36*
G01X3154Y22910D02*
G01X3055Y22917D01*
G01X3003Y22900D01*
G01X2950Y22885D01*
G01X2902Y22833D01*
G01X2852Y22782D01*
G01X2871Y22646D01*
G01X2931Y22566D01*
G01X2995Y22536D01*
G01X3021Y22524D01*
G01X3044Y22514D01*
G01X3064Y22508D01*
G01X3077Y22506D01*
G01X3089Y22503D01*
G01X3108Y22497D01*
G01X3132Y22487D01*
G01X3157Y22476D01*
G01X3217Y22446D01*
G01X3237Y22395D01*
G01X3177Y22351D01*
G01X3051Y22351D01*
G01X3007Y22385D01*
G01X2964Y22420D01*
G01X2875Y22420D01*
G01X2853Y22330D01*
G01X2978Y22205D01*
G01X3267Y22205D01*
G01X3329Y22264D01*
G01X3390Y22323D01*
G01X3390Y22446D01*
G01X3360Y22503D01*
G01X3329Y22561D01*
G01X3287Y22583D01*
G01X3262Y22595D01*
G01X3226Y22611D01*
G01X3184Y22630D01*
G01X3141Y22647D01*
G01X3038Y22689D01*
G01X3032Y22717D01*
G01X3027Y22744D01*
G01X3088Y22756D01*
G01X3148Y22767D01*
G01X3226Y22729D01*
G01X3303Y22692D01*
G01X3331Y22698D01*
G01X3344Y22702D01*
G01X3357Y22710D01*
G01X3369Y22720D01*
G01X3378Y22731D01*
G01X3396Y22760D01*
G01X3367Y22804D01*
G01X3352Y22824D01*
G01X3334Y22843D01*
G01X3314Y22862D01*
G01X3296Y22876D01*
G01X3254Y22904D01*
G01X3154Y22910D01*
G37*
G36*
G01X2697Y20342D02*
G01X2643Y20376D01*
G01X2540Y20375D01*
G01X2469Y20372D01*
G01X2421Y20365D01*
G01X2381Y20349D01*
G01X2337Y20320D01*
G01X2288Y20286D01*
G01X2272Y20242D01*
G01X2255Y20199D01*
G01X2295Y20075D01*
G01X2377Y20007D01*
G01X2625Y19917D01*
G01X2637Y19839D01*
G01X2614Y19824D01*
G01X2600Y19818D01*
G01X2580Y19814D01*
G01X2555Y19811D01*
G01X2529Y19809D01*
G01X2467Y19809D01*
G01X2423Y19844D01*
G01X2379Y19878D01*
G01X2294Y19878D01*
G01X2284Y19851D01*
G01X2275Y19820D01*
G01X2276Y19793D01*
G01X2288Y19767D01*
G01X2312Y19739D01*
G01X2351Y19697D01*
G01X2412Y19676D01*
G01X2470Y19661D01*
G01X2530Y19656D01*
G01X2591Y19660D01*
G01X2655Y19675D01*
G01X2723Y19695D01*
G01X2765Y19750D01*
G01X2806Y19804D01*
G01X2806Y19899D01*
G01X2769Y19964D01*
G01X2733Y20029D01*
G01X2688Y20050D01*
G01X2662Y20062D01*
G01X2626Y20077D01*
G01X2583Y20093D01*
G01X2540Y20108D01*
G01X2436Y20144D01*
G01X2436Y20212D01*
G01X2519Y20218D01*
G01X2600Y20223D01*
G01X2700Y20153D01*
G01X2770Y20153D01*
G01X2789Y20188D01*
G01X2808Y20224D01*
G01X2780Y20266D01*
G01X2765Y20286D01*
G01X2745Y20306D01*
G01X2721Y20326D01*
G01X2697Y20342D01*
G37*
G36*
G01X2031Y25451D02*
G01X1939Y25458D01*
G01X1901Y25446D01*
G01X1883Y25438D01*
G01X1861Y25426D01*
G01X1839Y25411D01*
G01X1819Y25395D01*
G01X1775Y25356D01*
G01X1690Y25163D01*
G01X1690Y25039D01*
G01X1760Y24853D01*
G01X1870Y24756D01*
G01X1984Y24734D01*
G01X2055Y24744D01*
G01X2128Y24753D01*
G01X2254Y24889D01*
G01X2266Y24953D01*
G01X2278Y25016D01*
G01X2259Y25057D01*
G01X2240Y25099D01*
G01X2001Y25099D01*
G01X1990Y25064D01*
G01X1979Y25030D01*
G01X2001Y24962D01*
G01X2043Y24951D01*
G01X2086Y24940D01*
G01X2079Y24921D01*
G01X2073Y24901D01*
G01X1923Y24901D01*
G01X1890Y24959D01*
G01X1856Y25017D01*
G01X1854Y25088D01*
G01X1853Y25159D01*
G01X1883Y25221D01*
G01X1913Y25284D01*
G01X1956Y25295D01*
G01X1998Y25306D01*
G01X2042Y25295D01*
G01X2084Y25284D01*
G01X2084Y25267D01*
G01X2098Y25242D01*
G01X2128Y25209D01*
G01X2163Y25180D01*
G01X2188Y25167D01*
G01X2197Y25171D01*
G01X2210Y25178D01*
G01X2224Y25188D01*
G01X2238Y25201D01*
G01X2271Y25234D01*
G01X2231Y25340D01*
G01X2177Y25393D01*
G01X2124Y25444D01*
G01X2031Y25451D01*
G37*
G36*
G01X2023Y22910D02*
G01X1921Y22918D01*
G01X1887Y22902D01*
G01X1870Y22893D01*
G01X1851Y22880D01*
G01X1831Y22865D01*
G01X1813Y22849D01*
G01X1773Y22812D01*
G01X1730Y22714D01*
G01X1687Y22617D01*
G01X1695Y22540D01*
G01X1700Y22505D01*
G01X1707Y22465D01*
G01X1718Y22428D01*
G01X1728Y22395D01*
G01X1754Y22328D01*
G01X1810Y22271D01*
G01X1865Y22214D01*
G01X1924Y22203D01*
G01X1984Y22192D01*
G01X2054Y22202D01*
G01X2124Y22211D01*
G01X2240Y22327D01*
G01X2260Y22451D01*
G01X2224Y22470D01*
G01X2187Y22489D01*
G01X2157Y22473D01*
G01X2143Y22463D01*
G01X2128Y22449D01*
G01X2114Y22431D01*
G01X2103Y22413D01*
G01X2080Y22370D01*
G01X1982Y22349D01*
G01X1947Y22359D01*
G01X1912Y22370D01*
G01X1856Y22480D01*
G01X1854Y22548D01*
G01X1853Y22617D01*
G01X1913Y22742D01*
G01X1956Y22753D01*
G01X1998Y22764D01*
G01X2039Y22753D01*
G01X2080Y22743D01*
G01X2103Y22701D01*
G01X2114Y22682D01*
G01X2129Y22665D01*
G01X2143Y22651D01*
G01X2157Y22641D01*
G01X2187Y22624D01*
G01X2224Y22644D01*
G01X2260Y22664D01*
G01X2240Y22788D01*
G01X2182Y22845D01*
G01X2124Y22903D01*
G01X2023Y22910D01*
G37*
G36*
G01X2823Y22882D02*
G01X2757Y22918D01*
G01X2729Y22907D01*
G01X2709Y22894D01*
G01X2674Y22865D01*
G01X2628Y22825D01*
G01X2578Y22777D01*
G01X2454Y22657D01*
G01X2436Y22885D01*
G01X2411Y22901D01*
G01X2385Y22914D01*
G01X2362Y22916D01*
G01X2340Y22908D01*
G01X2318Y22891D01*
G01X2291Y22864D01*
G01X2291Y22251D01*
G01X2318Y22223D01*
G01X2330Y22213D01*
G01X2343Y22204D01*
G01X2357Y22199D01*
G01X2368Y22196D01*
G01X2379Y22199D01*
G01X2392Y22204D01*
G01X2406Y22213D01*
G01X2418Y22223D01*
G01X2445Y22251D01*
G01X2445Y22430D01*
G01X2474Y22459D01*
G01X2483Y22465D01*
G01X2491Y22470D01*
G01X2497Y22471D01*
G01X2508Y22461D01*
G01X2531Y22433D01*
G01X2563Y22392D01*
G01X2600Y22343D01*
G01X2694Y22213D01*
G01X2772Y22193D01*
G01X2798Y22214D01*
G01X2823Y22235D01*
G01X2823Y22301D01*
G01X2720Y22438D01*
G01X2680Y22492D01*
G01X2647Y22539D01*
G01X2625Y22572D01*
G01X2617Y22588D01*
G01X2625Y22601D01*
G01X2647Y22627D01*
G01X2680Y22663D01*
G01X2720Y22703D01*
G01X2823Y22805D01*
G01X2823Y22882D01*
G37*
G36*
G01X2076Y20376D02*
G01X1725Y20376D01*
G01X1707Y20343D01*
G01X1690Y20309D01*
G01X1690Y19731D01*
G01X1716Y19693D01*
G01X1743Y19655D01*
G01X1773Y19655D01*
G01X1786Y19656D01*
G01X1800Y19661D01*
G01X1813Y19667D01*
G01X1823Y19675D01*
G01X1844Y19696D01*
G01X1844Y19946D01*
G01X1939Y19946D01*
G01X2093Y19686D01*
G01X2125Y19668D01*
G01X2157Y19651D01*
G01X2239Y19695D01*
G01X2239Y19720D01*
G01X2234Y19739D01*
G01X2218Y19771D01*
G01X2196Y19811D01*
G01X2169Y19856D01*
G01X2099Y19967D01*
G01X2131Y19990D01*
G01X2143Y20000D01*
G01X2155Y20007D01*
G01X2171Y20015D01*
G01X2177Y20019D01*
G01X2186Y20030D01*
G01X2198Y20046D01*
G01X2210Y20065D01*
G01X2239Y20115D01*
G01X2239Y20216D01*
G01X2161Y20332D01*
G01X2118Y20354D01*
G01X2076Y20376D01*
G37*
G36*
G01X3310Y20376D02*
G01X2856Y20376D01*
G01X2837Y20333D01*
G01X2817Y20290D01*
G01X2878Y20223D01*
G01X2949Y20218D01*
G01X3021Y20212D01*
G01X3038Y19684D01*
G01X3098Y19646D01*
G01X3158Y19684D01*
G01X3175Y20212D01*
G01X3313Y20224D01*
G01X3343Y20251D01*
G01X3364Y20275D01*
G01X3371Y20299D01*
G01X3363Y20322D01*
G01X3341Y20348D01*
G01X3310Y20376D01*
G37*
G36*
G01X3196Y25449D02*
G01X2897Y25464D01*
G01X2843Y25388D01*
G01X2769Y25462D01*
G01X2743Y25452D01*
G01X2732Y25448D01*
G01X2720Y25445D01*
G01X2710Y25443D01*
G01X2702Y25442D01*
G01X2687Y25442D01*
G01X2677Y25110D01*
G01X2655Y25103D01*
G01X2634Y25096D01*
G01X2634Y25122D01*
G01X2633Y25132D01*
G01X2630Y25142D01*
G01X2626Y25149D01*
G01X2621Y25153D01*
G01X2609Y25166D01*
G01X2586Y25195D01*
G01X2557Y25238D01*
G01X2489Y25340D01*
G01X2457Y25385D01*
G01X2430Y25419D01*
G01X2414Y25438D01*
G01X2391Y25453D01*
G01X2370Y25458D01*
G01X2347Y25454D01*
G01X2321Y25441D01*
G01X2291Y25424D01*
G01X2291Y24792D01*
G01X2318Y24765D01*
G01X2330Y24755D01*
G01X2343Y24746D01*
G01X2357Y24740D01*
G01X2368Y24738D01*
G01X2379Y24740D01*
G01X2392Y24746D01*
G01X2406Y24755D01*
G01X2418Y24765D01*
G01X2445Y24792D01*
G01X2445Y25101D01*
G01X2463Y25090D01*
G01X2478Y25074D01*
G01X2506Y25036D01*
G01X2543Y24984D01*
G01X2585Y24922D01*
G01X2650Y24828D01*
G01X2697Y24766D01*
G01X2732Y24732D01*
G01X2756Y24721D01*
G01X2764Y24724D01*
G01X2776Y24733D01*
G01X2790Y24745D01*
G01X2806Y24761D01*
G01X2845Y24801D01*
G01X2917Y24729D01*
G01X3197Y24749D01*
G01X3287Y24808D01*
G01X3334Y24879D01*
G01X3381Y24951D01*
G01X3381Y25098D01*
G01X3380Y25245D01*
G01X3287Y25390D01*
G01X3242Y25419D01*
G01X3196Y25449D01*
G37*

%LPD*%
G36*
G01X3097Y25296D02*
G01X3037Y25307D01*
G01X3012Y25282D01*
G01X3012Y24893D01*
G01X3148Y24893D01*
G01X3181Y24928D01*
G01X3214Y24964D01*
G01X3234Y25087D01*
G01X3214Y25235D01*
G01X3158Y25285D01*
G01X3097Y25296D01*
G37*

%LPD*%
G36*
G01X2854Y25336D02*
G01X2851Y25356D01*
G01X2848Y25355D01*
G01X2844Y25353D01*
G01X2839Y25349D01*
G01X2835Y25345D01*
G01X2823Y25334D01*
G01X2823Y24841D01*
G01X2858Y24841D01*
G01X2858Y25099D01*
G01X2857Y25199D01*
G01X2855Y25281D01*
G01X2854Y25336D01*
G37*

%LPD*%
G36*
G01X2046Y20221D02*
G01X1921Y20221D01*
G01X1890Y20218D01*
G01X1867Y20214D01*
G01X1855Y20210D01*
G01X1851Y20202D01*
G01X1848Y20190D01*
G01X1845Y20175D01*
G01X1844Y20158D01*
G01X1844Y20118D01*
G01X2069Y20118D01*
G01X2078Y20144D01*
G01X2088Y20170D01*
G01X2046Y20221D01*
G37*

%LPD*%
G54D10*
G01X45085Y1300D02*
G01X56285Y1300D01*
G01X58185Y1300D02*
G01X65384Y1300D01*
G54D59*
G01X47498Y29543D02*
G01X47244Y29289D01*
G01X47752Y29289D01*
G01X47498Y29543D01*
G54D13*
G01X63754Y65992D02*
G01X63754Y61928D01*
G01X26289Y61928D01*
G01X26289Y65992D01*
G01X63754Y65992D01*
G54D18*
G01X14478Y21288D02*
G01X14478Y26368D01*
G01X6858Y26368D01*
G01X6858Y21288D01*
G01X14478Y21288D01*
G01X9609Y21288D01*
G01X6858Y23831D02*
G01X9398Y23831D01*
G01X9398Y21288D01*
G54D16*
G01X62611Y56848D02*
G01X58801Y56848D01*
G01X59182Y52911D02*
G01X59182Y53673D01*
G01X59563Y53292D02*
G01X58801Y53292D01*
G01X62611Y50371D02*
G01X58801Y50371D01*
G01X59182Y46434D02*
G01X59182Y47196D01*
G01X59563Y46815D02*
G01X58801Y46815D01*
G54D60*
G01X55242Y17943D02*
G01X56364Y17943D01*
G54D18*
G01X55242Y17943D02*
G01X51061Y22124D01*
G01X55839Y26901D01*
G01X60580Y22160D01*
G01X56364Y17943D01*
G54D16*
G01X61673Y32442D02*
G01X55474Y32442D01*
G01X61924Y31742D02*
G01X55423Y31742D01*
G01X55474Y36042D02*
G01X61873Y36042D01*
G01X55423Y36742D02*
G01X61924Y36742D01*
G01X58420Y34877D02*
G01X58420Y33607D01*
G01X58420Y33607D02*
G01X58928Y33607D01*
G01X58928Y33607D02*
G01X58928Y34877D01*
G01X58928Y34877D02*
G01X58420Y34877D01*
G01X58039Y34877D02*
G01X58039Y34242D01*
G01X58039Y34242D02*
G01X58039Y33607D01*
G01X58039Y34242D02*
G01X57658Y34242D01*
G01X59309Y34877D02*
G01X59309Y34242D01*
G01X59309Y34242D02*
G01X59309Y33607D01*
G01X59309Y34242D02*
G01X59690Y34242D01*
G54D61*
G01X38310Y18435D02*
G01X45763Y18435D01*
G01X38310Y13982D02*
G01X45763Y13982D01*
G01X39840Y18435D02*
G01X39840Y13982D01*
G01X45763Y18435D02*
G01X45763Y17708D01*
G01X45763Y13982D02*
G01X45763Y14709D01*
G01X35685Y18486D02*
G01X34200Y18486D01*
G01X34200Y16301D02*
G01X35685Y16301D01*
G01X35837Y16454D02*
G01X35837Y18334D01*
G01X30862Y18486D02*
G01X32347Y18486D01*
G01X32347Y16301D02*
G01X30862Y16301D01*
G01X30710Y16454D02*
G01X30710Y18334D01*
G01X35685Y16158D02*
G01X34200Y16158D01*
G01X34200Y13973D02*
G01X35685Y13973D01*
G01X35837Y14125D02*
G01X35837Y16006D01*
G01X30862Y16158D02*
G01X32347Y16158D01*
G01X32347Y13973D02*
G01X30862Y13973D01*
G01X30710Y14125D02*
G01X30710Y16006D01*
G01X38310Y23134D02*
G01X45763Y23134D01*
G01X38310Y18681D02*
G01X45763Y18681D01*
G01X39840Y23134D02*
G01X39840Y18681D01*
G01X45763Y23134D02*
G01X45763Y22407D01*
G01X45763Y18681D02*
G01X45763Y19408D01*
G01X35685Y23143D02*
G01X34200Y23143D01*
G01X34200Y20958D02*
G01X35685Y20958D01*
G01X35837Y21110D02*
G01X35837Y22991D01*
G01X30862Y23143D02*
G01X32347Y23143D01*
G01X32347Y20958D02*
G01X30862Y20958D01*
G01X30710Y21110D02*
G01X30710Y22991D01*
G01X35685Y20815D02*
G01X34200Y20815D01*
G01X34200Y18629D02*
G01X35685Y18629D01*
G01X35837Y18782D02*
G01X35837Y20662D01*
G01X30862Y20815D02*
G01X32347Y20815D01*
G01X32347Y18629D02*
G01X30862Y18629D01*
G01X30710Y18782D02*
G01X30710Y20662D01*
G54D16*
G01X6350Y18748D02*
G01X6350Y26368D01*
G01X3810Y26368D01*
G01X3810Y18748D01*
G01X6350Y18748D01*
G01X3810Y21288D02*
G01X6350Y21288D01*
G01X56007Y50372D02*
G01X52197Y50372D01*
G01X52578Y46435D02*
G01X52578Y47197D01*
G01X52959Y46816D02*
G01X52197Y46816D01*
G01X49403Y50372D02*
G01X45593Y50372D01*
G01X45974Y46435D02*
G01X45974Y47197D01*
G01X46355Y46816D02*
G01X45593Y46816D01*
G01X42799Y50372D02*
G01X38989Y50372D01*
G01X39370Y46435D02*
G01X39370Y47197D01*
G01X39751Y46816D02*
G01X38989Y46816D01*
G01X36195Y50372D02*
G01X32385Y50372D01*
G01X32766Y46435D02*
G01X32766Y47197D01*
G01X33147Y46816D02*
G01X32385Y46816D01*
G01X29591Y50372D02*
G01X25781Y50372D01*
G01X26162Y46435D02*
G01X26162Y47197D01*
G01X26543Y46816D02*
G01X25781Y46816D01*
G01X56007Y56848D02*
G01X52197Y56848D01*
G01X52578Y52911D02*
G01X52578Y53673D01*
G01X52959Y53292D02*
G01X52197Y53292D01*
G01X49403Y56848D02*
G01X45593Y56848D01*
G01X45974Y52911D02*
G01X45974Y53673D01*
G01X46355Y53292D02*
G01X45593Y53292D01*
G01X42799Y56848D02*
G01X38989Y56848D01*
G01X39370Y52911D02*
G01X39370Y53673D01*
G01X39751Y53292D02*
G01X38989Y53292D01*
G01X36195Y56848D02*
G01X32385Y56848D01*
G01X32766Y52911D02*
G01X32766Y53673D01*
G01X33147Y53292D02*
G01X32385Y53292D01*
G01X29591Y56848D02*
G01X25781Y56848D01*
G01X26162Y52911D02*
G01X26162Y53673D01*
G01X26543Y53292D02*
G01X25781Y53292D01*
G01X23494Y12652D02*
G01X28320Y12652D01*
G01X23414Y23280D02*
G01X28494Y23280D01*
G01X28494Y11596D01*
G01X23414Y11596D01*
G01X23414Y23280D01*
G54D61*
G01X51789Y35252D02*
G01X51789Y31709D01*
G01X41936Y31709D01*
G01X41936Y35252D01*
G01X51789Y35252D01*
G01X40459Y35002D02*
G01X40459Y31959D01*
G01X30406Y31959D01*
G01X30406Y35002D01*
G01X40459Y35002D01*
G01X21207Y26699D02*
G01X19722Y26699D01*
G01X19722Y24514D02*
G01X21207Y24514D01*
G01X21359Y24666D02*
G01X21359Y26547D01*
G01X16384Y26699D02*
G01X17869Y26699D01*
G01X17869Y24514D02*
G01X16384Y24514D01*
G01X16232Y24666D02*
G01X16232Y26547D01*
G54D16*
G01X16055Y20780D02*
G01X15801Y20780D01*
G01X15801Y15192D01*
G01X16055Y15192D01*
G01X16055Y15192D01*
G01X18505Y21566D02*
G01X18377Y21566D01*
G01X18505Y14407D02*
G01X18377Y14407D01*
G01X18505Y19120D02*
G01X18505Y21566D01*
G01X16145Y14407D02*
G01X16145Y21566D01*
G01X18595Y15192D02*
G01X18849Y15192D01*
G01X18849Y20780D01*
G01X18595Y20780D01*
G01X18595Y20780D01*
G01X18505Y14407D02*
G01X18505Y16853D01*
G01X18505Y17819D02*
G01X18505Y18153D01*
G01X19865Y20784D02*
G01X19611Y20784D01*
G01X19611Y15196D01*
G01X19865Y15196D01*
G01X19865Y15196D01*
G01X22315Y21570D02*
G01X22187Y21570D01*
G01X22315Y14410D02*
G01X22187Y14410D01*
G01X22315Y19124D02*
G01X22315Y21570D01*
G01X19955Y14410D02*
G01X19955Y21570D01*
G01X22405Y15196D02*
G01X22659Y15196D01*
G01X22659Y20784D01*
G01X22405Y20784D01*
G01X22405Y20784D01*
G01X22315Y14410D02*
G01X22315Y16857D01*
G01X22315Y17823D02*
G01X22315Y18157D01*
G54D61*
G01X21207Y24540D02*
G01X19722Y24540D01*
G01X19722Y22355D02*
G01X21207Y22355D01*
G01X21359Y22507D02*
G01X21359Y24388D01*
G01X16384Y24540D02*
G01X17869Y24540D01*
G01X17869Y22355D02*
G01X16384Y22355D01*
G01X16232Y22507D02*
G01X16232Y24388D01*
G54D62*
G01X33528Y28019D02*
G01X33528Y29289D01*
G01X35306Y29289D01*
G01X35306Y28019D01*
G01X33528Y27257D02*
G01X33528Y26114D01*
G01X35306Y26114D01*
G01X35306Y27257D01*
G01X35306Y28019D02*
G01X35306Y29289D01*
G01X37084Y29289D01*
G01X37084Y28019D01*
G01X35306Y27257D02*
G01X35306Y26114D01*
G01X37084Y26114D01*
G01X37084Y27257D01*
G01X37084Y28019D02*
G01X37084Y29289D01*
G01X38862Y29289D01*
G01X38862Y28019D01*
G01X37084Y27257D02*
G01X37084Y26114D01*
G01X38862Y26114D01*
G01X38862Y27257D01*
G01X38862Y28019D02*
G01X38862Y29289D01*
G01X40640Y29289D01*
G01X40640Y28019D01*
G01X38862Y27257D02*
G01X38862Y26114D01*
G01X40640Y26114D01*
G01X40640Y27257D01*
G01X16764Y46053D02*
G01X16764Y47323D01*
G01X18542Y47323D01*
G01X18542Y46053D01*
G01X16764Y45291D02*
G01X16764Y44148D01*
G01X18542Y44148D01*
G01X18542Y45291D01*
G54D61*
G01X5031Y45009D02*
G01X5031Y51162D01*
G01X5031Y51162D02*
G01X5954Y51162D01*
G01X8684Y45009D02*
G01X8684Y51162D01*
G01X8684Y51162D02*
G01X7761Y51162D01*
G01X5031Y45489D02*
G01X8684Y45489D01*
G01X13115Y27164D02*
G01X7712Y27164D01*
G01X13115Y29891D02*
G01X7712Y29891D01*
G01X11752Y27164D02*
G01X11752Y29891D01*
G01X7712Y27164D02*
G01X7712Y27514D01*
G01X7712Y29891D02*
G01X7712Y29541D01*
G01X15078Y29891D02*
G01X20481Y29891D01*
G01X15078Y27164D02*
G01X20481Y27164D01*
G01X16441Y29891D02*
G01X16441Y27164D01*
G01X20481Y29891D02*
G01X20481Y29541D01*
G01X20481Y27164D02*
G01X20481Y27514D01*
G54D62*
G01X17018Y54049D02*
G01X15748Y54049D01*
G01X15748Y55827D01*
G01X17018Y55827D01*
G01X17780Y54049D02*
G01X18923Y54049D01*
G01X18923Y55827D01*
G01X17780Y55827D01*
G01X17018Y55832D02*
G01X15748Y55832D01*
G01X15748Y57610D01*
G01X17018Y57610D01*
G01X17780Y55832D02*
G01X18923Y55832D01*
G01X18923Y57610D01*
G01X17780Y57610D01*
G01X13208Y46053D02*
G01X13208Y47323D01*
G01X14986Y47323D01*
G01X14986Y46053D01*
G01X13208Y45291D02*
G01X13208Y44148D01*
G01X14986Y44148D01*
G01X14986Y45291D01*
G54D61*
G01X7265Y32728D02*
G01X6897Y32728D01*
G01X6897Y31947D02*
G01X7265Y31947D01*
G01X7418Y32099D02*
G01X7418Y32576D01*
G01X6196Y32728D02*
G01X6564Y32728D01*
G01X6564Y31947D02*
G01X6196Y31947D01*
G01X6043Y32099D02*
G01X6043Y32576D01*
G01X7265Y31966D02*
G01X6897Y31966D01*
G01X6897Y31185D02*
G01X7265Y31185D01*
G01X7418Y31337D02*
G01X7418Y31814D01*
G01X6196Y31966D02*
G01X6564Y31966D01*
G01X6564Y31185D02*
G01X6196Y31185D01*
G01X6043Y31337D02*
G01X6043Y31814D01*
G54D18*
G01X62484Y58057D02*
G01X62575Y58103D01*
G01X62710Y58238D01*
G01X62710Y57283D01*
G01X59862Y58012D02*
G01X59862Y58057D01*
G01X59908Y58146D01*
G01X59954Y58192D01*
G01X60043Y58238D01*
G01X60225Y58238D01*
G01X60317Y58192D01*
G01X60363Y58146D01*
G01X60408Y58057D01*
G01X60408Y57966D01*
G01X60363Y57875D01*
G01X60271Y57737D01*
G01X59817Y57283D01*
G01X60454Y57283D01*
G01X57368Y58238D02*
G01X57868Y58238D01*
G01X57594Y57875D01*
G01X57731Y57875D01*
G01X57823Y57829D01*
G01X57868Y57783D01*
G01X57914Y57649D01*
G01X57914Y57557D01*
G01X57868Y57420D01*
G01X57777Y57328D01*
G01X57640Y57283D01*
G01X57503Y57283D01*
G01X57368Y57328D01*
G01X57322Y57374D01*
G01X57277Y57466D01*
G01X55191Y58238D02*
G01X54737Y57603D01*
G01X55417Y57603D01*
G01X55191Y58238D02*
G01X55191Y57283D01*
G01X52743Y58238D02*
G01X52288Y58238D01*
G01X52242Y57829D01*
G01X52288Y57875D01*
G01X52423Y57920D01*
G01X52560Y57920D01*
G01X52697Y57875D01*
G01X52788Y57783D01*
G01X52834Y57649D01*
G01X52834Y57557D01*
G01X52788Y57420D01*
G01X52697Y57328D01*
G01X52560Y57283D01*
G01X52423Y57283D01*
G01X52288Y57328D01*
G01X52242Y57374D01*
G01X52197Y57466D01*
G01X50203Y58103D02*
G01X50157Y58192D01*
G01X50020Y58238D01*
G01X49928Y58238D01*
G01X49794Y58192D01*
G01X49702Y58057D01*
G01X49657Y57829D01*
G01X49657Y57603D01*
G01X49702Y57420D01*
G01X49794Y57328D01*
G01X49928Y57283D01*
G01X49974Y57283D01*
G01X50111Y57328D01*
G01X50203Y57420D01*
G01X50248Y57557D01*
G01X50248Y57603D01*
G01X50203Y57737D01*
G01X50111Y57829D01*
G01X49974Y57875D01*
G01X49928Y57875D01*
G01X49794Y57829D01*
G01X49702Y57737D01*
G01X49657Y57603D01*
G01X47754Y58238D02*
G01X47299Y57283D01*
G01X47117Y58238D02*
G01X47754Y58238D01*
G01X44803Y58238D02*
G01X44668Y58192D01*
G01X44622Y58103D01*
G01X44622Y58012D01*
G01X44668Y57920D01*
G01X44759Y57875D01*
G01X44940Y57829D01*
G01X45077Y57783D01*
G01X45168Y57694D01*
G01X45214Y57603D01*
G01X45214Y57466D01*
G01X45168Y57374D01*
G01X45123Y57328D01*
G01X44985Y57283D01*
G01X44803Y57283D01*
G01X44668Y57328D01*
G01X44622Y57374D01*
G01X44577Y57466D01*
G01X44577Y57603D01*
G01X44622Y57694D01*
G01X44714Y57783D01*
G01X44848Y57829D01*
G01X45031Y57875D01*
G01X45123Y57920D01*
G01X45168Y58012D01*
G01X45168Y58103D01*
G01X45123Y58192D01*
G01X44985Y58238D01*
G01X44803Y58238D01*
G01X42628Y57920D02*
G01X42583Y57783D01*
G01X42491Y57694D01*
G01X42354Y57649D01*
G01X42308Y57649D01*
G01X42174Y57694D01*
G01X42082Y57783D01*
G01X42037Y57920D01*
G01X42037Y57966D01*
G01X42082Y58103D01*
G01X42174Y58192D01*
G01X42308Y58238D01*
G01X42354Y58238D01*
G01X42491Y58192D01*
G01X42583Y58103D01*
G01X42628Y57920D01*
G01X42628Y57694D01*
G01X42583Y57466D01*
G01X42491Y57328D01*
G01X42354Y57283D01*
G01X42263Y57283D01*
G01X42128Y57328D01*
G01X42082Y57420D01*
G01X39243Y58057D02*
G01X39334Y58103D01*
G01X39469Y58238D01*
G01X39469Y57283D01*
G01X40043Y58238D02*
G01X39905Y58192D01*
G01X39814Y58057D01*
G01X39771Y57829D01*
G01X39771Y57694D01*
G01X39814Y57466D01*
G01X39905Y57328D01*
G01X40043Y57283D01*
G01X40134Y57283D01*
G01X40269Y57328D01*
G01X40360Y57466D01*
G01X40406Y57694D01*
G01X40406Y57829D01*
G01X40360Y58057D01*
G01X40269Y58192D01*
G01X40134Y58238D01*
G01X40043Y58238D01*
G01X36703Y58057D02*
G01X36794Y58103D01*
G01X36929Y58238D01*
G01X36929Y57283D01*
G01X37231Y58057D02*
G01X37320Y58103D01*
G01X37457Y58238D01*
G01X37457Y57283D01*
G01X34163Y58057D02*
G01X34254Y58103D01*
G01X34389Y58238D01*
G01X34389Y57283D01*
G01X34734Y58012D02*
G01X34734Y58057D01*
G01X34780Y58146D01*
G01X34825Y58192D01*
G01X34917Y58238D01*
G01X35100Y58238D01*
G01X35189Y58192D01*
G01X35234Y58146D01*
G01X35280Y58057D01*
G01X35280Y57966D01*
G01X35234Y57875D01*
G01X35145Y57737D01*
G01X34691Y57283D01*
G01X35326Y57283D01*
G01X31623Y58057D02*
G01X31714Y58103D01*
G01X31849Y58238D01*
G01X31849Y57283D01*
G01X32240Y58238D02*
G01X32740Y58238D01*
G01X32468Y57875D01*
G01X32605Y57875D01*
G01X32694Y57829D01*
G01X32740Y57783D01*
G01X32786Y57649D01*
G01X32786Y57557D01*
G01X32740Y57420D01*
G01X32649Y57328D01*
G01X32514Y57283D01*
G01X32377Y57283D01*
G01X32240Y57328D01*
G01X32194Y57374D01*
G01X32151Y57466D01*
G01X29083Y58057D02*
G01X29174Y58103D01*
G01X29309Y58238D01*
G01X29309Y57283D01*
G01X30065Y58238D02*
G01X29611Y57603D01*
G01X30292Y57603D01*
G01X30065Y58238D02*
G01X30065Y57283D01*
G01X26543Y58057D02*
G01X26634Y58103D01*
G01X26769Y58238D01*
G01X26769Y57283D01*
G01X27614Y58238D02*
G01X27160Y58238D01*
G01X27114Y57829D01*
G01X27160Y57875D01*
G01X27297Y57920D01*
G01X27434Y57920D01*
G01X27569Y57875D01*
G01X27660Y57783D01*
G01X27706Y57649D01*
G01X27706Y57557D01*
G01X27660Y57420D01*
G01X27569Y57328D01*
G01X27434Y57283D01*
G01X27297Y57283D01*
G01X27160Y57328D01*
G01X27114Y57374D01*
G01X27071Y57466D01*
G01X63898Y44522D02*
G01X63764Y44476D01*
G01X63672Y44341D01*
G01X63627Y44113D01*
G01X63627Y43978D01*
G01X63672Y43750D01*
G01X63764Y43612D01*
G01X63898Y43567D01*
G01X63990Y43567D01*
G01X64127Y43612D01*
G01X64218Y43750D01*
G01X64264Y43978D01*
G01X64264Y44113D01*
G01X64218Y44341D01*
G01X64127Y44476D01*
G01X63990Y44522D01*
G01X63898Y44522D01*
G01X57068Y44296D02*
G01X57068Y44341D01*
G01X57114Y44430D01*
G01X57160Y44476D01*
G01X57249Y44522D01*
G01X57431Y44522D01*
G01X57523Y44476D01*
G01X57569Y44430D01*
G01X57614Y44341D01*
G01X57614Y44250D01*
G01X57569Y44159D01*
G01X57477Y44021D01*
G01X57023Y43567D01*
G01X57660Y43567D01*
G01X63627Y51453D02*
G01X63718Y51499D01*
G01X63853Y51634D01*
G01X63853Y50679D01*
G01X57114Y51634D02*
G01X57614Y51634D01*
G01X57340Y51271D01*
G01X57477Y51271D01*
G01X57569Y51225D01*
G01X57614Y51179D01*
G01X57660Y51045D01*
G01X57660Y50953D01*
G01X57614Y50816D01*
G01X57523Y50724D01*
G01X57386Y50679D01*
G01X57249Y50679D01*
G01X57114Y50724D01*
G01X57068Y50770D01*
G01X57023Y50862D01*
G01X40792Y21152D02*
G01X40755Y21225D01*
G01X40682Y21297D01*
G01X40610Y21334D01*
G01X40464Y21334D01*
G01X40392Y21297D01*
G01X40319Y21225D01*
G01X40282Y21152D01*
G01X40246Y21043D01*
G01X40246Y20861D01*
G01X40282Y20752D01*
G01X40319Y20679D01*
G01X40392Y20606D01*
G01X40464Y20570D01*
G01X40610Y20570D01*
G01X40682Y20606D01*
G01X40755Y20679D01*
G01X40792Y20752D01*
G01X41031Y21188D02*
G01X41104Y21225D01*
G01X41213Y21334D01*
G01X41213Y20570D01*
G01X41672Y21334D02*
G01X41562Y21297D01*
G01X41490Y21188D01*
G01X41453Y21006D01*
G01X41453Y20897D01*
G01X41490Y20716D01*
G01X41562Y20606D01*
G01X41672Y20570D01*
G01X41744Y20570D01*
G01X41853Y20606D01*
G01X41926Y20716D01*
G01X41962Y20897D01*
G01X41962Y21006D01*
G01X41926Y21188D01*
G01X41853Y21297D01*
G01X41744Y21334D01*
G01X41672Y21334D01*
G01X42421Y21334D02*
G01X42312Y21297D01*
G01X42239Y21188D01*
G01X42202Y21006D01*
G01X42202Y20897D01*
G01X42239Y20716D01*
G01X42312Y20606D01*
G01X42421Y20570D01*
G01X42493Y20570D01*
G01X42602Y20606D01*
G01X42675Y20716D01*
G01X42712Y20897D01*
G01X42712Y21006D01*
G01X42675Y21188D01*
G01X42602Y21297D01*
G01X42493Y21334D01*
G01X42421Y21334D01*
G01X42952Y21334D02*
G01X42952Y20788D01*
G01X42988Y20679D01*
G01X43061Y20606D01*
G01X43170Y20570D01*
G01X43242Y20570D01*
G01X43352Y20606D01*
G01X43424Y20679D01*
G01X43461Y20788D01*
G01X43461Y21334D01*
G01X43701Y21334D02*
G01X43701Y20570D01*
G01X43701Y21334D02*
G01X44173Y21334D01*
G01X43701Y20970D02*
G01X43992Y20970D01*
G01X30226Y51453D02*
G01X30317Y51499D01*
G01X30452Y51634D01*
G01X30452Y50679D01*
G01X30754Y51453D02*
G01X30843Y51499D01*
G01X30980Y51634D01*
G01X30980Y50679D01*
G01X37802Y51316D02*
G01X37757Y51179D01*
G01X37665Y51090D01*
G01X37528Y51045D01*
G01X37482Y51045D01*
G01X37348Y51090D01*
G01X37256Y51179D01*
G01X37211Y51316D01*
G01X37211Y51362D01*
G01X37256Y51499D01*
G01X37348Y51588D01*
G01X37482Y51634D01*
G01X37528Y51634D01*
G01X37665Y51588D01*
G01X37757Y51499D01*
G01X37802Y51316D01*
G01X37802Y51090D01*
G01X37757Y50862D01*
G01X37665Y50724D01*
G01X37528Y50679D01*
G01X37437Y50679D01*
G01X37302Y50724D01*
G01X37256Y50816D01*
G01X44325Y51634D02*
G01X43870Y50679D01*
G01X43688Y51634D02*
G01X44325Y51634D01*
G01X50838Y51634D02*
G01X50383Y51634D01*
G01X50337Y51225D01*
G01X50383Y51271D01*
G01X50518Y51316D01*
G01X50655Y51316D01*
G01X50792Y51271D01*
G01X50883Y51179D01*
G01X50929Y51045D01*
G01X50929Y50953D01*
G01X50883Y50816D01*
G01X50792Y50724D01*
G01X50655Y50679D01*
G01X50518Y50679D01*
G01X50383Y50724D01*
G01X50337Y50770D01*
G01X50292Y50862D01*
G01X30353Y44341D02*
G01X30444Y44387D01*
G01X30579Y44522D01*
G01X30579Y43567D01*
G01X31153Y44522D02*
G01X31015Y44476D01*
G01X30924Y44341D01*
G01X30881Y44113D01*
G01X30881Y43978D01*
G01X30924Y43750D01*
G01X31015Y43612D01*
G01X31153Y43567D01*
G01X31244Y43567D01*
G01X31379Y43612D01*
G01X31470Y43750D01*
G01X31516Y43978D01*
G01X31516Y44113D01*
G01X31470Y44341D01*
G01X31379Y44476D01*
G01X31244Y44522D01*
G01X31153Y44522D01*
G01X37437Y44522D02*
G01X37302Y44476D01*
G01X37256Y44387D01*
G01X37256Y44296D01*
G01X37302Y44204D01*
G01X37393Y44159D01*
G01X37574Y44113D01*
G01X37711Y44067D01*
G01X37802Y43978D01*
G01X37848Y43887D01*
G01X37848Y43750D01*
G01X37802Y43658D01*
G01X37757Y43612D01*
G01X37619Y43567D01*
G01X37437Y43567D01*
G01X37302Y43612D01*
G01X37256Y43658D01*
G01X37211Y43750D01*
G01X37211Y43887D01*
G01X37256Y43978D01*
G01X37348Y44067D01*
G01X37482Y44113D01*
G01X37665Y44159D01*
G01X37757Y44204D01*
G01X37802Y44296D01*
G01X37802Y44387D01*
G01X37757Y44476D01*
G01X37619Y44522D01*
G01X37437Y44522D01*
G01X44361Y44387D02*
G01X44315Y44476D01*
G01X44178Y44522D01*
G01X44086Y44522D01*
G01X43952Y44476D01*
G01X43860Y44341D01*
G01X43815Y44113D01*
G01X43815Y43887D01*
G01X43860Y43704D01*
G01X43952Y43612D01*
G01X44086Y43567D01*
G01X44132Y43567D01*
G01X44269Y43612D01*
G01X44361Y43704D01*
G01X44406Y43841D01*
G01X44406Y43887D01*
G01X44361Y44021D01*
G01X44269Y44113D01*
G01X44132Y44159D01*
G01X44086Y44159D01*
G01X43952Y44113D01*
G01X43860Y44021D01*
G01X43815Y43887D01*
G01X50873Y44522D02*
G01X50419Y43887D01*
G01X51099Y43887D01*
G01X50873Y44522D02*
G01X50873Y43567D01*
G54D15*
G01X8001Y20671D02*
G01X8001Y18733D01*
G01X9994Y20209D02*
G01X9903Y20394D01*
G01X9718Y20580D01*
G01X9535Y20671D01*
G01X9164Y20671D01*
G01X8978Y20580D01*
G01X8796Y20394D01*
G01X8702Y20209D01*
G01X8610Y19932D01*
G01X8610Y19472D01*
G01X8702Y19193D01*
G01X8796Y19010D01*
G01X8978Y18825D01*
G01X9164Y18733D01*
G01X9535Y18733D01*
G01X9718Y18825D01*
G01X9903Y19010D01*
G01X9994Y19193D01*
G01X11899Y20394D02*
G01X11714Y20580D01*
G01X11437Y20671D01*
G01X11066Y20671D01*
G01X10789Y20580D01*
G01X10604Y20394D01*
G01X10604Y20209D01*
G01X10698Y20026D01*
G01X10789Y19932D01*
G01X10975Y19841D01*
G01X11529Y19655D01*
G01X11714Y19564D01*
G01X11805Y19472D01*
G01X11899Y19287D01*
G01X11899Y19010D01*
G01X11714Y18825D01*
G01X11437Y18733D01*
G01X11066Y18733D01*
G01X10789Y18825D01*
G01X10604Y19010D01*
G01X12509Y20671D02*
G01X12509Y18733D01*
G01X12509Y20671D02*
G01X13340Y20671D01*
G01X13616Y20580D01*
G01X13708Y20488D01*
G01X13802Y20303D01*
G01X13802Y20026D01*
G01X13708Y19841D01*
G01X13616Y19749D01*
G01X13340Y19655D01*
G01X12509Y19655D01*
G54D18*
G01X27051Y41729D02*
G01X27142Y41775D01*
G01X27277Y41910D01*
G01X27277Y40955D01*
G01X28122Y41910D02*
G01X27668Y41910D01*
G01X27622Y41501D01*
G01X27668Y41547D01*
G01X27805Y41592D01*
G01X27942Y41592D01*
G01X28077Y41547D01*
G01X28168Y41455D01*
G01X28214Y41320D01*
G01X28214Y41229D01*
G01X28168Y41092D01*
G01X28077Y41000D01*
G01X27942Y40955D01*
G01X27805Y40955D01*
G01X27668Y41000D01*
G01X27622Y41046D01*
G01X27579Y41138D01*
G01X29591Y41729D02*
G01X29682Y41775D01*
G01X29817Y41910D01*
G01X29817Y40955D01*
G01X30573Y41910D02*
G01X30119Y41275D01*
G01X30800Y41275D01*
G01X30573Y41910D02*
G01X30573Y40955D01*
G01X32131Y41729D02*
G01X32222Y41775D01*
G01X32357Y41910D01*
G01X32357Y40955D01*
G01X32748Y41910D02*
G01X33248Y41910D01*
G01X32976Y41547D01*
G01X33113Y41547D01*
G01X33202Y41501D01*
G01X33248Y41455D01*
G01X33294Y41320D01*
G01X33294Y41229D01*
G01X33248Y41092D01*
G01X33157Y41000D01*
G01X33022Y40955D01*
G01X32885Y40955D01*
G01X32748Y41000D01*
G01X32702Y41046D01*
G01X32659Y41138D01*
G01X34671Y41729D02*
G01X34762Y41775D01*
G01X34897Y41910D01*
G01X34897Y40955D01*
G01X35242Y41684D02*
G01X35242Y41729D01*
G01X35288Y41818D01*
G01X35333Y41864D01*
G01X35425Y41910D01*
G01X35608Y41910D01*
G01X35697Y41864D01*
G01X35742Y41818D01*
G01X35788Y41729D01*
G01X35788Y41638D01*
G01X35742Y41547D01*
G01X35653Y41409D01*
G01X35199Y40955D01*
G01X35834Y40955D01*
G01X37211Y41729D02*
G01X37302Y41775D01*
G01X37437Y41910D01*
G01X37437Y40955D01*
G01X37739Y41729D02*
G01X37828Y41775D01*
G01X37965Y41910D01*
G01X37965Y40955D01*
G01X39751Y41729D02*
G01X39842Y41775D01*
G01X39977Y41910D01*
G01X39977Y40955D01*
G01X40551Y41910D02*
G01X40413Y41864D01*
G01X40322Y41729D01*
G01X40279Y41501D01*
G01X40279Y41366D01*
G01X40322Y41138D01*
G01X40413Y41000D01*
G01X40551Y40955D01*
G01X40642Y40955D01*
G01X40777Y41000D01*
G01X40868Y41138D01*
G01X40914Y41366D01*
G01X40914Y41501D01*
G01X40868Y41729D01*
G01X40777Y41864D01*
G01X40642Y41910D01*
G01X40551Y41910D01*
G01X43136Y41592D02*
G01X43091Y41455D01*
G01X42999Y41366D01*
G01X42862Y41320D01*
G01X42816Y41320D01*
G01X42682Y41366D01*
G01X42590Y41455D01*
G01X42545Y41592D01*
G01X42545Y41638D01*
G01X42590Y41775D01*
G01X42682Y41864D01*
G01X42816Y41910D01*
G01X42862Y41910D01*
G01X42999Y41864D01*
G01X43091Y41775D01*
G01X43136Y41592D01*
G01X43136Y41366D01*
G01X43091Y41138D01*
G01X42999Y41000D01*
G01X42862Y40955D01*
G01X42771Y40955D01*
G01X42636Y41000D01*
G01X42590Y41092D01*
G01X45311Y41910D02*
G01X45176Y41864D01*
G01X45130Y41775D01*
G01X45130Y41684D01*
G01X45176Y41592D01*
G01X45267Y41547D01*
G01X45448Y41501D01*
G01X45585Y41455D01*
G01X45676Y41366D01*
G01X45722Y41275D01*
G01X45722Y41138D01*
G01X45676Y41046D01*
G01X45631Y41000D01*
G01X45493Y40955D01*
G01X45311Y40955D01*
G01X45176Y41000D01*
G01X45130Y41046D01*
G01X45085Y41138D01*
G01X45085Y41275D01*
G01X45130Y41366D01*
G01X45222Y41455D01*
G01X45356Y41501D01*
G01X45539Y41547D01*
G01X45631Y41592D01*
G01X45676Y41684D01*
G01X45676Y41775D01*
G01X45631Y41864D01*
G01X45493Y41910D01*
G01X45311Y41910D01*
G01X48262Y41910D02*
G01X47807Y40955D01*
G01X47625Y41910D02*
G01X48262Y41910D01*
G01X50711Y41775D02*
G01X50665Y41864D01*
G01X50528Y41910D01*
G01X50436Y41910D01*
G01X50302Y41864D01*
G01X50210Y41729D01*
G01X50165Y41501D01*
G01X50165Y41275D01*
G01X50210Y41092D01*
G01X50302Y41000D01*
G01X50436Y40955D01*
G01X50482Y40955D01*
G01X50619Y41000D01*
G01X50711Y41092D01*
G01X50756Y41229D01*
G01X50756Y41275D01*
G01X50711Y41409D01*
G01X50619Y41501D01*
G01X50482Y41547D01*
G01X50436Y41547D01*
G01X50302Y41501D01*
G01X50210Y41409D01*
G01X50165Y41275D01*
G01X53251Y41910D02*
G01X52796Y41910D01*
G01X52750Y41501D01*
G01X52796Y41547D01*
G01X52931Y41592D01*
G01X53068Y41592D01*
G01X53205Y41547D01*
G01X53296Y41455D01*
G01X53342Y41320D01*
G01X53342Y41229D01*
G01X53296Y41092D01*
G01X53205Y41000D01*
G01X53068Y40955D01*
G01X52931Y40955D01*
G01X52796Y41000D01*
G01X52750Y41046D01*
G01X52705Y41138D01*
G01X55699Y41910D02*
G01X55245Y41275D01*
G01X55925Y41275D01*
G01X55699Y41910D02*
G01X55699Y40955D01*
G01X57876Y41910D02*
G01X58376Y41910D01*
G01X58102Y41547D01*
G01X58239Y41547D01*
G01X58331Y41501D01*
G01X58376Y41455D01*
G01X58422Y41320D01*
G01X58422Y41229D01*
G01X58376Y41092D01*
G01X58285Y41000D01*
G01X58148Y40955D01*
G01X58011Y40955D01*
G01X57876Y41000D01*
G01X57830Y41046D01*
G01X57785Y41138D01*
G01X60370Y41684D02*
G01X60370Y41729D01*
G01X60416Y41818D01*
G01X60462Y41864D01*
G01X60551Y41910D01*
G01X60733Y41910D01*
G01X60825Y41864D01*
G01X60871Y41818D01*
G01X60916Y41729D01*
G01X60916Y41638D01*
G01X60871Y41547D01*
G01X60779Y41409D01*
G01X60325Y40955D01*
G01X60962Y40955D01*
G01X62992Y41729D02*
G01X63083Y41775D01*
G01X63218Y41910D01*
G01X63218Y40955D01*
G01X6858Y27481D02*
G01X6858Y26909D01*
G01X6858Y27481D02*
G01X7104Y27481D01*
G01X7185Y27456D01*
G01X7213Y27428D01*
G01X7239Y27372D01*
G01X7239Y27318D01*
G01X7213Y27262D01*
G01X7185Y27237D01*
G01X7104Y27209D01*
G01X6858Y27209D01*
G01X7048Y27209D02*
G01X7239Y26909D01*
G01X7419Y27481D02*
G01X7419Y26909D01*
G01X7419Y27481D02*
G01X7774Y27481D01*
G01X7419Y27209D02*
G01X7637Y27209D01*
G01X7419Y26909D02*
G01X7774Y26909D01*
G01X8336Y27400D02*
G01X8280Y27456D01*
G01X8199Y27481D01*
G01X8089Y27481D01*
G01X8008Y27456D01*
G01X7955Y27400D01*
G01X7955Y27346D01*
G01X7980Y27290D01*
G01X8008Y27262D01*
G01X8064Y27237D01*
G01X8227Y27181D01*
G01X8280Y27156D01*
G01X8308Y27128D01*
G01X8336Y27072D01*
G01X8336Y26991D01*
G01X8280Y26937D01*
G01X8199Y26909D01*
G01X8089Y26909D01*
G01X8008Y26937D01*
G01X7955Y26991D01*
G01X8516Y27481D02*
G01X8516Y26909D01*
G01X8516Y27481D02*
G01X8869Y27481D01*
G01X8516Y27209D02*
G01X8735Y27209D01*
G01X8516Y26909D02*
G01X8869Y26909D01*
G01X9240Y27481D02*
G01X9240Y26909D01*
G01X9050Y27481D02*
G01X9433Y27481D01*
G54D63*
G01X54897Y40012D02*
G01X54897Y39631D01*
G01X54737Y39915D02*
G01X55054Y39725D01*
G01X55054Y39915D02*
G01X54737Y39725D01*
G01X49817Y40012D02*
G01X49817Y39631D01*
G01X49657Y39915D02*
G01X49974Y39725D01*
G01X49974Y39915D02*
G01X49657Y39725D01*
G01X47277Y40012D02*
G01X47277Y39631D01*
G01X47117Y39915D02*
G01X47434Y39725D01*
G01X47434Y39915D02*
G01X47117Y39725D01*
G01X34450Y40012D02*
G01X34450Y39631D01*
G01X34290Y39915D02*
G01X34607Y39725D01*
G01X34607Y39915D02*
G01X34290Y39725D01*
G01X36990Y40012D02*
G01X36990Y39631D01*
G01X36830Y39915D02*
G01X37147Y39725D01*
G01X37147Y39915D02*
G01X36830Y39725D01*
G01X39657Y40012D02*
G01X39657Y39631D01*
G01X39497Y39915D02*
G01X39814Y39725D01*
G01X39814Y39915D02*
G01X39497Y39725D01*
G54D64*
G01X42164Y38886D02*
G01X42418Y38218D01*
G01X42672Y38886D02*
G01X42418Y38218D01*
G01X42882Y38886D02*
G01X42882Y38218D01*
G01X43093Y38886D02*
G01X43093Y38218D01*
G01X43093Y38886D02*
G01X43538Y38218D01*
G01X43538Y38886D02*
G01X43538Y38218D01*
G01X37434Y38726D02*
G01X37401Y38792D01*
G01X37338Y38855D01*
G01X37274Y38886D01*
G01X37147Y38886D01*
G01X37084Y38855D01*
G01X37020Y38792D01*
G01X36990Y38726D01*
G01X36957Y38632D01*
G01X36957Y38472D01*
G01X36990Y38378D01*
G01X37020Y38314D01*
G01X37084Y38251D01*
G01X37147Y38218D01*
G01X37274Y38218D01*
G01X37338Y38251D01*
G01X37401Y38314D01*
G01X37434Y38378D01*
G01X37434Y38472D01*
G01X37274Y38472D02*
G01X37434Y38472D01*
G01X37645Y38886D02*
G01X37645Y38218D01*
G01X37645Y38886D02*
G01X38089Y38218D01*
G01X38089Y38886D02*
G01X38089Y38218D01*
G01X38300Y38886D02*
G01X38300Y38218D01*
G01X38300Y38886D02*
G01X38521Y38886D01*
G01X38618Y38855D01*
G01X38681Y38792D01*
G01X38712Y38726D01*
G01X38745Y38632D01*
G01X38745Y38472D01*
G01X38712Y38378D01*
G01X38681Y38314D01*
G01X38618Y38251D01*
G01X38521Y38218D01*
G01X38300Y38218D01*
G01X35052Y38886D02*
G01X34734Y38886D01*
G01X34704Y38599D01*
G01X34734Y38632D01*
G01X34831Y38662D01*
G01X34925Y38662D01*
G01X35021Y38632D01*
G01X35085Y38568D01*
G01X35115Y38472D01*
G01X35115Y38408D01*
G01X35085Y38314D01*
G01X35021Y38251D01*
G01X34925Y38218D01*
G01X34831Y38218D01*
G01X34734Y38251D01*
G01X34704Y38281D01*
G01X34671Y38345D01*
G01X35326Y38886D02*
G01X35580Y38218D01*
G01X35834Y38886D02*
G01X35580Y38218D01*
G01X62865Y38886D02*
G01X62611Y38218D01*
G01X62865Y38886D02*
G01X63119Y38218D01*
G01X62707Y38441D02*
G01X63025Y38441D01*
G01X63774Y38886D02*
G01X63456Y38218D01*
G01X63329Y38886D02*
G01X63774Y38886D01*
G01X60452Y38886D02*
G01X60198Y38218D01*
G01X60452Y38886D02*
G01X60706Y38218D01*
G01X60294Y38441D02*
G01X60612Y38441D01*
G01X61297Y38792D02*
G01X61267Y38855D01*
G01X61170Y38886D01*
G01X61107Y38886D01*
G01X61013Y38855D01*
G01X60949Y38759D01*
G01X60916Y38599D01*
G01X60916Y38441D01*
G01X60949Y38314D01*
G01X61013Y38251D01*
G01X61107Y38218D01*
G01X61140Y38218D01*
G01X61234Y38251D01*
G01X61297Y38314D01*
G01X61330Y38408D01*
G01X61330Y38441D01*
G01X61297Y38535D01*
G01X61234Y38599D01*
G01X61140Y38632D01*
G01X61107Y38632D01*
G01X61013Y38599D01*
G01X60949Y38535D01*
G01X60916Y38441D01*
G01X57912Y38886D02*
G01X57658Y38218D01*
G01X57912Y38886D02*
G01X58166Y38218D01*
G01X57754Y38441D02*
G01X58072Y38441D01*
G01X58757Y38886D02*
G01X58440Y38886D01*
G01X58409Y38599D01*
G01X58440Y38632D01*
G01X58536Y38662D01*
G01X58630Y38662D01*
G01X58727Y38632D01*
G01X58790Y38568D01*
G01X58821Y38472D01*
G01X58821Y38408D01*
G01X58790Y38314D01*
G01X58727Y38251D01*
G01X58630Y38218D01*
G01X58536Y38218D01*
G01X58440Y38251D01*
G01X58409Y38281D01*
G01X58376Y38345D01*
G01X55372Y38886D02*
G01X55118Y38218D01*
G01X55372Y38886D02*
G01X55626Y38218D01*
G01X55214Y38441D02*
G01X55532Y38441D01*
G01X56154Y38886D02*
G01X55836Y38441D01*
G01X56314Y38441D01*
G01X56154Y38886D02*
G01X56154Y38218D01*
G01X52832Y38886D02*
G01X52578Y38218D01*
G01X52832Y38886D02*
G01X53086Y38218D01*
G01X52674Y38441D02*
G01X52992Y38441D01*
G01X53360Y38886D02*
G01X53710Y38886D01*
G01X53520Y38632D01*
G01X53614Y38632D01*
G01X53677Y38599D01*
G01X53710Y38568D01*
G01X53741Y38472D01*
G01X53741Y38408D01*
G01X53710Y38314D01*
G01X53647Y38251D01*
G01X53550Y38218D01*
G01X53456Y38218D01*
G01X53360Y38251D01*
G01X53329Y38281D01*
G01X53296Y38345D01*
G01X50292Y38886D02*
G01X50038Y38218D01*
G01X50292Y38886D02*
G01X50546Y38218D01*
G01X50134Y38441D02*
G01X50452Y38441D01*
G01X50789Y38726D02*
G01X50789Y38759D01*
G01X50820Y38822D01*
G01X50853Y38855D01*
G01X50916Y38886D01*
G01X51043Y38886D01*
G01X51107Y38855D01*
G01X51137Y38822D01*
G01X51170Y38759D01*
G01X51170Y38695D01*
G01X51137Y38632D01*
G01X51074Y38535D01*
G01X50756Y38218D01*
G01X51201Y38218D01*
G01X47752Y38886D02*
G01X47498Y38218D01*
G01X47752Y38886D02*
G01X48006Y38218D01*
G01X47594Y38441D02*
G01X47912Y38441D01*
G01X48216Y38759D02*
G01X48280Y38792D01*
G01X48376Y38886D01*
G01X48376Y38218D01*
G01X45085Y38886D02*
G01X44831Y38218D01*
G01X45085Y38886D02*
G01X45339Y38218D01*
G01X44927Y38441D02*
G01X45245Y38441D01*
G01X45740Y38886D02*
G01X45646Y38855D01*
G01X45582Y38759D01*
G01X45549Y38599D01*
G01X45549Y38505D01*
G01X45582Y38345D01*
G01X45646Y38251D01*
G01X45740Y38218D01*
G01X45803Y38218D01*
G01X45900Y38251D01*
G01X45963Y38345D01*
G01X45994Y38505D01*
G01X45994Y38599D01*
G01X45963Y38759D01*
G01X45900Y38855D01*
G01X45803Y38886D01*
G01X45740Y38886D01*
G01X29464Y38886D02*
G01X29464Y38218D01*
G01X29464Y38886D02*
G01X29751Y38886D01*
G01X29845Y38855D01*
G01X29878Y38822D01*
G01X29908Y38759D01*
G01X29908Y38695D01*
G01X29878Y38632D01*
G01X29845Y38599D01*
G01X29751Y38568D01*
G01X29464Y38568D01*
G01X29687Y38568D02*
G01X29908Y38218D01*
G01X30119Y38886D02*
G01X30119Y38218D01*
G01X30119Y38886D02*
G01X30533Y38886D01*
G01X30119Y38568D02*
G01X30373Y38568D01*
G01X30119Y38218D02*
G01X30533Y38218D01*
G01X30744Y38886D02*
G01X30744Y38218D01*
G01X30744Y38886D02*
G01X31155Y38886D01*
G01X30744Y38568D02*
G01X30998Y38568D01*
G01X31940Y38886D02*
G01X32291Y38886D01*
G01X32100Y38632D01*
G01X32194Y38632D01*
G01X32258Y38599D01*
G01X32291Y38568D01*
G01X32321Y38472D01*
G01X32321Y38408D01*
G01X32291Y38314D01*
G01X32227Y38251D01*
G01X32131Y38218D01*
G01X32037Y38218D01*
G01X31940Y38251D01*
G01X31910Y38281D01*
G01X31877Y38345D01*
G01X32532Y38886D02*
G01X32786Y38218D01*
G01X33040Y38886D02*
G01X32786Y38218D01*
G01X33314Y38886D02*
G01X33665Y38886D01*
G01X33474Y38632D01*
G01X33568Y38632D01*
G01X33632Y38599D01*
G01X33665Y38568D01*
G01X33698Y38472D01*
G01X33698Y38408D01*
G01X33665Y38314D01*
G01X33601Y38251D01*
G01X33505Y38218D01*
G01X33411Y38218D01*
G01X33314Y38251D01*
G01X33284Y38281D01*
G01X33251Y38345D01*
G01X29464Y40156D02*
G01X29464Y39488D01*
G01X29464Y40156D02*
G01X29687Y40156D01*
G01X29781Y40125D01*
G01X29845Y40062D01*
G01X29878Y39996D01*
G01X29908Y39902D01*
G01X29908Y39742D01*
G01X29878Y39648D01*
G01X29845Y39584D01*
G01X29781Y39521D01*
G01X29687Y39488D01*
G01X29464Y39488D01*
G01X30119Y40029D02*
G01X30182Y40062D01*
G01X30279Y40156D01*
G01X30279Y39488D01*
G01X30551Y40156D02*
G01X30901Y40156D01*
G01X30711Y39902D01*
G01X30807Y39902D01*
G01X30871Y39869D01*
G01X30901Y39838D01*
G01X30934Y39742D01*
G01X30934Y39678D01*
G01X30901Y39584D01*
G01X30838Y39521D01*
G01X30744Y39488D01*
G01X30647Y39488D01*
G01X30551Y39521D01*
G01X30520Y39551D01*
G01X30487Y39615D01*
G01X32004Y40156D02*
G01X32004Y39488D01*
G01X32004Y40156D02*
G01X32227Y40156D01*
G01X32321Y40125D01*
G01X32385Y40062D01*
G01X32418Y39996D01*
G01X32448Y39902D01*
G01X32448Y39742D01*
G01X32418Y39648D01*
G01X32385Y39584D01*
G01X32321Y39521D01*
G01X32227Y39488D01*
G01X32004Y39488D01*
G01X32659Y40029D02*
G01X32722Y40062D01*
G01X32819Y40156D01*
G01X32819Y39488D01*
G01X33060Y39996D02*
G01X33060Y40029D01*
G01X33091Y40092D01*
G01X33124Y40125D01*
G01X33187Y40156D01*
G01X33314Y40156D01*
G01X33378Y40125D01*
G01X33411Y40092D01*
G01X33441Y40029D01*
G01X33441Y39965D01*
G01X33411Y39902D01*
G01X33347Y39805D01*
G01X33027Y39488D01*
G01X33474Y39488D01*
G01X34772Y40156D02*
G01X34772Y39487D01*
G01X34772Y40156D02*
G01X34996Y40156D01*
G01X35090Y40125D01*
G01X35153Y40062D01*
G01X35186Y39995D01*
G01X35217Y39902D01*
G01X35217Y39741D01*
G01X35186Y39648D01*
G01X35153Y39584D01*
G01X35090Y39521D01*
G01X34996Y39487D01*
G01X34772Y39487D01*
G01X35427Y40029D02*
G01X35491Y40062D01*
G01X35587Y40156D01*
G01X35587Y39487D01*
G01X35796Y40029D02*
G01X35859Y40062D01*
G01X35956Y40156D01*
G01X35956Y39487D01*
G01X37287Y40156D02*
G01X37287Y39487D01*
G01X37287Y40156D02*
G01X37510Y40156D01*
G01X37604Y40125D01*
G01X37668Y40062D01*
G01X37701Y39995D01*
G01X37731Y39902D01*
G01X37731Y39741D01*
G01X37701Y39648D01*
G01X37668Y39584D01*
G01X37604Y39521D01*
G01X37510Y39487D01*
G01X37287Y39487D01*
G01X37942Y40029D02*
G01X38006Y40062D01*
G01X38102Y40156D01*
G01X38102Y39487D01*
G01X38503Y40156D02*
G01X38407Y40125D01*
G01X38343Y40029D01*
G01X38310Y39868D01*
G01X38310Y39775D01*
G01X38343Y39614D01*
G01X38407Y39521D01*
G01X38503Y39487D01*
G01X38567Y39487D01*
G01X38661Y39521D01*
G01X38724Y39614D01*
G01X38757Y39775D01*
G01X38757Y39868D01*
G01X38724Y40029D01*
G01X38661Y40125D01*
G01X38567Y40156D01*
G01X38503Y40156D01*
G01X39979Y40156D02*
G01X39979Y39487D01*
G01X39979Y40156D02*
G01X40203Y40156D01*
G01X40297Y40125D01*
G01X40360Y40062D01*
G01X40393Y39995D01*
G01X40424Y39902D01*
G01X40424Y39741D01*
G01X40393Y39648D01*
G01X40360Y39584D01*
G01X40297Y39521D01*
G01X40203Y39487D01*
G01X39979Y39487D01*
G01X41048Y39932D02*
G01X41015Y39838D01*
G01X40952Y39775D01*
G01X40858Y39741D01*
G01X40825Y39741D01*
G01X40731Y39775D01*
G01X40667Y39838D01*
G01X40634Y39932D01*
G01X40634Y39965D01*
G01X40667Y40062D01*
G01X40731Y40125D01*
G01X40825Y40156D01*
G01X40858Y40156D01*
G01X40952Y40125D01*
G01X41015Y40062D01*
G01X41048Y39932D01*
G01X41048Y39775D01*
G01X41015Y39614D01*
G01X40952Y39521D01*
G01X40858Y39487D01*
G01X40794Y39487D01*
G01X40698Y39521D01*
G01X40667Y39584D01*
G01X42291Y40156D02*
G01X42291Y39488D01*
G01X42291Y40156D02*
G01X42514Y40156D01*
G01X42608Y40125D01*
G01X42672Y40062D01*
G01X42705Y39996D01*
G01X42735Y39902D01*
G01X42735Y39742D01*
G01X42705Y39648D01*
G01X42672Y39584D01*
G01X42608Y39521D01*
G01X42514Y39488D01*
G01X42291Y39488D01*
G01X43106Y40156D02*
G01X43009Y40125D01*
G01X42979Y40062D01*
G01X42979Y39996D01*
G01X43009Y39932D01*
G01X43073Y39902D01*
G01X43200Y39869D01*
G01X43296Y39838D01*
G01X43360Y39775D01*
G01X43390Y39711D01*
G01X43390Y39615D01*
G01X43360Y39551D01*
G01X43327Y39521D01*
G01X43233Y39488D01*
G01X43106Y39488D01*
G01X43009Y39521D01*
G01X42979Y39551D01*
G01X42946Y39615D01*
G01X42946Y39711D01*
G01X42979Y39775D01*
G01X43042Y39838D01*
G01X43136Y39869D01*
G01X43263Y39902D01*
G01X43327Y39932D01*
G01X43360Y39996D01*
G01X43360Y40062D01*
G01X43327Y40125D01*
G01X43233Y40156D01*
G01X43106Y40156D01*
G01X44958Y40156D02*
G01X44958Y39488D01*
G01X44958Y40156D02*
G01X45181Y40156D01*
G01X45275Y40125D01*
G01X45339Y40062D01*
G01X45372Y39996D01*
G01X45402Y39902D01*
G01X45402Y39742D01*
G01X45372Y39648D01*
G01X45339Y39584D01*
G01X45275Y39521D01*
G01X45181Y39488D01*
G01X44958Y39488D01*
G01X46057Y40156D02*
G01X45740Y39488D01*
G01X45613Y40156D02*
G01X46057Y40156D01*
G01X47625Y40156D02*
G01X47625Y39487D01*
G01X47625Y40156D02*
G01X47848Y40156D01*
G01X47942Y40125D01*
G01X48006Y40062D01*
G01X48039Y39995D01*
G01X48069Y39902D01*
G01X48069Y39741D01*
G01X48039Y39648D01*
G01X48006Y39584D01*
G01X47942Y39521D01*
G01X47848Y39487D01*
G01X47625Y39487D01*
G01X48661Y40062D02*
G01X48630Y40125D01*
G01X48534Y40156D01*
G01X48470Y40156D01*
G01X48376Y40125D01*
G01X48313Y40029D01*
G01X48280Y39868D01*
G01X48280Y39711D01*
G01X48313Y39584D01*
G01X48376Y39521D01*
G01X48470Y39487D01*
G01X48503Y39487D01*
G01X48597Y39521D01*
G01X48661Y39584D01*
G01X48694Y39678D01*
G01X48694Y39711D01*
G01X48661Y39805D01*
G01X48597Y39868D01*
G01X48503Y39902D01*
G01X48470Y39902D01*
G01X48376Y39868D01*
G01X48313Y39805D01*
G01X48280Y39711D01*
G01X50215Y40156D02*
G01X50215Y39487D01*
G01X50215Y40156D02*
G01X50439Y40156D01*
G01X50533Y40125D01*
G01X50596Y40062D01*
G01X50629Y39995D01*
G01X50660Y39902D01*
G01X50660Y39741D01*
G01X50629Y39648D01*
G01X50596Y39584D01*
G01X50533Y39521D01*
G01X50439Y39487D01*
G01X50215Y39487D01*
G01X51252Y40156D02*
G01X50934Y40156D01*
G01X50904Y39868D01*
G01X50934Y39902D01*
G01X51031Y39932D01*
G01X51125Y39932D01*
G01X51221Y39902D01*
G01X51285Y39838D01*
G01X51315Y39741D01*
G01X51315Y39678D01*
G01X51285Y39584D01*
G01X51221Y39521D01*
G01X51125Y39487D01*
G01X51031Y39487D01*
G01X50934Y39521D01*
G01X50904Y39551D01*
G01X50871Y39614D01*
G01X52578Y40156D02*
G01X52578Y39488D01*
G01X52578Y40156D02*
G01X52801Y40156D01*
G01X52895Y40125D01*
G01X52959Y40062D01*
G01X52992Y39996D01*
G01X53022Y39902D01*
G01X53022Y39742D01*
G01X52992Y39648D01*
G01X52959Y39584D01*
G01X52895Y39521D01*
G01X52801Y39488D01*
G01X52578Y39488D01*
G01X53550Y40156D02*
G01X53233Y39711D01*
G01X53710Y39711D01*
G01X53550Y40156D02*
G01X53550Y39488D01*
G01X55270Y40156D02*
G01X55270Y39487D01*
G01X55270Y40156D02*
G01X55493Y40156D01*
G01X55587Y40125D01*
G01X55651Y40062D01*
G01X55684Y39995D01*
G01X55714Y39902D01*
G01X55714Y39741D01*
G01X55684Y39648D01*
G01X55651Y39584D01*
G01X55587Y39521D01*
G01X55493Y39487D01*
G01X55270Y39487D01*
G01X55989Y40156D02*
G01X56339Y40156D01*
G01X56149Y39902D01*
G01X56243Y39902D01*
G01X56306Y39868D01*
G01X56339Y39838D01*
G01X56370Y39741D01*
G01X56370Y39678D01*
G01X56339Y39584D01*
G01X56276Y39521D01*
G01X56179Y39487D01*
G01X56085Y39487D01*
G01X55989Y39521D01*
G01X55958Y39551D01*
G01X55925Y39614D01*
G01X57658Y40156D02*
G01X57658Y39488D01*
G01X57658Y40156D02*
G01X57881Y40156D01*
G01X57975Y40125D01*
G01X58039Y40062D01*
G01X58072Y39996D01*
G01X58102Y39902D01*
G01X58102Y39742D01*
G01X58072Y39648D01*
G01X58039Y39584D01*
G01X57975Y39521D01*
G01X57881Y39488D01*
G01X57658Y39488D01*
G01X58346Y39996D02*
G01X58346Y40029D01*
G01X58376Y40092D01*
G01X58409Y40125D01*
G01X58473Y40156D01*
G01X58600Y40156D01*
G01X58663Y40125D01*
G01X58694Y40092D01*
G01X58727Y40029D01*
G01X58727Y39965D01*
G01X58694Y39902D01*
G01X58630Y39805D01*
G01X58313Y39488D01*
G01X58757Y39488D01*
G01X27274Y39996D02*
G01X27241Y40062D01*
G01X27178Y40125D01*
G01X27114Y40156D01*
G01X26987Y40156D01*
G01X26924Y40125D01*
G01X26860Y40062D01*
G01X26830Y39996D01*
G01X26797Y39902D01*
G01X26797Y39742D01*
G01X26830Y39648D01*
G01X26860Y39584D01*
G01X26924Y39521D01*
G01X26987Y39488D01*
G01X27114Y39488D01*
G01X27178Y39521D01*
G01X27241Y39584D01*
G01X27274Y39648D01*
G01X27274Y39742D01*
G01X27114Y39742D02*
G01X27274Y39742D01*
G01X27485Y40156D02*
G01X27485Y39488D01*
G01X27485Y40156D02*
G01X27929Y39488D01*
G01X27929Y40156D02*
G01X27929Y39488D01*
G01X28140Y40156D02*
G01X28140Y39488D01*
G01X28140Y40156D02*
G01X28361Y40156D01*
G01X28458Y40125D01*
G01X28521Y40062D01*
G01X28552Y39996D01*
G01X28585Y39902D01*
G01X28585Y39742D01*
G01X28552Y39648D01*
G01X28521Y39584D01*
G01X28458Y39521D01*
G01X28361Y39488D01*
G01X28140Y39488D01*
G01X26797Y38886D02*
G01X26797Y38218D01*
G01X26797Y38886D02*
G01X27084Y38886D01*
G01X27178Y38855D01*
G01X27211Y38822D01*
G01X27241Y38759D01*
G01X27241Y38695D01*
G01X27211Y38632D01*
G01X27178Y38599D01*
G01X27084Y38568D01*
G01X26797Y38568D01*
G01X27020Y38568D02*
G01X27241Y38218D01*
G01X27896Y38792D02*
G01X27833Y38855D01*
G01X27739Y38886D01*
G01X27612Y38886D01*
G01X27515Y38855D01*
G01X27452Y38792D01*
G01X27452Y38726D01*
G01X27485Y38662D01*
G01X27515Y38632D01*
G01X27579Y38599D01*
G01X27769Y38535D01*
G01X27833Y38505D01*
G01X27866Y38472D01*
G01X27896Y38408D01*
G01X27896Y38314D01*
G01X27833Y38251D01*
G01X27739Y38218D01*
G01X27612Y38218D01*
G01X27515Y38251D01*
G01X27452Y38314D01*
G01X28331Y38886D02*
G01X28331Y38218D01*
G01X28107Y38886D02*
G01X28552Y38886D01*
G01X62357Y40156D02*
G01X62357Y39488D01*
G01X62357Y40156D02*
G01X62644Y40156D01*
G01X62738Y40125D01*
G01X62771Y40092D01*
G01X62801Y40029D01*
G01X62801Y39965D01*
G01X62771Y39902D01*
G01X62738Y39869D01*
G01X62644Y39838D01*
G01X62357Y39838D01*
G01X62580Y39838D02*
G01X62801Y39488D01*
G01X63012Y40156D02*
G01X63456Y39488D01*
G01X63456Y40156D02*
G01X63012Y39488D01*
G01X63858Y40156D02*
G01X63764Y40125D01*
G01X63700Y40029D01*
G01X63667Y39869D01*
G01X63667Y39775D01*
G01X63700Y39615D01*
G01X63764Y39521D01*
G01X63858Y39488D01*
G01X63921Y39488D01*
G01X64018Y39521D01*
G01X64081Y39615D01*
G01X64112Y39775D01*
G01X64112Y39869D01*
G01X64081Y40029D01*
G01X64018Y40125D01*
G01X63921Y40156D01*
G01X63858Y40156D01*
G01X60040Y40156D02*
G01X60040Y39488D01*
G01X59817Y40156D02*
G01X60261Y40156D01*
G01X60472Y40156D02*
G01X60916Y39488D01*
G01X60916Y40156D02*
G01X60472Y39488D01*
G01X61127Y40029D02*
G01X61191Y40062D01*
G01X61287Y40156D01*
G01X61287Y39488D01*
G01X39974Y38726D02*
G01X39941Y38792D01*
G01X39878Y38855D01*
G01X39814Y38886D01*
G01X39687Y38886D01*
G01X39624Y38855D01*
G01X39560Y38792D01*
G01X39530Y38726D01*
G01X39497Y38632D01*
G01X39497Y38472D01*
G01X39530Y38378D01*
G01X39560Y38314D01*
G01X39624Y38251D01*
G01X39687Y38218D01*
G01X39814Y38218D01*
G01X39878Y38251D01*
G01X39941Y38314D01*
G01X39974Y38378D01*
G01X39974Y38472D01*
G01X39814Y38472D02*
G01X39974Y38472D01*
G01X40185Y38886D02*
G01X40185Y38218D01*
G01X40185Y38886D02*
G01X40629Y38218D01*
G01X40629Y38886D02*
G01X40629Y38218D01*
G01X40840Y38886D02*
G01X40840Y38218D01*
G01X40840Y38886D02*
G01X41061Y38886D01*
G01X41158Y38855D01*
G01X41221Y38792D01*
G01X41252Y38726D01*
G01X41285Y38632D01*
G01X41285Y38472D01*
G01X41252Y38378D01*
G01X41221Y38314D01*
G01X41158Y38251D01*
G01X41061Y38218D01*
G01X40840Y38218D01*
G01X31305Y33712D02*
G01X31242Y33775D01*
G01X31148Y33806D01*
G01X31021Y33806D01*
G01X30924Y33775D01*
G01X30861Y33712D01*
G01X30861Y33646D01*
G01X30894Y33582D01*
G01X30924Y33552D01*
G01X30988Y33519D01*
G01X31178Y33455D01*
G01X31242Y33425D01*
G01X31275Y33392D01*
G01X31305Y33328D01*
G01X31305Y33234D01*
G01X31242Y33171D01*
G01X31148Y33138D01*
G01X31021Y33138D01*
G01X30924Y33171D01*
G01X30861Y33234D01*
G01X31516Y33806D02*
G01X31516Y33138D01*
G01X31516Y33806D02*
G01X31803Y33806D01*
G01X31897Y33775D01*
G01X31930Y33742D01*
G01X31960Y33679D01*
G01X31960Y33582D01*
G01X31930Y33519D01*
G01X31897Y33488D01*
G01X31803Y33455D01*
G01X31516Y33455D01*
G01X32235Y33806D02*
G01X32585Y33806D01*
G01X32395Y33552D01*
G01X32489Y33552D01*
G01X32552Y33519D01*
G01X32585Y33488D01*
G01X32616Y33392D01*
G01X32616Y33328D01*
G01X32585Y33234D01*
G01X32522Y33171D01*
G01X32425Y33138D01*
G01X32331Y33138D01*
G01X32235Y33171D01*
G01X32204Y33201D01*
G01X32171Y33265D01*
G01X32859Y33646D02*
G01X32859Y33679D01*
G01X32890Y33742D01*
G01X32923Y33775D01*
G01X32986Y33806D01*
G01X33113Y33806D01*
G01X33177Y33775D01*
G01X33207Y33742D01*
G01X33240Y33679D01*
G01X33240Y33615D01*
G01X33207Y33552D01*
G01X33144Y33455D01*
G01X32826Y33138D01*
G01X33274Y33138D01*
G01X33545Y33806D02*
G01X33896Y33806D01*
G01X33705Y33552D01*
G01X33799Y33552D01*
G01X33865Y33519D01*
G01X33896Y33488D01*
G01X33929Y33392D01*
G01X33929Y33328D01*
G01X33896Y33234D01*
G01X33832Y33171D01*
G01X33736Y33138D01*
G01X33642Y33138D01*
G01X33545Y33171D01*
G01X33515Y33201D01*
G01X33482Y33265D01*
G01X34170Y33646D02*
G01X34170Y33679D01*
G01X34201Y33742D01*
G01X34234Y33775D01*
G01X34297Y33806D01*
G01X34424Y33806D01*
G01X34488Y33775D01*
G01X34521Y33742D01*
G01X34551Y33679D01*
G01X34551Y33615D01*
G01X34521Y33552D01*
G01X34457Y33455D01*
G01X34137Y33138D01*
G01X34584Y33138D01*
G01X34792Y33806D02*
G01X34792Y33138D01*
G01X34792Y33806D02*
G01X35206Y33806D01*
G01X34792Y33488D02*
G01X35049Y33488D01*
G01X34792Y33138D02*
G01X35206Y33138D01*
G01X35417Y33806D02*
G01X35417Y33138D01*
G01X35417Y33806D02*
G01X35831Y33806D01*
G01X35417Y33488D02*
G01X35671Y33488D01*
G01X35417Y33138D02*
G01X35831Y33138D01*
G01X36040Y33806D02*
G01X36040Y33138D01*
G01X36040Y33806D02*
G01X36487Y33138D01*
G01X36487Y33806D02*
G01X36487Y33138D01*
G01X36695Y33425D02*
G01X37269Y33425D01*
G01X37480Y33806D02*
G01X37480Y33138D01*
G01X37480Y33138D02*
G01X37861Y33138D01*
G01X38643Y33933D02*
G01X38072Y32914D01*
G01X39075Y33806D02*
G01X39075Y33138D01*
G01X38854Y33806D02*
G01X39298Y33806D01*
G01X39509Y33806D02*
G01X39509Y33138D01*
G01X39509Y33806D02*
G01X39796Y33806D01*
G01X39890Y33775D01*
G01X39923Y33742D01*
G01X39954Y33679D01*
G01X39954Y33615D01*
G01X39923Y33552D01*
G01X39890Y33519D01*
G01X39796Y33488D01*
G01X39509Y33488D01*
G01X39730Y33488D02*
G01X39954Y33138D01*
G01X44704Y33806D02*
G01X44704Y33138D01*
G01X44704Y33806D02*
G01X44958Y33138D01*
G01X45212Y33806D02*
G01X44958Y33138D01*
G01X45212Y33806D02*
G01X45212Y33138D01*
G01X45676Y33806D02*
G01X45422Y33138D01*
G01X45676Y33806D02*
G01X45933Y33138D01*
G01X45519Y33361D02*
G01X45836Y33361D01*
G01X46141Y33806D02*
G01X46588Y33138D01*
G01X46588Y33806D02*
G01X46141Y33138D01*
G01X46860Y33806D02*
G01X47210Y33806D01*
G01X47020Y33552D01*
G01X47117Y33552D01*
G01X47180Y33519D01*
G01X47210Y33488D01*
G01X47244Y33392D01*
G01X47244Y33328D01*
G01X47210Y33234D01*
G01X47147Y33171D01*
G01X47050Y33138D01*
G01X46956Y33138D01*
G01X46860Y33171D01*
G01X46829Y33201D01*
G01X46796Y33265D01*
G01X47485Y33646D02*
G01X47485Y33679D01*
G01X47515Y33742D01*
G01X47548Y33775D01*
G01X47612Y33806D01*
G01X47739Y33806D01*
G01X47802Y33775D01*
G01X47835Y33742D01*
G01X47866Y33679D01*
G01X47866Y33615D01*
G01X47835Y33552D01*
G01X47772Y33455D01*
G01X47452Y33138D01*
G01X47899Y33138D01*
G01X48427Y33806D02*
G01X48107Y33361D01*
G01X48585Y33361D01*
G01X48427Y33806D02*
G01X48427Y33138D01*
G01X48859Y33806D02*
G01X49209Y33806D01*
G01X49019Y33552D01*
G01X49113Y33552D01*
G01X49176Y33519D01*
G01X49209Y33488D01*
G01X49240Y33392D01*
G01X49240Y33328D01*
G01X49209Y33234D01*
G01X49146Y33171D01*
G01X49049Y33138D01*
G01X48955Y33138D01*
G01X48859Y33171D01*
G01X48826Y33201D01*
G01X48795Y33265D01*
G01X11049Y38124D02*
G01X10795Y37456D01*
G01X11049Y38124D02*
G01X11303Y37456D01*
G01X10891Y37679D02*
G01X11209Y37679D01*
G01X11737Y38124D02*
G01X11737Y37456D01*
G01X11513Y38124D02*
G01X11958Y38124D01*
G01X12169Y38124D02*
G01X12169Y37456D01*
G01X12169Y38124D02*
G01X12423Y37456D01*
G01X12679Y38124D02*
G01X12423Y37456D01*
G01X12679Y38124D02*
G01X12679Y37456D01*
G01X12887Y38124D02*
G01X12887Y37456D01*
G01X12887Y38124D02*
G01X13301Y38124D01*
G01X12887Y37806D02*
G01X13141Y37806D01*
G01X12887Y37456D02*
G01X13301Y37456D01*
G01X13990Y37964D02*
G01X13957Y38030D01*
G01X13893Y38093D01*
G01X13830Y38124D01*
G01X13703Y38124D01*
G01X13639Y38093D01*
G01X13576Y38030D01*
G01X13543Y37964D01*
G01X13512Y37870D01*
G01X13512Y37710D01*
G01X13543Y37616D01*
G01X13576Y37552D01*
G01X13639Y37489D01*
G01X13703Y37456D01*
G01X13830Y37456D01*
G01X13893Y37489D01*
G01X13957Y37552D01*
G01X13990Y37616D01*
G01X13990Y37710D01*
G01X13830Y37710D02*
G01X13990Y37710D01*
G01X14455Y38124D02*
G01X14198Y37456D01*
G01X14455Y38124D02*
G01X14709Y37456D01*
G01X14295Y37679D02*
G01X14612Y37679D01*
G01X14983Y38124D02*
G01X15331Y38124D01*
G01X15140Y37870D01*
G01X15237Y37870D01*
G01X15300Y37837D01*
G01X15331Y37806D01*
G01X15364Y37710D01*
G01X15364Y37646D01*
G01X15331Y37552D01*
G01X15267Y37489D01*
G01X15173Y37456D01*
G01X15077Y37456D01*
G01X14983Y37489D01*
G01X14950Y37519D01*
G01X14917Y37583D01*
G01X15605Y37964D02*
G01X15605Y37997D01*
G01X15638Y38060D01*
G01X15669Y38093D01*
G01X15732Y38124D01*
G01X15859Y38124D01*
G01X15923Y38093D01*
G01X15956Y38060D01*
G01X15986Y37997D01*
G01X15986Y37933D01*
G01X15956Y37870D01*
G01X15892Y37773D01*
G01X15575Y37456D01*
G01X16019Y37456D01*
G01X16388Y38124D02*
G01X16294Y38093D01*
G01X16261Y38030D01*
G01X16261Y37964D01*
G01X16294Y37900D01*
G01X16357Y37870D01*
G01X16484Y37837D01*
G01X16578Y37806D01*
G01X16642Y37743D01*
G01X16675Y37679D01*
G01X16675Y37583D01*
G01X16642Y37519D01*
G01X16611Y37489D01*
G01X16515Y37456D01*
G01X16388Y37456D01*
G01X16294Y37489D01*
G01X16261Y37519D01*
G01X16230Y37583D01*
G01X16230Y37679D01*
G01X16261Y37743D01*
G01X16324Y37806D01*
G01X16421Y37837D01*
G01X16548Y37870D01*
G01X16611Y37900D01*
G01X16642Y37964D01*
G01X16642Y38030D01*
G01X16611Y38093D01*
G01X16515Y38124D01*
G01X16388Y38124D01*
G01X16885Y38124D02*
G01X16885Y37456D01*
G01X16885Y38124D02*
G01X17170Y38124D01*
G01X17266Y38093D01*
G01X17297Y38060D01*
G01X17330Y37997D01*
G01X17330Y37900D01*
G01X17297Y37837D01*
G01X17266Y37806D01*
G01X17170Y37773D01*
G01X16885Y37773D01*
G01X54452Y22343D02*
G01X54419Y22409D01*
G01X54356Y22472D01*
G01X54292Y22503D01*
G01X54165Y22503D01*
G01X54102Y22472D01*
G01X54038Y22409D01*
G01X54008Y22343D01*
G01X53975Y22249D01*
G01X53975Y22089D01*
G01X54008Y21995D01*
G01X54038Y21931D01*
G01X54102Y21868D01*
G01X54165Y21835D01*
G01X54292Y21835D01*
G01X54356Y21868D01*
G01X54419Y21931D01*
G01X54452Y21995D01*
G01X54663Y22503D02*
G01X54663Y21835D01*
G01X55107Y22503D02*
G01X55107Y21835D01*
G01X54663Y22185D02*
G01X55107Y22185D01*
G01X55382Y22503D02*
G01X55730Y22503D01*
G01X55539Y22249D01*
G01X55636Y22249D01*
G01X55699Y22216D01*
G01X55730Y22185D01*
G01X55763Y22089D01*
G01X55763Y22025D01*
G01X55730Y21931D01*
G01X55666Y21868D01*
G01X55572Y21835D01*
G01X55476Y21835D01*
G01X55382Y21868D01*
G01X55349Y21898D01*
G01X55318Y21962D01*
G01X56131Y22503D02*
G01X56037Y22472D01*
G01X56004Y22409D01*
G01X56004Y22343D01*
G01X56037Y22279D01*
G01X56100Y22249D01*
G01X56227Y22216D01*
G01X56321Y22185D01*
G01X56388Y22122D01*
G01X56418Y22058D01*
G01X56418Y21962D01*
G01X56388Y21898D01*
G01X56354Y21868D01*
G01X56258Y21835D01*
G01X56131Y21835D01*
G01X56037Y21868D01*
G01X56004Y21898D01*
G01X55973Y21962D01*
G01X55973Y22058D01*
G01X56004Y22122D01*
G01X56067Y22185D01*
G01X56164Y22216D01*
G01X56291Y22249D01*
G01X56354Y22279D01*
G01X56388Y22343D01*
G01X56388Y22409D01*
G01X56354Y22472D01*
G01X56258Y22503D01*
G01X56131Y22503D01*
G01X56659Y22343D02*
G01X56659Y22376D01*
G01X56692Y22439D01*
G01X56723Y22472D01*
G01X56786Y22503D01*
G01X56913Y22503D01*
G01X56979Y22472D01*
G01X57010Y22439D01*
G01X57043Y22376D01*
G01X57043Y22312D01*
G01X57010Y22249D01*
G01X56946Y22152D01*
G01X56629Y21835D01*
G01X57073Y21835D01*
G01X57284Y22503D02*
G01X57284Y21835D01*
G01X57284Y21835D02*
G01X57665Y21835D01*
G01X20066Y13638D02*
G01X20066Y13066D01*
G01X20447Y13638D02*
G01X20447Y13066D01*
G01X20066Y13366D02*
G01X20447Y13366D01*
G01X20792Y13638D02*
G01X20736Y13613D01*
G01X20683Y13557D01*
G01X20655Y13503D01*
G01X20627Y13419D01*
G01X20627Y13285D01*
G01X20655Y13204D01*
G01X20683Y13148D01*
G01X20736Y13094D01*
G01X20792Y13066D01*
G01X20901Y13066D01*
G01X20955Y13094D01*
G01X21010Y13148D01*
G01X21036Y13204D01*
G01X21064Y13285D01*
G01X21064Y13419D01*
G01X21036Y13503D01*
G01X21010Y13557D01*
G01X20955Y13613D01*
G01X20901Y13638D01*
G01X20792Y13638D01*
G01X21625Y13557D02*
G01X21572Y13613D01*
G01X21488Y13638D01*
G01X21381Y13638D01*
G01X21297Y13613D01*
G01X21244Y13557D01*
G01X21244Y13503D01*
G01X21272Y13447D01*
G01X21297Y13419D01*
G01X21353Y13394D01*
G01X21516Y13338D01*
G01X21572Y13313D01*
G01X21597Y13285D01*
G01X21625Y13229D01*
G01X21625Y13148D01*
G01X21572Y13094D01*
G01X21488Y13066D01*
G01X21381Y13066D01*
G01X21297Y13094D01*
G01X21244Y13148D01*
G01X21996Y13638D02*
G01X21996Y13066D01*
G01X21805Y13638D02*
G01X22186Y13638D01*
G01X16728Y13639D02*
G01X16509Y13065D01*
G01X16728Y13639D02*
G01X16946Y13065D01*
G01X16591Y13258D02*
G01X16865Y13258D01*
G01X17126Y13639D02*
G01X17126Y13230D01*
G01X17154Y13149D01*
G01X17208Y13093D01*
G01X17289Y13065D01*
G01X17345Y13065D01*
G01X17426Y13093D01*
G01X17480Y13149D01*
G01X17507Y13230D01*
G01X17507Y13639D01*
G01X17688Y13639D02*
G01X18069Y13065D01*
G01X18069Y13639D02*
G01X17688Y13065D01*
G54D18*
G01X36054Y25440D02*
G01X36027Y25495D01*
G01X35973Y25550D01*
G01X35918Y25577D01*
G01X35809Y25577D01*
G01X35754Y25550D01*
G01X35700Y25495D01*
G01X35673Y25440D01*
G01X35645Y25359D01*
G01X35645Y25222D01*
G01X35673Y25140D01*
G01X35700Y25086D01*
G01X35754Y25031D01*
G01X35809Y25004D01*
G01X35918Y25004D01*
G01X35973Y25031D01*
G01X36027Y25086D01*
G01X36054Y25140D01*
G01X36234Y25468D02*
G01X36289Y25495D01*
G01X36371Y25577D01*
G01X36371Y25004D01*
G01X36714Y25577D02*
G01X36632Y25550D01*
G01X36578Y25468D01*
G01X36551Y25331D01*
G01X36551Y25250D01*
G01X36578Y25113D01*
G01X36632Y25031D01*
G01X36714Y25004D01*
G01X36769Y25004D01*
G01X36851Y25031D01*
G01X36905Y25113D01*
G01X36932Y25250D01*
G01X36932Y25331D01*
G01X36905Y25468D01*
G01X36851Y25550D01*
G01X36769Y25577D01*
G01X36714Y25577D01*
G01X37276Y25577D02*
G01X37194Y25550D01*
G01X37140Y25468D01*
G01X37113Y25331D01*
G01X37113Y25250D01*
G01X37140Y25113D01*
G01X37194Y25031D01*
G01X37276Y25004D01*
G01X37331Y25004D01*
G01X37413Y25031D01*
G01X37467Y25113D01*
G01X37494Y25250D01*
G01X37494Y25331D01*
G01X37467Y25468D01*
G01X37413Y25550D01*
G01X37331Y25577D01*
G01X37276Y25577D01*
G01X37674Y25577D02*
G01X37674Y25004D01*
G01X37674Y25577D02*
G01X38056Y25004D01*
G01X38056Y25577D02*
G01X38056Y25004D01*
G01X38236Y25577D02*
G01X38236Y25004D01*
G01X38236Y25577D02*
G01X38591Y25577D01*
G01X38236Y25304D02*
G01X38454Y25304D01*
G01X18590Y23486D02*
G01X18517Y23447D01*
G01X18443Y23376D01*
G01X18407Y23303D01*
G01X18407Y23158D01*
G01X18443Y23084D01*
G01X18517Y23013D01*
G01X18590Y22975D01*
G01X18699Y22939D01*
G01X18880Y22939D01*
G01X18989Y22975D01*
G01X19063Y23013D01*
G01X19136Y23084D01*
G01X19172Y23158D01*
G01X19172Y23303D01*
G01X19136Y23376D01*
G01X19063Y23447D01*
G01X18989Y23486D01*
G01X18552Y23724D02*
G01X18517Y23798D01*
G01X18407Y23907D01*
G01X19172Y23907D01*
G01X18407Y24364D02*
G01X18443Y24255D01*
G01X18552Y24184D01*
G01X18735Y24146D01*
G01X18844Y24146D01*
G01X19027Y24184D01*
G01X19136Y24255D01*
G01X19172Y24364D01*
G01X19172Y24438D01*
G01X19136Y24547D01*
G01X19027Y24618D01*
G01X18844Y24656D01*
G01X18735Y24656D01*
G01X18552Y24618D01*
G01X18443Y24547D01*
G01X18407Y24438D01*
G01X18407Y24364D01*
G01X18407Y24895D02*
G01X18953Y24895D01*
G01X19063Y24933D01*
G01X19136Y25004D01*
G01X19172Y25114D01*
G01X19172Y25187D01*
G01X19136Y25297D01*
G01X19063Y25368D01*
G01X18953Y25406D01*
G01X18407Y25406D01*
G01X18407Y25645D02*
G01X19172Y25645D01*
G01X18407Y25645D02*
G01X18407Y26117D01*
G01X18771Y25645D02*
G01X18771Y25937D01*
G01X40792Y16453D02*
G01X40755Y16526D01*
G01X40682Y16598D01*
G01X40610Y16635D01*
G01X40464Y16635D01*
G01X40392Y16598D01*
G01X40319Y16526D01*
G01X40282Y16453D01*
G01X40246Y16344D01*
G01X40246Y16162D01*
G01X40282Y16053D01*
G01X40319Y15980D01*
G01X40392Y15907D01*
G01X40464Y15871D01*
G01X40610Y15871D01*
G01X40682Y15907D01*
G01X40755Y15980D01*
G01X40792Y16053D01*
G01X41031Y16489D02*
G01X41104Y16526D01*
G01X41213Y16635D01*
G01X41213Y15871D01*
G01X41672Y16635D02*
G01X41562Y16598D01*
G01X41490Y16489D01*
G01X41453Y16307D01*
G01X41453Y16198D01*
G01X41490Y16017D01*
G01X41562Y15907D01*
G01X41672Y15871D01*
G01X41744Y15871D01*
G01X41853Y15907D01*
G01X41926Y16017D01*
G01X41962Y16198D01*
G01X41962Y16307D01*
G01X41926Y16489D01*
G01X41853Y16598D01*
G01X41744Y16635D01*
G01X41672Y16635D01*
G01X42421Y16635D02*
G01X42312Y16598D01*
G01X42239Y16489D01*
G01X42202Y16307D01*
G01X42202Y16198D01*
G01X42239Y16017D01*
G01X42312Y15907D01*
G01X42421Y15871D01*
G01X42493Y15871D01*
G01X42602Y15907D01*
G01X42675Y16017D01*
G01X42712Y16198D01*
G01X42712Y16307D01*
G01X42675Y16489D01*
G01X42602Y16598D01*
G01X42493Y16635D01*
G01X42421Y16635D01*
G01X42952Y16635D02*
G01X42952Y16089D01*
G01X42988Y15980D01*
G01X43061Y15907D01*
G01X43170Y15871D01*
G01X43242Y15871D01*
G01X43352Y15907D01*
G01X43424Y15980D01*
G01X43461Y16089D01*
G01X43461Y16635D01*
G01X43701Y16635D02*
G01X43701Y15871D01*
G01X43701Y16635D02*
G01X44173Y16635D01*
G01X43701Y16271D02*
G01X43992Y16271D01*
G01X33068Y17644D02*
G01X32995Y17605D01*
G01X32921Y17534D01*
G01X32885Y17461D01*
G01X32885Y17316D01*
G01X32921Y17242D01*
G01X32995Y17171D01*
G01X33068Y17133D01*
G01X33177Y17097D01*
G01X33358Y17097D01*
G01X33467Y17133D01*
G01X33541Y17171D01*
G01X33614Y17242D01*
G01X33650Y17316D01*
G01X33650Y17461D01*
G01X33614Y17534D01*
G01X33541Y17605D01*
G01X33467Y17644D01*
G01X33030Y17882D02*
G01X32995Y17956D01*
G01X32885Y18065D01*
G01X33650Y18065D01*
G01X32885Y18522D02*
G01X32921Y18413D01*
G01X33030Y18342D01*
G01X33213Y18304D01*
G01X33322Y18304D01*
G01X33505Y18342D01*
G01X33614Y18413D01*
G01X33650Y18522D01*
G01X33650Y18596D01*
G01X33614Y18705D01*
G01X33505Y18776D01*
G01X33322Y18814D01*
G01X33213Y18814D01*
G01X33030Y18776D01*
G01X32921Y18705D01*
G01X32885Y18596D01*
G01X32885Y18522D01*
G01X32885Y19053D02*
G01X33431Y19053D01*
G01X33541Y19091D01*
G01X33614Y19162D01*
G01X33650Y19272D01*
G01X33650Y19345D01*
G01X33614Y19455D01*
G01X33541Y19526D01*
G01X33431Y19564D01*
G01X32885Y19564D01*
G01X32885Y19803D02*
G01X33650Y19803D01*
G01X32885Y19803D02*
G01X32885Y20275D01*
G01X33249Y19803D02*
G01X33249Y20095D01*
G01X15780Y48300D02*
G01X15752Y48355D01*
G01X15698Y48410D01*
G01X15643Y48437D01*
G01X15534Y48437D01*
G01X15480Y48410D01*
G01X15425Y48355D01*
G01X15398Y48300D01*
G01X15371Y48219D01*
G01X15371Y48082D01*
G01X15398Y48000D01*
G01X15425Y47946D01*
G01X15480Y47891D01*
G01X15534Y47864D01*
G01X15643Y47864D01*
G01X15698Y47891D01*
G01X15752Y47946D01*
G01X15780Y48000D01*
G01X15960Y48328D02*
G01X16014Y48355D01*
G01X16096Y48437D01*
G01X16096Y47864D01*
G01X16440Y48437D02*
G01X16358Y48410D01*
G01X16303Y48328D01*
G01X16276Y48191D01*
G01X16276Y48110D01*
G01X16303Y47973D01*
G01X16358Y47891D01*
G01X16440Y47864D01*
G01X16494Y47864D01*
G01X16576Y47891D01*
G01X16631Y47973D01*
G01X16658Y48110D01*
G01X16658Y48191D01*
G01X16631Y48328D01*
G01X16576Y48410D01*
G01X16494Y48437D01*
G01X16440Y48437D01*
G01X17002Y48437D02*
G01X16920Y48410D01*
G01X16865Y48328D01*
G01X16838Y48191D01*
G01X16838Y48110D01*
G01X16865Y47973D01*
G01X16920Y47891D01*
G01X17002Y47864D01*
G01X17056Y47864D01*
G01X17138Y47891D01*
G01X17192Y47973D01*
G01X17220Y48110D01*
G01X17220Y48191D01*
G01X17192Y48328D01*
G01X17138Y48410D01*
G01X17056Y48437D01*
G01X17002Y48437D01*
G01X17400Y48437D02*
G01X17400Y47864D01*
G01X17400Y48437D02*
G01X17782Y47864D01*
G01X17782Y48437D02*
G01X17782Y47864D01*
G01X17962Y48437D02*
G01X17962Y47864D01*
G01X17962Y48437D02*
G01X18316Y48437D01*
G01X17962Y48164D02*
G01X18180Y48164D01*
G01X5996Y33442D02*
G01X5969Y33496D01*
G01X5915Y33552D01*
G01X5859Y33577D01*
G01X5750Y33577D01*
G01X5697Y33552D01*
G01X5641Y33496D01*
G01X5615Y33442D01*
G01X5588Y33358D01*
G01X5588Y33224D01*
G01X5615Y33143D01*
G01X5641Y33087D01*
G01X5697Y33033D01*
G01X5750Y33005D01*
G01X5859Y33005D01*
G01X5915Y33033D01*
G01X5969Y33087D01*
G01X5996Y33143D01*
G01X6177Y33468D02*
G01X6230Y33496D01*
G01X6314Y33577D01*
G01X6314Y33005D01*
G01X6657Y33577D02*
G01X6576Y33552D01*
G01X6520Y33468D01*
G01X6492Y33333D01*
G01X6492Y33252D01*
G01X6520Y33115D01*
G01X6576Y33033D01*
G01X6657Y33005D01*
G01X6710Y33005D01*
G01X6794Y33033D01*
G01X6847Y33115D01*
G01X6875Y33252D01*
G01X6875Y33333D01*
G01X6847Y33468D01*
G01X6794Y33552D01*
G01X6710Y33577D01*
G01X6657Y33577D01*
G01X7056Y33577D02*
G01X7056Y33005D01*
G01X7056Y33577D02*
G01X7299Y33577D01*
G01X7383Y33552D01*
G01X7409Y33524D01*
G01X7437Y33468D01*
G01X7437Y33386D01*
G01X7409Y33333D01*
G01X7383Y33305D01*
G01X7299Y33277D01*
G01X7056Y33277D01*
G01X7617Y33577D02*
G01X7617Y33005D01*
G01X7617Y33577D02*
G01X7970Y33577D01*
G01X7617Y33305D02*
G01X7835Y33305D01*
G54D16*
G75*
G01X62611Y56849D02*
G02X58801Y56849I-1905J-2540D01*
G01*
G75*
G01X62611Y50372D02*
G02X58801Y50372I-1905J-2540D01*
G01*
G75*
G01X56088Y19269D02*
G03X56091Y19266I-271J-269D01*
G01*
G75*
G01X61924Y36743D02*
G02X61925Y31744I-7J-2500D01*
G01*
G75*
G01X55424Y31743D02*
G02X55423Y36742I7J2500D01*
G01*
G75*
G01X61874Y36043D02*
G02X61674Y32442I-107J-1800D01*
G01*
G75*
G01X55474Y32443D02*
G02X55474Y36044I0J1800D01*
G01*
G54D61*
G75*
G01X35685Y16302D02*
G03X35838Y16454I0J152D01*
G01*
G75*
G01X35838Y18334D02*
G03X35685Y18487I-153J0D01*
G01*
G75*
G01X30863Y16302D02*
G02X30710Y16454I0J152D01*
G01*
G75*
G01X30710Y18334D02*
G02X30863Y18487I153J0D01*
G01*
G75*
G01X35685Y13973D02*
G03X35838Y14126I0J153D01*
G01*
G75*
G01X35838Y16006D02*
G03X35685Y16159I-153J0D01*
G01*
G75*
G01X30863Y13973D02*
G02X30710Y14126I0J153D01*
G01*
G75*
G01X30710Y16006D02*
G02X30863Y16159I153J0D01*
G01*
G75*
G01X35685Y20958D02*
G03X35838Y21111I0J153D01*
G01*
G75*
G01X35838Y22991D02*
G03X35685Y23144I-153J0D01*
G01*
G75*
G01X30863Y20958D02*
G02X30710Y21111I0J153D01*
G01*
G75*
G01X30710Y22991D02*
G02X30863Y23144I153J0D01*
G01*
G75*
G01X35685Y18630D02*
G03X35838Y18782I0J152D01*
G01*
G75*
G01X35838Y20663D02*
G03X35685Y20815I-153J0D01*
G01*
G75*
G01X30863Y18630D02*
G02X30710Y18782I0J152D01*
G01*
G75*
G01X30710Y20663D02*
G02X30863Y20815I153J0D01*
G01*
G54D16*
G75*
G01X56007Y50372D02*
G02X52197Y50372I-1905J-2540D01*
G01*
G75*
G01X49403Y50372D02*
G02X45593Y50372I-1905J-2540D01*
G01*
G75*
G01X42799Y50372D02*
G02X38989Y50372I-1905J-2540D01*
G01*
G75*
G01X36195Y50372D02*
G02X32385Y50372I-1905J-2540D01*
G01*
G75*
G01X29591Y50372D02*
G02X25781Y50372I-1905J-2540D01*
G01*
G75*
G01X56007Y56849D02*
G02X52197Y56849I-1905J-2540D01*
G01*
G75*
G01X49403Y56849D02*
G02X45593Y56849I-1905J-2540D01*
G01*
G75*
G01X42799Y56849D02*
G02X38989Y56849I-1905J-2540D01*
G01*
G75*
G01X36195Y56849D02*
G02X32385Y56849I-1905J-2540D01*
G01*
G75*
G01X29591Y56849D02*
G02X25781Y56849I-1905J-2540D01*
G01*
G54D18*
G75*
G01X13783Y43151D02*
G03X13780Y43154I282J285D01*
G01*
G54D61*
G75*
G01X16232Y26547D02*
G02X16385Y26700I153J0D01*
G01*
G75*
G01X21207Y24514D02*
G03X21360Y24667I0J153D01*
G01*
G75*
G01X21360Y26547D02*
G03X21207Y26700I-153J0D01*
G01*
G75*
G01X16385Y24514D02*
G02X16232Y24667I0J153D01*
G01*
G75*
G01X16232Y24388D02*
G02X16385Y24541I153J0D01*
G01*
G75*
G01X21207Y22355D02*
G03X21360Y22508I0J153D01*
G01*
G75*
G01X21360Y24388D02*
G03X21207Y24541I-153J0D01*
G01*
G75*
G01X16385Y22355D02*
G02X16232Y22508I0J153D01*
G01*
G75*
G01X7266Y31947D02*
G03X7418Y32100I0J153D01*
G01*
G75*
G01X7418Y32576D02*
G03X7266Y32729I-152J0D01*
G01*
G75*
G01X6196Y31947D02*
G02X6044Y32100I0J153D01*
G01*
G75*
G01X6044Y32576D02*
G02X6196Y32729I152J0D01*
G01*
G75*
G01X7266Y31185D02*
G03X7418Y31338I0J153D01*
G01*
G75*
G01X7418Y31814D02*
G03X7266Y31967I-152J0D01*
G01*
G75*
G01X6196Y31185D02*
G02X6044Y31338I0J153D01*
G01*
G75*
G01X6044Y31814D02*
G02X6196Y31967I152J0D01*
G01*
G54D16*
G75*
G01X63246Y54309D02*
G03X63246Y54309I-2540J0D01*
G01*
G75*
G01X63246Y47832D02*
G03X63246Y47832I-2540J0D01*
G01*
G75*
G01X56642Y47832D02*
G03X56642Y47832I-2540J0D01*
G01*
G75*
G01X50038Y47832D02*
G03X50038Y47832I-2540J0D01*
G01*
G75*
G01X43434Y47832D02*
G03X43434Y47832I-2540J0D01*
G01*
G75*
G01X36830Y47832D02*
G03X36830Y47832I-2540J0D01*
G01*
G75*
G01X30226Y47832D02*
G03X30226Y47832I-2540J0D01*
G01*
G75*
G01X56642Y54309D02*
G03X56642Y54309I-2540J0D01*
G01*
G75*
G01X50038Y54309D02*
G03X50038Y54309I-2540J0D01*
G01*
G75*
G01X43434Y54309D02*
G03X43434Y54309I-2540J0D01*
G01*
G75*
G01X36830Y54309D02*
G03X36830Y54309I-2540J0D01*
G01*
G75*
G01X30226Y54309D02*
G03X30226Y54309I-2540J0D01*
G01*
G54D12*
G75*
G01X51238Y34500D02*
G03X51238Y34500I-150J0D01*
G01*
G75*
G01X51862Y36347D02*
G03X51862Y36347I-150J0D01*
G01*
G75*
G01X40028Y34250D02*
G03X40028Y34250I-150J0D01*
G01*
G75*
G01X40781Y36216D02*
G03X40781Y36216I-150J0D01*
G01*
G36*
G01X127Y18367D02*
G01X14859Y18367D01*
G01X14859Y4524D01*
G01X127Y4524D01*
G01X127Y18367D01*
G37*
G36*
G01X127Y55197D02*
G01X3683Y55197D01*
G01X3683Y25860D01*
G01X127Y25860D01*
G01X127Y55197D01*
G37*

%LPD*%
G36*
G01X38386Y18511D02*
G01X37929Y18511D01*
G01X37929Y17657D01*
G01X38386Y17657D01*
G01X38386Y18511D01*
G37*

%LPD*%
G36*
G01X38386Y14760D02*
G01X37929Y14760D01*
G01X37929Y13906D01*
G01X38386Y13906D01*
G01X38386Y14760D01*
G37*

%LPD*%
G36*
G01X38386Y23210D02*
G01X37929Y23210D01*
G01X37929Y22356D01*
G01X38386Y22356D01*
G01X38386Y23210D01*
G37*

%LPD*%
G36*
G01X38386Y19459D02*
G01X37929Y19459D01*
G01X37929Y18605D01*
G01X38386Y18605D01*
G01X38386Y19459D01*
G37*

%LPD*%
G36*
G01X6005Y45085D02*
G01X4955Y45085D01*
G01X4955Y44781D01*
G01X6005Y44781D01*
G01X6005Y45085D01*
G37*

%LPD*%
G36*
G01X8760Y45085D02*
G01X7710Y45085D01*
G01X7710Y44781D01*
G01X8760Y44781D01*
G01X8760Y45085D01*
G37*

%LPD*%
G36*
G01X13496Y27565D02*
G01X13038Y27565D01*
G01X13038Y27088D01*
G01X13496Y27088D01*
G01X13496Y27565D01*
G37*

%LPD*%
G36*
G01X13496Y29967D02*
G01X13038Y29967D01*
G01X13038Y29490D01*
G01X13496Y29490D01*
G01X13496Y29967D01*
G37*

%LPD*%
G36*
G01X15155Y29967D02*
G01X14697Y29967D01*
G01X14697Y29490D01*
G01X15155Y29490D01*
G01X15155Y29967D01*
G37*

%LPD*%
G36*
G01X15155Y27565D02*
G01X14697Y27565D01*
G01X14697Y27088D01*
G01X15155Y27088D01*
G01X15155Y27565D01*
G37*

%LPD*%
G36*
G01X14478Y69421D02*
G01X127Y69421D01*
G01X127Y54689D01*
G01X10922Y54689D01*
G01X14478Y58245D01*
G01X14478Y69421D01*
G37*

%LPD*%
G36*
G01X25781Y69421D02*
G01X14478Y69421D01*
G01X14478Y58245D01*
G01X18796Y58245D01*
G01X25781Y65230D01*
G01X25781Y69421D01*
G37*
M00*
M02*
