G04 Layer: TopPasteMaskLayer*
G04 EasyEDA v6.4.7, 2021-02-17T16:00:46+08:00*
G04 6587b44a977046f298512b0a2d276df7,119f753a6ce64b8d841f2ad33262ab0c,10*
G04 Gerber Generator version 0.2*
G04 Scale: 100 percent, Rotated: No, Reflected: No *
G04 Dimensions in millimeters *
G04 leading zeros omitted , absolute positions ,3 integer and 3 decimal *
%FSLAX33Y33*%
%MOMM*%
G90*
D02*

%ADD18C,0.203200*%
%ADD21C,1.199998*%
%ADD22C,0.343002*%
%ADD23C,0.602005*%
%ADD30C,0.889000*%
%ADD32R,2.185010X2.591994*%
%ADD34R,0.914400X0.914400*%
%ADD36R,1.399997X1.499997*%
%ADD37R,2.046376X1.620012*%

%LPD*%
G54D21*
G01X62611Y68420D02*
G01X62611Y67120D01*
G01X60071Y68420D02*
G01X60071Y67120D01*
G01X57531Y68420D02*
G01X57531Y67120D01*
G01X54991Y68420D02*
G01X54991Y67120D01*
G01X52451Y68420D02*
G01X52451Y67120D01*
G01X49911Y68420D02*
G01X49911Y67120D01*
G01X47371Y68420D02*
G01X47371Y67120D01*
G01X39751Y68420D02*
G01X39751Y67120D01*
G01X62611Y60800D02*
G01X62611Y59500D01*
G01X60071Y60800D02*
G01X60071Y59500D01*
G01X57531Y60800D02*
G01X57531Y59500D01*
G01X54991Y60800D02*
G01X54991Y59500D01*
G01X52451Y60800D02*
G01X52451Y59500D01*
G01X49911Y60800D02*
G01X49911Y59500D01*
G01X47371Y60800D02*
G01X47371Y59500D01*
G01X44831Y60800D02*
G01X44831Y59500D01*
G01X42291Y60800D02*
G01X42291Y59500D01*
G01X39751Y60800D02*
G01X39751Y59500D01*
G01X37211Y68420D02*
G01X37211Y67120D01*
G01X34671Y68420D02*
G01X34671Y67120D01*
G01X32131Y68420D02*
G01X32131Y67120D01*
G01X29591Y68420D02*
G01X29591Y67120D01*
G01X27051Y68420D02*
G01X27051Y67120D01*
G01X37211Y60800D02*
G01X37211Y59500D01*
G01X34671Y60800D02*
G01X34671Y59500D01*
G01X32131Y60800D02*
G01X32131Y59500D01*
G01X29591Y60800D02*
G01X29591Y59500D01*
G01X27051Y60800D02*
G01X27051Y59500D01*
G01X44831Y68420D02*
G01X44831Y67120D01*
G01X42291Y68420D02*
G01X42291Y67120D01*
G54D18*
G01X59818Y19012D02*
G01X59064Y19766D01*
G01X58404Y17598D02*
G01X57650Y18352D01*
G01X61233Y20426D02*
G01X60478Y21180D01*
G01X60950Y20143D02*
G01X60195Y20897D01*
G01X60384Y19577D02*
G01X59630Y20332D01*
G01X60101Y19295D02*
G01X59347Y20049D01*
G01X58687Y17881D02*
G01X57933Y18635D01*
G01X58970Y18163D02*
G01X58216Y18918D01*
G01X60667Y19860D02*
G01X59912Y20615D01*
G01X51192Y23113D02*
G01X50437Y23867D01*
G01X58121Y17315D02*
G01X57367Y18069D01*
G01X56518Y27073D02*
G01X57273Y27827D01*
G01X50154Y20709D02*
G01X50909Y21463D01*
G01X57556Y16749D02*
G01X56801Y17504D01*
G01X60195Y23396D02*
G01X60950Y24150D01*
G01X59253Y18446D02*
G01X58498Y19201D01*
G01X53548Y17315D02*
G01X54303Y18069D01*
G01X52134Y18729D02*
G01X52889Y19483D01*
G01X50909Y22830D02*
G01X50154Y23585D01*
G01X55152Y27073D02*
G01X54397Y27827D01*
G01X57838Y17032D02*
G01X57084Y17786D01*
G01X61515Y20709D02*
G01X60761Y21463D01*
G01X54114Y16749D02*
G01X54869Y17503D01*
G01X53831Y17032D02*
G01X54586Y17786D01*
G01X59535Y18729D02*
G01X58781Y19483D01*
G01X59912Y23679D02*
G01X60667Y24433D01*
G01X59630Y23962D02*
G01X60384Y24716D01*
G01X52606Y24527D02*
G01X51852Y25282D01*
G01X52889Y24810D02*
G01X52134Y25564D01*
G01X52323Y24244D02*
G01X51569Y24999D01*
G01X51757Y23679D02*
G01X51003Y24433D01*
G01X53171Y25093D02*
G01X52417Y25847D01*
G01X53454Y25376D02*
G01X52700Y26130D01*
G01X51474Y23396D02*
G01X50720Y24150D01*
G01X52040Y23962D02*
G01X51286Y24716D01*
G01X57932Y25659D02*
G01X58687Y26413D01*
G01X56801Y26790D02*
G01X57555Y27544D01*
G01X57084Y26507D02*
G01X57838Y27261D01*
G01X57650Y25941D02*
G01X58404Y26696D01*
G01X57367Y26224D02*
G01X58121Y26978D01*
G01X50720Y20143D02*
G01X51474Y20897D01*
G01X50437Y20426D02*
G01X51191Y21180D01*
G01X51003Y19860D02*
G01X51757Y20615D01*
G01X52983Y17881D02*
G01X53737Y18635D01*
G01X53266Y17598D02*
G01X54020Y18352D01*
G01X58781Y24810D02*
G01X59535Y25564D01*
G01X52700Y18163D02*
G01X53454Y18918D01*
G01X52417Y18446D02*
G01X53171Y19201D01*
G01X59064Y24527D02*
G01X59818Y25282D01*
G01X58498Y25093D02*
G01X59253Y25847D01*
G01X58215Y25376D02*
G01X58970Y26130D01*
G01X59347Y24244D02*
G01X60101Y24999D01*
G01X54397Y16466D02*
G01X55152Y17220D01*
G01X53737Y25659D02*
G01X52983Y26413D01*
G01X54586Y26507D02*
G01X53831Y27261D01*
G01X54020Y25941D02*
G01X53266Y26696D01*
G01X51851Y19012D02*
G01X52606Y19766D01*
G01X60761Y22830D02*
G01X61515Y23585D01*
G01X60478Y23113D02*
G01X61233Y23867D01*
G01X54303Y26224D02*
G01X53548Y26978D01*
G01X51568Y19295D02*
G01X52323Y20049D01*
G01X54869Y26790D02*
G01X54114Y27544D01*
G01X51286Y19577D02*
G01X52040Y20332D01*
G54D22*
G01X51088Y35652D02*
G01X51088Y37040D01*
G01X50438Y35652D02*
G01X50438Y37040D01*
G01X49788Y35652D02*
G01X49788Y37040D01*
G01X49138Y35652D02*
G01X49138Y37040D01*
G01X48488Y35652D02*
G01X48488Y37040D01*
G01X47838Y35652D02*
G01X47838Y37040D01*
G01X47187Y35652D02*
G01X47187Y37040D01*
G01X46537Y35652D02*
G01X46537Y37040D01*
G01X45887Y35652D02*
G01X45887Y37040D01*
G01X45237Y35652D02*
G01X45237Y37040D01*
G01X44587Y35652D02*
G01X44587Y37040D01*
G01X43937Y35652D02*
G01X43937Y37040D01*
G01X43287Y35652D02*
G01X43287Y37040D01*
G01X42637Y35652D02*
G01X42637Y37040D01*
G01X51088Y29920D02*
G01X51088Y31309D01*
G01X50438Y29920D02*
G01X50438Y31309D01*
G01X49788Y29920D02*
G01X49788Y31309D01*
G01X49138Y29920D02*
G01X49138Y31309D01*
G01X48488Y29920D02*
G01X48488Y31309D01*
G01X47838Y29920D02*
G01X47838Y31309D01*
G01X47187Y29920D02*
G01X47187Y31309D01*
G01X46537Y29920D02*
G01X46537Y31309D01*
G01X45887Y29920D02*
G01X45887Y31309D01*
G01X45237Y29920D02*
G01X45237Y31309D01*
G01X44587Y29920D02*
G01X44587Y31309D01*
G01X43937Y29920D02*
G01X43937Y31309D01*
G01X43287Y29920D02*
G01X43287Y31309D01*
G01X42637Y29920D02*
G01X42637Y31309D01*
G54D23*
G01X39878Y35531D02*
G01X39878Y36900D01*
G01X38608Y35531D02*
G01X38608Y36900D01*
G01X37338Y35531D02*
G01X37338Y36900D01*
G01X36068Y35531D02*
G01X36068Y36900D01*
G01X34798Y35531D02*
G01X34798Y36900D01*
G01X33528Y35531D02*
G01X33528Y36900D01*
G01X32258Y35531D02*
G01X32258Y36900D01*
G01X30988Y35531D02*
G01X30988Y36900D01*
G01X39878Y30060D02*
G01X39878Y31429D01*
G01X38608Y30060D02*
G01X38608Y31429D01*
G01X37338Y30060D02*
G01X37338Y31429D01*
G01X36068Y30060D02*
G01X36068Y31429D01*
G01X34798Y30060D02*
G01X34798Y31429D01*
G01X33528Y30060D02*
G01X33528Y31429D01*
G01X32258Y30060D02*
G01X32258Y31429D01*
G01X30988Y30060D02*
G01X30988Y31429D01*
G36*
G01X59385Y5600D02*
G01X60085Y5600D01*
G01X60085Y1300D01*
G01X59385Y1300D01*
G01X59385Y5600D01*
G37*
G36*
G01X58385Y5600D02*
G01X59085Y5600D01*
G01X59085Y1300D01*
G01X58385Y1300D01*
G01X58385Y5600D01*
G37*
G36*
G01X60385Y5600D02*
G01X61085Y5600D01*
G01X61085Y1300D01*
G01X60385Y1300D01*
G01X60385Y5600D01*
G37*
G36*
G01X62385Y5600D02*
G01X63085Y5600D01*
G01X63085Y1300D01*
G01X62385Y1300D01*
G01X62385Y5600D01*
G37*
G36*
G01X61385Y5600D02*
G01X62085Y5600D01*
G01X62085Y1300D01*
G01X61385Y1300D01*
G01X61385Y5600D01*
G37*
G36*
G01X64385Y5600D02*
G01X65085Y5600D01*
G01X65085Y1300D01*
G01X64385Y1300D01*
G01X64385Y5600D01*
G37*
G36*
G01X63385Y5600D02*
G01X64085Y5600D01*
G01X64085Y2400D01*
G01X63385Y2400D01*
G01X63385Y5600D01*
G37*
G36*
G01X46385Y5600D02*
G01X47085Y5600D01*
G01X47085Y1300D01*
G01X46385Y1300D01*
G01X46385Y5600D01*
G37*
G36*
G01X45385Y5600D02*
G01X46085Y5600D01*
G01X46085Y1300D01*
G01X45385Y1300D01*
G01X45385Y5600D01*
G37*
G36*
G01X47385Y5600D02*
G01X48085Y5600D01*
G01X48085Y1300D01*
G01X47385Y1300D01*
G01X47385Y5600D01*
G37*
G36*
G01X53385Y5600D02*
G01X54085Y5600D01*
G01X54085Y1300D01*
G01X53385Y1300D01*
G01X53385Y5600D01*
G37*
G36*
G01X52385Y5600D02*
G01X53085Y5600D01*
G01X53085Y1300D01*
G01X52385Y1300D01*
G01X52385Y5600D01*
G37*
G36*
G01X55385Y5600D02*
G01X56085Y5600D01*
G01X56085Y1300D01*
G01X55385Y1300D01*
G01X55385Y5600D01*
G37*
G36*
G01X54385Y5600D02*
G01X55085Y5600D01*
G01X55085Y1300D01*
G01X54385Y1300D01*
G01X54385Y5600D01*
G37*
G36*
G01X49385Y5600D02*
G01X50085Y5600D01*
G01X50085Y1300D01*
G01X49385Y1300D01*
G01X49385Y5600D01*
G37*
G36*
G01X48385Y5600D02*
G01X49085Y5600D01*
G01X49085Y1300D01*
G01X48385Y1300D01*
G01X48385Y5600D01*
G37*
G36*
G01X51385Y5600D02*
G01X52085Y5600D01*
G01X52085Y1300D01*
G01X51385Y1300D01*
G01X51385Y5600D01*
G37*
G36*
G01X50385Y5600D02*
G01X51085Y5600D01*
G01X51085Y1300D01*
G01X50385Y1300D01*
G01X50385Y5600D01*
G37*
G54D30*
G01X55835Y28151D03*
G36*
G01X57416Y16466D02*
G01X57273Y16323D01*
G01X56375Y17221D01*
G01X56518Y17364D01*
G01X57416Y16466D01*
G37*
G01X55975Y15923D03*
G36*
G01X44436Y14912D02*
G01X44436Y17504D01*
G01X46622Y17504D01*
G01X46622Y14912D01*
G01X44436Y14912D01*
G37*
G54D32*
G01X38544Y16208D03*
G01X38544Y20907D03*
G36*
G01X44436Y19611D02*
G01X44436Y22203D01*
G01X46622Y22203D01*
G01X46622Y19611D01*
G01X44436Y19611D01*
G37*
G36*
G01X13312Y34023D02*
G01X13329Y34004D01*
G01X13344Y33982D01*
G01X13356Y33959D01*
G01X13366Y33935D01*
G01X13372Y33909D01*
G01X13375Y33884D01*
G01X13375Y33857D01*
G01X13372Y33831D01*
G01X13366Y33806D01*
G01X13356Y33782D01*
G01X13344Y33759D01*
G01X13329Y33737D01*
G01X13312Y33718D01*
G01X12360Y32766D01*
G01X12341Y32749D01*
G01X12319Y32734D01*
G01X12296Y32722D01*
G01X12272Y32712D01*
G01X12247Y32706D01*
G01X12221Y32703D01*
G01X12195Y32703D01*
G01X12169Y32706D01*
G01X12143Y32712D01*
G01X12119Y32722D01*
G01X12096Y32734D01*
G01X12074Y32749D01*
G01X12055Y32766D01*
G01X12038Y32785D01*
G01X12023Y32807D01*
G01X12011Y32830D01*
G01X12002Y32854D01*
G01X11995Y32880D01*
G01X11992Y32906D01*
G01X11992Y32932D01*
G01X11995Y32957D01*
G01X12002Y32983D01*
G01X12011Y33007D01*
G01X12023Y33030D01*
G01X12038Y33052D01*
G01X12055Y33071D01*
G01X13007Y34023D01*
G01X13026Y34040D01*
G01X13048Y34055D01*
G01X13071Y34067D01*
G01X13095Y34077D01*
G01X13121Y34083D01*
G01X13147Y34086D01*
G01X13172Y34086D01*
G01X13198Y34083D01*
G01X13224Y34077D01*
G01X13248Y34067D01*
G01X13271Y34055D01*
G01X13293Y34040D01*
G01X13312Y34023D01*
G37*
G36*
G01X12737Y34598D02*
G01X12755Y34578D01*
G01X12770Y34557D01*
G01X12782Y34534D01*
G01X12791Y34509D01*
G01X12797Y34484D01*
G01X12800Y34458D01*
G01X12800Y34432D01*
G01X12797Y34406D01*
G01X12791Y34381D01*
G01X12782Y34356D01*
G01X12770Y34334D01*
G01X12755Y34312D01*
G01X12737Y34292D01*
G01X11786Y33341D01*
G01X11766Y33323D01*
G01X11744Y33308D01*
G01X11721Y33297D01*
G01X11697Y33287D01*
G01X11672Y33281D01*
G01X11646Y33278D01*
G01X11620Y33278D01*
G01X11594Y33281D01*
G01X11569Y33287D01*
G01X11544Y33297D01*
G01X11521Y33308D01*
G01X11500Y33323D01*
G01X11480Y33341D01*
G01X11463Y33360D01*
G01X11448Y33382D01*
G01X11436Y33405D01*
G01X11427Y33429D01*
G01X11421Y33454D01*
G01X11417Y33480D01*
G01X11417Y33506D01*
G01X11421Y33532D01*
G01X11427Y33558D01*
G01X11436Y33582D01*
G01X11448Y33605D01*
G01X11463Y33626D01*
G01X11480Y33646D01*
G01X12432Y34598D01*
G01X12452Y34615D01*
G01X12473Y34630D01*
G01X12496Y34642D01*
G01X12520Y34651D01*
G01X12546Y34657D01*
G01X12572Y34661D01*
G01X12598Y34661D01*
G01X12624Y34657D01*
G01X12649Y34651D01*
G01X12673Y34642D01*
G01X12696Y34630D01*
G01X12718Y34615D01*
G01X12737Y34598D01*
G37*
G36*
G01X11049Y36286D02*
G01X11067Y36267D01*
G01X11081Y36245D01*
G01X11093Y36222D01*
G01X11103Y36198D01*
G01X11109Y36172D01*
G01X11112Y36146D01*
G01X11112Y36120D01*
G01X11109Y36095D01*
G01X11103Y36069D01*
G01X11093Y36045D01*
G01X11081Y36022D01*
G01X11067Y36000D01*
G01X11049Y35981D01*
G01X10097Y35029D01*
G01X10078Y35012D01*
G01X10056Y34997D01*
G01X10033Y34985D01*
G01X10009Y34975D01*
G01X9983Y34969D01*
G01X9958Y34966D01*
G01X9932Y34966D01*
G01X9906Y34969D01*
G01X9880Y34975D01*
G01X9856Y34985D01*
G01X9833Y34997D01*
G01X9812Y35012D01*
G01X9792Y35029D01*
G01X9775Y35048D01*
G01X9760Y35070D01*
G01X9748Y35093D01*
G01X9738Y35117D01*
G01X9732Y35143D01*
G01X9729Y35168D01*
G01X9729Y35195D01*
G01X9732Y35221D01*
G01X9738Y35246D01*
G01X9748Y35270D01*
G01X9760Y35293D01*
G01X9775Y35315D01*
G01X9792Y35334D01*
G01X10744Y36286D01*
G01X10763Y36303D01*
G01X10785Y36318D01*
G01X10808Y36330D01*
G01X10832Y36340D01*
G01X10857Y36346D01*
G01X10883Y36349D01*
G01X10910Y36349D01*
G01X10935Y36346D01*
G01X10961Y36340D01*
G01X10985Y36330D01*
G01X11008Y36318D01*
G01X11030Y36303D01*
G01X11049Y36286D01*
G37*
G36*
G01X9918Y37418D02*
G01X9935Y37398D01*
G01X9950Y37377D01*
G01X9962Y37354D01*
G01X9971Y37329D01*
G01X9977Y37304D01*
G01X9980Y37278D01*
G01X9980Y37252D01*
G01X9977Y37226D01*
G01X9971Y37201D01*
G01X9962Y37176D01*
G01X9950Y37153D01*
G01X9935Y37132D01*
G01X9918Y37112D01*
G01X8966Y36160D01*
G01X8946Y36143D01*
G01X8925Y36128D01*
G01X8902Y36116D01*
G01X8877Y36107D01*
G01X8852Y36101D01*
G01X8826Y36098D01*
G01X8800Y36098D01*
G01X8774Y36101D01*
G01X8749Y36107D01*
G01X8724Y36116D01*
G01X8701Y36128D01*
G01X8680Y36143D01*
G01X8660Y36160D01*
G01X8643Y36180D01*
G01X8628Y36201D01*
G01X8616Y36224D01*
G01X8607Y36249D01*
G01X8601Y36274D01*
G01X8598Y36300D01*
G01X8598Y36326D01*
G01X8601Y36352D01*
G01X8607Y36377D01*
G01X8616Y36402D01*
G01X8628Y36425D01*
G01X8643Y36446D01*
G01X8660Y36466D01*
G01X9612Y37418D01*
G01X9632Y37435D01*
G01X9653Y37450D01*
G01X9676Y37462D01*
G01X9701Y37471D01*
G01X9726Y37477D01*
G01X9752Y37480D01*
G01X9778Y37480D01*
G01X9804Y37477D01*
G01X9829Y37471D01*
G01X9854Y37462D01*
G01X9877Y37450D01*
G01X9898Y37435D01*
G01X9918Y37418D01*
G37*
G36*
G01X8672Y39117D02*
G01X8691Y39134D01*
G01X8712Y39149D01*
G01X8736Y39161D01*
G01X8760Y39171D01*
G01X8785Y39177D01*
G01X8811Y39180D01*
G01X8837Y39180D01*
G01X8863Y39177D01*
G01X8888Y39171D01*
G01X8913Y39161D01*
G01X8936Y39149D01*
G01X8957Y39134D01*
G01X8977Y39117D01*
G01X9929Y38165D01*
G01X9946Y38146D01*
G01X9961Y38124D01*
G01X9973Y38101D01*
G01X9982Y38077D01*
G01X9989Y38051D01*
G01X9992Y38025D01*
G01X9992Y37999D01*
G01X9989Y37973D01*
G01X9982Y37948D01*
G01X9973Y37924D01*
G01X9961Y37901D01*
G01X9946Y37879D01*
G01X9929Y37860D01*
G01X9909Y37843D01*
G01X9888Y37828D01*
G01X9865Y37816D01*
G01X9840Y37806D01*
G01X9815Y37800D01*
G01X9789Y37797D01*
G01X9763Y37797D01*
G01X9737Y37800D01*
G01X9712Y37806D01*
G01X9688Y37816D01*
G01X9664Y37828D01*
G01X9643Y37843D01*
G01X9623Y37860D01*
G01X8672Y38812D01*
G01X8654Y38831D01*
G01X8639Y38853D01*
G01X8627Y38876D01*
G01X8618Y38900D01*
G01X8612Y38925D01*
G01X8609Y38951D01*
G01X8609Y38977D01*
G01X8612Y39003D01*
G01X8618Y39029D01*
G01X8627Y39053D01*
G01X8639Y39076D01*
G01X8654Y39098D01*
G01X8672Y39117D01*
G37*
G36*
G01X9237Y39682D02*
G01X9257Y39700D01*
G01X9278Y39715D01*
G01X9301Y39727D01*
G01X9325Y39736D01*
G01X9351Y39742D01*
G01X9376Y39745D01*
G01X9403Y39745D01*
G01X9428Y39742D01*
G01X9454Y39736D01*
G01X9478Y39727D01*
G01X9501Y39715D01*
G01X9523Y39700D01*
G01X9542Y39682D01*
G01X10494Y38731D01*
G01X10512Y38711D01*
G01X10526Y38689D01*
G01X10538Y38667D01*
G01X10548Y38642D01*
G01X10554Y38617D01*
G01X10557Y38591D01*
G01X10557Y38565D01*
G01X10554Y38539D01*
G01X10548Y38514D01*
G01X10538Y38489D01*
G01X10526Y38466D01*
G01X10512Y38445D01*
G01X10494Y38425D01*
G01X10475Y38408D01*
G01X10453Y38393D01*
G01X10430Y38381D01*
G01X10406Y38372D01*
G01X10380Y38366D01*
G01X10355Y38362D01*
G01X10328Y38362D01*
G01X10303Y38366D01*
G01X10277Y38372D01*
G01X10253Y38381D01*
G01X10230Y38393D01*
G01X10208Y38408D01*
G01X10189Y38425D01*
G01X9237Y39377D01*
G01X9220Y39397D01*
G01X9205Y39418D01*
G01X9193Y39441D01*
G01X9183Y39465D01*
G01X9177Y39491D01*
G01X9174Y39517D01*
G01X9174Y39543D01*
G01X9177Y39569D01*
G01X9183Y39594D01*
G01X9193Y39618D01*
G01X9205Y39641D01*
G01X9220Y39663D01*
G01X9237Y39682D01*
G37*
G36*
G01X9802Y40248D02*
G01X9822Y40265D01*
G01X9843Y40280D01*
G01X9866Y40292D01*
G01X9891Y40301D01*
G01X9916Y40307D01*
G01X9942Y40311D01*
G01X9968Y40311D01*
G01X9994Y40307D01*
G01X10019Y40301D01*
G01X10044Y40292D01*
G01X10067Y40280D01*
G01X10088Y40265D01*
G01X10108Y40248D01*
G01X11059Y39296D01*
G01X11077Y39276D01*
G01X11092Y39255D01*
G01X11104Y39232D01*
G01X11113Y39208D01*
G01X11119Y39182D01*
G01X11122Y39156D01*
G01X11122Y39130D01*
G01X11119Y39104D01*
G01X11113Y39079D01*
G01X11104Y39055D01*
G01X11092Y39032D01*
G01X11077Y39010D01*
G01X11059Y38991D01*
G01X11040Y38973D01*
G01X11019Y38958D01*
G01X10995Y38946D01*
G01X10971Y38937D01*
G01X10946Y38931D01*
G01X10920Y38928D01*
G01X10894Y38928D01*
G01X10868Y38931D01*
G01X10843Y38937D01*
G01X10818Y38946D01*
G01X10795Y38958D01*
G01X10774Y38973D01*
G01X10754Y38991D01*
G01X9802Y39942D01*
G01X9785Y39962D01*
G01X9770Y39984D01*
G01X9758Y40006D01*
G01X9749Y40031D01*
G01X9743Y40056D01*
G01X9739Y40082D01*
G01X9739Y40108D01*
G01X9743Y40134D01*
G01X9749Y40159D01*
G01X9758Y40184D01*
G01X9770Y40207D01*
G01X9785Y40228D01*
G01X9802Y40248D01*
G37*
G36*
G01X10368Y40813D02*
G01X10387Y40831D01*
G01X10409Y40846D01*
G01X10432Y40858D01*
G01X10456Y40867D01*
G01X10482Y40873D01*
G01X10507Y40876D01*
G01X10534Y40876D01*
G01X10560Y40873D01*
G01X10585Y40867D01*
G01X10609Y40858D01*
G01X10632Y40846D01*
G01X10654Y40831D01*
G01X10673Y40813D01*
G01X11625Y39862D01*
G01X11642Y39842D01*
G01X11657Y39821D01*
G01X11669Y39797D01*
G01X11679Y39773D01*
G01X11685Y39748D01*
G01X11688Y39722D01*
G01X11688Y39696D01*
G01X11685Y39670D01*
G01X11679Y39645D01*
G01X11669Y39620D01*
G01X11657Y39597D01*
G01X11642Y39576D01*
G01X11625Y39556D01*
G01X11606Y39539D01*
G01X11584Y39524D01*
G01X11561Y39512D01*
G01X11537Y39503D01*
G01X11511Y39496D01*
G01X11486Y39493D01*
G01X11459Y39493D01*
G01X11434Y39496D01*
G01X11408Y39503D01*
G01X11384Y39512D01*
G01X11361Y39524D01*
G01X11339Y39539D01*
G01X11320Y39556D01*
G01X10368Y40508D01*
G01X10351Y40528D01*
G01X10336Y40549D01*
G01X10324Y40572D01*
G01X10314Y40596D01*
G01X10308Y40622D01*
G01X10305Y40648D01*
G01X10305Y40674D01*
G01X10308Y40700D01*
G01X10314Y40725D01*
G01X10324Y40749D01*
G01X10336Y40772D01*
G01X10351Y40794D01*
G01X10368Y40813D01*
G37*
G36*
G01X10933Y41379D02*
G01X10953Y41396D01*
G01X10974Y41411D01*
G01X10997Y41423D01*
G01X11022Y41432D01*
G01X11047Y41438D01*
G01X11073Y41442D01*
G01X11099Y41442D01*
G01X11125Y41438D01*
G01X11150Y41432D01*
G01X11174Y41423D01*
G01X11198Y41411D01*
G01X11219Y41396D01*
G01X11239Y41379D01*
G01X12190Y40427D01*
G01X12208Y40407D01*
G01X12223Y40386D01*
G01X12235Y40363D01*
G01X12244Y40338D01*
G01X12250Y40313D01*
G01X12253Y40287D01*
G01X12253Y40261D01*
G01X12250Y40235D01*
G01X12244Y40210D01*
G01X12235Y40186D01*
G01X12223Y40163D01*
G01X12208Y40141D01*
G01X12190Y40121D01*
G01X12171Y40104D01*
G01X12150Y40089D01*
G01X12126Y40077D01*
G01X12102Y40068D01*
G01X12077Y40062D01*
G01X12051Y40059D01*
G01X12025Y40059D01*
G01X11999Y40062D01*
G01X11974Y40068D01*
G01X11949Y40077D01*
G01X11926Y40089D01*
G01X11905Y40104D01*
G01X11885Y40121D01*
G01X10933Y41073D01*
G01X10916Y41093D01*
G01X10901Y41114D01*
G01X10889Y41137D01*
G01X10880Y41162D01*
G01X10874Y41187D01*
G01X10870Y41213D01*
G01X10870Y41239D01*
G01X10874Y41265D01*
G01X10880Y41290D01*
G01X10889Y41315D01*
G01X10901Y41338D01*
G01X10916Y41359D01*
G01X10933Y41379D01*
G37*
G36*
G01X12064Y42510D02*
G01X12084Y42527D01*
G01X12105Y42542D01*
G01X12128Y42554D01*
G01X12153Y42563D01*
G01X12178Y42570D01*
G01X12204Y42573D01*
G01X12230Y42573D01*
G01X12256Y42570D01*
G01X12281Y42563D01*
G01X12306Y42554D01*
G01X12329Y42542D01*
G01X12350Y42527D01*
G01X12370Y42510D01*
G01X13322Y41558D01*
G01X13339Y41538D01*
G01X13354Y41517D01*
G01X13366Y41494D01*
G01X13375Y41469D01*
G01X13381Y41444D01*
G01X13384Y41418D01*
G01X13384Y41392D01*
G01X13381Y41366D01*
G01X13375Y41341D01*
G01X13366Y41317D01*
G01X13354Y41293D01*
G01X13339Y41272D01*
G01X13322Y41253D01*
G01X13302Y41235D01*
G01X13281Y41221D01*
G01X13258Y41208D01*
G01X13233Y41199D01*
G01X13208Y41193D01*
G01X13182Y41190D01*
G01X13156Y41190D01*
G01X13130Y41193D01*
G01X13105Y41199D01*
G01X13080Y41208D01*
G01X13057Y41221D01*
G01X13036Y41235D01*
G01X13016Y41253D01*
G01X12064Y42205D01*
G01X12047Y42224D01*
G01X12032Y42245D01*
G01X12020Y42269D01*
G01X12011Y42293D01*
G01X12005Y42318D01*
G01X12002Y42344D01*
G01X12002Y42370D01*
G01X12005Y42396D01*
G01X12011Y42421D01*
G01X12020Y42446D01*
G01X12032Y42469D01*
G01X12047Y42490D01*
G01X12064Y42510D01*
G37*
G36*
G01X11499Y41944D02*
G01X11518Y41961D01*
G01X11540Y41976D01*
G01X11563Y41988D01*
G01X11587Y41998D01*
G01X11612Y42004D01*
G01X11638Y42007D01*
G01X11664Y42007D01*
G01X11690Y42004D01*
G01X11716Y41998D01*
G01X11740Y41988D01*
G01X11763Y41976D01*
G01X11785Y41961D01*
G01X11804Y41944D01*
G01X12756Y40992D01*
G01X12773Y40973D01*
G01X12788Y40951D01*
G01X12800Y40928D01*
G01X12809Y40904D01*
G01X12816Y40879D01*
G01X12819Y40853D01*
G01X12819Y40827D01*
G01X12816Y40801D01*
G01X12809Y40776D01*
G01X12800Y40751D01*
G01X12788Y40728D01*
G01X12773Y40706D01*
G01X12756Y40687D01*
G01X12736Y40670D01*
G01X12715Y40655D01*
G01X12692Y40643D01*
G01X12667Y40634D01*
G01X12642Y40627D01*
G01X12616Y40624D01*
G01X12590Y40624D01*
G01X12564Y40627D01*
G01X12539Y40634D01*
G01X12515Y40643D01*
G01X12491Y40655D01*
G01X12470Y40670D01*
G01X12451Y40687D01*
G01X11499Y41639D01*
G01X11481Y41658D01*
G01X11467Y41680D01*
G01X11454Y41703D01*
G01X11445Y41727D01*
G01X11439Y41753D01*
G01X11436Y41779D01*
G01X11436Y41804D01*
G01X11439Y41830D01*
G01X11445Y41856D01*
G01X11454Y41880D01*
G01X11467Y41903D01*
G01X11481Y41925D01*
G01X11499Y41944D01*
G37*
G36*
G01X12630Y43075D02*
G01X12649Y43093D01*
G01X12671Y43107D01*
G01X12694Y43119D01*
G01X12718Y43129D01*
G01X12743Y43135D01*
G01X12769Y43138D01*
G01X12795Y43138D01*
G01X12821Y43135D01*
G01X12847Y43129D01*
G01X12871Y43119D01*
G01X12894Y43107D01*
G01X12915Y43093D01*
G01X12935Y43075D01*
G01X13887Y42123D01*
G01X13904Y42104D01*
G01X13919Y42082D01*
G01X13931Y42059D01*
G01X13940Y42035D01*
G01X13947Y42009D01*
G01X13950Y41984D01*
G01X13950Y41958D01*
G01X13947Y41932D01*
G01X13940Y41906D01*
G01X13931Y41882D01*
G01X13919Y41859D01*
G01X13904Y41838D01*
G01X13887Y41818D01*
G01X13867Y41801D01*
G01X13846Y41786D01*
G01X13823Y41774D01*
G01X13799Y41764D01*
G01X13773Y41758D01*
G01X13747Y41755D01*
G01X13721Y41755D01*
G01X13695Y41758D01*
G01X13670Y41764D01*
G01X13646Y41774D01*
G01X13623Y41786D01*
G01X13601Y41801D01*
G01X13582Y41818D01*
G01X12630Y42770D01*
G01X12612Y42789D01*
G01X12598Y42811D01*
G01X12585Y42834D01*
G01X12576Y42858D01*
G01X12570Y42883D01*
G01X12567Y42909D01*
G01X12567Y42936D01*
G01X12570Y42961D01*
G01X12576Y42987D01*
G01X12585Y43011D01*
G01X12598Y43034D01*
G01X12612Y43056D01*
G01X12630Y43075D01*
G37*
G36*
G01X14892Y34028D02*
G01X14911Y34045D01*
G01X14932Y34060D01*
G01X14956Y34072D01*
G01X14980Y34081D01*
G01X15005Y34088D01*
G01X15031Y34091D01*
G01X15057Y34091D01*
G01X15083Y34088D01*
G01X15108Y34081D01*
G01X15133Y34072D01*
G01X15156Y34060D01*
G01X15177Y34045D01*
G01X15197Y34028D01*
G01X16149Y33076D01*
G01X16166Y33056D01*
G01X16181Y33035D01*
G01X16193Y33012D01*
G01X16202Y32988D01*
G01X16208Y32962D01*
G01X16212Y32936D01*
G01X16212Y32910D01*
G01X16208Y32885D01*
G01X16202Y32859D01*
G01X16193Y32835D01*
G01X16181Y32812D01*
G01X16166Y32790D01*
G01X16149Y32771D01*
G01X16129Y32753D01*
G01X16108Y32738D01*
G01X16085Y32727D01*
G01X16060Y32717D01*
G01X16035Y32711D01*
G01X16009Y32708D01*
G01X15983Y32708D01*
G01X15957Y32711D01*
G01X15932Y32717D01*
G01X15907Y32727D01*
G01X15884Y32738D01*
G01X15863Y32753D01*
G01X15843Y32771D01*
G01X14892Y33722D01*
G01X14874Y33742D01*
G01X14859Y33764D01*
G01X14847Y33787D01*
G01X14838Y33811D01*
G01X14832Y33836D01*
G01X14829Y33862D01*
G01X14829Y33888D01*
G01X14832Y33914D01*
G01X14838Y33939D01*
G01X14847Y33964D01*
G01X14859Y33987D01*
G01X14874Y34008D01*
G01X14892Y34028D01*
G37*
G36*
G01X15457Y34593D02*
G01X15476Y34611D01*
G01X15498Y34625D01*
G01X15521Y34638D01*
G01X15545Y34647D01*
G01X15570Y34653D01*
G01X15596Y34656D01*
G01X15623Y34656D01*
G01X15648Y34653D01*
G01X15674Y34647D01*
G01X15698Y34638D01*
G01X15721Y34625D01*
G01X15743Y34611D01*
G01X15762Y34593D01*
G01X16714Y33641D01*
G01X16731Y33622D01*
G01X16746Y33601D01*
G01X16758Y33577D01*
G01X16768Y33553D01*
G01X16774Y33528D01*
G01X16777Y33502D01*
G01X16777Y33476D01*
G01X16774Y33450D01*
G01X16768Y33425D01*
G01X16758Y33400D01*
G01X16746Y33377D01*
G01X16731Y33356D01*
G01X16714Y33336D01*
G01X16694Y33319D01*
G01X16673Y33304D01*
G01X16650Y33292D01*
G01X16626Y33283D01*
G01X16600Y33276D01*
G01X16575Y33273D01*
G01X16548Y33273D01*
G01X16522Y33276D01*
G01X16497Y33283D01*
G01X16473Y33292D01*
G01X16450Y33304D01*
G01X16428Y33319D01*
G01X16409Y33336D01*
G01X15457Y34288D01*
G01X15440Y34307D01*
G01X15425Y34329D01*
G01X15413Y34352D01*
G01X15403Y34377D01*
G01X15397Y34402D01*
G01X15394Y34428D01*
G01X15394Y34454D01*
G01X15397Y34480D01*
G01X15403Y34505D01*
G01X15413Y34529D01*
G01X15425Y34552D01*
G01X15440Y34574D01*
G01X15457Y34593D01*
G37*
G36*
G01X14336Y33466D02*
G01X14355Y33484D01*
G01X14377Y33498D01*
G01X14400Y33511D01*
G01X14424Y33520D01*
G01X14450Y33526D01*
G01X14475Y33529D01*
G01X14502Y33529D01*
G01X14528Y33526D01*
G01X14553Y33520D01*
G01X14577Y33511D01*
G01X14600Y33498D01*
G01X14622Y33484D01*
G01X14641Y33466D01*
G01X15593Y32514D01*
G01X15610Y32495D01*
G01X15625Y32474D01*
G01X15637Y32450D01*
G01X15647Y32426D01*
G01X15653Y32401D01*
G01X15656Y32375D01*
G01X15656Y32349D01*
G01X15653Y32323D01*
G01X15647Y32298D01*
G01X15637Y32273D01*
G01X15625Y32250D01*
G01X15610Y32229D01*
G01X15593Y32209D01*
G01X15574Y32192D01*
G01X15552Y32177D01*
G01X15529Y32165D01*
G01X15505Y32156D01*
G01X15479Y32149D01*
G01X15454Y32146D01*
G01X15427Y32146D01*
G01X15402Y32149D01*
G01X15376Y32156D01*
G01X15352Y32165D01*
G01X15329Y32177D01*
G01X15307Y32192D01*
G01X15288Y32209D01*
G01X14336Y33161D01*
G01X14319Y33180D01*
G01X14304Y33202D01*
G01X14292Y33225D01*
G01X14282Y33250D01*
G01X14276Y33275D01*
G01X14273Y33301D01*
G01X14273Y33327D01*
G01X14276Y33353D01*
G01X14282Y33378D01*
G01X14292Y33402D01*
G01X14304Y33425D01*
G01X14319Y33447D01*
G01X14336Y33466D01*
G37*
G36*
G01X12181Y35155D02*
G01X12198Y35135D01*
G01X12213Y35114D01*
G01X12225Y35091D01*
G01X12234Y35066D01*
G01X12240Y35041D01*
G01X12244Y35015D01*
G01X12244Y34989D01*
G01X12240Y34963D01*
G01X12234Y34938D01*
G01X12225Y34913D01*
G01X12213Y34890D01*
G01X12198Y34869D01*
G01X12181Y34849D01*
G01X11229Y33897D01*
G01X11209Y33880D01*
G01X11188Y33865D01*
G01X11165Y33853D01*
G01X11140Y33844D01*
G01X11115Y33838D01*
G01X11089Y33834D01*
G01X11063Y33834D01*
G01X11037Y33838D01*
G01X11012Y33844D01*
G01X10988Y33853D01*
G01X10964Y33865D01*
G01X10943Y33880D01*
G01X10924Y33897D01*
G01X10906Y33917D01*
G01X10891Y33938D01*
G01X10879Y33961D01*
G01X10870Y33986D01*
G01X10864Y34011D01*
G01X10861Y34037D01*
G01X10861Y34063D01*
G01X10864Y34089D01*
G01X10870Y34114D01*
G01X10879Y34139D01*
G01X10891Y34162D01*
G01X10906Y34183D01*
G01X10924Y34203D01*
G01X11875Y35155D01*
G01X11895Y35172D01*
G01X11916Y35187D01*
G01X11939Y35199D01*
G01X11964Y35208D01*
G01X11989Y35214D01*
G01X12015Y35218D01*
G01X12041Y35218D01*
G01X12067Y35214D01*
G01X12092Y35208D01*
G01X12117Y35199D01*
G01X12140Y35187D01*
G01X12161Y35172D01*
G01X12181Y35155D01*
G37*
G36*
G01X10492Y36843D02*
G01X10510Y36823D01*
G01X10524Y36802D01*
G01X10537Y36779D01*
G01X10546Y36754D01*
G01X10552Y36729D01*
G01X10555Y36703D01*
G01X10555Y36677D01*
G01X10552Y36651D01*
G01X10546Y36626D01*
G01X10537Y36602D01*
G01X10524Y36578D01*
G01X10510Y36557D01*
G01X10492Y36538D01*
G01X9541Y35586D01*
G01X9521Y35568D01*
G01X9500Y35554D01*
G01X9476Y35541D01*
G01X9452Y35532D01*
G01X9427Y35526D01*
G01X9401Y35523D01*
G01X9375Y35523D01*
G01X9349Y35526D01*
G01X9324Y35532D01*
G01X9299Y35541D01*
G01X9276Y35554D01*
G01X9255Y35568D01*
G01X9235Y35586D01*
G01X9218Y35605D01*
G01X9203Y35627D01*
G01X9191Y35650D01*
G01X9182Y35674D01*
G01X9176Y35699D01*
G01X9172Y35725D01*
G01X9172Y35751D01*
G01X9176Y35777D01*
G01X9182Y35802D01*
G01X9191Y35827D01*
G01X9203Y35850D01*
G01X9218Y35872D01*
G01X9235Y35891D01*
G01X10187Y36843D01*
G01X10206Y36860D01*
G01X10228Y36875D01*
G01X10251Y36887D01*
G01X10276Y36896D01*
G01X10301Y36903D01*
G01X10327Y36906D01*
G01X10353Y36906D01*
G01X10379Y36903D01*
G01X10404Y36896D01*
G01X10428Y36887D01*
G01X10451Y36875D01*
G01X10473Y36860D01*
G01X10492Y36843D01*
G37*
G36*
G01X11624Y35711D02*
G01X11641Y35692D01*
G01X11656Y35670D01*
G01X11668Y35647D01*
G01X11677Y35623D01*
G01X11684Y35598D01*
G01X11687Y35572D01*
G01X11687Y35546D01*
G01X11684Y35520D01*
G01X11677Y35494D01*
G01X11668Y35470D01*
G01X11656Y35447D01*
G01X11641Y35426D01*
G01X11624Y35406D01*
G01X10672Y34454D01*
G01X10653Y34437D01*
G01X10631Y34422D01*
G01X10608Y34410D01*
G01X10583Y34401D01*
G01X10558Y34395D01*
G01X10532Y34391D01*
G01X10506Y34391D01*
G01X10480Y34395D01*
G01X10455Y34401D01*
G01X10431Y34410D01*
G01X10408Y34422D01*
G01X10386Y34437D01*
G01X10367Y34454D01*
G01X10349Y34474D01*
G01X10335Y34495D01*
G01X10322Y34518D01*
G01X10313Y34543D01*
G01X10307Y34568D01*
G01X10304Y34594D01*
G01X10304Y34620D01*
G01X10307Y34646D01*
G01X10313Y34671D01*
G01X10322Y34696D01*
G01X10335Y34718D01*
G01X10349Y34740D01*
G01X10367Y34760D01*
G01X11319Y35711D01*
G01X11338Y35729D01*
G01X11360Y35744D01*
G01X11383Y35755D01*
G01X11407Y35765D01*
G01X11432Y35771D01*
G01X11458Y35774D01*
G01X11484Y35774D01*
G01X11510Y35771D01*
G01X11535Y35765D01*
G01X11560Y35755D01*
G01X11583Y35744D01*
G01X11604Y35729D01*
G01X11624Y35711D01*
G37*
G36*
G01X13878Y33445D02*
G01X13895Y33426D01*
G01X13910Y33404D01*
G01X13922Y33381D01*
G01X13931Y33357D01*
G01X13937Y33332D01*
G01X13941Y33306D01*
G01X13941Y33280D01*
G01X13937Y33254D01*
G01X13931Y33229D01*
G01X13922Y33204D01*
G01X13910Y33181D01*
G01X13895Y33160D01*
G01X13878Y33140D01*
G01X12926Y32188D01*
G01X12907Y32171D01*
G01X12885Y32156D01*
G01X12862Y32144D01*
G01X12838Y32135D01*
G01X12812Y32129D01*
G01X12786Y32125D01*
G01X12760Y32125D01*
G01X12735Y32129D01*
G01X12709Y32135D01*
G01X12685Y32144D01*
G01X12662Y32156D01*
G01X12640Y32171D01*
G01X12621Y32188D01*
G01X12603Y32208D01*
G01X12589Y32229D01*
G01X12577Y32252D01*
G01X12567Y32277D01*
G01X12561Y32302D01*
G01X12558Y32328D01*
G01X12558Y32354D01*
G01X12561Y32380D01*
G01X12567Y32405D01*
G01X12577Y32430D01*
G01X12589Y32452D01*
G01X12603Y32474D01*
G01X12621Y32494D01*
G01X13572Y33445D01*
G01X13592Y33463D01*
G01X13614Y33478D01*
G01X13637Y33490D01*
G01X13661Y33499D01*
G01X13686Y33505D01*
G01X13712Y33508D01*
G01X13738Y33508D01*
G01X13764Y33505D01*
G01X13789Y33499D01*
G01X13814Y33490D01*
G01X13837Y33478D01*
G01X13859Y33463D01*
G01X13878Y33445D01*
G37*
G36*
G01X16588Y35724D02*
G01X16607Y35742D01*
G01X16629Y35757D01*
G01X16652Y35768D01*
G01X16676Y35778D01*
G01X16702Y35784D01*
G01X16727Y35787D01*
G01X16754Y35787D01*
G01X16780Y35784D01*
G01X16805Y35778D01*
G01X16829Y35768D01*
G01X16852Y35757D01*
G01X16874Y35742D01*
G01X16893Y35724D01*
G01X17845Y34773D01*
G01X17862Y34753D01*
G01X17877Y34731D01*
G01X17889Y34708D01*
G01X17899Y34684D01*
G01X17905Y34659D01*
G01X17908Y34633D01*
G01X17908Y34607D01*
G01X17905Y34581D01*
G01X17899Y34556D01*
G01X17889Y34531D01*
G01X17877Y34508D01*
G01X17862Y34487D01*
G01X17845Y34467D01*
G01X17825Y34450D01*
G01X17804Y34435D01*
G01X17781Y34423D01*
G01X17757Y34414D01*
G01X17731Y34408D01*
G01X17705Y34404D01*
G01X17679Y34404D01*
G01X17654Y34408D01*
G01X17628Y34414D01*
G01X17604Y34423D01*
G01X17581Y34435D01*
G01X17559Y34450D01*
G01X17540Y34467D01*
G01X16588Y35419D01*
G01X16570Y35438D01*
G01X16556Y35460D01*
G01X16544Y35483D01*
G01X16534Y35507D01*
G01X16528Y35533D01*
G01X16525Y35559D01*
G01X16525Y35585D01*
G01X16528Y35611D01*
G01X16534Y35636D01*
G01X16544Y35660D01*
G01X16556Y35683D01*
G01X16570Y35705D01*
G01X16588Y35724D01*
G37*
G36*
G01X17153Y36290D02*
G01X17173Y36307D01*
G01X17194Y36322D01*
G01X17217Y36334D01*
G01X17242Y36343D01*
G01X17267Y36349D01*
G01X17293Y36353D01*
G01X17319Y36353D01*
G01X17345Y36349D01*
G01X17370Y36343D01*
G01X17394Y36334D01*
G01X17418Y36322D01*
G01X17439Y36307D01*
G01X17458Y36290D01*
G01X18410Y35338D01*
G01X18428Y35318D01*
G01X18442Y35297D01*
G01X18455Y35274D01*
G01X18464Y35250D01*
G01X18470Y35224D01*
G01X18473Y35198D01*
G01X18473Y35172D01*
G01X18470Y35146D01*
G01X18464Y35121D01*
G01X18455Y35097D01*
G01X18442Y35073D01*
G01X18428Y35052D01*
G01X18410Y35033D01*
G01X18391Y35015D01*
G01X18370Y35000D01*
G01X18346Y34988D01*
G01X18322Y34979D01*
G01X18297Y34973D01*
G01X18271Y34970D01*
G01X18245Y34970D01*
G01X18219Y34973D01*
G01X18194Y34979D01*
G01X18169Y34988D01*
G01X18146Y35000D01*
G01X18125Y35015D01*
G01X18105Y35033D01*
G01X17153Y35984D01*
G01X17136Y36004D01*
G01X17121Y36025D01*
G01X17109Y36048D01*
G01X17100Y36073D01*
G01X17093Y36098D01*
G01X17090Y36124D01*
G01X17090Y36150D01*
G01X17093Y36176D01*
G01X17100Y36201D01*
G01X17109Y36226D01*
G01X17121Y36249D01*
G01X17136Y36270D01*
G01X17153Y36290D01*
G37*
G36*
G01X17719Y36856D02*
G01X17739Y36873D01*
G01X17760Y36888D01*
G01X17783Y36900D01*
G01X17808Y36909D01*
G01X17833Y36916D01*
G01X17859Y36919D01*
G01X17885Y36919D01*
G01X17911Y36916D01*
G01X17936Y36909D01*
G01X17961Y36900D01*
G01X17984Y36888D01*
G01X18005Y36873D01*
G01X18025Y36856D01*
G01X18977Y35904D01*
G01X18994Y35885D01*
G01X19009Y35863D01*
G01X19021Y35840D01*
G01X19030Y35815D01*
G01X19036Y35790D01*
G01X19039Y35764D01*
G01X19039Y35738D01*
G01X19036Y35712D01*
G01X19030Y35687D01*
G01X19021Y35663D01*
G01X19009Y35640D01*
G01X18994Y35618D01*
G01X18977Y35599D01*
G01X18957Y35581D01*
G01X18936Y35567D01*
G01X18913Y35554D01*
G01X18888Y35545D01*
G01X18863Y35539D01*
G01X18837Y35536D01*
G01X18811Y35536D01*
G01X18785Y35539D01*
G01X18760Y35545D01*
G01X18735Y35554D01*
G01X18712Y35567D01*
G01X18691Y35581D01*
G01X18671Y35599D01*
G01X17719Y36551D01*
G01X17702Y36570D01*
G01X17687Y36591D01*
G01X17675Y36615D01*
G01X17666Y36639D01*
G01X17660Y36664D01*
G01X17657Y36690D01*
G01X17657Y36716D01*
G01X17660Y36742D01*
G01X17666Y36767D01*
G01X17675Y36792D01*
G01X17687Y36815D01*
G01X17702Y36836D01*
G01X17719Y36856D01*
G37*
G36*
G01X16022Y35159D02*
G01X16042Y35176D01*
G01X16063Y35191D01*
G01X16087Y35203D01*
G01X16111Y35212D01*
G01X16136Y35219D01*
G01X16162Y35222D01*
G01X16188Y35222D01*
G01X16214Y35219D01*
G01X16239Y35212D01*
G01X16264Y35203D01*
G01X16287Y35191D01*
G01X16308Y35176D01*
G01X16328Y35159D01*
G01X17280Y34207D01*
G01X17297Y34188D01*
G01X17312Y34166D01*
G01X17324Y34143D01*
G01X17333Y34119D01*
G01X17339Y34093D01*
G01X17343Y34067D01*
G01X17343Y34041D01*
G01X17339Y34015D01*
G01X17333Y33990D01*
G01X17324Y33966D01*
G01X17312Y33943D01*
G01X17297Y33921D01*
G01X17280Y33902D01*
G01X17260Y33885D01*
G01X17239Y33870D01*
G01X17216Y33858D01*
G01X17191Y33848D01*
G01X17166Y33842D01*
G01X17140Y33839D01*
G01X17114Y33839D01*
G01X17088Y33842D01*
G01X17063Y33848D01*
G01X17038Y33858D01*
G01X17015Y33870D01*
G01X16994Y33885D01*
G01X16974Y33902D01*
G01X16022Y34854D01*
G01X16005Y34873D01*
G01X15990Y34895D01*
G01X15978Y34918D01*
G01X15969Y34942D01*
G01X15963Y34967D01*
G01X15960Y34993D01*
G01X15960Y35019D01*
G01X15963Y35045D01*
G01X15969Y35070D01*
G01X15978Y35095D01*
G01X15990Y35118D01*
G01X16005Y35140D01*
G01X16022Y35159D01*
G37*
G36*
G01X18284Y37421D02*
G01X18304Y37438D01*
G01X18325Y37453D01*
G01X18348Y37465D01*
G01X18373Y37474D01*
G01X18398Y37480D01*
G01X18424Y37483D01*
G01X18450Y37483D01*
G01X18476Y37480D01*
G01X18501Y37474D01*
G01X18525Y37465D01*
G01X18549Y37453D01*
G01X18570Y37438D01*
G01X18590Y37421D01*
G01X19541Y36469D01*
G01X19559Y36449D01*
G01X19574Y36428D01*
G01X19586Y36405D01*
G01X19595Y36380D01*
G01X19601Y36355D01*
G01X19604Y36329D01*
G01X19604Y36303D01*
G01X19601Y36277D01*
G01X19595Y36252D01*
G01X19586Y36227D01*
G01X19574Y36204D01*
G01X19559Y36183D01*
G01X19541Y36163D01*
G01X19522Y36146D01*
G01X19500Y36131D01*
G01X19477Y36119D01*
G01X19453Y36110D01*
G01X19428Y36104D01*
G01X19402Y36101D01*
G01X19376Y36101D01*
G01X19350Y36104D01*
G01X19325Y36110D01*
G01X19300Y36119D01*
G01X19277Y36131D01*
G01X19255Y36146D01*
G01X19236Y36163D01*
G01X18284Y37115D01*
G01X18267Y37135D01*
G01X18252Y37156D01*
G01X18240Y37179D01*
G01X18231Y37204D01*
G01X18225Y37229D01*
G01X18221Y37255D01*
G01X18221Y37281D01*
G01X18225Y37307D01*
G01X18231Y37332D01*
G01X18240Y37357D01*
G01X18252Y37380D01*
G01X18267Y37401D01*
G01X18284Y37421D01*
G37*
G36*
G01X19545Y39106D02*
G01X19562Y39086D01*
G01X19577Y39065D01*
G01X19589Y39042D01*
G01X19598Y39018D01*
G01X19604Y38992D01*
G01X19607Y38966D01*
G01X19607Y38940D01*
G01X19604Y38914D01*
G01X19598Y38889D01*
G01X19589Y38865D01*
G01X19577Y38842D01*
G01X19562Y38820D01*
G01X19545Y38801D01*
G01X18593Y37849D01*
G01X18573Y37831D01*
G01X18552Y37817D01*
G01X18529Y37805D01*
G01X18504Y37795D01*
G01X18479Y37789D01*
G01X18453Y37786D01*
G01X18427Y37786D01*
G01X18401Y37789D01*
G01X18376Y37795D01*
G01X18351Y37805D01*
G01X18328Y37817D01*
G01X18307Y37831D01*
G01X18287Y37849D01*
G01X18270Y37868D01*
G01X18255Y37890D01*
G01X18243Y37913D01*
G01X18234Y37937D01*
G01X18228Y37962D01*
G01X18224Y37988D01*
G01X18224Y38014D01*
G01X18228Y38040D01*
G01X18234Y38066D01*
G01X18243Y38090D01*
G01X18255Y38113D01*
G01X18270Y38134D01*
G01X18287Y38154D01*
G01X19239Y39106D01*
G01X19259Y39123D01*
G01X19280Y39138D01*
G01X19303Y39150D01*
G01X19328Y39159D01*
G01X19353Y39166D01*
G01X19379Y39169D01*
G01X19405Y39169D01*
G01X19431Y39166D01*
G01X19456Y39159D01*
G01X19480Y39150D01*
G01X19503Y39138D01*
G01X19525Y39123D01*
G01X19545Y39106D01*
G37*
G36*
G01X18970Y39681D02*
G01X18987Y39661D01*
G01X19002Y39640D01*
G01X19014Y39617D01*
G01X19023Y39592D01*
G01X19029Y39567D01*
G01X19032Y39541D01*
G01X19032Y39515D01*
G01X19029Y39489D01*
G01X19023Y39464D01*
G01X19014Y39440D01*
G01X19002Y39416D01*
G01X18987Y39395D01*
G01X18970Y39375D01*
G01X18018Y38424D01*
G01X17998Y38406D01*
G01X17977Y38391D01*
G01X17954Y38379D01*
G01X17929Y38370D01*
G01X17904Y38364D01*
G01X17878Y38361D01*
G01X17852Y38361D01*
G01X17826Y38364D01*
G01X17801Y38370D01*
G01X17776Y38379D01*
G01X17753Y38391D01*
G01X17732Y38406D01*
G01X17712Y38424D01*
G01X17695Y38443D01*
G01X17680Y38464D01*
G01X17668Y38488D01*
G01X17659Y38512D01*
G01X17653Y38537D01*
G01X17650Y38563D01*
G01X17650Y38589D01*
G01X17653Y38615D01*
G01X17659Y38640D01*
G01X17668Y38665D01*
G01X17680Y38688D01*
G01X17695Y38709D01*
G01X17712Y38729D01*
G01X18664Y39681D01*
G01X18684Y39698D01*
G01X18705Y39713D01*
G01X18728Y39725D01*
G01X18753Y39734D01*
G01X18778Y39740D01*
G01X18804Y39744D01*
G01X18830Y39744D01*
G01X18856Y39740D01*
G01X18881Y39734D01*
G01X18906Y39725D01*
G01X18929Y39713D01*
G01X18950Y39698D01*
G01X18970Y39681D01*
G37*
G36*
G01X18395Y40255D02*
G01X18412Y40236D01*
G01X18427Y40214D01*
G01X18439Y40191D01*
G01X18449Y40167D01*
G01X18455Y40142D01*
G01X18458Y40116D01*
G01X18458Y40090D01*
G01X18455Y40064D01*
G01X18449Y40038D01*
G01X18439Y40014D01*
G01X18427Y39991D01*
G01X18412Y39970D01*
G01X18395Y39950D01*
G01X17443Y38998D01*
G01X17424Y38981D01*
G01X17402Y38966D01*
G01X17379Y38954D01*
G01X17355Y38945D01*
G01X17329Y38938D01*
G01X17304Y38935D01*
G01X17277Y38935D01*
G01X17251Y38938D01*
G01X17226Y38945D01*
G01X17202Y38954D01*
G01X17179Y38966D01*
G01X17157Y38981D01*
G01X17138Y38998D01*
G01X17120Y39018D01*
G01X17106Y39039D01*
G01X17093Y39062D01*
G01X17084Y39087D01*
G01X17078Y39112D01*
G01X17075Y39138D01*
G01X17075Y39164D01*
G01X17078Y39190D01*
G01X17084Y39215D01*
G01X17093Y39239D01*
G01X17106Y39262D01*
G01X17120Y39284D01*
G01X17138Y39303D01*
G01X18090Y40255D01*
G01X18109Y40273D01*
G01X18131Y40288D01*
G01X18154Y40300D01*
G01X18178Y40309D01*
G01X18203Y40315D01*
G01X18229Y40318D01*
G01X18255Y40318D01*
G01X18281Y40315D01*
G01X18307Y40309D01*
G01X18331Y40300D01*
G01X18354Y40288D01*
G01X18375Y40273D01*
G01X18395Y40255D01*
G37*
G36*
G01X17838Y40812D02*
G01X17855Y40793D01*
G01X17870Y40771D01*
G01X17882Y40748D01*
G01X17892Y40724D01*
G01X17898Y40698D01*
G01X17901Y40672D01*
G01X17901Y40647D01*
G01X17898Y40621D01*
G01X17892Y40595D01*
G01X17882Y40571D01*
G01X17870Y40548D01*
G01X17855Y40526D01*
G01X17838Y40507D01*
G01X16886Y39555D01*
G01X16867Y39538D01*
G01X16845Y39523D01*
G01X16822Y39511D01*
G01X16798Y39501D01*
G01X16773Y39495D01*
G01X16747Y39492D01*
G01X16721Y39492D01*
G01X16695Y39495D01*
G01X16670Y39501D01*
G01X16645Y39511D01*
G01X16622Y39523D01*
G01X16600Y39538D01*
G01X16581Y39555D01*
G01X16564Y39574D01*
G01X16549Y39596D01*
G01X16537Y39619D01*
G01X16528Y39643D01*
G01X16521Y39669D01*
G01X16518Y39695D01*
G01X16518Y39721D01*
G01X16521Y39747D01*
G01X16528Y39772D01*
G01X16537Y39796D01*
G01X16549Y39819D01*
G01X16564Y39841D01*
G01X16581Y39860D01*
G01X17533Y40812D01*
G01X17552Y40829D01*
G01X17574Y40844D01*
G01X17597Y40856D01*
G01X17621Y40866D01*
G01X17647Y40872D01*
G01X17673Y40875D01*
G01X17698Y40875D01*
G01X17724Y40872D01*
G01X17750Y40866D01*
G01X17774Y40856D01*
G01X17797Y40844D01*
G01X17819Y40829D01*
G01X17838Y40812D01*
G37*
G36*
G01X16707Y41944D02*
G01X16724Y41924D01*
G01X16739Y41903D01*
G01X16751Y41880D01*
G01X16760Y41855D01*
G01X16766Y41830D01*
G01X16770Y41804D01*
G01X16770Y41778D01*
G01X16766Y41752D01*
G01X16760Y41727D01*
G01X16751Y41702D01*
G01X16739Y41679D01*
G01X16724Y41658D01*
G01X16707Y41638D01*
G01X15755Y40686D01*
G01X15735Y40669D01*
G01X15714Y40654D01*
G01X15691Y40642D01*
G01X15666Y40633D01*
G01X15641Y40627D01*
G01X15615Y40624D01*
G01X15589Y40624D01*
G01X15563Y40627D01*
G01X15538Y40633D01*
G01X15514Y40642D01*
G01X15490Y40654D01*
G01X15469Y40669D01*
G01X15450Y40686D01*
G01X15432Y40706D01*
G01X15417Y40728D01*
G01X15405Y40750D01*
G01X15396Y40775D01*
G01X15390Y40800D01*
G01X15387Y40826D01*
G01X15387Y40852D01*
G01X15390Y40878D01*
G01X15396Y40903D01*
G01X15405Y40928D01*
G01X15417Y40951D01*
G01X15432Y40972D01*
G01X15450Y40992D01*
G01X16401Y41944D01*
G01X16421Y41961D01*
G01X16442Y41976D01*
G01X16465Y41988D01*
G01X16490Y41997D01*
G01X16515Y42003D01*
G01X16541Y42006D01*
G01X16567Y42006D01*
G01X16593Y42003D01*
G01X16618Y41997D01*
G01X16643Y41988D01*
G01X16666Y41976D01*
G01X16687Y41961D01*
G01X16707Y41944D01*
G37*
G36*
G01X17281Y41369D02*
G01X17299Y41349D01*
G01X17313Y41328D01*
G01X17326Y41305D01*
G01X17335Y41280D01*
G01X17341Y41255D01*
G01X17344Y41229D01*
G01X17344Y41203D01*
G01X17341Y41177D01*
G01X17335Y41152D01*
G01X17326Y41128D01*
G01X17313Y41104D01*
G01X17299Y41083D01*
G01X17281Y41064D01*
G01X16329Y40112D01*
G01X16310Y40094D01*
G01X16289Y40080D01*
G01X16265Y40067D01*
G01X16241Y40058D01*
G01X16216Y40052D01*
G01X16190Y40049D01*
G01X16164Y40049D01*
G01X16138Y40052D01*
G01X16113Y40058D01*
G01X16088Y40067D01*
G01X16065Y40080D01*
G01X16044Y40094D01*
G01X16024Y40112D01*
G01X16007Y40131D01*
G01X15992Y40153D01*
G01X15980Y40176D01*
G01X15971Y40200D01*
G01X15964Y40225D01*
G01X15961Y40251D01*
G01X15961Y40277D01*
G01X15964Y40303D01*
G01X15971Y40329D01*
G01X15980Y40353D01*
G01X15992Y40376D01*
G01X16007Y40398D01*
G01X16024Y40417D01*
G01X16976Y41369D01*
G01X16996Y41386D01*
G01X17017Y41401D01*
G01X17040Y41413D01*
G01X17064Y41422D01*
G01X17090Y41429D01*
G01X17116Y41432D01*
G01X17142Y41432D01*
G01X17168Y41429D01*
G01X17193Y41422D01*
G01X17217Y41413D01*
G01X17241Y41401D01*
G01X17262Y41386D01*
G01X17281Y41369D01*
G37*
G36*
G01X15575Y43075D02*
G01X15593Y43056D01*
G01X15607Y43034D01*
G01X15619Y43011D01*
G01X15629Y42987D01*
G01X15635Y42961D01*
G01X15638Y42936D01*
G01X15638Y42909D01*
G01X15635Y42883D01*
G01X15629Y42858D01*
G01X15619Y42834D01*
G01X15607Y42811D01*
G01X15593Y42789D01*
G01X15575Y42770D01*
G01X14623Y41818D01*
G01X14604Y41801D01*
G01X14582Y41786D01*
G01X14559Y41774D01*
G01X14535Y41764D01*
G01X14510Y41758D01*
G01X14484Y41755D01*
G01X14458Y41755D01*
G01X14432Y41758D01*
G01X14406Y41764D01*
G01X14382Y41774D01*
G01X14359Y41786D01*
G01X14338Y41801D01*
G01X14318Y41818D01*
G01X14301Y41838D01*
G01X14286Y41859D01*
G01X14274Y41882D01*
G01X14264Y41906D01*
G01X14258Y41932D01*
G01X14255Y41958D01*
G01X14255Y41984D01*
G01X14258Y42009D01*
G01X14264Y42035D01*
G01X14274Y42059D01*
G01X14286Y42082D01*
G01X14301Y42104D01*
G01X14318Y42123D01*
G01X15270Y43075D01*
G01X15289Y43093D01*
G01X15311Y43107D01*
G01X15334Y43119D01*
G01X15358Y43129D01*
G01X15384Y43135D01*
G01X15409Y43138D01*
G01X15436Y43138D01*
G01X15461Y43135D01*
G01X15487Y43129D01*
G01X15511Y43119D01*
G01X15534Y43107D01*
G01X15556Y43093D01*
G01X15575Y43075D01*
G37*
G36*
G01X16150Y42500D02*
G01X16167Y42481D01*
G01X16182Y42460D01*
G01X16194Y42436D01*
G01X16203Y42412D01*
G01X16210Y42387D01*
G01X16213Y42361D01*
G01X16213Y42335D01*
G01X16210Y42309D01*
G01X16203Y42284D01*
G01X16194Y42259D01*
G01X16182Y42236D01*
G01X16167Y42215D01*
G01X16150Y42195D01*
G01X15198Y41243D01*
G01X15179Y41226D01*
G01X15157Y41211D01*
G01X15134Y41199D01*
G01X15110Y41190D01*
G01X15084Y41183D01*
G01X15058Y41180D01*
G01X15032Y41180D01*
G01X15006Y41183D01*
G01X14981Y41190D01*
G01X14957Y41199D01*
G01X14934Y41211D01*
G01X14912Y41226D01*
G01X14893Y41243D01*
G01X14876Y41263D01*
G01X14861Y41284D01*
G01X14849Y41307D01*
G01X14839Y41332D01*
G01X14833Y41357D01*
G01X14830Y41383D01*
G01X14830Y41409D01*
G01X14833Y41435D01*
G01X14839Y41460D01*
G01X14849Y41484D01*
G01X14861Y41508D01*
G01X14876Y41529D01*
G01X14893Y41548D01*
G01X15845Y42500D01*
G01X15864Y42518D01*
G01X15886Y42532D01*
G01X15909Y42545D01*
G01X15933Y42554D01*
G01X15958Y42560D01*
G01X15984Y42563D01*
G01X16010Y42563D01*
G01X16036Y42560D01*
G01X16061Y42554D01*
G01X16086Y42545D01*
G01X16109Y42532D01*
G01X16131Y42518D01*
G01X16150Y42500D01*
G37*
G54D34*
G01X34417Y27003D03*
G01X34417Y28400D03*
G01X36195Y27003D03*
G01X36195Y28400D03*
G01X37973Y27003D03*
G01X37973Y28400D03*
G01X39751Y27003D03*
G01X39751Y28400D03*
G01X17653Y45037D03*
G01X17653Y46434D03*
G36*
G01X7557Y50885D02*
G01X6158Y50885D01*
G01X6158Y52625D01*
G01X7557Y52625D01*
G01X7557Y50885D01*
G37*
G54D36*
G01X6858Y44415D03*
G36*
G01X11956Y29337D02*
G01X11956Y27717D01*
G01X14002Y27717D01*
G01X14002Y29337D01*
G01X11956Y29337D01*
G37*
G36*
G01X8871Y29337D02*
G01X8871Y27717D01*
G01X6825Y27717D01*
G01X6825Y29337D01*
G01X8871Y29337D01*
G37*
G54D37*
G01X15214Y28527D03*
G36*
G01X19322Y27717D02*
G01X19322Y29337D01*
G01X21368Y29337D01*
G01X21368Y27717D01*
G01X19322Y27717D01*
G37*
G54D34*
G01X18034Y54938D03*
G01X16637Y54938D03*
G01X18034Y56721D03*
G01X16637Y56721D03*
G01X14097Y45037D03*
G01X14097Y46434D03*

%LPD*%
G36*
G01X35508Y18258D02*
G01X34224Y18258D01*
G01X34124Y18158D01*
G01X34124Y17788D01*
G01X34224Y17688D01*
G01X34528Y17688D01*
G01X34628Y17588D01*
G01X34628Y17200D01*
G01X34528Y17100D01*
G01X34224Y17100D01*
G01X34124Y17000D01*
G01X34124Y16630D01*
G01X34224Y16530D01*
G01X35508Y16530D01*
G01X35608Y16630D01*
G01X35608Y18158D01*
G01X35508Y18258D01*
G37*

%LPD*%
G36*
G01X32323Y18258D02*
G01X31039Y18258D01*
G01X30939Y18158D01*
G01X30939Y16630D01*
G01X31039Y16530D01*
G01X32323Y16530D01*
G01X32423Y16630D01*
G01X32423Y17000D01*
G01X32323Y17100D01*
G01X32019Y17100D01*
G01X31919Y17200D01*
G01X31919Y17588D01*
G01X32019Y17688D01*
G01X32323Y17688D01*
G01X32423Y17788D01*
G01X32423Y18158D01*
G01X32323Y18258D01*
G37*

%LPD*%
G36*
G01X35508Y15929D02*
G01X34224Y15929D01*
G01X34124Y15829D01*
G01X34124Y15459D01*
G01X34224Y15359D01*
G01X34528Y15359D01*
G01X34628Y15259D01*
G01X34628Y14872D01*
G01X34528Y14772D01*
G01X34224Y14772D01*
G01X34124Y14672D01*
G01X34124Y14301D01*
G01X34224Y14201D01*
G01X35508Y14201D01*
G01X35608Y14301D01*
G01X35608Y15829D01*
G01X35508Y15929D01*
G37*

%LPD*%
G36*
G01X32323Y15929D02*
G01X31039Y15929D01*
G01X30939Y15829D01*
G01X30939Y14301D01*
G01X31039Y14201D01*
G01X32323Y14201D01*
G01X32423Y14301D01*
G01X32423Y14672D01*
G01X32323Y14772D01*
G01X32019Y14772D01*
G01X31919Y14872D01*
G01X31919Y15259D01*
G01X32019Y15359D01*
G01X32323Y15359D01*
G01X32423Y15459D01*
G01X32423Y15829D01*
G01X32323Y15929D01*
G37*

%LPD*%
G36*
G01X35508Y22914D02*
G01X34224Y22914D01*
G01X34124Y22814D01*
G01X34124Y22444D01*
G01X34224Y22344D01*
G01X34528Y22344D01*
G01X34628Y22244D01*
G01X34628Y21857D01*
G01X34528Y21757D01*
G01X34224Y21757D01*
G01X34124Y21657D01*
G01X34124Y21286D01*
G01X34224Y21186D01*
G01X35508Y21186D01*
G01X35608Y21286D01*
G01X35608Y22814D01*
G01X35508Y22914D01*
G37*

%LPD*%
G36*
G01X32323Y22914D02*
G01X31039Y22914D01*
G01X30939Y22814D01*
G01X30939Y21286D01*
G01X31039Y21186D01*
G01X32323Y21186D01*
G01X32423Y21286D01*
G01X32423Y21657D01*
G01X32323Y21757D01*
G01X32019Y21757D01*
G01X31919Y21857D01*
G01X31919Y22244D01*
G01X32019Y22344D01*
G01X32323Y22344D01*
G01X32423Y22444D01*
G01X32423Y22814D01*
G01X32323Y22914D01*
G37*

%LPD*%
G36*
G01X35508Y20586D02*
G01X34224Y20586D01*
G01X34124Y20486D01*
G01X34124Y20116D01*
G01X34224Y20016D01*
G01X34528Y20016D01*
G01X34628Y19916D01*
G01X34628Y19528D01*
G01X34528Y19428D01*
G01X34224Y19428D01*
G01X34124Y19328D01*
G01X34124Y18958D01*
G01X34224Y18858D01*
G01X35508Y18858D01*
G01X35608Y18958D01*
G01X35608Y20486D01*
G01X35508Y20586D01*
G37*

%LPD*%
G36*
G01X32323Y20586D02*
G01X31039Y20586D01*
G01X30939Y20486D01*
G01X30939Y18958D01*
G01X31039Y18858D01*
G01X32323Y18858D01*
G01X32423Y18958D01*
G01X32423Y19328D01*
G01X32323Y19428D01*
G01X32019Y19428D01*
G01X31919Y19528D01*
G01X31919Y19916D01*
G01X32019Y20016D01*
G01X32323Y20016D01*
G01X32423Y20116D01*
G01X32423Y20486D01*
G01X32323Y20586D01*
G37*

%LPD*%
G36*
G01X21030Y26470D02*
G01X19746Y26470D01*
G01X19646Y26370D01*
G01X19646Y26000D01*
G01X19746Y25900D01*
G01X20050Y25900D01*
G01X20150Y25800D01*
G01X20150Y25413D01*
G01X20050Y25313D01*
G01X19746Y25313D01*
G01X19646Y25213D01*
G01X19646Y24842D01*
G01X19746Y24742D01*
G01X21030Y24742D01*
G01X21130Y24842D01*
G01X21130Y26370D01*
G01X21030Y26470D01*
G37*

%LPD*%
G36*
G01X17845Y26470D02*
G01X16561Y26470D01*
G01X16461Y26370D01*
G01X16461Y24842D01*
G01X16561Y24742D01*
G01X17845Y24742D01*
G01X17945Y24842D01*
G01X17945Y25213D01*
G01X17845Y25313D01*
G01X17541Y25313D01*
G01X17441Y25413D01*
G01X17441Y25800D01*
G01X17541Y25900D01*
G01X17845Y25900D01*
G01X17945Y26000D01*
G01X17945Y26370D01*
G01X17845Y26470D01*
G37*

%LPD*%
G36*
G01X21030Y24311D02*
G01X19746Y24311D01*
G01X19646Y24211D01*
G01X19646Y23841D01*
G01X19746Y23741D01*
G01X20050Y23741D01*
G01X20150Y23641D01*
G01X20150Y23254D01*
G01X20050Y23154D01*
G01X19746Y23154D01*
G01X19646Y23054D01*
G01X19646Y22683D01*
G01X19746Y22583D01*
G01X21030Y22583D01*
G01X21130Y22683D01*
G01X21130Y24211D01*
G01X21030Y24311D01*
G37*

%LPD*%
G36*
G01X17845Y24311D02*
G01X16561Y24311D01*
G01X16461Y24211D01*
G01X16461Y22683D01*
G01X16561Y22583D01*
G01X17845Y22583D01*
G01X17945Y22683D01*
G01X17945Y23054D01*
G01X17845Y23154D01*
G01X17541Y23154D01*
G01X17441Y23254D01*
G01X17441Y23641D01*
G01X17541Y23741D01*
G01X17845Y23741D01*
G01X17945Y23841D01*
G01X17945Y24211D01*
G01X17845Y24311D01*
G37*

%LPD*%
G36*
G01X7165Y32499D02*
G01X6836Y32499D01*
G01X6812Y32475D01*
G01X6812Y32199D01*
G01X6836Y32175D01*
G01X7165Y32175D01*
G01X7189Y32199D01*
G01X7189Y32475D01*
G01X7165Y32499D01*
G37*

%LPD*%
G36*
G01X6625Y32499D02*
G01X6296Y32499D01*
G01X6272Y32475D01*
G01X6272Y32199D01*
G01X6296Y32175D01*
G01X6625Y32175D01*
G01X6649Y32199D01*
G01X6649Y32475D01*
G01X6625Y32499D01*
G37*

%LPD*%
G36*
G01X7165Y31737D02*
G01X6836Y31737D01*
G01X6812Y31713D01*
G01X6812Y31437D01*
G01X6836Y31413D01*
G01X7165Y31413D01*
G01X7189Y31437D01*
G01X7189Y31713D01*
G01X7165Y31737D01*
G37*

%LPD*%
G36*
G01X6625Y31737D02*
G01X6296Y31737D01*
G01X6272Y31713D01*
G01X6272Y31437D01*
G01X6296Y31413D01*
G01X6625Y31413D01*
G01X6649Y31437D01*
G01X6649Y31713D01*
G01X6625Y31737D01*
G37*
M00*
M02*
