;Layer: Drill PTH
;EasyEDA v6.4.7, 2021-02-17T16:00:46+08:00
;6587b44a977046f298512b0a2d276df7,119f753a6ce64b8d841f2ad33262ab0c,10
;Gerber Generator version 0.2
M48
METRIC,LZ,000.000
;Holesize 1 = 0.301 METRIC
T01C0.301
;Holesize 2 = 0.305 METRIC
T02C0.305
;Holesize 3 = 0.400 METRIC
T03C0.400
;Holesize 4 = 0.407 METRIC
T04C0.407
;Holesize 5 = 0.501 METRIC
T05C0.501
;Holesize 6 = 0.901 METRIC
T06C0.901
;Holesize 7 = 1.000 METRIC
T07C1.000
;Holesize 8 = 1.016 METRIC
T08C1.016
;Holesize 9 = 1.050 METRIC
T09C1.050
%
G05
G90
T01
X+059817Y+006937
X+060071Y+007572
X+060452Y+009731
X+060071Y+017859
X+060452Y+012525
X+063246Y+017986
X+063373Y+017097
X+064262Y+009731
X+064262Y+012525
X+064262Y+006937
X+064643Y+017224
X+058674Y+015700
X+058928Y+011890
X+058166Y+009350
X+002286Y+067516
X+002286Y+064976
X+002286Y+062436
X+002286Y+059896
X+002286Y+057356
X+002286Y+054816
X+002286Y+052276
X+002286Y+047196
X+002286Y+042116
X+002286Y+039576
X+002286Y+037036
X+002286Y+034496
X+002286Y+031956
X+002286Y+029416
X+002286Y+026876
X+002286Y+016716
X+002286Y+014176
X+002286Y+011763
X+002286Y+009223
X+002286Y+006556
X+002286Y+049736
X+002286Y+044656
X+046736Y+006683
X+046736Y+005668
X+034873Y+017351
X+034873Y+015051
X+033274Y+020526
X+034873Y+021909
X+036703Y+016081
X+046101Y+025606
X+057150Y+019637
X+052070Y+022177
X+050292Y+024590
X+048768Y+023828
X+058039Y+028527
X+061214Y+028527
X+055753Y+024717
X+060579Y+026241
X+058801Y+027384
X+062230Y+026241
X+049403Y+022050
X+048387Y+006175
X+056896Y+015700
X+062230Y+006048
X+062230Y+008842
X+062230Y+011636
X+056896Y+028400
X+055118Y+016462
X+044831Y+014430
X+014986Y+014176
X+035306Y+011763
X+035306Y+009160
X+035306Y+006556
X+037846Y+009160
X+037846Y+006556
X+040386Y+011763
X+040386Y+009160
X+040386Y+006556
X+012446Y+011763
X+012446Y+009160
X+012446Y+006556
X+012446Y+067516
X+012446Y+064976
X+012446Y+062436
X+012446Y+014176
X+007366Y+006556
X+004826Y+006556
X+009906Y+006556
X+004826Y+009223
X+004826Y+011763
X+004826Y+014176
X+004826Y+062436
X+004826Y+064976
X+004826Y+067516
X+007366Y+009223
X+007366Y+011763
X+007366Y+014176
X+007366Y+062436
X+007366Y+064976
X+007366Y+067516
X+009906Y+009223
X+009906Y+011763
X+009906Y+062436
X+009906Y+064976
X+009906Y+067516
X+050546Y+009160
X+053086Y+009160
X+053086Y+011763
X+050546Y+011763
X+053086Y+014367
X+050546Y+014367
X+055118Y+006556
X+042799Y+014176
X+004826Y+016716
X+007366Y+016716
X+040640Y+016208
X+033147Y+016208
X+033147Y+018537
X+037846Y+011763
X+037084Y+022812
X+009906Y+059896
X+007366Y+059896
X+004826Y+059896
X+012446Y+059896
X+009906Y+057356
X+007366Y+057356
X+004826Y+057356
X+012446Y+057356
X+009906Y+054816
X+007366Y+054816
X+004826Y+054816
X+050800Y+028973
X+050800Y+027573
X+049404Y+028972
X+049404Y+027575
X+052197Y+028973
X+053594Y+028973
X+054991Y+028973
X+048641Y+019510
X+049784Y+020145
X+049784Y+018748
X+045720Y+024082
X+045847Y+023193
X+044831Y+023320
X+020193Y+038433
X+044577Y+032972
X+046482Y+033353
X+020447Y+025606
X+064770Y+030178
X+062611Y+022177
X+042926Y+020780
X+042291Y+065865
X+033401Y+057356
X+049412Y+017572
X+038481Y+032718
X+049403Y+031829
X+045974Y+029162
X+044577Y+029162
X+046863Y+028146
X+045212Y+026495
X+044577Y+027511
X+044577Y+028273
X+046863Y+029162
X+046990Y+027130
X+055626Y+026495
X+009906Y+014176
X+012446Y+016716
X+014986Y+016716
X+009906Y+016716
X+012446Y+019256
X+014986Y+019256
X+009906Y+019256
X+021717Y+020399
X+019611Y+015488
X+018034Y+020399
X+022606Y+014176
X+022987Y+017224
X+025146Y+014176
X+025146Y+016716
X+027686Y+014176
X+019177Y+043513
X+010033Y+026876
X+013462Y+035893
X+016637Y+037798
X+015367Y+043894
X+029591Y+031575
X+024765Y+055705
X+002286Y+024336
X+002286Y+021796
X+002286Y+019256
X+023749Y+031194
X+028194Y+029289
X+024638Y+024844
X+032131Y+028146
X+041910Y+026241
X+033020Y+034242
X+035179Y+032464
X+048895Y+033480
X+026416Y+038814
X+051943Y+039068
X+041275Y+035512
X+023114Y+033480
X+025908Y+036401
X+023368Y+047196
X+014986Y+067516
X+017526Y+067516
X+020066Y+067516
X+022606Y+067516
X+025146Y+067516
X+014986Y+064976
X+017526Y+064976
X+020066Y+064976
X+022606Y+064976
X+025146Y+064976
X+014986Y+062436
X+017526Y+062436
X+020066Y+062436
X+022606Y+062436
X+025146Y+062436
X+014986Y+059896
X+017526Y+059896
X+020066Y+059896
X+012446Y+054816
X+014986Y+057356
X+005461Y+029924
X+010795Y+037671
X+021336Y+042878
X+030988Y+046180
X+037592Y+046180
X+042418Y+045291
X+046101Y+047069
X+048895Y+047069
X+021209Y+056594
X+049276Y+043513
X+044704Y+045291
X+046355Y+044021
X+028194Y+062690
X+030861Y+068024
X+033401Y+068024
X+022606Y+049482
X+019939Y+030051
X+013462Y+031829
X+005588Y+032210
X+047371Y+023828
X+053975Y+024717
X+053303Y+019882
X+058547Y+016716
X+060452Y+014303
X+064008Y+020145
X+064643Y+022431
X+025527Y+059134
X+041402Y+063833
X+043434Y+063325
T02
X+054229Y+006175
X+044831Y+013668
X+039751Y+067963
X+042291Y+067963
X+044831Y+067963
X+047371Y+067963
X+049911Y+067963
X+052451Y+067963
X+054991Y+067963
X+057531Y+067963
X+060071Y+067963
X+062611Y+067963
X+035941Y+013033
X+039624Y+013033
X+037211Y+067963
X+034671Y+067963
X+036322Y+056975
X+035941Y+068659
X+038481Y+068659
X+041021Y+068659
X+043561Y+068659
X+046101Y+068659
X+048641Y+068659
X+051181Y+068659
X+053721Y+068659
X+056261Y+068659
X+058801Y+068659
X+061341Y+068659
X+037211Y+065865
X+033528Y+065484
X+032893Y+023701
X+028448Y+065291
X+039751Y+065865
X+044831Y+065865
X+047371Y+065865
X+049911Y+065865
X+052451Y+065865
X+054991Y+065865
X+057531Y+065865
X+060071Y+065865
X+062611Y+065865
X+043053Y+056340
X+048641Y+057356
X+050292Y+056594
X+054483Y+056975
X+055753Y+054308
X+062357Y+056086
X+060833Y+051260
X+058547Y+052276
X+054102Y+051387
X+046795Y+051212
X+042418Y+052784
X+038989Y+052530
X+036449Y+052657
X+032004Y+052657
X+029464Y+052657
X+029337Y+056213
X+030988Y+049482
X+037592Y+049482
X+042799Y+049228
X+058547Y+048974
X+032004Y+055197
X+050927Y+051641
X+050325Y+049275
T03
X+047498Y+030051
X+015367Y+022177
X+039878Y+032591
X+020955Y+037925
X+022606Y+038687
X+020066Y+044529
X+014097Y+041100
X+006858Y+051768
X+018034Y+043894
X+011557Y+044021
X+014097Y+045037
X+016510Y+048720
X+016129Y+047831
X+007874Y+028527
X+020447Y+028527
X+015367Y+028781
X+032131Y+058118
X+018034Y+056721
X+018034Y+054943
X+046990Y+034623
X+047879Y+033988
X+025781Y+048720
X+019558Y+049990
X+026162Y+049609
X+020320Y+051514
X+024130Y+052149
X+020574Y+053038
X+019558Y+037671
X+021717Y+036782
X+025527Y+052022
X+020066Y+054562
X+025908Y+053419
X+023622Y+028146
X+009144Y+032337
X+008001Y+045926
X+029210Y+034750
X+029972Y+034115
X+026035Y+046307
X+026035Y+055705
X+023622Y+030051
X+028321Y+034115
X+025146Y+046942
X+024003Y+056086
X+025146Y+032083
X+025781Y+032845
X+024511Y+034115
X+023622Y+029162
X+023241Y+035512
X+023876Y+034750
X+027559Y+036147
X+063246Y+056848
X+062103Y+054308
X+042926Y+054308
X+039370Y+054308
X+060452Y+037798
X+060452Y+036274
X+023495Y+039449
X+023495Y+040465
X+023495Y+041481
X+023495Y+042497
X+048387Y+042243
X+049276Y+042497
X+058801Y+053800
X+050165Y+042878
X+051181Y+053800
X+049784Y+052403
X+050927Y+043513
X+051054Y+045164
X+044958Y+052022
X+052451Y+043259
X+044196Y+051768
X+041910Y+054308
X+024257Y+046561
X+022352Y+055578
X+022987Y+056467
X+021971Y+060150
X+027051Y+060150
X+008509Y+037798
X+008509Y+039957
X+005588Y+034369
X+004953Y+033353
X+016721Y+014407G85X+017771Y+014407
X+016721Y+021566G85X+017771Y+021566
X+020531Y+021570G85X+021581Y+021570
X+020531Y+014410G85X+021581Y+014410
T04
X+013843Y+039957
X+014986Y+035131
X+014478Y+037265
T05
X+017025Y+016686
X+018026Y+017336
X+017025Y+017986
X+018026Y+018637
X+017025Y+019287
X+020835Y+016690
X+021836Y+017340
X+020835Y+017990
X+021836Y+018640
X+020835Y+019291
T06
X+056235Y+034242
X+061112Y+034242
T07
X+060706Y+053038
X+060706Y+055578
X+060706Y+049101
X+060706Y+046561
X+054102Y+046562
X+054102Y+049102
X+047498Y+046562
X+047498Y+049102
X+040894Y+046562
X+040894Y+049102
X+034290Y+046562
X+034290Y+049102
X+027686Y+046562
X+027686Y+049102
X+054102Y+053038
X+054102Y+055578
X+047498Y+053038
X+047498Y+055578
X+040894Y+053038
X+040894Y+055578
X+034290Y+053038
X+034290Y+055578
X+027686Y+053038
X+027686Y+055578
X+028654Y+021030G85X+028654Y+020530
X+026204Y+018280G85X+025705Y+018280
X+026205Y+023280G85X+025705Y+023280
T08
X+005080Y+020016G85X+005080Y+020021
X+005080Y+025096G85X+005080Y+025101
X+005080Y+022556G85X+005080Y+022561
T09
X+013208Y+025098
X+013208Y+022558
X+010668Y+025098
X+010668Y+022558
X+008128Y+025098
X+008128Y+022558
M30
