G04 Layer: TopSolderMaskLayer*
G04 EasyEDA v6.4.19.4, 2021-05-08T19:32:42+08:00*
G04 959c2f807fa24cb394336e4151b9ccfb,119f753a6ce64b8d841f2ad33262ab0c,10*
G04 Gerber Generator version 0.2*
G04 Scale: 100 percent, Rotated: No, Reflected: No *
G04 Dimensions in millimeters *
G04 leading zeros omitted , absolute positions ,4 integer and 5 decimal *
%FSLAX45Y45*%
%MOMM*%

%ADD59C,5.2032*%
%ADD60C,0.4064*%
%ADD61C,0.5334*%
%ADD62C,0.8032*%
%ADD63C,0.6532*%
%ADD66R,2.3016X1.8016*%
%ADD69C,1.0922*%
%ADD79C,1.7016*%

%LPD*%
D59*
X1295400Y200799D02*
G01*
X1295400Y-99202D01*
X1308100Y5712599D02*
G01*
X1308100Y5412597D01*
D60*
X6640499Y1002563D02*
G01*
X6640499Y1109243D01*
X6440500Y1002563D02*
G01*
X6440500Y1109243D01*
X6840499Y1002563D02*
G01*
X6840499Y1109243D01*
X6800494Y1002563D02*
G01*
X6800494Y1109243D01*
X6720509Y1002563D02*
G01*
X6720509Y1109243D01*
X6680504Y1002563D02*
G01*
X6680504Y1109243D01*
X6480505Y1002563D02*
G01*
X6480505Y1109243D01*
X6520510Y1002563D02*
G01*
X6520510Y1109243D01*
X6760489Y1002563D02*
G01*
X6760489Y1109243D01*
X6320510Y1902561D02*
G01*
X6320510Y2009241D01*
X6400495Y1002563D02*
G01*
X6400495Y1109243D01*
X6977151Y1805914D02*
G01*
X7083831Y1805914D01*
X6077153Y1805914D02*
G01*
X6183833Y1805914D01*
X6320510Y1002563D02*
G01*
X6320510Y1109243D01*
X6977151Y1285900D02*
G01*
X7083831Y1285900D01*
X6560489Y1002563D02*
G01*
X6560489Y1109243D01*
X6077153Y1325905D02*
G01*
X6183833Y1325905D01*
X6077153Y1525904D02*
G01*
X6183833Y1525904D01*
X6280505Y1902561D02*
G01*
X6280505Y2009241D01*
X6880504Y1902561D02*
G01*
X6880504Y2009241D01*
X6360490Y1002563D02*
G01*
X6360490Y1109243D01*
X6880504Y1002563D02*
G01*
X6880504Y1109243D01*
X6077153Y1245895D02*
G01*
X6183833Y1245895D01*
X6077153Y1285900D02*
G01*
X6183833Y1285900D01*
X6600494Y1002563D02*
G01*
X6600494Y1109243D01*
X6977151Y1325905D02*
G01*
X7083831Y1325905D01*
X6977151Y1365910D02*
G01*
X7083831Y1365910D01*
X6520510Y1902561D02*
G01*
X6520510Y2009241D01*
X6560489Y1902561D02*
G01*
X6560489Y2009241D01*
X6480505Y1902561D02*
G01*
X6480505Y2009241D01*
X6400495Y1902561D02*
G01*
X6400495Y2009241D01*
X6600494Y1902561D02*
G01*
X6600494Y2009241D01*
X6640499Y1902561D02*
G01*
X6640499Y2009241D01*
X6360490Y1902561D02*
G01*
X6360490Y2009241D01*
X6440500Y1902561D02*
G01*
X6440500Y2009241D01*
X6977151Y1605914D02*
G01*
X7083831Y1605914D01*
X6977151Y1765909D02*
G01*
X7083831Y1765909D01*
X6977151Y1725904D02*
G01*
X7083831Y1725904D01*
X6977151Y1645894D02*
G01*
X7083831Y1645894D01*
X6977151Y1685899D02*
G01*
X7083831Y1685899D01*
X6077153Y1725904D02*
G01*
X6183833Y1725904D01*
X6077153Y1765909D02*
G01*
X6183833Y1765909D01*
X6077153Y1685899D02*
G01*
X6183833Y1685899D01*
X6077153Y1405915D02*
G01*
X6183833Y1405915D01*
X6077153Y1365910D02*
G01*
X6183833Y1365910D01*
X6977151Y1485900D02*
G01*
X7083831Y1485900D01*
X6077153Y1445895D02*
G01*
X6183833Y1445895D01*
X6077153Y1485900D02*
G01*
X6183833Y1485900D01*
X6977151Y1445895D02*
G01*
X7083831Y1445895D01*
X6977151Y1525904D02*
G01*
X7083831Y1525904D01*
X6977151Y1565910D02*
G01*
X7083831Y1565910D01*
X6977151Y1405915D02*
G01*
X7083831Y1405915D01*
X6077153Y1205890D02*
G01*
X6183833Y1205890D01*
X6680504Y1902561D02*
G01*
X6680504Y2009241D01*
X6800494Y1902561D02*
G01*
X6800494Y2009241D01*
X6720509Y1902561D02*
G01*
X6720509Y2009241D01*
X6077153Y1565910D02*
G01*
X6183833Y1565910D01*
X6977151Y1205915D02*
G01*
X7083831Y1205915D01*
X6977151Y1245895D02*
G01*
X7083831Y1245895D01*
X6760489Y1902561D02*
G01*
X6760489Y2009241D01*
X6077153Y1605914D02*
G01*
X6183833Y1605914D01*
X6840499Y1902561D02*
G01*
X6840499Y2009241D01*
X6077153Y1645894D02*
G01*
X6183833Y1645894D01*
D61*
X6081902Y3363493D02*
G01*
X6081902Y3269513D01*
X5886907Y3363493D02*
G01*
X5886907Y3269513D01*
X5821883Y3363493D02*
G01*
X5821883Y3269513D01*
X6211900Y3363493D02*
G01*
X6211900Y3269513D01*
X5561888Y4100093D02*
G01*
X5561888Y4006113D01*
X5691886Y4100093D02*
G01*
X5691886Y4006113D01*
X5626887Y4100093D02*
G01*
X5626887Y4006113D01*
X5951905Y4100093D02*
G01*
X5951905Y4006113D01*
X6016904Y4100093D02*
G01*
X6016904Y4006113D01*
X5886907Y4100093D02*
G01*
X5886907Y4006113D01*
X5951905Y3363493D02*
G01*
X5951905Y3269513D01*
X5756884Y4100093D02*
G01*
X5756884Y4006113D01*
X5821883Y4100093D02*
G01*
X5821883Y4006113D01*
X6146901Y4100093D02*
G01*
X6146901Y4006113D01*
X5366893Y4100093D02*
G01*
X5366893Y4006113D01*
X5561888Y3363493D02*
G01*
X5561888Y3269513D01*
X5431891Y4100093D02*
G01*
X5431891Y4006113D01*
X5496890Y3363493D02*
G01*
X5496890Y3269513D01*
X5431891Y3363493D02*
G01*
X5431891Y3269513D01*
X5626887Y3363493D02*
G01*
X5626887Y3269513D01*
X6016904Y3363493D02*
G01*
X6016904Y3269513D01*
X5756884Y3363493D02*
G01*
X5756884Y3269513D01*
X5691886Y3363493D02*
G01*
X5691886Y3269513D01*
X6146901Y3363493D02*
G01*
X6146901Y3269513D01*
X6081902Y4100093D02*
G01*
X6081902Y4006113D01*
X5496890Y4100093D02*
G01*
X5496890Y4006113D01*
X5366893Y3363493D02*
G01*
X5366893Y3269513D01*
D62*
X6023919Y5575300D02*
G01*
X5903920Y5575300D01*
X6023919Y5448300D02*
G01*
X5903920Y5448300D01*
X6023919Y5321300D02*
G01*
X5903920Y5321300D01*
X6023919Y5194300D02*
G01*
X5903920Y5194300D01*
X6023919Y5067300D02*
G01*
X5903920Y5067300D01*
X6023919Y4940300D02*
G01*
X5903920Y4940300D01*
X6023919Y4813300D02*
G01*
X5903920Y4813300D01*
X6023919Y4686300D02*
G01*
X5903920Y4686300D01*
X6618279Y5575300D02*
G01*
X6498280Y5575300D01*
X6618279Y5448300D02*
G01*
X6498280Y5448300D01*
X6618279Y5321300D02*
G01*
X6498280Y5321300D01*
X6618279Y5194300D02*
G01*
X6498280Y5194300D01*
X6618279Y5067300D02*
G01*
X6498280Y5067300D01*
X6618279Y4940300D02*
G01*
X6498280Y4940300D01*
X6618279Y4813300D02*
G01*
X6498280Y4813300D01*
X6618279Y4686300D02*
G01*
X6498280Y4686300D01*
D63*
X2689377Y4332574D02*
G01*
X2689377Y4452574D01*
X2609367Y4332574D02*
G01*
X2609367Y4452574D01*
X2529357Y4332574D02*
G01*
X2529357Y4452574D01*
X2449347Y4332574D02*
G01*
X2449347Y4452574D01*
X2369591Y4332574D02*
G01*
X2369591Y4452574D01*
X2289581Y4332574D02*
G01*
X2289581Y4452574D01*
X2209571Y4332574D02*
G01*
X2209571Y4452574D01*
X2129561Y4332574D02*
G01*
X2129561Y4452574D01*
X2051893Y4530242D02*
G01*
X1931893Y4530242D01*
X2051893Y4610252D02*
G01*
X1931893Y4610252D01*
X2051893Y4690262D02*
G01*
X1931893Y4690262D01*
X2051893Y4770272D02*
G01*
X1931893Y4770272D01*
X2051893Y4850028D02*
G01*
X1931893Y4850028D01*
X2051893Y4930038D02*
G01*
X1931893Y4930038D01*
X2051893Y5010048D02*
G01*
X1931893Y5010048D01*
X2051893Y5090058D02*
G01*
X1931893Y5090058D01*
X2129561Y5167726D02*
G01*
X2129561Y5287726D01*
X2209571Y5167726D02*
G01*
X2209571Y5287726D01*
X2289581Y5167726D02*
G01*
X2289581Y5287726D01*
X2369591Y5167726D02*
G01*
X2369591Y5287726D01*
X2449347Y5167726D02*
G01*
X2449347Y5287726D01*
X2529357Y5167726D02*
G01*
X2529357Y5287726D01*
X2609367Y5167726D02*
G01*
X2609367Y5287726D01*
X2689377Y5167726D02*
G01*
X2689377Y5287726D01*
X2887045Y5090058D02*
G01*
X2767045Y5090058D01*
X2887045Y5010048D02*
G01*
X2767045Y5010048D01*
X2887045Y4930038D02*
G01*
X2767045Y4930038D01*
X2887045Y4850028D02*
G01*
X2767045Y4850028D01*
X2887045Y4770272D02*
G01*
X2767045Y4770272D01*
X2887045Y4690262D02*
G01*
X2767045Y4690262D01*
X2887045Y4610252D02*
G01*
X2767045Y4610252D01*
X2887045Y4530242D02*
G01*
X2767045Y4530242D01*
G36*
X5036565Y-772160D02*
G01*
X5036565Y-331723D01*
X5126736Y-331723D01*
X5126736Y-772160D01*
G37*
G36*
X5136388Y-772160D02*
G01*
X5136388Y-331723D01*
X5226811Y-331723D01*
X5226811Y-772160D01*
G37*
G36*
X5236463Y-772160D02*
G01*
X5236463Y-331723D01*
X5326634Y-331723D01*
X5326634Y-772160D01*
G37*
G36*
X5336540Y-772160D02*
G01*
X5336540Y-331723D01*
X5426709Y-331723D01*
X5426709Y-772160D01*
G37*
G36*
X5436361Y-772160D02*
G01*
X5436361Y-331723D01*
X5526786Y-331723D01*
X5526786Y-772160D01*
G37*
G36*
X5536438Y-772160D02*
G01*
X5536438Y-331723D01*
X5626861Y-331723D01*
X5626861Y-772160D01*
G37*
G36*
X5636513Y-772160D02*
G01*
X5636513Y-331723D01*
X5726684Y-331723D01*
X5726684Y-772160D01*
G37*
G36*
X5736590Y-772160D02*
G01*
X5736590Y-331723D01*
X5826759Y-331723D01*
X5826759Y-772160D01*
G37*
G36*
X5836411Y-772160D02*
G01*
X5836411Y-331723D01*
X5926836Y-331723D01*
X5926836Y-772160D01*
G37*
G36*
X5936488Y-772160D02*
G01*
X5936488Y-331723D01*
X6026658Y-331723D01*
X6026658Y-772160D01*
G37*
G36*
X6036563Y-772160D02*
G01*
X6036563Y-331723D01*
X6126734Y-331723D01*
X6126734Y-772160D01*
G37*
G36*
X6336538Y-772160D02*
G01*
X6336538Y-331723D01*
X6426961Y-331723D01*
X6426961Y-772160D01*
G37*
G36*
X6436359Y-772160D02*
G01*
X6436359Y-331723D01*
X6526784Y-331723D01*
X6526784Y-772160D01*
G37*
G36*
X6536436Y-772160D02*
G01*
X6536436Y-331723D01*
X6626859Y-331723D01*
X6626859Y-772160D01*
G37*
G36*
X6636511Y-772160D02*
G01*
X6636511Y-331723D01*
X6726681Y-331723D01*
X6726681Y-772160D01*
G37*
G36*
X6736334Y-772160D02*
G01*
X6736334Y-331723D01*
X6826758Y-331723D01*
X6826758Y-772160D01*
G37*
G36*
X6836409Y-672084D02*
G01*
X6836409Y-331723D01*
X6926834Y-331723D01*
X6926834Y-672084D01*
G37*
G36*
X6936486Y-772160D02*
G01*
X6936486Y-331723D01*
X7026656Y-331723D01*
X7026656Y-772160D01*
G37*
G36*
X7773161Y1308607D02*
G01*
X7773161Y1488947D01*
X8003286Y1488947D01*
X8003286Y1308607D01*
G37*
G36*
X7773161Y918718D02*
G01*
X7773161Y1098804D01*
X8003286Y1098804D01*
X8003286Y918718D01*
G37*
G36*
X5405120Y1163320D02*
G01*
X5405120Y1275079D01*
X5516879Y1275079D01*
X5516879Y1163320D01*
G37*
G36*
X5265420Y1163320D02*
G01*
X5265420Y1275079D01*
X5377179Y1275079D01*
X5377179Y1163320D01*
G37*
G36*
X4983225Y2457704D02*
G01*
X4983225Y2616454D01*
X5166106Y2616454D01*
X5166106Y2457704D01*
G37*
G36*
X4983225Y2139187D02*
G01*
X4983225Y2297937D01*
X5166106Y2297937D01*
X5166106Y2139187D01*
G37*
G36*
X6994143Y3857497D02*
G01*
X6994143Y3969257D01*
X7105904Y3969257D01*
X7105904Y3857497D01*
G37*
G36*
X6994143Y3997197D02*
G01*
X6994143Y4108957D01*
X7105904Y4108957D01*
X7105904Y3997197D01*
G37*
G36*
X5724143Y466597D02*
G01*
X5724143Y578357D01*
X5835904Y578357D01*
X5835904Y466597D01*
G37*
G36*
X5724143Y606297D02*
G01*
X5724143Y718057D01*
X5835904Y718057D01*
X5835904Y606297D01*
G37*
G36*
X5406643Y1393697D02*
G01*
X5406643Y1505457D01*
X5518404Y1505457D01*
X5518404Y1393697D01*
G37*
G36*
X5266943Y1393697D02*
G01*
X5266943Y1505457D01*
X5378704Y1505457D01*
X5378704Y1393697D01*
G37*
D69*
G01*
X7005091Y1930501D03*
G36*
X6260084Y982218D02*
G01*
X6260084Y1129537D01*
X6300724Y1129537D01*
X6300724Y982218D01*
G37*
G01*
X6150305Y1055903D03*
G36*
X7362443Y822197D02*
G01*
X7362443Y933957D01*
X7474204Y933957D01*
X7474204Y822197D01*
G37*
G36*
X7222743Y822197D02*
G01*
X7222743Y933957D01*
X7334504Y933957D01*
X7334504Y822197D01*
G37*
G36*
X5952743Y466597D02*
G01*
X5952743Y578357D01*
X6064504Y578357D01*
X6064504Y466597D01*
G37*
G36*
X5952743Y606297D02*
G01*
X5952743Y718057D01*
X6064504Y718057D01*
X6064504Y606297D01*
G37*
G36*
X5863843Y1838197D02*
G01*
X5863843Y1949957D01*
X5975604Y1949957D01*
X5975604Y1838197D01*
G37*
G36*
X5724143Y1838197D02*
G01*
X5724143Y1949957D01*
X5835904Y1949957D01*
X5835904Y1838197D01*
G37*
G36*
X7222743Y1292097D02*
G01*
X7222743Y1403857D01*
X7334504Y1403857D01*
X7334504Y1292097D01*
G37*
G36*
X7362443Y1292097D02*
G01*
X7362443Y1403857D01*
X7474204Y1403857D01*
X7474204Y1292097D01*
G37*
G36*
X7222743Y1038097D02*
G01*
X7222743Y1149857D01*
X7334504Y1149857D01*
X7334504Y1038097D01*
G37*
G36*
X7362443Y1038097D02*
G01*
X7362443Y1149857D01*
X7474204Y1149857D01*
X7474204Y1038097D01*
G37*
G36*
X6232143Y466597D02*
G01*
X6232143Y578357D01*
X6343904Y578357D01*
X6343904Y466597D01*
G37*
G36*
X6232143Y606297D02*
G01*
X6232143Y718057D01*
X6343904Y718057D01*
X6343904Y606297D01*
G37*
G36*
X7222743Y1914397D02*
G01*
X7222743Y2026157D01*
X7334504Y2026157D01*
X7334504Y1914397D01*
G37*
G36*
X7362443Y1914397D02*
G01*
X7362443Y2026157D01*
X7474204Y2026157D01*
X7474204Y1914397D01*
G37*
G36*
X6092443Y2117597D02*
G01*
X6092443Y2229357D01*
X6204204Y2229357D01*
X6204204Y2117597D01*
G37*
G36*
X6232143Y2117597D02*
G01*
X6232143Y2229357D01*
X6343904Y2229357D01*
X6343904Y2117597D01*
G37*
G36*
X6679184Y466597D02*
G01*
X6679184Y578357D01*
X6790943Y578357D01*
X6790943Y466597D01*
G37*
G36*
X6679184Y606297D02*
G01*
X6679184Y718057D01*
X6790943Y718057D01*
X6790943Y606297D01*
G37*
G36*
X6851904Y466597D02*
G01*
X6851904Y578357D01*
X6963663Y578357D01*
X6963663Y466597D01*
G37*
G36*
X6851904Y606297D02*
G01*
X6851904Y718057D01*
X6963663Y718057D01*
X6963663Y606297D01*
G37*
G36*
X8137143Y2549397D02*
G01*
X8137143Y2661157D01*
X8248904Y2661157D01*
X8248904Y2549397D01*
G37*
G36*
X8137143Y2409697D02*
G01*
X8137143Y2521457D01*
X8248904Y2521457D01*
X8248904Y2409697D01*
G37*
G36*
X7822691Y2721610D02*
G01*
X7801609Y2742692D01*
X7801609Y2899663D01*
X7822691Y2920745D01*
X7852409Y2920745D01*
X7873491Y2899663D01*
X7873491Y2742692D01*
X7852409Y2721610D01*
G37*
G36*
X7695691Y2721610D02*
G01*
X7674609Y2742692D01*
X7674609Y2899663D01*
X7695691Y2920745D01*
X7725409Y2920745D01*
X7746491Y2899663D01*
X7746491Y2742692D01*
X7725409Y2721610D01*
G37*
G36*
X7568691Y2721610D02*
G01*
X7547609Y2742692D01*
X7547609Y2899663D01*
X7568691Y2920745D01*
X7598409Y2920745D01*
X7619491Y2899663D01*
X7619491Y2742692D01*
X7598409Y2721610D01*
G37*
G36*
X7568691Y2162810D02*
G01*
X7547609Y2183892D01*
X7547609Y2340863D01*
X7568691Y2361945D01*
X7598409Y2361945D01*
X7619491Y2340863D01*
X7619491Y2183892D01*
X7598409Y2162810D01*
G37*
G36*
X7695691Y2162810D02*
G01*
X7674609Y2183892D01*
X7674609Y2340863D01*
X7695691Y2361945D01*
X7725409Y2361945D01*
X7746491Y2340863D01*
X7746491Y2183892D01*
X7725409Y2162810D01*
G37*
G36*
X7822691Y2162810D02*
G01*
X7801609Y2183892D01*
X7801609Y2340863D01*
X7822691Y2361945D01*
X7852409Y2361945D01*
X7873491Y2340863D01*
X7873491Y2183892D01*
X7852409Y2162810D01*
G37*
G36*
X7949691Y2162810D02*
G01*
X7928609Y2183892D01*
X7928609Y2340863D01*
X7949691Y2361945D01*
X7979409Y2361945D01*
X8000491Y2340863D01*
X8000491Y2183892D01*
X7979409Y2162810D01*
G37*
G36*
X7926324Y2719578D02*
G01*
X7926324Y2922778D01*
X8002524Y2922778D01*
X8002524Y2719578D01*
G37*
G36*
X5185663Y880618D02*
G01*
X5185663Y1027937D01*
X5358384Y1027937D01*
X5358384Y880618D01*
G37*
G36*
X5414263Y880618D02*
G01*
X5414263Y1027937D01*
X5586984Y1027937D01*
X5586984Y880618D01*
G37*
G36*
X6562343Y3362197D02*
G01*
X6562343Y3473957D01*
X6674104Y3473957D01*
X6674104Y3362197D01*
G37*
G36*
X6562343Y3222497D02*
G01*
X6562343Y3334257D01*
X6674104Y3334257D01*
X6674104Y3222497D01*
G37*
G36*
X6346443Y3997197D02*
G01*
X6346443Y4108957D01*
X6458204Y4108957D01*
X6458204Y3997197D01*
G37*
G36*
X6346443Y3857497D02*
G01*
X6346443Y3969257D01*
X6458204Y3969257D01*
X6458204Y3857497D01*
G37*
G36*
X6778243Y3362197D02*
G01*
X6778243Y3473957D01*
X6890004Y3473957D01*
X6890004Y3362197D01*
G37*
G36*
X6778243Y3222497D02*
G01*
X6778243Y3334257D01*
X6890004Y3334257D01*
X6890004Y3222497D01*
G37*
G36*
X6346443Y3222497D02*
G01*
X6346443Y3334257D01*
X6458204Y3334257D01*
X6458204Y3222497D01*
G37*
G36*
X6346443Y3362197D02*
G01*
X6346443Y3473957D01*
X6458204Y3473957D01*
X6458204Y3362197D01*
G37*
G36*
X6185154Y3979418D02*
G01*
X6185154Y4126737D01*
X6238493Y4126737D01*
X6238493Y3979418D01*
G37*
G36*
X6562343Y3857497D02*
G01*
X6562343Y3969257D01*
X6674104Y3969257D01*
X6674104Y3857497D01*
G37*
G36*
X6562343Y3997197D02*
G01*
X6562343Y4108957D01*
X6674104Y4108957D01*
X6674104Y3997197D01*
G37*
G36*
X8137143Y911097D02*
G01*
X8137143Y1022857D01*
X8248904Y1022857D01*
X8248904Y911097D01*
G37*
G36*
X8137143Y1050797D02*
G01*
X8137143Y1162557D01*
X8248904Y1162557D01*
X8248904Y1050797D01*
G37*
G36*
X8137143Y1419097D02*
G01*
X8137143Y1530857D01*
X8248904Y1530857D01*
X8248904Y1419097D01*
G37*
G36*
X8137143Y1279397D02*
G01*
X8137143Y1391157D01*
X8248904Y1391157D01*
X8248904Y1279397D01*
G37*
G36*
X6778243Y3997197D02*
G01*
X6778243Y4108957D01*
X6890004Y4108957D01*
X6890004Y3997197D01*
G37*
G36*
X6778243Y3857497D02*
G01*
X6778243Y3969257D01*
X6890004Y3969257D01*
X6890004Y3857497D01*
G37*
G36*
X4586224Y2080005D02*
G01*
X4586224Y2187955D01*
X4830318Y2187955D01*
X4830318Y2080005D01*
G37*
G36*
X4586224Y2309876D02*
G01*
X4586224Y2418079D01*
X4830318Y2418079D01*
X4830318Y2309876D01*
G37*
G36*
X4586224Y2540000D02*
G01*
X4586224Y2648204D01*
X4830318Y2648204D01*
X4830318Y2540000D01*
G37*
G36*
X4012184Y2178812D02*
G01*
X4012184Y2549144D01*
X4256277Y2549144D01*
X4256277Y2178812D01*
G37*
G36*
X6857238Y4677155D02*
G01*
X6857238Y4822444D01*
X7008368Y4822444D01*
X7008368Y4677155D01*
G37*
G36*
X7063231Y4677155D02*
G01*
X7063231Y4822444D01*
X7214361Y4822444D01*
X7214361Y4677155D01*
G37*
G36*
X7063231Y4893055D02*
G01*
X7063231Y5038344D01*
X7214361Y5038344D01*
X7214361Y4893055D01*
G37*
G36*
X6857238Y4893055D02*
G01*
X6857238Y5038344D01*
X7008368Y5038344D01*
X7008368Y4893055D01*
G37*
G36*
X7063231Y5108955D02*
G01*
X7063231Y5254244D01*
X7214361Y5254244D01*
X7214361Y5108955D01*
G37*
G36*
X6857238Y5108955D02*
G01*
X6857238Y5254244D01*
X7008368Y5254244D01*
X7008368Y5108955D01*
G37*
G36*
X7063231Y5324855D02*
G01*
X7063231Y5470144D01*
X7214361Y5470144D01*
X7214361Y5324855D01*
G37*
G36*
X6857238Y5324855D02*
G01*
X6857238Y5470144D01*
X7008368Y5470144D01*
X7008368Y5324855D01*
G37*
G36*
X4959095Y4626610D02*
G01*
X4959095Y4744973D01*
X5072379Y4744973D01*
X5072379Y4626610D01*
G37*
G36*
X5113274Y4627118D02*
G01*
X5113274Y4745481D01*
X5226558Y4745481D01*
X5226558Y4627118D01*
G37*
G36*
X5340095Y4626863D02*
G01*
X5340095Y4745228D01*
X5453379Y4745228D01*
X5453379Y4626863D01*
G37*
G36*
X5494274Y4626863D02*
G01*
X5494274Y4745228D01*
X5607558Y4745228D01*
X5607558Y4626863D01*
G37*
G36*
X5338063Y4838954D02*
G01*
X5338063Y4957318D01*
X5451347Y4957318D01*
X5451347Y4838954D01*
G37*
G36*
X5492241Y4838954D02*
G01*
X5492241Y4957318D01*
X5605525Y4957318D01*
X5605525Y4838954D01*
G37*
G36*
X5110988Y4839970D02*
G01*
X5110988Y4958079D01*
X5224272Y4958079D01*
X5224272Y4839970D01*
G37*
G36*
X4956809Y4839462D02*
G01*
X4956809Y4957571D01*
X5070093Y4957571D01*
X5070093Y4839462D01*
G37*
G36*
X5336031Y5051297D02*
G01*
X5336031Y5169662D01*
X5449315Y5169662D01*
X5449315Y5051297D01*
G37*
G36*
X5489956Y5051297D02*
G01*
X5489956Y5169662D01*
X5603493Y5169662D01*
X5603493Y5051297D01*
G37*
G36*
X5108956Y5052060D02*
G01*
X5108956Y5170423D01*
X5222240Y5170423D01*
X5222240Y5052060D01*
G37*
G36*
X4954777Y5051552D02*
G01*
X4954777Y5169915D01*
X5068061Y5169915D01*
X5068061Y5051552D01*
G37*
G36*
X5333745Y5263387D02*
G01*
X5333745Y5381752D01*
X5447284Y5381752D01*
X5447284Y5263387D01*
G37*
G36*
X5487924Y5263387D02*
G01*
X5487924Y5381752D01*
X5601208Y5381752D01*
X5601208Y5263387D01*
G37*
G36*
X5331713Y5475731D02*
G01*
X5331713Y5593842D01*
X5444997Y5593842D01*
X5444997Y5475731D01*
G37*
G36*
X5485891Y5475731D02*
G01*
X5485891Y5593842D01*
X5599175Y5593842D01*
X5599175Y5475731D01*
G37*
G36*
X4597145Y2802128D02*
G01*
X4597145Y2910078D01*
X4841493Y2910078D01*
X4841493Y2802128D01*
G37*
G36*
X4597145Y3031997D02*
G01*
X4597145Y3140202D01*
X4841493Y3140202D01*
X4841493Y3031997D01*
G37*
G36*
X4597145Y3262121D02*
G01*
X4597145Y3370071D01*
X4841493Y3370071D01*
X4841493Y3262121D01*
G37*
G36*
X4023106Y2900934D02*
G01*
X4023106Y3271265D01*
X4267454Y3271265D01*
X4267454Y2900934D01*
G37*
G36*
X3899661Y5763768D02*
G01*
X3899661Y5922263D01*
X4082541Y5922263D01*
X4082541Y5763768D01*
G37*
G36*
X3899661Y5445252D02*
G01*
X3899661Y5603747D01*
X4082541Y5603747D01*
X4082541Y5445252D01*
G37*
G36*
X3649218Y5763768D02*
G01*
X3649218Y5922263D01*
X3832097Y5922263D01*
X3832097Y5763768D01*
G37*
G36*
X3649218Y5445252D02*
G01*
X3649218Y5603747D01*
X3832097Y5603747D01*
X3832097Y5445252D01*
G37*
G36*
X3401059Y5763768D02*
G01*
X3401059Y5922263D01*
X3583940Y5922263D01*
X3583940Y5763768D01*
G37*
G36*
X3401059Y5445252D02*
G01*
X3401059Y5603747D01*
X3583940Y5603747D01*
X3583940Y5445252D01*
G37*
G36*
X7483093Y3972560D02*
G01*
X7483093Y4155439D01*
X7641590Y4155439D01*
X7641590Y3972560D01*
G37*
G36*
X7801609Y3972560D02*
G01*
X7801609Y4155439D01*
X7960106Y4155439D01*
X7960106Y3972560D01*
G37*
G36*
X7483093Y3718560D02*
G01*
X7483093Y3901439D01*
X7641590Y3901439D01*
X7641590Y3718560D01*
G37*
G36*
X7801609Y3718560D02*
G01*
X7801609Y3901439D01*
X7960106Y3901439D01*
X7960106Y3718560D01*
G37*
D79*
G01*
X4168393Y914400D03*
G01*
X4518406Y914400D03*
G01*
X3330193Y914400D03*
G01*
X3680206Y914400D03*
G01*
X2911093Y1638300D03*
G01*
X3261106Y1638300D03*
G01*
X3749293Y1638300D03*
G01*
X4099306Y1638300D03*
G36*
X3554984Y4456429D02*
G01*
X3554984Y4601718D01*
X3706113Y4601718D01*
X3706113Y4456429D01*
G37*
G36*
X3348990Y4456429D02*
G01*
X3348990Y4601718D01*
X3500120Y4601718D01*
X3500120Y4456429D01*
G37*
G36*
X3018790Y4691634D02*
G01*
X3018790Y4871973D01*
X3248913Y4871973D01*
X3248913Y4691634D01*
G37*
D66*
G01*
X3133877Y5171770D03*
G36*
X3348990Y4939029D02*
G01*
X3348990Y5084318D01*
X3500120Y5084318D01*
X3500120Y4939029D01*
G37*
G36*
X3554984Y4939029D02*
G01*
X3554984Y5084318D01*
X3706113Y5084318D01*
X3706113Y4939029D01*
G37*
G36*
X3348990Y4697729D02*
G01*
X3348990Y4843018D01*
X3500120Y4843018D01*
X3500120Y4697729D01*
G37*
G36*
X3554984Y4697729D02*
G01*
X3554984Y4843018D01*
X3706113Y4843018D01*
X3706113Y4697729D01*
G37*
G36*
X3348990Y5180329D02*
G01*
X3348990Y5325618D01*
X3500120Y5325618D01*
X3500120Y5180329D01*
G37*
G36*
X3554984Y5180329D02*
G01*
X3554984Y5325618D01*
X3706113Y5325618D01*
X3706113Y5180329D01*
G37*
G36*
X3503675Y2983229D02*
G01*
X3503675Y3163570D01*
X3633724Y3163570D01*
X3633724Y2983229D01*
G37*
G36*
X3503675Y2729229D02*
G01*
X3503675Y2909570D01*
X3633724Y2909570D01*
X3633724Y2729229D01*
G37*
G36*
X3249675Y2983229D02*
G01*
X3249675Y3163570D01*
X3379724Y3163570D01*
X3379724Y2983229D01*
G37*
G36*
X3249675Y2729229D02*
G01*
X3249675Y2909570D01*
X3379724Y2909570D01*
X3379724Y2729229D01*
G37*
G36*
X2995675Y2983229D02*
G01*
X2995675Y3163570D01*
X3125724Y3163570D01*
X3125724Y2983229D01*
G37*
G36*
X2995675Y2729229D02*
G01*
X2995675Y2909570D01*
X3125724Y2909570D01*
X3125724Y2729229D01*
G37*
G36*
X2741675Y2983229D02*
G01*
X2741675Y3163570D01*
X2871724Y3163570D01*
X2871724Y2983229D01*
G37*
G36*
X2741675Y2729229D02*
G01*
X2741675Y2909570D01*
X2871724Y2909570D01*
X2871724Y2729229D01*
G37*
G36*
X2487675Y2983229D02*
G01*
X2487675Y3163570D01*
X2617724Y3163570D01*
X2617724Y2983229D01*
G37*
G36*
X2487675Y2729229D02*
G01*
X2487675Y2909570D01*
X2617724Y2909570D01*
X2617724Y2729229D01*
G37*
G36*
X2233675Y2983229D02*
G01*
X2233675Y3163570D01*
X2363724Y3163570D01*
X2363724Y2983229D01*
G37*
G36*
X2233675Y2729229D02*
G01*
X2233675Y2909570D01*
X2363724Y2909570D01*
X2363724Y2729229D01*
G37*
G36*
X1979675Y2983229D02*
G01*
X1979675Y3163570D01*
X2109724Y3163570D01*
X2109724Y2983229D01*
G37*
G36*
X1979675Y2729229D02*
G01*
X1979675Y2909570D01*
X2109724Y2909570D01*
X2109724Y2729229D01*
G37*
G36*
X1725675Y2983229D02*
G01*
X1725675Y3163570D01*
X1855724Y3163570D01*
X1855724Y2983229D01*
G37*
G36*
X1725675Y2729229D02*
G01*
X1725675Y2909570D01*
X1855724Y2909570D01*
X1855724Y2729229D01*
G37*
G36*
X1471675Y2983229D02*
G01*
X1471675Y3163570D01*
X1601724Y3163570D01*
X1601724Y2983229D01*
G37*
G36*
X1471675Y2729229D02*
G01*
X1471675Y2909570D01*
X1601724Y2909570D01*
X1601724Y2729229D01*
G37*
G36*
X1217675Y2983229D02*
G01*
X1217675Y3163570D01*
X1347724Y3163570D01*
X1347724Y2983229D01*
G37*
G36*
X1217675Y2729229D02*
G01*
X1217675Y2909570D01*
X1347724Y2909570D01*
X1347724Y2729229D01*
G37*
G36*
X963675Y2983229D02*
G01*
X963675Y3163570D01*
X1093724Y3163570D01*
X1093724Y2983229D01*
G37*
G36*
X963675Y2729229D02*
G01*
X963675Y2909570D01*
X1093724Y2909570D01*
X1093724Y2729229D01*
G37*
G36*
X3917695Y3854450D02*
G01*
X3917695Y4044950D01*
X4057904Y4044950D01*
X4057904Y3854450D01*
G37*
G36*
X3663695Y3854450D02*
G01*
X3663695Y4044950D01*
X3803904Y4044950D01*
X3803904Y3854450D01*
G37*
G36*
X3409695Y3854450D02*
G01*
X3409695Y4044950D01*
X3549904Y4044950D01*
X3549904Y3854450D01*
G37*
G36*
X3409695Y3600450D02*
G01*
X3409695Y3790950D01*
X3549904Y3790950D01*
X3549904Y3600450D01*
G37*
G36*
X3663695Y3600450D02*
G01*
X3663695Y3790950D01*
X3803904Y3790950D01*
X3803904Y3600450D01*
G37*
G36*
X3917695Y3600450D02*
G01*
X3917695Y3790950D01*
X4057904Y3790950D01*
X4057904Y3600450D01*
G37*
G36*
X4239259Y3895852D02*
G01*
X4239259Y4054347D01*
X4422140Y4054347D01*
X4422140Y3895852D01*
G37*
G36*
X4239259Y3577336D02*
G01*
X4239259Y3735831D01*
X4422140Y3735831D01*
X4422140Y3577336D01*
G37*
G36*
X3568954Y4213860D02*
G01*
X3568954Y4361687D01*
X3692397Y4361687D01*
X3692397Y4213860D01*
G37*
G36*
X3375659Y4213860D02*
G01*
X3375659Y4361687D01*
X3499104Y4361687D01*
X3499104Y4213860D01*
G37*
G36*
X3487420Y2337815D02*
G01*
X3487420Y2488184D01*
X3672586Y2488184D01*
X3672586Y2337815D01*
G37*
G36*
X2753613Y2337815D02*
G01*
X2753613Y2488184D01*
X2938779Y2488184D01*
X2938779Y2337815D01*
G37*
G36*
X1375918Y1732279D02*
G01*
X1375918Y1845563D01*
X1494281Y1845563D01*
X1494281Y1732279D01*
G37*
G36*
X1375918Y1886457D02*
G01*
X1375918Y1999742D01*
X1494281Y1999742D01*
X1494281Y1886457D01*
G37*
G36*
X1376425Y1377695D02*
G01*
X1376425Y1490979D01*
X1494790Y1490979D01*
X1494790Y1377695D01*
G37*
G36*
X1375918Y1531873D02*
G01*
X1375918Y1645157D01*
X1494281Y1645157D01*
X1494281Y1531873D01*
G37*
G36*
X1172463Y1731263D02*
G01*
X1172463Y1844547D01*
X1290827Y1844547D01*
X1290827Y1731263D01*
G37*
G36*
X1172463Y1885442D02*
G01*
X1172463Y1998726D01*
X1290827Y1998726D01*
X1290827Y1885442D01*
G37*
G36*
X1172972Y1376679D02*
G01*
X1172972Y1489963D01*
X1291336Y1489963D01*
X1291336Y1376679D01*
G37*
G36*
X1172463Y1530857D02*
G01*
X1172463Y1644142D01*
X1290827Y1644142D01*
X1290827Y1530857D01*
G37*
G36*
X969518Y1375663D02*
G01*
X969518Y1488947D01*
X1087881Y1488947D01*
X1087881Y1375663D01*
G37*
G36*
X969009Y1529842D02*
G01*
X969009Y1643126D01*
X1087374Y1643126D01*
X1087374Y1529842D01*
G37*
G36*
X969009Y1730502D02*
G01*
X969009Y1843786D01*
X1087374Y1843786D01*
X1087374Y1730502D01*
G37*
G36*
X969009Y1884679D02*
G01*
X969009Y1997963D01*
X1087374Y1997963D01*
X1087374Y1884679D01*
G37*
G36*
X2393950Y1382268D02*
G01*
X2393950Y1495552D01*
X2512059Y1495552D01*
X2512059Y1382268D01*
G37*
G36*
X2393441Y1536445D02*
G01*
X2393441Y1649729D01*
X2511552Y1649729D01*
X2511552Y1536445D01*
G37*
G36*
X2393441Y1737105D02*
G01*
X2393441Y1850389D01*
X2511552Y1850389D01*
X2511552Y1737105D01*
G37*
G36*
X2393441Y1891284D02*
G01*
X2393441Y2004568D01*
X2511552Y2004568D01*
X2511552Y1891284D01*
G37*
G36*
X2190495Y1381505D02*
G01*
X2190495Y1494789D01*
X2308606Y1494789D01*
X2308606Y1381505D01*
G37*
G36*
X2189988Y1535684D02*
G01*
X2189988Y1648968D01*
X2308097Y1648968D01*
X2308097Y1535684D01*
G37*
G36*
X2189734Y1736089D02*
G01*
X2189734Y1849373D01*
X2308097Y1849373D01*
X2308097Y1736089D01*
G37*
G36*
X2189734Y1890268D02*
G01*
X2189734Y2003552D01*
X2308097Y2003552D01*
X2308097Y1890268D01*
G37*
G36*
X1986279Y1735073D02*
G01*
X1986279Y1848357D01*
X2104643Y1848357D01*
X2104643Y1735073D01*
G37*
G36*
X1986279Y1889252D02*
G01*
X1986279Y2002536D01*
X2104643Y2002536D01*
X2104643Y1889252D01*
G37*
G36*
X1986788Y1380489D02*
G01*
X1986788Y1493773D01*
X2105152Y1493773D01*
X2105152Y1380489D01*
G37*
G36*
X1986279Y1534668D02*
G01*
X1986279Y1647952D01*
X2104643Y1647952D01*
X2104643Y1534668D01*
G37*
G36*
X1783334Y1379473D02*
G01*
X1783334Y1492757D01*
X1901697Y1492757D01*
X1901697Y1379473D01*
G37*
G36*
X1782825Y1533652D02*
G01*
X1782825Y1646936D01*
X1901190Y1646936D01*
X1901190Y1533652D01*
G37*
G36*
X1782825Y1734312D02*
G01*
X1782825Y1847595D01*
X1901190Y1847595D01*
X1901190Y1734312D01*
G37*
G36*
X1782825Y1888236D02*
G01*
X1782825Y2001773D01*
X1901190Y2001773D01*
X1901190Y1888236D01*
G37*
G36*
X1579879Y1378712D02*
G01*
X1579879Y1491995D01*
X1698243Y1491995D01*
X1698243Y1378712D01*
G37*
G36*
X1579372Y1532636D02*
G01*
X1579372Y1646173D01*
X1697736Y1646173D01*
X1697736Y1532636D01*
G37*
G36*
X1579372Y1733295D02*
G01*
X1579372Y1846579D01*
X1697736Y1846579D01*
X1697736Y1733295D01*
G37*
G36*
X1579372Y1887473D02*
G01*
X1579372Y2000757D01*
X1697736Y2000757D01*
X1697736Y1887473D01*
G37*
M02*
