M48
METRIC,LZ,000.000
;FILE_FORMAT=3:3
;TYPE=PLATED
;Layer: Drill PTH
;EasyEDA v6.4.19.4, 2021-05-08T19:32:42+08:00
;959c2f807fa24cb394336e4151b9ccfb,119f753a6ce64b8d841f2ad33262ab0c,10
;Gerber Generator version 0.2
;Holesize 1 = 0.301 mm
T01C0.301
;Holesize 2 = 0.305 mm
T02C0.305
;Holesize 3 = 0.356 mm
T03C0.356
;Holesize 4 = 0.400 mm
T04C0.400
;Holesize 5 = 0.901 mm
T05C0.901
;Holesize 6 = 1.000 mm
T06C1.000
;Holesize 7 = 3.101 mm
T07C3.101
%
G05
G90
T01
X054880Y006622
X055642Y005352
X067199Y007892
X061484Y019576
X057801Y010178
X056658Y018941
X060341Y022370
X069180Y003828
X065786Y009525
X069358Y007892
X067326Y-002192
X062119Y008019
X069358Y009213
X069180Y000907
X063389Y035324
X059833Y037610
X059833Y034562
X064659Y035324
X064135Y-002667
X067275Y000907
X067275Y003828
X059960Y002558
X075327Y013480
X071501Y019304
X078375Y020719
X058563Y037610
X057293Y037610
X056023Y037610
X054753Y037610
X054753Y036340
X056023Y036340
X057293Y036340
X058563Y036340
X059833Y036340
X050816Y027450
X049403Y028448
X048276Y027450
X060341Y024910
X060341Y027450
X056658Y027704
X057928Y027704
X057928Y026434
X056404Y023640
X056404Y022370
X065040Y021354
X066310Y021354
X067580Y021354
X067580Y016020
X068850Y016020
X068850Y014750
X067580Y014750
X064532Y018052
X065802Y018052
X064532Y016782
X062754Y014242
X063516Y014242
X070374Y008654
X079718Y007603
X076978Y026180
X078248Y026180
X078248Y024910
X076978Y024910
X055372Y001270
X055372Y000000
X056642Y000000
X056642Y001270
X056642Y-001270
X055372Y-001270
X054102Y001270
X054102Y000000
X056912Y015639
X056912Y014369
X058182Y014369
X058182Y015639
X059452Y015639
X059452Y014369
X061611Y026180
X062881Y027450
X064151Y026180
X065421Y027450
X066691Y026180
X067961Y027450
X069231Y026180
X062881Y024910
X065421Y024910
X067961Y024910
X061611Y023640
X070501Y024910
X077178Y007603
X073368Y006333
X082258Y007603
X061366Y050673
X061366Y048133
X061366Y053213
X057912Y048133
X048562Y046860
X051054Y001651
X054102Y-001270
X039370Y-003429
X041910Y-003429
X044450Y-003429
X040640Y-002159
X043180Y-002159
X045720Y-002159
X039370Y-000889
X041910Y-000889
X044450Y-000889
X040640Y000381
X043180Y000381
X045720Y000381
X039370Y001651
X041910Y001651
X044450Y001651
X040640Y002921
X043180Y002921
X045720Y002921
X039370Y004191
X041910Y004191
X044450Y004191
X046990Y004191
X082931Y031369
X082931Y033909
X082931Y036449
X082931Y038989
X081661Y032639
X081661Y035179
X081661Y037719
X082931Y041529
X082931Y044069
X082931Y046609
X081661Y040259
X081661Y042799
X081661Y045339
X082931Y049149
X082931Y051689
X082931Y054229
X081661Y047879
X081661Y050419
X081661Y052959
X082931Y056769
X082931Y059309
X081661Y055499
X080391Y059309
X077851Y059309
X075311Y059309
X081661Y058039
X072771Y059309
X070231Y059309
X067691Y059309
X074041Y058039
X071501Y058039
X068961Y058039
X065151Y059309
X062611Y059309
X060071Y059309
X066421Y058039
X063881Y058039
X061341Y058039
X057531Y059309
X054991Y059309
X052451Y059309
X058801Y058039
X056261Y058039
X053721Y058039
X049911Y059309
X047371Y059309
X044831Y059309
X051181Y058039
X048641Y058039
X046101Y058039
X042291Y059309
X043561Y058039
X032131Y059309
X029591Y059309
X033401Y058039
X030861Y058039
X027051Y059309
X024511Y059309
X021971Y059309
X028321Y058039
X025781Y058039
X023241Y058039
X019431Y059309
X016891Y059309
X020701Y058039
X018161Y058039
X076581Y035179
X079121Y035179
X080391Y033909
X074041Y035179
X075311Y033909
X076581Y032639
X077851Y033909
X079121Y032639
X074438Y032530
X076581Y042799
X079121Y042799
X080391Y044069
X076581Y058039
X079121Y058039
X080391Y056769
X077851Y056769
X079121Y055499
X080391Y054229
X077895Y049222
X077895Y051762
X076625Y050492
X075355Y049222
X076625Y047952
X075355Y046682
X077895Y046682
X076625Y053032
X075355Y051762
X075355Y054302
X052789Y042545
X054059Y042545
X055329Y042545
X056599Y042545
X051519Y042545
X056599Y045085
X055329Y045085
X054059Y045085
X052789Y045085
X051519Y045085
X046482Y041910
X047752Y043180
X045212Y043180
X049022Y044450
X046482Y044450
X043942Y044450
X047752Y045720
X045212Y045720
X046482Y046990
X043942Y046990
X045212Y048260
X046482Y049530
X047752Y050800
X047752Y048260
X049022Y052070
X050419Y052959
X052578Y054356
X062484Y054229
X062484Y055499
X063754Y055499
X063754Y054229
X062484Y052959
X063754Y052959
X062484Y051689
X063754Y051689
X062484Y050419
X063754Y050419
X062484Y049149
X063754Y049149
X061341Y045466
X062611Y045466
X057912Y045593
X057785Y049276
X056769Y048133
X073787Y045593
X068453Y043053
X069723Y043053
X070993Y043053
X072263Y043053
X080988Y006333
X078448Y006333
X075908Y006333
X079718Y005063
X077178Y005063
X074295Y005461
X082258Y005063
X075908Y010143
X075908Y008873
X076835Y012192
X078105Y012192
X079375Y012192
X083528Y006333
X083528Y008873
X083528Y011413
X083528Y013953
X083528Y016493
X083528Y019033
X083528Y021573
X082258Y022843
X082258Y020303
X082258Y017763
X080988Y021573
X080988Y019033
X080988Y016493
X078448Y016493
X079718Y017763
X083528Y024113
X083528Y026653
X083528Y029193
X082258Y027923
X051054Y002540
X059690Y001270
X059690Y000000
X059690Y-001270
X062103Y003429
X062103Y002159
X063373Y002159
X063373Y003429
X063373Y000889
X062103Y000889
X065532Y009017
X053086Y017272
X053086Y016002
X054356Y016002
X054356Y017272
X039624Y014605
X040894Y013335
X038354Y013335
X039624Y012065
X038354Y010795
X040894Y010795
X042164Y012065
X043434Y010795
X037084Y014605
X037084Y012065
X035814Y013335
X034544Y014605
X035814Y015875
X034544Y017145
X035814Y018415
X037084Y019685
X038354Y018415
X039624Y019685
X030734Y013335
X029464Y014605
X032004Y012065
X033274Y010795
X030734Y015875
X030734Y018415
X029464Y019685
X032004Y019685
X033274Y020955
X029464Y012065
X032004Y009525
X030734Y010795
X034544Y009525
X034544Y006985
X033274Y005715
X035814Y005715
X032004Y006985
X030734Y008255
X030734Y005715
X034544Y004445
X032004Y004445
X037084Y004445
X039205Y016382
X044704Y014605
X045974Y013335
X043942Y018923
X045212Y020193
X046482Y018923
X047752Y020193
X049022Y018923
X050292Y020193
X042672Y017653
X045212Y017653
X047752Y017653
X050292Y017653
X052578Y019050
X047244Y012065
X048514Y010795
X049784Y009525
X051054Y008255
X049784Y012065
X048514Y013335
X047244Y014605
X049784Y014605
X081661Y030099
X080391Y031369
X079121Y030099
X077851Y031369
X075708Y031260
X076978Y029990
X073168Y033800
X071898Y035070
X070628Y036340
X070628Y033800
X071898Y032530
X073168Y031260
X074438Y029990
X073168Y036340
X077851Y036449
X080391Y036449
X071898Y037610
X073168Y038880
X071898Y040150
X073168Y041420
X080391Y038989
X080391Y041529
X077978Y018923
X076597Y014750
X074638Y007603
X065470Y002540
X065470Y001651
X065470Y000762
X070358Y009525
X069723Y010160
X045736Y027450
X048276Y035070
X049546Y036340
X048276Y037610
X049546Y038880
X048276Y040150
X049546Y041420
X049403Y029718
X049403Y030988
X049403Y032258
X049403Y033528
X042037Y026289
X040767Y026289
X046228Y034417
X039243Y029083
X039243Y030353
X039243Y031623
X039243Y032893
X075311Y056769
X072771Y056769
X070231Y056769
X067691Y056769
X065151Y056769
X062611Y056769
X060071Y056769
X057531Y056769
X054991Y056769
X052451Y056769
X049911Y056769
X047371Y056769
X044831Y056769
X046101Y055499
X048641Y055499
X047371Y054229
X044831Y054229
X046101Y052959
X044831Y051689
X043561Y052959
X043561Y050419
X043561Y055499
X042291Y056769
X042164Y041529
X052324Y041021
X052705Y039497
X067072Y035451
X067183Y039116
X077538Y039370
X062738Y043180
X071501Y023114
X029083Y052070
X028194Y052070
X028194Y052959
X029083Y052959
X021423Y047705
X022312Y047705
X024384Y046228
X023495Y046228
X023495Y047117
X024384Y047117
X022312Y046816
X021423Y046816
X026894Y046903
X036419Y051292
X036419Y048879
X036419Y046466
X033117Y048879
X026289Y042418
X025527Y041783
X026924Y046101
X026670Y050419
X026094Y051054
X027686Y044577
X027686Y043307
X025294Y053721
X024493Y053721
X023696Y053721
X022896Y053721
X022096Y053721
X021296Y054356
X016891Y050901
X040894Y042799
X024130Y049657
X024765Y049657
X014478Y049300
X026162Y040513
X025527Y039878
X024765Y039497
X023876Y039116
X012827Y045302
X019431Y043180
X021336Y045593
X022733Y040132
X021971Y032385
X030734Y035052
X024257Y033909
X025527Y032639
X027178Y034798
X028448Y033528
X029464Y036322
X032004Y033782
X033274Y032512
X029718Y032258
X016764Y033782
X018034Y032512
X014224Y036322
X015494Y035052
X010287Y032512
X013208Y032512
X013462Y041021
X014097Y040513
X014732Y041021
X015367Y040513
X016002Y041021
X016637Y040513
X017272Y041021
X017907Y040513
X018542Y041021
X019177Y040513
X019812Y041021
X020447Y040513
X021082Y041021
X021717Y040513
X012192Y041021
X011684Y041656
X011176Y042291
X010668Y042926
X010160Y043561
X009652Y044196
X012700Y040386
X009144Y044831
X072441Y007204
X071514Y008076
X072496Y005406
X071570Y006278
X044069Y038354
X044958Y038354
X038608Y035433
X031750Y037846
X033020Y036576
X034290Y035306
X035560Y034036
X030480Y039116
X036830Y032766
X028702Y039116
X026924Y039116
X032639Y040386
X031496Y044196
X030607Y044196
X030607Y045085
X031496Y045085
X011938Y033782
X031877Y028067
X029337Y028067
X026797Y028067
X024257Y028067
X025654Y022352
X026924Y022352
X028194Y022352
X026924Y023622
X030734Y022225
X022606Y024892
X011303Y020320
X013338Y020329
X015373Y020339
X017407Y020348
X019442Y020358
X021477Y020367
X025546Y020386
X029464Y004445
X029464Y006985
X029464Y009525
X026924Y009525
X026924Y006985
X026924Y004445
X028194Y005715
X028194Y008255
X028194Y010795
X024384Y009525
X024384Y012065
X024384Y006985
X024384Y004445
X025654Y005715
X025654Y008255
X025654Y010795
X021844Y009525
X021844Y012065
X021844Y006985
X021844Y004445
X023114Y005715
X023114Y008255
X023114Y010795
X019304Y009525
X019304Y012065
X019304Y006985
X020574Y005715
X020574Y008255
X020574Y010795
X016764Y009525
X016764Y012065
X016764Y006985
X016764Y004445
X018034Y005715
X018034Y008255
X018034Y010795
X014224Y009525
X014224Y012065
X014224Y006985
X015494Y005715
X015494Y008255
X015494Y010795
X011684Y009525
X011684Y012065
X011684Y006985
X012954Y005715
X012954Y008255
X012954Y010795
X009144Y009525
X009144Y012065
X009144Y006985
X010414Y005715
X010414Y008255
X010414Y010795
X007874Y005715
X007874Y008255
X007874Y010795
X007874Y003175
X007874Y000635
X007874Y-001905
X009144Y004445
X009144Y-000635
X009144Y-003175
X009144Y001905
X018034Y-001905
X018034Y000635
X018034Y003175
X016764Y-003175
X016764Y-000635
X016764Y001905
X019304Y004445
X019304Y001905
X019304Y-000635
X019304Y-003175
X009144Y017145
X009144Y014605
X007874Y015875
X007874Y013335
X009144Y024765
X009144Y019685
X009144Y022225
X007874Y018415
X007874Y020955
X007874Y023495
X007874Y026035
X011557Y044069
X010414Y023495
X011684Y024765
X012954Y026035
X010414Y026035
X015494Y026035
X018034Y026035
X026924Y014605
X028194Y013335
X026924Y012065
X026924Y017145
X026924Y019685
X028194Y018415
X020701Y055499
X019431Y056769
X023241Y055499
X021971Y056769
X024511Y056769
X025781Y055499
X027051Y056769
X028321Y055499
X029591Y056769
X030861Y055499
X032131Y056769
X018161Y055499
X019431Y054229
X016891Y054229
X018161Y052959
X016891Y056769
X009271Y059309
X008001Y058039
X006731Y059309
X006731Y056769
X009271Y056769
X008001Y055499
X006731Y054229
X009271Y054229
X008001Y052959
X006731Y051689
X009271Y051689
X008001Y050419
X006731Y049149
X009271Y049149
X010541Y050419
X011811Y049149
X013081Y050419
X015621Y050419
X008001Y047879
X006731Y046609
X010541Y047879
X009271Y046609
X008001Y045339
X006731Y044069
X006731Y041529
X008001Y042799
X006731Y038989
X008001Y040259
X006731Y036449
X008001Y037719
X006731Y033909
X008001Y035179
X006731Y031369
X008001Y032639
X006731Y028829
X008001Y030099
X006731Y026289
X008001Y027559
X006604Y009525
X006604Y012065
X006604Y006985
X006604Y004445
X006604Y-003175
X006604Y-000635
X006604Y001905
X006604Y017145
X006604Y014605
X006604Y022225
X006604Y024765
X006604Y019685
X014478Y023876
X016002Y023368
X017526Y022860
X019050Y022352
X020574Y021844
X022098Y021336
X023622Y020828
X055626Y029972
X060071Y010160
X058928Y007366
X059817Y012192
X073660Y047625
X064135Y-001905
X069816Y-002915
X069816Y-002153
X067275Y001881
X067275Y002854
X069180Y001881
X069180Y002854
T02
X059309Y-002794
X051816Y-001778
X058690Y-002776
X058182Y-002268
X051578Y010686
X051578Y011548
X059071Y011702
X067310Y054483
X067310Y055753
X057912Y054483
X057912Y055753
X067310Y050673
X072771Y052832
X072771Y050673
X072771Y048514
X067818Y048387
X057911Y046862
X050124Y050041
X056896Y050038
X056875Y052160
X061366Y046862
X068072Y047371
X067310Y046609
X063093Y046861
X052178Y053226
X052157Y055348
X051816Y-002540
X041148Y055245
X038644Y055245
X036162Y055245
X029561Y049300
X025895Y049300
X025908Y048006
X033117Y046466
X026751Y049300
X032766Y050038
X031934Y050024
X051816Y-001016
T03
X067809Y-001252
X065040Y-000414
X064913Y-001227
X067809Y-000414
T04
X056404Y006368
X056912Y008273
X061992Y006622
X052340Y020592
X054118Y031641
X054969Y030752
X055896Y031550
X053356Y030752
X064405Y012083
X072787Y009670
X066405Y011778
X071644Y015639
X073803Y016147
X056785Y029990
X073041Y018052
X074692Y016859
X074565Y017925
X058055Y034562
X063389Y012337
X065040Y014369
X071247Y021336
X062881Y022751
X050308Y034562
X070501Y041674
X058219Y039388
X055619Y038880
X056912Y039134
X071136Y004463
T05
X035687Y030734
X035687Y028194
X033147Y030734
X033147Y028194
X030607Y030734
X030607Y028194
X028067Y030734
X028067Y028194
X025527Y030734
X025527Y028194
X022987Y030734
X022987Y028194
X020447Y030734
X020447Y028194
X017907Y030734
X017907Y028194
X015367Y030734
X015367Y028194
X012827Y030734
X012827Y028194
X010287Y030734
X010287Y028194
X039878Y039497
X037338Y039497
X034798Y039497
X034798Y036957
X037338Y036957
X039878Y036957
T06
X041684Y009144
X045184Y009144
X033302Y009144
X036802Y009144
X029111Y016383
X032611Y016383
X037493Y016383
X040993Y016383
T07
X012954Y-000942G85X012954Y001958
X013081Y054176G85X013081Y057076
M30
