G04 Layer: TopSilkLayer*
G04 EasyEDA v6.4.19.4, 2021-05-08T19:32:42+08:00*
G04 959c2f807fa24cb394336e4151b9ccfb,119f753a6ce64b8d841f2ad33262ab0c,10*
G04 Gerber Generator version 0.2*
G04 Scale: 100 percent, Rotated: No, Reflected: No *
G04 Dimensions in millimeters *
G04 leading zeros omitted , absolute positions ,4 integer and 5 decimal *
%FSLAX45Y45*%
%MOMM*%

%ADD10C,0.1520*%
%ADD11C,0.2032*%
%ADD16C,0.3000*%
%ADD18C,0.4000*%
%ADD19C,0.1778*%
%ADD22C,0.2540*%
%ADD23C,0.3048*%
%ADD25C,0.2000*%
%ADD26C,0.1500*%
%ADD56C,0.1524*%
%ADD57C,0.2500*%
%ADD58C,0.2286*%

%LPD*%
D25*
X4387240Y2256840D02*
G01*
X4382922Y2265730D01*
X4369206Y2279446D01*
X4464710Y2279446D01*
X4441850Y2313990D02*
G01*
X4446422Y2309418D01*
X4450994Y2313990D01*
X4446422Y2318562D01*
X4441850Y2313990D01*
X4369206Y2371394D02*
G01*
X4373778Y2357678D01*
X4382922Y2353106D01*
X4391812Y2353106D01*
X4400956Y2357678D01*
X4405528Y2366822D01*
X4410100Y2384856D01*
X4414672Y2398572D01*
X4423816Y2407716D01*
X4432706Y2412288D01*
X4446422Y2412288D01*
X4455566Y2407716D01*
X4460138Y2403144D01*
X4464710Y2389428D01*
X4464710Y2371394D01*
X4460138Y2357678D01*
X4455566Y2353106D01*
X4446422Y2348534D01*
X4432706Y2348534D01*
X4423816Y2353106D01*
X4414672Y2362250D01*
X4410100Y2375966D01*
X4405528Y2394000D01*
X4400956Y2403144D01*
X4391812Y2407716D01*
X4382922Y2407716D01*
X4373778Y2403144D01*
X4369206Y2389428D01*
X4369206Y2371394D01*
X4380280Y3033369D02*
G01*
X4380280Y2987903D01*
X4421174Y2983331D01*
X4416602Y2987903D01*
X4412030Y3001619D01*
X4412030Y3015335D01*
X4416602Y3028797D01*
X4425746Y3037941D01*
X4439462Y3042513D01*
X4448352Y3042513D01*
X4462068Y3037941D01*
X4471212Y3028797D01*
X4475784Y3015335D01*
X4475784Y3001619D01*
X4471212Y2987903D01*
X4466640Y2983331D01*
X4457496Y2978759D01*
X4452924Y3077057D02*
G01*
X4457496Y3072485D01*
X4462068Y3077057D01*
X4457496Y3081629D01*
X4452924Y3077057D01*
X4380280Y3138779D02*
G01*
X4384852Y3125317D01*
X4398568Y3116173D01*
X4421174Y3111601D01*
X4434890Y3111601D01*
X4457496Y3116173D01*
X4471212Y3125317D01*
X4475784Y3138779D01*
X4475784Y3147923D01*
X4471212Y3161639D01*
X4457496Y3170783D01*
X4434890Y3175101D01*
X4421174Y3175101D01*
X4398568Y3170783D01*
X4384852Y3161639D01*
X4380280Y3147923D01*
X4380280Y3138779D01*
X1738122Y3479037D02*
G01*
X1701800Y3383534D01*
X1738122Y3479037D02*
G01*
X1774443Y3383534D01*
X1715515Y3415537D02*
G01*
X1760981Y3415537D01*
X1831847Y3479037D02*
G01*
X1818131Y3474465D01*
X1808988Y3461004D01*
X1804415Y3438144D01*
X1804415Y3424681D01*
X1808988Y3401821D01*
X1818131Y3388105D01*
X1831847Y3383534D01*
X1840991Y3383534D01*
X1854454Y3388105D01*
X1863597Y3401821D01*
X1868170Y3424681D01*
X1868170Y3438144D01*
X1863597Y3461004D01*
X1854454Y3474465D01*
X1840991Y3479037D01*
X1831847Y3479037D01*
X1750822Y3339337D02*
G01*
X1714500Y3243834D01*
X1750822Y3339337D02*
G01*
X1787143Y3243834D01*
X1728215Y3275837D02*
G01*
X1773681Y3275837D01*
X1817115Y3321304D02*
G01*
X1826259Y3325876D01*
X1839975Y3339337D01*
X1839975Y3243834D01*
X1498348Y3479037D02*
G01*
X1462026Y3383534D01*
X1498348Y3479037D02*
G01*
X1534670Y3383534D01*
X1475742Y3415537D02*
G01*
X1521208Y3415537D01*
X1569214Y3456431D02*
G01*
X1569214Y3461004D01*
X1573786Y3469894D01*
X1578358Y3474465D01*
X1587502Y3479037D01*
X1605536Y3479037D01*
X1614680Y3474465D01*
X1619252Y3469894D01*
X1623824Y3461004D01*
X1623824Y3451860D01*
X1619252Y3442715D01*
X1610108Y3429000D01*
X1564642Y3383534D01*
X1628396Y3383534D01*
X1496822Y3339337D02*
G01*
X1460500Y3243834D01*
X1496822Y3339337D02*
G01*
X1533143Y3243834D01*
X1474215Y3275837D02*
G01*
X1519681Y3275837D01*
X1572259Y3339337D02*
G01*
X1622297Y3339337D01*
X1595120Y3303015D01*
X1608581Y3303015D01*
X1617725Y3298444D01*
X1622297Y3293871D01*
X1626870Y3280410D01*
X1626870Y3271265D01*
X1622297Y3257550D01*
X1613154Y3248405D01*
X1599691Y3243834D01*
X1585975Y3243834D01*
X1572259Y3248405D01*
X1567688Y3252978D01*
X1563115Y3262121D01*
X1241295Y3479037D02*
G01*
X1204973Y3383534D01*
X1241295Y3479037D02*
G01*
X1277617Y3383534D01*
X1218689Y3415537D02*
G01*
X1264155Y3415537D01*
X1353055Y3479037D02*
G01*
X1307589Y3415537D01*
X1375915Y3415537D01*
X1353055Y3479037D02*
G01*
X1353055Y3383534D01*
X1242822Y3339337D02*
G01*
X1206500Y3243834D01*
X1242822Y3339337D02*
G01*
X1279143Y3243834D01*
X1220215Y3275837D02*
G01*
X1265681Y3275837D01*
X1363725Y3339337D02*
G01*
X1318259Y3339337D01*
X1313688Y3298444D01*
X1318259Y3303015D01*
X1331975Y3307587D01*
X1345691Y3307587D01*
X1359154Y3303015D01*
X1368297Y3293871D01*
X1372870Y3280410D01*
X1372870Y3271265D01*
X1368297Y3257550D01*
X1359154Y3248405D01*
X1345691Y3243834D01*
X1331975Y3243834D01*
X1318259Y3248405D01*
X1313688Y3252978D01*
X1309115Y3262121D01*
X988822Y3479037D02*
G01*
X952500Y3383534D01*
X988822Y3479037D02*
G01*
X1025143Y3383534D01*
X966215Y3415537D02*
G01*
X1011681Y3415537D01*
X1109725Y3465576D02*
G01*
X1105154Y3474465D01*
X1091691Y3479037D01*
X1082547Y3479037D01*
X1068831Y3474465D01*
X1059688Y3461004D01*
X1055115Y3438144D01*
X1055115Y3415537D01*
X1059688Y3397250D01*
X1068831Y3388105D01*
X1082547Y3383534D01*
X1087120Y3383534D01*
X1100581Y3388105D01*
X1109725Y3397250D01*
X1114297Y3410965D01*
X1114297Y3415537D01*
X1109725Y3429000D01*
X1100581Y3438144D01*
X1087120Y3442715D01*
X1082547Y3442715D01*
X1068831Y3438144D01*
X1059688Y3429000D01*
X1055115Y3415537D01*
X988822Y3339337D02*
G01*
X952500Y3243834D01*
X988822Y3339337D02*
G01*
X1025143Y3243834D01*
X966215Y3275837D02*
G01*
X1011681Y3275837D01*
X1118870Y3339337D02*
G01*
X1073404Y3243834D01*
X1055115Y3339337D02*
G01*
X1118870Y3339337D01*
X3492500Y3479037D02*
G01*
X3492500Y3383534D01*
X3492500Y3479037D02*
G01*
X3524250Y3479037D01*
X3537965Y3474465D01*
X3547109Y3465576D01*
X3551681Y3456431D01*
X3556254Y3442715D01*
X3556254Y3420110D01*
X3551681Y3406394D01*
X3547109Y3397250D01*
X3537965Y3388105D01*
X3524250Y3383534D01*
X3492500Y3383534D01*
X3613404Y3479037D02*
G01*
X3599688Y3474465D01*
X3590797Y3461004D01*
X3586225Y3438144D01*
X3586225Y3424681D01*
X3590797Y3401821D01*
X3599688Y3388105D01*
X3613404Y3383534D01*
X3622547Y3383534D01*
X3636009Y3388105D01*
X3645154Y3401821D01*
X3649725Y3424681D01*
X3649725Y3438144D01*
X3645154Y3461004D01*
X3636009Y3474465D01*
X3622547Y3479037D01*
X3613404Y3479037D01*
X3492500Y3339337D02*
G01*
X3492500Y3243834D01*
X3492500Y3339337D02*
G01*
X3524250Y3339337D01*
X3537965Y3334765D01*
X3547109Y3325876D01*
X3551681Y3316731D01*
X3556254Y3303015D01*
X3556254Y3280410D01*
X3551681Y3266694D01*
X3547109Y3257550D01*
X3537965Y3248405D01*
X3524250Y3243834D01*
X3492500Y3243834D01*
X3586225Y3321304D02*
G01*
X3595115Y3325876D01*
X3608831Y3339337D01*
X3608831Y3243834D01*
X3238500Y3479037D02*
G01*
X3238500Y3383534D01*
X3238500Y3479037D02*
G01*
X3270250Y3479037D01*
X3283965Y3474465D01*
X3293109Y3465576D01*
X3297681Y3456431D01*
X3302254Y3442715D01*
X3302254Y3420110D01*
X3297681Y3406394D01*
X3293109Y3397250D01*
X3283965Y3388105D01*
X3270250Y3383534D01*
X3238500Y3383534D01*
X3336797Y3456431D02*
G01*
X3336797Y3461004D01*
X3341115Y3469894D01*
X3345688Y3474465D01*
X3354831Y3479037D01*
X3373120Y3479037D01*
X3382009Y3474465D01*
X3386581Y3469894D01*
X3391154Y3461004D01*
X3391154Y3451860D01*
X3386581Y3442715D01*
X3377691Y3429000D01*
X3332225Y3383534D01*
X3395725Y3383534D01*
X3238500Y3339337D02*
G01*
X3238500Y3243834D01*
X3238500Y3339337D02*
G01*
X3270250Y3339337D01*
X3283965Y3334765D01*
X3293109Y3325876D01*
X3297681Y3316731D01*
X3302254Y3303015D01*
X3302254Y3280410D01*
X3297681Y3266694D01*
X3293109Y3257550D01*
X3283965Y3248405D01*
X3270250Y3243834D01*
X3238500Y3243834D01*
X3341115Y3339337D02*
G01*
X3391154Y3339337D01*
X3363975Y3303015D01*
X3377691Y3303015D01*
X3386581Y3298444D01*
X3391154Y3293871D01*
X3395725Y3280410D01*
X3395725Y3271265D01*
X3391154Y3257550D01*
X3382009Y3248405D01*
X3368547Y3243834D01*
X3354831Y3243834D01*
X3341115Y3248405D01*
X3336797Y3252978D01*
X3332225Y3262121D01*
X2984500Y3479037D02*
G01*
X2984500Y3383534D01*
X2984500Y3479037D02*
G01*
X3016250Y3479037D01*
X3029965Y3474465D01*
X3039109Y3465576D01*
X3043681Y3456431D01*
X3048254Y3442715D01*
X3048254Y3420110D01*
X3043681Y3406394D01*
X3039109Y3397250D01*
X3029965Y3388105D01*
X3016250Y3383534D01*
X2984500Y3383534D01*
X3123691Y3479037D02*
G01*
X3078225Y3415537D01*
X3146297Y3415537D01*
X3123691Y3479037D02*
G01*
X3123691Y3383534D01*
X2984500Y3339337D02*
G01*
X2984500Y3243834D01*
X2984500Y3339337D02*
G01*
X3016250Y3339337D01*
X3029965Y3334765D01*
X3039109Y3325876D01*
X3043681Y3316731D01*
X3048254Y3303015D01*
X3048254Y3280410D01*
X3043681Y3266694D01*
X3039109Y3257550D01*
X3029965Y3248405D01*
X3016250Y3243834D01*
X2984500Y3243834D01*
X3132581Y3339337D02*
G01*
X3087115Y3339337D01*
X3082797Y3298444D01*
X3087115Y3303015D01*
X3100831Y3307587D01*
X3114547Y3307587D01*
X3128009Y3303015D01*
X3137154Y3293871D01*
X3141725Y3280410D01*
X3141725Y3271265D01*
X3137154Y3257550D01*
X3128009Y3248405D01*
X3114547Y3243834D01*
X3100831Y3243834D01*
X3087115Y3248405D01*
X3082797Y3252978D01*
X3078225Y3262121D01*
X2730500Y3479037D02*
G01*
X2730500Y3383534D01*
X2730500Y3479037D02*
G01*
X2762250Y3479037D01*
X2775965Y3474465D01*
X2785109Y3465576D01*
X2789681Y3456431D01*
X2794254Y3442715D01*
X2794254Y3420110D01*
X2789681Y3406394D01*
X2785109Y3397250D01*
X2775965Y3388105D01*
X2762250Y3383534D01*
X2730500Y3383534D01*
X2878581Y3465576D02*
G01*
X2874009Y3474465D01*
X2860547Y3479037D01*
X2851404Y3479037D01*
X2837688Y3474465D01*
X2828797Y3461004D01*
X2824225Y3438144D01*
X2824225Y3415537D01*
X2828797Y3397250D01*
X2837688Y3388105D01*
X2851404Y3383534D01*
X2855975Y3383534D01*
X2869691Y3388105D01*
X2878581Y3397250D01*
X2883154Y3410965D01*
X2883154Y3415537D01*
X2878581Y3429000D01*
X2869691Y3438144D01*
X2855975Y3442715D01*
X2851404Y3442715D01*
X2837688Y3438144D01*
X2828797Y3429000D01*
X2824225Y3415537D01*
X2730500Y3339337D02*
G01*
X2730500Y3243834D01*
X2730500Y3339337D02*
G01*
X2762250Y3339337D01*
X2775965Y3334765D01*
X2785109Y3325876D01*
X2789681Y3316731D01*
X2794254Y3303015D01*
X2794254Y3280410D01*
X2789681Y3266694D01*
X2785109Y3257550D01*
X2775965Y3248405D01*
X2762250Y3243834D01*
X2730500Y3243834D01*
X2887725Y3339337D02*
G01*
X2842259Y3243834D01*
X2824225Y3339337D02*
G01*
X2887725Y3339337D01*
X2476500Y3479037D02*
G01*
X2476500Y3383534D01*
X2476500Y3479037D02*
G01*
X2508250Y3479037D01*
X2521965Y3474465D01*
X2531109Y3465576D01*
X2535681Y3456431D01*
X2540254Y3442715D01*
X2540254Y3420110D01*
X2535681Y3406394D01*
X2531109Y3397250D01*
X2521965Y3388105D01*
X2508250Y3383534D01*
X2476500Y3383534D01*
X2592831Y3479037D02*
G01*
X2579115Y3474465D01*
X2574797Y3465576D01*
X2574797Y3456431D01*
X2579115Y3447287D01*
X2588259Y3442715D01*
X2606547Y3438144D01*
X2620009Y3433571D01*
X2629154Y3424681D01*
X2633725Y3415537D01*
X2633725Y3401821D01*
X2629154Y3392678D01*
X2624581Y3388105D01*
X2611120Y3383534D01*
X2592831Y3383534D01*
X2579115Y3388105D01*
X2574797Y3392678D01*
X2570225Y3401821D01*
X2570225Y3415537D01*
X2574797Y3424681D01*
X2583688Y3433571D01*
X2597404Y3438144D01*
X2615691Y3442715D01*
X2624581Y3447287D01*
X2629154Y3456431D01*
X2629154Y3465576D01*
X2624581Y3474465D01*
X2611120Y3479037D01*
X2592831Y3479037D01*
X2476500Y3339337D02*
G01*
X2476500Y3243834D01*
X2476500Y3339337D02*
G01*
X2508250Y3339337D01*
X2521965Y3334765D01*
X2531109Y3325876D01*
X2535681Y3316731D01*
X2540254Y3303015D01*
X2540254Y3280410D01*
X2535681Y3266694D01*
X2531109Y3257550D01*
X2521965Y3248405D01*
X2508250Y3243834D01*
X2476500Y3243834D01*
X2629154Y3307587D02*
G01*
X2624581Y3293871D01*
X2615691Y3284981D01*
X2601975Y3280410D01*
X2597404Y3280410D01*
X2583688Y3284981D01*
X2574797Y3293871D01*
X2570225Y3307587D01*
X2570225Y3312160D01*
X2574797Y3325876D01*
X2583688Y3334765D01*
X2597404Y3339337D01*
X2601975Y3339337D01*
X2615691Y3334765D01*
X2624581Y3325876D01*
X2629154Y3307587D01*
X2629154Y3284981D01*
X2624581Y3262121D01*
X2615691Y3248405D01*
X2601975Y3243834D01*
X2592831Y3243834D01*
X2579115Y3248405D01*
X2574797Y3257550D01*
X2184400Y3479037D02*
G01*
X2184400Y3383534D01*
X2184400Y3479037D02*
G01*
X2216150Y3479037D01*
X2229865Y3474465D01*
X2239009Y3465576D01*
X2243581Y3456431D01*
X2248154Y3442715D01*
X2248154Y3420110D01*
X2243581Y3406394D01*
X2239009Y3397250D01*
X2229865Y3388105D01*
X2216150Y3383534D01*
X2184400Y3383534D01*
X2278125Y3461004D02*
G01*
X2287015Y3465576D01*
X2300731Y3479037D01*
X2300731Y3383534D01*
X2358136Y3479037D02*
G01*
X2344420Y3474465D01*
X2335275Y3461004D01*
X2330704Y3438144D01*
X2330704Y3424681D01*
X2335275Y3401821D01*
X2344420Y3388105D01*
X2358136Y3383534D01*
X2367025Y3383534D01*
X2380741Y3388105D01*
X2389886Y3401821D01*
X2394458Y3424681D01*
X2394458Y3438144D01*
X2389886Y3461004D01*
X2380741Y3474465D01*
X2367025Y3479037D01*
X2358136Y3479037D01*
X2197100Y3339337D02*
G01*
X2197100Y3243834D01*
X2197100Y3339337D02*
G01*
X2228850Y3339337D01*
X2242565Y3334765D01*
X2251709Y3325876D01*
X2256281Y3316731D01*
X2260854Y3303015D01*
X2260854Y3280410D01*
X2256281Y3266694D01*
X2251709Y3257550D01*
X2242565Y3248405D01*
X2228850Y3243834D01*
X2197100Y3243834D01*
X2290825Y3321304D02*
G01*
X2299715Y3325876D01*
X2313431Y3339337D01*
X2313431Y3243834D01*
X2343404Y3321304D02*
G01*
X2352547Y3325876D01*
X2366263Y3339337D01*
X2366263Y3243834D01*
X1917700Y3479037D02*
G01*
X1917700Y3383534D01*
X1917700Y3479037D02*
G01*
X1949450Y3479037D01*
X1963165Y3474465D01*
X1972309Y3465576D01*
X1976881Y3456431D01*
X1981454Y3442715D01*
X1981454Y3420110D01*
X1976881Y3406394D01*
X1972309Y3397250D01*
X1963165Y3388105D01*
X1949450Y3383534D01*
X1917700Y3383534D01*
X2011425Y3461004D02*
G01*
X2020315Y3465576D01*
X2034031Y3479037D01*
X2034031Y3383534D01*
X2068575Y3456431D02*
G01*
X2068575Y3461004D01*
X2073147Y3469894D01*
X2077720Y3474465D01*
X2086863Y3479037D01*
X2104897Y3479037D01*
X2114041Y3474465D01*
X2118613Y3469894D01*
X2123186Y3461004D01*
X2123186Y3451860D01*
X2118613Y3442715D01*
X2109470Y3429000D01*
X2064004Y3383534D01*
X2127758Y3383534D01*
X1917700Y3339337D02*
G01*
X1917700Y3243834D01*
X1917700Y3339337D02*
G01*
X1949450Y3339337D01*
X1963165Y3334765D01*
X1972309Y3325876D01*
X1976881Y3316731D01*
X1981454Y3303015D01*
X1981454Y3280410D01*
X1976881Y3266694D01*
X1972309Y3257550D01*
X1963165Y3248405D01*
X1949450Y3243834D01*
X1917700Y3243834D01*
X2011425Y3321304D02*
G01*
X2020315Y3325876D01*
X2034031Y3339337D01*
X2034031Y3243834D01*
X2073147Y3339337D02*
G01*
X2123186Y3339337D01*
X2096008Y3303015D01*
X2109470Y3303015D01*
X2118613Y3298444D01*
X2123186Y3293871D01*
X2127758Y3280410D01*
X2127758Y3271265D01*
X2123186Y3257550D01*
X2114041Y3248405D01*
X2100325Y3243834D01*
X2086863Y3243834D01*
X2073147Y3248405D01*
X2068575Y3252978D01*
X2064004Y3262121D01*
D26*
X2882894Y3706672D02*
G01*
X2882894Y3597706D01*
X2882894Y3706672D02*
G01*
X2929630Y3706672D01*
X2945124Y3701592D01*
X2950458Y3696258D01*
X2955538Y3685844D01*
X2955538Y3675430D01*
X2950458Y3665016D01*
X2945124Y3659936D01*
X2929630Y3654856D01*
X2882894Y3654856D01*
X2919216Y3654856D02*
G01*
X2955538Y3597706D01*
X3062726Y3691178D02*
G01*
X3052312Y3701592D01*
X3036564Y3706672D01*
X3015990Y3706672D01*
X3000242Y3701592D01*
X2989828Y3691178D01*
X2989828Y3680764D01*
X2995162Y3670350D01*
X3000242Y3665016D01*
X3010656Y3659936D01*
X3041898Y3649522D01*
X3052312Y3644442D01*
X3057392Y3639108D01*
X3062726Y3628694D01*
X3062726Y3613200D01*
X3052312Y3602786D01*
X3036564Y3597706D01*
X3015990Y3597706D01*
X3000242Y3602786D01*
X2989828Y3613200D01*
X3133338Y3706672D02*
G01*
X3133338Y3597706D01*
X3097016Y3706672D02*
G01*
X3169660Y3706672D01*
D25*
X8153145Y4089400D02*
G01*
X8147304Y4101337D01*
X8135365Y4113021D01*
X8123681Y4118863D01*
X8100059Y4118863D01*
X8088122Y4113021D01*
X8076438Y4101337D01*
X8070341Y4089400D01*
X8064500Y4071620D01*
X8064500Y4042155D01*
X8070341Y4024376D01*
X8076438Y4012692D01*
X8088122Y4000754D01*
X8100059Y3994912D01*
X8123681Y3994912D01*
X8135365Y4000754D01*
X8147304Y4012692D01*
X8153145Y4024376D01*
X8227568Y4118863D02*
G01*
X8209788Y4113021D01*
X8198104Y4095242D01*
X8192261Y4065778D01*
X8192261Y4047997D01*
X8198104Y4018534D01*
X8209788Y4000754D01*
X8227568Y3994912D01*
X8239506Y3994912D01*
X8257031Y4000754D01*
X8268970Y4018534D01*
X8274811Y4047997D01*
X8274811Y4065778D01*
X8268970Y4095242D01*
X8257031Y4113021D01*
X8239506Y4118863D01*
X8227568Y4118863D01*
X8153145Y3835400D02*
G01*
X8147304Y3847337D01*
X8135365Y3859021D01*
X8123681Y3864863D01*
X8100059Y3864863D01*
X8088122Y3859021D01*
X8076438Y3847337D01*
X8070341Y3835400D01*
X8064500Y3817620D01*
X8064500Y3788155D01*
X8070341Y3770376D01*
X8076438Y3758692D01*
X8088122Y3746754D01*
X8100059Y3740912D01*
X8123681Y3740912D01*
X8135365Y3746754D01*
X8147304Y3758692D01*
X8153145Y3770376D01*
X8192261Y3841242D02*
G01*
X8203945Y3847337D01*
X8221725Y3864863D01*
X8221725Y3740912D01*
X5054345Y2032000D02*
G01*
X5048504Y2043937D01*
X5036565Y2055621D01*
X5024881Y2061463D01*
X5001259Y2061463D01*
X4989322Y2055621D01*
X4977638Y2043937D01*
X4971541Y2032000D01*
X4965700Y2014220D01*
X4965700Y1984755D01*
X4971541Y1966976D01*
X4977638Y1955292D01*
X4989322Y1943354D01*
X5001259Y1937512D01*
X5024881Y1937512D01*
X5036565Y1943354D01*
X5048504Y1955292D01*
X5054345Y1966976D01*
X5099304Y2032000D02*
G01*
X5099304Y2037842D01*
X5105145Y2049779D01*
X5110988Y2055621D01*
X5122925Y2061463D01*
X5146547Y2061463D01*
X5158231Y2055621D01*
X5164327Y2049779D01*
X5170170Y2037842D01*
X5170170Y2026157D01*
X5164327Y2014220D01*
X5152390Y1996694D01*
X5093461Y1937512D01*
X5176011Y1937512D01*
X4317745Y4229100D02*
G01*
X4311904Y4241037D01*
X4299965Y4252721D01*
X4288281Y4258563D01*
X4264659Y4258563D01*
X4252722Y4252721D01*
X4241038Y4241037D01*
X4234941Y4229100D01*
X4229100Y4211320D01*
X4229100Y4181855D01*
X4234941Y4164076D01*
X4241038Y4152392D01*
X4252722Y4140454D01*
X4264659Y4134612D01*
X4288281Y4134612D01*
X4299965Y4140454D01*
X4311904Y4152392D01*
X4317745Y4164076D01*
X4368545Y4258563D02*
G01*
X4433570Y4258563D01*
X4398009Y4211320D01*
X4415790Y4211320D01*
X4427727Y4205478D01*
X4433570Y4199636D01*
X4439411Y4181855D01*
X4439411Y4170171D01*
X4433570Y4152392D01*
X4421631Y4140454D01*
X4404106Y4134612D01*
X4386325Y4134612D01*
X4368545Y4140454D01*
X4362704Y4146295D01*
X4356861Y4158234D01*
X4254245Y5892800D02*
G01*
X4248404Y5904737D01*
X4236465Y5916421D01*
X4224781Y5922263D01*
X4201159Y5922263D01*
X4189222Y5916421D01*
X4177538Y5904737D01*
X4171441Y5892800D01*
X4165600Y5875020D01*
X4165600Y5845555D01*
X4171441Y5827776D01*
X4177538Y5816092D01*
X4189222Y5804154D01*
X4201159Y5798312D01*
X4224781Y5798312D01*
X4236465Y5804154D01*
X4248404Y5816092D01*
X4254245Y5827776D01*
X4352290Y5922263D02*
G01*
X4293361Y5839713D01*
X4381754Y5839713D01*
X4352290Y5922263D02*
G01*
X4352290Y5798312D01*
X4254245Y5715000D02*
G01*
X4248404Y5726937D01*
X4236465Y5738621D01*
X4224781Y5744463D01*
X4201159Y5744463D01*
X4189222Y5738621D01*
X4177538Y5726937D01*
X4171441Y5715000D01*
X4165600Y5697220D01*
X4165600Y5667755D01*
X4171441Y5649976D01*
X4177538Y5638292D01*
X4189222Y5626354D01*
X4201159Y5620512D01*
X4224781Y5620512D01*
X4236465Y5626354D01*
X4248404Y5638292D01*
X4254245Y5649976D01*
X4364227Y5744463D02*
G01*
X4305045Y5744463D01*
X4299204Y5691378D01*
X4305045Y5697220D01*
X4322825Y5703315D01*
X4340606Y5703315D01*
X4358131Y5697220D01*
X4370070Y5685536D01*
X4375911Y5667755D01*
X4375911Y5656071D01*
X4370070Y5638292D01*
X4358131Y5626354D01*
X4340606Y5620512D01*
X4322825Y5620512D01*
X4305045Y5626354D01*
X4299204Y5632195D01*
X4293361Y5644134D01*
X4254245Y5537200D02*
G01*
X4248404Y5549137D01*
X4236465Y5560821D01*
X4224781Y5566663D01*
X4201159Y5566663D01*
X4189222Y5560821D01*
X4177538Y5549137D01*
X4171441Y5537200D01*
X4165600Y5519420D01*
X4165600Y5489955D01*
X4171441Y5472176D01*
X4177538Y5460492D01*
X4189222Y5448554D01*
X4201159Y5442712D01*
X4224781Y5442712D01*
X4236465Y5448554D01*
X4248404Y5460492D01*
X4254245Y5472176D01*
X4364227Y5549137D02*
G01*
X4358131Y5560821D01*
X4340606Y5566663D01*
X4328668Y5566663D01*
X4310888Y5560821D01*
X4299204Y5543042D01*
X4293361Y5513578D01*
X4293361Y5484113D01*
X4299204Y5460492D01*
X4310888Y5448554D01*
X4328668Y5442712D01*
X4334509Y5442712D01*
X4352290Y5448554D01*
X4364227Y5460492D01*
X4370070Y5478271D01*
X4370070Y5484113D01*
X4364227Y5501894D01*
X4352290Y5513578D01*
X4334509Y5519420D01*
X4328668Y5519420D01*
X4310888Y5513578D01*
X4299204Y5501894D01*
X4293361Y5484113D01*
D26*
X3378194Y2134615D02*
G01*
X3378194Y2025650D01*
X3378194Y2134615D02*
G01*
X3424930Y2134615D01*
X3440424Y2129536D01*
X3445758Y2124202D01*
X3450838Y2113787D01*
X3450838Y2103373D01*
X3445758Y2092960D01*
X3440424Y2087879D01*
X3424930Y2082800D01*
X3378194Y2082800D01*
X3414516Y2082800D02*
G01*
X3450838Y2025650D01*
X3558026Y2119121D02*
G01*
X3547612Y2129536D01*
X3531864Y2134615D01*
X3511290Y2134615D01*
X3495542Y2129536D01*
X3485128Y2119121D01*
X3485128Y2108707D01*
X3490462Y2098294D01*
X3495542Y2092960D01*
X3505956Y2087879D01*
X3537198Y2077465D01*
X3547612Y2072386D01*
X3552692Y2067052D01*
X3558026Y2056637D01*
X3558026Y2041144D01*
X3547612Y2030729D01*
X3531864Y2025650D01*
X3511290Y2025650D01*
X3495542Y2030729D01*
X3485128Y2041144D01*
X3628638Y2134615D02*
G01*
X3628638Y2025650D01*
X3592316Y2134615D02*
G01*
X3664960Y2134615D01*
D56*
X7814309Y1236471D02*
G01*
X7785100Y1160018D01*
X7814309Y1236471D02*
G01*
X7843265Y1160018D01*
X7796022Y1185418D02*
G01*
X7832343Y1185418D01*
X7867395Y1236471D02*
G01*
X7918195Y1160018D01*
X7918195Y1236471D02*
G01*
X7867395Y1160018D01*
X7949438Y1236471D02*
G01*
X7989570Y1236471D01*
X7967725Y1207262D01*
X7978647Y1207262D01*
X7985759Y1203705D01*
X7989570Y1200150D01*
X7993125Y1189228D01*
X7993125Y1181862D01*
X7989570Y1170939D01*
X7982204Y1163573D01*
X7971281Y1160018D01*
X7960359Y1160018D01*
X7949438Y1163573D01*
X7945881Y1167384D01*
X7942072Y1174495D01*
D19*
X4955209Y1260068D02*
G01*
X4925999Y1183614D01*
X4955209Y1260068D02*
G01*
X4984165Y1183614D01*
X4936921Y1209014D02*
G01*
X4973243Y1209014D01*
X5062651Y1241780D02*
G01*
X5059095Y1249146D01*
X5051729Y1256512D01*
X5044617Y1260068D01*
X5029885Y1260068D01*
X5022773Y1256512D01*
X5015407Y1249146D01*
X5011851Y1241780D01*
X5008295Y1230858D01*
X5008295Y1212824D01*
X5011851Y1201902D01*
X5015407Y1194536D01*
X5022773Y1187170D01*
X5029885Y1183614D01*
X5044617Y1183614D01*
X5051729Y1187170D01*
X5059095Y1194536D01*
X5062651Y1201902D01*
X5086781Y1245590D02*
G01*
X5093893Y1249146D01*
X5104815Y1260068D01*
X5104815Y1183614D01*
X5150789Y1260068D02*
G01*
X5139867Y1256512D01*
X5132501Y1245590D01*
X5128945Y1227302D01*
X5128945Y1216380D01*
X5132501Y1198092D01*
X5139867Y1187170D01*
X5150789Y1183614D01*
X5157901Y1183614D01*
X5168823Y1187170D01*
X5176189Y1198092D01*
X5179745Y1216380D01*
X5179745Y1227302D01*
X5176189Y1245590D01*
X5168823Y1256512D01*
X5157901Y1260068D01*
X5150789Y1260068D01*
X7033768Y3566921D02*
G01*
X7095743Y3543300D01*
X7033768Y3566921D02*
G01*
X7095743Y3590544D01*
X7075170Y3552189D02*
G01*
X7075170Y3581654D01*
X7048500Y3654297D02*
G01*
X7042658Y3651504D01*
X7036561Y3645407D01*
X7033768Y3639565D01*
X7033768Y3627881D01*
X7036561Y3621786D01*
X7042658Y3615944D01*
X7048500Y3613150D01*
X7057390Y3610102D01*
X7072122Y3610102D01*
X7081011Y3613150D01*
X7086854Y3615944D01*
X7092695Y3621786D01*
X7095743Y3627881D01*
X7095743Y3639565D01*
X7092695Y3645407D01*
X7086854Y3651504D01*
X7081011Y3654297D01*
X7033768Y3703320D02*
G01*
X7075170Y3673855D01*
X7075170Y3718305D01*
X7033768Y3703320D02*
G01*
X7095743Y3703320D01*
X7033768Y3755389D02*
G01*
X7036561Y3746500D01*
X7045452Y3740657D01*
X7060184Y3737610D01*
X7069074Y3737610D01*
X7084059Y3740657D01*
X7092695Y3746500D01*
X7095743Y3755389D01*
X7095743Y3761231D01*
X7092695Y3770121D01*
X7084059Y3776218D01*
X7069074Y3779012D01*
X7060184Y3779012D01*
X7045452Y3776218D01*
X7036561Y3770121D01*
X7033768Y3761231D01*
X7033768Y3755389D01*
X5751093Y175945D02*
G01*
X5813069Y152323D01*
X5751093Y175945D02*
G01*
X5813069Y199567D01*
X5792495Y161213D02*
G01*
X5792495Y190931D01*
X5765825Y263575D02*
G01*
X5759983Y260527D01*
X5753887Y254685D01*
X5751093Y248843D01*
X5751093Y236905D01*
X5753887Y231063D01*
X5759983Y224967D01*
X5765825Y222173D01*
X5774715Y219125D01*
X5789447Y219125D01*
X5798337Y222173D01*
X5804179Y224967D01*
X5810021Y231063D01*
X5813069Y236905D01*
X5813069Y248843D01*
X5810021Y254685D01*
X5804179Y260527D01*
X5798337Y263575D01*
X5751093Y288975D02*
G01*
X5751093Y321487D01*
X5774715Y303707D01*
X5774715Y312597D01*
X5777509Y318439D01*
X5780557Y321487D01*
X5789447Y324281D01*
X5795289Y324281D01*
X5804179Y321487D01*
X5810021Y315391D01*
X5813069Y306501D01*
X5813069Y297865D01*
X5810021Y288975D01*
X5807227Y285927D01*
X5801131Y282879D01*
X5759983Y379399D02*
G01*
X5753887Y376351D01*
X5751093Y367461D01*
X5751093Y361619D01*
X5753887Y352729D01*
X5762777Y346887D01*
X5777509Y343839D01*
X5792495Y343839D01*
X5804179Y346887D01*
X5810021Y352729D01*
X5813069Y361619D01*
X5813069Y364413D01*
X5810021Y373303D01*
X5804179Y379399D01*
X5795289Y382193D01*
X5792495Y382193D01*
X5783605Y379399D01*
X5777509Y373303D01*
X5774715Y364413D01*
X5774715Y361619D01*
X5777509Y352729D01*
X5783605Y346887D01*
X5792495Y343839D01*
X5002537Y1490471D02*
G01*
X4973327Y1414018D01*
X5002537Y1490471D02*
G01*
X5031493Y1414018D01*
X4984249Y1439418D02*
G01*
X5020571Y1439418D01*
X5055623Y1490471D02*
G01*
X5055623Y1414018D01*
X5055623Y1490471D02*
G01*
X5088135Y1490471D01*
X5099057Y1486915D01*
X5102867Y1483105D01*
X5106423Y1475994D01*
X5106423Y1468628D01*
X5102867Y1461262D01*
X5099057Y1457705D01*
X5088135Y1454150D01*
X5055623Y1454150D01*
X5081023Y1454150D02*
G01*
X5106423Y1414018D01*
X5137665Y1490471D02*
G01*
X5177797Y1490471D01*
X5155953Y1461262D01*
X5166875Y1461262D01*
X5173987Y1457705D01*
X5177797Y1454150D01*
X5181353Y1443228D01*
X5181353Y1435862D01*
X5177797Y1424939D01*
X5170431Y1417573D01*
X5159509Y1414018D01*
X5148587Y1414018D01*
X5137665Y1417573D01*
X5134109Y1421384D01*
X5130299Y1428495D01*
X6564122Y1531365D02*
G01*
X6540500Y1469389D01*
X6564122Y1531365D02*
G01*
X6587743Y1469389D01*
X6549390Y1489963D02*
G01*
X6578854Y1489963D01*
X6607302Y1531365D02*
G01*
X6607302Y1487170D01*
X6610095Y1478279D01*
X6616191Y1472437D01*
X6625081Y1469389D01*
X6630924Y1469389D01*
X6639813Y1472437D01*
X6645656Y1478279D01*
X6648704Y1487170D01*
X6648704Y1531365D01*
X6668008Y1519681D02*
G01*
X6674104Y1522476D01*
X6682993Y1531365D01*
X6682993Y1469389D01*
X6995845Y903706D02*
G01*
X6972223Y841730D01*
X6995845Y903706D02*
G01*
X7019467Y841730D01*
X6981113Y862304D02*
G01*
X7010831Y862304D01*
X7039025Y903706D02*
G01*
X7039025Y841730D01*
X7039025Y903706D02*
G01*
X7065695Y903706D01*
X7074585Y900912D01*
X7077379Y897864D01*
X7080427Y892022D01*
X7080427Y886180D01*
X7077379Y880084D01*
X7074585Y877290D01*
X7065695Y874242D01*
X7039025Y874242D01*
X7059853Y874242D02*
G01*
X7080427Y841730D01*
X7102779Y888974D02*
G01*
X7102779Y892022D01*
X7105827Y897864D01*
X7108875Y900912D01*
X7114717Y903706D01*
X7126401Y903706D01*
X7132497Y900912D01*
X7135291Y897864D01*
X7138339Y892022D01*
X7138339Y886180D01*
X7135291Y880084D01*
X7129449Y871194D01*
X7099985Y841730D01*
X7141387Y841730D01*
X5979693Y201345D02*
G01*
X6041669Y177723D01*
X5979693Y201345D02*
G01*
X6041669Y224967D01*
X6021095Y186613D02*
G01*
X6021095Y216331D01*
X5994425Y288975D02*
G01*
X5988583Y285927D01*
X5982487Y280085D01*
X5979693Y274243D01*
X5979693Y262305D01*
X5982487Y256463D01*
X5988583Y250367D01*
X5994425Y247573D01*
X6003315Y244525D01*
X6018047Y244525D01*
X6026937Y247573D01*
X6032779Y250367D01*
X6038621Y256463D01*
X6041669Y262305D01*
X6041669Y274243D01*
X6038621Y280085D01*
X6032779Y285927D01*
X6026937Y288975D01*
X5991377Y308279D02*
G01*
X5988583Y314375D01*
X5979693Y323265D01*
X6041669Y323265D01*
X5979693Y378129D02*
G01*
X5979693Y348665D01*
X6006109Y345617D01*
X6003315Y348665D01*
X6000267Y357555D01*
X6000267Y366191D01*
X6003315Y375081D01*
X6009157Y381177D01*
X6018047Y383971D01*
X6023889Y383971D01*
X6032779Y381177D01*
X6038621Y375081D01*
X6041669Y366191D01*
X6041669Y357555D01*
X6038621Y348665D01*
X6035827Y345617D01*
X6029731Y342569D01*
X5778245Y2124710D02*
G01*
X5754624Y2062734D01*
X5778245Y2124710D02*
G01*
X5801868Y2062734D01*
X5763513Y2083307D02*
G01*
X5793231Y2083307D01*
X5865875Y2109978D02*
G01*
X5862827Y2115820D01*
X5856986Y2121915D01*
X5851143Y2124710D01*
X5839206Y2124710D01*
X5833363Y2121915D01*
X5827268Y2115820D01*
X5824474Y2109978D01*
X5821425Y2101087D01*
X5821425Y2086355D01*
X5824474Y2077465D01*
X5827268Y2071623D01*
X5833363Y2065781D01*
X5839206Y2062734D01*
X5851143Y2062734D01*
X5856986Y2065781D01*
X5862827Y2071623D01*
X5865875Y2077465D01*
X5885179Y2113026D02*
G01*
X5891275Y2115820D01*
X5900165Y2124710D01*
X5900165Y2062734D01*
X5949188Y2124710D02*
G01*
X5919470Y2083307D01*
X5963920Y2083307D01*
X5949188Y2124710D02*
G01*
X5949188Y2062734D01*
X7276845Y1565910D02*
G01*
X7253224Y1503934D01*
X7276845Y1565910D02*
G01*
X7300468Y1503934D01*
X7262113Y1524507D02*
G01*
X7291831Y1524507D01*
X7364475Y1551178D02*
G01*
X7361427Y1557020D01*
X7355586Y1563115D01*
X7349743Y1565910D01*
X7337806Y1565910D01*
X7331963Y1563115D01*
X7325868Y1557020D01*
X7323074Y1551178D01*
X7320025Y1542287D01*
X7320025Y1527555D01*
X7323074Y1518665D01*
X7325868Y1512823D01*
X7331963Y1506981D01*
X7337806Y1503934D01*
X7349743Y1503934D01*
X7355586Y1506981D01*
X7361427Y1512823D01*
X7364475Y1518665D01*
X7383779Y1554226D02*
G01*
X7389875Y1557020D01*
X7398765Y1565910D01*
X7398765Y1503934D01*
X7424165Y1565910D02*
G01*
X7456677Y1565910D01*
X7438897Y1542287D01*
X7447788Y1542287D01*
X7453629Y1539494D01*
X7456677Y1536445D01*
X7459472Y1527555D01*
X7459472Y1521713D01*
X7456677Y1512823D01*
X7450581Y1506981D01*
X7441691Y1503934D01*
X7433056Y1503934D01*
X7424165Y1506981D01*
X7421118Y1509776D01*
X7418070Y1515871D01*
X6995845Y1119606D02*
G01*
X6972223Y1057630D01*
X6995845Y1119606D02*
G01*
X7019467Y1057630D01*
X6981113Y1078204D02*
G01*
X7010831Y1078204D01*
X7083475Y1104874D02*
G01*
X7080427Y1110716D01*
X7074585Y1116812D01*
X7068743Y1119606D01*
X7056805Y1119606D01*
X7050963Y1116812D01*
X7044867Y1110716D01*
X7042073Y1104874D01*
X7039025Y1095984D01*
X7039025Y1081252D01*
X7042073Y1072362D01*
X7044867Y1066520D01*
X7050963Y1060678D01*
X7056805Y1057630D01*
X7068743Y1057630D01*
X7074585Y1060678D01*
X7080427Y1066520D01*
X7083475Y1072362D01*
X7141387Y1099032D02*
G01*
X7138339Y1090142D01*
X7132497Y1084300D01*
X7123607Y1081252D01*
X7120559Y1081252D01*
X7111669Y1084300D01*
X7105827Y1090142D01*
X7102779Y1099032D01*
X7102779Y1102080D01*
X7105827Y1110716D01*
X7111669Y1116812D01*
X7120559Y1119606D01*
X7123607Y1119606D01*
X7132497Y1116812D01*
X7138339Y1110716D01*
X7141387Y1099032D01*
X7141387Y1084300D01*
X7138339Y1069568D01*
X7132497Y1060678D01*
X7123607Y1057630D01*
X7117765Y1057630D01*
X7108875Y1060678D01*
X7105827Y1066520D01*
X6259093Y226745D02*
G01*
X6321069Y203123D01*
X6259093Y226745D02*
G01*
X6321069Y250367D01*
X6300495Y212013D02*
G01*
X6300495Y241731D01*
X6273825Y314375D02*
G01*
X6267983Y311327D01*
X6261887Y305485D01*
X6259093Y299643D01*
X6259093Y287705D01*
X6261887Y281863D01*
X6267983Y275767D01*
X6273825Y272973D01*
X6282715Y269925D01*
X6297447Y269925D01*
X6306337Y272973D01*
X6312179Y275767D01*
X6318021Y281863D01*
X6321069Y287705D01*
X6321069Y299643D01*
X6318021Y305485D01*
X6312179Y311327D01*
X6306337Y314375D01*
X6259093Y375081D02*
G01*
X6321069Y345617D01*
X6259093Y333679D02*
G01*
X6259093Y375081D01*
X7320534Y2191765D02*
G01*
X7296911Y2129789D01*
X7320534Y2191765D02*
G01*
X7344156Y2129789D01*
X7305547Y2150363D02*
G01*
X7335265Y2150363D01*
X7407909Y2177034D02*
G01*
X7404861Y2182876D01*
X7399020Y2188971D01*
X7393177Y2191765D01*
X7381240Y2191765D01*
X7375397Y2188971D01*
X7369556Y2182876D01*
X7366508Y2177034D01*
X7363459Y2168144D01*
X7363459Y2153412D01*
X7366508Y2144521D01*
X7369556Y2138679D01*
X7375397Y2132837D01*
X7381240Y2129789D01*
X7393177Y2129789D01*
X7399020Y2132837D01*
X7404861Y2138679D01*
X7407909Y2144521D01*
X7462774Y2182876D02*
G01*
X7459979Y2188971D01*
X7451090Y2191765D01*
X7444993Y2191765D01*
X7436358Y2188971D01*
X7430261Y2180081D01*
X7427468Y2165350D01*
X7427468Y2150363D01*
X7430261Y2138679D01*
X7436358Y2132837D01*
X7444993Y2129789D01*
X7448041Y2129789D01*
X7456931Y2132837D01*
X7462774Y2138679D01*
X7465822Y2147570D01*
X7465822Y2150363D01*
X7462774Y2159254D01*
X7456931Y2165350D01*
X7448041Y2168144D01*
X7444993Y2168144D01*
X7436358Y2165350D01*
X7430261Y2159254D01*
X7427468Y2150363D01*
X6171945Y2416810D02*
G01*
X6148324Y2354834D01*
X6171945Y2416810D02*
G01*
X6195568Y2354834D01*
X6157213Y2375407D02*
G01*
X6186931Y2375407D01*
X6259575Y2402078D02*
G01*
X6256527Y2407920D01*
X6250686Y2414015D01*
X6244843Y2416810D01*
X6232906Y2416810D01*
X6227063Y2414015D01*
X6220968Y2407920D01*
X6218174Y2402078D01*
X6215125Y2393187D01*
X6215125Y2378455D01*
X6218174Y2369565D01*
X6220968Y2363723D01*
X6227063Y2357881D01*
X6232906Y2354834D01*
X6244843Y2354834D01*
X6250686Y2357881D01*
X6256527Y2363723D01*
X6259575Y2369565D01*
X6314440Y2416810D02*
G01*
X6284975Y2416810D01*
X6281927Y2390394D01*
X6284975Y2393187D01*
X6293865Y2396236D01*
X6302502Y2396236D01*
X6311391Y2393187D01*
X6317488Y2387345D01*
X6320281Y2378455D01*
X6320281Y2372613D01*
X6317488Y2363723D01*
X6311391Y2357881D01*
X6302502Y2354834D01*
X6293865Y2354834D01*
X6284975Y2357881D01*
X6281927Y2360676D01*
X6278879Y2366771D01*
X6703593Y201345D02*
G01*
X6765569Y177723D01*
X6703593Y201345D02*
G01*
X6765569Y224967D01*
X6744995Y186613D02*
G01*
X6744995Y216331D01*
X6718325Y288975D02*
G01*
X6712483Y285927D01*
X6706387Y280085D01*
X6703593Y274243D01*
X6703593Y262305D01*
X6706387Y256463D01*
X6712483Y250367D01*
X6718325Y247573D01*
X6727215Y244525D01*
X6741947Y244525D01*
X6750837Y247573D01*
X6756679Y250367D01*
X6762521Y256463D01*
X6765569Y262305D01*
X6765569Y274243D01*
X6762521Y280085D01*
X6756679Y285927D01*
X6750837Y288975D01*
X6715277Y308279D02*
G01*
X6712483Y314375D01*
X6703593Y323265D01*
X6765569Y323265D01*
X6724167Y381177D02*
G01*
X6733057Y378129D01*
X6738899Y372287D01*
X6741947Y363397D01*
X6741947Y360349D01*
X6738899Y351459D01*
X6733057Y345617D01*
X6724167Y342569D01*
X6721119Y342569D01*
X6712483Y345617D01*
X6706387Y351459D01*
X6703593Y360349D01*
X6703593Y363397D01*
X6706387Y372287D01*
X6712483Y378129D01*
X6724167Y381177D01*
X6738899Y381177D01*
X6753631Y378129D01*
X6762521Y372287D01*
X6765569Y363397D01*
X6765569Y357555D01*
X6762521Y348665D01*
X6756679Y345617D01*
X6881393Y201345D02*
G01*
X6943369Y177723D01*
X6881393Y201345D02*
G01*
X6943369Y224967D01*
X6922795Y186613D02*
G01*
X6922795Y216331D01*
X6896125Y288975D02*
G01*
X6890283Y285927D01*
X6884187Y280085D01*
X6881393Y274243D01*
X6881393Y262305D01*
X6884187Y256463D01*
X6890283Y250367D01*
X6896125Y247573D01*
X6905015Y244525D01*
X6919747Y244525D01*
X6928637Y247573D01*
X6934479Y250367D01*
X6940321Y256463D01*
X6943369Y262305D01*
X6943369Y274243D01*
X6940321Y280085D01*
X6934479Y285927D01*
X6928637Y288975D01*
X6893077Y308279D02*
G01*
X6890283Y314375D01*
X6881393Y323265D01*
X6943369Y323265D01*
X6881393Y357555D02*
G01*
X6884187Y348665D01*
X6890283Y345617D01*
X6896125Y345617D01*
X6901967Y348665D01*
X6905015Y354507D01*
X6907809Y366191D01*
X6910857Y375081D01*
X6916699Y381177D01*
X6922795Y383971D01*
X6931431Y383971D01*
X6937527Y381177D01*
X6940321Y378129D01*
X6943369Y369239D01*
X6943369Y357555D01*
X6940321Y348665D01*
X6937527Y345617D01*
X6931431Y342569D01*
X6922795Y342569D01*
X6916699Y345617D01*
X6910857Y351459D01*
X6907809Y360349D01*
X6905015Y372287D01*
X6901967Y378129D01*
X6896125Y381177D01*
X6890283Y381177D01*
X6884187Y378129D01*
X6881393Y369239D01*
X6881393Y357555D01*
X8120634Y2814065D02*
G01*
X8097011Y2752089D01*
X8120634Y2814065D02*
G01*
X8144256Y2752089D01*
X8105647Y2772663D02*
G01*
X8135365Y2772663D01*
X8208009Y2799334D02*
G01*
X8204961Y2805176D01*
X8199120Y2811271D01*
X8193277Y2814065D01*
X8181340Y2814065D01*
X8175497Y2811271D01*
X8169656Y2805176D01*
X8166608Y2799334D01*
X8163559Y2790444D01*
X8163559Y2775712D01*
X8166608Y2766821D01*
X8169656Y2760979D01*
X8175497Y2755137D01*
X8181340Y2752089D01*
X8193277Y2752089D01*
X8199120Y2755137D01*
X8204961Y2760979D01*
X8208009Y2766821D01*
X8230361Y2799334D02*
G01*
X8230361Y2802381D01*
X8233409Y2808223D01*
X8236458Y2811271D01*
X8242300Y2814065D01*
X8253984Y2814065D01*
X8260079Y2811271D01*
X8262874Y2808223D01*
X8265922Y2802381D01*
X8265922Y2796286D01*
X8262874Y2790444D01*
X8257031Y2781554D01*
X8227568Y2752089D01*
X8268715Y2752089D01*
X8288274Y2802381D02*
G01*
X8294370Y2805176D01*
X8303006Y2814065D01*
X8303006Y2752089D01*
X7695945Y2589606D02*
G01*
X7672324Y2527630D01*
X7695945Y2589606D02*
G01*
X7719568Y2527630D01*
X7681213Y2548204D02*
G01*
X7710931Y2548204D01*
X7739125Y2589606D02*
G01*
X7739125Y2545410D01*
X7742174Y2536520D01*
X7748015Y2530678D01*
X7756906Y2527630D01*
X7762747Y2527630D01*
X7771638Y2530678D01*
X7777479Y2536520D01*
X7780527Y2545410D01*
X7780527Y2589606D01*
X7805927Y2589606D02*
G01*
X7838440Y2589606D01*
X7820659Y2565984D01*
X7829550Y2565984D01*
X7835391Y2563190D01*
X7838440Y2560142D01*
X7841488Y2551252D01*
X7841488Y2545410D01*
X7838440Y2536520D01*
X7832597Y2530678D01*
X7823708Y2527630D01*
X7814818Y2527630D01*
X7805927Y2530678D01*
X7802879Y2533472D01*
X7800086Y2539568D01*
X4944109Y995171D02*
G01*
X4914900Y918718D01*
X4944109Y995171D02*
G01*
X4973065Y918718D01*
X4925822Y944118D02*
G01*
X4962143Y944118D01*
X4997195Y995171D02*
G01*
X4997195Y918718D01*
X4997195Y995171D02*
G01*
X5029708Y995171D01*
X5040629Y991615D01*
X5044440Y987805D01*
X5047995Y980694D01*
X5047995Y973328D01*
X5044440Y965962D01*
X5040629Y962405D01*
X5029708Y958850D01*
X4997195Y958850D01*
X5022595Y958850D02*
G01*
X5047995Y918718D01*
X5071872Y980694D02*
G01*
X5079238Y984250D01*
X5090159Y995171D01*
X5090159Y918718D01*
X6589166Y2931972D02*
G01*
X6651142Y2908350D01*
X6589166Y2931972D02*
G01*
X6651142Y2955594D01*
X6630568Y2917240D02*
G01*
X6630568Y2946704D01*
X6603898Y3019348D02*
G01*
X6598056Y3016554D01*
X6592214Y3010458D01*
X6589166Y3004616D01*
X6589166Y2992678D01*
X6592214Y2986836D01*
X6598056Y2980994D01*
X6603898Y2977946D01*
X6612788Y2975152D01*
X6627520Y2975152D01*
X6636410Y2977946D01*
X6642506Y2980994D01*
X6648348Y2986836D01*
X6651142Y2992678D01*
X6651142Y3004616D01*
X6648348Y3010458D01*
X6642506Y3016554D01*
X6636410Y3019348D01*
X6589166Y3044748D02*
G01*
X6589166Y3077260D01*
X6612788Y3059480D01*
X6612788Y3068370D01*
X6615836Y3074466D01*
X6618630Y3077260D01*
X6627520Y3080308D01*
X6633616Y3080308D01*
X6642506Y3077260D01*
X6648348Y3071418D01*
X6651142Y3062528D01*
X6651142Y3053638D01*
X6648348Y3044748D01*
X6645300Y3041954D01*
X6639458Y3038906D01*
X6589166Y3105708D02*
G01*
X6589166Y3138220D01*
X6612788Y3120440D01*
X6612788Y3129330D01*
X6615836Y3135172D01*
X6618630Y3138220D01*
X6627520Y3141014D01*
X6633616Y3141014D01*
X6642506Y3138220D01*
X6648348Y3132378D01*
X6651142Y3123488D01*
X6651142Y3114598D01*
X6648348Y3105708D01*
X6645300Y3102660D01*
X6639458Y3099866D01*
X6373368Y3579621D02*
G01*
X6435343Y3556000D01*
X6373368Y3579621D02*
G01*
X6435343Y3603244D01*
X6414770Y3564889D02*
G01*
X6414770Y3594354D01*
X6388100Y3666997D02*
G01*
X6382258Y3664204D01*
X6376161Y3658107D01*
X6373368Y3652265D01*
X6373368Y3640581D01*
X6376161Y3634486D01*
X6382258Y3628644D01*
X6388100Y3625850D01*
X6396990Y3622802D01*
X6411722Y3622802D01*
X6420611Y3625850D01*
X6426454Y3628644D01*
X6432295Y3634486D01*
X6435343Y3640581D01*
X6435343Y3652265D01*
X6432295Y3658107D01*
X6426454Y3664204D01*
X6420611Y3666997D01*
X6373368Y3692397D02*
G01*
X6373368Y3724910D01*
X6396990Y3707384D01*
X6396990Y3716020D01*
X6399784Y3722115D01*
X6402831Y3724910D01*
X6411722Y3727957D01*
X6417563Y3727957D01*
X6426454Y3724910D01*
X6432295Y3719068D01*
X6435343Y3710178D01*
X6435343Y3701287D01*
X6432295Y3692397D01*
X6429502Y3689604D01*
X6423659Y3686555D01*
X6373368Y3765295D02*
G01*
X6376161Y3756405D01*
X6385052Y3750310D01*
X6399784Y3747515D01*
X6408674Y3747515D01*
X6423659Y3750310D01*
X6432295Y3756405D01*
X6435343Y3765295D01*
X6435343Y3771137D01*
X6432295Y3780028D01*
X6423659Y3785870D01*
X6408674Y3788918D01*
X6399784Y3788918D01*
X6385052Y3785870D01*
X6376161Y3780028D01*
X6373368Y3771137D01*
X6373368Y3765295D01*
X6817766Y2931972D02*
G01*
X6879742Y2908350D01*
X6817766Y2931972D02*
G01*
X6879742Y2955594D01*
X6859168Y2917240D02*
G01*
X6859168Y2946704D01*
X6832498Y3019348D02*
G01*
X6826656Y3016554D01*
X6820814Y3010458D01*
X6817766Y3004616D01*
X6817766Y2992678D01*
X6820814Y2986836D01*
X6826656Y2980994D01*
X6832498Y2977946D01*
X6841388Y2975152D01*
X6856120Y2975152D01*
X6865010Y2977946D01*
X6871106Y2980994D01*
X6876948Y2986836D01*
X6879742Y2992678D01*
X6879742Y3004616D01*
X6876948Y3010458D01*
X6871106Y3016554D01*
X6865010Y3019348D01*
X6817766Y3044748D02*
G01*
X6817766Y3077260D01*
X6841388Y3059480D01*
X6841388Y3068370D01*
X6844436Y3074466D01*
X6847230Y3077260D01*
X6856120Y3080308D01*
X6862216Y3080308D01*
X6871106Y3077260D01*
X6876948Y3071418D01*
X6879742Y3062528D01*
X6879742Y3053638D01*
X6876948Y3044748D01*
X6873900Y3041954D01*
X6868058Y3038906D01*
X6832498Y3102660D02*
G01*
X6829704Y3102660D01*
X6823608Y3105708D01*
X6820814Y3108502D01*
X6817766Y3114598D01*
X6817766Y3126282D01*
X6820814Y3132378D01*
X6823608Y3135172D01*
X6829704Y3138220D01*
X6835546Y3138220D01*
X6841388Y3135172D01*
X6850278Y3129330D01*
X6879742Y3099866D01*
X6879742Y3141014D01*
X6373266Y2957372D02*
G01*
X6435242Y2933750D01*
X6373266Y2957372D02*
G01*
X6435242Y2980994D01*
X6414668Y2942640D02*
G01*
X6414668Y2972104D01*
X6387998Y3044748D02*
G01*
X6382156Y3041954D01*
X6376314Y3035858D01*
X6373266Y3030016D01*
X6373266Y3018078D01*
X6376314Y3012236D01*
X6382156Y3006394D01*
X6387998Y3003346D01*
X6396888Y3000552D01*
X6411620Y3000552D01*
X6420510Y3003346D01*
X6426606Y3006394D01*
X6432448Y3012236D01*
X6435242Y3018078D01*
X6435242Y3030016D01*
X6432448Y3035858D01*
X6426606Y3041954D01*
X6420510Y3044748D01*
X6373266Y3070148D02*
G01*
X6373266Y3102660D01*
X6396888Y3084880D01*
X6396888Y3093770D01*
X6399936Y3099866D01*
X6402730Y3102660D01*
X6411620Y3105708D01*
X6417716Y3105708D01*
X6426606Y3102660D01*
X6432448Y3096818D01*
X6435242Y3087928D01*
X6435242Y3079038D01*
X6432448Y3070148D01*
X6429400Y3067354D01*
X6423558Y3064306D01*
X6385204Y3125266D02*
G01*
X6382156Y3131108D01*
X6373266Y3139998D01*
X6435242Y3139998D01*
X5747511Y3728465D02*
G01*
X5723890Y3666489D01*
X5747511Y3728465D02*
G01*
X5771134Y3666489D01*
X5732779Y3687063D02*
G01*
X5762243Y3687063D01*
X5790691Y3728465D02*
G01*
X5790691Y3684270D01*
X5793740Y3675379D01*
X5799581Y3669537D01*
X5808472Y3666489D01*
X5814313Y3666489D01*
X5823204Y3669537D01*
X5829045Y3675379D01*
X5832093Y3684270D01*
X5832093Y3728465D01*
X5886958Y3728465D02*
G01*
X5857493Y3728465D01*
X5854445Y3702050D01*
X5857493Y3704844D01*
X5866384Y3707892D01*
X5875274Y3707892D01*
X5883909Y3704844D01*
X5890006Y3699002D01*
X5892800Y3690112D01*
X5892800Y3684270D01*
X5890006Y3675379D01*
X5883909Y3669537D01*
X5875274Y3666489D01*
X5866384Y3666489D01*
X5857493Y3669537D01*
X5854445Y3672331D01*
X5851652Y3678173D01*
X6589268Y3605021D02*
G01*
X6651243Y3581400D01*
X6589268Y3605021D02*
G01*
X6651243Y3628644D01*
X6630670Y3590289D02*
G01*
X6630670Y3619754D01*
X6604000Y3692397D02*
G01*
X6598158Y3689604D01*
X6592061Y3683507D01*
X6589268Y3677665D01*
X6589268Y3665981D01*
X6592061Y3659886D01*
X6598158Y3654044D01*
X6604000Y3651250D01*
X6612890Y3648202D01*
X6627622Y3648202D01*
X6636511Y3651250D01*
X6642354Y3654044D01*
X6648195Y3659886D01*
X6651243Y3665981D01*
X6651243Y3677665D01*
X6648195Y3683507D01*
X6642354Y3689604D01*
X6636511Y3692397D01*
X6600952Y3711955D02*
G01*
X6598158Y3717797D01*
X6589268Y3726687D01*
X6651243Y3726687D01*
X6598158Y3781805D02*
G01*
X6592061Y3778757D01*
X6589268Y3769868D01*
X6589268Y3764026D01*
X6592061Y3755136D01*
X6600952Y3749294D01*
X6615684Y3746245D01*
X6630670Y3746245D01*
X6642354Y3749294D01*
X6648195Y3755136D01*
X6651243Y3764026D01*
X6651243Y3766820D01*
X6648195Y3775710D01*
X6642354Y3781805D01*
X6633463Y3784600D01*
X6630670Y3784600D01*
X6621779Y3781805D01*
X6615684Y3775710D01*
X6612890Y3766820D01*
X6612890Y3764026D01*
X6615684Y3755136D01*
X6621779Y3749294D01*
X6630670Y3746245D01*
X8138947Y814882D02*
G01*
X8115325Y752906D01*
X8138947Y814882D02*
G01*
X8162569Y752906D01*
X8124215Y773480D02*
G01*
X8153679Y773480D01*
X8226323Y800150D02*
G01*
X8223529Y805992D01*
X8217433Y811834D01*
X8211591Y814882D01*
X8199907Y814882D01*
X8193811Y811834D01*
X8187969Y805992D01*
X8184921Y800150D01*
X8182127Y791260D01*
X8182127Y776528D01*
X8184921Y767638D01*
X8187969Y761796D01*
X8193811Y755700D01*
X8199907Y752906D01*
X8211591Y752906D01*
X8217433Y755700D01*
X8223529Y761796D01*
X8226323Y767638D01*
X8260613Y814882D02*
G01*
X8251723Y811834D01*
X8248929Y805992D01*
X8248929Y800150D01*
X8251723Y794308D01*
X8257819Y791260D01*
X8269503Y788212D01*
X8278393Y785418D01*
X8284235Y779322D01*
X8287283Y773480D01*
X8287283Y764590D01*
X8284235Y758748D01*
X8281441Y755700D01*
X8272551Y752906D01*
X8260613Y752906D01*
X8251723Y755700D01*
X8248929Y758748D01*
X8245881Y764590D01*
X8245881Y773480D01*
X8248929Y779322D01*
X8254771Y785418D01*
X8263661Y788212D01*
X8275345Y791260D01*
X8281441Y794308D01*
X8284235Y800150D01*
X8284235Y805992D01*
X8281441Y811834D01*
X8272551Y814882D01*
X8260613Y814882D01*
X8113598Y1678457D02*
G01*
X8089976Y1616481D01*
X8113598Y1678457D02*
G01*
X8137220Y1616481D01*
X8098866Y1637055D02*
G01*
X8128330Y1637055D01*
X8200974Y1663725D02*
G01*
X8197926Y1669567D01*
X8192084Y1675409D01*
X8186242Y1678457D01*
X8174304Y1678457D01*
X8168462Y1675409D01*
X8162620Y1669567D01*
X8159572Y1663725D01*
X8156778Y1654835D01*
X8156778Y1640103D01*
X8159572Y1631213D01*
X8162620Y1625371D01*
X8168462Y1619275D01*
X8174304Y1616481D01*
X8186242Y1616481D01*
X8192084Y1619275D01*
X8197926Y1625371D01*
X8200974Y1631213D01*
X8220532Y1666773D02*
G01*
X8226374Y1669567D01*
X8235264Y1678457D01*
X8235264Y1616481D01*
X8257616Y1663725D02*
G01*
X8257616Y1666773D01*
X8260664Y1672615D01*
X8263712Y1675409D01*
X8269554Y1678457D01*
X8281238Y1678457D01*
X8287334Y1675409D01*
X8290128Y1672615D01*
X8293176Y1666773D01*
X8293176Y1660677D01*
X8290128Y1654835D01*
X8284286Y1645945D01*
X8254822Y1616481D01*
X8296224Y1616481D01*
X6817868Y3566921D02*
G01*
X6879843Y3543300D01*
X6817868Y3566921D02*
G01*
X6879843Y3590544D01*
X6859270Y3552189D02*
G01*
X6859270Y3581654D01*
X6832600Y3654297D02*
G01*
X6826758Y3651504D01*
X6820661Y3645407D01*
X6817868Y3639565D01*
X6817868Y3627881D01*
X6820661Y3621786D01*
X6826758Y3615944D01*
X6832600Y3613150D01*
X6841490Y3610102D01*
X6856222Y3610102D01*
X6865111Y3613150D01*
X6870954Y3615944D01*
X6876795Y3621786D01*
X6879843Y3627881D01*
X6879843Y3639565D01*
X6876795Y3645407D01*
X6870954Y3651504D01*
X6865111Y3654297D01*
X6817868Y3679697D02*
G01*
X6817868Y3712210D01*
X6841490Y3694684D01*
X6841490Y3703320D01*
X6844284Y3709415D01*
X6847331Y3712210D01*
X6856222Y3715257D01*
X6862063Y3715257D01*
X6870954Y3712210D01*
X6876795Y3706368D01*
X6879843Y3697478D01*
X6879843Y3688587D01*
X6876795Y3679697D01*
X6874002Y3676904D01*
X6868159Y3673855D01*
X6817868Y3749547D02*
G01*
X6820661Y3740657D01*
X6826758Y3737610D01*
X6832600Y3737610D01*
X6838441Y3740657D01*
X6841490Y3746500D01*
X6844284Y3758437D01*
X6847331Y3767328D01*
X6853174Y3773170D01*
X6859270Y3776218D01*
X6868159Y3776218D01*
X6874002Y3773170D01*
X6876795Y3770121D01*
X6879843Y3761231D01*
X6879843Y3749547D01*
X6876795Y3740657D01*
X6874002Y3737610D01*
X6868159Y3734815D01*
X6859270Y3734815D01*
X6853174Y3737610D01*
X6847331Y3743705D01*
X6844284Y3752595D01*
X6841490Y3764279D01*
X6838441Y3770121D01*
X6832600Y3773170D01*
X6826758Y3773170D01*
X6820661Y3770121D01*
X6817868Y3761231D01*
X6817868Y3749547D01*
D56*
X7284720Y4796612D02*
G01*
X7284720Y4687646D01*
X7284720Y4796612D02*
G01*
X7331456Y4796612D01*
X7346950Y4791532D01*
X7352284Y4786198D01*
X7357363Y4775784D01*
X7357363Y4765370D01*
X7352284Y4754956D01*
X7346950Y4749876D01*
X7331456Y4744796D01*
X7284720Y4744796D02*
G01*
X7331456Y4744796D01*
X7346950Y4739462D01*
X7352284Y4734382D01*
X7357363Y4723968D01*
X7357363Y4708220D01*
X7352284Y4697806D01*
X7346950Y4692726D01*
X7331456Y4687646D01*
X7284720Y4687646D01*
X7469631Y4770704D02*
G01*
X7464552Y4781118D01*
X7454138Y4791532D01*
X7443724Y4796612D01*
X7422895Y4796612D01*
X7412481Y4791532D01*
X7402068Y4781118D01*
X7396988Y4770704D01*
X7391654Y4754956D01*
X7391654Y4729048D01*
X7396988Y4713554D01*
X7402068Y4703140D01*
X7412481Y4692726D01*
X7422895Y4687646D01*
X7443724Y4687646D01*
X7454138Y4692726D01*
X7464552Y4703140D01*
X7469631Y4713554D01*
X7555991Y4796612D02*
G01*
X7503922Y4723968D01*
X7581900Y4723968D01*
X7555991Y4796612D02*
G01*
X7555991Y4687646D01*
X7289800Y5025212D02*
G01*
X7289800Y4916246D01*
X7289800Y5025212D02*
G01*
X7336536Y5025212D01*
X7352029Y5020132D01*
X7357363Y5014798D01*
X7362443Y5004384D01*
X7362443Y4993970D01*
X7357363Y4983556D01*
X7352029Y4978476D01*
X7336536Y4973396D01*
X7289800Y4973396D02*
G01*
X7336536Y4973396D01*
X7352029Y4968062D01*
X7357363Y4962982D01*
X7362443Y4952568D01*
X7362443Y4936820D01*
X7357363Y4926406D01*
X7352029Y4921326D01*
X7336536Y4916246D01*
X7289800Y4916246D01*
X7474711Y4999304D02*
G01*
X7469631Y5009718D01*
X7459218Y5020132D01*
X7448804Y5025212D01*
X7427975Y5025212D01*
X7417561Y5020132D01*
X7407147Y5009718D01*
X7402068Y4999304D01*
X7396734Y4983556D01*
X7396734Y4957648D01*
X7402068Y4942154D01*
X7407147Y4931740D01*
X7417561Y4921326D01*
X7427975Y4916246D01*
X7448804Y4916246D01*
X7459218Y4921326D01*
X7469631Y4931740D01*
X7474711Y4942154D01*
X7571486Y5025212D02*
G01*
X7519415Y5025212D01*
X7514336Y4978476D01*
X7519415Y4983556D01*
X7534909Y4988890D01*
X7550658Y4988890D01*
X7566152Y4983556D01*
X7576565Y4973396D01*
X7581900Y4957648D01*
X7581900Y4947234D01*
X7576565Y4931740D01*
X7566152Y4921326D01*
X7550658Y4916246D01*
X7534909Y4916246D01*
X7519415Y4921326D01*
X7514336Y4926406D01*
X7509002Y4936820D01*
X7289800Y5241112D02*
G01*
X7289800Y5132146D01*
X7289800Y5241112D02*
G01*
X7336536Y5241112D01*
X7352029Y5236032D01*
X7357363Y5230698D01*
X7362443Y5220284D01*
X7362443Y5209870D01*
X7357363Y5199456D01*
X7352029Y5194376D01*
X7336536Y5189296D01*
X7289800Y5189296D02*
G01*
X7336536Y5189296D01*
X7352029Y5183962D01*
X7357363Y5178882D01*
X7362443Y5168468D01*
X7362443Y5152720D01*
X7357363Y5142306D01*
X7352029Y5137226D01*
X7336536Y5132146D01*
X7289800Y5132146D01*
X7474711Y5215204D02*
G01*
X7469631Y5225618D01*
X7459218Y5236032D01*
X7448804Y5241112D01*
X7427975Y5241112D01*
X7417561Y5236032D01*
X7407147Y5225618D01*
X7402068Y5215204D01*
X7396734Y5199456D01*
X7396734Y5173548D01*
X7402068Y5158054D01*
X7407147Y5147640D01*
X7417561Y5137226D01*
X7427975Y5132146D01*
X7448804Y5132146D01*
X7459218Y5137226D01*
X7469631Y5147640D01*
X7474711Y5158054D01*
X7571486Y5225618D02*
G01*
X7566152Y5236032D01*
X7550658Y5241112D01*
X7540243Y5241112D01*
X7524750Y5236032D01*
X7514336Y5220284D01*
X7509002Y5194376D01*
X7509002Y5168468D01*
X7514336Y5147640D01*
X7524750Y5137226D01*
X7540243Y5132146D01*
X7545324Y5132146D01*
X7561072Y5137226D01*
X7571486Y5147640D01*
X7576565Y5163134D01*
X7576565Y5168468D01*
X7571486Y5183962D01*
X7561072Y5194376D01*
X7545324Y5199456D01*
X7540243Y5199456D01*
X7524750Y5194376D01*
X7514336Y5183962D01*
X7509002Y5168468D01*
X7289800Y5457012D02*
G01*
X7289800Y5348046D01*
X7289800Y5457012D02*
G01*
X7336536Y5457012D01*
X7352029Y5451932D01*
X7357363Y5446598D01*
X7362443Y5436184D01*
X7362443Y5425770D01*
X7357363Y5415356D01*
X7352029Y5410276D01*
X7336536Y5405196D01*
X7289800Y5405196D02*
G01*
X7336536Y5405196D01*
X7352029Y5399862D01*
X7357363Y5394782D01*
X7362443Y5384368D01*
X7362443Y5368620D01*
X7357363Y5358206D01*
X7352029Y5353126D01*
X7336536Y5348046D01*
X7289800Y5348046D01*
X7474711Y5431104D02*
G01*
X7469631Y5441518D01*
X7459218Y5451932D01*
X7448804Y5457012D01*
X7427975Y5457012D01*
X7417561Y5451932D01*
X7407147Y5441518D01*
X7402068Y5431104D01*
X7396734Y5415356D01*
X7396734Y5389448D01*
X7402068Y5373954D01*
X7407147Y5363540D01*
X7417561Y5353126D01*
X7427975Y5348046D01*
X7448804Y5348046D01*
X7459218Y5353126D01*
X7469631Y5363540D01*
X7474711Y5373954D01*
X7581900Y5457012D02*
G01*
X7529829Y5348046D01*
X7509002Y5457012D02*
G01*
X7581900Y5457012D01*
D25*
X4530841Y4722629D02*
G01*
X4530841Y4646175D01*
X4530841Y4722629D02*
G01*
X4563607Y4722629D01*
X4574529Y4719073D01*
X4578085Y4715263D01*
X4581641Y4708151D01*
X4581641Y4700785D01*
X4578085Y4693419D01*
X4574529Y4689863D01*
X4563607Y4686307D01*
X4530841Y4686307D02*
G01*
X4563607Y4686307D01*
X4574529Y4682497D01*
X4578085Y4678941D01*
X4581641Y4671575D01*
X4581641Y4660907D01*
X4578085Y4653541D01*
X4574529Y4649985D01*
X4563607Y4646175D01*
X4530841Y4646175D01*
X4605771Y4722629D02*
G01*
X4605771Y4646175D01*
X4605771Y4646175D02*
G01*
X4649459Y4646175D01*
X4673335Y4722629D02*
G01*
X4673335Y4646175D01*
X4673335Y4722629D02*
G01*
X4720579Y4722629D01*
X4673335Y4686307D02*
G01*
X4702545Y4686307D01*
X4673335Y4646175D02*
G01*
X4720579Y4646175D01*
X4744709Y4722629D02*
G01*
X4744709Y4646175D01*
X4744709Y4722629D02*
G01*
X4770109Y4722629D01*
X4781031Y4719073D01*
X4788397Y4711707D01*
X4791953Y4704341D01*
X4795509Y4693419D01*
X4795509Y4675385D01*
X4791953Y4664463D01*
X4788397Y4657097D01*
X4781031Y4649985D01*
X4770109Y4646175D01*
X4744709Y4646175D01*
X4819639Y4708151D02*
G01*
X4826751Y4711707D01*
X4837673Y4722629D01*
X4837673Y4646175D01*
X5664324Y4718745D02*
G01*
X5664324Y4651943D01*
X5664324Y4718745D02*
G01*
X5692772Y4718745D01*
X5702424Y4715697D01*
X5705472Y4712395D01*
X5708774Y4706045D01*
X5708774Y4699695D01*
X5705472Y4693345D01*
X5702424Y4690297D01*
X5692772Y4686995D01*
X5664324Y4686995D02*
G01*
X5692772Y4686995D01*
X5702424Y4683947D01*
X5705472Y4680645D01*
X5708774Y4674295D01*
X5708774Y4664643D01*
X5705472Y4658293D01*
X5702424Y4655245D01*
X5692772Y4651943D01*
X5664324Y4651943D01*
X5729856Y4718745D02*
G01*
X5729856Y4651943D01*
X5729856Y4718745D02*
G01*
X5758304Y4718745D01*
X5767956Y4715697D01*
X5771004Y4712395D01*
X5774306Y4706045D01*
X5774306Y4699695D01*
X5771004Y4693345D01*
X5767956Y4690297D01*
X5758304Y4686995D01*
X5729856Y4686995D01*
X5751954Y4686995D02*
G01*
X5774306Y4651943D01*
X5795388Y4706045D02*
G01*
X5801738Y4709347D01*
X5811136Y4718745D01*
X5811136Y4651943D01*
X5664250Y4934610D02*
G01*
X5664250Y4867808D01*
X5664250Y4934610D02*
G01*
X5692952Y4934610D01*
X5702350Y4931562D01*
X5705652Y4928260D01*
X5708700Y4921910D01*
X5708700Y4915560D01*
X5705652Y4909210D01*
X5702350Y4906162D01*
X5692952Y4902860D01*
X5664250Y4902860D02*
G01*
X5692952Y4902860D01*
X5702350Y4899812D01*
X5705652Y4896510D01*
X5708700Y4890160D01*
X5708700Y4880762D01*
X5705652Y4874158D01*
X5702350Y4871110D01*
X5692952Y4867808D01*
X5664250Y4867808D01*
X5729782Y4934610D02*
G01*
X5729782Y4867808D01*
X5729782Y4934610D02*
G01*
X5758484Y4934610D01*
X5767882Y4931562D01*
X5771184Y4928260D01*
X5774232Y4921910D01*
X5774232Y4915560D01*
X5771184Y4909210D01*
X5767882Y4906162D01*
X5758484Y4902860D01*
X5729782Y4902860D01*
X5752134Y4902860D02*
G01*
X5774232Y4867808D01*
X5798362Y4918862D02*
G01*
X5798362Y4921910D01*
X5801664Y4928260D01*
X5804712Y4931562D01*
X5811316Y4934610D01*
X5824016Y4934610D01*
X5830366Y4931562D01*
X5833414Y4928260D01*
X5836716Y4921910D01*
X5836716Y4915560D01*
X5833414Y4909210D01*
X5827064Y4899812D01*
X5795314Y4867808D01*
X5839764Y4867808D01*
X4545832Y4938783D02*
G01*
X4545832Y4862583D01*
X4545832Y4938783D02*
G01*
X4578344Y4938783D01*
X4589266Y4935227D01*
X4593076Y4931671D01*
X4596632Y4924305D01*
X4596632Y4916939D01*
X4593076Y4909827D01*
X4589266Y4906017D01*
X4578344Y4902461D01*
X4545832Y4902461D02*
G01*
X4578344Y4902461D01*
X4589266Y4898905D01*
X4593076Y4895095D01*
X4596632Y4887983D01*
X4596632Y4877061D01*
X4593076Y4869695D01*
X4589266Y4866139D01*
X4578344Y4862583D01*
X4545832Y4862583D01*
X4620508Y4938783D02*
G01*
X4620508Y4862583D01*
X4620508Y4862583D02*
G01*
X4664196Y4862583D01*
X4688326Y4938783D02*
G01*
X4688326Y4862583D01*
X4688326Y4938783D02*
G01*
X4735570Y4938783D01*
X4688326Y4902461D02*
G01*
X4717282Y4902461D01*
X4688326Y4862583D02*
G01*
X4735570Y4862583D01*
X4759446Y4938783D02*
G01*
X4759446Y4862583D01*
X4759446Y4938783D02*
G01*
X4785100Y4938783D01*
X4795768Y4935227D01*
X4803134Y4927861D01*
X4806690Y4920749D01*
X4810500Y4909827D01*
X4810500Y4891539D01*
X4806690Y4880617D01*
X4803134Y4873505D01*
X4795768Y4866139D01*
X4785100Y4862583D01*
X4759446Y4862583D01*
X4838186Y4920749D02*
G01*
X4838186Y4924305D01*
X4841742Y4931671D01*
X4845298Y4935227D01*
X4852664Y4938783D01*
X4867142Y4938783D01*
X4874508Y4935227D01*
X4878064Y4931671D01*
X4881620Y4924305D01*
X4881620Y4916939D01*
X4878064Y4909827D01*
X4870698Y4898905D01*
X4834376Y4862583D01*
X4885430Y4862583D01*
X5664276Y5137962D02*
G01*
X5664276Y5071160D01*
X5664276Y5137962D02*
G01*
X5692724Y5137962D01*
X5702376Y5134660D01*
X5705678Y5131612D01*
X5708726Y5125262D01*
X5708726Y5118912D01*
X5705678Y5112562D01*
X5702376Y5109260D01*
X5692724Y5106212D01*
X5664276Y5106212D02*
G01*
X5692724Y5106212D01*
X5702376Y5102910D01*
X5705678Y5099862D01*
X5708726Y5093512D01*
X5708726Y5083860D01*
X5705678Y5077510D01*
X5702376Y5074208D01*
X5692724Y5071160D01*
X5664276Y5071160D01*
X5729808Y5137962D02*
G01*
X5729808Y5071160D01*
X5729808Y5137962D02*
G01*
X5758256Y5137962D01*
X5767908Y5134660D01*
X5771210Y5131612D01*
X5774258Y5125262D01*
X5774258Y5118912D01*
X5771210Y5112562D01*
X5767908Y5109260D01*
X5758256Y5106212D01*
X5729808Y5106212D01*
X5751906Y5106212D02*
G01*
X5774258Y5071160D01*
X5801690Y5137962D02*
G01*
X5836742Y5137962D01*
X5817438Y5112562D01*
X5827090Y5112562D01*
X5833440Y5109260D01*
X5836742Y5106212D01*
X5839790Y5096560D01*
X5839790Y5090210D01*
X5836742Y5080558D01*
X5830392Y5074208D01*
X5820740Y5071160D01*
X5811088Y5071160D01*
X5801690Y5074208D01*
X5798388Y5077510D01*
X5795340Y5083860D01*
X4543808Y5151122D02*
G01*
X4543808Y5074668D01*
X4543808Y5151122D02*
G01*
X4576320Y5151122D01*
X4587242Y5147566D01*
X4591052Y5143756D01*
X4594608Y5136644D01*
X4594608Y5129278D01*
X4591052Y5121912D01*
X4587242Y5118356D01*
X4576320Y5114800D01*
X4543808Y5114800D02*
G01*
X4576320Y5114800D01*
X4587242Y5111244D01*
X4591052Y5107434D01*
X4594608Y5100322D01*
X4594608Y5089400D01*
X4591052Y5082034D01*
X4587242Y5078478D01*
X4576320Y5074668D01*
X4543808Y5074668D01*
X4618738Y5151122D02*
G01*
X4618738Y5074668D01*
X4618738Y5074668D02*
G01*
X4662172Y5074668D01*
X4686302Y5151122D02*
G01*
X4686302Y5074668D01*
X4686302Y5151122D02*
G01*
X4733546Y5151122D01*
X4686302Y5114800D02*
G01*
X4715258Y5114800D01*
X4686302Y5074668D02*
G01*
X4733546Y5074668D01*
X4757422Y5151122D02*
G01*
X4757422Y5074668D01*
X4757422Y5151122D02*
G01*
X4783076Y5151122D01*
X4793998Y5147566D01*
X4801110Y5140200D01*
X4804920Y5132834D01*
X4808476Y5121912D01*
X4808476Y5103878D01*
X4804920Y5092956D01*
X4801110Y5085590D01*
X4793998Y5078478D01*
X4783076Y5074668D01*
X4757422Y5074668D01*
X4839718Y5151122D02*
G01*
X4879596Y5151122D01*
X4858006Y5121912D01*
X4868674Y5121912D01*
X4876040Y5118356D01*
X4879596Y5114800D01*
X4883406Y5103878D01*
X4883406Y5096512D01*
X4879596Y5085590D01*
X4872484Y5078478D01*
X4861562Y5074668D01*
X4850640Y5074668D01*
X4839718Y5078478D01*
X4836162Y5082034D01*
X4832352Y5089400D01*
X5662066Y5350179D02*
G01*
X5662066Y5283377D01*
X5662066Y5350179D02*
G01*
X5690768Y5350179D01*
X5700420Y5346877D01*
X5703468Y5343829D01*
X5706770Y5337479D01*
X5706770Y5331129D01*
X5703468Y5324779D01*
X5700420Y5321477D01*
X5690768Y5318429D01*
X5662066Y5318429D02*
G01*
X5690768Y5318429D01*
X5700420Y5315127D01*
X5703468Y5311825D01*
X5706770Y5305475D01*
X5706770Y5296077D01*
X5703468Y5289727D01*
X5700420Y5286425D01*
X5690768Y5283377D01*
X5662066Y5283377D01*
X5727598Y5350179D02*
G01*
X5727598Y5283377D01*
X5727598Y5350179D02*
G01*
X5756300Y5350179D01*
X5765952Y5346877D01*
X5769000Y5343829D01*
X5772302Y5337479D01*
X5772302Y5331129D01*
X5769000Y5324779D01*
X5765952Y5321477D01*
X5756300Y5318429D01*
X5727598Y5318429D01*
X5749950Y5318429D02*
G01*
X5772302Y5283377D01*
X5825134Y5350179D02*
G01*
X5793130Y5305475D01*
X5840882Y5305475D01*
X5825134Y5350179D02*
G01*
X5825134Y5283377D01*
X5660009Y5562371D02*
G01*
X5660009Y5495569D01*
X5660009Y5562371D02*
G01*
X5688711Y5562371D01*
X5698363Y5559069D01*
X5701411Y5556021D01*
X5704713Y5549671D01*
X5704713Y5543321D01*
X5701411Y5536971D01*
X5698363Y5533669D01*
X5688711Y5530621D01*
X5660009Y5530621D02*
G01*
X5688711Y5530621D01*
X5698363Y5527319D01*
X5701411Y5524017D01*
X5704713Y5517667D01*
X5704713Y5508269D01*
X5701411Y5501919D01*
X5698363Y5498617D01*
X5688711Y5495569D01*
X5660009Y5495569D01*
X5725540Y5562371D02*
G01*
X5725540Y5495569D01*
X5725540Y5562371D02*
G01*
X5754243Y5562371D01*
X5763895Y5559069D01*
X5766943Y5556021D01*
X5770245Y5549671D01*
X5770245Y5543321D01*
X5766943Y5536971D01*
X5763895Y5533669D01*
X5754243Y5530621D01*
X5725540Y5530621D01*
X5747893Y5530621D02*
G01*
X5770245Y5495569D01*
X5829427Y5562371D02*
G01*
X5797422Y5562371D01*
X5794375Y5533669D01*
X5797422Y5536971D01*
X5807075Y5540019D01*
X5816727Y5540019D01*
X5826125Y5536971D01*
X5832475Y5530621D01*
X5835777Y5520969D01*
X5835777Y5514619D01*
X5832475Y5504967D01*
X5826125Y5498617D01*
X5816727Y5495569D01*
X5807075Y5495569D01*
X5797422Y5498617D01*
X5794375Y5501919D01*
X5791072Y5508269D01*
D56*
X4268977Y699007D02*
G01*
X4263643Y709421D01*
X4253229Y719836D01*
X4243070Y724915D01*
X4222241Y724915D01*
X4211827Y719836D01*
X4201413Y709421D01*
X4196079Y699007D01*
X4191000Y683260D01*
X4191000Y657352D01*
X4196079Y641857D01*
X4201413Y631444D01*
X4211827Y621029D01*
X4222241Y615950D01*
X4243070Y615950D01*
X4253229Y621029D01*
X4263643Y631444D01*
X4268977Y641857D01*
X4365497Y709421D02*
G01*
X4360418Y719836D01*
X4344670Y724915D01*
X4334509Y724915D01*
X4318761Y719836D01*
X4308347Y704087D01*
X4303268Y678179D01*
X4303268Y652271D01*
X4308347Y631444D01*
X4318761Y621029D01*
X4334509Y615950D01*
X4339590Y615950D01*
X4355084Y621029D01*
X4365497Y631444D01*
X4370831Y646937D01*
X4370831Y652271D01*
X4365497Y667765D01*
X4355084Y678179D01*
X4339590Y683260D01*
X4334509Y683260D01*
X4318761Y678179D01*
X4308347Y667765D01*
X4303268Y652271D01*
X3456177Y699007D02*
G01*
X3450843Y709421D01*
X3440429Y719836D01*
X3430270Y724915D01*
X3409441Y724915D01*
X3399027Y719836D01*
X3388613Y709421D01*
X3383279Y699007D01*
X3378200Y683260D01*
X3378200Y657352D01*
X3383279Y641857D01*
X3388613Y631444D01*
X3399027Y621029D01*
X3409441Y615950D01*
X3430270Y615950D01*
X3440429Y621029D01*
X3450843Y631444D01*
X3456177Y641857D01*
X3542284Y724915D02*
G01*
X3490468Y652271D01*
X3568445Y652271D01*
X3542284Y724915D02*
G01*
X3542284Y615950D01*
X3001772Y1473707D02*
G01*
X2996438Y1484121D01*
X2986024Y1494536D01*
X2975863Y1499615D01*
X2955036Y1499615D01*
X2944622Y1494536D01*
X2934208Y1484121D01*
X2928874Y1473707D01*
X2923793Y1457960D01*
X2923793Y1432052D01*
X2928874Y1416557D01*
X2934208Y1406144D01*
X2944622Y1395729D01*
X2955036Y1390650D01*
X2975863Y1390650D01*
X2986024Y1395729D01*
X2996438Y1406144D01*
X3001772Y1416557D01*
X3098291Y1499615D02*
G01*
X3046475Y1499615D01*
X3041141Y1452879D01*
X3046475Y1457960D01*
X3061970Y1463294D01*
X3077463Y1463294D01*
X3093211Y1457960D01*
X3103625Y1447800D01*
X3108706Y1432052D01*
X3108706Y1421637D01*
X3103625Y1406144D01*
X3093211Y1395729D01*
X3077463Y1390650D01*
X3061970Y1390650D01*
X3046475Y1395729D01*
X3041141Y1400810D01*
X3036061Y1411223D01*
X3868165Y1461007D02*
G01*
X3862831Y1471421D01*
X3852418Y1481836D01*
X3842258Y1486915D01*
X3821429Y1486915D01*
X3811015Y1481836D01*
X3800602Y1471421D01*
X3795268Y1461007D01*
X3790188Y1445260D01*
X3790188Y1419352D01*
X3795268Y1403857D01*
X3800602Y1393444D01*
X3811015Y1383029D01*
X3821429Y1377950D01*
X3842258Y1377950D01*
X3852418Y1383029D01*
X3862831Y1393444D01*
X3868165Y1403857D01*
X3907536Y1461007D02*
G01*
X3907536Y1466087D01*
X3912870Y1476502D01*
X3917950Y1481836D01*
X3928363Y1486915D01*
X3949191Y1486915D01*
X3959606Y1481836D01*
X3964686Y1476502D01*
X3970020Y1466087D01*
X3970020Y1455673D01*
X3964686Y1445260D01*
X3954272Y1429765D01*
X3902456Y1377950D01*
X3975100Y1377950D01*
X3853891Y4556252D02*
G01*
X3848557Y4566665D01*
X3838143Y4577079D01*
X3827983Y4582413D01*
X3807155Y4582413D01*
X3796741Y4577079D01*
X3786327Y4566665D01*
X3780993Y4556252D01*
X3775913Y4540757D01*
X3775913Y4514850D01*
X3780993Y4499102D01*
X3786327Y4488687D01*
X3796741Y4478273D01*
X3807155Y4473194D01*
X3827983Y4473194D01*
X3838143Y4478273D01*
X3848557Y4488687D01*
X3853891Y4499102D01*
X3966159Y4556252D02*
G01*
X3960825Y4566665D01*
X3950411Y4577079D01*
X3939997Y4582413D01*
X3919423Y4582413D01*
X3909009Y4577079D01*
X3898595Y4566665D01*
X3893261Y4556252D01*
X3888181Y4540757D01*
X3888181Y4514850D01*
X3893261Y4499102D01*
X3898595Y4488687D01*
X3909009Y4478273D01*
X3919423Y4473194D01*
X3939997Y4473194D01*
X3950411Y4478273D01*
X3960825Y4488687D01*
X3966159Y4499102D01*
X4052265Y4582413D02*
G01*
X4000449Y4509515D01*
X4078173Y4509515D01*
X4052265Y4582413D02*
G01*
X4052265Y4473194D01*
D19*
X2320239Y4721097D02*
G01*
X2314905Y4731512D01*
X2304491Y4741926D01*
X2294331Y4747005D01*
X2273503Y4747005D01*
X2263089Y4741926D01*
X2252675Y4731512D01*
X2247341Y4721097D01*
X2242261Y4705350D01*
X2242261Y4679442D01*
X2247341Y4663947D01*
X2252675Y4653534D01*
X2263089Y4643120D01*
X2273503Y4638039D01*
X2294331Y4638039D01*
X2304491Y4643120D01*
X2314905Y4653534D01*
X2320239Y4663947D01*
X2354529Y4747005D02*
G01*
X2354529Y4669028D01*
X2359609Y4653534D01*
X2370023Y4643120D01*
X2385771Y4638039D01*
X2395931Y4638039D01*
X2411679Y4643120D01*
X2422093Y4653534D01*
X2427173Y4669028D01*
X2427173Y4747005D01*
X2461463Y4726178D02*
G01*
X2471877Y4731512D01*
X2487371Y4747005D01*
X2487371Y4638039D01*
D56*
X3079191Y5426202D02*
G01*
X3073857Y5436615D01*
X3063443Y5447029D01*
X3053283Y5452363D01*
X3032455Y5452363D01*
X3022041Y5447029D01*
X3011627Y5436615D01*
X3006293Y5426202D01*
X3001213Y5410707D01*
X3001213Y5384800D01*
X3006293Y5369052D01*
X3011627Y5358637D01*
X3022041Y5348223D01*
X3032455Y5343144D01*
X3053283Y5343144D01*
X3063443Y5348223D01*
X3073857Y5358637D01*
X3079191Y5369052D01*
X3113481Y5452363D02*
G01*
X3186125Y5343144D01*
X3186125Y5452363D02*
G01*
X3113481Y5343144D01*
X3230829Y5452363D02*
G01*
X3287979Y5452363D01*
X3256737Y5410707D01*
X3272485Y5410707D01*
X3282899Y5405373D01*
X3287979Y5400294D01*
X3293313Y5384800D01*
X3293313Y5374386D01*
X3287979Y5358637D01*
X3277565Y5348223D01*
X3262071Y5343144D01*
X3246323Y5343144D01*
X3230829Y5348223D01*
X3225749Y5353557D01*
X3220415Y5363971D01*
X3853891Y5038852D02*
G01*
X3848557Y5049265D01*
X3838143Y5059679D01*
X3827983Y5065013D01*
X3807155Y5065013D01*
X3796741Y5059679D01*
X3786327Y5049265D01*
X3780993Y5038852D01*
X3775913Y5023357D01*
X3775913Y4997450D01*
X3780993Y4981702D01*
X3786327Y4971287D01*
X3796741Y4960873D01*
X3807155Y4955794D01*
X3827983Y4955794D01*
X3838143Y4960873D01*
X3848557Y4971287D01*
X3853891Y4981702D01*
X3966159Y5038852D02*
G01*
X3960825Y5049265D01*
X3950411Y5059679D01*
X3939997Y5065013D01*
X3919423Y5065013D01*
X3909009Y5059679D01*
X3898595Y5049265D01*
X3893261Y5038852D01*
X3888181Y5023357D01*
X3888181Y4997450D01*
X3893261Y4981702D01*
X3898595Y4971287D01*
X3909009Y4960873D01*
X3919423Y4955794D01*
X3939997Y4955794D01*
X3950411Y4960873D01*
X3960825Y4971287D01*
X3966159Y4981702D01*
X4010863Y5065013D02*
G01*
X4068013Y5065013D01*
X4036771Y5023357D01*
X4052265Y5023357D01*
X4062679Y5018023D01*
X4068013Y5012944D01*
X4073093Y4997450D01*
X4073093Y4987036D01*
X4068013Y4971287D01*
X4057599Y4960873D01*
X4041851Y4955794D01*
X4026357Y4955794D01*
X4010863Y4960873D01*
X4005529Y4966207D01*
X4000449Y4976621D01*
X3853891Y4797552D02*
G01*
X3848557Y4807965D01*
X3838143Y4818379D01*
X3827983Y4823713D01*
X3807155Y4823713D01*
X3796741Y4818379D01*
X3786327Y4807965D01*
X3780993Y4797552D01*
X3775913Y4782057D01*
X3775913Y4756150D01*
X3780993Y4740402D01*
X3786327Y4729987D01*
X3796741Y4719573D01*
X3807155Y4714494D01*
X3827983Y4714494D01*
X3838143Y4719573D01*
X3848557Y4729987D01*
X3853891Y4740402D01*
X3966159Y4797552D02*
G01*
X3960825Y4807965D01*
X3950411Y4818379D01*
X3939997Y4823713D01*
X3919423Y4823713D01*
X3909009Y4818379D01*
X3898595Y4807965D01*
X3893261Y4797552D01*
X3888181Y4782057D01*
X3888181Y4756150D01*
X3893261Y4740402D01*
X3898595Y4729987D01*
X3909009Y4719573D01*
X3919423Y4714494D01*
X3939997Y4714494D01*
X3950411Y4719573D01*
X3960825Y4729987D01*
X3966159Y4740402D01*
X4005529Y4797552D02*
G01*
X4005529Y4802886D01*
X4010863Y4813300D01*
X4015943Y4818379D01*
X4026357Y4823713D01*
X4047185Y4823713D01*
X4057599Y4818379D01*
X4062679Y4813300D01*
X4068013Y4802886D01*
X4068013Y4792471D01*
X4062679Y4782057D01*
X4052265Y4766563D01*
X4000449Y4714494D01*
X4073093Y4714494D01*
X3853891Y5280152D02*
G01*
X3848557Y5290565D01*
X3838143Y5300979D01*
X3827983Y5306313D01*
X3807155Y5306313D01*
X3796741Y5300979D01*
X3786327Y5290565D01*
X3780993Y5280152D01*
X3775913Y5264657D01*
X3775913Y5238750D01*
X3780993Y5223002D01*
X3786327Y5212587D01*
X3796741Y5202173D01*
X3807155Y5197094D01*
X3827983Y5197094D01*
X3838143Y5202173D01*
X3848557Y5212587D01*
X3853891Y5223002D01*
X3966159Y5280152D02*
G01*
X3960825Y5290565D01*
X3950411Y5300979D01*
X3939997Y5306313D01*
X3919423Y5306313D01*
X3909009Y5300979D01*
X3898595Y5290565D01*
X3893261Y5280152D01*
X3888181Y5264657D01*
X3888181Y5238750D01*
X3893261Y5223002D01*
X3898595Y5212587D01*
X3909009Y5202173D01*
X3919423Y5197094D01*
X3939997Y5197094D01*
X3950411Y5202173D01*
X3960825Y5212587D01*
X3966159Y5223002D01*
X4000449Y5285486D02*
G01*
X4010863Y5290565D01*
X4026357Y5306313D01*
X4026357Y5197094D01*
X3850538Y4313681D02*
G01*
X3845204Y4324095D01*
X3834790Y4334510D01*
X3824376Y4339589D01*
X3803802Y4339589D01*
X3793388Y4334510D01*
X3782974Y4324095D01*
X3777640Y4313681D01*
X3772560Y4298187D01*
X3772560Y4272026D01*
X3777640Y4256531D01*
X3782974Y4246118D01*
X3793388Y4235704D01*
X3803802Y4230623D01*
X3824376Y4230623D01*
X3834790Y4235704D01*
X3845204Y4246118D01*
X3850538Y4256531D01*
X3884828Y4339589D02*
G01*
X3884828Y4230623D01*
X3884828Y4339589D02*
G01*
X3931564Y4339589D01*
X3947058Y4334510D01*
X3952392Y4329176D01*
X3957472Y4318762D01*
X3957472Y4308347D01*
X3952392Y4298187D01*
X3947058Y4292854D01*
X3931564Y4287773D01*
X3884828Y4287773D01*
X3921150Y4287773D02*
G01*
X3957472Y4230623D01*
X3991762Y4318762D02*
G01*
X4002176Y4324095D01*
X4017670Y4339589D01*
X4017670Y4230623D01*
D25*
X1399816Y2076376D02*
G01*
X1466618Y2076376D01*
X1399816Y2076376D02*
G01*
X1399816Y2105078D01*
X1403118Y2114730D01*
X1406166Y2117778D01*
X1412516Y2121080D01*
X1418866Y2121080D01*
X1425216Y2117778D01*
X1428518Y2114730D01*
X1431566Y2105078D01*
X1431566Y2076376D01*
X1431566Y2098728D02*
G01*
X1466618Y2121080D01*
X1399816Y2141908D02*
G01*
X1466618Y2141908D01*
X1399816Y2141908D02*
G01*
X1399816Y2164260D01*
X1403118Y2173912D01*
X1409468Y2180262D01*
X1415818Y2183310D01*
X1425216Y2186612D01*
X1441218Y2186612D01*
X1450870Y2183310D01*
X1457220Y2180262D01*
X1463570Y2173912D01*
X1466618Y2164260D01*
X1466618Y2141908D01*
X1422168Y2248842D02*
G01*
X1431566Y2245794D01*
X1438170Y2239444D01*
X1441218Y2229792D01*
X1441218Y2226744D01*
X1438170Y2217092D01*
X1431566Y2210742D01*
X1422168Y2207440D01*
X1418866Y2207440D01*
X1409468Y2210742D01*
X1403118Y2217092D01*
X1399816Y2226744D01*
X1399816Y2229792D01*
X1403118Y2239444D01*
X1409468Y2245794D01*
X1422168Y2248842D01*
X1438170Y2248842D01*
X1453918Y2245794D01*
X1463570Y2239444D01*
X1466618Y2229792D01*
X1466618Y2223442D01*
X1463570Y2213790D01*
X1457220Y2210742D01*
X1393205Y1139619D02*
G01*
X1469659Y1139619D01*
X1393205Y1139619D02*
G01*
X1393205Y1165019D01*
X1396761Y1175941D01*
X1404127Y1183307D01*
X1411493Y1186863D01*
X1422415Y1190419D01*
X1440449Y1190419D01*
X1451371Y1186863D01*
X1458737Y1183307D01*
X1465849Y1175941D01*
X1469659Y1165019D01*
X1469659Y1139619D01*
X1418605Y1261793D02*
G01*
X1429527Y1258237D01*
X1436893Y1250871D01*
X1440449Y1239949D01*
X1440449Y1236393D01*
X1436893Y1225471D01*
X1429527Y1218105D01*
X1418605Y1214549D01*
X1415049Y1214549D01*
X1404127Y1218105D01*
X1396761Y1225471D01*
X1393205Y1236393D01*
X1393205Y1239949D01*
X1396761Y1250871D01*
X1404127Y1258237D01*
X1418605Y1261793D01*
X1436893Y1261793D01*
X1454927Y1258237D01*
X1465849Y1250871D01*
X1469659Y1239949D01*
X1469659Y1232583D01*
X1465849Y1221661D01*
X1458737Y1218105D01*
X1196340Y2075434D02*
G01*
X1263141Y2075434D01*
X1196340Y2075434D02*
G01*
X1196340Y2104136D01*
X1199641Y2113787D01*
X1202690Y2116836D01*
X1209040Y2120137D01*
X1215390Y2120137D01*
X1221740Y2116836D01*
X1225041Y2113787D01*
X1228090Y2104136D01*
X1228090Y2075434D01*
X1228090Y2097786D02*
G01*
X1263141Y2120137D01*
X1196340Y2140965D02*
G01*
X1263141Y2140965D01*
X1196340Y2140965D02*
G01*
X1196340Y2163318D01*
X1199641Y2172970D01*
X1205991Y2179320D01*
X1212341Y2182368D01*
X1221740Y2185670D01*
X1237741Y2185670D01*
X1247393Y2182368D01*
X1253743Y2179320D01*
X1260093Y2172970D01*
X1263141Y2163318D01*
X1263141Y2140965D01*
X1209040Y2206497D02*
G01*
X1205991Y2212847D01*
X1196340Y2222500D01*
X1263141Y2222500D01*
X1196340Y2262631D02*
G01*
X1199641Y2252979D01*
X1209040Y2246629D01*
X1225041Y2243581D01*
X1234693Y2243581D01*
X1250441Y2246629D01*
X1260093Y2252979D01*
X1263141Y2262631D01*
X1263141Y2268981D01*
X1260093Y2278634D01*
X1250441Y2284984D01*
X1234693Y2288031D01*
X1225041Y2288031D01*
X1209040Y2284984D01*
X1199641Y2278634D01*
X1196340Y2268981D01*
X1196340Y2262631D01*
X1187884Y1112934D02*
G01*
X1264338Y1112934D01*
X1187884Y1112934D02*
G01*
X1187884Y1138334D01*
X1191440Y1149256D01*
X1198806Y1156622D01*
X1206172Y1160178D01*
X1217094Y1163734D01*
X1235128Y1163734D01*
X1246050Y1160178D01*
X1253416Y1156622D01*
X1260528Y1149256D01*
X1264338Y1138334D01*
X1264338Y1112934D01*
X1202362Y1187864D02*
G01*
X1198806Y1194976D01*
X1187884Y1205898D01*
X1264338Y1205898D01*
X1187884Y1251872D02*
G01*
X1191440Y1240950D01*
X1202362Y1233584D01*
X1220650Y1230028D01*
X1231572Y1230028D01*
X1249606Y1233584D01*
X1260528Y1240950D01*
X1264338Y1251872D01*
X1264338Y1258984D01*
X1260528Y1269906D01*
X1249606Y1277272D01*
X1231572Y1280828D01*
X1220650Y1280828D01*
X1202362Y1277272D01*
X1191440Y1269906D01*
X1187884Y1258984D01*
X1187884Y1251872D01*
X984417Y1111991D02*
G01*
X1060871Y1111991D01*
X984417Y1111991D02*
G01*
X984417Y1137391D01*
X987973Y1148313D01*
X995339Y1155679D01*
X1002705Y1159235D01*
X1013627Y1162791D01*
X1031661Y1162791D01*
X1042583Y1159235D01*
X1049949Y1155679D01*
X1057061Y1148313D01*
X1060871Y1137391D01*
X1060871Y1111991D01*
X998895Y1186921D02*
G01*
X995339Y1194033D01*
X984417Y1204955D01*
X1060871Y1204955D01*
X998895Y1229085D02*
G01*
X995339Y1236197D01*
X984417Y1247119D01*
X1060871Y1247119D01*
X992863Y2074491D02*
G01*
X1059665Y2074491D01*
X992863Y2074491D02*
G01*
X992863Y2103193D01*
X996165Y2112845D01*
X999213Y2115893D01*
X1005563Y2119195D01*
X1011913Y2119195D01*
X1018263Y2115893D01*
X1021565Y2112845D01*
X1024613Y2103193D01*
X1024613Y2074491D01*
X1024613Y2096843D02*
G01*
X1059665Y2119195D01*
X992863Y2140023D02*
G01*
X1059665Y2140023D01*
X992863Y2140023D02*
G01*
X992863Y2162375D01*
X996165Y2172027D01*
X1002515Y2178377D01*
X1008865Y2181425D01*
X1018263Y2184727D01*
X1034265Y2184727D01*
X1043917Y2181425D01*
X1050267Y2178377D01*
X1056617Y2172027D01*
X1059665Y2162375D01*
X1059665Y2140023D01*
X1005563Y2205555D02*
G01*
X1002515Y2211905D01*
X992863Y2221557D01*
X1059665Y2221557D01*
X1005563Y2242639D02*
G01*
X1002515Y2248989D01*
X992863Y2258387D01*
X1059665Y2258387D01*
X2410602Y1144379D02*
G01*
X2487056Y1144379D01*
X2410602Y1144379D02*
G01*
X2410602Y1169779D01*
X2414158Y1180701D01*
X2421524Y1187813D01*
X2428890Y1191623D01*
X2439812Y1195179D01*
X2457846Y1195179D01*
X2468768Y1191623D01*
X2476134Y1187813D01*
X2483246Y1180701D01*
X2487056Y1169779D01*
X2487056Y1144379D01*
X2410602Y1255631D02*
G01*
X2461402Y1219309D01*
X2461402Y1273665D01*
X2410602Y1255631D02*
G01*
X2487056Y1255631D01*
X2417203Y2081136D02*
G01*
X2484005Y2081136D01*
X2417203Y2081136D02*
G01*
X2417203Y2109838D01*
X2420505Y2119236D01*
X2423553Y2122538D01*
X2429903Y2125586D01*
X2436253Y2125586D01*
X2442603Y2122538D01*
X2445905Y2119236D01*
X2448953Y2109838D01*
X2448953Y2081136D01*
X2448953Y2103488D02*
G01*
X2484005Y2125586D01*
X2417203Y2146668D02*
G01*
X2484005Y2146668D01*
X2417203Y2146668D02*
G01*
X2417203Y2169020D01*
X2420505Y2178418D01*
X2426855Y2184768D01*
X2433205Y2188070D01*
X2442603Y2191372D01*
X2458605Y2191372D01*
X2468257Y2188070D01*
X2474607Y2184768D01*
X2480957Y2178418D01*
X2484005Y2169020D01*
X2484005Y2146668D01*
X2417203Y2243950D02*
G01*
X2461907Y2212200D01*
X2461907Y2259952D01*
X2417203Y2243950D02*
G01*
X2484005Y2243950D01*
X2207148Y1143363D02*
G01*
X2283602Y1143363D01*
X2207148Y1143363D02*
G01*
X2207148Y1168763D01*
X2210704Y1179685D01*
X2218070Y1187051D01*
X2225182Y1190607D01*
X2236104Y1194163D01*
X2254392Y1194163D01*
X2265314Y1190607D01*
X2272680Y1187051D01*
X2279792Y1179685D01*
X2283602Y1168763D01*
X2283602Y1143363D01*
X2207148Y1261981D02*
G01*
X2207148Y1225405D01*
X2239914Y1221849D01*
X2236104Y1225405D01*
X2232548Y1236327D01*
X2232548Y1247249D01*
X2236104Y1258171D01*
X2243470Y1265537D01*
X2254392Y1269093D01*
X2261758Y1269093D01*
X2272680Y1265537D01*
X2279792Y1258171D01*
X2283602Y1247249D01*
X2283602Y1236327D01*
X2279792Y1225405D01*
X2276236Y1221849D01*
X2268870Y1218293D01*
X2213749Y2080120D02*
G01*
X2280551Y2080120D01*
X2213749Y2080120D02*
G01*
X2213749Y2108822D01*
X2217051Y2118474D01*
X2220099Y2121522D01*
X2226449Y2124824D01*
X2232799Y2124824D01*
X2239149Y2121522D01*
X2242451Y2118474D01*
X2245499Y2108822D01*
X2245499Y2080120D01*
X2245499Y2102472D02*
G01*
X2280551Y2124824D01*
X2213749Y2145652D02*
G01*
X2280551Y2145652D01*
X2213749Y2145652D02*
G01*
X2213749Y2168004D01*
X2217051Y2177656D01*
X2223401Y2184006D01*
X2229751Y2187054D01*
X2239149Y2190356D01*
X2255151Y2190356D01*
X2264803Y2187054D01*
X2271153Y2184006D01*
X2277503Y2177656D01*
X2280551Y2168004D01*
X2280551Y2145652D01*
X2213749Y2249538D02*
G01*
X2213749Y2217788D01*
X2242451Y2214486D01*
X2239149Y2217788D01*
X2236101Y2227186D01*
X2236101Y2236838D01*
X2239149Y2246236D01*
X2245499Y2252586D01*
X2255151Y2255888D01*
X2261501Y2255888D01*
X2271153Y2252586D01*
X2277503Y2246236D01*
X2280551Y2236838D01*
X2280551Y2227186D01*
X2277503Y2217788D01*
X2274201Y2214486D01*
X2267851Y2211184D01*
X2010359Y2079360D02*
G01*
X2077161Y2079360D01*
X2010359Y2079360D02*
G01*
X2010359Y2107808D01*
X2013407Y2117460D01*
X2016709Y2120762D01*
X2023059Y2123810D01*
X2029409Y2123810D01*
X2035759Y2120762D01*
X2039061Y2117460D01*
X2042109Y2107808D01*
X2042109Y2079360D01*
X2042109Y2101458D02*
G01*
X2077161Y2123810D01*
X2010359Y2144892D02*
G01*
X2077161Y2144892D01*
X2010359Y2144892D02*
G01*
X2010359Y2166990D01*
X2013407Y2176642D01*
X2019757Y2182992D01*
X2026107Y2186294D01*
X2035759Y2189342D01*
X2051761Y2189342D01*
X2061159Y2186294D01*
X2067509Y2182992D01*
X2073859Y2176642D01*
X2077161Y2166990D01*
X2077161Y2144892D01*
X2019757Y2248524D02*
G01*
X2013407Y2245476D01*
X2010359Y2235824D01*
X2010359Y2229474D01*
X2013407Y2219822D01*
X2023059Y2213472D01*
X2039061Y2210424D01*
X2054809Y2210424D01*
X2067509Y2213472D01*
X2073859Y2219822D01*
X2077161Y2229474D01*
X2077161Y2232522D01*
X2073859Y2242174D01*
X2067509Y2248524D01*
X2058111Y2251826D01*
X2054809Y2251826D01*
X2045411Y2248524D01*
X2039061Y2242174D01*
X2035759Y2232522D01*
X2035759Y2229474D01*
X2039061Y2219822D01*
X2045411Y2213472D01*
X2054809Y2210424D01*
X2003755Y1142349D02*
G01*
X2079955Y1142349D01*
X2003755Y1142349D02*
G01*
X2003755Y1167749D01*
X2007311Y1178671D01*
X2014677Y1186037D01*
X2021789Y1189593D01*
X2032711Y1193403D01*
X2050999Y1193403D01*
X2061921Y1189593D01*
X2069033Y1186037D01*
X2076399Y1178671D01*
X2079955Y1167749D01*
X2079955Y1142349D01*
X2014677Y1260967D02*
G01*
X2007311Y1257411D01*
X2003755Y1246489D01*
X2003755Y1239123D01*
X2007311Y1228201D01*
X2018233Y1220835D01*
X2036267Y1217279D01*
X2054555Y1217279D01*
X2069033Y1220835D01*
X2076399Y1228201D01*
X2079955Y1239123D01*
X2079955Y1242679D01*
X2076399Y1253601D01*
X2069033Y1260967D01*
X2058111Y1264523D01*
X2054555Y1264523D01*
X2043633Y1260967D01*
X2036267Y1253601D01*
X2032711Y1242679D01*
X2032711Y1239123D01*
X2036267Y1228201D01*
X2043633Y1220835D01*
X2054555Y1217279D01*
X1800097Y1141430D02*
G01*
X1876552Y1141430D01*
X1800097Y1141430D02*
G01*
X1800097Y1166830D01*
X1803908Y1177752D01*
X1811020Y1185118D01*
X1818386Y1188674D01*
X1829308Y1192484D01*
X1847341Y1192484D01*
X1858263Y1188674D01*
X1865629Y1185118D01*
X1872995Y1177752D01*
X1876552Y1166830D01*
X1876552Y1141430D01*
X1800097Y1267160D02*
G01*
X1876552Y1230838D01*
X1800097Y1216360D02*
G01*
X1800097Y1267160D01*
X1806702Y2078441D02*
G01*
X1873758Y2078441D01*
X1806702Y2078441D02*
G01*
X1806702Y2106889D01*
X1810004Y2116541D01*
X1813306Y2119589D01*
X1819656Y2122891D01*
X1826006Y2122891D01*
X1832356Y2119589D01*
X1835404Y2116541D01*
X1838706Y2106889D01*
X1838706Y2078441D01*
X1838706Y2100539D02*
G01*
X1873758Y2122891D01*
X1806702Y2143973D02*
G01*
X1873758Y2143973D01*
X1806702Y2143973D02*
G01*
X1806702Y2166071D01*
X1810004Y2175723D01*
X1816354Y2182073D01*
X1822704Y2185121D01*
X1832356Y2188423D01*
X1848104Y2188423D01*
X1857756Y2185121D01*
X1864106Y2182073D01*
X1870456Y2175723D01*
X1873758Y2166071D01*
X1873758Y2143973D01*
X1806702Y2253955D02*
G01*
X1873758Y2222205D01*
X1806702Y2209505D02*
G01*
X1806702Y2253955D01*
X1596694Y1140510D02*
G01*
X1673148Y1140510D01*
X1596694Y1140510D02*
G01*
X1596694Y1165910D01*
X1600250Y1176832D01*
X1607616Y1184198D01*
X1614982Y1187754D01*
X1625904Y1191310D01*
X1643938Y1191310D01*
X1654860Y1187754D01*
X1662226Y1184198D01*
X1669338Y1176832D01*
X1673148Y1165910D01*
X1673148Y1140510D01*
X1596694Y1233474D02*
G01*
X1600250Y1222806D01*
X1607616Y1218996D01*
X1614982Y1218996D01*
X1622094Y1222806D01*
X1625904Y1229918D01*
X1629460Y1244396D01*
X1633016Y1255318D01*
X1640382Y1262684D01*
X1647494Y1266240D01*
X1658416Y1266240D01*
X1665782Y1262684D01*
X1669338Y1259128D01*
X1673148Y1248206D01*
X1673148Y1233474D01*
X1669338Y1222806D01*
X1665782Y1218996D01*
X1658416Y1215440D01*
X1647494Y1215440D01*
X1640382Y1218996D01*
X1633016Y1226362D01*
X1629460Y1237284D01*
X1625904Y1251762D01*
X1622094Y1259128D01*
X1614982Y1262684D01*
X1607616Y1262684D01*
X1600250Y1259128D01*
X1596694Y1248206D01*
X1596694Y1233474D01*
X1603298Y2077267D02*
G01*
X1670100Y2077267D01*
X1603298Y2077267D02*
G01*
X1603298Y2105969D01*
X1606600Y2115621D01*
X1609648Y2118669D01*
X1615998Y2121971D01*
X1622348Y2121971D01*
X1628698Y2118669D01*
X1632000Y2115621D01*
X1635048Y2105969D01*
X1635048Y2077267D01*
X1635048Y2099619D02*
G01*
X1670100Y2121971D01*
X1603298Y2143053D02*
G01*
X1670100Y2143053D01*
X1603298Y2143053D02*
G01*
X1603298Y2165151D01*
X1606600Y2174803D01*
X1612950Y2181153D01*
X1619300Y2184201D01*
X1628698Y2187503D01*
X1644700Y2187503D01*
X1654352Y2184201D01*
X1660702Y2181153D01*
X1667052Y2174803D01*
X1670100Y2165151D01*
X1670100Y2143053D01*
X1603298Y2224333D02*
G01*
X1606600Y2214935D01*
X1612950Y2211633D01*
X1619300Y2211633D01*
X1625650Y2214935D01*
X1628698Y2221285D01*
X1632000Y2233985D01*
X1635048Y2243383D01*
X1641652Y2249733D01*
X1648002Y2253035D01*
X1657400Y2253035D01*
X1663750Y2249733D01*
X1667052Y2246685D01*
X1670100Y2237033D01*
X1670100Y2224333D01*
X1667052Y2214935D01*
X1663750Y2211633D01*
X1657400Y2208585D01*
X1648002Y2208585D01*
X1641652Y2211633D01*
X1635048Y2217983D01*
X1632000Y2227635D01*
X1628698Y2240335D01*
X1625650Y2246685D01*
X1619300Y2249733D01*
X1612950Y2249733D01*
X1606600Y2246685D01*
X1603298Y2237033D01*
X1603298Y2224333D01*
G36*
X4068419Y1214424D02*
G01*
X4055668Y1200404D01*
X4043527Y1185926D01*
X4032046Y1170889D01*
X4021226Y1155344D01*
X4011117Y1139393D01*
X4001668Y1122984D01*
X3992981Y1106170D01*
X3985006Y1089050D01*
X3977792Y1071575D01*
X3971340Y1053795D01*
X3965651Y1035710D01*
X3960774Y1017473D01*
X3956710Y998982D01*
X3953408Y980338D01*
X3950970Y961593D01*
X3949344Y942746D01*
X3948480Y923848D01*
X3948480Y904951D01*
X3949344Y886053D01*
X3950970Y867206D01*
X3953408Y848461D01*
X3956710Y829818D01*
X3960774Y811326D01*
X3965651Y793089D01*
X3971340Y775004D01*
X3977792Y757224D01*
X3985006Y739749D01*
X3992981Y722630D01*
X4001668Y705815D01*
X4011117Y689406D01*
X4021226Y673455D01*
X4032046Y657910D01*
X4043527Y642874D01*
X4055668Y628396D01*
X4068419Y614375D01*
G37*
G36*
X3230219Y1214424D02*
G01*
X3217468Y1200404D01*
X3205327Y1185926D01*
X3193846Y1170889D01*
X3183026Y1155344D01*
X3172917Y1139393D01*
X3163468Y1122984D01*
X3154781Y1106170D01*
X3146806Y1089050D01*
X3139592Y1071575D01*
X3133140Y1053795D01*
X3127451Y1035710D01*
X3122574Y1017473D01*
X3118510Y998982D01*
X3115208Y980338D01*
X3112770Y961593D01*
X3111144Y942746D01*
X3110280Y923848D01*
X3110280Y904951D01*
X3111144Y886053D01*
X3112770Y867206D01*
X3115208Y848461D01*
X3118510Y829818D01*
X3122574Y811326D01*
X3127451Y793089D01*
X3133140Y775004D01*
X3139592Y757224D01*
X3146806Y739749D01*
X3154781Y722630D01*
X3163468Y705815D01*
X3172917Y689406D01*
X3183026Y673455D01*
X3193846Y657910D01*
X3205327Y642874D01*
X3217468Y628396D01*
X3230219Y614375D01*
G37*
G36*
X2811119Y1938324D02*
G01*
X2798368Y1924304D01*
X2786227Y1909825D01*
X2774746Y1894789D01*
X2763926Y1879244D01*
X2753817Y1863293D01*
X2744368Y1846884D01*
X2735681Y1830070D01*
X2727706Y1812950D01*
X2720492Y1795475D01*
X2714040Y1777695D01*
X2708351Y1759610D01*
X2703474Y1741373D01*
X2699410Y1722882D01*
X2696108Y1704238D01*
X2693670Y1685493D01*
X2692044Y1666646D01*
X2691180Y1647748D01*
X2691180Y1628851D01*
X2692044Y1609953D01*
X2693670Y1591106D01*
X2696108Y1572361D01*
X2699410Y1553718D01*
X2703474Y1535226D01*
X2708351Y1516989D01*
X2714040Y1498904D01*
X2720492Y1481124D01*
X2727706Y1463649D01*
X2735681Y1446530D01*
X2744368Y1429715D01*
X2753817Y1413306D01*
X2763926Y1397355D01*
X2774746Y1381810D01*
X2786227Y1366774D01*
X2798368Y1352296D01*
X2811119Y1338275D01*
G37*
G36*
X3649319Y1938324D02*
G01*
X3636568Y1924304D01*
X3624427Y1909825D01*
X3612946Y1894789D01*
X3602126Y1879244D01*
X3592017Y1863293D01*
X3582568Y1846884D01*
X3573881Y1830070D01*
X3565906Y1812950D01*
X3558692Y1795475D01*
X3552240Y1777695D01*
X3546551Y1759610D01*
X3541674Y1741373D01*
X3537610Y1722882D01*
X3534308Y1704238D01*
X3531870Y1685493D01*
X3530244Y1666646D01*
X3529380Y1647748D01*
X3529380Y1628851D01*
X3530244Y1609953D01*
X3531870Y1591106D01*
X3534308Y1572361D01*
X3537610Y1553718D01*
X3541674Y1535226D01*
X3546551Y1516989D01*
X3552240Y1498904D01*
X3558692Y1481124D01*
X3565906Y1463649D01*
X3573881Y1446530D01*
X3582568Y1429715D01*
X3592017Y1413306D01*
X3602126Y1397355D01*
X3612946Y1381810D01*
X3624427Y1366774D01*
X3636568Y1352296D01*
X3649319Y1338275D01*
G37*
G36*
X2882595Y2603246D02*
G01*
X2882595Y2498242D01*
X2913126Y2498242D01*
X2913126Y2603246D01*
G37*
G36*
X2882595Y2327757D02*
G01*
X2882595Y2222754D01*
X2913126Y2222754D01*
X2913126Y2327757D01*
G37*
D10*
X5016586Y-766968D02*
G01*
X6136591Y-766968D01*
D16*
X3213100Y3568700D02*
G01*
X3213100Y3721100D01*
X3289300Y3644900D01*
X3289300Y3644900D02*
G01*
X3213100Y3568700D01*
D10*
X6326583Y-766968D02*
G01*
X7046490Y-766968D01*
D56*
X7755440Y1506667D02*
G01*
X8021159Y1506667D01*
X8021159Y900948D01*
X7755440Y900948D01*
X7755440Y1506667D01*
D23*
X5435600Y1130300D02*
G01*
X5549900Y1130300D01*
X5549900Y1308100D01*
X5435600Y1308100D01*
X5359400Y1130300D02*
G01*
X5232400Y1130300D01*
X5232400Y1308100D01*
X5359400Y1308100D01*
D56*
X5183850Y2136744D02*
G01*
X5183850Y2285243D01*
X4965329Y2285243D02*
G01*
X4965329Y2136744D01*
X4980569Y2121504D02*
G01*
X5168610Y2121504D01*
X5183850Y2618983D02*
G01*
X5183850Y2470485D01*
X4965329Y2470485D02*
G01*
X4965329Y2618983D01*
X4980569Y2634223D02*
G01*
X5168610Y2634223D01*
D23*
X7139000Y3938803D02*
G01*
X7139000Y3824503D01*
X6961200Y3824503D01*
X6961200Y3938803D01*
X7139000Y4015003D02*
G01*
X7139000Y4142003D01*
X6961200Y4142003D01*
X6961200Y4015003D01*
X5691200Y560603D02*
G01*
X5691200Y433603D01*
X5869000Y433603D01*
X5869000Y560603D01*
X5691200Y636803D02*
G01*
X5691200Y751103D01*
X5869000Y751103D01*
X5869000Y636803D01*
X5361000Y1360703D02*
G01*
X5234000Y1360703D01*
X5234000Y1538503D01*
X5361000Y1538503D01*
X5437200Y1360703D02*
G01*
X5551500Y1360703D01*
X5551500Y1538503D01*
X5437200Y1538503D01*
D25*
X6241338Y1250624D02*
G01*
X6320701Y1171265D01*
D11*
X6241338Y1250624D02*
G01*
X6241338Y1841825D01*
X6916978Y1841825D01*
X6916978Y1171265D01*
X6320701Y1171265D01*
D23*
X7316800Y789203D02*
G01*
X7189800Y789203D01*
X7189800Y967003D01*
X7316800Y967003D01*
X7393000Y789203D02*
G01*
X7507300Y789203D01*
X7507300Y967003D01*
X7393000Y967003D01*
X5919800Y560603D02*
G01*
X5919800Y433603D01*
X6097600Y433603D01*
X6097600Y560603D01*
X5919800Y636803D02*
G01*
X5919800Y751103D01*
X6097600Y751103D01*
X6097600Y636803D01*
X5818200Y1805203D02*
G01*
X5691200Y1805203D01*
X5691200Y1983003D01*
X5818200Y1983003D01*
X5894400Y1805203D02*
G01*
X6008700Y1805203D01*
X6008700Y1983003D01*
X5894400Y1983003D01*
X7380300Y1259103D02*
G01*
X7507300Y1259103D01*
X7507300Y1436903D01*
X7380300Y1436903D01*
X7304100Y1259103D02*
G01*
X7189800Y1259103D01*
X7189800Y1436903D01*
X7304100Y1436903D01*
X7304100Y1005103D02*
G01*
X7189800Y1005103D01*
X7189800Y1182903D01*
X7304100Y1182903D01*
X7380300Y1005103D02*
G01*
X7507300Y1005103D01*
X7507300Y1182903D01*
X7380300Y1182903D01*
X6377000Y636803D02*
G01*
X6377000Y751103D01*
X6199200Y751103D01*
X6199200Y636803D01*
X6377000Y560603D02*
G01*
X6377000Y433603D01*
X6199200Y433603D01*
X6199200Y560603D01*
X7304100Y1881403D02*
G01*
X7189800Y1881403D01*
X7189800Y2059203D01*
X7304100Y2059203D01*
X7380300Y1881403D02*
G01*
X7507300Y1881403D01*
X7507300Y2059203D01*
X7380300Y2059203D01*
X6186500Y2084603D02*
G01*
X6059500Y2084603D01*
X6059500Y2262403D01*
X6186500Y2262403D01*
X6262700Y2084603D02*
G01*
X6377000Y2084603D01*
X6377000Y2262403D01*
X6262700Y2262403D01*
X6646240Y624103D02*
G01*
X6646240Y751103D01*
X6824040Y751103D01*
X6824040Y624103D01*
X6646240Y547903D02*
G01*
X6646240Y433603D01*
X6824040Y433603D01*
X6824040Y547903D01*
X6996760Y547903D02*
G01*
X6996760Y433603D01*
X6818960Y433603D01*
X6818960Y547903D01*
X6996760Y624103D02*
G01*
X6996760Y751103D01*
X6818960Y751103D01*
X6818960Y624103D01*
X8282000Y2491003D02*
G01*
X8282000Y2376703D01*
X8104200Y2376703D01*
X8104200Y2491003D01*
X8282000Y2567203D02*
G01*
X8282000Y2694203D01*
X8104200Y2694203D01*
X8104200Y2567203D01*
D11*
X8028000Y2605303D02*
G01*
X8028000Y2668803D01*
X7520000Y2668803D01*
X7520000Y2414803D01*
X8028000Y2414803D01*
X8028000Y2478303D01*
D23*
X5335600Y840003D02*
G01*
X5145100Y840003D01*
X5145100Y1068603D01*
X5335600Y1068603D01*
X5437200Y840003D02*
G01*
X5627700Y840003D01*
X5627700Y1068603D01*
X5437200Y1068603D01*
X6529400Y3316503D02*
G01*
X6529400Y3189503D01*
X6707200Y3189503D01*
X6707200Y3316503D01*
X6529400Y3392703D02*
G01*
X6529400Y3507003D01*
X6707200Y3507003D01*
X6707200Y3392703D01*
X6313500Y3951503D02*
G01*
X6313500Y3824503D01*
X6491300Y3824503D01*
X6491300Y3951503D01*
X6313500Y4027703D02*
G01*
X6313500Y4142003D01*
X6491300Y4142003D01*
X6491300Y4027703D01*
X6745300Y3316503D02*
G01*
X6745300Y3189503D01*
X6923100Y3189503D01*
X6923100Y3316503D01*
X6745300Y3392703D02*
G01*
X6745300Y3507003D01*
X6923100Y3507003D01*
X6923100Y3392703D01*
X6313500Y3380003D02*
G01*
X6313500Y3507003D01*
X6491300Y3507003D01*
X6491300Y3380003D01*
X6313500Y3303803D02*
G01*
X6313500Y3189503D01*
X6491300Y3189503D01*
X6491300Y3303803D01*
D22*
X6244402Y3748303D02*
G01*
X6244402Y3900703D01*
X6244153Y3469149D02*
G01*
X6244153Y3619279D01*
X5334386Y3468903D02*
G01*
X5334386Y3900703D01*
X5335600Y3900703D02*
G01*
X6244402Y3900703D01*
X5335600Y3468903D02*
G01*
X6244402Y3468903D01*
D23*
X6707200Y4027703D02*
G01*
X6707200Y4142003D01*
X6529400Y4142003D01*
X6529400Y4027703D01*
X6707200Y3951503D02*
G01*
X6707200Y3824503D01*
X6529400Y3824503D01*
X6529400Y3951503D01*
X8282000Y992403D02*
G01*
X8282000Y878103D01*
X8104200Y878103D01*
X8104200Y992403D01*
X8282000Y1068603D02*
G01*
X8282000Y1195603D01*
X8104200Y1195603D01*
X8104200Y1068603D01*
X8282000Y1449603D02*
G01*
X8282000Y1563903D01*
X8104200Y1563903D01*
X8104200Y1449603D01*
X8282000Y1373403D02*
G01*
X8282000Y1246403D01*
X8104200Y1246403D01*
X8104200Y1373403D01*
X6923100Y3938803D02*
G01*
X6923100Y3824503D01*
X6745300Y3824503D01*
X6745300Y3938803D01*
X6923100Y4015003D02*
G01*
X6923100Y4142003D01*
X6745300Y4142003D01*
X6745300Y4015003D01*
D56*
X4274060Y2031382D02*
G01*
X4274060Y2696624D01*
X4568339Y2696624D01*
X4568339Y2031382D01*
X4274060Y2031382D01*
D22*
X6446520Y4638039D02*
G01*
X6446520Y5628386D01*
X6078220Y5628386D01*
X6078220Y4633213D01*
X6078220Y4633213D02*
G01*
X6202667Y4633213D01*
X6319520Y4635500D02*
G01*
X6446520Y4635500D01*
D56*
X7216919Y4840160D02*
G01*
X7075919Y4840160D01*
X7075919Y4659439D02*
G01*
X7216919Y4659439D01*
X7232159Y4674679D02*
G01*
X7232159Y4824920D01*
X6854680Y4840160D02*
G01*
X6995680Y4840160D01*
X6995680Y4659439D02*
G01*
X6854680Y4659439D01*
X6839440Y4674679D02*
G01*
X6839440Y4824920D01*
X6854680Y4875336D02*
G01*
X6995680Y4875336D01*
X6995680Y5056057D02*
G01*
X6854680Y5056057D01*
X6839440Y5040817D02*
G01*
X6839440Y4890576D01*
X7216919Y4875336D02*
G01*
X7075919Y4875336D01*
X7075919Y5056057D02*
G01*
X7216919Y5056057D01*
X7232159Y5040817D02*
G01*
X7232159Y4890576D01*
X6854680Y5091234D02*
G01*
X6995680Y5091234D01*
X6995680Y5271955D02*
G01*
X6854680Y5271955D01*
X6839440Y5256715D02*
G01*
X6839440Y5106474D01*
X7216919Y5091234D02*
G01*
X7075919Y5091234D01*
X7075919Y5271955D02*
G01*
X7216919Y5271955D01*
X7232159Y5256715D02*
G01*
X7232159Y5106474D01*
X6854680Y5307139D02*
G01*
X6995680Y5307139D01*
X6995680Y5487860D02*
G01*
X6854680Y5487860D01*
X6839440Y5472620D02*
G01*
X6839440Y5322379D01*
X7216919Y5307139D02*
G01*
X7075919Y5307139D01*
X7075919Y5487860D02*
G01*
X7216919Y5487860D01*
X7232159Y5472620D02*
G01*
X7232159Y5322379D01*
D57*
X5052695Y4605756D02*
G01*
X5047538Y4605756D01*
X4935194Y4605756D01*
X4935194Y4765776D01*
X5052695Y4765776D01*
X5132704Y4605756D02*
G01*
X5248605Y4605756D01*
X5248605Y4765776D01*
X5132704Y4765776D01*
X4902200Y4742179D02*
G01*
X4902200Y4625339D01*
X5445277Y4606010D02*
G01*
X5443702Y4606010D01*
X5317464Y4606010D01*
X5317464Y4766030D01*
X5445277Y4766030D01*
X5505475Y4606010D02*
G01*
X5630875Y4606010D01*
X5630875Y4766030D01*
X5505475Y4766030D01*
X5443217Y4818199D02*
G01*
X5441642Y4818199D01*
X5315404Y4818199D01*
X5315404Y4978219D01*
X5443217Y4978219D01*
X5503415Y4818199D02*
G01*
X5628815Y4818199D01*
X5628815Y4978219D01*
X5503415Y4978219D01*
X5130647Y4979035D02*
G01*
X5135803Y4979035D01*
X5248147Y4979035D01*
X5248147Y4819014D01*
X5130647Y4819014D01*
X5050637Y4979035D02*
G01*
X4934737Y4979035D01*
X4934737Y4819014D01*
X5050637Y4819014D01*
X5281142Y4842611D02*
G01*
X5281142Y4959451D01*
X5441160Y5030391D02*
G01*
X5439585Y5030391D01*
X5313347Y5030391D01*
X5313347Y5190411D01*
X5441160Y5190411D01*
X5501358Y5030391D02*
G01*
X5626757Y5030391D01*
X5626757Y5190411D01*
X5501358Y5190411D01*
X5128590Y5191226D02*
G01*
X5133746Y5191226D01*
X5246090Y5191226D01*
X5246090Y5031206D01*
X5128590Y5031206D01*
X5048580Y5191226D02*
G01*
X4932679Y5191226D01*
X4932679Y5031206D01*
X5048580Y5031206D01*
X5279085Y5054803D02*
G01*
X5279085Y5171643D01*
X5439102Y5242582D02*
G01*
X5437527Y5242582D01*
X5311289Y5242582D01*
X5311289Y5402602D01*
X5439102Y5402602D01*
X5499300Y5242582D02*
G01*
X5624700Y5242582D01*
X5624700Y5402602D01*
X5499300Y5402602D01*
X5437045Y5454774D02*
G01*
X5435470Y5454774D01*
X5309232Y5454774D01*
X5309232Y5614794D01*
X5437045Y5614794D01*
X5497243Y5454774D02*
G01*
X5622643Y5454774D01*
X5622643Y5614794D01*
X5497243Y5614794D01*
D56*
X4285160Y2753479D02*
G01*
X4285160Y3418720D01*
X4579439Y3418720D01*
X4579439Y2753479D01*
X4285160Y2753479D01*
X4100349Y5442630D02*
G01*
X4100349Y5591129D01*
X3881828Y5591129D02*
G01*
X3881828Y5442630D01*
X3897068Y5427390D02*
G01*
X4085109Y5427390D01*
X4100349Y5924870D02*
G01*
X4100349Y5776371D01*
X3881828Y5776371D02*
G01*
X3881828Y5924870D01*
X3897068Y5940110D02*
G01*
X4085109Y5940110D01*
X3849979Y5442630D02*
G01*
X3849979Y5591129D01*
X3631458Y5591129D02*
G01*
X3631458Y5442630D01*
X3646698Y5427390D02*
G01*
X3834739Y5427390D01*
X3849979Y5924870D02*
G01*
X3849979Y5776371D01*
X3631458Y5776371D02*
G01*
X3631458Y5924870D01*
X3646698Y5940110D02*
G01*
X3834739Y5940110D01*
X3601760Y5442630D02*
G01*
X3601760Y5591129D01*
X3383239Y5591129D02*
G01*
X3383239Y5442630D01*
X3398479Y5427390D02*
G01*
X3586520Y5427390D01*
X3601760Y5924870D02*
G01*
X3601760Y5776371D01*
X3383239Y5776371D02*
G01*
X3383239Y5924870D01*
X3398479Y5940110D02*
G01*
X3586520Y5940110D01*
X7480480Y3954739D02*
G01*
X7628978Y3954739D01*
X7628978Y4173260D02*
G01*
X7480480Y4173260D01*
X7465240Y4158020D02*
G01*
X7465240Y3969979D01*
X7962719Y3954739D02*
G01*
X7814221Y3954739D01*
X7814221Y4173260D02*
G01*
X7962719Y4173260D01*
X7977959Y4158020D02*
G01*
X7977959Y3969979D01*
X7480480Y3700739D02*
G01*
X7628978Y3700739D01*
X7628978Y3919260D02*
G01*
X7480480Y3919260D01*
X7465240Y3904020D02*
G01*
X7465240Y3715979D01*
X7962719Y3700739D02*
G01*
X7814221Y3700739D01*
X7814221Y3919260D02*
G01*
X7962719Y3919260D01*
X7977959Y3904020D02*
G01*
X7977959Y3715979D01*
D22*
X4625629Y821710D02*
G01*
X4625629Y687090D01*
X4563399Y754400D02*
G01*
X4687859Y754400D01*
X3787429Y821710D02*
G01*
X3787429Y687090D01*
X3725199Y754400D02*
G01*
X3849659Y754400D01*
X3368329Y1545610D02*
G01*
X3368329Y1410990D01*
X3306099Y1478300D02*
G01*
X3430559Y1478300D01*
X4206529Y1545610D02*
G01*
X4206529Y1410990D01*
X4144299Y1478300D02*
G01*
X4268759Y1478300D01*
D56*
X3346457Y4438743D02*
G01*
X3487458Y4438743D01*
X3487458Y4619464D02*
G01*
X3346457Y4619464D01*
X3331217Y4604224D02*
G01*
X3331217Y4453983D01*
X3708697Y4438743D02*
G01*
X3567696Y4438743D01*
X3567696Y4619464D02*
G01*
X3708697Y4619464D01*
X3723937Y4604224D02*
G01*
X3723937Y4453983D01*
D22*
X2114473Y4515154D02*
G01*
X2704465Y4515154D01*
X2704465Y5105145D01*
X2114473Y5105145D01*
X2114473Y4515154D01*
D56*
X3266737Y4673914D02*
G01*
X3001017Y4673914D01*
X3001017Y5279633D01*
X3266737Y5279633D01*
X3266737Y4673914D01*
X3346457Y4921343D02*
G01*
X3487458Y4921343D01*
X3487458Y5102064D02*
G01*
X3346457Y5102064D01*
X3331217Y5086824D02*
G01*
X3331217Y4936583D01*
X3708697Y4921343D02*
G01*
X3567696Y4921343D01*
X3567696Y5102064D02*
G01*
X3708697Y5102064D01*
X3723937Y5086824D02*
G01*
X3723937Y4936583D01*
X3346457Y4680043D02*
G01*
X3487458Y4680043D01*
X3487458Y4860764D02*
G01*
X3346457Y4860764D01*
X3331217Y4845524D02*
G01*
X3331217Y4695283D01*
X3708697Y4680043D02*
G01*
X3567696Y4680043D01*
X3567696Y4860764D02*
G01*
X3708697Y4860764D01*
X3723937Y4845524D02*
G01*
X3723937Y4695283D01*
X3346457Y5162643D02*
G01*
X3487458Y5162643D01*
X3487458Y5343364D02*
G01*
X3346457Y5343364D01*
X3331217Y5328124D02*
G01*
X3331217Y5177883D01*
X3708697Y5162643D02*
G01*
X3567696Y5162643D01*
X3567696Y5343364D02*
G01*
X3708697Y5343364D01*
X3723937Y5328124D02*
G01*
X3723937Y5177883D01*
D22*
X3718699Y2945693D02*
G01*
X3441700Y2945693D01*
X3441700Y3200400D01*
X3718699Y3200400D02*
G01*
X878700Y3200400D01*
X3718699Y2692400D02*
G01*
X3718699Y3200400D01*
X878700Y2692400D02*
G01*
X878700Y3200400D01*
X3718699Y2692400D02*
G01*
X878700Y2692400D01*
X4114800Y4076700D02*
G01*
X4114800Y3568700D01*
X3352800Y3568700D01*
X3352800Y4076700D01*
X4114800Y4076700D01*
D56*
X4439960Y3574740D02*
G01*
X4439960Y3723238D01*
X4221439Y3723238D02*
G01*
X4221439Y3574740D01*
X4236679Y3559500D02*
G01*
X4424720Y3559500D01*
X4439960Y4056979D02*
G01*
X4439960Y3908480D01*
X4221439Y3908480D02*
G01*
X4221439Y4056979D01*
X4236679Y4072219D02*
G01*
X4424720Y4072219D01*
X3581572Y4196090D02*
G01*
X3710066Y4196090D01*
X3710066Y4379508D01*
X3581572Y4379508D01*
X3486332Y4196090D02*
G01*
X3357839Y4196090D01*
X3357839Y4379508D01*
X3486332Y4379508D01*
X2905480Y2595620D02*
G01*
X3520719Y2595620D01*
X3520719Y2595620D02*
G01*
X3520719Y2503319D01*
X2905480Y2230379D02*
G01*
X3520719Y2230379D01*
X3520719Y2230379D02*
G01*
X3520719Y2322680D01*
X2953420Y2595620D02*
G01*
X2953420Y2230379D01*
D57*
X1515112Y1837535D02*
G01*
X1515112Y1835960D01*
X1515112Y1709722D01*
X1355092Y1709722D01*
X1355092Y1837535D01*
X1515112Y1897733D02*
G01*
X1515112Y2023132D01*
X1355092Y2023132D01*
X1355092Y1897733D01*
X1515643Y1471295D02*
G01*
X1515643Y1466138D01*
X1515643Y1353794D01*
X1355623Y1353794D01*
X1355623Y1471295D01*
X1515643Y1551304D02*
G01*
X1515643Y1667205D01*
X1355623Y1667205D01*
X1355623Y1551304D01*
X1379220Y1320800D02*
G01*
X1496059Y1320800D01*
X1311635Y1836592D02*
G01*
X1311635Y1835017D01*
X1311635Y1708779D01*
X1151615Y1708779D01*
X1151615Y1836592D01*
X1311635Y1896790D02*
G01*
X1311635Y2022190D01*
X1151615Y2022190D01*
X1151615Y1896790D01*
X1312166Y1470352D02*
G01*
X1312166Y1465196D01*
X1312166Y1352852D01*
X1152146Y1352852D01*
X1152146Y1470352D01*
X1312166Y1550362D02*
G01*
X1312166Y1666262D01*
X1152146Y1666262D01*
X1152146Y1550362D01*
X1175743Y1319857D02*
G01*
X1292583Y1319857D01*
X1108689Y1469410D02*
G01*
X1108689Y1464254D01*
X1108689Y1351909D01*
X948669Y1351909D01*
X948669Y1469410D01*
X1108689Y1549420D02*
G01*
X1108689Y1665320D01*
X948669Y1665320D01*
X948669Y1549420D01*
X972266Y1318915D02*
G01*
X1089106Y1318915D01*
X1108158Y1835650D02*
G01*
X1108158Y1834075D01*
X1108158Y1707837D01*
X948138Y1707837D01*
X948138Y1835650D01*
X1108158Y1895848D02*
G01*
X1108158Y2021248D01*
X948138Y2021248D01*
X948138Y1895848D01*
X2533027Y1476006D02*
G01*
X2533027Y1470850D01*
X2533027Y1358506D01*
X2373007Y1358506D01*
X2373007Y1476006D01*
X2533027Y1556016D02*
G01*
X2533027Y1671916D01*
X2373007Y1671916D01*
X2373007Y1556016D01*
X2396604Y1325511D02*
G01*
X2513444Y1325511D01*
X2532496Y1842246D02*
G01*
X2532496Y1840671D01*
X2532496Y1714433D01*
X2372476Y1714433D01*
X2372476Y1842246D01*
X2532496Y1902444D02*
G01*
X2532496Y2027844D01*
X2372476Y2027844D01*
X2372476Y1902444D01*
X2329550Y1475064D02*
G01*
X2329550Y1469908D01*
X2329550Y1357563D01*
X2169530Y1357563D01*
X2169530Y1475064D01*
X2329550Y1555074D02*
G01*
X2329550Y1670974D01*
X2169530Y1670974D01*
X2169530Y1555074D01*
X2193127Y1324569D02*
G01*
X2309967Y1324569D01*
X2329019Y1841304D02*
G01*
X2329019Y1839729D01*
X2329019Y1713491D01*
X2168999Y1713491D01*
X2168999Y1841304D01*
X2329019Y1901502D02*
G01*
X2329019Y2026902D01*
X2168999Y2026902D01*
X2168999Y1901502D01*
X2125543Y1840362D02*
G01*
X2125543Y1838787D01*
X2125543Y1712549D01*
X1965523Y1712549D01*
X1965523Y1840362D01*
X2125543Y1900560D02*
G01*
X2125543Y2025959D01*
X1965523Y2025959D01*
X1965523Y1900560D01*
X2126073Y1474122D02*
G01*
X2126073Y1468965D01*
X2126073Y1356621D01*
X1966053Y1356621D01*
X1966053Y1474122D01*
X2126073Y1554132D02*
G01*
X2126073Y1670032D01*
X1966053Y1670032D01*
X1966053Y1554132D01*
X1989650Y1323627D02*
G01*
X2106490Y1323627D01*
X1922597Y1473179D02*
G01*
X1922597Y1468023D01*
X1922597Y1355679D01*
X1762577Y1355679D01*
X1762577Y1473179D01*
X1922597Y1553189D02*
G01*
X1922597Y1669089D01*
X1762577Y1669089D01*
X1762577Y1553189D01*
X1786173Y1322684D02*
G01*
X1903013Y1322684D01*
X1922066Y1839419D02*
G01*
X1922066Y1837844D01*
X1922066Y1711606D01*
X1762046Y1711606D01*
X1762046Y1839419D01*
X1922066Y1899617D02*
G01*
X1922066Y2025017D01*
X1762046Y2025017D01*
X1762046Y1899617D01*
X1719120Y1472237D02*
G01*
X1719120Y1467081D01*
X1719120Y1354736D01*
X1559100Y1354736D01*
X1559100Y1472237D01*
X1719120Y1552247D02*
G01*
X1719120Y1668147D01*
X1559100Y1668147D01*
X1559100Y1552247D01*
X1582696Y1321742D02*
G01*
X1699536Y1321742D01*
X1718589Y1838477D02*
G01*
X1718589Y1836902D01*
X1718589Y1710664D01*
X1558569Y1710664D01*
X1558569Y1838477D01*
X1718589Y1898675D02*
G01*
X1718589Y2024075D01*
X1558569Y2024075D01*
X1558569Y1898675D01*
D56*
G75*
G01*
X4965329Y2136745D02*
G03*
X4980569Y2121505I15240J0D01*
G75*
G01*
X5168610Y2121505D02*
G03*
X5183850Y2136745I0J15240D01*
G75*
G01*
X4965329Y2618984D02*
G02*
X4980569Y2634224I15240J0D01*
G75*
G01*
X5168610Y2634224D02*
G02*
X5183850Y2618984I0J-15240D01*
D22*
G75*
G01*
X6394801Y1284503D02*
G03*
X6394798Y1284092I-38100J30D01*
D11*
G75*
G01*
X8028000Y2605303D02*
G03*
X8028000Y2478303I0J-63500D01*
D58*
G75*
G01*
X6244402Y3748303D02*
G03*
X6244153Y3619279I-1003J-64510D01*
D22*
G75*
G01*
X6319520Y4635500D02*
G03*
X6202667Y4635792I-58420J2548D01*
D56*
G75*
G01*
X7216920Y4659440D02*
G03*
X7232160Y4674680I0J15240D01*
G75*
G01*
X7232160Y4824920D02*
G03*
X7216920Y4840160I-15240J0D01*
G75*
G01*
X6854680Y4659440D02*
G02*
X6839440Y4674680I0J15240D01*
G75*
G01*
X6839440Y4824920D02*
G02*
X6854680Y4840160I15240J0D01*
G75*
G01*
X6854680Y5056058D02*
G03*
X6839440Y5040818I0J-15240D01*
G75*
G01*
X6839440Y4890577D02*
G03*
X6854680Y4875337I15240J0D01*
G75*
G01*
X7216920Y5056058D02*
G02*
X7232160Y5040818I0J-15240D01*
G75*
G01*
X7232160Y4890577D02*
G02*
X7216920Y4875337I-15240J0D01*
G75*
G01*
X6854680Y5271955D02*
G03*
X6839440Y5256715I0J-15240D01*
G75*
G01*
X6839440Y5106474D02*
G03*
X6854680Y5091234I15240J0D01*
G75*
G01*
X7216920Y5271955D02*
G02*
X7232160Y5256715I0J-15240D01*
G75*
G01*
X7232160Y5106474D02*
G02*
X7216920Y5091234I-15240J0D01*
G75*
G01*
X6854680Y5487860D02*
G03*
X6839440Y5472620I0J-15240D01*
G75*
G01*
X6839440Y5322380D02*
G03*
X6854680Y5307140I15240J0D01*
G75*
G01*
X7216920Y5487860D02*
G02*
X7232160Y5472620I0J-15240D01*
G75*
G01*
X7232160Y5322380D02*
G02*
X7216920Y5307140I-15240J0D01*
G75*
G01*
X4085110Y5940110D02*
G02*
X4100350Y5924870I0J-15240D01*
G75*
G01*
X3881829Y5442631D02*
G03*
X3897069Y5427391I15240J0D01*
G75*
G01*
X4085110Y5427391D02*
G03*
X4100350Y5442631I0J15240D01*
G75*
G01*
X3881829Y5924870D02*
G02*
X3897069Y5940110I15240J0D01*
G75*
G01*
X3834740Y5940110D02*
G02*
X3849980Y5924870I0J-15240D01*
G75*
G01*
X3631458Y5442631D02*
G03*
X3646698Y5427391I15240J0D01*
G75*
G01*
X3834740Y5427391D02*
G03*
X3849980Y5442631I0J15240D01*
G75*
G01*
X3631458Y5924870D02*
G02*
X3646698Y5940110I15240J0D01*
G75*
G01*
X3586521Y5940110D02*
G02*
X3601761Y5924870I0J-15240D01*
G75*
G01*
X3383239Y5442631D02*
G03*
X3398479Y5427391I15240J0D01*
G75*
G01*
X3586521Y5427391D02*
G03*
X3601761Y5442631I0J15240D01*
G75*
G01*
X3383239Y5924870D02*
G02*
X3398479Y5940110I15240J0D01*
G75*
G01*
X7977960Y3969979D02*
G02*
X7962720Y3954739I-15240J0D01*
G75*
G01*
X7480480Y4173261D02*
G03*
X7465240Y4158021I0J-15240D01*
G75*
G01*
X7465240Y3969979D02*
G03*
X7480480Y3954739I15240J0D01*
G75*
G01*
X7962720Y4173261D02*
G02*
X7977960Y4158021I0J-15240D01*
G75*
G01*
X7977960Y3715979D02*
G02*
X7962720Y3700739I-15240J0D01*
G75*
G01*
X7480480Y3919261D02*
G03*
X7465240Y3904021I0J-15240D01*
G75*
G01*
X7465240Y3715979D02*
G03*
X7480480Y3700739I15240J0D01*
G75*
G01*
X7962720Y3919261D02*
G02*
X7977960Y3904021I0J-15240D01*
D22*
G75*
G01*
X4343146Y514350D02*
G03*
X4336034Y514350I-3556J399984D01*
G75*
G01*
X3504946Y514350D02*
G03*
X3497834Y514350I-3556J399984D01*
G75*
G01*
X3085846Y1238250D02*
G03*
X3078734Y1238250I-3556J399984D01*
G75*
G01*
X3924046Y1238250D02*
G03*
X3916934Y1238250I-3556J399984D01*
D56*
G75*
G01*
X3346458Y4619465D02*
G03*
X3331218Y4604225I0J-15240D01*
G75*
G01*
X3331218Y4453984D02*
G03*
X3346458Y4438744I15240J0D01*
G75*
G01*
X3708697Y4619465D02*
G02*
X3723937Y4604225I0J-15240D01*
G75*
G01*
X3723937Y4453984D02*
G02*
X3708697Y4438744I-15240J0D01*
D16*
G75*
G01*
X2824505Y4440072D02*
G03*
X2824505Y4440326I15001J127D01*
D18*
G75*
G01*
X2609367Y4590186D02*
G03*
X2609367Y4590440I20000J127D01*
D56*
G75*
G01*
X3346458Y5102065D02*
G03*
X3331218Y5086825I0J-15240D01*
G75*
G01*
X3331218Y4936584D02*
G03*
X3346458Y4921344I15240J0D01*
G75*
G01*
X3708697Y5102065D02*
G02*
X3723937Y5086825I0J-15240D01*
G75*
G01*
X3723937Y4936584D02*
G02*
X3708697Y4921344I-15240J0D01*
G75*
G01*
X3346458Y4860765D02*
G03*
X3331218Y4845525I0J-15240D01*
G75*
G01*
X3331218Y4695284D02*
G03*
X3346458Y4680044I15240J0D01*
G75*
G01*
X3708697Y4860765D02*
G02*
X3723937Y4845525I0J-15240D01*
G75*
G01*
X3723937Y4695284D02*
G02*
X3708697Y4680044I-15240J0D01*
G75*
G01*
X3346458Y5343365D02*
G03*
X3331218Y5328125I0J-15240D01*
G75*
G01*
X3331218Y5177884D02*
G03*
X3346458Y5162644I15240J0D01*
G75*
G01*
X3708697Y5343365D02*
G02*
X3723937Y5328125I0J-15240D01*
G75*
G01*
X3723937Y5177884D02*
G02*
X3708697Y5162644I-15240J0D01*
G75*
G01*
X4424721Y4072219D02*
G02*
X4439961Y4056979I0J-15240D01*
G75*
G01*
X4221439Y3574740D02*
G03*
X4236679Y3559500I15240J0D01*
G75*
G01*
X4424721Y3559500D02*
G03*
X4439961Y3574740I0J15240D01*
G75*
G01*
X4221439Y4056979D02*
G02*
X4236679Y4072219I15240J0D01*
M02*
