G04 Layer: BottomSilkLayer*
G04 EasyEDA v6.4.19.4, 2021-05-08T19:32:42+08:00*
G04 959c2f807fa24cb394336e4151b9ccfb,119f753a6ce64b8d841f2ad33262ab0c,10*
G04 Gerber Generator version 0.2*
G04 Scale: 100 percent, Rotated: No, Reflected: No *
G04 Dimensions in millimeters *
G04 leading zeros omitted , absolute positions ,4 integer and 5 decimal *
%FSLAX45Y45*%
%MOMM*%

%ADD11C,0.2032*%
%ADD13C,0.5000*%
%ADD16C,0.3000*%
%ADD17C,0.2500*%

%LPD*%
G36*
X7180072Y2636367D02*
G01*
X7019137Y2633421D01*
X7019137Y2469591D01*
X7175195Y2464257D01*
X7140651Y2405227D01*
X7128814Y2384602D01*
X7123175Y2374239D01*
X7184999Y2374239D01*
X7212075Y2348788D01*
X7212075Y2336901D01*
X7211822Y2331618D01*
X7211110Y2325979D01*
X7210044Y2320645D01*
X7208723Y2316327D01*
X7205370Y2307590D01*
X7183221Y2297785D01*
X7238492Y2297785D01*
X7238492Y2341118D01*
X7274458Y2377033D01*
X7315149Y2377033D01*
X7348981Y2356358D01*
X7365390Y2324709D01*
X7365390Y2283460D01*
X7341412Y2247900D01*
X7319658Y2239619D01*
X7391806Y2239619D01*
X7391857Y2326843D01*
X7403134Y2367330D01*
X7438898Y2382266D01*
X7453680Y2376678D01*
X7460132Y2373833D01*
X7466838Y2370226D01*
X7472934Y2366365D01*
X7477709Y2362657D01*
X7486954Y2354275D01*
X7486954Y2440482D01*
X7523988Y2440482D01*
X7523988Y2266035D01*
X7575702Y2266035D01*
X7578902Y2274417D01*
X7579563Y2276703D01*
X7580680Y2284425D01*
X7581544Y2295144D01*
X7582052Y2307590D01*
X7582103Y2345334D01*
X7550403Y2345334D01*
X7550403Y2371750D01*
X7582103Y2371750D01*
X7582103Y2414066D01*
X7588656Y2413050D01*
X7597800Y2410815D01*
X7616494Y2405735D01*
X7619796Y2371750D01*
X7640269Y2371750D01*
X7640269Y2345334D01*
X7620203Y2345334D01*
X7616494Y2254554D01*
X7598072Y2239619D01*
X7661402Y2239619D01*
X7661452Y2321560D01*
X7672374Y2360879D01*
X7695488Y2377033D01*
X7715148Y2376271D01*
X7720838Y2375509D01*
X7725867Y2374392D01*
X7730286Y2372918D01*
X7734096Y2371039D01*
X7737398Y2368804D01*
X7740091Y2366111D01*
X7744307Y2360269D01*
X7746746Y2358034D01*
X7749235Y2356459D01*
X7751521Y2355900D01*
X7756550Y2355900D01*
X7756550Y2371750D01*
X7793583Y2371750D01*
X7793583Y2239619D01*
X7756550Y2239619D01*
X7756499Y2280412D01*
X7755991Y2295042D01*
X7755077Y2308758D01*
X7753858Y2319883D01*
X7753197Y2323998D01*
X7749794Y2340965D01*
X7726172Y2351735D01*
X7703718Y2339695D01*
X7703718Y2239619D01*
X7598072Y2239619D01*
X7590891Y2233777D01*
X7553045Y2236978D01*
X7549692Y2266035D01*
X7523988Y2266035D01*
X7523988Y2239619D01*
X7486954Y2239619D01*
X7486954Y2318410D01*
X7474559Y2345588D01*
X7449820Y2351786D01*
X7434122Y2338781D01*
X7434122Y2239619D01*
X7319658Y2239619D01*
X7301331Y2232660D01*
X7251700Y2242261D01*
X7248448Y2270760D01*
X7283450Y2260600D01*
X7312507Y2266899D01*
X7327950Y2288895D01*
X7322464Y2297785D01*
X7183221Y2297785D01*
X7148626Y2282494D01*
X7148626Y2266238D01*
X7176211Y2259330D01*
X7212075Y2270353D01*
X7212075Y2240280D01*
X7163765Y2233015D01*
X7122210Y2249322D01*
X7122312Y2245817D01*
X7122871Y2244191D01*
X7126935Y2236114D01*
X7134047Y2223008D01*
X7143496Y2206396D01*
X7175144Y2152396D01*
X7016191Y2149449D01*
X7019137Y1983232D01*
X7180072Y1980285D01*
X7183018Y2139594D01*
X7231075Y2055164D01*
X7255764Y2012797D01*
X7275626Y1980590D01*
X7645501Y1980590D01*
X7671206Y2022246D01*
X7699197Y2069693D01*
X7740650Y2141829D01*
X7740700Y1980285D01*
X7901940Y1983232D01*
X7904835Y2149449D01*
X7746492Y2152396D01*
X7795717Y2237333D01*
X7806893Y2256129D01*
X7816951Y2272487D01*
X7825384Y2285644D01*
X7833969Y2297938D01*
X7835544Y2299665D01*
X7836408Y2300071D01*
X7837373Y2298750D01*
X7841132Y2291232D01*
X7846618Y2278430D01*
X7853172Y2261971D01*
X7873746Y2207666D01*
X7899247Y2177338D01*
X7934858Y2170684D01*
X7952181Y2177288D01*
X7952181Y2207920D01*
X7920685Y2207920D01*
X7903209Y2234590D01*
X7940852Y2328316D01*
X7955330Y2366416D01*
X7957464Y2373376D01*
X7957464Y2377643D01*
X7912862Y2374392D01*
X7896758Y2322017D01*
X7891475Y2306472D01*
X7887055Y2294686D01*
X7885277Y2290622D01*
X7883906Y2288082D01*
X7882991Y2287168D01*
X7882128Y2288082D01*
X7880807Y2290622D01*
X7877048Y2300020D01*
X7872323Y2313889D01*
X7867040Y2330805D01*
X7854188Y2374392D01*
X7823149Y2376474D01*
X7815986Y2376525D01*
X7811211Y2376119D01*
X7809433Y2375357D01*
X7810042Y2372969D01*
X7814309Y2361539D01*
X7819898Y2347772D01*
X7822793Y2339187D01*
X7823250Y2336749D01*
X7823098Y2335580D01*
X7822336Y2335580D01*
X7820964Y2336749D01*
X7816748Y2342591D01*
X7810601Y2353005D01*
X7799882Y2372766D01*
X7773619Y2419045D01*
X7747203Y2464257D01*
X7901940Y2469591D01*
X7904835Y2636062D01*
X7741005Y2636062D01*
X7738059Y2478786D01*
X7648194Y2636062D01*
X7275626Y2636062D01*
X7258050Y2607716D01*
X7234580Y2567533D01*
X7183018Y2477109D01*
G37*
G36*
X7049465Y2445766D02*
G01*
X7036053Y2429611D01*
X7047992Y2403500D01*
X7073849Y2403500D01*
X7082180Y2411780D01*
X7087870Y2419096D01*
X7090105Y2426106D01*
X7088886Y2432862D01*
X7084161Y2439416D01*
X7077811Y2445766D01*
G37*
G36*
X8031327Y2433167D02*
G01*
X8014817Y2432608D01*
X7998968Y2431389D01*
X7992059Y2430576D01*
X7986217Y2429611D01*
X7981746Y2428595D01*
X7978952Y2427478D01*
X7973314Y2424023D01*
X7973314Y2386482D01*
X7982559Y2390495D01*
X7988655Y2392730D01*
X7995666Y2394610D01*
X8003286Y2396032D01*
X8011159Y2397048D01*
X8018983Y2397556D01*
X8026552Y2397607D01*
X8033410Y2397099D01*
X8039353Y2396032D01*
X8052612Y2392730D01*
X8052612Y2367737D01*
X8017052Y2349652D01*
X8004657Y2342388D01*
X7993176Y2334869D01*
X7984134Y2328011D01*
X7980934Y2325116D01*
X7968030Y2312162D01*
X7968030Y2271522D01*
X7998510Y2237384D01*
X8071103Y2233422D01*
X8100161Y2244648D01*
X8100161Y2287473D01*
X8068970Y2271318D01*
X8022183Y2271318D01*
X8008874Y2287371D01*
X8018018Y2297531D01*
X8023453Y2302357D01*
X8031480Y2307945D01*
X8041030Y2313686D01*
X8050936Y2318816D01*
X8074710Y2329992D01*
X8100161Y2357475D01*
X8100161Y2397404D01*
X8068360Y2429205D01*
X8056524Y2431796D01*
X8051952Y2432507D01*
X8046008Y2432964D01*
G37*
G36*
X7042607Y2382367D02*
G01*
X7045553Y2236978D01*
X7082536Y2236978D01*
X7085838Y2305710D01*
X7111593Y2263394D01*
X7111644Y2290470D01*
X7124852Y2307844D01*
X7175855Y2329434D01*
X7172198Y2347976D01*
X7124852Y2347874D01*
X7114286Y2361336D01*
X7087870Y2311247D01*
X7084720Y2382367D01*
G37*
G36*
X6948931Y2381859D02*
G01*
X6939737Y2381758D01*
X6931253Y2381250D01*
X6924141Y2380386D01*
X6919112Y2379116D01*
X6910730Y2375916D01*
X6910730Y2346502D01*
X6965188Y2347976D01*
X6969709Y2334971D01*
X6913219Y2310028D01*
X6900570Y2282291D01*
X6911898Y2249881D01*
X6941921Y2234336D01*
X6968185Y2234336D01*
X6979056Y2234590D01*
X6989216Y2235250D01*
X6997496Y2236266D01*
X7002830Y2237536D01*
X7011212Y2240737D01*
X7011212Y2277008D01*
X6990740Y2266035D01*
X6947763Y2266035D01*
X6947763Y2273350D01*
X6948170Y2276652D01*
X6949490Y2279853D01*
X6951573Y2282850D01*
X6954520Y2285695D01*
X6958279Y2288336D01*
X6962800Y2290826D01*
X6968134Y2293061D01*
X6974179Y2295093D01*
X6980275Y2297430D01*
X6987031Y2301036D01*
X6993636Y2305304D01*
X6999274Y2309876D01*
X7011212Y2320747D01*
X7011212Y2354072D01*
X6999274Y2364892D01*
X6994042Y2369312D01*
X6988556Y2373376D01*
X6983475Y2376627D01*
X6979462Y2378608D01*
X6974128Y2379929D01*
X6966762Y2380945D01*
X6958177Y2381554D01*
G37*
G36*
X7280554Y2350617D02*
G01*
X7273391Y2331618D01*
X7270648Y2323185D01*
X7270242Y2321204D01*
X7272528Y2320290D01*
X7278725Y2319578D01*
X7287920Y2319070D01*
X7328052Y2318918D01*
X7324750Y2328164D01*
X7323074Y2332278D01*
X7320889Y2336647D01*
X7318552Y2340711D01*
X7316317Y2344013D01*
X7311237Y2350617D01*
G37*
G36*
X4385157Y2691638D02*
G01*
X4330242Y2683256D01*
X4300321Y2672842D01*
X4287418Y2667812D01*
X4275328Y2662428D01*
X4263542Y2656433D01*
X4251604Y2649575D01*
X4239006Y2641549D01*
X4210862Y2622448D01*
X4169308Y2579928D01*
X4153915Y2557322D01*
X4146854Y2546146D01*
X4140301Y2534818D01*
X4134307Y2523337D01*
X4128770Y2511653D01*
X4123740Y2499817D01*
X4119219Y2487676D01*
X4115104Y2475331D01*
X4111498Y2462733D01*
X4108348Y2449830D01*
X4102100Y2419604D01*
X4101998Y2350516D01*
X4107230Y2322576D01*
X4109974Y2309977D01*
X4113174Y2297785D01*
X4116781Y2285847D01*
X4120845Y2274214D01*
X4125366Y2262835D01*
X4130395Y2251557D01*
X4135932Y2240432D01*
X4141978Y2229307D01*
X4148582Y2218232D01*
X4163923Y2194356D01*
X4207306Y2147366D01*
X4236415Y2127300D01*
X4247591Y2119934D01*
X4257700Y2113788D01*
X4267200Y2108504D01*
X4276496Y2103882D01*
X4286046Y2099716D01*
X4304690Y2092350D01*
X4320997Y2092350D01*
X4328922Y2104034D01*
X4328972Y2209292D01*
X4331512Y2218842D01*
X4333036Y2223312D01*
X4335221Y2228494D01*
X4337862Y2233625D01*
X4342993Y2242058D01*
X4346041Y2247595D01*
X4346244Y2248611D01*
X4340098Y2250033D01*
X4307281Y2255926D01*
X4291279Y2262073D01*
X4284218Y2265019D01*
X4277512Y2268270D01*
X4271162Y2271826D01*
X4265117Y2275738D01*
X4259326Y2280005D01*
X4253738Y2284730D01*
X4248353Y2289860D01*
X4243019Y2295448D01*
X4238701Y2300528D01*
X4234942Y2305354D01*
X4231640Y2310180D01*
X4228693Y2315210D01*
X4226052Y2320594D01*
X4223562Y2326538D01*
X4218736Y2340711D01*
X4213910Y2356510D01*
X4210964Y2411831D01*
X4216857Y2440076D01*
X4226204Y2458872D01*
X4232859Y2469896D01*
X4235754Y2473807D01*
X4241850Y2481275D01*
X4236567Y2500934D01*
X4238904Y2548382D01*
X4245610Y2562860D01*
X4261662Y2562860D01*
X4277004Y2557526D01*
X4284319Y2554630D01*
X4292904Y2550668D01*
X4301744Y2546197D01*
X4309668Y2541727D01*
X4327042Y2531262D01*
X4365904Y2540050D01*
X4439818Y2539949D01*
X4477410Y2531465D01*
X4494326Y2541524D01*
X4502048Y2545892D01*
X4510582Y2550312D01*
X4518914Y2554274D01*
X4525975Y2557221D01*
X4540758Y2562860D01*
X4558233Y2562860D01*
X4560773Y2557932D01*
X4561992Y2554528D01*
X4563465Y2549042D01*
X4564938Y2542133D01*
X4569206Y2516225D01*
X4563262Y2480868D01*
X4569917Y2471877D01*
X4573016Y2467203D01*
X4576622Y2461107D01*
X4580229Y2454351D01*
X4590237Y2432761D01*
X4590237Y2353868D01*
X4585563Y2339949D01*
X4580280Y2326487D01*
X4574184Y2313686D01*
X4567529Y2301290D01*
X4542790Y2276398D01*
X4506112Y2258415D01*
X4479137Y2252675D01*
X4465929Y2250084D01*
X4456582Y2248712D01*
X4471771Y2225497D01*
X4474819Y2206040D01*
X4495901Y2198776D01*
X4526534Y2199081D01*
X4547412Y2210308D01*
X4558233Y2223770D01*
X4565904Y2234234D01*
X4576267Y2249576D01*
X4602734Y2263190D01*
X4612081Y2262936D01*
X4614976Y2262378D01*
X4617567Y2261616D01*
X4619548Y2260650D01*
X4623358Y2258161D01*
X4586833Y2222449D01*
X4572000Y2188159D01*
X4563262Y2180590D01*
X4558995Y2177237D01*
X4553762Y2173681D01*
X4548276Y2170379D01*
X4543145Y2167737D01*
X4531715Y2162505D01*
X4498492Y2160219D01*
X4476800Y2165350D01*
X4476800Y2098243D01*
X4484471Y2091639D01*
X4508246Y2094433D01*
X4564786Y2123694D01*
X4585970Y2140356D01*
X4595114Y2148230D01*
X4604969Y2157323D01*
X4614468Y2166569D01*
X4637938Y2190902D01*
X4654905Y2217420D01*
X4661357Y2228291D01*
X4667300Y2239060D01*
X4672736Y2249779D01*
X4677664Y2260600D01*
X4682134Y2271572D01*
X4686198Y2282748D01*
X4689856Y2294280D01*
X4693158Y2306167D01*
X4696104Y2318562D01*
X4701895Y2345994D01*
X4701997Y2419604D01*
X4696256Y2447696D01*
X4693361Y2459888D01*
X4690110Y2471775D01*
X4686503Y2483256D01*
X4682591Y2494381D01*
X4678273Y2505252D01*
X4673549Y2515870D01*
X4668418Y2526233D01*
X4662881Y2536444D01*
X4656937Y2546502D01*
X4639665Y2573375D01*
X4599838Y2616758D01*
X4559655Y2646527D01*
X4533849Y2659684D01*
X4522876Y2664714D01*
X4510989Y2669743D01*
X4499610Y2674162D01*
X4471619Y2683662D01*
X4424527Y2691130D01*
G37*
G36*
X4588967Y2255316D02*
G01*
X4588967Y2246985D01*
X4592015Y2248001D01*
X4593285Y2248662D01*
X4594453Y2249678D01*
X4595418Y2250897D01*
X4596028Y2252167D01*
X4597044Y2255316D01*
G37*
G36*
X4581652Y2244801D02*
G01*
X4580534Y2244496D01*
X4579162Y2243683D01*
X4577740Y2242515D01*
X4573422Y2237384D01*
X4578756Y2233980D01*
X4581347Y2235606D01*
X4582312Y2236520D01*
X4583125Y2237841D01*
X4583684Y2239416D01*
X4583887Y2240991D01*
X4583887Y2244801D01*
G37*
G36*
X4570018Y2229002D02*
G01*
X4568444Y2228799D01*
X4566920Y2228189D01*
X4565599Y2227326D01*
X4564684Y2226259D01*
X4563008Y2223516D01*
X4566107Y2215286D01*
X4569917Y2218537D01*
X4571390Y2220061D01*
X4572558Y2221890D01*
X4573371Y2223719D01*
X4573676Y2225395D01*
X4573676Y2229002D01*
G37*
G36*
X4556048Y2213152D02*
G01*
X4552289Y2211679D01*
X4550765Y2210816D01*
X4549241Y2209495D01*
X4548022Y2207971D01*
X4547158Y2206396D01*
X4545736Y2202535D01*
X4553610Y2199386D01*
X4559046Y2205024D01*
G37*
G36*
X4489094Y2197760D02*
G01*
X4478070Y2196185D01*
X4478528Y2193544D01*
X4478985Y2192324D01*
X4480001Y2190902D01*
X4481322Y2189530D01*
X4486859Y2185771D01*
X4492701Y2191766D01*
G37*
G36*
X4528108Y2197455D02*
G01*
X4524654Y2191766D01*
X4529480Y2186787D01*
X4538014Y2190140D01*
X4538014Y2197455D01*
G37*
G36*
X4502302Y2194864D02*
G01*
X4502302Y2184349D01*
X4512208Y2184349D01*
X4515358Y2189581D01*
X4512208Y2194864D01*
G37*
G36*
X6488531Y2692450D02*
G01*
X6482740Y2664764D01*
X6476085Y2629103D01*
X6473190Y2615336D01*
X6471259Y2613558D01*
X6466687Y2610866D01*
X6460185Y2607564D01*
X6426962Y2592730D01*
X6421221Y2591816D01*
X6415074Y2593187D01*
X6410706Y2595981D01*
X6410198Y2599436D01*
X6410604Y2600350D01*
X6410452Y2600756D01*
X6409740Y2600655D01*
X6407150Y2599385D01*
X6405778Y2599232D01*
X6404559Y2599537D01*
X6400393Y2603347D01*
X6394500Y2607818D01*
X6386779Y2613101D01*
X6378143Y2618638D01*
X6361633Y2628341D01*
X6355435Y2631389D01*
X6351879Y2632506D01*
X6350000Y2632100D01*
X6347561Y2630881D01*
X6344513Y2628798D01*
X6336334Y2621838D01*
X6325006Y2610815D01*
X6310223Y2595473D01*
X6299454Y2583688D01*
X6296152Y2579624D01*
X6294120Y2576626D01*
X6293154Y2574391D01*
X6293154Y2572867D01*
X6296558Y2568803D01*
X6306261Y2555392D01*
X6328867Y2521864D01*
X6335115Y2513126D01*
X6336233Y2509621D01*
X6335471Y2505100D01*
X6329019Y2487726D01*
X6325311Y2478786D01*
X6321806Y2471013D01*
X6318504Y2464511D01*
X6315405Y2459228D01*
X6312560Y2455316D01*
X6310020Y2452725D01*
X6307734Y2451557D01*
X6236868Y2438654D01*
X6236868Y2351735D01*
X6258458Y2348992D01*
X6274003Y2346045D01*
X6287008Y2342997D01*
X6298996Y2341016D01*
X6306870Y2340457D01*
X6309664Y2339594D01*
X6311595Y2338171D01*
X6312763Y2336139D01*
X6317538Y2323795D01*
X6328003Y2298598D01*
X6331153Y2290165D01*
X6333032Y2283917D01*
X6333845Y2279294D01*
X6333642Y2275840D01*
X6332524Y2273096D01*
X6323330Y2260650D01*
X6298133Y2223668D01*
X6295339Y2218994D01*
X6294780Y2216912D01*
X6294932Y2214778D01*
X6295796Y2212390D01*
X6297574Y2209596D01*
X6300317Y2206142D01*
X6309106Y2196642D01*
X6333540Y2171801D01*
X6341922Y2164283D01*
X6348069Y2159812D01*
X6350304Y2158695D01*
X6352032Y2158339D01*
X6353810Y2158746D01*
X6360109Y2161641D01*
X6369253Y2166874D01*
X6380124Y2173782D01*
X6401206Y2188006D01*
X6406489Y2191258D01*
X6410604Y2193493D01*
X6413804Y2194763D01*
X6416446Y2195271D01*
X6418783Y2195118D01*
X6421069Y2194458D01*
X6424218Y2193137D01*
X6427520Y2191410D01*
X6430619Y2189429D01*
X6435344Y2185873D01*
X6437985Y2184603D01*
X6440728Y2183892D01*
X6443167Y2183841D01*
X6445097Y2184349D01*
X6446875Y2185365D01*
X6448653Y2187397D01*
X6450634Y2190699D01*
X6456070Y2202840D01*
X6479743Y2262886D01*
X6496507Y2303678D01*
X6498234Y2307488D01*
X6500215Y2312670D01*
X6500114Y2316886D01*
X6497929Y2320442D01*
X6489700Y2325979D01*
X6485178Y2329535D01*
X6480302Y2333853D01*
X6475374Y2338628D01*
X6470650Y2343658D01*
X6466382Y2348585D01*
X6462979Y2353157D01*
X6460591Y2357018D01*
X6458458Y2362047D01*
X6458153Y2363622D01*
X6458712Y2364486D01*
X6458356Y2365400D01*
X6455918Y2368346D01*
X6453936Y2371394D01*
X6452768Y2376220D01*
X6452209Y2383637D01*
X6452158Y2394407D01*
X6452514Y2403043D01*
X6453124Y2410307D01*
X6453886Y2415489D01*
X6454800Y2417775D01*
X6455664Y2418689D01*
X6456426Y2420061D01*
X6456934Y2421788D01*
X6457086Y2423617D01*
X6457746Y2426766D01*
X6459575Y2430830D01*
X6462268Y2435555D01*
X6465722Y2440584D01*
X6469634Y2445664D01*
X6473901Y2450541D01*
X6478270Y2454910D01*
X6482588Y2458516D01*
X6487566Y2461869D01*
X6493306Y2465070D01*
X6499555Y2468067D01*
X6506057Y2470759D01*
X6512559Y2472994D01*
X6518757Y2474722D01*
X6524447Y2475788D01*
X6529324Y2476195D01*
X6534200Y2475890D01*
X6539280Y2475179D01*
X6544564Y2473960D01*
X6549898Y2472385D01*
X6555282Y2470404D01*
X6560566Y2468067D01*
X6565798Y2465425D01*
X6570827Y2462479D01*
X6575653Y2459278D01*
X6580124Y2455875D01*
X6584188Y2452268D01*
X6587845Y2448509D01*
X6592417Y2443022D01*
X6596227Y2437638D01*
X6599428Y2432253D01*
X6602069Y2426665D01*
X6604101Y2420823D01*
X6605625Y2414574D01*
X6606743Y2407818D01*
X6607454Y2400350D01*
X6607962Y2389073D01*
X6607860Y2384755D01*
X6607352Y2380945D01*
X6606489Y2377186D01*
X6605168Y2373274D01*
X6600901Y2363470D01*
X6597751Y2356916D01*
X6594703Y2351328D01*
X6591604Y2346452D01*
X6588353Y2342134D01*
X6584746Y2338171D01*
X6580631Y2334412D01*
X6575907Y2330602D01*
X6566103Y2323388D01*
X6562648Y2320137D01*
X6560362Y2317191D01*
X6559499Y2314956D01*
X6560007Y2312212D01*
X6561378Y2307894D01*
X6563410Y2302560D01*
X6568389Y2291232D01*
X6571742Y2282596D01*
X6572961Y2278278D01*
X6577533Y2266950D01*
X6584492Y2251303D01*
X6590792Y2236317D01*
X6597700Y2218131D01*
X6609181Y2190343D01*
X6611670Y2186889D01*
X6614617Y2184857D01*
X6618528Y2183841D01*
X6623405Y2183434D01*
X6624624Y2183587D01*
X6626098Y2186635D01*
X6631686Y2190242D01*
X6638899Y2193442D01*
X6645046Y2194814D01*
X6648450Y2194001D01*
X6653174Y2191766D01*
X6658609Y2188464D01*
X6676898Y2174798D01*
X6679844Y2173376D01*
X6686245Y2169210D01*
X6690461Y2166162D01*
X6698894Y2160879D01*
X6705853Y2158746D01*
X6711746Y2159609D01*
X6716877Y2163521D01*
X6718858Y2165350D01*
X6720890Y2166670D01*
X6722668Y2167229D01*
X6724040Y2167026D01*
X6724954Y2166569D01*
X6725462Y2166569D01*
X6725564Y2166975D01*
X6725158Y2167839D01*
X6726174Y2170430D01*
X6730085Y2175611D01*
X6736232Y2182723D01*
X6751878Y2199233D01*
X6758330Y2206548D01*
X6762699Y2212136D01*
X6764274Y2215134D01*
X6763867Y2216454D01*
X6760819Y2222347D01*
X6755384Y2231593D01*
X6748221Y2243023D01*
X6724091Y2279853D01*
X6741566Y2323896D01*
X6744665Y2330754D01*
X6747205Y2335377D01*
X6749592Y2338324D01*
X6752081Y2339949D01*
X6754926Y2340813D01*
X6764426Y2342134D01*
X6784187Y2345283D01*
X6823151Y2351989D01*
X6823151Y2402941D01*
X6822846Y2418283D01*
X6822338Y2430068D01*
X6821627Y2436926D01*
X6821271Y2437993D01*
X6818680Y2438806D01*
X6805422Y2441702D01*
X6786168Y2445359D01*
X6752844Y2451049D01*
X6748576Y2453081D01*
X6745274Y2456789D01*
X6741668Y2463190D01*
X6735724Y2475788D01*
X6729730Y2489809D01*
X6725158Y2501849D01*
X6723837Y2506116D01*
X6723329Y2508554D01*
X6723938Y2510028D01*
X6728256Y2517292D01*
X6743953Y2541473D01*
X6752386Y2553868D01*
X6761683Y2566619D01*
X6763308Y2569210D01*
X6763918Y2572054D01*
X6763359Y2575306D01*
X6761480Y2579217D01*
X6758178Y2583992D01*
X6753250Y2589885D01*
X6746697Y2597099D01*
X6731863Y2612339D01*
X6721246Y2622499D01*
X6713423Y2629001D01*
X6710476Y2630982D01*
X6708089Y2632151D01*
X6706260Y2632506D01*
X6702552Y2631490D01*
X6696760Y2628696D01*
X6689801Y2624531D01*
X6675221Y2614422D01*
X6664452Y2607513D01*
X6662166Y2606446D01*
X6661048Y2606141D01*
X6659625Y2605278D01*
X6654749Y2600502D01*
X6648958Y2596235D01*
X6645808Y2594356D01*
X6640118Y2592324D01*
X6633972Y2592374D01*
X6626250Y2594813D01*
X6612534Y2601417D01*
X6595821Y2607919D01*
X6592265Y2609951D01*
X6589420Y2612085D01*
X6587693Y2614168D01*
X6586321Y2618435D01*
X6584340Y2626563D01*
X6582054Y2637383D01*
X6572453Y2690469D01*
X6571589Y2690876D01*
X6565188Y2691587D01*
X6553809Y2692095D01*
X6538823Y2692400D01*
G37*
G36*
X6407810Y2100783D02*
G01*
X6405118Y2100021D01*
X6403187Y2097989D01*
X6401917Y2094484D01*
X6401155Y2089251D01*
X6400800Y2082038D01*
X6400546Y2063089D01*
X6400038Y2055114D01*
X6399123Y2048764D01*
X6397701Y2043785D01*
X6395821Y2040178D01*
X6393383Y2037740D01*
X6390335Y2036318D01*
X6386677Y2035911D01*
X6382969Y2036318D01*
X6379921Y2037740D01*
X6377482Y2040178D01*
X6375603Y2043785D01*
X6374180Y2048764D01*
X6373266Y2055114D01*
X6372758Y2063038D01*
X6372555Y2072639D01*
X6372555Y2097836D01*
X6361277Y2099919D01*
X6357924Y2099868D01*
X6355537Y2098548D01*
X6353860Y2095550D01*
X6352844Y2090318D01*
X6352336Y2082393D01*
X6352082Y2056688D01*
X6352082Y2015489D01*
X6389166Y2015794D01*
X6394704Y2016201D01*
X6399479Y2016810D01*
X6403644Y2017725D01*
X6407099Y2018995D01*
X6410045Y2020722D01*
X6412433Y2022957D01*
X6414363Y2025700D01*
X6415887Y2029053D01*
X6417056Y2033117D01*
X6417919Y2037892D01*
X6418986Y2049881D01*
X6419392Y2065477D01*
X6419494Y2082190D01*
X6419088Y2092299D01*
X6418021Y2097532D01*
X6416090Y2099360D01*
X6411417Y2100478D01*
G37*
G36*
X6677253Y2099716D02*
G01*
X6652361Y2098852D01*
X6643674Y2098344D01*
X6635800Y2097532D01*
X6628942Y2096414D01*
X6623151Y2095093D01*
X6618731Y2093518D01*
X6615684Y2091791D01*
X6614210Y2089962D01*
X6614464Y2088083D01*
X6614820Y2087067D01*
X6614769Y2086000D01*
X6614312Y2085035D01*
X6613550Y2084273D01*
X6612585Y2081072D01*
X6611772Y2073300D01*
X6611162Y2062225D01*
X6610807Y2048916D01*
X6610451Y2015083D01*
X6630974Y2015083D01*
X6632244Y2061311D01*
X6633260Y2070404D01*
X6635496Y2074621D01*
X6639661Y2077161D01*
X6643624Y2078837D01*
X6646468Y2079294D01*
X6648958Y2078431D01*
X6651752Y2076196D01*
X6654241Y2072843D01*
X6655816Y2067458D01*
X6656781Y2058365D01*
X6658051Y2016353D01*
X6677253Y2014728D01*
G37*
G36*
X6823202Y2099716D02*
G01*
X6815378Y2099005D01*
X6801916Y2098548D01*
X6785660Y2098395D01*
X6779463Y2097582D01*
X6774789Y2095652D01*
X6770370Y2092299D01*
X6766306Y2088184D01*
X6763969Y2083460D01*
X6762800Y2075840D01*
X6762089Y2063242D01*
X6761995Y2058060D01*
X6783476Y2058060D01*
X6783679Y2066086D01*
X6784390Y2071827D01*
X6785559Y2075586D01*
X6787337Y2077618D01*
X6792163Y2079701D01*
X6796989Y2079955D01*
X6801307Y2078431D01*
X6804456Y2075281D01*
X6807250Y2069287D01*
X6808825Y2062835D01*
X6809282Y2056231D01*
X6808622Y2049983D01*
X6806996Y2044395D01*
X6804456Y2039924D01*
X6801053Y2036978D01*
X6796836Y2035962D01*
X6790080Y2036876D01*
X6786016Y2040178D01*
X6784035Y2046935D01*
X6783476Y2058060D01*
X6761995Y2058060D01*
X6762191Y2047341D01*
X6762902Y2040737D01*
X6764020Y2034997D01*
X6765696Y2030018D01*
X6767830Y2025853D01*
X6770471Y2022398D01*
X6773672Y2019655D01*
X6777481Y2017623D01*
X6781850Y2016150D01*
X6786829Y2015337D01*
X6792417Y2015083D01*
X6796430Y2015286D01*
X6799935Y2015845D01*
X6802577Y2016658D01*
X6803999Y2017725D01*
X6805422Y2019452D01*
X6806692Y2019807D01*
X6807758Y2018792D01*
X6808673Y2016353D01*
X6809384Y2012645D01*
X6809943Y2007666D01*
X6810349Y1993900D01*
X6810349Y1979371D01*
X6809943Y1975256D01*
X6809028Y1972868D01*
X6807250Y1971954D01*
X6804507Y1972157D01*
X6794957Y1974850D01*
X6787692Y1975205D01*
X6779768Y1972767D01*
X6772452Y1968144D01*
X6766966Y1961845D01*
X6765442Y1959102D01*
X6764223Y1956307D01*
X6763308Y1953107D01*
X6762648Y1949348D01*
X6761886Y1938934D01*
X6761734Y1892604D01*
X6782206Y1892604D01*
X6782206Y1918157D01*
X6782409Y1931670D01*
X6783120Y1940255D01*
X6784695Y1945589D01*
X6787438Y1949450D01*
X6791756Y1953514D01*
X6795363Y1954733D01*
X6799173Y1953158D01*
X6804101Y1948738D01*
X6807504Y1944573D01*
X6809384Y1939493D01*
X6810197Y1931212D01*
X6810349Y1892604D01*
X6828281Y1892604D01*
X6828586Y2048916D01*
X6828485Y2098802D01*
X6827774Y2099411D01*
X6825894Y2099716D01*
G37*
G36*
X6258712Y2099310D02*
G01*
X6253175Y2099157D01*
X6247333Y2098548D01*
X6241542Y2097481D01*
X6236055Y2096007D01*
X6231229Y2094179D01*
X6227368Y2092045D01*
X6218936Y2086203D01*
X6234430Y2069693D01*
X6239967Y2074925D01*
X6243828Y2077872D01*
X6247739Y2079599D01*
X6251600Y2080107D01*
X6255258Y2079599D01*
X6258661Y2078075D01*
X6261709Y2075738D01*
X6264300Y2072589D01*
X6266281Y2068779D01*
X6267602Y2064410D01*
X6268212Y2059584D01*
X6267907Y2054352D01*
X6266637Y2048865D01*
X6262674Y2041448D01*
X6256883Y2037232D01*
X6249771Y2036470D01*
X6241948Y2039416D01*
X6237528Y2041906D01*
X6234531Y2042566D01*
X6231686Y2041245D01*
X6227826Y2037842D01*
X6223762Y2032812D01*
X6222949Y2028291D01*
X6225540Y2023973D01*
X6231585Y2019503D01*
X6235954Y2017318D01*
X6240627Y2015896D01*
X6245606Y2015083D01*
X6250686Y2014880D01*
X6255816Y2015286D01*
X6260896Y2016252D01*
X6265773Y2017725D01*
X6270345Y2019757D01*
X6274562Y2022297D01*
X6278270Y2025294D01*
X6281420Y2028698D01*
X6283807Y2032507D01*
X6286398Y2038654D01*
X6288125Y2045106D01*
X6289090Y2051710D01*
X6289294Y2058365D01*
X6288786Y2064969D01*
X6287566Y2071319D01*
X6285687Y2077364D01*
X6283198Y2082952D01*
X6280099Y2087930D01*
X6276492Y2092147D01*
X6272326Y2095500D01*
X6267653Y2097887D01*
X6263640Y2098903D01*
G37*
G36*
X6307328Y2099208D02*
G01*
X6300673Y2098852D01*
X6294983Y2098243D01*
X6290360Y2097379D01*
X6286855Y2096211D01*
X6284569Y2094839D01*
X6283604Y2093214D01*
X6284874Y2087575D01*
X6289040Y2081479D01*
X6294221Y2077008D01*
X6298539Y2076450D01*
X6303010Y2077872D01*
X6308547Y2077821D01*
X6313627Y2076500D01*
X6316827Y2074062D01*
X6317589Y2070709D01*
X6318199Y2063699D01*
X6318605Y2054199D01*
X6318808Y2015083D01*
X6339281Y2015083D01*
X6339281Y2098192D01*
X6314897Y2099208D01*
G37*
G36*
X6186728Y2098446D02*
G01*
X6177889Y2098192D01*
X6171996Y2097125D01*
X6167526Y2094738D01*
X6162852Y2090420D01*
X6158585Y2085593D01*
X6156198Y2081022D01*
X6155182Y2074925D01*
X6155116Y2072538D01*
X6176111Y2072538D01*
X6178092Y2076399D01*
X6181852Y2078532D01*
X6187744Y2080056D01*
X6193332Y2080514D01*
X6196126Y2079548D01*
X6197650Y2072995D01*
X6197193Y2069287D01*
X6194247Y2067560D01*
X6188354Y2067153D01*
X6181394Y2067814D01*
X6177280Y2069592D01*
X6176111Y2072538D01*
X6155116Y2072538D01*
X6154928Y2065680D01*
X6154928Y2048916D01*
X6187490Y2048764D01*
X6194145Y2048154D01*
X6197549Y2046986D01*
X6198463Y2045055D01*
X6198006Y2043277D01*
X6196634Y2041143D01*
X6194704Y2039010D01*
X6192266Y2037080D01*
X6188710Y2034997D01*
X6185814Y2034286D01*
X6182664Y2034946D01*
X6171946Y2039924D01*
X6169253Y2040788D01*
X6167424Y2041093D01*
X6163716Y2039823D01*
X6159601Y2036673D01*
X6156299Y2032762D01*
X6154928Y2029206D01*
X6157772Y2024329D01*
X6164884Y2019807D01*
X6174536Y2016404D01*
X6184696Y2015083D01*
X6190386Y2015388D01*
X6195618Y2016302D01*
X6200394Y2017877D01*
X6204712Y2020011D01*
X6208572Y2022703D01*
X6211976Y2026005D01*
X6214821Y2029866D01*
X6217208Y2034286D01*
X6219088Y2039213D01*
X6220409Y2044700D01*
X6221222Y2050643D01*
X6221476Y2057146D01*
X6221323Y2062378D01*
X6220714Y2067356D01*
X6219698Y2072030D01*
X6218275Y2076500D01*
X6216396Y2080768D01*
X6214110Y2084832D01*
X6211316Y2088743D01*
X6208115Y2092553D01*
X6204712Y2095550D01*
X6200698Y2097328D01*
X6195009Y2098192D01*
G37*
G36*
X6721856Y2098446D02*
G01*
X6714540Y2098192D01*
X6708800Y2097481D01*
X6704584Y2096262D01*
X6701942Y2094534D01*
X6698538Y2091740D01*
X6697014Y2090928D01*
X6695846Y2090623D01*
X6693408Y2088845D01*
X6691223Y2084120D01*
X6689445Y2077466D01*
X6688405Y2070963D01*
X6707936Y2070963D01*
X6708546Y2072792D01*
X6710172Y2074875D01*
X6712508Y2076957D01*
X6715404Y2078786D01*
X6719620Y2080768D01*
X6722618Y2081326D01*
X6725310Y2080412D01*
X6728612Y2077974D01*
X6732473Y2073706D01*
X6732270Y2070557D01*
X6727952Y2068525D01*
X6719570Y2067560D01*
X6714083Y2067560D01*
X6710476Y2068068D01*
X6708546Y2069185D01*
X6707936Y2070963D01*
X6688405Y2070963D01*
X6687566Y2062175D01*
X6687718Y2055469D01*
X6688683Y2050643D01*
X6690664Y2048764D01*
X6724650Y2048967D01*
X6730593Y2048459D01*
X6732981Y2047087D01*
X6733133Y2044547D01*
X6732219Y2042464D01*
X6730492Y2040280D01*
X6728104Y2038197D01*
X6725412Y2036521D01*
X6721551Y2034997D01*
X6718147Y2034641D01*
X6714337Y2035505D01*
X6703923Y2040128D01*
X6700469Y2040686D01*
X6697472Y2039213D01*
X6686905Y2028698D01*
X6696760Y2021890D01*
X6701485Y2019096D01*
X6706565Y2017014D01*
X6711848Y2015693D01*
X6717233Y2015032D01*
X6722618Y2015083D01*
X6727850Y2015794D01*
X6732930Y2017115D01*
X6737654Y2019046D01*
X6741972Y2021586D01*
X6745731Y2024684D01*
X6748830Y2028342D01*
X6751269Y2032507D01*
X6753148Y2037435D01*
X6754520Y2042617D01*
X6755434Y2048052D01*
X6755892Y2053589D01*
X6755942Y2059178D01*
X6755536Y2064715D01*
X6754672Y2070100D01*
X6753402Y2075230D01*
X6751726Y2080107D01*
X6749694Y2084527D01*
X6747256Y2088489D01*
X6744411Y2091893D01*
X6740499Y2095296D01*
X6736232Y2097278D01*
X6730441Y2098192D01*
G37*
G36*
X6871716Y2098446D02*
G01*
X6863740Y2098192D01*
X6857847Y2097532D01*
X6853783Y2096312D01*
X6851345Y2094534D01*
X6849922Y2093163D01*
X6848449Y2092248D01*
X6847027Y2091893D01*
X6844995Y2092553D01*
X6844385Y2092553D01*
X6844080Y2092198D01*
X6844131Y2090166D01*
X6842709Y2085797D01*
X6841439Y2083307D01*
X6839915Y2078939D01*
X6838848Y2072792D01*
X6838238Y2065528D01*
X6838205Y2062937D01*
X6859320Y2062937D01*
X6859778Y2067966D01*
X6860692Y2071878D01*
X6862114Y2074164D01*
X6866585Y2077008D01*
X6870852Y2078329D01*
X6874814Y2078228D01*
X6878320Y2076754D01*
X6881317Y2073960D01*
X6883653Y2069896D01*
X6885330Y2064664D01*
X6886143Y2058263D01*
X6886194Y2052167D01*
X6885584Y2047544D01*
X6884212Y2043938D01*
X6881875Y2040940D01*
X6877253Y2037486D01*
X6872376Y2036114D01*
X6867652Y2036775D01*
X6863486Y2039518D01*
X6861860Y2042261D01*
X6860641Y2046478D01*
X6859778Y2051710D01*
X6859371Y2057349D01*
X6859320Y2062937D01*
X6838205Y2062937D01*
X6838137Y2057603D01*
X6838442Y2049678D01*
X6839254Y2042210D01*
X6840474Y2035810D01*
X6842150Y2031085D01*
X6845300Y2026310D01*
X6849313Y2022348D01*
X6853986Y2019249D01*
X6859270Y2016963D01*
X6864908Y2015540D01*
X6870750Y2014931D01*
X6876643Y2015236D01*
X6882384Y2016353D01*
X6887921Y2018334D01*
X6892950Y2021179D01*
X6897420Y2024938D01*
X6901129Y2029510D01*
X6903313Y2034032D01*
X6904532Y2039874D01*
X6904939Y2048408D01*
X6904685Y2060956D01*
X6904024Y2074722D01*
X6902856Y2082850D01*
X6900570Y2087727D01*
X6896404Y2091943D01*
X6891934Y2095296D01*
X6887159Y2097278D01*
X6880859Y2098192D01*
G37*
G36*
X6465265Y2098395D02*
G01*
X6458204Y2098294D01*
X6452514Y2097938D01*
X6447993Y2097227D01*
X6444335Y2096007D01*
X6441389Y2094280D01*
X6438900Y2091842D01*
X6436563Y2088591D01*
X6434226Y2084425D01*
X6431178Y2077974D01*
X6429502Y2071725D01*
X6428994Y2063953D01*
X6429164Y2057755D01*
X6449314Y2057755D01*
X6449568Y2062886D01*
X6450380Y2067610D01*
X6451701Y2071573D01*
X6453581Y2074418D01*
X6458051Y2077974D01*
X6462318Y2078989D01*
X6466738Y2077466D01*
X6471615Y2073402D01*
X6474714Y2069795D01*
X6476542Y2066086D01*
X6477304Y2061718D01*
X6477304Y2056028D01*
X6476746Y2051405D01*
X6475730Y2046935D01*
X6474358Y2043074D01*
X6472885Y2040483D01*
X6468516Y2037130D01*
X6463385Y2036064D01*
X6458204Y2037283D01*
X6453632Y2040686D01*
X6451752Y2043734D01*
X6450431Y2047849D01*
X6449618Y2052624D01*
X6449314Y2057755D01*
X6429164Y2057755D01*
X6429298Y2052878D01*
X6429959Y2044141D01*
X6430873Y2037486D01*
X6432042Y2033117D01*
X6433464Y2031339D01*
X6434683Y2030679D01*
X6435648Y2029663D01*
X6436309Y2028443D01*
X6436563Y2027123D01*
X6437884Y2023618D01*
X6441389Y2020620D01*
X6446570Y2018182D01*
X6452971Y2016506D01*
X6459982Y2015591D01*
X6467144Y2015591D01*
X6473850Y2016607D01*
X6479590Y2018741D01*
X6484213Y2021484D01*
X6487922Y2024278D01*
X6490665Y2027377D01*
X6492697Y2031136D01*
X6494068Y2035810D01*
X6494932Y2041702D01*
X6495338Y2049068D01*
X6495338Y2072386D01*
X6494424Y2080666D01*
X6492087Y2085848D01*
X6487718Y2090724D01*
X6483146Y2094738D01*
X6478727Y2097074D01*
X6473240Y2098141D01*
G37*
G36*
X6535166Y2098243D02*
G01*
X6525717Y2098090D01*
X6519164Y2097278D01*
X6514236Y2095449D01*
X6509766Y2092350D01*
X6502298Y2086254D01*
X6509562Y2078634D01*
X6510934Y2076551D01*
X6511645Y2074925D01*
X6511137Y2072386D01*
X6513880Y2072538D01*
X6518097Y2074011D01*
X6522212Y2076348D01*
X6528409Y2079243D01*
X6535775Y2080158D01*
X6542227Y2079091D01*
X6545783Y2076196D01*
X6546443Y2072538D01*
X6544411Y2070100D01*
X6538772Y2068423D01*
X6521856Y2065934D01*
X6516370Y2064562D01*
X6511950Y2062835D01*
X6508546Y2060600D01*
X6506057Y2057806D01*
X6504381Y2054352D01*
X6503466Y2050186D01*
X6503162Y2045258D01*
X6503619Y2036267D01*
X6504736Y2029155D01*
X6506464Y2024532D01*
X6508648Y2022856D01*
X6510070Y2022551D01*
X6514846Y2020163D01*
X6517589Y2018487D01*
X6523126Y2016048D01*
X6530085Y2014880D01*
X6537909Y2014880D01*
X6546037Y2015947D01*
X6553911Y2017928D01*
X6561023Y2020773D01*
X6566763Y2024380D01*
X6570624Y2028596D01*
X6571691Y2030933D01*
X6571742Y2033219D01*
X6570725Y2035556D01*
X6568541Y2038350D01*
X6564223Y2041956D01*
X6559803Y2043480D01*
X6555638Y2042871D01*
X6548881Y2037435D01*
X6544716Y2035708D01*
X6540042Y2034793D01*
X6535267Y2034743D01*
X6530797Y2035454D01*
X6527088Y2036978D01*
X6524548Y2039264D01*
X6523634Y2042210D01*
X6524701Y2045207D01*
X6527952Y2047290D01*
X6533438Y2048510D01*
X6545275Y2049221D01*
X6549440Y2050034D01*
X6553200Y2051253D01*
X6558178Y2054098D01*
X6560210Y2055012D01*
X6561785Y2055368D01*
X6562801Y2055114D01*
X6564528Y2057552D01*
X6565950Y2065985D01*
X6566560Y2076348D01*
X6566001Y2084832D01*
X6564884Y2088032D01*
X6563156Y2091080D01*
X6561023Y2093620D01*
X6558686Y2095296D01*
X6555079Y2096414D01*
X6549440Y2097328D01*
X6542531Y2097938D01*
G37*
G36*
X6554368Y2004618D02*
G01*
X6554368Y1932025D01*
X6574586Y1932025D01*
X6574840Y1936953D01*
X6575806Y1941626D01*
X6577533Y1945843D01*
X6580073Y1949450D01*
X6585610Y1953971D01*
X6590792Y1954834D01*
X6595618Y1951989D01*
X6600037Y1945538D01*
X6602374Y1938832D01*
X6602730Y1931517D01*
X6601256Y1924050D01*
X6597903Y1916684D01*
X6593890Y1910943D01*
X6590334Y1908708D01*
X6586372Y1909978D01*
X6581089Y1914652D01*
X6578396Y1918207D01*
X6576364Y1922424D01*
X6575145Y1927098D01*
X6574586Y1932025D01*
X6554368Y1932025D01*
X6554368Y1892452D01*
X6599224Y1893722D01*
X6608368Y1894789D01*
X6613194Y1897075D01*
X6616801Y1901240D01*
X6619595Y1905914D01*
X6621221Y1911654D01*
X6621983Y1920036D01*
X6622186Y1932686D01*
X6622186Y1956765D01*
X6628434Y1953463D01*
X6631431Y1952142D01*
X6633972Y1951583D01*
X6636105Y1951837D01*
X6637883Y1952802D01*
X6641592Y1953971D01*
X6646113Y1952752D01*
X6650583Y1949551D01*
X6654139Y1944827D01*
X6655155Y1941017D01*
X6655968Y1934362D01*
X6656527Y1925777D01*
X6656781Y1916226D01*
X6656781Y1892604D01*
X6674662Y1892604D01*
X6674662Y1970125D01*
X6673951Y1970735D01*
X6671767Y1971395D01*
X6663588Y1972513D01*
X6650837Y1973427D01*
X6634225Y1974037D01*
X6630670Y1973834D01*
X6627114Y1973021D01*
X6624066Y1971802D01*
X6621830Y1970227D01*
X6619494Y1968195D01*
X6617258Y1967484D01*
X6614363Y1968144D01*
X6610045Y1970176D01*
X6603339Y1972868D01*
X6596481Y1974138D01*
X6589369Y1974088D01*
X6581851Y1972614D01*
X6574840Y1970684D01*
X6574840Y2004618D01*
G37*
G36*
X6320942Y1975764D02*
G01*
X6315913Y1974443D01*
X6309614Y1971802D01*
X6300927Y1967585D01*
X6306210Y1960067D01*
X6309258Y1956257D01*
X6312408Y1954022D01*
X6316319Y1953056D01*
X6326987Y1952955D01*
X6331000Y1952142D01*
X6334048Y1950415D01*
X6336284Y1947418D01*
X6337757Y1942947D01*
X6338722Y1936750D01*
X6339179Y1928571D01*
X6339281Y1892604D01*
X6359499Y1892604D01*
X6358382Y1972056D01*
X6337858Y1972513D01*
X6332829Y1972970D01*
X6329172Y1973580D01*
X6327343Y1974240D01*
X6324701Y1975662D01*
G37*
G36*
X6272377Y1975662D02*
G01*
X6266230Y1974951D01*
X6258966Y1972411D01*
X6254191Y1969973D01*
X6250076Y1967179D01*
X6246723Y1963928D01*
X6244031Y1960168D01*
X6241948Y1955901D01*
X6240526Y1950974D01*
X6239713Y1945386D01*
X6239632Y1943404D01*
X6256070Y1943404D01*
X6261862Y1949297D01*
X6264452Y1951532D01*
X6267348Y1953412D01*
X6270193Y1954682D01*
X6272580Y1955139D01*
X6274816Y1954682D01*
X6277305Y1953412D01*
X6279642Y1951532D01*
X6281623Y1949297D01*
X6283756Y1945995D01*
X6284163Y1944116D01*
X6282740Y1943201D01*
X6279235Y1942592D01*
X6272225Y1942236D01*
X6264452Y1942592D01*
X6256070Y1943404D01*
X6239632Y1943404D01*
X6239459Y1939137D01*
X6239459Y1923897D01*
X6271412Y1923745D01*
X6283706Y1923034D01*
X6285534Y1922475D01*
X6284315Y1919630D01*
X6281369Y1914652D01*
X6276543Y1910232D01*
X6270244Y1908200D01*
X6264402Y1908759D01*
X6260846Y1912162D01*
X6259931Y1913686D01*
X6258610Y1914906D01*
X6257036Y1915769D01*
X6255359Y1916074D01*
X6250889Y1914448D01*
X6245656Y1910537D01*
X6241288Y1905863D01*
X6239459Y1901901D01*
X6240373Y1899564D01*
X6242812Y1897532D01*
X6246571Y1895805D01*
X6251397Y1894433D01*
X6256934Y1893417D01*
X6263030Y1892757D01*
X6269329Y1892503D01*
X6275628Y1892655D01*
X6281623Y1893214D01*
X6287008Y1894281D01*
X6291580Y1895805D01*
X6295085Y1897837D01*
X6299149Y1901494D01*
X6300012Y1902612D01*
X6299504Y1903628D01*
X6299758Y1905152D01*
X6300571Y1907489D01*
X6303772Y1914956D01*
X6305143Y1920290D01*
X6305956Y1926132D01*
X6306261Y1932279D01*
X6306007Y1938477D01*
X6305245Y1944522D01*
X6303924Y1950212D01*
X6302095Y1955292D01*
X6299250Y1960727D01*
X6295999Y1964943D01*
X6291986Y1968296D01*
X6286906Y1971090D01*
X6278829Y1974392D01*
G37*
G36*
X6403390Y1974951D02*
G01*
X6398514Y1974596D01*
X6393789Y1973783D01*
X6389370Y1972614D01*
X6385356Y1970989D01*
X6381851Y1968906D01*
X6379006Y1966163D01*
X6376771Y1962556D01*
X6375095Y1957882D01*
X6373876Y1951837D01*
X6373114Y1944268D01*
X6372707Y1934819D01*
X6372555Y1919173D01*
X6393027Y1919173D01*
X6393535Y1921510D01*
X6395313Y1922983D01*
X6398869Y1923694D01*
X6404660Y1923897D01*
X6409893Y1923643D01*
X6413804Y1922932D01*
X6416395Y1921713D01*
X6417716Y1919986D01*
X6418580Y1915109D01*
X6417056Y1911400D01*
X6413398Y1909064D01*
X6407708Y1908251D01*
X6401409Y1908962D01*
X6396837Y1911045D01*
X6393992Y1914499D01*
X6393027Y1919173D01*
X6372555Y1919173D01*
X6372555Y1892604D01*
X6411112Y1892757D01*
X6419545Y1893265D01*
X6425946Y1894332D01*
X6430619Y1896110D01*
X6433921Y1898853D01*
X6436106Y1902612D01*
X6437477Y1907692D01*
X6438442Y1914194D01*
X6438849Y1920239D01*
X6438239Y1924812D01*
X6436512Y1928774D01*
X6433362Y1933041D01*
X6429451Y1937004D01*
X6425184Y1939391D01*
X6419189Y1940814D01*
X6401409Y1942338D01*
X6396228Y1943354D01*
X6393738Y1944928D01*
X6393027Y1947367D01*
X6395923Y1952040D01*
X6402527Y1954936D01*
X6409842Y1955342D01*
X6414820Y1952548D01*
X6417665Y1950313D01*
X6421729Y1950212D01*
X6426352Y1952091D01*
X6430873Y1955850D01*
X6434277Y1960778D01*
X6434074Y1964943D01*
X6430111Y1968601D01*
X6422237Y1972208D01*
X6417919Y1973529D01*
X6413246Y1974443D01*
X6408369Y1974900D01*
G37*
G36*
X6723329Y1974697D02*
G01*
X6717588Y1974392D01*
X6711848Y1973630D01*
X6706463Y1972462D01*
X6701586Y1970887D01*
X6697472Y1968906D01*
X6694627Y1966823D01*
X6692392Y1964232D01*
X6690664Y1960727D01*
X6689344Y1956003D01*
X6688480Y1949856D01*
X6687921Y1941880D01*
X6687527Y1920798D01*
X6707936Y1920798D01*
X6711289Y1923084D01*
X6718960Y1923846D01*
X6727393Y1923135D01*
X6732930Y1920849D01*
X6734657Y1916836D01*
X6733184Y1912721D01*
X6729272Y1909521D01*
X6723634Y1908251D01*
X6718147Y1909419D01*
X6713118Y1912366D01*
X6709409Y1916430D01*
X6707936Y1920798D01*
X6687527Y1920798D01*
X6687464Y1892604D01*
X6730796Y1892757D01*
X6739991Y1893519D01*
X6745427Y1895144D01*
X6749084Y1897989D01*
X6751726Y1901291D01*
X6753250Y1905203D01*
X6753859Y1910588D01*
X6753758Y1918207D01*
X6753199Y1926589D01*
X6751878Y1931517D01*
X6749084Y1934616D01*
X6743953Y1937461D01*
X6739331Y1939188D01*
X6733540Y1940661D01*
X6727240Y1941626D01*
X6714236Y1942236D01*
X6710222Y1942896D01*
X6708495Y1944319D01*
X6708444Y1946605D01*
X6711188Y1950923D01*
X6716572Y1953768D01*
X6722922Y1954682D01*
X6728510Y1953056D01*
X6733082Y1950770D01*
X6737096Y1950212D01*
X6741210Y1951583D01*
X6746036Y1954834D01*
X6749846Y1959457D01*
X6749745Y1964182D01*
X6745833Y1968601D01*
X6738264Y1972564D01*
X6733946Y1973783D01*
X6728866Y1974494D01*
G37*
G36*
X6495542Y1973376D02*
G01*
X6492595Y1973173D01*
X6490055Y1972360D01*
X6487820Y1970786D01*
X6485737Y1968246D01*
X6483654Y1964486D01*
X6481470Y1959356D01*
X6474256Y1938477D01*
X6472428Y1934006D01*
X6470904Y1931263D01*
X6469989Y1930654D01*
X6469024Y1932787D01*
X6465519Y1944166D01*
X6458254Y1972056D01*
X6443218Y1973021D01*
X6439763Y1972818D01*
X6437426Y1972360D01*
X6436563Y1971598D01*
X6440170Y1958848D01*
X6460896Y1892655D01*
X6479997Y1892604D01*
X6493967Y1939950D01*
X6500825Y1916480D01*
X6506006Y1895703D01*
X6507683Y1893570D01*
X6510934Y1892909D01*
X6516573Y1893112D01*
X6522567Y1893874D01*
X6526225Y1896008D01*
X6529120Y1901139D01*
X6535318Y1918766D01*
X6541109Y1936800D01*
X6549339Y1963978D01*
X6551168Y1970989D01*
X6550406Y1972716D01*
X6547357Y1973173D01*
X6537401Y1972614D01*
X6534454Y1972208D01*
X6532270Y1971243D01*
X6530492Y1969312D01*
X6528917Y1966010D01*
X6527292Y1960981D01*
X6521297Y1939036D01*
X6519773Y1934972D01*
X6518402Y1932127D01*
X6517335Y1930907D01*
X6514693Y1934464D01*
X6510781Y1943506D01*
X6507022Y1954631D01*
X6504635Y1964232D01*
X6503466Y1971395D01*
X6502755Y1972157D01*
X6500977Y1972818D01*
X6498488Y1973224D01*
G37*
G36*
X5185410Y2672334D02*
G01*
X5106162Y2660192D01*
X5070805Y2646527D01*
X5056581Y2640177D01*
X5041798Y2632964D01*
X5028234Y2625750D01*
X4996891Y2606852D01*
X4942840Y2551633D01*
X4925212Y2520645D01*
X4918557Y2507640D01*
X4912004Y2493721D01*
X4906314Y2480564D01*
X4894326Y2448763D01*
X4894587Y2376576D01*
X4995113Y2376576D01*
X4999431Y2437892D01*
X5025898Y2491282D01*
X5069179Y2532938D01*
X5120690Y2559354D01*
X5160873Y2566720D01*
X5174640Y2568956D01*
X5185714Y2570124D01*
X5195620Y2570175D01*
X5206238Y2569108D01*
X5219141Y2566974D01*
X5251958Y2560726D01*
X5309260Y2534869D01*
X5339232Y2511298D01*
X5348071Y2503932D01*
X5356504Y2496413D01*
X5364581Y2488641D01*
X5372455Y2480564D01*
X5380126Y2472131D01*
X5387644Y2463241D01*
X5395112Y2453843D01*
X5402580Y2443835D01*
X5410047Y2433218D01*
X5432907Y2399233D01*
X5432907Y2392984D01*
X5432501Y2391105D01*
X5430927Y2387295D01*
X5553557Y2387295D01*
X5553557Y2393442D01*
X5553964Y2395270D01*
X5556859Y2401773D01*
X5562142Y2411171D01*
X5569102Y2422296D01*
X5592470Y2456789D01*
X5668568Y2530043D01*
X5738672Y2562352D01*
X5789015Y2569514D01*
X5798362Y2570276D01*
X5806694Y2570073D01*
X5816142Y2568854D01*
X5864250Y2559710D01*
X5916777Y2534158D01*
X5959652Y2492857D01*
X5988253Y2436876D01*
X5987745Y2348534D01*
X5976112Y2324049D01*
X5970320Y2313787D01*
X5963462Y2302814D01*
X5956249Y2292451D01*
X5936742Y2267356D01*
X5885230Y2234184D01*
X5827572Y2217318D01*
X5751118Y2220976D01*
X5701233Y2238349D01*
X5645404Y2274976D01*
X5617464Y2303881D01*
X5609793Y2312365D01*
X5601563Y2322017D01*
X5585307Y2342286D01*
X5578195Y2351887D01*
X5553557Y2387295D01*
X5430927Y2387295D01*
X5427268Y2379980D01*
X5421122Y2369413D01*
X5413654Y2357577D01*
X5394452Y2328468D01*
X5318506Y2256282D01*
X5285536Y2240432D01*
X5272430Y2234844D01*
X5258917Y2229713D01*
X5246674Y2225649D01*
X5218684Y2218334D01*
X5152136Y2218436D01*
X5095036Y2237841D01*
X5073853Y2252065D01*
X5063032Y2260346D01*
X5052923Y2269185D01*
X5043525Y2278634D01*
X5034686Y2288743D01*
X5026406Y2299614D01*
X5008524Y2326284D01*
X4995113Y2376576D01*
X4894587Y2376576D01*
X4894732Y2336495D01*
X4908092Y2300732D01*
X4914087Y2286863D01*
X4920742Y2272792D01*
X4927346Y2260295D01*
X4944160Y2232660D01*
X4998212Y2179269D01*
X5050637Y2146655D01*
X5084521Y2134565D01*
X5097830Y2130348D01*
X5111343Y2126437D01*
X5123434Y2123389D01*
X5150459Y2118055D01*
X5231638Y2118055D01*
X5301894Y2135073D01*
X5335168Y2151126D01*
X5344464Y2156053D01*
X5354523Y2161692D01*
X5374741Y2173986D01*
X5383733Y2179929D01*
X5415381Y2202332D01*
X5448604Y2236368D01*
X5460136Y2248865D01*
X5470601Y2260955D01*
X5478830Y2271064D01*
X5493004Y2291537D01*
X5503621Y2277516D01*
X5518404Y2259533D01*
X5555081Y2217115D01*
X5622188Y2165654D01*
X5689193Y2134158D01*
X5754573Y2118055D01*
X5842660Y2118309D01*
X5874512Y2126081D01*
X5889701Y2130044D01*
X5907938Y2135784D01*
X5919114Y2140204D01*
X5931103Y2145639D01*
X5975756Y2167890D01*
X6046470Y2236266D01*
X6080963Y2300427D01*
X6094323Y2353056D01*
X6094323Y2432202D01*
X6080760Y2484831D01*
X6048552Y2546858D01*
X5992520Y2604109D01*
X5963818Y2622753D01*
X5952337Y2629611D01*
X5940856Y2635859D01*
X5929274Y2641498D01*
X5917387Y2646629D01*
X5905144Y2651201D01*
X5892444Y2655366D01*
X5879185Y2659075D01*
X5865215Y2662377D01*
X5850382Y2665374D01*
X5837072Y2667711D01*
X5826455Y2669133D01*
X5816295Y2670098D01*
X5806236Y2670505D01*
X5795822Y2670403D01*
X5784697Y2669743D01*
X5772454Y2668574D01*
X5758688Y2666847D01*
X5713679Y2660345D01*
X5647740Y2634843D01*
X5588914Y2597150D01*
X5555284Y2566314D01*
X5542127Y2553360D01*
X5533339Y2544165D01*
X5525109Y2535123D01*
X5517845Y2526741D01*
X5512054Y2519476D01*
X5494121Y2495753D01*
X5467045Y2528468D01*
X5459018Y2537561D01*
X5449976Y2547264D01*
X5440375Y2557170D01*
X5430774Y2566670D01*
X5421731Y2575255D01*
X5388203Y2605125D01*
X5321808Y2643581D01*
X5263845Y2662478D01*
G37*
G36*
X4911496Y2647188D02*
G01*
X4896307Y2633929D01*
X4896307Y2621838D01*
X4901234Y2621838D01*
X4908651Y2633167D01*
X4908702Y2628493D01*
X4909691Y2622651D01*
X4938420Y2622651D01*
X4938674Y2625750D01*
X4939334Y2628239D01*
X4941417Y2633167D01*
X4941112Y2609088D01*
X4939182Y2616200D01*
X4938572Y2619349D01*
X4938420Y2622651D01*
X4909691Y2622651D01*
X4911293Y2617470D01*
X4913833Y2611120D01*
X4909667Y2611120D01*
X4907889Y2611526D01*
X4906111Y2612694D01*
X4904536Y2614422D01*
X4903368Y2616504D01*
X4901234Y2621838D01*
X4896307Y2621838D01*
X4896307Y2609748D01*
X4902546Y2603093D01*
X4917338Y2603093D01*
X4920792Y2611424D01*
X4921910Y2613355D01*
X4922977Y2614625D01*
X4923790Y2615133D01*
X4924399Y2614625D01*
X4924958Y2613355D01*
X4925314Y2611424D01*
X4925415Y2603093D01*
X4902546Y2603093D01*
X4910074Y2595067D01*
X4933746Y2595067D01*
X4950358Y2611120D01*
X4950358Y2629357D01*
X4937404Y2647188D01*
G37*
G36*
X5166664Y2478836D02*
G01*
X5166664Y2422702D01*
X5108448Y2422702D01*
X5108448Y2362555D01*
X5166664Y2362555D01*
X5166664Y2306421D01*
X5229098Y2306421D01*
X5229098Y2362555D01*
X5287314Y2362555D01*
X5287314Y2422702D01*
X5229098Y2422702D01*
X5229098Y2478836D01*
G37*
G36*
X5876442Y2422855D02*
G01*
X5701233Y2420670D01*
X5701233Y2364587D01*
X5882182Y2362403D01*
X5882182Y2417368D01*
G37*
G36*
X5002377Y2041499D02*
G01*
X4986020Y2039518D01*
X4978552Y2038248D01*
X4970424Y2036267D01*
X4962601Y2033879D01*
X4956048Y2031288D01*
X4942433Y2025091D01*
X4925415Y1991207D01*
X4925415Y1925066D01*
X4971186Y1925066D01*
X4971186Y1989734D01*
X4979517Y1997760D01*
X4985105Y2002434D01*
X4990388Y2004720D01*
X4996738Y2004822D01*
X5005476Y2003043D01*
X5012791Y2001164D01*
X5015890Y1990445D01*
X5017109Y1984044D01*
X5018074Y1974545D01*
X5018786Y1963166D01*
X5019040Y1951278D01*
X5019040Y1922830D01*
X5007610Y1909572D01*
X4979771Y1909572D01*
X4971186Y1925066D01*
X4925415Y1925066D01*
X4925415Y1924151D01*
X4942078Y1891030D01*
X4976063Y1872589D01*
X5025390Y1875993D01*
X5036769Y1884172D01*
X5041849Y1888439D01*
X5047234Y1893976D01*
X5052314Y1900072D01*
X5056479Y1905965D01*
X5064760Y1919579D01*
X5064455Y1991766D01*
X5057749Y2003755D01*
X5054346Y2009139D01*
X5050129Y2014829D01*
X5045557Y2020163D01*
X5041239Y2024481D01*
X5031486Y2033168D01*
G37*
G36*
X5886348Y2038705D02*
G01*
X5788558Y2035860D01*
X5761736Y2017420D01*
X5752846Y1985619D01*
X5753542Y1982063D01*
X5797804Y1982063D01*
X5807100Y2001774D01*
X5845200Y2001774D01*
X5842660Y1963674D01*
X5811977Y1961235D01*
X5797804Y1982063D01*
X5753542Y1982063D01*
X5758434Y1957120D01*
X5779820Y1932584D01*
X5749239Y1878685D01*
X5751931Y1876094D01*
X5754725Y1875078D01*
X5760415Y1874266D01*
X5768086Y1873707D01*
X5777026Y1873504D01*
X5799429Y1873504D01*
X5824931Y1926031D01*
X5842660Y1923592D01*
X5844235Y1882038D01*
X5844743Y1873504D01*
X5886348Y1873504D01*
G37*
G36*
X5229098Y2038248D02*
G01*
X5181854Y2035860D01*
X5135473Y1953158D01*
X5133136Y2037842D01*
X5091836Y2037842D01*
X5091836Y1873097D01*
X5134559Y1875485D01*
X5185410Y1966671D01*
X5189575Y1875485D01*
X5229098Y1873046D01*
G37*
G36*
X5257749Y2037842D02*
G01*
X5260289Y2003755D01*
X5303977Y2001367D01*
X5303977Y1909572D01*
X5257749Y1909572D01*
X5260289Y1875485D01*
X5389219Y1875485D01*
X5391759Y1909114D01*
X5347665Y1911553D01*
X5345277Y2001774D01*
X5391302Y2001774D01*
X5391302Y2037842D01*
G37*
G36*
X5424576Y2037842D02*
G01*
X5424627Y1911553D01*
X5440984Y1885746D01*
X5471363Y1873504D01*
X5512206Y1873504D01*
X5525617Y1878939D01*
X5531459Y1881784D01*
X5537504Y1885442D01*
X5543042Y1889455D01*
X5547309Y1893417D01*
X5555640Y1902358D01*
X5558434Y2037842D01*
X5516880Y2037842D01*
X5514035Y1922830D01*
X5502605Y1909572D01*
X5474817Y1909572D01*
X5466181Y1925066D01*
X5466181Y2037842D01*
G37*
G36*
X5687720Y2037842D02*
G01*
X5651296Y2037791D01*
X5618022Y2029053D01*
X5608269Y2020417D01*
X5604002Y2016201D01*
X5599684Y2011172D01*
X5595721Y2005838D01*
X5592673Y2000961D01*
X5586831Y1990140D01*
X5586831Y1930095D01*
X5631688Y1930095D01*
X5634837Y1989531D01*
X5651296Y2001520D01*
X5678322Y2001774D01*
X5678322Y1909572D01*
X5653024Y1909572D01*
X5631688Y1930095D01*
X5586831Y1930095D01*
X5586831Y1924710D01*
X5605018Y1893519D01*
X5640984Y1876755D01*
X5724093Y1872335D01*
X5724093Y2037842D01*
G37*
G36*
X5962700Y2037842D02*
G01*
X5932148Y1943658D01*
X5975299Y1943658D01*
X5989218Y1987753D01*
X5993384Y1975662D01*
X5997194Y1962861D01*
X5999988Y1951482D01*
X6000851Y1947062D01*
X6001207Y1944014D01*
X6001004Y1942541D01*
X5999429Y1942084D01*
X5996381Y1941880D01*
X5992164Y1941982D01*
X5975299Y1943658D01*
X5932148Y1943658D01*
X5916777Y1896516D01*
X5911545Y1878482D01*
X5911291Y1877009D01*
X5911291Y1873504D01*
X5953556Y1873504D01*
X5966612Y1905558D01*
X6010808Y1905558D01*
X6019749Y1873504D01*
X6060541Y1873504D01*
X6062319Y1876501D01*
X6062268Y1879904D01*
X6060795Y1886864D01*
X6058154Y1896414D01*
X6013246Y2032863D01*
X6011367Y2037842D01*
G37*
G36*
X7158481Y1604314D02*
G01*
X7158481Y1574190D01*
X7343038Y1574190D01*
X7343038Y1419758D01*
X7188606Y1419758D01*
X7188606Y1574190D01*
X7158481Y1574190D01*
X7158481Y1385874D01*
X7376922Y1385874D01*
X7376922Y1604314D01*
G37*
G36*
X7501178Y1604314D02*
G01*
X7501178Y1574190D01*
X7531303Y1574190D01*
X7531303Y1510182D01*
X7501178Y1510182D01*
X7501178Y1544066D01*
X7467295Y1544066D01*
X7467295Y1574190D01*
X7407046Y1574190D01*
X7407046Y1544066D01*
X7467295Y1544066D01*
X7467295Y1510182D01*
X7501178Y1510182D01*
X7501178Y1480007D01*
X7531303Y1480007D01*
X7531303Y1449933D01*
X7501178Y1449933D01*
X7501178Y1480007D01*
X7467295Y1480007D01*
X7467295Y1510182D01*
X7437170Y1510182D01*
X7437170Y1544066D01*
X7407046Y1544066D01*
X7407046Y1480007D01*
X7437170Y1480007D01*
X7437170Y1449933D01*
X7467295Y1449933D01*
X7467295Y1385874D01*
X7437170Y1385874D01*
X7437170Y1449933D01*
X7407046Y1449933D01*
X7407046Y1325626D01*
X7376922Y1325626D01*
X7376922Y1355750D01*
X7343038Y1355750D01*
X7343038Y1325626D01*
X7282789Y1325626D01*
X7282789Y1261618D01*
X7252665Y1261618D01*
X7252665Y1325626D01*
X7188606Y1325626D01*
X7188606Y1355750D01*
X7158481Y1355750D01*
X7158481Y1325626D01*
X7188606Y1325626D01*
X7188606Y1295501D01*
X7218730Y1295501D01*
X7218730Y1261618D01*
X7252665Y1261618D01*
X7252665Y1231493D01*
X7282789Y1231493D01*
X7282789Y1261618D01*
X7312914Y1261618D01*
X7312914Y1201369D01*
X7188606Y1201369D01*
X7188606Y1261618D01*
X7158481Y1261618D01*
X7158481Y1107236D01*
X7188606Y1107236D01*
X7188606Y1171244D01*
X7218730Y1171244D01*
X7218730Y1107236D01*
X7252665Y1107236D01*
X7252665Y1077112D01*
X7188606Y1077112D01*
X7188606Y1046987D01*
X7158481Y1046987D01*
X7158481Y1013104D01*
X7188606Y1013104D01*
X7188606Y1046987D01*
X7252665Y1046987D01*
X7252665Y1077112D01*
X7282789Y1077112D01*
X7282789Y1107236D01*
X7252665Y1107236D01*
X7252665Y1171244D01*
X7282789Y1171244D01*
X7282789Y1107236D01*
X7343038Y1107236D01*
X7343038Y1137361D01*
X7312914Y1137361D01*
X7312914Y1171244D01*
X7343038Y1171244D01*
X7343038Y1137361D01*
X7437170Y1137361D01*
X7437170Y1107236D01*
X7376922Y1107236D01*
X7376922Y1077112D01*
X7437170Y1077112D01*
X7437170Y982980D01*
X7467295Y982980D01*
X7467295Y1013104D01*
X7531303Y1013104D01*
X7531303Y1046987D01*
X7501178Y1046987D01*
X7501178Y1077112D01*
X7467295Y1077112D01*
X7467295Y1137361D01*
X7561427Y1137361D01*
X7561427Y1201369D01*
X7591552Y1201369D01*
X7591552Y1231493D01*
X7561427Y1231493D01*
X7561427Y1261618D01*
X7591552Y1261618D01*
X7591552Y1295501D01*
X7561427Y1295501D01*
X7561427Y1325626D01*
X7531303Y1325626D01*
X7531303Y1295501D01*
X7501178Y1295501D01*
X7501178Y1231493D01*
X7531303Y1231493D01*
X7531303Y1171244D01*
X7467295Y1171244D01*
X7467295Y1261618D01*
X7437170Y1261618D01*
X7437170Y1171244D01*
X7376922Y1171244D01*
X7376922Y1231493D01*
X7407046Y1231493D01*
X7407046Y1261618D01*
X7343038Y1261618D01*
X7343038Y1325626D01*
X7376922Y1325626D01*
X7376922Y1295501D01*
X7407046Y1295501D01*
X7407046Y1325626D01*
X7437170Y1325626D01*
X7437170Y1355750D01*
X7501178Y1355750D01*
X7501178Y1419758D01*
X7531303Y1419758D01*
X7531303Y1355750D01*
X7591552Y1355750D01*
X7591552Y1385874D01*
X7561427Y1385874D01*
X7561427Y1419758D01*
X7591552Y1419758D01*
X7591552Y1385874D01*
X7625435Y1385874D01*
X7625435Y1261618D01*
X7655559Y1261618D01*
X7655559Y1295501D01*
X7685684Y1295501D01*
X7685684Y1325626D01*
X7655559Y1325626D01*
X7655559Y1385874D01*
X7685684Y1385874D01*
X7685684Y1449933D01*
X7715808Y1449933D01*
X7715808Y1385874D01*
X7685684Y1385874D01*
X7685684Y1325626D01*
X7749692Y1325626D01*
X7749692Y1295501D01*
X7779816Y1295501D01*
X7779816Y1261618D01*
X7749692Y1261618D01*
X7749692Y1295501D01*
X7685684Y1295501D01*
X7685684Y1261618D01*
X7625435Y1261618D01*
X7625435Y1201369D01*
X7591552Y1201369D01*
X7591552Y1171244D01*
X7655559Y1171244D01*
X7655559Y1201369D01*
X7715808Y1201369D01*
X7715808Y1231493D01*
X7840065Y1231493D01*
X7840065Y1201369D01*
X7809992Y1201369D01*
X7809992Y1171244D01*
X7779816Y1171244D01*
X7779816Y1231493D01*
X7749692Y1231493D01*
X7749692Y1171244D01*
X7625435Y1171244D01*
X7625435Y1137361D01*
X7685684Y1137361D01*
X7685684Y1107236D01*
X7749692Y1107236D01*
X7749692Y1137361D01*
X7874000Y1137361D01*
X7874000Y1107236D01*
X7840065Y1107236D01*
X7840065Y1137361D01*
X7779816Y1137361D01*
X7779816Y1107236D01*
X7809992Y1107236D01*
X7809992Y1077112D01*
X7874000Y1077112D01*
X7874000Y1046987D01*
X7840065Y1046987D01*
X7840065Y1077112D01*
X7809992Y1077112D01*
X7809992Y1046987D01*
X7779816Y1046987D01*
X7779816Y1107236D01*
X7749692Y1107236D01*
X7749692Y1077112D01*
X7625435Y1077112D01*
X7625435Y1107236D01*
X7591552Y1107236D01*
X7591552Y1046987D01*
X7685684Y1046987D01*
X7685684Y1013104D01*
X7655559Y1013104D01*
X7655559Y982980D01*
X7625435Y982980D01*
X7625435Y1013104D01*
X7591552Y1013104D01*
X7591552Y982980D01*
X7501178Y982980D01*
X7501178Y952855D01*
X7591552Y952855D01*
X7591552Y888796D01*
X7561427Y888796D01*
X7561427Y858672D01*
X7531303Y858672D01*
X7531303Y888796D01*
X7501178Y888796D01*
X7501178Y828548D01*
X7467295Y828548D01*
X7467295Y888796D01*
X7501178Y888796D01*
X7501178Y922731D01*
X7437170Y922731D01*
X7437170Y982980D01*
X7376922Y982980D01*
X7376922Y1013104D01*
X7343038Y1013104D01*
X7343038Y982980D01*
X7282789Y982980D01*
X7282789Y1013104D01*
X7312914Y1013104D01*
X7312914Y1077112D01*
X7282789Y1077112D01*
X7282789Y1046987D01*
X7252665Y1046987D01*
X7252665Y1013104D01*
X7218730Y1013104D01*
X7218730Y982980D01*
X7188606Y982980D01*
X7188606Y952855D01*
X7407046Y952855D01*
X7407046Y858672D01*
X7312914Y858672D01*
X7312914Y952855D01*
X7252665Y952855D01*
X7252665Y888796D01*
X7282789Y888796D01*
X7282789Y858672D01*
X7252665Y858672D01*
X7252665Y828548D01*
X7376922Y828548D01*
X7376922Y764540D01*
X7343038Y764540D01*
X7343038Y798423D01*
X7282789Y798423D01*
X7282789Y764540D01*
X7312914Y764540D01*
X7312914Y734415D01*
X7282789Y734415D01*
X7282789Y764540D01*
X7252665Y764540D01*
X7252665Y798423D01*
X7218730Y798423D01*
X7218730Y828548D01*
X7188606Y828548D01*
X7188606Y798423D01*
X7158481Y798423D01*
X7158481Y734415D01*
X7188606Y734415D01*
X7188606Y764540D01*
X7218730Y764540D01*
X7218730Y734415D01*
X7282789Y734415D01*
X7282789Y704291D01*
X7312914Y704291D01*
X7312914Y734415D01*
X7343038Y734415D01*
X7343038Y704291D01*
X7376922Y704291D01*
X7376922Y764540D01*
X7437170Y764540D01*
X7437170Y798423D01*
X7407046Y798423D01*
X7407046Y828548D01*
X7467295Y828548D01*
X7467295Y798423D01*
X7501178Y798423D01*
X7501178Y828548D01*
X7561427Y828548D01*
X7561427Y858672D01*
X7591552Y858672D01*
X7591552Y828548D01*
X7655559Y828548D01*
X7655559Y798423D01*
X7685684Y798423D01*
X7685684Y828548D01*
X7655559Y828548D01*
X7655559Y858672D01*
X7625435Y858672D01*
X7625435Y952855D01*
X7685684Y952855D01*
X7685684Y1013104D01*
X7715808Y1013104D01*
X7715808Y1046987D01*
X7779816Y1046987D01*
X7779816Y1013104D01*
X7749692Y1013104D01*
X7749692Y982980D01*
X7809992Y982980D01*
X7809992Y952855D01*
X7779816Y952855D01*
X7779816Y982980D01*
X7715808Y982980D01*
X7715808Y888796D01*
X7749692Y888796D01*
X7749692Y858672D01*
X7779816Y858672D01*
X7779816Y828548D01*
X7715808Y828548D01*
X7715808Y764540D01*
X7779816Y764540D01*
X7779816Y704291D01*
X7809992Y704291D01*
X7809992Y764540D01*
X7779816Y764540D01*
X7779816Y798423D01*
X7809992Y798423D01*
X7809992Y858672D01*
X7779816Y858672D01*
X7779816Y888796D01*
X7749692Y888796D01*
X7749692Y952855D01*
X7779816Y952855D01*
X7779816Y922731D01*
X7809992Y922731D01*
X7809992Y952855D01*
X7874000Y952855D01*
X7874000Y982980D01*
X7809992Y982980D01*
X7809992Y1046987D01*
X7840065Y1046987D01*
X7840065Y1013104D01*
X7874000Y1013104D01*
X7874000Y1046987D01*
X7904124Y1046987D01*
X7904124Y1013104D01*
X7934248Y1013104D01*
X7934248Y1046987D01*
X7964373Y1046987D01*
X7964373Y1077112D01*
X7874000Y1077112D01*
X7874000Y1107236D01*
X7904124Y1107236D01*
X7904124Y1137361D01*
X7874000Y1137361D01*
X7874000Y1171244D01*
X7840065Y1171244D01*
X7840065Y1201369D01*
X7904124Y1201369D01*
X7904124Y1171244D01*
X7964373Y1171244D01*
X7964373Y1137361D01*
X7934248Y1137361D01*
X7934248Y1107236D01*
X7964373Y1107236D01*
X7964373Y1137361D01*
X7998256Y1137361D01*
X7998256Y1107236D01*
X8028381Y1107236D01*
X8028381Y1137361D01*
X7998256Y1137361D01*
X7998256Y1201369D01*
X8028381Y1201369D01*
X8028381Y1171244D01*
X8058505Y1171244D01*
X8058505Y1201369D01*
X8028381Y1201369D01*
X8028381Y1325626D01*
X8058505Y1325626D01*
X8058505Y1355750D01*
X7998256Y1355750D01*
X7998256Y1295501D01*
X7964373Y1295501D01*
X7964373Y1355750D01*
X7904124Y1355750D01*
X7904124Y1295501D01*
X7964373Y1295501D01*
X7964373Y1261618D01*
X7998256Y1261618D01*
X7998256Y1201369D01*
X7964373Y1201369D01*
X7964373Y1231493D01*
X7934248Y1231493D01*
X7934248Y1295501D01*
X7904124Y1295501D01*
X7904124Y1231493D01*
X7840065Y1231493D01*
X7840065Y1261618D01*
X7874000Y1261618D01*
X7874000Y1295501D01*
X7840065Y1295501D01*
X7840065Y1261618D01*
X7809992Y1261618D01*
X7809992Y1325626D01*
X7779816Y1325626D01*
X7779816Y1355750D01*
X7809992Y1355750D01*
X7809992Y1419758D01*
X7779816Y1419758D01*
X7779816Y1355750D01*
X7749692Y1355750D01*
X7749692Y1449933D01*
X7779816Y1449933D01*
X7779816Y1480007D01*
X7749692Y1480007D01*
X7749692Y1449933D01*
X7715808Y1449933D01*
X7715808Y1480007D01*
X7685684Y1480007D01*
X7685684Y1544066D01*
X7655559Y1544066D01*
X7655559Y1480007D01*
X7685684Y1480007D01*
X7685684Y1449933D01*
X7655559Y1449933D01*
X7655559Y1385874D01*
X7625435Y1385874D01*
X7625435Y1419758D01*
X7591552Y1419758D01*
X7591552Y1449933D01*
X7625435Y1449933D01*
X7625435Y1480007D01*
X7561427Y1480007D01*
X7561427Y1510182D01*
X7591552Y1510182D01*
X7591552Y1544066D01*
X7561427Y1544066D01*
X7561427Y1574190D01*
X7591552Y1574190D01*
X7591552Y1604314D01*
G37*
G36*
X7655559Y1604314D02*
G01*
X7655559Y1574190D01*
X7715808Y1574190D01*
X7715808Y1510182D01*
X7749692Y1510182D01*
X7749692Y1544066D01*
X7779816Y1544066D01*
X7779816Y1574190D01*
X7809992Y1574190D01*
X7809992Y1604314D01*
X7779816Y1604314D01*
X7779816Y1574190D01*
X7715808Y1574190D01*
X7715808Y1604314D01*
G37*
G36*
X7840065Y1604314D02*
G01*
X7840065Y1574190D01*
X8028381Y1574190D01*
X8028381Y1419758D01*
X7874000Y1419758D01*
X7874000Y1574190D01*
X7840065Y1574190D01*
X7840065Y1385874D01*
X8058505Y1385874D01*
X8058505Y1604314D01*
G37*
G36*
X7218730Y1544066D02*
G01*
X7218730Y1449933D01*
X7312914Y1449933D01*
X7312914Y1544066D01*
G37*
G36*
X7904124Y1544066D02*
G01*
X7904124Y1449933D01*
X7998256Y1449933D01*
X7998256Y1544066D01*
G37*
G36*
X7501178Y1355750D02*
G01*
X7501178Y1325626D01*
X7437170Y1325626D01*
X7437170Y1295501D01*
X7501178Y1295501D01*
X7501178Y1325626D01*
X7531303Y1325626D01*
X7531303Y1355750D01*
G37*
G36*
X7840065Y1355750D02*
G01*
X7840065Y1325626D01*
X7874000Y1325626D01*
X7874000Y1355750D01*
G37*
G36*
X7561427Y1137361D02*
G01*
X7561427Y1107236D01*
X7531303Y1107236D01*
X7531303Y1046987D01*
X7561427Y1046987D01*
X7561427Y1013104D01*
X7591552Y1013104D01*
X7591552Y1046987D01*
X7561427Y1046987D01*
X7561427Y1107236D01*
X7591552Y1107236D01*
X7591552Y1137361D01*
G37*
G36*
X8028381Y1077112D02*
G01*
X8028381Y1046987D01*
X7998256Y1046987D01*
X7998256Y952855D01*
X8058505Y952855D01*
X8058505Y1077112D01*
G37*
G36*
X7904124Y982980D02*
G01*
X7904124Y952855D01*
X7934248Y952855D01*
X7934248Y982980D01*
G37*
G36*
X7343038Y922731D02*
G01*
X7343038Y888796D01*
X7376922Y888796D01*
X7376922Y922731D01*
G37*
G36*
X7655559Y922731D02*
G01*
X7655559Y888796D01*
X7685684Y888796D01*
X7685684Y922731D01*
G37*
G36*
X7840065Y922731D02*
G01*
X7840065Y888796D01*
X8028381Y888796D01*
X8028381Y734415D01*
X7874000Y734415D01*
X7874000Y888796D01*
X7840065Y888796D01*
X7840065Y704291D01*
X8058505Y704291D01*
X8058505Y922731D01*
G37*
G36*
X7904124Y858672D02*
G01*
X7904124Y764540D01*
X7998256Y764540D01*
X7998256Y858672D01*
G37*
G36*
X7561427Y798423D02*
G01*
X7561427Y764540D01*
X7591552Y764540D01*
X7591552Y734415D01*
X7531303Y734415D01*
X7531303Y704291D01*
X7591552Y704291D01*
X7591552Y734415D01*
X7655559Y734415D01*
X7655559Y704291D01*
X7749692Y704291D01*
X7749692Y734415D01*
X7685684Y734415D01*
X7685684Y764540D01*
X7625435Y764540D01*
X7625435Y798423D01*
G37*
G36*
X7467295Y764540D02*
G01*
X7467295Y734415D01*
X7407046Y734415D01*
X7407046Y704291D01*
X7467295Y704291D01*
X7467295Y734415D01*
X7501178Y734415D01*
X7501178Y764540D01*
G37*
G36*
X6134912Y1598574D02*
G01*
X6134912Y1574139D01*
X6277965Y1574139D01*
X6277965Y1452067D01*
X6159347Y1452067D01*
X6159347Y1574139D01*
X6134912Y1574139D01*
X6134912Y1427632D01*
X6305854Y1427632D01*
X6305854Y1598574D01*
G37*
G36*
X6351219Y1598574D02*
G01*
X6351219Y1549704D01*
X6326784Y1549704D01*
X6326784Y1427632D01*
X6340754Y1427632D01*
X6348679Y1427886D01*
X6352844Y1429258D01*
X6354419Y1432915D01*
X6354978Y1446479D01*
X6356299Y1450187D01*
X6359448Y1451711D01*
X6365138Y1452067D01*
X6370878Y1451711D01*
X6373977Y1450187D01*
X6375349Y1446479D01*
X6375908Y1432915D01*
X6377482Y1429258D01*
X6381648Y1427886D01*
X6389573Y1427632D01*
X6397498Y1427886D01*
X6401663Y1429258D01*
X6403238Y1432915D01*
X6403797Y1446479D01*
X6405168Y1450187D01*
X6408267Y1451711D01*
X6414008Y1452067D01*
X6424472Y1452067D01*
X6424472Y1403197D01*
X6693052Y1403197D01*
X6693052Y1382268D01*
X6647688Y1382268D01*
X6647688Y1403197D01*
X6546545Y1403197D01*
X6546545Y1382268D01*
X6501180Y1382268D01*
X6501180Y1403197D01*
X6473291Y1403197D01*
X6473291Y1382268D01*
X6403949Y1382268D01*
X6401765Y1404975D01*
X6352946Y1404975D01*
X6351879Y1393850D01*
X6350914Y1387957D01*
X6349034Y1384452D01*
X6345529Y1382572D01*
X6339636Y1381607D01*
X6328511Y1380540D01*
X6326479Y1329944D01*
X6338824Y1329944D01*
X6345580Y1329690D01*
X6349288Y1328369D01*
X6350863Y1325270D01*
X6351219Y1319733D01*
X6350812Y1314297D01*
X6349288Y1311046D01*
X6345834Y1309268D01*
X6333693Y1307439D01*
X6330137Y1305407D01*
X6328359Y1301343D01*
X6327444Y1294180D01*
X6327038Y1286713D01*
X6328156Y1282852D01*
X6331712Y1281379D01*
X6345732Y1280871D01*
X6349441Y1279398D01*
X6350914Y1275740D01*
X6351473Y1262126D01*
X6352946Y1258468D01*
X6356604Y1256995D01*
X6363411Y1256690D01*
X6375603Y1256690D01*
X6375603Y1207871D01*
X6424472Y1207871D01*
X6424472Y1159052D01*
X6438392Y1159052D01*
X6446316Y1159256D01*
X6450482Y1160678D01*
X6452108Y1164285D01*
X6452666Y1177340D01*
X6453733Y1181049D01*
X6455867Y1182928D01*
X6463131Y1184198D01*
X6465214Y1187602D01*
X6466128Y1195476D01*
X6466332Y1209598D01*
X6466128Y1223772D01*
X6465214Y1231646D01*
X6463131Y1235049D01*
X6455968Y1236268D01*
X6453835Y1237945D01*
X6452666Y1241196D01*
X6452362Y1246225D01*
X6452666Y1251966D01*
X6454241Y1255064D01*
X6457899Y1256436D01*
X6471361Y1256995D01*
X6475018Y1258468D01*
X6476492Y1262126D01*
X6477050Y1275740D01*
X6478524Y1279398D01*
X6482181Y1280871D01*
X6488988Y1281125D01*
X6501180Y1281125D01*
X6501180Y1333754D01*
X6450634Y1331722D01*
X6449517Y1318615D01*
X6449161Y1311148D01*
X6450228Y1307236D01*
X6453784Y1305763D01*
X6467652Y1305255D01*
X6471412Y1303934D01*
X6472986Y1300784D01*
X6473291Y1295095D01*
X6473291Y1284630D01*
X6427927Y1284630D01*
X6427927Y1333855D01*
X6401765Y1331722D01*
X6399784Y1260195D01*
X6379108Y1260195D01*
X6379108Y1333449D01*
X6354673Y1333449D01*
X6354673Y1378813D01*
X6400038Y1378813D01*
X6400038Y1354378D01*
X6522110Y1354378D01*
X6522110Y1342186D01*
X6522415Y1335227D01*
X6523990Y1331620D01*
X6528155Y1330198D01*
X6536080Y1329944D01*
X6544005Y1330198D01*
X6548170Y1331620D01*
X6549796Y1335227D01*
X6550304Y1348994D01*
X6551777Y1352651D01*
X6555435Y1354124D01*
X6569049Y1354632D01*
X6572707Y1356106D01*
X6574180Y1359763D01*
X6574485Y1366570D01*
X6574485Y1378813D01*
X6644233Y1378813D01*
X6644233Y1354378D01*
X6696557Y1354378D01*
X6696557Y1378813D01*
X6766306Y1378813D01*
X6766306Y1354378D01*
X6815175Y1354378D01*
X6815175Y1309014D01*
X6804914Y1309014D01*
X6799478Y1309420D01*
X6796227Y1310944D01*
X6794500Y1314399D01*
X6792620Y1326540D01*
X6790588Y1330096D01*
X6786524Y1331874D01*
X6779412Y1332788D01*
X6766306Y1333855D01*
X6766306Y1319682D01*
X6766559Y1311656D01*
X6767931Y1307439D01*
X6771589Y1305814D01*
X6785152Y1305255D01*
X6788861Y1303934D01*
X6790385Y1300784D01*
X6790740Y1295095D01*
X6790740Y1284630D01*
X6745833Y1284630D01*
X6743649Y1307287D01*
X6696964Y1309319D01*
X6695897Y1320546D01*
X6694931Y1326591D01*
X6692900Y1330096D01*
X6688836Y1331874D01*
X6681724Y1332788D01*
X6674256Y1333195D01*
X6670344Y1332077D01*
X6668871Y1328521D01*
X6668363Y1314653D01*
X6667042Y1310944D01*
X6663893Y1309370D01*
X6658152Y1309014D01*
X6652463Y1309370D01*
X6649313Y1310944D01*
X6647992Y1314602D01*
X6647434Y1328013D01*
X6645960Y1331671D01*
X6642404Y1333195D01*
X6629196Y1333754D01*
X6625437Y1335227D01*
X6623558Y1338630D01*
X6621678Y1350975D01*
X6619646Y1354531D01*
X6615582Y1356309D01*
X6608470Y1357223D01*
X6601002Y1357579D01*
X6597091Y1356512D01*
X6595618Y1352956D01*
X6595109Y1338935D01*
X6593636Y1335227D01*
X6590030Y1333703D01*
X6583172Y1333449D01*
X6570980Y1333449D01*
X6570980Y1319479D01*
X6598869Y1319479D01*
X6599224Y1325067D01*
X6600596Y1328216D01*
X6603796Y1329639D01*
X6609334Y1329944D01*
X6614922Y1329639D01*
X6618071Y1328216D01*
X6619494Y1325067D01*
X6619798Y1319479D01*
X6619494Y1313942D01*
X6618071Y1310792D01*
X6614922Y1309370D01*
X6609334Y1309014D01*
X6603796Y1309370D01*
X6600596Y1310792D01*
X6599224Y1313942D01*
X6598869Y1319479D01*
X6570980Y1319479D01*
X6570980Y1295095D01*
X6672122Y1295095D01*
X6672478Y1300632D01*
X6673850Y1303782D01*
X6677050Y1305204D01*
X6682587Y1305560D01*
X6688175Y1305204D01*
X6691325Y1303782D01*
X6692747Y1300632D01*
X6693052Y1295095D01*
X6692747Y1289507D01*
X6691325Y1286357D01*
X6688175Y1284935D01*
X6682587Y1284630D01*
X6677050Y1284935D01*
X6673850Y1286357D01*
X6672478Y1289507D01*
X6672122Y1295095D01*
X6570980Y1295095D01*
X6570980Y1284630D01*
X6560515Y1284630D01*
X6554825Y1284935D01*
X6551676Y1286510D01*
X6550304Y1290167D01*
X6549796Y1303782D01*
X6548170Y1307388D01*
X6544005Y1308811D01*
X6536080Y1309014D01*
X6522110Y1309014D01*
X6522110Y1295095D01*
X6522364Y1287170D01*
X6523786Y1283004D01*
X6527393Y1281379D01*
X6540398Y1280820D01*
X6544157Y1279753D01*
X6546037Y1277620D01*
X6547307Y1270355D01*
X6550710Y1268272D01*
X6558584Y1267358D01*
X6572707Y1267155D01*
X6586880Y1267358D01*
X6594754Y1268272D01*
X6598158Y1270355D01*
X6599377Y1277518D01*
X6601053Y1279652D01*
X6604253Y1280820D01*
X6609334Y1281125D01*
X6614414Y1280820D01*
X6617614Y1279652D01*
X6619290Y1277518D01*
X6620357Y1270609D01*
X6622440Y1268476D01*
X6626656Y1267460D01*
X6633768Y1267155D01*
X6640830Y1267460D01*
X6645097Y1268476D01*
X6647180Y1270609D01*
X6648196Y1277518D01*
X6649872Y1279652D01*
X6653123Y1280820D01*
X6658152Y1281125D01*
X6663080Y1280820D01*
X6666331Y1279702D01*
X6668109Y1277772D01*
X6668668Y1274826D01*
X6669633Y1271828D01*
X6670665Y1270660D01*
X6720941Y1270660D01*
X6721297Y1276197D01*
X6722719Y1279398D01*
X6725869Y1280820D01*
X6731457Y1281125D01*
X6888429Y1281125D01*
X6888429Y1260195D01*
X6818630Y1260195D01*
X6818630Y1281125D01*
X6731457Y1281125D01*
X6736994Y1280820D01*
X6740144Y1279398D01*
X6741566Y1276197D01*
X6741922Y1270660D01*
X6741566Y1265123D01*
X6740144Y1261922D01*
X6736994Y1260500D01*
X6731457Y1260195D01*
X6725869Y1260500D01*
X6722719Y1261922D01*
X6721297Y1265123D01*
X6720941Y1270660D01*
X6670665Y1270660D01*
X6672325Y1268780D01*
X6676390Y1265732D01*
X6681571Y1262888D01*
X6687464Y1260449D01*
X6693814Y1258468D01*
X6700266Y1257198D01*
X6706463Y1256690D01*
X6755841Y1256690D01*
X6761530Y1256385D01*
X6764680Y1254810D01*
X6766052Y1251153D01*
X6766559Y1237538D01*
X6768185Y1233932D01*
X6772351Y1232509D01*
X6780275Y1232306D01*
X6788200Y1232509D01*
X6792366Y1233932D01*
X6793941Y1237538D01*
X6794500Y1251153D01*
X6795820Y1254810D01*
X6798970Y1256385D01*
X6804710Y1256690D01*
X6810400Y1256385D01*
X6813550Y1254810D01*
X6814870Y1251153D01*
X6815175Y1244498D01*
X6815175Y1232306D01*
X6888429Y1232306D01*
X6888429Y1221841D01*
X6888073Y1216101D01*
X6886498Y1213002D01*
X6882841Y1211630D01*
X6869277Y1211072D01*
X6865620Y1209497D01*
X6864197Y1205331D01*
X6863994Y1197406D01*
X6888429Y1197406D01*
X6888734Y1203096D01*
X6890308Y1206246D01*
X6893966Y1207566D01*
X6900621Y1207871D01*
X6907275Y1207566D01*
X6910933Y1206246D01*
X6912508Y1203096D01*
X6912813Y1197406D01*
X6912508Y1191717D01*
X6910933Y1188567D01*
X6907275Y1187196D01*
X6900621Y1186942D01*
X6893966Y1187196D01*
X6890308Y1188567D01*
X6888734Y1191717D01*
X6888429Y1197406D01*
X6863994Y1197406D01*
X6864197Y1189482D01*
X6865620Y1185316D01*
X6869277Y1183690D01*
X6876186Y1183436D01*
X6986066Y1183436D01*
X6986066Y1172972D01*
X6985762Y1167282D01*
X6984187Y1164132D01*
X6980529Y1162812D01*
X6967067Y1162253D01*
X6963409Y1160780D01*
X6961936Y1157122D01*
X6961378Y1143508D01*
X6959904Y1139850D01*
X6956247Y1138377D01*
X6949440Y1138123D01*
X6937248Y1138123D01*
X6937248Y1183436D01*
X6876186Y1183436D01*
X6882841Y1183182D01*
X6886498Y1181811D01*
X6888073Y1178661D01*
X6888429Y1172972D01*
X6888073Y1167282D01*
X6886498Y1164132D01*
X6882841Y1162812D01*
X6869379Y1162253D01*
X6865721Y1160780D01*
X6864248Y1157122D01*
X6863689Y1143660D01*
X6862368Y1140002D01*
X6859270Y1138428D01*
X6853631Y1138123D01*
X6843318Y1138123D01*
X6841337Y1209598D01*
X6815175Y1211783D01*
X6815175Y1162507D01*
X6770268Y1162507D01*
X6769150Y1173835D01*
X6768185Y1179880D01*
X6766306Y1183436D01*
X6762750Y1185367D01*
X6756704Y1186281D01*
X6745376Y1187399D01*
X6745376Y1256690D01*
X6717487Y1256690D01*
X6717436Y1210970D01*
X6716979Y1196492D01*
X6716420Y1192174D01*
X6715556Y1189380D01*
X6714337Y1187805D01*
X6712661Y1187094D01*
X6710527Y1186942D01*
X6706717Y1186180D01*
X6704634Y1182776D01*
X6703720Y1174902D01*
X6703517Y1160780D01*
X6703692Y1148588D01*
X6720941Y1148588D01*
X6721297Y1154125D01*
X6722719Y1157274D01*
X6725869Y1158697D01*
X6731457Y1159052D01*
X6736994Y1158697D01*
X6740144Y1157274D01*
X6741566Y1154125D01*
X6741922Y1148588D01*
X6741566Y1143000D01*
X6740144Y1139850D01*
X6736994Y1138428D01*
X6731457Y1138123D01*
X6725869Y1138428D01*
X6722719Y1139850D01*
X6721297Y1143000D01*
X6720941Y1148588D01*
X6703692Y1148588D01*
X6703720Y1146657D01*
X6704634Y1138732D01*
X6706717Y1135329D01*
X6713880Y1134110D01*
X6716014Y1132433D01*
X6717131Y1129233D01*
X6717487Y1124153D01*
X6717131Y1119073D01*
X6716014Y1115872D01*
X6713880Y1114196D01*
X6706971Y1113129D01*
X6704838Y1111046D01*
X6703771Y1106779D01*
X6703517Y1099616D01*
X6703517Y1085494D01*
X6768084Y1087526D01*
X6769862Y1124661D01*
X6771284Y1131671D01*
X6774484Y1134262D01*
X6780428Y1134618D01*
X6786016Y1134262D01*
X6789115Y1132687D01*
X6790436Y1128979D01*
X6790994Y1115110D01*
X6792468Y1111554D01*
X6796328Y1110437D01*
X6803796Y1110843D01*
X6810908Y1111758D01*
X6815023Y1113536D01*
X6817055Y1117092D01*
X6818884Y1129233D01*
X6820662Y1132687D01*
X6823913Y1134262D01*
X6829348Y1134618D01*
X6834886Y1134262D01*
X6837984Y1132687D01*
X6839305Y1129030D01*
X6839493Y1124153D01*
X6863994Y1124153D01*
X6864299Y1129842D01*
X6865874Y1132992D01*
X6869531Y1134313D01*
X6882993Y1134872D01*
X6886651Y1136345D01*
X6888124Y1140002D01*
X6888683Y1153617D01*
X6890156Y1157274D01*
X6893814Y1158748D01*
X6900621Y1159052D01*
X6907428Y1158748D01*
X6911086Y1157274D01*
X6912559Y1153617D01*
X6913118Y1140002D01*
X6914591Y1136345D01*
X6918248Y1134872D01*
X6931710Y1134313D01*
X6935368Y1132992D01*
X6936943Y1129842D01*
X6937248Y1124153D01*
X6936943Y1118463D01*
X6935368Y1115314D01*
X6931710Y1113942D01*
X6918248Y1113434D01*
X6914591Y1111961D01*
X6913118Y1108303D01*
X6912559Y1094638D01*
X6911086Y1091031D01*
X6907428Y1089558D01*
X6900621Y1089253D01*
X6893814Y1089558D01*
X6890156Y1091031D01*
X6888683Y1094638D01*
X6888124Y1108303D01*
X6886651Y1111961D01*
X6882993Y1113434D01*
X6869531Y1113942D01*
X6865874Y1115314D01*
X6864299Y1118463D01*
X6863994Y1124153D01*
X6839493Y1124153D01*
X6839864Y1115568D01*
X6841337Y1111961D01*
X6844995Y1110488D01*
X6858457Y1109929D01*
X6862114Y1108557D01*
X6863689Y1105408D01*
X6863994Y1099718D01*
X6863994Y1089253D01*
X6790740Y1089253D01*
X6790740Y1075334D01*
X6863994Y1075334D01*
X6864299Y1081024D01*
X6865874Y1084173D01*
X6869531Y1085494D01*
X6876186Y1085799D01*
X6882841Y1085494D01*
X6886498Y1084173D01*
X6888073Y1081024D01*
X6888429Y1075334D01*
X6888073Y1069594D01*
X6886498Y1066444D01*
X6882841Y1065123D01*
X6876186Y1064869D01*
X6869531Y1065123D01*
X6865874Y1066444D01*
X6864299Y1069594D01*
X6863994Y1075334D01*
X6790740Y1075334D01*
X6790740Y1061364D01*
X6839559Y1061364D01*
X6839559Y1050899D01*
X6839254Y1045210D01*
X6837680Y1042060D01*
X6834022Y1040688D01*
X6827367Y1040434D01*
X6815175Y1040434D01*
X6815175Y1026464D01*
X6863994Y1026464D01*
X6864299Y1032154D01*
X6865874Y1035303D01*
X6869531Y1036675D01*
X6876186Y1036929D01*
X6882841Y1036675D01*
X6886498Y1035303D01*
X6888073Y1032154D01*
X6888429Y1026464D01*
X6888073Y1020775D01*
X6886498Y1017625D01*
X6882841Y1016304D01*
X6876186Y1016000D01*
X6869531Y1016304D01*
X6865874Y1017625D01*
X6864299Y1020775D01*
X6863994Y1026464D01*
X6815175Y1026464D01*
X6815175Y991616D01*
X6802932Y991616D01*
X6796125Y991311D01*
X6792468Y989837D01*
X6790994Y986180D01*
X6790661Y977646D01*
X6818630Y977646D01*
X6818985Y983183D01*
X6820408Y986383D01*
X6823557Y987755D01*
X6829094Y988110D01*
X6834682Y987755D01*
X6837832Y986383D01*
X6839254Y983183D01*
X6839559Y977646D01*
X6839254Y972058D01*
X6837832Y968908D01*
X6834682Y967486D01*
X6829094Y967181D01*
X6823557Y967486D01*
X6820408Y968908D01*
X6818985Y972058D01*
X6818630Y977646D01*
X6790661Y977646D01*
X6790436Y972718D01*
X6789115Y969060D01*
X6785965Y967486D01*
X6780275Y967181D01*
X6769811Y967181D01*
X6769811Y1016000D01*
X6755841Y1016000D01*
X6747916Y1015796D01*
X6743750Y1014374D01*
X6742175Y1010716D01*
X6741922Y1003808D01*
X6741922Y991616D01*
X6693052Y991616D01*
X6693052Y967181D01*
X6644233Y967181D01*
X6644233Y963676D01*
X6766306Y963676D01*
X6766306Y953211D01*
X6794246Y953211D01*
X6794550Y958799D01*
X6795973Y961948D01*
X6799122Y963371D01*
X6804710Y963676D01*
X6810248Y963371D01*
X6813397Y961948D01*
X6814820Y958799D01*
X6815175Y953211D01*
X6843064Y953211D01*
X6843369Y958799D01*
X6844792Y961948D01*
X6847941Y963371D01*
X6853529Y963676D01*
X6859066Y963371D01*
X6862267Y961948D01*
X6863689Y958799D01*
X6863994Y953211D01*
X6863689Y947674D01*
X6862267Y944473D01*
X6859066Y943102D01*
X6853529Y942746D01*
X6847941Y943102D01*
X6844792Y944473D01*
X6843369Y947674D01*
X6843064Y953211D01*
X6815175Y953211D01*
X6814820Y947674D01*
X6813397Y944473D01*
X6810248Y943102D01*
X6804710Y942746D01*
X6799122Y943102D01*
X6795973Y944473D01*
X6794550Y947674D01*
X6794246Y953211D01*
X6766306Y953211D01*
X6766306Y928827D01*
X6863994Y928827D01*
X6864299Y934516D01*
X6865874Y937666D01*
X6869531Y938987D01*
X6876186Y939241D01*
X6882841Y938987D01*
X6886498Y937666D01*
X6888073Y934516D01*
X6888429Y928827D01*
X6888073Y923086D01*
X6886498Y919937D01*
X6882841Y918616D01*
X6876186Y918362D01*
X6869531Y918616D01*
X6865874Y919937D01*
X6864299Y923086D01*
X6863994Y928827D01*
X6766306Y928827D01*
X6766306Y918362D01*
X6745376Y918362D01*
X6745376Y963676D01*
X6644233Y963676D01*
X6644233Y918362D01*
X6598869Y918362D01*
X6598869Y928827D01*
X6599224Y934516D01*
X6600748Y937666D01*
X6604457Y938987D01*
X6618020Y939546D01*
X6621678Y941120D01*
X6623050Y945286D01*
X6623303Y953211D01*
X6623050Y961136D01*
X6621678Y965301D01*
X6618020Y966927D01*
X6604457Y967435D01*
X6600748Y968806D01*
X6599224Y971956D01*
X6598869Y977646D01*
X6598869Y988110D01*
X6672122Y988110D01*
X6672122Y1012494D01*
X6720941Y1012494D01*
X6720941Y1024737D01*
X6721246Y1031544D01*
X6722719Y1035202D01*
X6726377Y1036675D01*
X6740093Y1037183D01*
X6743750Y1038809D01*
X6745173Y1042974D01*
X6745376Y1050899D01*
X6745376Y1064869D01*
X6731457Y1064869D01*
X6723532Y1064615D01*
X6719366Y1063193D01*
X6717741Y1059586D01*
X6717182Y1045870D01*
X6715759Y1042212D01*
X6712203Y1040688D01*
X6700316Y1040028D01*
X6694373Y1038910D01*
X6688683Y1037234D01*
X6682231Y1034440D01*
X6677914Y1033170D01*
X6671868Y1032154D01*
X6663537Y1031341D01*
X6652463Y1030732D01*
X6620103Y1030122D01*
X6570421Y1029969D01*
X6527495Y1030274D01*
X6513372Y1030732D01*
X6503009Y1031392D01*
X6495491Y1032408D01*
X6489903Y1033830D01*
X6485331Y1035659D01*
X6470497Y1043533D01*
X6473740Y1019505D01*
X6525615Y1019505D01*
X6557975Y1018590D01*
X6562750Y1018133D01*
X6563193Y1017727D01*
X6601815Y1017727D01*
X6602526Y1018235D01*
X6605066Y1018590D01*
X6613601Y1018590D01*
X6616192Y1018235D01*
X6616852Y1017727D01*
X6615430Y1017117D01*
X6612585Y1016609D01*
X6609334Y1016457D01*
X6606082Y1016609D01*
X6603238Y1017117D01*
X6601815Y1017727D01*
X6563193Y1017727D01*
X6563359Y1017574D01*
X6552234Y1015898D01*
X6548323Y1013917D01*
X6546799Y1009650D01*
X6546553Y1002080D01*
X6574485Y1002080D01*
X6574790Y1007618D01*
X6576212Y1010767D01*
X6579362Y1012190D01*
X6584899Y1012494D01*
X6590487Y1012190D01*
X6593636Y1010767D01*
X6595059Y1007618D01*
X6595364Y1002080D01*
X6595059Y996492D01*
X6593636Y993343D01*
X6590487Y991920D01*
X6584899Y991616D01*
X6579362Y991920D01*
X6576212Y993343D01*
X6574790Y996492D01*
X6574485Y1002080D01*
X6546553Y1002080D01*
X6546799Y994054D01*
X6548170Y989939D01*
X6551828Y988364D01*
X6565392Y987806D01*
X6569100Y986485D01*
X6570624Y983335D01*
X6570980Y977646D01*
X6570980Y967181D01*
X6525615Y967181D01*
X6525615Y1019505D01*
X6473740Y1019505D01*
X6474206Y1016000D01*
X6427927Y1016000D01*
X6427927Y1026464D01*
X6428282Y1032154D01*
X6429857Y1035303D01*
X6433515Y1036675D01*
X6440170Y1036929D01*
X6452362Y1036929D01*
X6452362Y1089253D01*
X6403543Y1089253D01*
X6403543Y1138123D01*
X6389573Y1138123D01*
X6381648Y1137869D01*
X6377482Y1136446D01*
X6375908Y1132840D01*
X6375603Y1125880D01*
X6375603Y1113688D01*
X6330289Y1113688D01*
X6330289Y1124153D01*
X6330594Y1129842D01*
X6332169Y1132992D01*
X6335826Y1134313D01*
X6342481Y1134618D01*
X6354673Y1134618D01*
X6354673Y1186942D01*
X6342481Y1186942D01*
X6335826Y1187196D01*
X6332169Y1188567D01*
X6330594Y1191717D01*
X6330289Y1197406D01*
X6330594Y1203096D01*
X6332169Y1206246D01*
X6335826Y1207566D01*
X6349390Y1208125D01*
X6353048Y1209751D01*
X6354470Y1213916D01*
X6354673Y1221841D01*
X6354470Y1229766D01*
X6353048Y1233932D01*
X6349390Y1235506D01*
X6335674Y1236065D01*
X6332016Y1237538D01*
X6330543Y1241196D01*
X6329984Y1254810D01*
X6328511Y1258468D01*
X6324854Y1259941D01*
X6318046Y1260195D01*
X6305854Y1260195D01*
X6305854Y1309014D01*
X6257036Y1309014D01*
X6257036Y1357884D01*
X6244793Y1357884D01*
X6238138Y1358138D01*
X6234480Y1359509D01*
X6232906Y1362659D01*
X6232601Y1368348D01*
X6232601Y1378813D01*
X6277610Y1378813D01*
X6279692Y1331722D01*
X6305854Y1329537D01*
X6305854Y1382268D01*
X6293662Y1382268D01*
X6286804Y1382572D01*
X6283198Y1384046D01*
X6281724Y1387703D01*
X6281420Y1394510D01*
X6281420Y1406702D01*
X6208166Y1406702D01*
X6208166Y1394510D01*
X6207912Y1387703D01*
X6206439Y1384046D01*
X6202781Y1382572D01*
X6195974Y1382268D01*
X6189167Y1382572D01*
X6185509Y1384046D01*
X6184036Y1387703D01*
X6183782Y1394510D01*
X6183782Y1406702D01*
X6134912Y1406702D01*
X6134912Y1354378D01*
X6208166Y1354378D01*
X6208166Y1260195D01*
X6195974Y1260195D01*
X6189167Y1260449D01*
X6185509Y1261922D01*
X6184036Y1265580D01*
X6183477Y1279194D01*
X6182004Y1282852D01*
X6178346Y1284325D01*
X6171539Y1284630D01*
X6159347Y1284630D01*
X6159347Y1354378D01*
X6134912Y1354378D01*
X6134912Y1246225D01*
X6159347Y1246225D01*
X6159652Y1251966D01*
X6161227Y1255064D01*
X6164884Y1256436D01*
X6171539Y1256690D01*
X6178194Y1256436D01*
X6181852Y1255064D01*
X6183426Y1251966D01*
X6183782Y1246225D01*
X6183426Y1240536D01*
X6181852Y1237386D01*
X6178194Y1236065D01*
X6171539Y1235760D01*
X6164884Y1236065D01*
X6161227Y1237386D01*
X6159652Y1240536D01*
X6159347Y1246225D01*
X6134912Y1246225D01*
X6134912Y1232306D01*
X6147155Y1232306D01*
X6153962Y1232001D01*
X6157620Y1230528D01*
X6159042Y1226870D01*
X6159601Y1213256D01*
X6160358Y1211376D01*
X6183782Y1211376D01*
X6183782Y1221841D01*
X6184087Y1227531D01*
X6185662Y1230680D01*
X6189319Y1232001D01*
X6202781Y1232560D01*
X6206439Y1234033D01*
X6207912Y1237691D01*
X6208471Y1251305D01*
X6209944Y1254963D01*
X6213551Y1256436D01*
X6227216Y1256995D01*
X6230874Y1258468D01*
X6232347Y1262126D01*
X6232855Y1275740D01*
X6234328Y1279398D01*
X6237986Y1280871D01*
X6244793Y1281125D01*
X6257036Y1281125D01*
X6257036Y1232306D01*
X6326784Y1232306D01*
X6326784Y1221994D01*
X6326428Y1215999D01*
X6323838Y1212850D01*
X6316827Y1211427D01*
X6279692Y1209598D01*
X6277994Y1148588D01*
X6305854Y1148588D01*
X6306159Y1154125D01*
X6307582Y1157274D01*
X6310782Y1158697D01*
X6316319Y1159052D01*
X6321856Y1158697D01*
X6325057Y1157274D01*
X6326479Y1154125D01*
X6326784Y1148588D01*
X6326479Y1143000D01*
X6325057Y1139850D01*
X6321856Y1138428D01*
X6316319Y1138123D01*
X6310782Y1138428D01*
X6307582Y1139850D01*
X6306159Y1143000D01*
X6305854Y1148588D01*
X6277994Y1148588D01*
X6277711Y1138123D01*
X6232601Y1138123D01*
X6232601Y1148588D01*
X6232906Y1154277D01*
X6234480Y1157427D01*
X6238138Y1158748D01*
X6251752Y1159306D01*
X6255359Y1160881D01*
X6256782Y1165047D01*
X6257036Y1172972D01*
X6256782Y1180896D01*
X6255359Y1185062D01*
X6251752Y1186688D01*
X6237986Y1187196D01*
X6234328Y1188669D01*
X6232855Y1192326D01*
X6232601Y1199134D01*
X6232601Y1211376D01*
X6160358Y1211376D01*
X6161074Y1209598D01*
X6164732Y1208125D01*
X6171539Y1207871D01*
X6183782Y1207871D01*
X6183782Y1162507D01*
X6171539Y1162507D01*
X6164732Y1162812D01*
X6161074Y1164285D01*
X6159601Y1167892D01*
X6159042Y1181557D01*
X6157620Y1185214D01*
X6153962Y1186688D01*
X6147155Y1186942D01*
X6134912Y1186942D01*
X6134912Y1124153D01*
X6159347Y1124153D01*
X6159652Y1129842D01*
X6161227Y1132992D01*
X6164884Y1134313D01*
X6171539Y1134618D01*
X6178194Y1134313D01*
X6181852Y1132992D01*
X6183426Y1129842D01*
X6183782Y1124153D01*
X6183426Y1118463D01*
X6181852Y1115314D01*
X6178194Y1113942D01*
X6171539Y1113688D01*
X6164884Y1113942D01*
X6161227Y1115314D01*
X6159652Y1118463D01*
X6159347Y1124153D01*
X6134912Y1124153D01*
X6134912Y1110183D01*
X6159347Y1110183D01*
X6159347Y1099718D01*
X6183782Y1099718D01*
X6184087Y1105408D01*
X6185662Y1108557D01*
X6189319Y1109929D01*
X6202781Y1110488D01*
X6206439Y1111961D01*
X6207912Y1115568D01*
X6208471Y1129233D01*
X6209944Y1132890D01*
X6213551Y1134364D01*
X6220409Y1134618D01*
X6232601Y1134618D01*
X6232601Y1099718D01*
X6305854Y1099718D01*
X6306159Y1105306D01*
X6307582Y1108456D01*
X6310782Y1109878D01*
X6316319Y1110183D01*
X6321856Y1109878D01*
X6325057Y1108456D01*
X6326479Y1105306D01*
X6326784Y1099718D01*
X6326479Y1094181D01*
X6325057Y1091031D01*
X6321856Y1089609D01*
X6316319Y1089253D01*
X6310782Y1089609D01*
X6307582Y1091031D01*
X6306159Y1094181D01*
X6305854Y1099718D01*
X6232601Y1099718D01*
X6232601Y1085799D01*
X6302349Y1085799D01*
X6302349Y1064869D01*
X6208166Y1064869D01*
X6208166Y1077061D01*
X6207912Y1083868D01*
X6206439Y1087526D01*
X6202781Y1088999D01*
X6189319Y1089558D01*
X6185662Y1090879D01*
X6184087Y1094028D01*
X6183782Y1099718D01*
X6159347Y1099718D01*
X6159347Y1064869D01*
X6134912Y1064869D01*
X6134912Y1050899D01*
X6305854Y1050899D01*
X6306159Y1056436D01*
X6307582Y1059637D01*
X6310782Y1061008D01*
X6316319Y1061364D01*
X6321856Y1061008D01*
X6325057Y1059637D01*
X6326479Y1056436D01*
X6326784Y1050899D01*
X6326479Y1045311D01*
X6325057Y1042162D01*
X6321856Y1040739D01*
X6316319Y1040434D01*
X6310782Y1040739D01*
X6307582Y1042162D01*
X6306159Y1045311D01*
X6305854Y1050899D01*
X6134912Y1050899D01*
X6134912Y1036929D01*
X6232601Y1036929D01*
X6232601Y1026464D01*
X6257036Y1026464D01*
X6257340Y1032052D01*
X6258763Y1035202D01*
X6261912Y1036624D01*
X6267500Y1036929D01*
X6273038Y1036624D01*
X6276187Y1035202D01*
X6277610Y1032052D01*
X6277965Y1026464D01*
X6277610Y1020927D01*
X6276187Y1017778D01*
X6273038Y1016355D01*
X6267500Y1016000D01*
X6261912Y1016355D01*
X6258763Y1017778D01*
X6257340Y1020927D01*
X6257036Y1026464D01*
X6232601Y1026464D01*
X6232296Y1020775D01*
X6230721Y1017625D01*
X6227013Y1016304D01*
X6213551Y1015746D01*
X6209944Y1014272D01*
X6209228Y1012494D01*
X6351219Y1012494D01*
X6351219Y1002080D01*
X6350863Y996340D01*
X6349288Y993190D01*
X6345631Y991869D01*
X6332169Y991311D01*
X6328511Y989837D01*
X6327038Y986180D01*
X6326479Y972718D01*
X6325158Y969060D01*
X6322009Y967486D01*
X6316319Y967181D01*
X6305854Y967181D01*
X6305854Y1012494D01*
X6209228Y1012494D01*
X6208471Y1010615D01*
X6207912Y997000D01*
X6206439Y993343D01*
X6202781Y991869D01*
X6195974Y991616D01*
X6189167Y991869D01*
X6185509Y993343D01*
X6184036Y997000D01*
X6183477Y1010615D01*
X6182004Y1014272D01*
X6178346Y1015746D01*
X6164884Y1016304D01*
X6161227Y1017625D01*
X6159652Y1020775D01*
X6159347Y1026464D01*
X6159347Y1036929D01*
X6134912Y1036929D01*
X6134912Y988110D01*
X6171539Y988110D01*
X6178346Y987856D01*
X6182004Y986383D01*
X6183477Y982726D01*
X6183703Y977646D01*
X6232601Y977646D01*
X6232906Y983335D01*
X6234480Y986485D01*
X6238138Y987806D01*
X6244793Y988110D01*
X6251448Y987806D01*
X6255105Y986485D01*
X6256680Y983335D01*
X6257036Y977646D01*
X6256680Y971956D01*
X6255105Y968806D01*
X6251448Y967435D01*
X6244793Y967181D01*
X6238138Y967435D01*
X6234480Y968806D01*
X6232906Y971956D01*
X6232601Y977646D01*
X6183703Y977646D01*
X6184036Y969060D01*
X6185509Y965403D01*
X6189167Y963980D01*
X6195974Y963676D01*
X6302349Y963676D01*
X6302349Y942746D01*
X6257036Y942746D01*
X6257036Y963676D01*
X6195974Y963676D01*
X6202781Y963421D01*
X6206439Y961948D01*
X6207912Y958291D01*
X6208166Y951484D01*
X6208166Y939241D01*
X6257036Y939241D01*
X6257036Y918362D01*
X6159347Y918362D01*
X6159347Y988110D01*
X6134912Y988110D01*
X6134912Y914857D01*
X6147155Y914857D01*
X6153759Y914552D01*
X6157468Y913231D01*
X6158992Y910082D01*
X6159347Y904392D01*
X6158992Y898702D01*
X6157468Y895553D01*
X6153759Y894181D01*
X6147155Y893927D01*
X6134912Y893927D01*
X6134912Y890422D01*
X6326784Y890422D01*
X6326784Y820674D01*
X6257036Y820674D01*
X6257036Y890422D01*
X6232601Y890422D01*
X6232601Y820674D01*
X6220409Y820674D01*
X6213551Y820369D01*
X6209944Y818896D01*
X6208471Y815289D01*
X6207912Y801624D01*
X6206439Y797966D01*
X6202781Y796493D01*
X6195974Y796239D01*
X6189167Y796493D01*
X6185509Y797966D01*
X6184036Y801624D01*
X6183782Y808431D01*
X6184036Y815289D01*
X6185509Y818896D01*
X6189167Y820369D01*
X6195974Y820674D01*
X6208166Y820674D01*
X6208166Y869492D01*
X6195974Y869492D01*
X6189319Y869797D01*
X6185662Y871118D01*
X6184087Y874268D01*
X6183782Y879957D01*
X6183782Y890422D01*
X6134912Y890422D01*
X6134912Y841603D01*
X6183782Y841603D01*
X6183782Y831138D01*
X6183426Y825449D01*
X6181852Y822299D01*
X6178194Y820928D01*
X6164732Y820369D01*
X6161074Y818896D01*
X6159601Y815289D01*
X6159042Y801624D01*
X6157620Y797966D01*
X6153962Y796493D01*
X6147155Y796239D01*
X6134912Y796239D01*
X6134912Y747420D01*
X6147155Y747420D01*
X6153962Y747674D01*
X6157620Y749147D01*
X6159042Y752805D01*
X6159601Y766419D01*
X6161074Y770077D01*
X6164732Y771550D01*
X6171539Y771804D01*
X6178346Y771550D01*
X6182004Y770077D01*
X6183477Y766419D01*
X6184036Y752805D01*
X6185509Y749147D01*
X6189167Y747674D01*
X6202781Y747115D01*
X6206439Y745642D01*
X6207912Y741984D01*
X6208471Y728370D01*
X6209944Y724712D01*
X6213551Y723239D01*
X6227216Y722731D01*
X6230874Y721258D01*
X6232347Y717600D01*
X6232601Y710793D01*
X6232601Y698550D01*
X6354673Y698550D01*
X6354673Y710793D01*
X6354978Y717600D01*
X6356451Y721258D01*
X6360109Y722731D01*
X6373723Y723239D01*
X6377381Y724712D01*
X6378854Y728370D01*
X6379108Y735177D01*
X6379108Y747420D01*
X6326784Y747420D01*
X6326784Y722985D01*
X6281420Y722985D01*
X6281420Y735177D01*
X6281166Y741984D01*
X6279692Y745642D01*
X6276035Y747115D01*
X6262420Y747674D01*
X6258763Y749147D01*
X6257290Y752805D01*
X6256731Y766419D01*
X6255258Y770077D01*
X6251600Y771550D01*
X6244793Y771804D01*
X6237986Y771550D01*
X6234328Y770077D01*
X6232855Y766419D01*
X6232347Y752805D01*
X6230874Y749147D01*
X6227216Y747674D01*
X6220409Y747420D01*
X6208166Y747420D01*
X6208166Y796239D01*
X6302349Y796239D01*
X6302349Y784047D01*
X6302603Y777087D01*
X6304229Y773480D01*
X6308394Y772058D01*
X6316319Y771804D01*
X6324244Y772058D01*
X6328410Y773480D01*
X6329984Y777087D01*
X6330543Y790854D01*
X6332016Y794512D01*
X6335674Y795985D01*
X6342481Y796239D01*
X6354673Y796239D01*
X6354673Y942746D01*
X6342481Y942746D01*
X6335826Y943051D01*
X6332169Y944371D01*
X6330594Y947521D01*
X6330289Y953211D01*
X6330594Y958900D01*
X6332169Y962050D01*
X6335826Y963421D01*
X6349288Y963980D01*
X6352946Y965403D01*
X6354419Y969060D01*
X6354978Y982726D01*
X6356451Y986383D01*
X6360109Y987856D01*
X6373825Y988364D01*
X6377482Y989990D01*
X6378854Y994105D01*
X6379108Y1002080D01*
X6378854Y1010005D01*
X6377482Y1014120D01*
X6373825Y1015746D01*
X6366916Y1016000D01*
X6354673Y1016000D01*
X6354673Y1064869D01*
X6342481Y1064869D01*
X6335826Y1065123D01*
X6332169Y1066444D01*
X6330594Y1069594D01*
X6330289Y1075334D01*
X6330289Y1085799D01*
X6400038Y1085799D01*
X6400038Y1073556D01*
X6400292Y1066749D01*
X6401765Y1063091D01*
X6405422Y1061618D01*
X6418884Y1061059D01*
X6422542Y1059738D01*
X6424117Y1056589D01*
X6424472Y1050899D01*
X6424117Y1045159D01*
X6422542Y1042060D01*
X6418834Y1040688D01*
X6412077Y1040434D01*
X6399733Y1040434D01*
X6400855Y1012494D01*
X6497726Y1012494D01*
X6497726Y967181D01*
X6476796Y967181D01*
X6476796Y1012494D01*
X6400855Y1012494D01*
X6401765Y989837D01*
X6424472Y987653D01*
X6424472Y963676D01*
X6462623Y963676D01*
X6468059Y963320D01*
X6471310Y961745D01*
X6473037Y958342D01*
X6474917Y946200D01*
X6476949Y942644D01*
X6481013Y940816D01*
X6488125Y939952D01*
X6495592Y939546D01*
X6499504Y940612D01*
X6500977Y944168D01*
X6501485Y958037D01*
X6502806Y961796D01*
X6505956Y963371D01*
X6511645Y963676D01*
X6517385Y963371D01*
X6520535Y961796D01*
X6521856Y958138D01*
X6522044Y953211D01*
X6574485Y953211D01*
X6574790Y958799D01*
X6576212Y961948D01*
X6579362Y963371D01*
X6584899Y963676D01*
X6590487Y963371D01*
X6593636Y961948D01*
X6595059Y958799D01*
X6595364Y953211D01*
X6595059Y947674D01*
X6593636Y944473D01*
X6590487Y943102D01*
X6584899Y942746D01*
X6579362Y943102D01*
X6576212Y944473D01*
X6574790Y947674D01*
X6574485Y953211D01*
X6522044Y953211D01*
X6522415Y944676D01*
X6523888Y941019D01*
X6527546Y939546D01*
X6541007Y938987D01*
X6544665Y937666D01*
X6546240Y934516D01*
X6546545Y928827D01*
X6546240Y923086D01*
X6544665Y919937D01*
X6541007Y918616D01*
X6527546Y918057D01*
X6523888Y916584D01*
X6522415Y912926D01*
X6521856Y899464D01*
X6520535Y895807D01*
X6517385Y894232D01*
X6511645Y893927D01*
X6505956Y894232D01*
X6502806Y895807D01*
X6501485Y899464D01*
X6501180Y906119D01*
X6501180Y918362D01*
X6452362Y918362D01*
X6452362Y963676D01*
X6424472Y963676D01*
X6424472Y942746D01*
X6414008Y942746D01*
X6408267Y943102D01*
X6405168Y944626D01*
X6403797Y948334D01*
X6403238Y961898D01*
X6401663Y965555D01*
X6397447Y966927D01*
X6389420Y967181D01*
X6375298Y967181D01*
X6377381Y916584D01*
X6424168Y914552D01*
X6426200Y867765D01*
X6438392Y867765D01*
X6445097Y868070D01*
X6448907Y869492D01*
X6450787Y872947D01*
X6452616Y885037D01*
X6454343Y888492D01*
X6457543Y890066D01*
X6462826Y890422D01*
X6468110Y890066D01*
X6471310Y888492D01*
X6473037Y885037D01*
X6473952Y879094D01*
X6475018Y867765D01*
X6523888Y867765D01*
X6524955Y878890D01*
X6525869Y884732D01*
X6527800Y888288D01*
X6531305Y890168D01*
X6543040Y892048D01*
X6546545Y893927D01*
X6548424Y897534D01*
X6550304Y909472D01*
X6552031Y912926D01*
X6555282Y914450D01*
X6560718Y914857D01*
X6570980Y914857D01*
X6570980Y869492D01*
X6558534Y869492D01*
X6551472Y869238D01*
X6547916Y867765D01*
X6546799Y863904D01*
X6547205Y856437D01*
X6548272Y843330D01*
X6621525Y843330D01*
X6622643Y856437D01*
X6623050Y863904D01*
X6621932Y867765D01*
X6618376Y869238D01*
X6604508Y869797D01*
X6600799Y871118D01*
X6599224Y874268D01*
X6598869Y879957D01*
X6598869Y890422D01*
X6644233Y890422D01*
X6644233Y820674D01*
X6632041Y820674D01*
X6625183Y820369D01*
X6621525Y818896D01*
X6620052Y815289D01*
X6619544Y801827D01*
X6618173Y798118D01*
X6615023Y796594D01*
X6609334Y796239D01*
X6603644Y796594D01*
X6600494Y798118D01*
X6599174Y801827D01*
X6598869Y808431D01*
X6598869Y820674D01*
X6546545Y820674D01*
X6546545Y771804D01*
X6560515Y771804D01*
X6568440Y772058D01*
X6572605Y773480D01*
X6574180Y777087D01*
X6574739Y790702D01*
X6576059Y794359D01*
X6579209Y795934D01*
X6584899Y796239D01*
X6590639Y795934D01*
X6593789Y794359D01*
X6595109Y790702D01*
X6595364Y784047D01*
X6623303Y784047D01*
X6623558Y790854D01*
X6625031Y794512D01*
X6628688Y795985D01*
X6642303Y796493D01*
X6645960Y797966D01*
X6647434Y801624D01*
X6647992Y815289D01*
X6649466Y818896D01*
X6653123Y820369D01*
X6659930Y820674D01*
X6672122Y820674D01*
X6672122Y893927D01*
X6659930Y893927D01*
X6653275Y894181D01*
X6649618Y895502D01*
X6648043Y898601D01*
X6647688Y904240D01*
X6648094Y910183D01*
X6650685Y913384D01*
X6657644Y914806D01*
X6694779Y916584D01*
X6695897Y927912D01*
X6696811Y933907D01*
X6698538Y937310D01*
X6701790Y938885D01*
X6707225Y939241D01*
X6717487Y939241D01*
X6717487Y893927D01*
X6692747Y893927D01*
X6694710Y845058D01*
X6720941Y845058D01*
X6720941Y855319D01*
X6721348Y860755D01*
X6722922Y864006D01*
X6726326Y865733D01*
X6738315Y867613D01*
X6741922Y869492D01*
X6743801Y873099D01*
X6744716Y879094D01*
X6745833Y890422D01*
X6790740Y890422D01*
X6790740Y879957D01*
X6790385Y874268D01*
X6788861Y871118D01*
X6785152Y869797D01*
X6771690Y869238D01*
X6768084Y867765D01*
X6766610Y864108D01*
X6766306Y857300D01*
X6766306Y845058D01*
X6694710Y845058D01*
X6694779Y843330D01*
X6706158Y842264D01*
X6712102Y841349D01*
X6715556Y839571D01*
X6717131Y836320D01*
X6717487Y830884D01*
X6717131Y825347D01*
X6715556Y822248D01*
X6711899Y820928D01*
X6698437Y820369D01*
X6694830Y818896D01*
X6693357Y815289D01*
X6693052Y808431D01*
X6769811Y808431D01*
X6770065Y815086D01*
X6771436Y818794D01*
X6774586Y820318D01*
X6780275Y820674D01*
X6785965Y820318D01*
X6789115Y818794D01*
X6790436Y815086D01*
X6790740Y808431D01*
X6790436Y801827D01*
X6789115Y798118D01*
X6785965Y796594D01*
X6780275Y796239D01*
X6774586Y796594D01*
X6771436Y798118D01*
X6770065Y801827D01*
X6769811Y808431D01*
X6693052Y808431D01*
X6693357Y801624D01*
X6694830Y797966D01*
X6698437Y796493D01*
X6705295Y796239D01*
X6717487Y796239D01*
X6717487Y759612D01*
X6745376Y759612D01*
X6745681Y766267D01*
X6747002Y769924D01*
X6750151Y771499D01*
X6755841Y771804D01*
X6761530Y771499D01*
X6764680Y769924D01*
X6766052Y766267D01*
X6766306Y759612D01*
X6766052Y752957D01*
X6764680Y749300D01*
X6761530Y747725D01*
X6755841Y747420D01*
X6750151Y747725D01*
X6747002Y749300D01*
X6745681Y752957D01*
X6745376Y759612D01*
X6717487Y759612D01*
X6717487Y747420D01*
X6668668Y747420D01*
X6668668Y735177D01*
X6668363Y728522D01*
X6667042Y724865D01*
X6663893Y723290D01*
X6658152Y722985D01*
X6647688Y722985D01*
X6647688Y771804D01*
X6635496Y771804D01*
X6628688Y772109D01*
X6625031Y773582D01*
X6623558Y777240D01*
X6623303Y784047D01*
X6595364Y784047D01*
X6595668Y777240D01*
X6597142Y773582D01*
X6600799Y772109D01*
X6614414Y771550D01*
X6618071Y770077D01*
X6619544Y766419D01*
X6619798Y759612D01*
X6619798Y747420D01*
X6497726Y747420D01*
X6497726Y698550D01*
X6550050Y698550D01*
X6550050Y722985D01*
X6595364Y722985D01*
X6595364Y710793D01*
X6595668Y703834D01*
X6597243Y700227D01*
X6601409Y698804D01*
X6609334Y698550D01*
X6617258Y698804D01*
X6621424Y700227D01*
X6623050Y703834D01*
X6623558Y717448D01*
X6624929Y721106D01*
X6628079Y722680D01*
X6633768Y722985D01*
X6639458Y722680D01*
X6642608Y721106D01*
X6643928Y717448D01*
X6644487Y703834D01*
X6646113Y700227D01*
X6650228Y698804D01*
X6658152Y698550D01*
X6666128Y698804D01*
X6670243Y700227D01*
X6671868Y703834D01*
X6672122Y710793D01*
X6672122Y722985D01*
X6720941Y722985D01*
X6720941Y735177D01*
X6721246Y741832D01*
X6722567Y745490D01*
X6725716Y747064D01*
X6731457Y747420D01*
X6737146Y747064D01*
X6740296Y745490D01*
X6741617Y741832D01*
X6742175Y728370D01*
X6743649Y724712D01*
X6747306Y723239D01*
X6760921Y722731D01*
X6764578Y721258D01*
X6766052Y717600D01*
X6766306Y710793D01*
X6766306Y698550D01*
X6818630Y698550D01*
X6818630Y747420D01*
X6794246Y747420D01*
X6794246Y796239D01*
X6804710Y796239D01*
X6810400Y795934D01*
X6813550Y794359D01*
X6814870Y790702D01*
X6815429Y777087D01*
X6817004Y773480D01*
X6821170Y772058D01*
X6829094Y771804D01*
X6837019Y772058D01*
X6841185Y773480D01*
X6842810Y777087D01*
X6843064Y784047D01*
X6842810Y790854D01*
X6841337Y794512D01*
X6837680Y795985D01*
X6830872Y796239D01*
X6818630Y796239D01*
X6818630Y865581D01*
X6829958Y866648D01*
X6836156Y867562D01*
X6839559Y869492D01*
X6841032Y873302D01*
X6841337Y879957D01*
X6841337Y892149D01*
X6804152Y893978D01*
X6797192Y895400D01*
X6794601Y898550D01*
X6794246Y904544D01*
X6794246Y914857D01*
X6863994Y914857D01*
X6863994Y890422D01*
X6937248Y890422D01*
X6937248Y939241D01*
X6961682Y939241D01*
X6961682Y890422D01*
X7034936Y890422D01*
X7034936Y904392D01*
X7034682Y912317D01*
X7033310Y916482D01*
X7029653Y918057D01*
X7016038Y918616D01*
X7012381Y919937D01*
X7010806Y923086D01*
X7010501Y928827D01*
X7010806Y934516D01*
X7012381Y937666D01*
X7016038Y938987D01*
X7029653Y939546D01*
X7033310Y941120D01*
X7034682Y945286D01*
X7034936Y953211D01*
X7034682Y961136D01*
X7033310Y965301D01*
X7029653Y966927D01*
X7016038Y967435D01*
X7012381Y968806D01*
X7010806Y971956D01*
X7010501Y977646D01*
X7010806Y983335D01*
X7012381Y986485D01*
X7016038Y987806D01*
X7029653Y988364D01*
X7033310Y989990D01*
X7034682Y994105D01*
X7034936Y1002080D01*
X7034682Y1010005D01*
X7033310Y1014120D01*
X7029653Y1015746D01*
X7022693Y1016000D01*
X7015886Y1015746D01*
X7012228Y1014272D01*
X7010755Y1010615D01*
X7010501Y1003808D01*
X7010501Y991616D01*
X6961682Y991616D01*
X6961682Y979373D01*
X6961378Y972566D01*
X6959904Y968908D01*
X6956247Y967435D01*
X6949440Y967181D01*
X6942632Y967435D01*
X6938975Y968908D01*
X6937502Y972566D01*
X6936994Y986180D01*
X6935520Y989837D01*
X6931863Y991311D01*
X6925056Y991616D01*
X6918096Y991311D01*
X6914438Y989736D01*
X6913067Y985570D01*
X6912813Y977646D01*
X6913067Y969721D01*
X6914438Y965555D01*
X6918096Y963930D01*
X6931710Y963421D01*
X6935368Y962050D01*
X6936943Y958900D01*
X6937248Y953211D01*
X6986066Y953211D01*
X6986422Y958900D01*
X6987997Y962050D01*
X6991654Y963421D01*
X6998309Y963676D01*
X7004964Y963421D01*
X7008622Y962050D01*
X7010196Y958900D01*
X7010501Y953211D01*
X7010196Y947521D01*
X7008622Y944371D01*
X7004964Y943051D01*
X6998309Y942746D01*
X6991654Y943051D01*
X6987997Y944371D01*
X6986422Y947521D01*
X6986066Y953211D01*
X6937248Y953211D01*
X6937248Y942746D01*
X6888429Y942746D01*
X6888429Y954989D01*
X6888124Y961796D01*
X6886651Y965453D01*
X6882993Y966876D01*
X6869531Y967435D01*
X6865874Y968806D01*
X6864299Y971956D01*
X6863994Y977646D01*
X6864299Y983335D01*
X6865874Y986485D01*
X6869531Y987806D01*
X6882993Y988364D01*
X6886651Y989837D01*
X6888124Y993495D01*
X6888429Y1000302D01*
X6888429Y1012494D01*
X6961682Y1012494D01*
X6961682Y1064869D01*
X6949440Y1064869D01*
X6942632Y1064564D01*
X6938975Y1063091D01*
X6937502Y1059434D01*
X6936994Y1045819D01*
X6935520Y1042162D01*
X6931863Y1040688D01*
X6925056Y1040434D01*
X6912813Y1040434D01*
X6912813Y1085799D01*
X6961682Y1085799D01*
X6961682Y1097991D01*
X6961936Y1104798D01*
X6963409Y1108456D01*
X6967067Y1109929D01*
X6973874Y1110183D01*
X6980681Y1109929D01*
X6984339Y1108456D01*
X6985812Y1104798D01*
X6986371Y1091184D01*
X6987844Y1087526D01*
X6991502Y1086053D01*
X7005116Y1085494D01*
X7008774Y1084021D01*
X7010247Y1080363D01*
X7010755Y1066749D01*
X7012228Y1063091D01*
X7015886Y1061618D01*
X7022693Y1061364D01*
X7029653Y1061618D01*
X7033310Y1063244D01*
X7034682Y1067409D01*
X7034936Y1075334D01*
X7034682Y1083259D01*
X7033310Y1087374D01*
X7029653Y1088999D01*
X7016038Y1089558D01*
X7012381Y1090879D01*
X7010806Y1094028D01*
X7010501Y1099718D01*
X7010806Y1105408D01*
X7012381Y1108557D01*
X7016038Y1109929D01*
X7029653Y1110437D01*
X7033310Y1112062D01*
X7034682Y1116228D01*
X7034936Y1124153D01*
X7034936Y1138123D01*
X6986066Y1138123D01*
X6986066Y1148588D01*
X6986422Y1154277D01*
X6987997Y1157427D01*
X6991654Y1158748D01*
X6998309Y1159052D01*
X7010501Y1159052D01*
X7010501Y1207871D01*
X7034936Y1207871D01*
X7034936Y1357884D01*
X6986066Y1357884D01*
X6986066Y1309014D01*
X6961682Y1309014D01*
X6961682Y1232306D01*
X6986066Y1232306D01*
X6986066Y1281125D01*
X7010501Y1281125D01*
X7010501Y1211376D01*
X6937248Y1211376D01*
X6937248Y1309014D01*
X6863994Y1309014D01*
X6863994Y1329944D01*
X6912813Y1329944D01*
X6912813Y1357884D01*
X6863994Y1357884D01*
X6863994Y1345641D01*
X6863689Y1339037D01*
X6862368Y1335379D01*
X6859320Y1333804D01*
X6853732Y1333449D01*
X6848297Y1333804D01*
X6845046Y1335379D01*
X6843318Y1338834D01*
X6841490Y1350772D01*
X6839610Y1354378D01*
X6836054Y1356258D01*
X6824319Y1358138D01*
X6820814Y1360017D01*
X6818934Y1363522D01*
X6817969Y1369415D01*
X6816902Y1380540D01*
X6779768Y1382318D01*
X6772757Y1383792D01*
X6770166Y1386941D01*
X6769811Y1392885D01*
X6770116Y1398524D01*
X6771690Y1401622D01*
X6775399Y1402943D01*
X6782003Y1403197D01*
X6794246Y1403197D01*
X6794246Y1452067D01*
X6804710Y1452067D01*
X6810400Y1451711D01*
X6813550Y1450187D01*
X6814870Y1446479D01*
X6815429Y1432915D01*
X6817004Y1429258D01*
X6821170Y1427886D01*
X6829094Y1427632D01*
X6843064Y1427632D01*
X6843064Y1525320D01*
X6829094Y1525320D01*
X6821170Y1525066D01*
X6817004Y1523695D01*
X6815429Y1520037D01*
X6815175Y1513078D01*
X6815175Y1500886D01*
X6766306Y1500886D01*
X6766306Y1476451D01*
X6720941Y1476451D01*
X6720941Y1488694D01*
X6721246Y1495501D01*
X6722719Y1499158D01*
X6726377Y1500632D01*
X6739991Y1501140D01*
X6743649Y1502613D01*
X6745122Y1506270D01*
X6745681Y1519936D01*
X6747154Y1523542D01*
X6750761Y1525016D01*
X6764426Y1525574D01*
X6768084Y1527048D01*
X6769506Y1530705D01*
X6769811Y1537512D01*
X6769811Y1549704D01*
X6720941Y1549704D01*
X6720941Y1561947D01*
X6720687Y1568856D01*
X6719112Y1572514D01*
X6714947Y1573936D01*
X6707022Y1574139D01*
X6693052Y1574139D01*
X6693052Y1525320D01*
X6680860Y1525320D01*
X6674053Y1525016D01*
X6670395Y1523542D01*
X6668922Y1519936D01*
X6668668Y1513078D01*
X6696557Y1513078D01*
X6696811Y1519732D01*
X6698183Y1523441D01*
X6701332Y1524965D01*
X6707022Y1525320D01*
X6712712Y1524965D01*
X6715861Y1523441D01*
X6717182Y1519732D01*
X6717487Y1513078D01*
X6717182Y1506474D01*
X6715861Y1502765D01*
X6712712Y1501241D01*
X6707022Y1500886D01*
X6701332Y1501241D01*
X6698183Y1502765D01*
X6696811Y1506474D01*
X6696557Y1513078D01*
X6668668Y1513078D01*
X6668922Y1506270D01*
X6670395Y1502613D01*
X6674053Y1501140D01*
X6687667Y1500632D01*
X6691325Y1499158D01*
X6692798Y1495501D01*
X6693357Y1481886D01*
X6694830Y1478229D01*
X6698437Y1476756D01*
X6705295Y1476451D01*
X6717487Y1476451D01*
X6717487Y1464259D01*
X6769811Y1464259D01*
X6770065Y1470914D01*
X6771436Y1474571D01*
X6774586Y1476146D01*
X6780275Y1476451D01*
X6785965Y1476146D01*
X6789115Y1474571D01*
X6790436Y1470914D01*
X6790740Y1464259D01*
X6790436Y1457604D01*
X6789115Y1453946D01*
X6785965Y1452372D01*
X6780275Y1452067D01*
X6774586Y1452372D01*
X6771436Y1453946D01*
X6770065Y1457604D01*
X6769811Y1464259D01*
X6717487Y1464259D01*
X6717487Y1452067D01*
X6766306Y1452067D01*
X6766306Y1406702D01*
X6745376Y1406702D01*
X6745376Y1452067D01*
X6717487Y1452067D01*
X6717487Y1427632D01*
X6707022Y1427632D01*
X6701332Y1427937D01*
X6698183Y1429512D01*
X6696811Y1433220D01*
X6696252Y1446682D01*
X6694830Y1450289D01*
X6691172Y1451762D01*
X6677507Y1452321D01*
X6673850Y1453794D01*
X6672427Y1457452D01*
X6671868Y1471066D01*
X6670395Y1474724D01*
X6666738Y1476197D01*
X6653123Y1476756D01*
X6649466Y1478229D01*
X6647992Y1481886D01*
X6647688Y1488694D01*
X6647688Y1500886D01*
X6595364Y1500886D01*
X6595364Y1476451D01*
X6522110Y1476451D01*
X6522110Y1464259D01*
X6623303Y1464259D01*
X6623558Y1470914D01*
X6624929Y1474571D01*
X6628079Y1476146D01*
X6633768Y1476451D01*
X6639458Y1476146D01*
X6642608Y1474571D01*
X6643928Y1470914D01*
X6644233Y1464259D01*
X6643928Y1457604D01*
X6642608Y1453946D01*
X6639458Y1452372D01*
X6633768Y1452067D01*
X6628079Y1452372D01*
X6624929Y1453946D01*
X6623558Y1457604D01*
X6623303Y1464259D01*
X6522110Y1464259D01*
X6522110Y1439824D01*
X6550050Y1439824D01*
X6550304Y1446479D01*
X6551676Y1450187D01*
X6554825Y1451711D01*
X6560515Y1452067D01*
X6566204Y1451711D01*
X6569354Y1450187D01*
X6570675Y1446479D01*
X6570980Y1439824D01*
X6598869Y1439824D01*
X6599174Y1446479D01*
X6600494Y1450187D01*
X6603644Y1451711D01*
X6609334Y1452067D01*
X6615023Y1451711D01*
X6618173Y1450187D01*
X6619544Y1446479D01*
X6619798Y1439824D01*
X6647688Y1439824D01*
X6647992Y1446479D01*
X6649313Y1450187D01*
X6652463Y1451711D01*
X6658152Y1452067D01*
X6663893Y1451711D01*
X6667042Y1450187D01*
X6668363Y1446479D01*
X6668668Y1439824D01*
X6668363Y1433220D01*
X6667042Y1429512D01*
X6663893Y1427937D01*
X6658152Y1427632D01*
X6652463Y1427937D01*
X6649313Y1429512D01*
X6647992Y1433220D01*
X6647688Y1439824D01*
X6619798Y1439824D01*
X6619544Y1433220D01*
X6618173Y1429512D01*
X6615023Y1427937D01*
X6609334Y1427632D01*
X6603644Y1427937D01*
X6600494Y1429512D01*
X6599174Y1433220D01*
X6598869Y1439824D01*
X6570980Y1439824D01*
X6570675Y1433220D01*
X6569354Y1429512D01*
X6566204Y1427937D01*
X6560515Y1427632D01*
X6554825Y1427937D01*
X6551676Y1429512D01*
X6550304Y1433220D01*
X6550050Y1439824D01*
X6522110Y1439824D01*
X6522110Y1427632D01*
X6511645Y1427632D01*
X6505956Y1427937D01*
X6502806Y1429512D01*
X6501485Y1433220D01*
X6500926Y1446784D01*
X6499352Y1450441D01*
X6495186Y1451813D01*
X6487261Y1452067D01*
X6479336Y1451813D01*
X6475171Y1450441D01*
X6473545Y1446784D01*
X6473037Y1433220D01*
X6471666Y1429512D01*
X6468516Y1427937D01*
X6462826Y1427632D01*
X6457137Y1427937D01*
X6453987Y1429512D01*
X6452666Y1433220D01*
X6452108Y1446682D01*
X6450634Y1450289D01*
X6446977Y1451762D01*
X6433362Y1452321D01*
X6429705Y1453794D01*
X6428232Y1457452D01*
X6427927Y1464259D01*
X6427927Y1476451D01*
X6476796Y1476451D01*
X6476796Y1500886D01*
X6574485Y1500886D01*
X6574485Y1513078D01*
X6574739Y1519936D01*
X6576212Y1523542D01*
X6579870Y1525016D01*
X6593484Y1525574D01*
X6597142Y1527048D01*
X6598615Y1530705D01*
X6599174Y1544167D01*
X6600494Y1547825D01*
X6603644Y1549400D01*
X6609334Y1549704D01*
X6615023Y1549400D01*
X6618173Y1547825D01*
X6619544Y1544167D01*
X6620052Y1530604D01*
X6621678Y1526946D01*
X6625844Y1525524D01*
X6633768Y1525320D01*
X6641693Y1525524D01*
X6645859Y1526946D01*
X6647434Y1530604D01*
X6647688Y1537512D01*
X6647434Y1544320D01*
X6645960Y1547977D01*
X6642303Y1549450D01*
X6628688Y1550009D01*
X6625031Y1551482D01*
X6623558Y1555140D01*
X6623303Y1561947D01*
X6623558Y1568754D01*
X6625031Y1572412D01*
X6628688Y1573885D01*
X6642303Y1574444D01*
X6645960Y1575917D01*
X6647434Y1579524D01*
X6647688Y1586331D01*
X6647434Y1593291D01*
X6645859Y1596948D01*
X6641693Y1598320D01*
X6633768Y1598574D01*
X6625844Y1598320D01*
X6621678Y1596948D01*
X6620052Y1593291D01*
X6619544Y1579524D01*
X6618071Y1575917D01*
X6614414Y1574444D01*
X6600799Y1573885D01*
X6597142Y1572412D01*
X6595668Y1568754D01*
X6595109Y1555292D01*
X6593789Y1551635D01*
X6590639Y1550060D01*
X6584899Y1549704D01*
X6574485Y1549704D01*
X6574485Y1598574D01*
X6497726Y1598574D01*
X6497726Y1574139D01*
X6424472Y1574139D01*
X6424472Y1549704D01*
X6501180Y1549704D01*
X6501180Y1561947D01*
X6501485Y1568602D01*
X6502806Y1572260D01*
X6505956Y1573834D01*
X6511645Y1574139D01*
X6517385Y1573834D01*
X6520535Y1572260D01*
X6521856Y1568602D01*
X6522110Y1561947D01*
X6522110Y1549704D01*
X6570980Y1549704D01*
X6570980Y1525320D01*
X6473291Y1525320D01*
X6473291Y1500886D01*
X6424472Y1500886D01*
X6424472Y1488694D01*
X6424168Y1482039D01*
X6422847Y1478381D01*
X6419697Y1476806D01*
X6414008Y1476451D01*
X6408267Y1476806D01*
X6405168Y1478381D01*
X6403797Y1482039D01*
X6403238Y1495501D01*
X6401765Y1499158D01*
X6398107Y1500632D01*
X6384493Y1501140D01*
X6380835Y1502613D01*
X6379362Y1506270D01*
X6379108Y1513078D01*
X6379362Y1519936D01*
X6380835Y1523542D01*
X6384493Y1525016D01*
X6398107Y1525574D01*
X6401765Y1527048D01*
X6403238Y1530705D01*
X6403543Y1537512D01*
X6403238Y1544320D01*
X6401765Y1547977D01*
X6398107Y1549450D01*
X6384493Y1550009D01*
X6380835Y1551482D01*
X6379362Y1555140D01*
X6379108Y1561947D01*
X6379362Y1568754D01*
X6380835Y1572412D01*
X6384493Y1573885D01*
X6398107Y1574444D01*
X6401765Y1575917D01*
X6403238Y1579524D01*
X6403543Y1586331D01*
X6403543Y1598574D01*
G37*
G36*
X6790740Y1598574D02*
G01*
X6790740Y1549704D01*
X6843064Y1549704D01*
X6843064Y1598574D01*
G37*
G36*
X6863994Y1598574D02*
G01*
X6863994Y1574139D01*
X7010501Y1574139D01*
X7010501Y1451914D01*
X6890156Y1453794D01*
X6888225Y1574139D01*
X6863994Y1574139D01*
X6863994Y1427632D01*
X7034936Y1427632D01*
X7034936Y1598574D01*
G37*
G36*
X6183782Y1549704D02*
G01*
X6183782Y1476451D01*
X6257036Y1476451D01*
X6257036Y1549704D01*
G37*
G36*
X6912813Y1549704D02*
G01*
X6912813Y1476451D01*
X6986066Y1476451D01*
X6986066Y1549704D01*
G37*
G36*
X6876186Y1406702D02*
G01*
X6869277Y1406448D01*
X6865620Y1404823D01*
X6864197Y1400657D01*
X6863994Y1392732D01*
X6864197Y1384808D01*
X6865620Y1380693D01*
X6869277Y1379067D01*
X6876186Y1378813D01*
X6883146Y1379067D01*
X6886752Y1380693D01*
X6888175Y1384808D01*
X6888429Y1392732D01*
X6888175Y1400657D01*
X6886752Y1404823D01*
X6883146Y1406448D01*
G37*
G36*
X6949440Y1406702D02*
G01*
X6942531Y1406448D01*
X6938873Y1404823D01*
X6937502Y1400657D01*
X6937248Y1392732D01*
X6937502Y1384808D01*
X6938873Y1380693D01*
X6942531Y1379067D01*
X6949440Y1378813D01*
X6956399Y1379067D01*
X6960006Y1380693D01*
X6961428Y1384808D01*
X6961682Y1392732D01*
X6961428Y1400657D01*
X6960006Y1404823D01*
X6956399Y1406448D01*
G37*
G36*
X6729120Y1357884D02*
G01*
X6722567Y1357579D01*
X6719062Y1355953D01*
X6717741Y1351788D01*
X6717487Y1343914D01*
X6717487Y1329944D01*
X6731457Y1329944D01*
X6739280Y1330198D01*
X6743446Y1331569D01*
X6745122Y1335024D01*
X6745376Y1341577D01*
X6745224Y1346301D01*
X6744716Y1350467D01*
X6743953Y1353718D01*
X6743039Y1355547D01*
X6741261Y1356461D01*
X6738010Y1357172D01*
X6733794Y1357680D01*
G37*
G36*
X6949440Y1357884D02*
G01*
X6942531Y1357630D01*
X6938873Y1356004D01*
X6937502Y1351838D01*
X6937248Y1343914D01*
X6937502Y1335989D01*
X6938873Y1331823D01*
X6942531Y1330248D01*
X6949440Y1329944D01*
X6956399Y1330248D01*
X6960006Y1331823D01*
X6961428Y1335989D01*
X6961682Y1343914D01*
X6961428Y1351838D01*
X6960006Y1356004D01*
X6956399Y1357630D01*
G37*
G36*
X6554876Y1256690D02*
G01*
X6515811Y1256233D01*
X6504178Y1255674D01*
X6496304Y1254760D01*
X6491173Y1253439D01*
X6487718Y1251559D01*
X6484874Y1249121D01*
X6482181Y1246428D01*
X6480200Y1243279D01*
X6479438Y1241145D01*
X6478219Y1235049D01*
X6477457Y1225600D01*
X6477050Y1211580D01*
X6476849Y1192174D01*
X6508191Y1192174D01*
X6508445Y1198981D01*
X6509918Y1202639D01*
X6513576Y1204112D01*
X6520383Y1204366D01*
X6527190Y1204112D01*
X6530848Y1202639D01*
X6532321Y1198981D01*
X6532575Y1192174D01*
X6532321Y1185367D01*
X6530848Y1181709D01*
X6527190Y1180236D01*
X6520383Y1179982D01*
X6513576Y1180236D01*
X6509918Y1181709D01*
X6508445Y1185367D01*
X6508191Y1192174D01*
X6476849Y1192174D01*
X6476796Y1163472D01*
X6531965Y1163472D01*
X6532067Y1166774D01*
X6534657Y1173226D01*
X6539839Y1183436D01*
X6551015Y1204366D01*
X6612331Y1204366D01*
X6619302Y1192174D01*
X6630263Y1192174D01*
X6630568Y1198981D01*
X6631990Y1202639D01*
X6635648Y1204112D01*
X6642506Y1204366D01*
X6649313Y1204112D01*
X6652920Y1202639D01*
X6654393Y1198981D01*
X6654698Y1192174D01*
X6654393Y1185367D01*
X6652920Y1181709D01*
X6649313Y1180236D01*
X6642506Y1179982D01*
X6635648Y1180236D01*
X6631990Y1181709D01*
X6630568Y1185367D01*
X6630263Y1192174D01*
X6619302Y1192174D01*
X6627215Y1178204D01*
X6632905Y1167282D01*
X6633768Y1165098D01*
X6632905Y1164285D01*
X6630619Y1163370D01*
X6627266Y1162507D01*
X6623151Y1161745D01*
X6618274Y1161389D01*
X6614414Y1161897D01*
X6611518Y1163269D01*
X6609537Y1165555D01*
X6607759Y1168095D01*
X6606031Y1169060D01*
X6603898Y1168450D01*
X6598107Y1164132D01*
X6596380Y1163523D01*
X6595618Y1164590D01*
X6594957Y1169517D01*
X6593840Y1171346D01*
X6592163Y1172514D01*
X6590131Y1172972D01*
X6588099Y1172565D01*
X6586474Y1171448D01*
X6585356Y1169771D01*
X6584391Y1165707D01*
X6582968Y1164082D01*
X6580835Y1162913D01*
X6575501Y1162202D01*
X6572910Y1161237D01*
X6570827Y1159865D01*
X6569506Y1158138D01*
X6568440Y1156208D01*
X6567474Y1155547D01*
X6566560Y1156208D01*
X6565442Y1158138D01*
X6561734Y1161288D01*
X6555689Y1162405D01*
X6549085Y1161389D01*
X6543751Y1158341D01*
X6541719Y1156512D01*
X6540449Y1155903D01*
X6539788Y1156512D01*
X6539585Y1158341D01*
X6539128Y1159967D01*
X6537959Y1161288D01*
X6536232Y1162202D01*
X6534150Y1162507D01*
X6531965Y1163472D01*
X6476796Y1163472D01*
X6476796Y1145082D01*
X6487261Y1145082D01*
X6487820Y1146403D01*
X6489293Y1147876D01*
X6491528Y1149248D01*
X6496862Y1151432D01*
X6498640Y1152855D01*
X6499504Y1154379D01*
X6499301Y1155801D01*
X6498793Y1157071D01*
X6498996Y1158087D01*
X6499707Y1158798D01*
X6500977Y1159052D01*
X6503924Y1157935D01*
X6504533Y1155293D01*
X6503009Y1152245D01*
X6497456Y1148588D01*
X6512102Y1148588D01*
X6512255Y1151839D01*
X6512763Y1154684D01*
X6513372Y1156055D01*
X6513880Y1155395D01*
X6514236Y1152804D01*
X6514300Y1147013D01*
X6536080Y1147013D01*
X6536334Y1147622D01*
X6537096Y1148130D01*
X6539585Y1148588D01*
X6540906Y1148283D01*
X6542024Y1147470D01*
X6542785Y1146302D01*
X6543040Y1144879D01*
X6542785Y1143609D01*
X6542024Y1142898D01*
X6540906Y1142796D01*
X6539585Y1143355D01*
X6537096Y1145286D01*
X6536334Y1146251D01*
X6536080Y1147013D01*
X6514300Y1147013D01*
X6514236Y1144320D01*
X6513880Y1141730D01*
X6513372Y1141069D01*
X6512763Y1142441D01*
X6512255Y1145336D01*
X6512102Y1148588D01*
X6497456Y1148588D01*
X6495542Y1147419D01*
X6494373Y1144676D01*
X6495897Y1142492D01*
X6500063Y1141577D01*
X6502146Y1141425D01*
X6503517Y1140968D01*
X6504127Y1140307D01*
X6503771Y1139545D01*
X6500012Y1138682D01*
X6494475Y1139850D01*
X6489446Y1142238D01*
X6487261Y1145082D01*
X6476796Y1145082D01*
X6476796Y1130960D01*
X6532829Y1130960D01*
X6532880Y1133449D01*
X6534302Y1134922D01*
X6537198Y1135583D01*
X6541617Y1135583D01*
X6547662Y1135176D01*
X6550609Y1135227D01*
X6554063Y1135786D01*
X6557467Y1136802D01*
X6563512Y1139444D01*
X6565950Y1139850D01*
X6567881Y1139444D01*
X6572402Y1134821D01*
X6575196Y1135176D01*
X6577177Y1138783D01*
X6577939Y1145286D01*
X6578193Y1149400D01*
X6578904Y1152347D01*
X6580022Y1153871D01*
X6581444Y1153820D01*
X6582998Y1151788D01*
X6595821Y1151788D01*
X6596075Y1153414D01*
X6596786Y1154582D01*
X6597548Y1154887D01*
X6598158Y1154125D01*
X6598564Y1152448D01*
X6598615Y1150010D01*
X6598361Y1147572D01*
X6597903Y1146403D01*
X6597243Y1146505D01*
X6596481Y1147927D01*
X6595922Y1149858D01*
X6595821Y1151788D01*
X6582998Y1151788D01*
X6583883Y1149858D01*
X6584645Y1146810D01*
X6585305Y1139190D01*
X6586931Y1136802D01*
X6590385Y1135786D01*
X6596227Y1135786D01*
X6602120Y1136446D01*
X6605879Y1138174D01*
X6608114Y1141425D01*
X6609588Y1146810D01*
X6611670Y1157274D01*
X6613144Y1147114D01*
X6614007Y1143050D01*
X6615379Y1139494D01*
X6617004Y1136853D01*
X6618681Y1135532D01*
X6620459Y1135837D01*
X6621983Y1137716D01*
X6623202Y1141069D01*
X6623913Y1145743D01*
X6625386Y1152398D01*
X6627418Y1153210D01*
X6627834Y1152296D01*
X6641084Y1152296D01*
X6641084Y1154125D01*
X6641490Y1156004D01*
X6642303Y1158036D01*
X6643217Y1158697D01*
X6644284Y1158036D01*
X6645656Y1156004D01*
X6646824Y1152499D01*
X6646316Y1149654D01*
X6644589Y1148384D01*
X6642100Y1149502D01*
X6641388Y1150670D01*
X6641084Y1152296D01*
X6627834Y1152296D01*
X6629450Y1148740D01*
X6630552Y1141272D01*
X6648805Y1141272D01*
X6649110Y1143254D01*
X6650278Y1144625D01*
X6651752Y1145895D01*
X6653326Y1147724D01*
X6654800Y1149858D01*
X6656730Y1153414D01*
X6657086Y1153210D01*
X6657035Y1151534D01*
X6655816Y1144778D01*
X6654342Y1132484D01*
X6653682Y1131976D01*
X6652463Y1133094D01*
X6650685Y1135888D01*
X6649313Y1138783D01*
X6648805Y1141272D01*
X6630552Y1141272D01*
X6630822Y1139444D01*
X6630416Y1134160D01*
X6628638Y1127556D01*
X6625742Y1120241D01*
X6621881Y1112824D01*
X6619321Y1108456D01*
X6630263Y1108456D01*
X6630568Y1115263D01*
X6631990Y1118920D01*
X6635648Y1120394D01*
X6642506Y1120648D01*
X6649313Y1120394D01*
X6652920Y1118920D01*
X6654393Y1115263D01*
X6654698Y1108456D01*
X6654393Y1101648D01*
X6652920Y1097991D01*
X6649313Y1096518D01*
X6642506Y1096264D01*
X6635648Y1096518D01*
X6631990Y1097991D01*
X6630568Y1101648D01*
X6630263Y1108456D01*
X6619321Y1108456D01*
X6612178Y1096264D01*
X6551523Y1096264D01*
X6536740Y1122121D01*
X6534150Y1127252D01*
X6532829Y1130960D01*
X6476796Y1130960D01*
X6476841Y1108456D01*
X6508191Y1108456D01*
X6508445Y1115263D01*
X6509918Y1118920D01*
X6513576Y1120394D01*
X6520383Y1120648D01*
X6527190Y1120394D01*
X6530848Y1118920D01*
X6532321Y1115263D01*
X6532575Y1108456D01*
X6532321Y1101648D01*
X6530848Y1097991D01*
X6527190Y1096518D01*
X6520383Y1096264D01*
X6513576Y1096518D01*
X6509918Y1097991D01*
X6508445Y1101648D01*
X6508191Y1108456D01*
X6476841Y1108456D01*
X6477254Y1079703D01*
X6477812Y1067917D01*
X6478727Y1059992D01*
X6480048Y1054862D01*
X6480911Y1052982D01*
X6483045Y1049934D01*
X6485737Y1047089D01*
X6488531Y1044752D01*
X6490208Y1043838D01*
X6492341Y1043076D01*
X6498386Y1041857D01*
X6507835Y1041095D01*
X6521754Y1040688D01*
X6541363Y1040485D01*
X6675932Y1040434D01*
X6693052Y1057554D01*
X6693052Y1239570D01*
X6675932Y1256690D01*
G37*
G36*
X6375603Y1186942D02*
G01*
X6375603Y1159052D01*
X6403543Y1159052D01*
X6403543Y1186942D01*
G37*
G36*
X6424472Y1138123D02*
G01*
X6424472Y1110183D01*
X6466332Y1110183D01*
X6466332Y1138123D01*
G37*
G36*
X6375196Y893927D02*
G01*
X6376263Y880821D01*
X6377178Y873556D01*
X6378956Y869645D01*
X6382766Y868070D01*
X6389573Y867765D01*
X6396380Y868070D01*
X6400190Y869645D01*
X6401968Y873556D01*
X6402882Y880821D01*
X6403949Y893927D01*
G37*
G36*
X6277508Y869492D02*
G01*
X6278626Y856437D01*
X6279489Y849121D01*
X6281420Y845058D01*
X6285484Y843178D01*
X6292748Y842264D01*
X6305854Y841197D01*
X6305854Y869492D01*
G37*
G36*
X6863994Y869492D02*
G01*
X6863994Y841603D01*
X7010501Y841603D01*
X7010501Y722985D01*
X6888429Y722985D01*
X6888429Y841603D01*
X6863994Y841603D01*
X6863994Y698550D01*
X7034936Y698550D01*
X7034936Y869492D01*
G37*
G36*
X6389573Y845058D02*
G01*
X6381648Y844854D01*
X6377482Y843432D01*
X6375908Y839825D01*
X6375603Y832866D01*
X6375908Y826058D01*
X6377381Y822401D01*
X6381038Y820928D01*
X6387846Y820674D01*
X6400038Y820674D01*
X6400038Y784047D01*
X6427927Y784047D01*
X6428232Y790702D01*
X6429552Y794359D01*
X6432702Y795934D01*
X6438392Y796239D01*
X6444132Y795934D01*
X6447231Y794359D01*
X6448602Y790702D01*
X6448856Y784047D01*
X6448602Y777392D01*
X6447231Y773734D01*
X6444132Y772160D01*
X6438392Y771804D01*
X6432702Y772160D01*
X6429552Y773734D01*
X6428232Y777392D01*
X6427927Y784047D01*
X6400038Y784047D01*
X6400038Y722985D01*
X6448856Y722985D01*
X6448856Y710793D01*
X6449161Y703834D01*
X6450736Y700227D01*
X6454902Y698804D01*
X6462826Y698550D01*
X6476796Y698550D01*
X6476796Y747420D01*
X6464554Y747420D01*
X6457746Y747674D01*
X6454089Y749147D01*
X6452616Y752805D01*
X6452362Y759612D01*
X6452616Y766419D01*
X6454089Y770077D01*
X6457746Y771550D01*
X6464554Y771804D01*
X6476796Y771804D01*
X6476796Y820674D01*
X6525615Y820674D01*
X6525615Y845058D01*
X6473291Y845058D01*
X6473291Y820674D01*
X6403543Y820674D01*
X6403543Y832866D01*
X6403238Y839825D01*
X6401663Y843432D01*
X6397498Y844854D01*
G37*
G36*
X6912813Y820674D02*
G01*
X6912813Y747420D01*
X6986066Y747420D01*
X6986066Y820674D01*
G37*
G36*
X6134912Y722985D02*
G01*
X6134912Y698550D01*
X6183782Y698550D01*
X6183782Y722985D01*
G37*
G36*
X4690364Y4628388D02*
G01*
X4684623Y4628032D01*
X4679238Y4627016D01*
X4674209Y4625492D01*
X4669586Y4623460D01*
X4665319Y4621022D01*
X4661458Y4618329D01*
X4658055Y4615383D01*
X4655058Y4612386D01*
X4663186Y4602734D01*
X4668723Y4607915D01*
X4675073Y4611827D01*
X4682236Y4614316D01*
X4690364Y4615180D01*
X4696510Y4614773D01*
X4702302Y4613503D01*
X4707636Y4611420D01*
X4712512Y4608626D01*
X4716932Y4605020D01*
X4720844Y4600752D01*
X4724247Y4595723D01*
X4727041Y4590084D01*
X4729276Y4583785D01*
X4730953Y4576876D01*
X4731918Y4569358D01*
X4732274Y4561332D01*
X4731918Y4553153D01*
X4730953Y4545533D01*
X4729378Y4538522D01*
X4727194Y4532071D01*
X4724400Y4526330D01*
X4721098Y4521250D01*
X4717237Y4516831D01*
X4712868Y4513173D01*
X4708042Y4510278D01*
X4702759Y4508195D01*
X4697018Y4506925D01*
X4690872Y4506468D01*
X4681880Y4507433D01*
X4673904Y4510328D01*
X4666691Y4515053D01*
X4660138Y4521454D01*
X4651756Y4512056D01*
X4655667Y4507890D01*
X4659884Y4504232D01*
X4664354Y4501032D01*
X4669078Y4498390D01*
X4674158Y4496308D01*
X4679543Y4494784D01*
X4685284Y4493818D01*
X4691380Y4493514D01*
X4697323Y4493818D01*
X4703064Y4494682D01*
X4708550Y4496104D01*
X4713732Y4498086D01*
X4718710Y4500626D01*
X4723333Y4503674D01*
X4727600Y4507280D01*
X4731562Y4511344D01*
X4735118Y4515916D01*
X4738268Y4520996D01*
X4741011Y4526534D01*
X4743297Y4532528D01*
X4745075Y4538980D01*
X4746447Y4545838D01*
X4747260Y4553102D01*
X4747514Y4560824D01*
X4747209Y4568494D01*
X4746396Y4575759D01*
X4745075Y4582617D01*
X4743246Y4589068D01*
X4740910Y4595063D01*
X4738116Y4600600D01*
X4734915Y4605731D01*
X4731308Y4610303D01*
X4727295Y4614468D01*
X4722977Y4618075D01*
X4718253Y4621174D01*
X4713224Y4623714D01*
X4707890Y4625746D01*
X4702302Y4627219D01*
X4696460Y4628083D01*
G37*
G36*
X4985766Y4628388D02*
G01*
X4980025Y4628032D01*
X4974640Y4627016D01*
X4969611Y4625492D01*
X4964988Y4623460D01*
X4960721Y4621022D01*
X4956860Y4618329D01*
X4953457Y4615383D01*
X4950460Y4612386D01*
X4958588Y4602734D01*
X4963972Y4607915D01*
X4970221Y4611827D01*
X4977384Y4614316D01*
X4985512Y4615180D01*
X4991658Y4614773D01*
X4997450Y4613503D01*
X5002834Y4611420D01*
X5007711Y4608626D01*
X5012182Y4605020D01*
X5016093Y4600752D01*
X5019548Y4595723D01*
X5022392Y4590084D01*
X5024678Y4583785D01*
X5026304Y4576876D01*
X5027320Y4569358D01*
X5027676Y4561332D01*
X5027320Y4553153D01*
X5026355Y4545533D01*
X5024780Y4538522D01*
X5022596Y4532071D01*
X5019802Y4526330D01*
X5016449Y4521250D01*
X5012588Y4516831D01*
X5008219Y4513173D01*
X5003342Y4510278D01*
X4998008Y4508195D01*
X4992217Y4506925D01*
X4986020Y4506468D01*
X4977180Y4507433D01*
X4969205Y4510328D01*
X4961991Y4515053D01*
X4955286Y4521454D01*
X4947158Y4512056D01*
X4951069Y4507890D01*
X4955286Y4504232D01*
X4959756Y4501032D01*
X4964480Y4498390D01*
X4969560Y4496308D01*
X4974945Y4494784D01*
X4980686Y4493818D01*
X4986782Y4493514D01*
X4992725Y4493818D01*
X4998466Y4494682D01*
X5003952Y4496104D01*
X5009134Y4498086D01*
X5014112Y4500626D01*
X5018735Y4503674D01*
X5023002Y4507280D01*
X5026964Y4511344D01*
X5030520Y4515916D01*
X5033670Y4520996D01*
X5036413Y4526534D01*
X5038699Y4532528D01*
X5040477Y4538980D01*
X5041849Y4545838D01*
X5042662Y4553102D01*
X5042916Y4560824D01*
X5042611Y4568494D01*
X5041798Y4575759D01*
X5040426Y4582617D01*
X5038598Y4589068D01*
X5036261Y4595063D01*
X5033467Y4600600D01*
X5030266Y4605731D01*
X5026609Y4610303D01*
X5022596Y4614468D01*
X5018227Y4618075D01*
X5013553Y4621174D01*
X5008524Y4623714D01*
X5003190Y4625746D01*
X4997602Y4627219D01*
X4991811Y4628083D01*
G37*
G36*
X5281168Y4628388D02*
G01*
X5275376Y4628032D01*
X5269941Y4627016D01*
X5264912Y4625492D01*
X5260238Y4623460D01*
X5255971Y4621022D01*
X5252110Y4618329D01*
X5248656Y4615383D01*
X5245608Y4612386D01*
X5253990Y4602734D01*
X5259374Y4607915D01*
X5265623Y4611827D01*
X5272786Y4614316D01*
X5280914Y4615180D01*
X5287060Y4614773D01*
X5292852Y4613503D01*
X5298236Y4611420D01*
X5303113Y4608626D01*
X5307584Y4605020D01*
X5311495Y4600752D01*
X5314950Y4595723D01*
X5317794Y4590084D01*
X5320080Y4583785D01*
X5321706Y4576876D01*
X5322722Y4569358D01*
X5323078Y4561332D01*
X5322722Y4553153D01*
X5321757Y4545533D01*
X5320182Y4538522D01*
X5317998Y4532071D01*
X5315204Y4526330D01*
X5311851Y4521250D01*
X5307990Y4516831D01*
X5303621Y4513173D01*
X5298744Y4510278D01*
X5293410Y4508195D01*
X5287619Y4506925D01*
X5281422Y4506468D01*
X5272481Y4507433D01*
X5264505Y4510328D01*
X5257342Y4515053D01*
X5250688Y4521454D01*
X5242560Y4512056D01*
X5246471Y4507890D01*
X5250637Y4504232D01*
X5255056Y4501032D01*
X5259781Y4498390D01*
X5264861Y4496308D01*
X5270246Y4494784D01*
X5275986Y4493818D01*
X5282184Y4493514D01*
X5288127Y4493818D01*
X5293868Y4494682D01*
X5299303Y4496104D01*
X5304536Y4498086D01*
X5309412Y4500626D01*
X5314035Y4503674D01*
X5318302Y4507280D01*
X5322214Y4511344D01*
X5325770Y4515916D01*
X5328869Y4520996D01*
X5331612Y4526534D01*
X5333847Y4532528D01*
X5335676Y4538980D01*
X5336997Y4545838D01*
X5337810Y4553102D01*
X5338064Y4560824D01*
X5337759Y4568494D01*
X5336946Y4575759D01*
X5335625Y4582617D01*
X5333796Y4589068D01*
X5331460Y4595063D01*
X5328716Y4600600D01*
X5325516Y4605731D01*
X5321909Y4610303D01*
X5317896Y4614468D01*
X5313578Y4618075D01*
X5308904Y4621174D01*
X5303875Y4623714D01*
X5298592Y4625746D01*
X5293004Y4627219D01*
X5287213Y4628083D01*
G37*
G36*
X5576316Y4628388D02*
G01*
X5570575Y4628032D01*
X5565190Y4627016D01*
X5560161Y4625492D01*
X5555538Y4623460D01*
X5551271Y4621022D01*
X5547410Y4618329D01*
X5544007Y4615383D01*
X5541010Y4612386D01*
X5549138Y4602734D01*
X5554675Y4607915D01*
X5561025Y4611827D01*
X5568188Y4614316D01*
X5576316Y4615180D01*
X5582462Y4614773D01*
X5588254Y4613503D01*
X5593638Y4611420D01*
X5598515Y4608626D01*
X5602986Y4605020D01*
X5606897Y4600752D01*
X5610352Y4595723D01*
X5613196Y4590084D01*
X5615482Y4583785D01*
X5617108Y4576876D01*
X5618124Y4569358D01*
X5618480Y4561332D01*
X5618124Y4553153D01*
X5617159Y4545533D01*
X5615584Y4538522D01*
X5613400Y4532071D01*
X5610606Y4526330D01*
X5607253Y4521250D01*
X5603392Y4516831D01*
X5599023Y4513173D01*
X5594146Y4510278D01*
X5588812Y4508195D01*
X5583021Y4506925D01*
X5576824Y4506468D01*
X5567832Y4507433D01*
X5559856Y4510328D01*
X5552643Y4515053D01*
X5546090Y4521454D01*
X5537708Y4512056D01*
X5541619Y4507890D01*
X5545836Y4504232D01*
X5550306Y4501032D01*
X5555081Y4498390D01*
X5560161Y4496308D01*
X5565597Y4494784D01*
X5571388Y4493818D01*
X5577586Y4493514D01*
X5583478Y4493818D01*
X5589168Y4494682D01*
X5594604Y4496104D01*
X5599836Y4498086D01*
X5604713Y4500626D01*
X5609336Y4503674D01*
X5613603Y4507280D01*
X5617514Y4511344D01*
X5621070Y4515916D01*
X5624220Y4520996D01*
X5626963Y4526534D01*
X5629249Y4532528D01*
X5631027Y4538980D01*
X5632399Y4545838D01*
X5633212Y4553102D01*
X5633466Y4560824D01*
X5633161Y4568494D01*
X5632348Y4575759D01*
X5631027Y4582617D01*
X5629198Y4589068D01*
X5626862Y4595063D01*
X5624068Y4600600D01*
X5620867Y4605731D01*
X5617260Y4610303D01*
X5613247Y4614468D01*
X5608929Y4618075D01*
X5604205Y4621174D01*
X5599176Y4623714D01*
X5593842Y4625746D01*
X5588254Y4627219D01*
X5582412Y4628083D01*
G37*
G36*
X4815332Y4625848D02*
G01*
X4815332Y4508246D01*
X4757928Y4508246D01*
X4757928Y4495800D01*
X4830064Y4495800D01*
X4830064Y4625848D01*
G37*
G36*
X4865878Y4625848D02*
G01*
X4865878Y4533392D01*
X4866081Y4527956D01*
X4866741Y4522774D01*
X4867808Y4517847D01*
X4869383Y4513224D01*
X4871415Y4509008D01*
X4873955Y4505147D01*
X4877054Y4501794D01*
X4880660Y4498949D01*
X4884826Y4496612D01*
X4889601Y4494936D01*
X4894935Y4493869D01*
X4900930Y4493514D01*
X4906721Y4493818D01*
X4912106Y4494784D01*
X4917084Y4496409D01*
X4921707Y4498644D01*
X4925872Y4501489D01*
X4929632Y4504994D01*
X4933035Y4509109D01*
X4935982Y4513834D01*
X4925314Y4521200D01*
X4920589Y4514392D01*
X4915204Y4509820D01*
X4909058Y4507280D01*
X4902200Y4506468D01*
X4897120Y4506874D01*
X4892700Y4508042D01*
X4888992Y4510074D01*
X4885994Y4513021D01*
X4883607Y4516932D01*
X4881930Y4521809D01*
X4880965Y4527702D01*
X4880610Y4534662D01*
X4880610Y4625848D01*
G37*
G36*
X5110734Y4625848D02*
G01*
X5110734Y4508246D01*
X5053076Y4508246D01*
X5053076Y4495800D01*
X5125466Y4495800D01*
X5125466Y4625848D01*
G37*
G36*
X5161280Y4625848D02*
G01*
X5161280Y4533392D01*
X5161483Y4527956D01*
X5162143Y4522774D01*
X5163210Y4517847D01*
X5164785Y4513224D01*
X5166817Y4509008D01*
X5169357Y4505147D01*
X5172456Y4501794D01*
X5176062Y4498949D01*
X5180228Y4496612D01*
X5185003Y4494936D01*
X5190337Y4493869D01*
X5196332Y4493514D01*
X5202123Y4493818D01*
X5207508Y4494784D01*
X5212435Y4496409D01*
X5217007Y4498644D01*
X5221173Y4501489D01*
X5224932Y4504994D01*
X5228336Y4509109D01*
X5231384Y4513834D01*
X5220716Y4521200D01*
X5215991Y4514392D01*
X5210606Y4509820D01*
X5204460Y4507280D01*
X5197602Y4506468D01*
X5192522Y4506874D01*
X5188102Y4508042D01*
X5184394Y4510074D01*
X5181396Y4513021D01*
X5179009Y4516932D01*
X5177332Y4521809D01*
X5176367Y4527702D01*
X5176012Y4534662D01*
X5176012Y4625848D01*
G37*
G36*
X5406136Y4625848D02*
G01*
X5406136Y4508246D01*
X5348478Y4508246D01*
X5348478Y4495800D01*
X5420868Y4495800D01*
X5420868Y4625848D01*
G37*
G36*
X5456682Y4625848D02*
G01*
X5456682Y4533392D01*
X5456885Y4527956D01*
X5457545Y4522774D01*
X5458612Y4517847D01*
X5460187Y4513224D01*
X5462219Y4509008D01*
X5464759Y4505147D01*
X5467807Y4501794D01*
X5471414Y4498949D01*
X5475528Y4496612D01*
X5480253Y4494936D01*
X5485587Y4493869D01*
X5491480Y4493514D01*
X5497271Y4493818D01*
X5502656Y4494784D01*
X5507634Y4496409D01*
X5512257Y4498644D01*
X5516422Y4501489D01*
X5520182Y4504994D01*
X5523585Y4509109D01*
X5526532Y4513834D01*
X5515864Y4521200D01*
X5511190Y4514392D01*
X5505805Y4509820D01*
X5499709Y4507280D01*
X5492750Y4506468D01*
X5487771Y4506874D01*
X5483402Y4508042D01*
X5479745Y4510074D01*
X5476748Y4513021D01*
X5474411Y4516932D01*
X5472734Y4521809D01*
X5471769Y4527702D01*
X5471414Y4534662D01*
X5471414Y4625848D01*
G37*
G36*
X5701284Y4625848D02*
G01*
X5701284Y4508246D01*
X5643880Y4508246D01*
X5643880Y4495800D01*
X5716270Y4495800D01*
X5716270Y4625848D01*
G37*
G36*
X5751830Y4625848D02*
G01*
X5751830Y4533392D01*
X5752033Y4527956D01*
X5752693Y4522774D01*
X5753760Y4517847D01*
X5755335Y4513224D01*
X5757367Y4509008D01*
X5759907Y4505147D01*
X5763006Y4501794D01*
X5766612Y4498949D01*
X5770778Y4496612D01*
X5775553Y4494936D01*
X5780887Y4493869D01*
X5786882Y4493514D01*
X5792673Y4493818D01*
X5798058Y4494784D01*
X5803036Y4496409D01*
X5807659Y4498644D01*
X5811824Y4501489D01*
X5815584Y4504994D01*
X5818987Y4509109D01*
X5821934Y4513834D01*
X5811266Y4521200D01*
X5806592Y4514392D01*
X5801207Y4509820D01*
X5795111Y4507280D01*
X5788152Y4506468D01*
X5783072Y4506874D01*
X5778652Y4508042D01*
X5774944Y4510074D01*
X5771946Y4513021D01*
X5769559Y4516932D01*
X5767882Y4521809D01*
X5766917Y4527702D01*
X5766562Y4534662D01*
X5766562Y4625848D01*
G37*
D13*
X8102600Y5724936D02*
G01*
X8102600Y5343118D01*
X8102600Y5724936D02*
G01*
X7938963Y5724936D01*
X7884416Y5706755D01*
X7866235Y5688573D01*
X7848053Y5652208D01*
X7848053Y5597664D01*
X7866235Y5561299D01*
X7884416Y5543118D01*
X7938963Y5524936D01*
X8102600Y5524936D01*
X7455326Y5634027D02*
G01*
X7473508Y5670389D01*
X7509873Y5706755D01*
X7546235Y5724936D01*
X7618963Y5724936D01*
X7655326Y5706755D01*
X7691691Y5670389D01*
X7709872Y5634027D01*
X7728054Y5579480D01*
X7728054Y5488571D01*
X7709872Y5434027D01*
X7691691Y5397662D01*
X7655326Y5361299D01*
X7618963Y5343118D01*
X7546235Y5343118D01*
X7509873Y5361299D01*
X7473508Y5397662D01*
X7455326Y5434027D01*
X7335326Y5724936D02*
G01*
X7335326Y5343118D01*
X7215327Y5724936D02*
G01*
X7215327Y5343118D01*
X7215327Y5724936D02*
G01*
X6978962Y5724936D01*
X7215327Y5543118D02*
G01*
X7069871Y5543118D01*
X7215327Y5343118D02*
G01*
X6978962Y5343118D01*
X6858962Y5215844D02*
G01*
X6531691Y5215844D01*
X6266235Y5724936D02*
G01*
X6411691Y5343118D01*
X6266235Y5724936D02*
G01*
X6120780Y5343118D01*
X6357145Y5470390D02*
G01*
X6175326Y5470390D01*
X6000780Y5597664D02*
G01*
X6000780Y5343118D01*
X6000780Y5488571D02*
G01*
X5982599Y5543118D01*
X5946236Y5579480D01*
X5909871Y5597664D01*
X5855327Y5597664D01*
X5517144Y5724936D02*
G01*
X5517144Y5343118D01*
X5517144Y5543118D02*
G01*
X5553509Y5579480D01*
X5589871Y5597664D01*
X5644418Y5597664D01*
X5680781Y5579480D01*
X5717146Y5543118D01*
X5735327Y5488571D01*
X5735327Y5452209D01*
X5717146Y5397662D01*
X5680781Y5361299D01*
X5644418Y5343118D01*
X5589871Y5343118D01*
X5553509Y5361299D01*
X5517144Y5397662D01*
X5397144Y5597664D02*
G01*
X5397144Y5415846D01*
X5378963Y5361299D01*
X5342600Y5343118D01*
X5288053Y5343118D01*
X5251691Y5361299D01*
X5197144Y5415846D01*
X5197144Y5597664D02*
G01*
X5197144Y5343118D01*
X5077145Y5724936D02*
G01*
X5058963Y5706755D01*
X5040782Y5724936D01*
X5058963Y5743117D01*
X5077145Y5724936D01*
X5058963Y5597664D02*
G01*
X5058963Y5343118D01*
X4920782Y5597664D02*
G01*
X4920782Y5343118D01*
X4920782Y5524936D02*
G01*
X4866236Y5579480D01*
X4829873Y5597664D01*
X4775327Y5597664D01*
X4738964Y5579480D01*
X4720780Y5524936D01*
X4720780Y5343118D01*
X4509871Y5597664D02*
G01*
X4546236Y5579480D01*
X4582599Y5543118D01*
X4600780Y5488571D01*
X4600780Y5452209D01*
X4582599Y5397662D01*
X4546236Y5361299D01*
X4509871Y5343118D01*
X4455327Y5343118D01*
X4418962Y5361299D01*
X4382599Y5397662D01*
X4364418Y5452209D01*
X4364418Y5488571D01*
X4382599Y5543118D01*
X4418962Y5579480D01*
X4455327Y5597664D01*
X4509871Y5597664D01*
D17*
X4789705Y2024882D02*
G01*
X4863343Y1893973D01*
X4705433Y1996244D02*
G01*
X4713615Y2004428D01*
X4725888Y2008517D01*
X4742251Y2008517D01*
X4754524Y2004428D01*
X4762705Y1996244D01*
X4762705Y1988063D01*
X4758616Y1979881D01*
X4754524Y1975789D01*
X4746343Y1971700D01*
X4721796Y1963519D01*
X4713615Y1959427D01*
X4709525Y1955335D01*
X4705433Y1947153D01*
X4705433Y1934880D01*
X4713615Y1926699D01*
X4725888Y1922609D01*
X4742251Y1922609D01*
X4754524Y1926699D01*
X4762705Y1934880D01*
X4674344Y1979881D02*
G01*
X4649797Y1922609D01*
X4625251Y1979881D02*
G01*
X4649797Y1922609D01*
X4657979Y1906244D01*
X4666160Y1898063D01*
X4674344Y1893973D01*
X4678433Y1893973D01*
X4598253Y1979881D02*
G01*
X4598253Y1922609D01*
X4598253Y1963519D02*
G01*
X4585980Y1975789D01*
X4577798Y1979881D01*
X4565525Y1979881D01*
X4557344Y1975789D01*
X4553252Y1963519D01*
X4553252Y1922609D01*
X4513978Y2008517D02*
G01*
X4513978Y1938972D01*
X4509889Y1926699D01*
X4501705Y1922609D01*
X4493524Y1922609D01*
X4526252Y1979881D02*
G01*
X4497616Y1979881D01*
X4466523Y2008517D02*
G01*
X4466523Y1922609D01*
X4466523Y1963519D02*
G01*
X4454253Y1975789D01*
X4446069Y1979881D01*
X4433798Y1979881D01*
X4425614Y1975789D01*
X4421525Y1963519D01*
X4421525Y1922609D01*
X4394525Y1955335D02*
G01*
X4345434Y1955335D01*
X4345434Y1963519D01*
X4349523Y1971700D01*
X4353615Y1975789D01*
X4361797Y1979881D01*
X4374070Y1979881D01*
X4382251Y1975789D01*
X4390433Y1967608D01*
X4394525Y1955335D01*
X4394525Y1947153D01*
X4390433Y1934880D01*
X4382251Y1926699D01*
X4374070Y1922609D01*
X4361797Y1922609D01*
X4353615Y1926699D01*
X4345434Y1934880D01*
X4273433Y1967608D02*
G01*
X4277525Y1975789D01*
X4289798Y1979881D01*
X4302069Y1979881D01*
X4314342Y1975789D01*
X4318434Y1967608D01*
X4314342Y1959427D01*
X4306161Y1955335D01*
X4285706Y1951245D01*
X4277525Y1947153D01*
X4273433Y1938972D01*
X4273433Y1934880D01*
X4277525Y1926699D01*
X4289798Y1922609D01*
X4302069Y1922609D01*
X4314342Y1926699D01*
X4318434Y1934880D01*
X4246432Y2008517D02*
G01*
X4242343Y2004428D01*
X4238251Y2008517D01*
X4242343Y2012609D01*
X4246432Y2008517D01*
X4242343Y1979881D02*
G01*
X4242343Y1922609D01*
X4166252Y1967608D02*
G01*
X4170342Y1975789D01*
X4182615Y1979881D01*
X4194888Y1979881D01*
X4207162Y1975789D01*
X4211251Y1967608D01*
X4207162Y1959427D01*
X4198980Y1955335D01*
X4178526Y1951245D01*
X4170342Y1947153D01*
X4166252Y1938972D01*
X4166252Y1934880D01*
X4170342Y1926699D01*
X4182615Y1922609D01*
X4194888Y1922609D01*
X4207162Y1926699D01*
X4211251Y1934880D01*
X4139252Y2008517D02*
G01*
X4139252Y1922609D01*
X4139252Y2008517D02*
G01*
X4110616Y2008517D01*
X4098343Y2004428D01*
X4090161Y1996244D01*
X4086070Y1988063D01*
X4081980Y1975789D01*
X4081980Y1955335D01*
X4086070Y1943064D01*
X4090161Y1934880D01*
X4098343Y1926699D01*
X4110616Y1922609D01*
X4139252Y1922609D01*
X4054980Y1979881D02*
G01*
X4054980Y1938972D01*
X4050888Y1926699D01*
X4042707Y1922609D01*
X4030433Y1922609D01*
X4022252Y1926699D01*
X4009979Y1938972D01*
X4009979Y1979881D02*
G01*
X4009979Y1922609D01*
D11*
X8102600Y5124891D02*
G01*
X8102600Y5010345D01*
X8102600Y5064892D02*
G01*
X8086234Y5081254D01*
X8075328Y5086708D01*
X8058962Y5086708D01*
X8048053Y5081254D01*
X8042600Y5064892D01*
X8042600Y5010345D01*
X7990235Y5124891D02*
G01*
X7990235Y5032164D01*
X7984782Y5015798D01*
X7973872Y5010345D01*
X7962963Y5010345D01*
X8006600Y5086708D02*
G01*
X7968416Y5086708D01*
X7910598Y5124891D02*
G01*
X7910598Y5032164D01*
X7905145Y5015798D01*
X7894236Y5010345D01*
X7883326Y5010345D01*
X7926964Y5086708D02*
G01*
X7888780Y5086708D01*
X7847327Y5086708D02*
G01*
X7847327Y4972164D01*
X7847327Y5070345D02*
G01*
X7836418Y5081254D01*
X7825508Y5086708D01*
X7809146Y5086708D01*
X7798236Y5081254D01*
X7787327Y5070345D01*
X7781871Y5053982D01*
X7781871Y5043073D01*
X7787327Y5026708D01*
X7798236Y5015798D01*
X7809146Y5010345D01*
X7825508Y5010345D01*
X7836418Y5015798D01*
X7847327Y5026708D01*
X7685872Y5070345D02*
G01*
X7691325Y5081254D01*
X7707690Y5086708D01*
X7724053Y5086708D01*
X7740418Y5081254D01*
X7745872Y5070345D01*
X7740418Y5059436D01*
X7729509Y5053982D01*
X7702235Y5048526D01*
X7691325Y5043073D01*
X7685872Y5032164D01*
X7685872Y5026708D01*
X7691325Y5015798D01*
X7707690Y5010345D01*
X7724053Y5010345D01*
X7740418Y5015798D01*
X7745872Y5026708D01*
X7644417Y5075798D02*
G01*
X7649872Y5070345D01*
X7644417Y5064892D01*
X7638963Y5070345D01*
X7644417Y5075798D01*
X7644417Y5037617D02*
G01*
X7649872Y5032164D01*
X7644417Y5026708D01*
X7638963Y5032164D01*
X7644417Y5037617D01*
X7504780Y5146708D02*
G01*
X7602964Y4972164D01*
X7370599Y5146708D02*
G01*
X7468781Y4972164D01*
X7269144Y5086708D02*
G01*
X7269144Y4999436D01*
X7274600Y4983073D01*
X7280054Y4977617D01*
X7290963Y4972164D01*
X7307325Y4972164D01*
X7318235Y4977617D01*
X7269144Y5070345D02*
G01*
X7280054Y5081254D01*
X7290963Y5086708D01*
X7307325Y5086708D01*
X7318235Y5081254D01*
X7329144Y5070345D01*
X7334600Y5053982D01*
X7334600Y5043073D01*
X7329144Y5026708D01*
X7318235Y5015798D01*
X7307325Y5010345D01*
X7290963Y5010345D01*
X7280054Y5015798D01*
X7269144Y5026708D01*
X7233145Y5124891D02*
G01*
X7227689Y5119436D01*
X7222236Y5124891D01*
X7227689Y5130345D01*
X7233145Y5124891D01*
X7227689Y5086708D02*
G01*
X7227689Y5010345D01*
X7169871Y5124891D02*
G01*
X7169871Y5032164D01*
X7164417Y5015798D01*
X7153508Y5010345D01*
X7142599Y5010345D01*
X7186236Y5086708D02*
G01*
X7148055Y5086708D01*
X7106599Y5124891D02*
G01*
X7106599Y5010345D01*
X7106599Y5064892D02*
G01*
X7090234Y5081254D01*
X7079327Y5086708D01*
X7062962Y5086708D01*
X7052053Y5081254D01*
X7046600Y5064892D01*
X7046600Y5010345D01*
X7010600Y5086708D02*
G01*
X7010600Y5032164D01*
X7005144Y5015798D01*
X6994235Y5010345D01*
X6977872Y5010345D01*
X6966963Y5015798D01*
X6950600Y5032164D01*
X6950600Y5086708D02*
G01*
X6950600Y5010345D01*
X6914598Y5124891D02*
G01*
X6914598Y5010345D01*
X6914598Y5070345D02*
G01*
X6903689Y5081254D01*
X6892780Y5086708D01*
X6876417Y5086708D01*
X6865508Y5081254D01*
X6854598Y5070345D01*
X6849145Y5053982D01*
X6849145Y5043073D01*
X6854598Y5026708D01*
X6865508Y5015798D01*
X6876417Y5010345D01*
X6892780Y5010345D01*
X6903689Y5015798D01*
X6914598Y5026708D01*
X6807690Y5037617D02*
G01*
X6813146Y5032164D01*
X6807690Y5026708D01*
X6802236Y5032164D01*
X6807690Y5037617D01*
X6700781Y5070345D02*
G01*
X6711690Y5081254D01*
X6722600Y5086708D01*
X6738962Y5086708D01*
X6749872Y5081254D01*
X6760781Y5070345D01*
X6766234Y5053982D01*
X6766234Y5043073D01*
X6760781Y5026708D01*
X6749872Y5015798D01*
X6738962Y5010345D01*
X6722600Y5010345D01*
X6711690Y5015798D01*
X6700781Y5026708D01*
X6637507Y5086708D02*
G01*
X6648416Y5081254D01*
X6659326Y5070345D01*
X6664782Y5053982D01*
X6664782Y5043073D01*
X6659326Y5026708D01*
X6648416Y5015798D01*
X6637507Y5010345D01*
X6621145Y5010345D01*
X6610235Y5015798D01*
X6599326Y5026708D01*
X6593873Y5043073D01*
X6593873Y5053982D01*
X6599326Y5070345D01*
X6610235Y5081254D01*
X6621145Y5086708D01*
X6637507Y5086708D01*
X6557873Y5086708D02*
G01*
X6557873Y5010345D01*
X6557873Y5064892D02*
G01*
X6541508Y5081254D01*
X6530599Y5086708D01*
X6514236Y5086708D01*
X6503327Y5081254D01*
X6497871Y5064892D01*
X6497871Y5010345D01*
X6497871Y5064892D02*
G01*
X6481508Y5081254D01*
X6470599Y5086708D01*
X6454236Y5086708D01*
X6443327Y5081254D01*
X6437871Y5064892D01*
X6437871Y5010345D01*
X6303690Y5146708D02*
G01*
X6401871Y4972164D01*
X6191326Y5108526D02*
G01*
X6202235Y5119436D01*
X6218600Y5124891D01*
X6240416Y5124891D01*
X6256781Y5119436D01*
X6267691Y5108526D01*
X6267691Y5097617D01*
X6262235Y5086708D01*
X6256781Y5081254D01*
X6245872Y5075798D01*
X6213144Y5064892D01*
X6202235Y5059436D01*
X6196782Y5053982D01*
X6191326Y5043073D01*
X6191326Y5026708D01*
X6202235Y5015798D01*
X6218600Y5010345D01*
X6240416Y5010345D01*
X6256781Y5015798D01*
X6267691Y5026708D01*
X6149873Y5086708D02*
G01*
X6117145Y5010345D01*
X6084417Y5086708D02*
G01*
X6117145Y5010345D01*
X6128054Y4988526D01*
X6138964Y4977617D01*
X6149873Y4972164D01*
X6155326Y4972164D01*
X6048418Y5086708D02*
G01*
X6048418Y5010345D01*
X6048418Y5064892D02*
G01*
X6032052Y5081254D01*
X6021146Y5086708D01*
X6004780Y5086708D01*
X5993871Y5081254D01*
X5988418Y5064892D01*
X5988418Y5010345D01*
X5936053Y5124891D02*
G01*
X5936053Y5032164D01*
X5930600Y5015798D01*
X5919690Y5010345D01*
X5908781Y5010345D01*
X5952418Y5086708D02*
G01*
X5914235Y5086708D01*
X5872782Y5124891D02*
G01*
X5872782Y5010345D01*
X5872782Y5064892D02*
G01*
X5856417Y5081254D01*
X5845507Y5086708D01*
X5829145Y5086708D01*
X5818235Y5081254D01*
X5812782Y5064892D01*
X5812782Y5010345D01*
X5776780Y5053982D02*
G01*
X5711327Y5053982D01*
X5711327Y5064892D01*
X5716780Y5075798D01*
X5722236Y5081254D01*
X5733145Y5086708D01*
X5749508Y5086708D01*
X5760417Y5081254D01*
X5771327Y5070345D01*
X5776780Y5053982D01*
X5776780Y5043073D01*
X5771327Y5026708D01*
X5760417Y5015798D01*
X5749508Y5010345D01*
X5733145Y5010345D01*
X5722236Y5015798D01*
X5711327Y5026708D01*
X5615327Y5070345D02*
G01*
X5620781Y5081254D01*
X5637143Y5086708D01*
X5653509Y5086708D01*
X5669871Y5081254D01*
X5675327Y5070345D01*
X5669871Y5059436D01*
X5658962Y5053982D01*
X5631690Y5048526D01*
X5620781Y5043073D01*
X5615327Y5032164D01*
X5615327Y5026708D01*
X5620781Y5015798D01*
X5637143Y5010345D01*
X5653509Y5010345D01*
X5669871Y5015798D01*
X5675327Y5026708D01*
X5579325Y5124891D02*
G01*
X5573872Y5119436D01*
X5568416Y5124891D01*
X5573872Y5130345D01*
X5579325Y5124891D01*
X5573872Y5086708D02*
G01*
X5573872Y5010345D01*
X5472417Y5070345D02*
G01*
X5477873Y5081254D01*
X5494235Y5086708D01*
X5510598Y5086708D01*
X5526963Y5081254D01*
X5532417Y5070345D01*
X5526963Y5059436D01*
X5516054Y5053982D01*
X5488782Y5048526D01*
X5477873Y5043073D01*
X5472417Y5032164D01*
X5472417Y5026708D01*
X5477873Y5015798D01*
X5494235Y5010345D01*
X5510598Y5010345D01*
X5526963Y5015798D01*
X5532417Y5026708D01*
X5436417Y5124891D02*
G01*
X5436417Y5010345D01*
X5436417Y5124891D02*
G01*
X5398236Y5124891D01*
X5381871Y5119436D01*
X5370962Y5108526D01*
X5365508Y5097617D01*
X5360055Y5081254D01*
X5360055Y5053982D01*
X5365508Y5037617D01*
X5370962Y5026708D01*
X5381871Y5015798D01*
X5398236Y5010345D01*
X5436417Y5010345D01*
X5324053Y5086708D02*
G01*
X5324053Y5032164D01*
X5318599Y5015798D01*
X5307690Y5010345D01*
X5291327Y5010345D01*
X5280418Y5015798D01*
X5264053Y5032164D01*
X5264053Y5086708D02*
G01*
X5264053Y5010345D01*
X5129872Y5146708D02*
G01*
X5228054Y4972164D01*
X5093873Y5124891D02*
G01*
X5093873Y5010345D01*
X5093873Y5124891D02*
G01*
X5044780Y5124891D01*
X5028417Y5119436D01*
X5022964Y5113982D01*
X5017508Y5103073D01*
X5017508Y5086708D01*
X5022964Y5075798D01*
X5028417Y5070345D01*
X5044780Y5064892D01*
X5093873Y5064892D01*
X4899690Y5097617D02*
G01*
X4905143Y5108526D01*
X4916053Y5119436D01*
X4926962Y5124891D01*
X4948781Y5124891D01*
X4959690Y5119436D01*
X4970599Y5108526D01*
X4976053Y5097617D01*
X4981508Y5081254D01*
X4981508Y5053982D01*
X4976053Y5037617D01*
X4970599Y5026708D01*
X4959690Y5015798D01*
X4948781Y5010345D01*
X4926962Y5010345D01*
X4916053Y5015798D01*
X4905143Y5026708D01*
X4899690Y5037617D01*
X4863691Y5124891D02*
G01*
X4863691Y5010345D01*
X4827691Y5124891D02*
G01*
X4827691Y5010345D01*
X4827691Y5124891D02*
G01*
X4756782Y5124891D01*
X4827691Y5070345D02*
G01*
X4784054Y5070345D01*
X4827691Y5010345D02*
G01*
X4756782Y5010345D01*
X4720780Y4972164D02*
G01*
X4622599Y4972164D01*
X4542962Y5124891D02*
G01*
X4586599Y5010345D01*
X4542962Y5124891D02*
G01*
X4499328Y5010345D01*
X4570237Y5048526D02*
G01*
X4515690Y5048526D01*
X4463326Y5086708D02*
G01*
X4463326Y5010345D01*
X4463326Y5053982D02*
G01*
X4457872Y5070345D01*
X4446963Y5081254D01*
X4436054Y5086708D01*
X4419691Y5086708D01*
X4318236Y5124891D02*
G01*
X4318236Y5010345D01*
X4318236Y5070345D02*
G01*
X4329145Y5081254D01*
X4340054Y5086708D01*
X4356417Y5086708D01*
X4367326Y5081254D01*
X4378236Y5070345D01*
X4383689Y5053982D01*
X4383689Y5043073D01*
X4378236Y5026708D01*
X4367326Y5015798D01*
X4356417Y5010345D01*
X4340054Y5010345D01*
X4329145Y5015798D01*
X4318236Y5026708D01*
X4282236Y5086708D02*
G01*
X4282236Y5032164D01*
X4276780Y5015798D01*
X4265871Y5010345D01*
X4249508Y5010345D01*
X4238599Y5015798D01*
X4222236Y5032164D01*
X4222236Y5086708D02*
G01*
X4222236Y5010345D01*
X4186234Y5124891D02*
G01*
X4180781Y5119436D01*
X4175325Y5124891D01*
X4180781Y5130345D01*
X4186234Y5124891D01*
X4180781Y5086708D02*
G01*
X4180781Y5010345D01*
X4139326Y5086708D02*
G01*
X4139326Y5010345D01*
X4139326Y5064892D02*
G01*
X4122963Y5081254D01*
X4112054Y5086708D01*
X4095691Y5086708D01*
X4084782Y5081254D01*
X4079326Y5064892D01*
X4079326Y5010345D01*
X4016054Y5086708D02*
G01*
X4026964Y5081254D01*
X4037873Y5070345D01*
X4043326Y5053982D01*
X4043326Y5043073D01*
X4037873Y5026708D01*
X4026964Y5015798D01*
X4016054Y5010345D01*
X3999689Y5010345D01*
X3988780Y5015798D01*
X3977871Y5026708D01*
X3972417Y5043073D01*
X3972417Y5053982D01*
X3977871Y5070345D01*
X3988780Y5081254D01*
X3999689Y5086708D01*
X4016054Y5086708D01*
D17*
X8048053Y4651664D02*
G01*
X8102600Y4508482D01*
X8048053Y4651664D02*
G01*
X7993509Y4508482D01*
X8082145Y4556208D02*
G01*
X8013964Y4556208D01*
X7948508Y4651664D02*
G01*
X7948508Y4508482D01*
X7903509Y4603937D02*
G01*
X7903509Y4460755D01*
X7903509Y4583483D02*
G01*
X7889872Y4597118D01*
X7876235Y4603937D01*
X7855780Y4603937D01*
X7842145Y4597118D01*
X7828508Y4583483D01*
X7821691Y4563028D01*
X7821691Y4549391D01*
X7828508Y4528936D01*
X7842145Y4515302D01*
X7855780Y4508482D01*
X7876235Y4508482D01*
X7889872Y4515302D01*
X7903509Y4528936D01*
X7776690Y4651664D02*
G01*
X7776690Y4508482D01*
X7776690Y4576663D02*
G01*
X7756235Y4597118D01*
X7742600Y4603937D01*
X7722146Y4603937D01*
X7708508Y4597118D01*
X7701691Y4576663D01*
X7701691Y4508482D01*
X7574871Y4603937D02*
G01*
X7574871Y4508482D01*
X7574871Y4583483D02*
G01*
X7588509Y4597118D01*
X7602146Y4603937D01*
X7622600Y4603937D01*
X7636235Y4597118D01*
X7649872Y4583483D01*
X7656690Y4563028D01*
X7656690Y4549391D01*
X7649872Y4528936D01*
X7636235Y4515302D01*
X7622600Y4508482D01*
X7602146Y4508482D01*
X7588509Y4515302D01*
X7574871Y4528936D01*
X7377145Y4651664D02*
G01*
X7377145Y4508482D01*
X7424872Y4651664D02*
G01*
X7329418Y4651664D01*
X7284417Y4563028D02*
G01*
X7202599Y4563028D01*
X7202599Y4576663D01*
X7209419Y4590300D01*
X7216236Y4597118D01*
X7229873Y4603937D01*
X7250328Y4603937D01*
X7263963Y4597118D01*
X7277600Y4583483D01*
X7284417Y4563028D01*
X7284417Y4549391D01*
X7277600Y4528936D01*
X7263963Y4515302D01*
X7250328Y4508482D01*
X7229873Y4508482D01*
X7216236Y4515302D01*
X7202599Y4528936D01*
X7082599Y4583483D02*
G01*
X7089419Y4597118D01*
X7109871Y4603937D01*
X7130326Y4603937D01*
X7150780Y4597118D01*
X7157600Y4583483D01*
X7150780Y4569846D01*
X7137145Y4563028D01*
X7103054Y4556208D01*
X7089419Y4549391D01*
X7082599Y4535754D01*
X7082599Y4528936D01*
X7089419Y4515302D01*
X7109871Y4508482D01*
X7130326Y4508482D01*
X7150780Y4515302D01*
X7157600Y4528936D01*
X7017146Y4651664D02*
G01*
X7017146Y4535754D01*
X7010326Y4515302D01*
X6996691Y4508482D01*
X6983054Y4508482D01*
X7037600Y4603937D02*
G01*
X6989871Y4603937D01*
X6833054Y4651664D02*
G01*
X6833054Y4508482D01*
X6833054Y4651664D02*
G01*
X6744418Y4651664D01*
X6833054Y4583483D02*
G01*
X6778508Y4583483D01*
X6833054Y4508482D02*
G01*
X6744418Y4508482D01*
X6699417Y4603937D02*
G01*
X6624419Y4508482D01*
X6624419Y4603937D02*
G01*
X6699417Y4508482D01*
X6497599Y4603937D02*
G01*
X6497599Y4508482D01*
X6497599Y4583483D02*
G01*
X6511236Y4597118D01*
X6524873Y4603937D01*
X6545328Y4603937D01*
X6558963Y4597118D01*
X6572600Y4583483D01*
X6579417Y4563028D01*
X6579417Y4549391D01*
X6572600Y4528936D01*
X6558963Y4515302D01*
X6545328Y4508482D01*
X6524873Y4508482D01*
X6511236Y4515302D01*
X6497599Y4528936D01*
X6452600Y4603937D02*
G01*
X6452600Y4508482D01*
X6452600Y4576663D02*
G01*
X6432146Y4597118D01*
X6418508Y4603937D01*
X6398054Y4603937D01*
X6384416Y4597118D01*
X6377599Y4576663D01*
X6377599Y4508482D01*
X6377599Y4576663D02*
G01*
X6357145Y4597118D01*
X6343510Y4603937D01*
X6323055Y4603937D01*
X6309418Y4597118D01*
X6302601Y4576663D01*
X6302601Y4508482D01*
X6257599Y4603937D02*
G01*
X6257599Y4460755D01*
X6257599Y4583483D02*
G01*
X6243962Y4597118D01*
X6230327Y4603937D01*
X6209873Y4603937D01*
X6196236Y4597118D01*
X6182598Y4583483D01*
X6175781Y4563028D01*
X6175781Y4549391D01*
X6182598Y4528936D01*
X6196236Y4515302D01*
X6209873Y4508482D01*
X6230327Y4508482D01*
X6243962Y4515302D01*
X6257599Y4528936D01*
X6130782Y4651664D02*
G01*
X6130782Y4508482D01*
X6085781Y4563028D02*
G01*
X6003963Y4563028D01*
X6003963Y4576663D01*
X6010783Y4590300D01*
X6017600Y4597118D01*
X6031237Y4603937D01*
X6051689Y4603937D01*
X6065326Y4597118D01*
X6078964Y4583483D01*
X6085781Y4563028D01*
X6085781Y4549391D01*
X6078964Y4528936D01*
X6065326Y4515302D01*
X6051689Y4508482D01*
X6031237Y4508482D01*
X6017600Y4515302D01*
X6003963Y4528936D01*
X8095782Y4274690D02*
G01*
X8095782Y4281510D01*
X8088962Y4295145D01*
X8082145Y4301964D01*
X8068508Y4308782D01*
X8041236Y4308782D01*
X8027598Y4301964D01*
X8020781Y4295145D01*
X8013964Y4281510D01*
X8013964Y4267873D01*
X8020781Y4254235D01*
X8034418Y4233781D01*
X8102600Y4165600D01*
X8007144Y4165600D01*
X7921236Y4308782D02*
G01*
X7941690Y4301964D01*
X7955328Y4281510D01*
X7962145Y4247418D01*
X7962145Y4226963D01*
X7955328Y4192871D01*
X7941690Y4172419D01*
X7921236Y4165600D01*
X7907599Y4165600D01*
X7887144Y4172419D01*
X7873509Y4192871D01*
X7866689Y4226963D01*
X7866689Y4247418D01*
X7873509Y4281510D01*
X7887144Y4301964D01*
X7907599Y4308782D01*
X7921236Y4308782D01*
X7814873Y4274690D02*
G01*
X7814873Y4281510D01*
X7808053Y4295145D01*
X7801236Y4301964D01*
X7787599Y4308782D01*
X7760327Y4308782D01*
X7746690Y4301964D01*
X7739872Y4295145D01*
X7733055Y4281510D01*
X7733055Y4267873D01*
X7739872Y4254235D01*
X7753510Y4233781D01*
X7821691Y4165600D01*
X7726235Y4165600D01*
X7681236Y4281510D02*
G01*
X7667599Y4288327D01*
X7647144Y4308782D01*
X7647144Y4165600D01*
X7479418Y4336054D02*
G01*
X7602146Y4117873D01*
X7366236Y4308782D02*
G01*
X7434417Y4213326D01*
X7332144Y4213326D01*
X7366236Y4308782D02*
G01*
X7366236Y4165600D01*
X7164417Y4336054D02*
G01*
X7287145Y4117873D01*
X7112599Y4274690D02*
G01*
X7112599Y4281510D01*
X7105782Y4295145D01*
X7098964Y4301964D01*
X7085327Y4308782D01*
X7058055Y4308782D01*
X7044418Y4301964D01*
X7037600Y4295145D01*
X7030780Y4281510D01*
X7030780Y4267873D01*
X7037600Y4254235D01*
X7051235Y4233781D01*
X7119419Y4165600D01*
X7023963Y4165600D01*
X6938055Y4308782D02*
G01*
X6958510Y4301964D01*
X6972145Y4281510D01*
X6978962Y4247418D01*
X6978962Y4226963D01*
X6972145Y4192871D01*
X6958510Y4172419D01*
X6938055Y4165600D01*
X6924418Y4165600D01*
X6903963Y4172419D01*
X6890326Y4192871D01*
X6883509Y4226963D01*
X6883509Y4247418D01*
X6890326Y4281510D01*
X6903963Y4301964D01*
X6924418Y4308782D01*
X6938055Y4308782D01*
X6678963Y4308782D02*
G01*
X6733509Y4165600D01*
X6678963Y4308782D02*
G01*
X6624419Y4165600D01*
X6713054Y4213326D02*
G01*
X6644873Y4213326D01*
X6579417Y4308782D02*
G01*
X6579417Y4165600D01*
X6534419Y4261055D02*
G01*
X6534419Y4117873D01*
X6534419Y4240601D02*
G01*
X6520781Y4254235D01*
X6507144Y4261055D01*
X6486690Y4261055D01*
X6473055Y4254235D01*
X6459418Y4240601D01*
X6452600Y4220146D01*
X6452600Y4206509D01*
X6459418Y4186054D01*
X6473055Y4172419D01*
X6486690Y4165600D01*
X6507144Y4165600D01*
X6520781Y4172419D01*
X6534419Y4186054D01*
X6407599Y4308782D02*
G01*
X6407599Y4165600D01*
X6407599Y4233781D02*
G01*
X6387144Y4254235D01*
X6373510Y4261055D01*
X6353055Y4261055D01*
X6339418Y4254235D01*
X6332600Y4233781D01*
X6332600Y4165600D01*
X6205781Y4261055D02*
G01*
X6205781Y4165600D01*
X6205781Y4240601D02*
G01*
X6219418Y4254235D01*
X6233053Y4261055D01*
X6253507Y4261055D01*
X6267145Y4254235D01*
X6280782Y4240601D01*
X6287599Y4220146D01*
X6287599Y4206509D01*
X6280782Y4186054D01*
X6267145Y4172419D01*
X6253507Y4165600D01*
X6233053Y4165600D01*
X6219418Y4172419D01*
X6205781Y4186054D01*
X6048964Y4274690D02*
G01*
X6048964Y4281510D01*
X6042144Y4295145D01*
X6035327Y4301964D01*
X6021689Y4308782D01*
X5994417Y4308782D01*
X5980783Y4301964D01*
X5973963Y4295145D01*
X5967145Y4281510D01*
X5967145Y4267873D01*
X5973963Y4254235D01*
X5987600Y4233781D01*
X6055781Y4165600D01*
X5960328Y4165600D01*
X5908509Y4199691D02*
G01*
X5915327Y4192871D01*
X5908509Y4186054D01*
X5901690Y4192871D01*
X5908509Y4199691D01*
X5815782Y4308782D02*
G01*
X5836236Y4301964D01*
X5849871Y4281510D01*
X5856691Y4247418D01*
X5856691Y4226963D01*
X5849871Y4192871D01*
X5836236Y4172419D01*
X5815782Y4165600D01*
X5802144Y4165600D01*
X5781690Y4172419D01*
X5768055Y4192871D01*
X5761235Y4226963D01*
X5761235Y4247418D01*
X5768055Y4281510D01*
X5781690Y4301964D01*
X5802144Y4308782D01*
X5815782Y4308782D01*
X8000326Y3807101D02*
G01*
X8007144Y3820739D01*
X8020781Y3834376D01*
X8034418Y3841193D01*
X8061690Y3841193D01*
X8075328Y3834376D01*
X8088962Y3820739D01*
X8095782Y3807101D01*
X8102600Y3786647D01*
X8102600Y3752557D01*
X8095782Y3732103D01*
X8088962Y3718466D01*
X8075328Y3704831D01*
X8061690Y3698011D01*
X8034418Y3698011D01*
X8020781Y3704831D01*
X8007144Y3718466D01*
X8000326Y3732103D01*
X7955325Y3841193D02*
G01*
X7955325Y3698011D01*
X7859872Y3841193D02*
G01*
X7859872Y3698011D01*
X7955325Y3773012D02*
G01*
X7859872Y3773012D01*
X7801236Y3841193D02*
G01*
X7726235Y3841193D01*
X7767144Y3786647D01*
X7746690Y3786647D01*
X7733055Y3779829D01*
X7726235Y3773012D01*
X7719418Y3752557D01*
X7719418Y3738920D01*
X7726235Y3718466D01*
X7739872Y3704831D01*
X7760327Y3698011D01*
X7780781Y3698011D01*
X7801236Y3704831D01*
X7808053Y3711648D01*
X7814871Y3725283D01*
X7640327Y3841193D02*
G01*
X7660782Y3834376D01*
X7667599Y3820739D01*
X7667599Y3807101D01*
X7660782Y3793467D01*
X7647144Y3786647D01*
X7619872Y3779829D01*
X7599418Y3773012D01*
X7585781Y3759375D01*
X7578963Y3745737D01*
X7578963Y3725283D01*
X7585781Y3711648D01*
X7592598Y3704831D01*
X7613053Y3698011D01*
X7640327Y3698011D01*
X7660782Y3704831D01*
X7667599Y3711648D01*
X7674416Y3725283D01*
X7674416Y3745737D01*
X7667599Y3759375D01*
X7653962Y3773012D01*
X7633507Y3779829D01*
X7606235Y3786647D01*
X7592598Y3793467D01*
X7585781Y3807101D01*
X7585781Y3820739D01*
X7592598Y3834376D01*
X7613053Y3841193D01*
X7640327Y3841193D01*
X7527145Y3807101D02*
G01*
X7527145Y3813921D01*
X7520327Y3827556D01*
X7513507Y3834376D01*
X7499873Y3841193D01*
X7472598Y3841193D01*
X7458963Y3834376D01*
X7452144Y3827556D01*
X7445326Y3813921D01*
X7445326Y3800284D01*
X7452144Y3786647D01*
X7465781Y3766192D01*
X7533962Y3698011D01*
X7438509Y3698011D01*
X7393508Y3841193D02*
G01*
X7393508Y3698011D01*
X7393508Y3698011D02*
G01*
X7311689Y3698011D01*
X7205327Y3820739D02*
G01*
X7205327Y3698011D01*
X7266691Y3759375D02*
G01*
X7143963Y3759375D01*
X7098962Y3841193D02*
G01*
X7098962Y3698011D01*
X7098962Y3841193D02*
G01*
X7044418Y3698011D01*
X6989871Y3841193D02*
G01*
X7044418Y3698011D01*
X6989871Y3841193D02*
G01*
X6989871Y3698011D01*
X6890326Y3841193D02*
G01*
X6944873Y3698011D01*
X6890326Y3841193D02*
G01*
X6835782Y3698011D01*
X6924418Y3745737D02*
G01*
X6856237Y3745737D01*
X6790781Y3841193D02*
G01*
X6695325Y3698011D01*
X6695325Y3841193D02*
G01*
X6790781Y3698011D01*
X6636689Y3841193D02*
G01*
X6561691Y3841193D01*
X6602600Y3786647D01*
X6582145Y3786647D01*
X6568508Y3779829D01*
X6561691Y3773012D01*
X6554871Y3752557D01*
X6554871Y3738920D01*
X6561691Y3718466D01*
X6575325Y3704831D01*
X6595780Y3698011D01*
X6616235Y3698011D01*
X6636689Y3704831D01*
X6643509Y3711648D01*
X6650327Y3725283D01*
X6503055Y3807101D02*
G01*
X6503055Y3813921D01*
X6496235Y3827556D01*
X6489418Y3834376D01*
X6475780Y3841193D01*
X6448508Y3841193D01*
X6434871Y3834376D01*
X6428054Y3827556D01*
X6421236Y3813921D01*
X6421236Y3800284D01*
X6428054Y3786647D01*
X6441691Y3766192D01*
X6509872Y3698011D01*
X6414416Y3698011D01*
X6301237Y3841193D02*
G01*
X6369418Y3745737D01*
X6267145Y3745737D01*
X6301237Y3841193D02*
G01*
X6301237Y3698011D01*
X6208509Y3841193D02*
G01*
X6133508Y3841193D01*
X6174417Y3786647D01*
X6153962Y3786647D01*
X6140328Y3779829D01*
X6133508Y3773012D01*
X6126690Y3752557D01*
X6126690Y3738920D01*
X6133508Y3718466D01*
X6147145Y3704831D01*
X6167600Y3698011D01*
X6188054Y3698011D01*
X6208509Y3704831D01*
X6215326Y3711648D01*
X6222144Y3725283D01*
X5928964Y3868465D02*
G01*
X5942599Y3854830D01*
X5956236Y3834376D01*
X5969871Y3807101D01*
X5976691Y3773012D01*
X5976691Y3745737D01*
X5969871Y3711648D01*
X5956236Y3684376D01*
X5942599Y3663922D01*
X5928964Y3650284D01*
X5883963Y3841193D02*
G01*
X5883963Y3698011D01*
X5883963Y3841193D02*
G01*
X5822599Y3841193D01*
X5802144Y3834376D01*
X5795327Y3827556D01*
X5788507Y3813921D01*
X5788507Y3793467D01*
X5795327Y3779829D01*
X5802144Y3773012D01*
X5822599Y3766192D01*
X5883963Y3766192D01*
X5641235Y3807101D02*
G01*
X5648053Y3820739D01*
X5661690Y3834376D01*
X5675327Y3841193D01*
X5702599Y3841193D01*
X5716236Y3834376D01*
X5729871Y3820739D01*
X5736691Y3807101D01*
X5743508Y3786647D01*
X5743508Y3752557D01*
X5736691Y3732103D01*
X5729871Y3718466D01*
X5716236Y3704831D01*
X5702599Y3698011D01*
X5675327Y3698011D01*
X5661690Y3704831D01*
X5648053Y3718466D01*
X5641235Y3732103D01*
X5596237Y3841193D02*
G01*
X5596237Y3698011D01*
X5551236Y3841193D02*
G01*
X5551236Y3698011D01*
X5551236Y3841193D02*
G01*
X5462600Y3841193D01*
X5551236Y3773012D02*
G01*
X5496689Y3773012D01*
X5551236Y3698011D02*
G01*
X5462600Y3698011D01*
X5417599Y3759375D02*
G01*
X5294871Y3759375D01*
X5249872Y3841193D02*
G01*
X5249872Y3698011D01*
X5249872Y3841193D02*
G01*
X5188508Y3841193D01*
X5168054Y3834376D01*
X5161236Y3827556D01*
X5154416Y3813921D01*
X5154416Y3800284D01*
X5161236Y3786647D01*
X5168054Y3779829D01*
X5188508Y3773012D01*
X5249872Y3773012D01*
X5202146Y3773012D02*
G01*
X5154416Y3698011D01*
X5013962Y3820739D02*
G01*
X5027599Y3834376D01*
X5048054Y3841193D01*
X5075326Y3841193D01*
X5095781Y3834376D01*
X5109418Y3820739D01*
X5109418Y3807101D01*
X5102598Y3793467D01*
X5095781Y3786647D01*
X5082146Y3779829D01*
X5041237Y3766192D01*
X5027599Y3759375D01*
X5020782Y3752557D01*
X5013962Y3738920D01*
X5013962Y3718466D01*
X5027599Y3704831D01*
X5048054Y3698011D01*
X5075326Y3698011D01*
X5095781Y3704831D01*
X5109418Y3718466D01*
X4962143Y3807101D02*
G01*
X4962143Y3813921D01*
X4955326Y3827556D01*
X4948509Y3834376D01*
X4934872Y3841193D01*
X4907600Y3841193D01*
X4893962Y3834376D01*
X4887145Y3827556D01*
X4880328Y3813921D01*
X4880328Y3800284D01*
X4887145Y3786647D01*
X4900782Y3766192D01*
X4968963Y3698011D01*
X4873508Y3698011D01*
X4814872Y3841193D02*
G01*
X4739871Y3841193D01*
X4780780Y3786647D01*
X4760325Y3786647D01*
X4746691Y3779829D01*
X4739871Y3773012D01*
X4733053Y3752557D01*
X4733053Y3738920D01*
X4739871Y3718466D01*
X4753508Y3704831D01*
X4773963Y3698011D01*
X4794417Y3698011D01*
X4814872Y3704831D01*
X4821689Y3711648D01*
X4828509Y3725283D01*
X4681235Y3807101D02*
G01*
X4681235Y3813921D01*
X4674417Y3827556D01*
X4667600Y3834376D01*
X4653963Y3841193D01*
X4626691Y3841193D01*
X4613054Y3834376D01*
X4606236Y3827556D01*
X4599416Y3813921D01*
X4599416Y3800284D01*
X4606236Y3786647D01*
X4619871Y3766192D01*
X4688055Y3698011D01*
X4592599Y3698011D01*
X4547600Y3868465D02*
G01*
X4533963Y3854830D01*
X4520326Y3834376D01*
X4506691Y3807101D01*
X4499871Y3773012D01*
X4499871Y3745737D01*
X4506691Y3711648D01*
X4520326Y3684376D01*
X4533963Y3663922D01*
X4547600Y3650284D01*
X8007144Y3477849D02*
G01*
X8020781Y3491486D01*
X8041236Y3498303D01*
X8068508Y3498303D01*
X8088962Y3491486D01*
X8102600Y3477849D01*
X8102600Y3464212D01*
X8095782Y3450577D01*
X8088962Y3443757D01*
X8075328Y3436940D01*
X8034418Y3423302D01*
X8020781Y3416485D01*
X8013964Y3409668D01*
X8007144Y3396030D01*
X8007144Y3375576D01*
X8020781Y3361941D01*
X8041236Y3355121D01*
X8068508Y3355121D01*
X8088962Y3361941D01*
X8102600Y3375576D01*
X7962145Y3498303D02*
G01*
X7962145Y3355121D01*
X7962145Y3498303D02*
G01*
X7900781Y3498303D01*
X7880327Y3491486D01*
X7873509Y3484666D01*
X7866689Y3471031D01*
X7866689Y3450577D01*
X7873509Y3436940D01*
X7880327Y3430122D01*
X7900781Y3423302D01*
X7962145Y3423302D01*
X7808053Y3498303D02*
G01*
X7733055Y3498303D01*
X7773962Y3443757D01*
X7753507Y3443757D01*
X7739872Y3436940D01*
X7733055Y3430122D01*
X7726235Y3409668D01*
X7726235Y3396030D01*
X7733055Y3375576D01*
X7746690Y3361941D01*
X7767144Y3355121D01*
X7787599Y3355121D01*
X7808053Y3361941D01*
X7814871Y3368758D01*
X7821691Y3382393D01*
X7674416Y3464212D02*
G01*
X7674416Y3471031D01*
X7667599Y3484666D01*
X7660782Y3491486D01*
X7647144Y3498303D01*
X7619872Y3498303D01*
X7606235Y3491486D01*
X7599418Y3484666D01*
X7592598Y3471031D01*
X7592598Y3457394D01*
X7599418Y3443757D01*
X7613053Y3423302D01*
X7681236Y3355121D01*
X7585781Y3355121D01*
X7527145Y3498303D02*
G01*
X7452144Y3498303D01*
X7493053Y3443757D01*
X7472598Y3443757D01*
X7458963Y3436940D01*
X7452144Y3430122D01*
X7445326Y3409668D01*
X7445326Y3396030D01*
X7452144Y3375576D01*
X7465781Y3361941D01*
X7486235Y3355121D01*
X7506690Y3355121D01*
X7527145Y3361941D01*
X7533962Y3368758D01*
X7540782Y3382393D01*
X7393508Y3464212D02*
G01*
X7393508Y3471031D01*
X7386690Y3484666D01*
X7379873Y3491486D01*
X7366236Y3498303D01*
X7338964Y3498303D01*
X7325326Y3491486D01*
X7318509Y3484666D01*
X7311689Y3471031D01*
X7311689Y3457394D01*
X7318509Y3443757D01*
X7332144Y3423302D01*
X7400328Y3355121D01*
X7304872Y3355121D01*
X7259871Y3498303D02*
G01*
X7259871Y3355121D01*
X7259871Y3498303D02*
G01*
X7171235Y3498303D01*
X7259871Y3430122D02*
G01*
X7205327Y3430122D01*
X7259871Y3355121D02*
G01*
X7171235Y3355121D01*
X7126236Y3498303D02*
G01*
X7126236Y3355121D01*
X7126236Y3498303D02*
G01*
X7037600Y3498303D01*
X7126236Y3430122D02*
G01*
X7071690Y3430122D01*
X7126236Y3355121D02*
G01*
X7037600Y3355121D01*
X6992599Y3498303D02*
G01*
X6992599Y3355121D01*
X6992599Y3498303D02*
G01*
X6897143Y3355121D01*
X6897143Y3498303D02*
G01*
X6897143Y3355121D01*
X6852145Y3416485D02*
G01*
X6729417Y3416485D01*
X6684418Y3498303D02*
G01*
X6684418Y3355121D01*
X6684418Y3355121D02*
G01*
X6602600Y3355121D01*
X6434871Y3525575D02*
G01*
X6557599Y3307394D01*
X6342146Y3498303D02*
G01*
X6342146Y3355121D01*
X6389872Y3498303D02*
G01*
X6294417Y3498303D01*
X6249418Y3498303D02*
G01*
X6249418Y3355121D01*
X6249418Y3498303D02*
G01*
X6188054Y3498303D01*
X6167600Y3491486D01*
X6160782Y3484666D01*
X6153962Y3471031D01*
X6153962Y3457394D01*
X6160782Y3443757D01*
X6167600Y3436940D01*
X6188054Y3430122D01*
X6249418Y3430122D01*
X6201689Y3430122D02*
G01*
X6153962Y3355121D01*
X5956236Y3525575D02*
G01*
X5969871Y3511941D01*
X5983508Y3491486D01*
X5997145Y3464212D01*
X6003963Y3430122D01*
X6003963Y3402848D01*
X5997145Y3368758D01*
X5983508Y3341486D01*
X5969871Y3321032D01*
X5956236Y3307394D01*
X5911235Y3498303D02*
G01*
X5911235Y3355121D01*
X5911235Y3498303D02*
G01*
X5849871Y3498303D01*
X5829416Y3491486D01*
X5822599Y3484666D01*
X5815782Y3471031D01*
X5815782Y3457394D01*
X5822599Y3443757D01*
X5829416Y3436940D01*
X5849871Y3430122D01*
X5911235Y3430122D01*
X5863508Y3430122D02*
G01*
X5815782Y3355121D01*
X5675327Y3477849D02*
G01*
X5688962Y3491486D01*
X5709417Y3498303D01*
X5736691Y3498303D01*
X5757146Y3491486D01*
X5770780Y3477849D01*
X5770780Y3464212D01*
X5763963Y3450577D01*
X5757146Y3443757D01*
X5743508Y3436940D01*
X5702599Y3423302D01*
X5688962Y3416485D01*
X5682145Y3409668D01*
X5675327Y3396030D01*
X5675327Y3375576D01*
X5688962Y3361941D01*
X5709417Y3355121D01*
X5736691Y3355121D01*
X5757146Y3361941D01*
X5770780Y3375576D01*
X5623509Y3464212D02*
G01*
X5623509Y3471031D01*
X5616689Y3484666D01*
X5609871Y3491486D01*
X5596237Y3498303D01*
X5568962Y3498303D01*
X5555327Y3491486D01*
X5548508Y3484666D01*
X5541690Y3471031D01*
X5541690Y3457394D01*
X5548508Y3443757D01*
X5562145Y3423302D01*
X5630326Y3355121D01*
X5534873Y3355121D01*
X5476234Y3498303D02*
G01*
X5401236Y3498303D01*
X5442145Y3443757D01*
X5421690Y3443757D01*
X5408053Y3436940D01*
X5401236Y3430122D01*
X5394418Y3409668D01*
X5394418Y3396030D01*
X5401236Y3375576D01*
X5414873Y3361941D01*
X5435325Y3355121D01*
X5455780Y3355121D01*
X5476234Y3361941D01*
X5483054Y3368758D01*
X5489872Y3382393D01*
X5342600Y3464212D02*
G01*
X5342600Y3471031D01*
X5335780Y3484666D01*
X5328963Y3491486D01*
X5315325Y3498303D01*
X5288053Y3498303D01*
X5274416Y3491486D01*
X5267599Y3484666D01*
X5260781Y3471031D01*
X5260781Y3457394D01*
X5267599Y3443757D01*
X5281236Y3423302D01*
X5349417Y3355121D01*
X5253962Y3355121D01*
X5208963Y3416485D02*
G01*
X5086235Y3416485D01*
X4993507Y3498303D02*
G01*
X4993507Y3355121D01*
X5041237Y3498303D02*
G01*
X4945781Y3498303D01*
X4853053Y3498303D02*
G01*
X4853053Y3355121D01*
X4900782Y3498303D02*
G01*
X4805326Y3498303D01*
X4760325Y3498303D02*
G01*
X4760325Y3355121D01*
X4760325Y3355121D02*
G01*
X4678509Y3355121D01*
X4633508Y3525575D02*
G01*
X4619871Y3511941D01*
X4606236Y3491486D01*
X4592599Y3464212D01*
X4585782Y3430122D01*
X4585782Y3402848D01*
X4592599Y3368758D01*
X4606236Y3341486D01*
X4619871Y3321032D01*
X4633508Y3307394D01*
X8048053Y3155416D02*
G01*
X8102600Y3012234D01*
X8048053Y3155416D02*
G01*
X7993509Y3012234D01*
X8082145Y3059960D02*
G01*
X8013964Y3059960D01*
X7948508Y3107689D02*
G01*
X7948508Y3012234D01*
X7948508Y3066780D02*
G01*
X7941690Y3087235D01*
X7928053Y3100870D01*
X7914419Y3107689D01*
X7893964Y3107689D01*
X7767144Y3155416D02*
G01*
X7767144Y3012234D01*
X7767144Y3087235D02*
G01*
X7780781Y3100870D01*
X7794416Y3107689D01*
X7814871Y3107689D01*
X7828508Y3100870D01*
X7842145Y3087235D01*
X7848963Y3066780D01*
X7848963Y3053143D01*
X7842145Y3032688D01*
X7828508Y3019054D01*
X7814871Y3012234D01*
X7794416Y3012234D01*
X7780781Y3019054D01*
X7767144Y3032688D01*
X7722146Y3107689D02*
G01*
X7722146Y3039506D01*
X7715326Y3019054D01*
X7701691Y3012234D01*
X7681236Y3012234D01*
X7667599Y3019054D01*
X7647144Y3039506D01*
X7647144Y3107689D02*
G01*
X7647144Y3012234D01*
X7602146Y3155416D02*
G01*
X7595326Y3148599D01*
X7588509Y3155416D01*
X7595326Y3162233D01*
X7602146Y3155416D01*
X7595326Y3107689D02*
G01*
X7595326Y3012234D01*
X7543507Y3107689D02*
G01*
X7543507Y3012234D01*
X7543507Y3080415D02*
G01*
X7523053Y3100870D01*
X7509418Y3107689D01*
X7488963Y3107689D01*
X7475326Y3100870D01*
X7468509Y3080415D01*
X7468509Y3012234D01*
X7389418Y3107689D02*
G01*
X7403053Y3100870D01*
X7416690Y3087235D01*
X7423508Y3066780D01*
X7423508Y3053143D01*
X7416690Y3032688D01*
X7403053Y3019054D01*
X7389418Y3012234D01*
X7368964Y3012234D01*
X7355326Y3019054D01*
X7341689Y3032688D01*
X7334872Y3053143D01*
X7334872Y3066780D01*
X7341689Y3087235D01*
X7355326Y3100870D01*
X7368964Y3107689D01*
X7389418Y3107689D01*
X7184872Y3155416D02*
G01*
X7184872Y3053143D01*
X7178055Y3032688D01*
X7164417Y3019054D01*
X7143963Y3012234D01*
X7130326Y3012234D01*
X7109871Y3019054D01*
X7096236Y3032688D01*
X7089416Y3053143D01*
X7089416Y3155416D01*
X7044418Y3155416D02*
G01*
X7044418Y3012234D01*
X7044418Y3155416D02*
G01*
X6948962Y3012234D01*
X6948962Y3155416D02*
G01*
X6948962Y3012234D01*
X6863054Y3155416D02*
G01*
X6876689Y3148599D01*
X6890326Y3134961D01*
X6897143Y3121324D01*
X6903963Y3100870D01*
X6903963Y3066780D01*
X6897143Y3046326D01*
X6890326Y3032688D01*
X6876689Y3019054D01*
X6863054Y3012234D01*
X6835782Y3012234D01*
X6822145Y3019054D01*
X6808508Y3032688D01*
X6801690Y3046326D01*
X6794873Y3066780D01*
X6794873Y3100870D01*
X6801690Y3121324D01*
X6808508Y3134961D01*
X6822145Y3148599D01*
X6835782Y3155416D01*
X6863054Y3155416D01*
X6597144Y3182688D02*
G01*
X6610781Y3169053D01*
X6624419Y3148599D01*
X6638053Y3121324D01*
X6644871Y3087235D01*
X6644871Y3059960D01*
X6638053Y3025871D01*
X6624419Y2998599D01*
X6610781Y2978144D01*
X6597144Y2964507D01*
X6504416Y3155416D02*
G01*
X6504416Y3012234D01*
X6552145Y3155416D02*
G01*
X6456690Y3155416D01*
X6363962Y3155416D02*
G01*
X6363962Y3012234D01*
X6411691Y3155416D02*
G01*
X6316235Y3155416D01*
X6271237Y3155416D02*
G01*
X6271237Y3012234D01*
X6271237Y3012234D02*
G01*
X6189418Y3012234D01*
X6144417Y3182688D02*
G01*
X6130780Y3169053D01*
X6117145Y3148599D01*
X6103508Y3121324D01*
X6096690Y3087235D01*
X6096690Y3059960D01*
X6103508Y3025871D01*
X6117145Y2998599D01*
X6130780Y2978144D01*
X6144417Y2964507D01*
D16*
X5866643Y4635500D02*
G01*
X5866643Y4673600D01*
X4596643Y4673600D01*
X4596643Y4457700D01*
X5866643Y4457700D01*
X5866643Y4635500D01*
D13*
X3937508Y1722201D02*
G01*
X8102600Y1722201D01*
X3937508Y2839801D02*
G01*
X8102600Y2839801D01*
X3937508Y3993169D02*
G01*
X8102600Y3993169D01*
X3937447Y4775200D02*
G01*
X8102600Y4775200D01*
G36*
X342900Y6210300D02*
G01*
X3670300Y6210300D01*
X3670300Y-660400D01*
X342900Y-660400D01*
G37*
M02*
