G04 Layer: TopSolderMaskLayer*
G04 EasyEDA v6.4.7, 2021-02-17T04:49:32+08:00*
G04 bff483f3f3824ca1b03819d89778f428,119f753a6ce64b8d841f2ad33262ab0c,10*
G04 Gerber Generator version 0.2*
G04 Scale: 100 percent, Rotated: No, Reflected: No *
G04 Dimensions in millimeters *
G04 leading zeros omitted , absolute positions ,3 integer and 3 decimal *
%FSLAX33Y33*%
%MOMM*%
G90*
D02*

%ADD67C,1.403198*%
%ADD68C,0.406400*%
%ADD69C,1.727200*%
%ADD70C,0.444602*%
%ADD71C,0.703605*%
%ADD72C,1.003198*%
%ADD73C,2.003196*%
%ADD75C,1.803197*%
%ADD76C,1.092200*%
%ADD79C,1.703197*%
%ADD82R,1.727200X1.727200*%
%ADD83C,1.103198*%
%ADD84R,1.117600X1.117600*%

%LPD*%
G54D67*
G01X62611Y68420D02*
G01X62611Y67120D01*
G01X60071Y68420D02*
G01X60071Y67120D01*
G01X57531Y68420D02*
G01X57531Y67120D01*
G01X54991Y68420D02*
G01X54991Y67120D01*
G01X52451Y68420D02*
G01X52451Y67120D01*
G01X49911Y68420D02*
G01X49911Y67120D01*
G01X47371Y68420D02*
G01X47371Y67120D01*
G01X39751Y68420D02*
G01X39751Y67120D01*
G01X62611Y60800D02*
G01X62611Y59500D01*
G01X60071Y60800D02*
G01X60071Y59500D01*
G01X57531Y60800D02*
G01X57531Y59500D01*
G01X54991Y60800D02*
G01X54991Y59500D01*
G01X52451Y60800D02*
G01X52451Y59500D01*
G01X49911Y60800D02*
G01X49911Y59500D01*
G01X47371Y60800D02*
G01X47371Y59500D01*
G01X44831Y60800D02*
G01X44831Y59500D01*
G01X42291Y60800D02*
G01X42291Y59500D01*
G01X39751Y60800D02*
G01X39751Y59500D01*
G01X37211Y68420D02*
G01X37211Y67120D01*
G01X34671Y68420D02*
G01X34671Y67120D01*
G01X32131Y68420D02*
G01X32131Y67120D01*
G01X29591Y68420D02*
G01X29591Y67120D01*
G01X27051Y68420D02*
G01X27051Y67120D01*
G01X37211Y60800D02*
G01X37211Y59500D01*
G01X34671Y60800D02*
G01X34671Y59500D01*
G01X32131Y60800D02*
G01X32131Y59500D01*
G01X29591Y60800D02*
G01X29591Y59500D01*
G01X27051Y60800D02*
G01X27051Y59500D01*
G01X44831Y68420D02*
G01X44831Y67120D01*
G01X42291Y68420D02*
G01X42291Y67120D01*
G54D68*
G01X59818Y19012D02*
G01X59064Y19766D01*
G01X58404Y17598D02*
G01X57650Y18352D01*
G01X61233Y20426D02*
G01X60478Y21180D01*
G01X60950Y20143D02*
G01X60195Y20897D01*
G01X60384Y19577D02*
G01X59630Y20332D01*
G01X60101Y19295D02*
G01X59347Y20049D01*
G01X58687Y17881D02*
G01X57933Y18635D01*
G01X58970Y18163D02*
G01X58216Y18918D01*
G01X60667Y19860D02*
G01X59912Y20615D01*
G01X51192Y23113D02*
G01X50437Y23867D01*
G01X58121Y17315D02*
G01X57367Y18069D01*
G01X56518Y27073D02*
G01X57273Y27827D01*
G01X50154Y20709D02*
G01X50909Y21463D01*
G01X57556Y16749D02*
G01X56801Y17504D01*
G01X60195Y23396D02*
G01X60950Y24150D01*
G01X59253Y18446D02*
G01X58498Y19201D01*
G01X53548Y17315D02*
G01X54303Y18069D01*
G01X52134Y18729D02*
G01X52889Y19483D01*
G01X50909Y22830D02*
G01X50154Y23585D01*
G01X55152Y27073D02*
G01X54397Y27827D01*
G01X57838Y17032D02*
G01X57084Y17786D01*
G01X61515Y20709D02*
G01X60761Y21463D01*
G01X54114Y16749D02*
G01X54869Y17503D01*
G01X53831Y17032D02*
G01X54586Y17786D01*
G01X59535Y18729D02*
G01X58781Y19483D01*
G01X59912Y23679D02*
G01X60667Y24433D01*
G01X59630Y23962D02*
G01X60384Y24716D01*
G01X52606Y24527D02*
G01X51852Y25282D01*
G01X52889Y24810D02*
G01X52134Y25564D01*
G01X52323Y24244D02*
G01X51569Y24999D01*
G01X51757Y23679D02*
G01X51003Y24433D01*
G01X53171Y25093D02*
G01X52417Y25847D01*
G01X53454Y25376D02*
G01X52700Y26130D01*
G01X51474Y23396D02*
G01X50720Y24150D01*
G01X52040Y23962D02*
G01X51286Y24716D01*
G01X57932Y25659D02*
G01X58687Y26413D01*
G01X56801Y26790D02*
G01X57555Y27544D01*
G01X57084Y26507D02*
G01X57838Y27261D01*
G01X57650Y25941D02*
G01X58404Y26696D01*
G01X57367Y26224D02*
G01X58121Y26978D01*
G01X50720Y20143D02*
G01X51474Y20897D01*
G01X50437Y20426D02*
G01X51191Y21180D01*
G01X51003Y19860D02*
G01X51757Y20615D01*
G01X52983Y17881D02*
G01X53737Y18635D01*
G01X53266Y17598D02*
G01X54020Y18352D01*
G01X58781Y24810D02*
G01X59535Y25564D01*
G01X52700Y18163D02*
G01X53454Y18918D01*
G01X52417Y18446D02*
G01X53171Y19201D01*
G01X59064Y24527D02*
G01X59818Y25282D01*
G01X58498Y25093D02*
G01X59253Y25847D01*
G01X58215Y25376D02*
G01X58970Y26130D01*
G01X59347Y24244D02*
G01X60101Y24999D01*
G01X54397Y16466D02*
G01X55152Y17220D01*
G01X53737Y25659D02*
G01X52983Y26413D01*
G01X54586Y26507D02*
G01X53831Y27261D01*
G01X54020Y25941D02*
G01X53266Y26696D01*
G01X51851Y19012D02*
G01X52606Y19766D01*
G01X60761Y22830D02*
G01X61515Y23585D01*
G01X60478Y23113D02*
G01X61233Y23867D01*
G01X54303Y26224D02*
G01X53548Y26978D01*
G01X51568Y19295D02*
G01X52323Y20049D01*
G01X54869Y26790D02*
G01X54114Y27544D01*
G01X51286Y19577D02*
G01X52040Y20332D01*
G54D69*
G01X28655Y20542D02*
G01X28655Y21018D01*
G01X25716Y18280D02*
G01X26192Y18280D01*
G01X25716Y23280D02*
G01X26192Y23280D01*
G54D70*
G01X51088Y35652D02*
G01X51088Y37040D01*
G01X50438Y35652D02*
G01X50438Y37040D01*
G01X49788Y35652D02*
G01X49788Y37040D01*
G01X49138Y35652D02*
G01X49138Y37040D01*
G01X48488Y35652D02*
G01X48488Y37040D01*
G01X47838Y35652D02*
G01X47838Y37040D01*
G01X47187Y35652D02*
G01X47187Y37040D01*
G01X46537Y35652D02*
G01X46537Y37040D01*
G01X45887Y35652D02*
G01X45887Y37040D01*
G01X45237Y35652D02*
G01X45237Y37040D01*
G01X44587Y35652D02*
G01X44587Y37040D01*
G01X43937Y35652D02*
G01X43937Y37040D01*
G01X43287Y35652D02*
G01X43287Y37040D01*
G01X42637Y35652D02*
G01X42637Y37040D01*
G01X51088Y29920D02*
G01X51088Y31309D01*
G01X50438Y29920D02*
G01X50438Y31309D01*
G01X49788Y29920D02*
G01X49788Y31309D01*
G01X49138Y29920D02*
G01X49138Y31309D01*
G01X48488Y29920D02*
G01X48488Y31309D01*
G01X47838Y29920D02*
G01X47838Y31309D01*
G01X47187Y29920D02*
G01X47187Y31309D01*
G01X46537Y29920D02*
G01X46537Y31309D01*
G01X45887Y29920D02*
G01X45887Y31309D01*
G01X45237Y29920D02*
G01X45237Y31309D01*
G01X44587Y29920D02*
G01X44587Y31309D01*
G01X43937Y29920D02*
G01X43937Y31309D01*
G01X43287Y29920D02*
G01X43287Y31309D01*
G01X42637Y29920D02*
G01X42637Y31309D01*
G54D71*
G01X39878Y35531D02*
G01X39878Y36900D01*
G01X38608Y35531D02*
G01X38608Y36900D01*
G01X37338Y35531D02*
G01X37338Y36900D01*
G01X36068Y35531D02*
G01X36068Y36900D01*
G01X34798Y35531D02*
G01X34798Y36900D01*
G01X33528Y35531D02*
G01X33528Y36900D01*
G01X32258Y35531D02*
G01X32258Y36900D01*
G01X30988Y35531D02*
G01X30988Y36900D01*
G01X39878Y30060D02*
G01X39878Y31429D01*
G01X38608Y30060D02*
G01X38608Y31429D01*
G01X37338Y30060D02*
G01X37338Y31429D01*
G01X36068Y30060D02*
G01X36068Y31429D01*
G01X34798Y30060D02*
G01X34798Y31429D01*
G01X33528Y30060D02*
G01X33528Y31429D01*
G01X32258Y30060D02*
G01X32258Y31429D01*
G01X30988Y30060D02*
G01X30988Y31429D01*
G54D72*
G01X17746Y14408D02*
G01X16746Y14408D01*
G01X17746Y21565D02*
G01X16746Y21565D01*
G01X21556Y21569D02*
G01X20556Y21569D01*
G01X21556Y14411D02*
G01X20556Y14411D01*
G36*
G01X59385Y5600D02*
G01X60085Y5600D01*
G01X60085Y1300D01*
G01X59385Y1300D01*
G01X59385Y5600D01*
G37*
G36*
G01X58385Y5600D02*
G01X59085Y5600D01*
G01X59085Y1300D01*
G01X58385Y1300D01*
G01X58385Y5600D01*
G37*
G36*
G01X60385Y5600D02*
G01X61085Y5600D01*
G01X61085Y1300D01*
G01X60385Y1300D01*
G01X60385Y5600D01*
G37*
G36*
G01X62385Y5600D02*
G01X63085Y5600D01*
G01X63085Y1300D01*
G01X62385Y1300D01*
G01X62385Y5600D01*
G37*
G36*
G01X61385Y5600D02*
G01X62085Y5600D01*
G01X62085Y1300D01*
G01X61385Y1300D01*
G01X61385Y5600D01*
G37*
G36*
G01X64385Y5600D02*
G01X65085Y5600D01*
G01X65085Y1300D01*
G01X64385Y1300D01*
G01X64385Y5600D01*
G37*
G36*
G01X63385Y5600D02*
G01X64085Y5600D01*
G01X64085Y2400D01*
G01X63385Y2400D01*
G01X63385Y5600D01*
G37*
G36*
G01X46385Y5600D02*
G01X47085Y5600D01*
G01X47085Y1300D01*
G01X46385Y1300D01*
G01X46385Y5600D01*
G37*
G36*
G01X45385Y5600D02*
G01X46085Y5600D01*
G01X46085Y1300D01*
G01X45385Y1300D01*
G01X45385Y5600D01*
G37*
G36*
G01X47385Y5600D02*
G01X48085Y5600D01*
G01X48085Y1300D01*
G01X47385Y1300D01*
G01X47385Y5600D01*
G37*
G36*
G01X53385Y5600D02*
G01X54085Y5600D01*
G01X54085Y1300D01*
G01X53385Y1300D01*
G01X53385Y5600D01*
G37*
G36*
G01X52385Y5600D02*
G01X53085Y5600D01*
G01X53085Y1300D01*
G01X52385Y1300D01*
G01X52385Y5600D01*
G37*
G36*
G01X55385Y5600D02*
G01X56085Y5600D01*
G01X56085Y1300D01*
G01X55385Y1300D01*
G01X55385Y5600D01*
G37*
G36*
G01X54385Y5600D02*
G01X55085Y5600D01*
G01X55085Y1300D01*
G01X54385Y1300D01*
G01X54385Y5600D01*
G37*
G36*
G01X49385Y5600D02*
G01X50085Y5600D01*
G01X50085Y1300D01*
G01X49385Y1300D01*
G01X49385Y5600D01*
G37*
G36*
G01X48385Y5600D02*
G01X49085Y5600D01*
G01X49085Y1300D01*
G01X48385Y1300D01*
G01X48385Y5600D01*
G37*
G36*
G01X51385Y5600D02*
G01X52085Y5600D01*
G01X52085Y1300D01*
G01X51385Y1300D01*
G01X51385Y5600D01*
G37*
G36*
G01X50385Y5600D02*
G01X51085Y5600D01*
G01X51085Y1300D01*
G01X50385Y1300D01*
G01X50385Y5600D01*
G37*
G54D73*
G01X13208Y25098D03*
G01X13208Y22558D03*
G01X10668Y25098D03*
G01X10668Y22558D03*
G01X8128Y25098D03*
G36*
G01X7127Y21558D02*
G01X7127Y23559D01*
G01X9128Y23559D01*
G01X9128Y21558D01*
G01X7127Y21558D01*
G37*
G54D75*
G01X60706Y53038D03*
G01X60706Y55578D03*
G01X60706Y49101D03*
G01X60706Y46561D03*
G54D76*
G01X55835Y28151D03*
G36*
G01X57271Y16178D02*
G01X56230Y17222D01*
G01X56520Y17509D01*
G01X57561Y16467D01*
G01X57271Y16178D01*
G37*
G01X55975Y15923D03*
G36*
G01X55384Y33392D02*
G01X55384Y35093D01*
G01X57086Y35093D01*
G01X57086Y33392D01*
G01X55384Y33392D01*
G37*
G54D79*
G01X61112Y34242D03*
G36*
G01X44386Y14862D02*
G01X44386Y17555D01*
G01X46672Y17555D01*
G01X46672Y14862D01*
G01X44386Y14862D01*
G37*
G36*
G01X37401Y14862D02*
G01X37401Y17555D01*
G01X39687Y17555D01*
G01X39687Y14862D01*
G01X37401Y14862D01*
G37*
G36*
G01X34074Y16480D02*
G01X34074Y18309D01*
G01X35659Y18309D01*
G01X35659Y16480D01*
G01X34074Y16480D01*
G37*
G36*
G01X30888Y16480D02*
G01X30888Y18309D01*
G01X32473Y18309D01*
G01X32473Y16480D01*
G01X30888Y16480D01*
G37*
G36*
G01X34074Y14151D02*
G01X34074Y15980D01*
G01X35659Y15980D01*
G01X35659Y14151D01*
G01X34074Y14151D01*
G37*
G36*
G01X30888Y14151D02*
G01X30888Y15980D01*
G01X32473Y15980D01*
G01X32473Y14151D01*
G01X30888Y14151D01*
G37*
G36*
G01X37401Y19561D02*
G01X37401Y22254D01*
G01X39687Y22254D01*
G01X39687Y19561D01*
G01X37401Y19561D01*
G37*
G36*
G01X44386Y19561D02*
G01X44386Y22254D01*
G01X46672Y22254D01*
G01X46672Y19561D01*
G01X44386Y19561D01*
G37*
G36*
G01X30888Y21136D02*
G01X30888Y22965D01*
G01X32473Y22965D01*
G01X32473Y21136D01*
G01X30888Y21136D01*
G37*
G36*
G01X34074Y21136D02*
G01X34074Y22965D01*
G01X35659Y22965D01*
G01X35659Y21136D01*
G01X34074Y21136D01*
G37*
G36*
G01X30888Y18807D02*
G01X30888Y20636D01*
G01X32473Y20636D01*
G01X32473Y18807D01*
G01X30888Y18807D01*
G37*
G36*
G01X34074Y18807D02*
G01X34074Y20636D01*
G01X35659Y20636D01*
G01X35659Y18807D01*
G01X34074Y18807D01*
G37*
G54D82*
G01X5080Y20018D03*
G54D69*
G01X5080Y25098D03*
G01X5080Y22558D03*
G54D75*
G01X54102Y46561D03*
G01X54102Y49101D03*
G01X47498Y46561D03*
G01X47498Y49101D03*
G01X40894Y46561D03*
G01X40894Y49101D03*
G01X34290Y46561D03*
G01X34290Y49101D03*
G01X27686Y46561D03*
G01X27686Y49101D03*
G01X54102Y53038D03*
G01X54102Y55578D03*
G01X47498Y53038D03*
G01X47498Y55578D03*
G01X40894Y53038D03*
G01X40894Y55578D03*
G01X34290Y53038D03*
G01X34290Y55578D03*
G01X27686Y53038D03*
G01X27686Y55578D03*
G36*
G01X12189Y32602D02*
G01X12151Y32607D01*
G01X12113Y32614D01*
G01X12077Y32630D01*
G01X12044Y32647D01*
G01X12011Y32668D01*
G01X11983Y32693D01*
G01X11958Y32723D01*
G01X11935Y32754D01*
G01X11917Y32787D01*
G01X11904Y32825D01*
G01X11894Y32861D01*
G01X11892Y32899D01*
G01X11892Y32937D01*
G01X11894Y32975D01*
G01X11904Y33013D01*
G01X11917Y33049D01*
G01X11935Y33084D01*
G01X11958Y33115D01*
G01X11981Y33140D01*
G01X12938Y34098D01*
G01X12964Y34120D01*
G01X12994Y34143D01*
G01X13030Y34161D01*
G01X13065Y34174D01*
G01X13103Y34184D01*
G01X13141Y34187D01*
G01X13180Y34187D01*
G01X13218Y34184D01*
G01X13253Y34174D01*
G01X13289Y34161D01*
G01X13324Y34143D01*
G01X13355Y34120D01*
G01X13385Y34095D01*
G01X13411Y34067D01*
G01X13431Y34034D01*
G01X13449Y34001D01*
G01X13464Y33966D01*
G01X13472Y33927D01*
G01X13477Y33889D01*
G01X13477Y33851D01*
G01X13472Y33813D01*
G01X13464Y33775D01*
G01X13449Y33739D01*
G01X13431Y33706D01*
G01X13411Y33673D01*
G01X12405Y32668D01*
G01X12372Y32647D01*
G01X12339Y32630D01*
G01X12303Y32614D01*
G01X12265Y32607D01*
G01X12227Y32602D01*
G01X12189Y32602D01*
G37*
G36*
G01X11612Y33176D02*
G01X11574Y33181D01*
G01X11539Y33191D01*
G01X11503Y33204D01*
G01X11468Y33221D01*
G01X11437Y33244D01*
G01X11409Y33270D01*
G01X11384Y33298D01*
G01X11361Y33328D01*
G01X11343Y33364D01*
G01X11330Y33399D01*
G01X11320Y33435D01*
G01X11315Y33473D01*
G01X11315Y33513D01*
G01X11320Y33552D01*
G01X11330Y33587D01*
G01X11343Y33623D01*
G01X11361Y33658D01*
G01X11384Y33689D01*
G01X11407Y33717D01*
G01X12362Y34672D01*
G01X12390Y34695D01*
G01X12420Y34717D01*
G01X12453Y34735D01*
G01X12491Y34748D01*
G01X12527Y34758D01*
G01X12565Y34763D01*
G01X12606Y34763D01*
G01X12641Y34758D01*
G01X12679Y34748D01*
G01X12715Y34735D01*
G01X12748Y34717D01*
G01X12781Y34695D01*
G01X12809Y34669D01*
G01X12834Y34641D01*
G01X12857Y34608D01*
G01X12875Y34575D01*
G01X12887Y34540D01*
G01X12898Y34501D01*
G01X12903Y34466D01*
G01X12903Y34425D01*
G01X12898Y34387D01*
G01X12887Y34352D01*
G01X12875Y34314D01*
G01X12857Y34281D01*
G01X12834Y34250D01*
G01X12811Y34222D01*
G01X11856Y33267D01*
G01X11828Y33244D01*
G01X11798Y33221D01*
G01X11762Y33204D01*
G01X11727Y33191D01*
G01X11691Y33181D01*
G01X11653Y33176D01*
G01X11612Y33176D01*
G37*
G36*
G01X9926Y34865D02*
G01X9888Y34870D01*
G01X9850Y34877D01*
G01X9814Y34893D01*
G01X9781Y34910D01*
G01X9748Y34931D01*
G01X9720Y34956D01*
G01X9695Y34987D01*
G01X9672Y35017D01*
G01X9654Y35050D01*
G01X9641Y35088D01*
G01X9631Y35124D01*
G01X9629Y35162D01*
G01X9629Y35200D01*
G01X9631Y35238D01*
G01X9641Y35276D01*
G01X9654Y35312D01*
G01X9672Y35345D01*
G01X9695Y35378D01*
G01X9718Y35403D01*
G01X10675Y36361D01*
G01X10701Y36384D01*
G01X10734Y36406D01*
G01X10767Y36422D01*
G01X10802Y36437D01*
G01X10840Y36445D01*
G01X10876Y36450D01*
G01X10916Y36450D01*
G01X10955Y36445D01*
G01X10990Y36437D01*
G01X11028Y36422D01*
G01X11061Y36406D01*
G01X11092Y36384D01*
G01X11122Y36358D01*
G01X11148Y36330D01*
G01X11168Y36297D01*
G01X11186Y36264D01*
G01X11201Y36229D01*
G01X11209Y36191D01*
G01X11214Y36152D01*
G01X11214Y36114D01*
G01X11209Y36076D01*
G01X11201Y36038D01*
G01X11186Y36003D01*
G01X11168Y35970D01*
G01X11148Y35937D01*
G01X11122Y35911D01*
G01X10167Y34954D01*
G01X10139Y34931D01*
G01X10109Y34910D01*
G01X10076Y34893D01*
G01X10040Y34877D01*
G01X10002Y34870D01*
G01X9964Y34865D01*
G01X9926Y34865D01*
G37*
G36*
G01X8793Y35995D02*
G01X8755Y36000D01*
G01X8719Y36010D01*
G01X8684Y36023D01*
G01X8648Y36041D01*
G01X8618Y36064D01*
G01X8587Y36089D01*
G01X8562Y36117D01*
G01X8542Y36147D01*
G01X8524Y36183D01*
G01X8511Y36219D01*
G01X8501Y36257D01*
G01X8496Y36295D01*
G01X8496Y36333D01*
G01X8501Y36371D01*
G01X8511Y36406D01*
G01X8524Y36445D01*
G01X8542Y36478D01*
G01X8562Y36508D01*
G01X8587Y36536D01*
G01X9542Y37491D01*
G01X9570Y37514D01*
G01X9601Y37537D01*
G01X9634Y37555D01*
G01X9669Y37567D01*
G01X9707Y37577D01*
G01X9745Y37583D01*
G01X9784Y37583D01*
G01X9822Y37577D01*
G01X9860Y37567D01*
G01X9895Y37555D01*
G01X9928Y37537D01*
G01X9961Y37516D01*
G01X9989Y37489D01*
G01X10015Y37461D01*
G01X10038Y37430D01*
G01X10055Y37395D01*
G01X10068Y37359D01*
G01X10078Y37323D01*
G01X10083Y37283D01*
G01X10083Y37247D01*
G01X10078Y37207D01*
G01X10068Y37171D01*
G01X10055Y37135D01*
G01X10038Y37100D01*
G01X10015Y37069D01*
G01X9992Y37041D01*
G01X9034Y36086D01*
G01X9009Y36064D01*
G01X8978Y36041D01*
G01X8943Y36023D01*
G01X8907Y36010D01*
G01X8869Y36000D01*
G01X8831Y35995D01*
G01X8793Y35995D01*
G37*
G36*
G01X9756Y37694D02*
G01X9718Y37699D01*
G01X9682Y37710D01*
G01X9646Y37722D01*
G01X9611Y37740D01*
G01X9580Y37763D01*
G01X9552Y37786D01*
G01X8597Y38741D01*
G01X8575Y38769D01*
G01X8552Y38799D01*
G01X8534Y38835D01*
G01X8521Y38870D01*
G01X8511Y38906D01*
G01X8506Y38944D01*
G01X8506Y38985D01*
G01X8511Y39023D01*
G01X8521Y39058D01*
G01X8534Y39094D01*
G01X8552Y39129D01*
G01X8575Y39160D01*
G01X8600Y39190D01*
G01X8628Y39213D01*
G01X8661Y39236D01*
G01X8694Y39254D01*
G01X8729Y39267D01*
G01X8768Y39277D01*
G01X8806Y39282D01*
G01X8844Y39282D01*
G01X8882Y39277D01*
G01X8920Y39267D01*
G01X8956Y39254D01*
G01X8989Y39236D01*
G01X9022Y39213D01*
G01X9047Y39190D01*
G01X10002Y38235D01*
G01X10027Y38207D01*
G01X10048Y38177D01*
G01X10066Y38144D01*
G01X10078Y38108D01*
G01X10088Y38070D01*
G01X10093Y38032D01*
G01X10093Y37994D01*
G01X10088Y37956D01*
G01X10078Y37918D01*
G01X10066Y37882D01*
G01X10048Y37849D01*
G01X10025Y37816D01*
G01X9999Y37788D01*
G01X9972Y37763D01*
G01X9941Y37740D01*
G01X9906Y37722D01*
G01X9870Y37710D01*
G01X9834Y37699D01*
G01X9796Y37694D01*
G01X9756Y37694D01*
G37*
G36*
G01X10322Y38261D02*
G01X10284Y38266D01*
G01X10246Y38273D01*
G01X10210Y38289D01*
G01X10177Y38306D01*
G01X10144Y38327D01*
G01X9138Y39333D01*
G01X9118Y39366D01*
G01X9100Y39399D01*
G01X9085Y39434D01*
G01X9077Y39472D01*
G01X9072Y39510D01*
G01X9072Y39548D01*
G01X9077Y39587D01*
G01X9085Y39625D01*
G01X9100Y39660D01*
G01X9118Y39693D01*
G01X9141Y39726D01*
G01X9166Y39754D01*
G01X9194Y39780D01*
G01X9225Y39802D01*
G01X9260Y39820D01*
G01X9296Y39833D01*
G01X9331Y39843D01*
G01X9370Y39846D01*
G01X9410Y39846D01*
G01X9446Y39843D01*
G01X9484Y39833D01*
G01X9519Y39820D01*
G01X9555Y39802D01*
G01X9585Y39780D01*
G01X9611Y39757D01*
G01X10568Y38802D01*
G01X10591Y38774D01*
G01X10614Y38743D01*
G01X10632Y38708D01*
G01X10645Y38672D01*
G01X10655Y38634D01*
G01X10657Y38596D01*
G01X10657Y38558D01*
G01X10655Y38520D01*
G01X10645Y38484D01*
G01X10632Y38449D01*
G01X10614Y38413D01*
G01X10591Y38383D01*
G01X10566Y38352D01*
G01X10538Y38329D01*
G01X10505Y38306D01*
G01X10472Y38289D01*
G01X10436Y38273D01*
G01X10398Y38266D01*
G01X10360Y38261D01*
G01X10322Y38261D01*
G37*
G36*
G01X10888Y38827D02*
G01X10850Y38832D01*
G01X10812Y38840D01*
G01X10777Y38853D01*
G01X10744Y38870D01*
G01X10711Y38893D01*
G01X10685Y38916D01*
G01X9728Y39874D01*
G01X9705Y39899D01*
G01X9682Y39932D01*
G01X9664Y39965D01*
G01X9652Y40001D01*
G01X9641Y40039D01*
G01X9639Y40077D01*
G01X9639Y40115D01*
G01X9644Y40153D01*
G01X9652Y40189D01*
G01X9664Y40227D01*
G01X9682Y40260D01*
G01X9705Y40293D01*
G01X9730Y40321D01*
G01X9758Y40346D01*
G01X9791Y40366D01*
G01X9824Y40384D01*
G01X9860Y40399D01*
G01X9898Y40407D01*
G01X9936Y40412D01*
G01X9974Y40412D01*
G01X10012Y40407D01*
G01X10050Y40399D01*
G01X10086Y40384D01*
G01X10119Y40366D01*
G01X10152Y40346D01*
G01X11158Y39340D01*
G01X11178Y39307D01*
G01X11196Y39274D01*
G01X11211Y39239D01*
G01X11219Y39200D01*
G01X11224Y39162D01*
G01X11224Y39124D01*
G01X11219Y39086D01*
G01X11211Y39048D01*
G01X11196Y39013D01*
G01X11178Y38980D01*
G01X11158Y38946D01*
G01X11132Y38919D01*
G01X11104Y38893D01*
G01X11071Y38870D01*
G01X11038Y38853D01*
G01X11000Y38840D01*
G01X10965Y38832D01*
G01X10927Y38827D01*
G01X10888Y38827D01*
G37*
G36*
G01X11452Y39391D02*
G01X11414Y39396D01*
G01X11379Y39406D01*
G01X11341Y39419D01*
G01X11308Y39437D01*
G01X11277Y39460D01*
G01X11249Y39482D01*
G01X10294Y40437D01*
G01X10271Y40465D01*
G01X10248Y40496D01*
G01X10231Y40531D01*
G01X10218Y40567D01*
G01X10208Y40603D01*
G01X10203Y40641D01*
G01X10203Y40681D01*
G01X10208Y40717D01*
G01X10218Y40755D01*
G01X10231Y40791D01*
G01X10248Y40826D01*
G01X10271Y40857D01*
G01X10297Y40885D01*
G01X10325Y40910D01*
G01X10358Y40933D01*
G01X10391Y40951D01*
G01X10426Y40963D01*
G01X10464Y40973D01*
G01X10500Y40978D01*
G01X10541Y40978D01*
G01X10579Y40973D01*
G01X10614Y40963D01*
G01X10650Y40951D01*
G01X10685Y40933D01*
G01X10716Y40910D01*
G01X10744Y40887D01*
G01X11699Y39932D01*
G01X11722Y39904D01*
G01X11744Y39874D01*
G01X11762Y39838D01*
G01X11775Y39802D01*
G01X11785Y39767D01*
G01X11790Y39729D01*
G01X11790Y39688D01*
G01X11785Y39653D01*
G01X11775Y39615D01*
G01X11762Y39579D01*
G01X11744Y39546D01*
G01X11722Y39513D01*
G01X11696Y39485D01*
G01X11668Y39460D01*
G01X11638Y39437D01*
G01X11602Y39419D01*
G01X11567Y39406D01*
G01X11529Y39396D01*
G01X11490Y39391D01*
G01X11452Y39391D01*
G37*
G36*
G01X12019Y39957D02*
G01X11981Y39962D01*
G01X11943Y39970D01*
G01X11907Y39985D01*
G01X11874Y40003D01*
G01X11841Y40023D01*
G01X11816Y40046D01*
G01X10861Y41004D01*
G01X10835Y41029D01*
G01X10815Y41062D01*
G01X10797Y41095D01*
G01X10782Y41131D01*
G01X10774Y41169D01*
G01X10769Y41207D01*
G01X10769Y41245D01*
G01X10774Y41283D01*
G01X10782Y41321D01*
G01X10797Y41357D01*
G01X10815Y41390D01*
G01X10835Y41423D01*
G01X10861Y41451D01*
G01X10888Y41476D01*
G01X10922Y41499D01*
G01X10955Y41517D01*
G01X10993Y41530D01*
G01X11028Y41537D01*
G01X11066Y41542D01*
G01X11104Y41542D01*
G01X11142Y41537D01*
G01X11181Y41530D01*
G01X11216Y41517D01*
G01X11249Y41499D01*
G01X11282Y41476D01*
G01X11308Y41453D01*
G01X12265Y40496D01*
G01X12288Y40470D01*
G01X12311Y40437D01*
G01X12329Y40404D01*
G01X12341Y40369D01*
G01X12349Y40331D01*
G01X12354Y40293D01*
G01X12354Y40255D01*
G01X12349Y40216D01*
G01X12341Y40181D01*
G01X12329Y40143D01*
G01X12311Y40110D01*
G01X12288Y40079D01*
G01X12263Y40049D01*
G01X12235Y40023D01*
G01X12202Y40003D01*
G01X12169Y39985D01*
G01X12133Y39970D01*
G01X12095Y39962D01*
G01X12057Y39957D01*
G01X12019Y39957D01*
G37*
G36*
G01X13149Y41088D02*
G01X13111Y41093D01*
G01X13075Y41103D01*
G01X13037Y41116D01*
G01X13004Y41133D01*
G01X12974Y41156D01*
G01X12946Y41179D01*
G01X11991Y42134D01*
G01X11968Y42162D01*
G01X11945Y42193D01*
G01X11927Y42226D01*
G01X11915Y42264D01*
G01X11904Y42299D01*
G01X11899Y42337D01*
G01X11899Y42375D01*
G01X11904Y42414D01*
G01X11915Y42452D01*
G01X11927Y42487D01*
G01X11945Y42520D01*
G01X11965Y42553D01*
G01X11993Y42581D01*
G01X12021Y42607D01*
G01X12052Y42629D01*
G01X12087Y42647D01*
G01X12123Y42660D01*
G01X12158Y42670D01*
G01X12199Y42675D01*
G01X12235Y42675D01*
G01X12275Y42670D01*
G01X12311Y42660D01*
G01X12346Y42647D01*
G01X12382Y42629D01*
G01X12412Y42607D01*
G01X12440Y42584D01*
G01X13395Y41629D01*
G01X13418Y41601D01*
G01X13441Y41570D01*
G01X13459Y41535D01*
G01X13472Y41499D01*
G01X13482Y41464D01*
G01X13487Y41423D01*
G01X13487Y41387D01*
G01X13482Y41347D01*
G01X13472Y41311D01*
G01X13459Y41276D01*
G01X13441Y41240D01*
G01X13418Y41210D01*
G01X13393Y41182D01*
G01X13365Y41156D01*
G01X13335Y41133D01*
G01X13299Y41116D01*
G01X13263Y41103D01*
G01X13225Y41093D01*
G01X13187Y41088D01*
G01X13149Y41088D01*
G37*
G36*
G01X12585Y40521D02*
G01X12547Y40526D01*
G01X12509Y40537D01*
G01X12473Y40549D01*
G01X12438Y40567D01*
G01X12407Y40590D01*
G01X12382Y40613D01*
G01X11424Y41568D01*
G01X11402Y41596D01*
G01X11379Y41626D01*
G01X11361Y41662D01*
G01X11348Y41697D01*
G01X11338Y41735D01*
G01X11333Y41774D01*
G01X11333Y41812D01*
G01X11338Y41850D01*
G01X11348Y41885D01*
G01X11361Y41921D01*
G01X11379Y41956D01*
G01X11402Y41987D01*
G01X11427Y42017D01*
G01X11455Y42040D01*
G01X11488Y42063D01*
G01X11521Y42081D01*
G01X11557Y42096D01*
G01X11595Y42104D01*
G01X11633Y42109D01*
G01X11671Y42109D01*
G01X11709Y42104D01*
G01X11747Y42096D01*
G01X11783Y42081D01*
G01X11816Y42063D01*
G01X11849Y42043D01*
G01X12854Y41037D01*
G01X12875Y41004D01*
G01X12893Y40971D01*
G01X12908Y40935D01*
G01X12915Y40897D01*
G01X12920Y40859D01*
G01X12920Y40821D01*
G01X12915Y40783D01*
G01X12908Y40745D01*
G01X12893Y40709D01*
G01X12875Y40676D01*
G01X12854Y40643D01*
G01X12829Y40615D01*
G01X12799Y40590D01*
G01X12768Y40567D01*
G01X12733Y40549D01*
G01X12697Y40537D01*
G01X12661Y40526D01*
G01X12623Y40521D01*
G01X12585Y40521D01*
G37*
G36*
G01X13716Y41654D02*
G01X13677Y41659D01*
G01X13639Y41667D01*
G01X13604Y41682D01*
G01X13571Y41700D01*
G01X13538Y41720D01*
G01X13512Y41743D01*
G01X12555Y42701D01*
G01X12532Y42726D01*
G01X12512Y42759D01*
G01X12494Y42792D01*
G01X12479Y42828D01*
G01X12471Y42866D01*
G01X12466Y42904D01*
G01X12466Y42942D01*
G01X12471Y42980D01*
G01X12479Y43018D01*
G01X12494Y43054D01*
G01X12512Y43087D01*
G01X12532Y43117D01*
G01X12557Y43148D01*
G01X12588Y43173D01*
G01X12618Y43193D01*
G01X12651Y43211D01*
G01X12687Y43226D01*
G01X12725Y43234D01*
G01X12763Y43239D01*
G01X12801Y43239D01*
G01X12839Y43234D01*
G01X12877Y43226D01*
G01X12913Y43211D01*
G01X12946Y43193D01*
G01X12979Y43173D01*
G01X13004Y43150D01*
G01X13962Y42193D01*
G01X13985Y42167D01*
G01X14005Y42134D01*
G01X14023Y42101D01*
G01X14038Y42066D01*
G01X14046Y42028D01*
G01X14051Y41989D01*
G01X14051Y41951D01*
G01X14046Y41913D01*
G01X14038Y41875D01*
G01X14023Y41840D01*
G01X14005Y41807D01*
G01X13985Y41776D01*
G01X13959Y41746D01*
G01X13929Y41720D01*
G01X13898Y41700D01*
G01X13865Y41682D01*
G01X13830Y41667D01*
G01X13792Y41659D01*
G01X13754Y41654D01*
G01X13716Y41654D01*
G37*
G36*
G01X15976Y32607D02*
G01X15938Y32612D01*
G01X15902Y32619D01*
G01X15864Y32635D01*
G01X15831Y32652D01*
G01X15801Y32673D01*
G01X15773Y32696D01*
G01X14818Y33653D01*
G01X14795Y33679D01*
G01X14772Y33712D01*
G01X14754Y33745D01*
G01X14742Y33780D01*
G01X14732Y33818D01*
G01X14726Y33856D01*
G01X14726Y33894D01*
G01X14732Y33933D01*
G01X14742Y33971D01*
G01X14754Y34006D01*
G01X14772Y34039D01*
G01X14795Y34072D01*
G01X14820Y34100D01*
G01X14848Y34126D01*
G01X14879Y34148D01*
G01X14914Y34166D01*
G01X14950Y34179D01*
G01X14986Y34189D01*
G01X15026Y34192D01*
G01X15064Y34192D01*
G01X15102Y34189D01*
G01X15138Y34179D01*
G01X15173Y34166D01*
G01X15209Y34148D01*
G01X15240Y34126D01*
G01X15267Y34103D01*
G01X16222Y33145D01*
G01X16245Y33120D01*
G01X16268Y33087D01*
G01X16286Y33054D01*
G01X16299Y33018D01*
G01X16309Y32980D01*
G01X16314Y32942D01*
G01X16314Y32904D01*
G01X16309Y32866D01*
G01X16299Y32828D01*
G01X16286Y32792D01*
G01X16268Y32759D01*
G01X16245Y32726D01*
G01X16220Y32698D01*
G01X16192Y32673D01*
G01X16162Y32652D01*
G01X16126Y32635D01*
G01X16090Y32619D01*
G01X16052Y32612D01*
G01X16017Y32607D01*
G01X15976Y32607D01*
G37*
G36*
G01X16543Y33171D02*
G01X16504Y33176D01*
G01X16466Y33186D01*
G01X16431Y33198D01*
G01X16398Y33216D01*
G01X16365Y33239D01*
G01X16339Y33262D01*
G01X15382Y34217D01*
G01X15359Y34245D01*
G01X15339Y34275D01*
G01X15321Y34311D01*
G01X15306Y34347D01*
G01X15298Y34382D01*
G01X15293Y34420D01*
G01X15293Y34461D01*
G01X15298Y34499D01*
G01X15306Y34535D01*
G01X15321Y34570D01*
G01X15339Y34606D01*
G01X15359Y34636D01*
G01X15384Y34664D01*
G01X15412Y34692D01*
G01X15445Y34712D01*
G01X15478Y34730D01*
G01X15514Y34743D01*
G01X15552Y34753D01*
G01X15590Y34758D01*
G01X15628Y34758D01*
G01X15666Y34753D01*
G01X15704Y34743D01*
G01X15740Y34730D01*
G01X15773Y34712D01*
G01X15806Y34692D01*
G01X15831Y34667D01*
G01X16789Y33712D01*
G01X16812Y33686D01*
G01X16832Y33653D01*
G01X16850Y33620D01*
G01X16865Y33585D01*
G01X16873Y33546D01*
G01X16878Y33508D01*
G01X16878Y33470D01*
G01X16873Y33432D01*
G01X16865Y33394D01*
G01X16850Y33358D01*
G01X16832Y33325D01*
G01X16812Y33292D01*
G01X16786Y33265D01*
G01X16758Y33239D01*
G01X16725Y33216D01*
G01X16692Y33198D01*
G01X16657Y33186D01*
G01X16619Y33176D01*
G01X16581Y33171D01*
G01X16543Y33171D01*
G37*
G36*
G01X15420Y32045D02*
G01X15384Y32050D01*
G01X15346Y32058D01*
G01X15311Y32073D01*
G01X15275Y32091D01*
G01X15245Y32111D01*
G01X15219Y32134D01*
G01X14262Y33092D01*
G01X14239Y33117D01*
G01X14216Y33150D01*
G01X14198Y33183D01*
G01X14185Y33219D01*
G01X14175Y33257D01*
G01X14173Y33295D01*
G01X14173Y33333D01*
G01X14175Y33371D01*
G01X14185Y33407D01*
G01X14198Y33445D01*
G01X14216Y33478D01*
G01X14239Y33511D01*
G01X14264Y33539D01*
G01X14292Y33564D01*
G01X14325Y33585D01*
G01X14358Y33602D01*
G01X14394Y33618D01*
G01X14432Y33625D01*
G01X14470Y33630D01*
G01X14508Y33630D01*
G01X14546Y33625D01*
G01X14584Y33618D01*
G01X14620Y33602D01*
G01X14653Y33585D01*
G01X14683Y33564D01*
G01X14711Y33541D01*
G01X15666Y32584D01*
G01X15689Y32558D01*
G01X15712Y32525D01*
G01X15730Y32492D01*
G01X15745Y32457D01*
G01X15753Y32419D01*
G01X15758Y32381D01*
G01X15758Y32342D01*
G01X15753Y32304D01*
G01X15745Y32266D01*
G01X15730Y32231D01*
G01X15712Y32198D01*
G01X15689Y32165D01*
G01X15666Y32137D01*
G01X15636Y32111D01*
G01X15605Y32091D01*
G01X15570Y32073D01*
G01X15534Y32058D01*
G01X15499Y32050D01*
G01X15460Y32045D01*
G01X15420Y32045D01*
G37*
G36*
G01X11056Y33732D02*
G01X11018Y33737D01*
G01X10982Y33747D01*
G01X10947Y33760D01*
G01X10911Y33778D01*
G01X10881Y33800D01*
G01X10850Y33826D01*
G01X10828Y33854D01*
G01X10805Y33884D01*
G01X10787Y33920D01*
G01X10772Y33955D01*
G01X10764Y33993D01*
G01X10759Y34032D01*
G01X10759Y34070D01*
G01X10764Y34108D01*
G01X10772Y34143D01*
G01X10787Y34181D01*
G01X10805Y34214D01*
G01X10825Y34245D01*
G01X10850Y34273D01*
G01X11805Y35228D01*
G01X11831Y35251D01*
G01X11864Y35274D01*
G01X11897Y35291D01*
G01X11932Y35304D01*
G01X11971Y35314D01*
G01X12009Y35319D01*
G01X12047Y35319D01*
G01X12085Y35314D01*
G01X12123Y35304D01*
G01X12158Y35291D01*
G01X12192Y35274D01*
G01X12225Y35251D01*
G01X12252Y35228D01*
G01X12278Y35197D01*
G01X12301Y35167D01*
G01X12319Y35131D01*
G01X12331Y35096D01*
G01X12341Y35060D01*
G01X12346Y35022D01*
G01X12346Y34982D01*
G01X12341Y34943D01*
G01X12331Y34908D01*
G01X12319Y34872D01*
G01X12301Y34837D01*
G01X12278Y34806D01*
G01X12255Y34778D01*
G01X11297Y33823D01*
G01X11272Y33800D01*
G01X11239Y33778D01*
G01X11206Y33760D01*
G01X11170Y33747D01*
G01X11132Y33737D01*
G01X11097Y33732D01*
G01X11056Y33732D01*
G37*
G36*
G01X9370Y35421D02*
G01X9331Y35426D01*
G01X9293Y35436D01*
G01X9258Y35449D01*
G01X9222Y35467D01*
G01X9192Y35487D01*
G01X9164Y35512D01*
G01X9138Y35543D01*
G01X9116Y35573D01*
G01X9098Y35609D01*
G01X9085Y35644D01*
G01X9075Y35680D01*
G01X9070Y35718D01*
G01X9070Y35759D01*
G01X9075Y35797D01*
G01X9085Y35832D01*
G01X9098Y35868D01*
G01X9116Y35904D01*
G01X9138Y35934D01*
G01X9161Y35959D01*
G01X10116Y36917D01*
G01X10144Y36940D01*
G01X10175Y36963D01*
G01X10210Y36981D01*
G01X10246Y36993D01*
G01X10281Y37003D01*
G01X10320Y37008D01*
G01X10360Y37008D01*
G01X10398Y37003D01*
G01X10434Y36993D01*
G01X10469Y36981D01*
G01X10505Y36963D01*
G01X10535Y36940D01*
G01X10563Y36914D01*
G01X10589Y36887D01*
G01X10612Y36854D01*
G01X10629Y36821D01*
G01X10642Y36785D01*
G01X10652Y36747D01*
G01X10657Y36709D01*
G01X10657Y36671D01*
G01X10652Y36633D01*
G01X10642Y36594D01*
G01X10629Y36559D01*
G01X10612Y36526D01*
G01X10589Y36495D01*
G01X10566Y36467D01*
G01X9611Y35512D01*
G01X9583Y35487D01*
G01X9552Y35467D01*
G01X9519Y35449D01*
G01X9481Y35436D01*
G01X9446Y35426D01*
G01X9408Y35421D01*
G01X9370Y35421D01*
G37*
G36*
G01X10500Y34291D02*
G01X10462Y34296D01*
G01X10424Y34303D01*
G01X10388Y34316D01*
G01X10355Y34334D01*
G01X10322Y34357D01*
G01X10294Y34382D01*
G01X10269Y34410D01*
G01X10248Y34443D01*
G01X10231Y34476D01*
G01X10215Y34512D01*
G01X10208Y34550D01*
G01X10203Y34588D01*
G01X10203Y34626D01*
G01X10208Y34664D01*
G01X10215Y34702D01*
G01X10231Y34738D01*
G01X10248Y34771D01*
G01X10269Y34804D01*
G01X11275Y35810D01*
G01X11308Y35830D01*
G01X11341Y35848D01*
G01X11376Y35863D01*
G01X11414Y35871D01*
G01X11452Y35876D01*
G01X11490Y35876D01*
G01X11529Y35871D01*
G01X11567Y35863D01*
G01X11602Y35848D01*
G01X11635Y35830D01*
G01X11668Y35810D01*
G01X11696Y35784D01*
G01X11722Y35756D01*
G01X11744Y35723D01*
G01X11760Y35690D01*
G01X11775Y35652D01*
G01X11783Y35617D01*
G01X11788Y35578D01*
G01X11788Y35540D01*
G01X11783Y35502D01*
G01X11775Y35464D01*
G01X11760Y35429D01*
G01X11742Y35396D01*
G01X11722Y35363D01*
G01X11699Y35337D01*
G01X10741Y34380D01*
G01X10716Y34357D01*
G01X10683Y34334D01*
G01X10650Y34316D01*
G01X10614Y34303D01*
G01X10576Y34296D01*
G01X10538Y34291D01*
G01X10500Y34291D01*
G37*
G36*
G01X12753Y32022D02*
G01X12717Y32028D01*
G01X12679Y32038D01*
G01X12644Y32050D01*
G01X12608Y32068D01*
G01X12578Y32091D01*
G01X12550Y32116D01*
G01X12524Y32144D01*
G01X12501Y32177D01*
G01X12484Y32210D01*
G01X12471Y32246D01*
G01X12461Y32284D01*
G01X12456Y32322D01*
G01X12456Y32360D01*
G01X12461Y32398D01*
G01X12471Y32436D01*
G01X12484Y32472D01*
G01X12501Y32505D01*
G01X12524Y32538D01*
G01X12547Y32563D01*
G01X13502Y33519D01*
G01X13530Y33544D01*
G01X13561Y33564D01*
G01X13596Y33582D01*
G01X13632Y33597D01*
G01X13667Y33605D01*
G01X13705Y33610D01*
G01X13746Y33610D01*
G01X13782Y33605D01*
G01X13820Y33597D01*
G01X13855Y33582D01*
G01X13888Y33564D01*
G01X13921Y33544D01*
G01X13949Y33519D01*
G01X13975Y33488D01*
G01X13997Y33458D01*
G01X14015Y33422D01*
G01X14028Y33386D01*
G01X14038Y33351D01*
G01X14043Y33313D01*
G01X14043Y33272D01*
G01X14038Y33237D01*
G01X14028Y33198D01*
G01X14015Y33163D01*
G01X13997Y33130D01*
G01X13975Y33097D01*
G01X13952Y33069D01*
G01X12997Y32114D01*
G01X12969Y32091D01*
G01X12938Y32068D01*
G01X12905Y32050D01*
G01X12867Y32038D01*
G01X12832Y32028D01*
G01X12793Y32022D01*
G01X12753Y32022D01*
G37*
G36*
G01X17673Y34303D02*
G01X17635Y34308D01*
G01X17597Y34316D01*
G01X17561Y34331D01*
G01X17528Y34349D01*
G01X17495Y34369D01*
G01X17470Y34392D01*
G01X16515Y35350D01*
G01X16489Y35375D01*
G01X16469Y35408D01*
G01X16451Y35441D01*
G01X16438Y35477D01*
G01X16428Y35515D01*
G01X16423Y35553D01*
G01X16423Y35591D01*
G01X16428Y35629D01*
G01X16438Y35667D01*
G01X16451Y35703D01*
G01X16469Y35736D01*
G01X16489Y35769D01*
G01X16517Y35797D01*
G01X16545Y35822D01*
G01X16576Y35843D01*
G01X16611Y35860D01*
G01X16647Y35876D01*
G01X16682Y35883D01*
G01X16720Y35888D01*
G01X16761Y35888D01*
G01X16799Y35883D01*
G01X16835Y35876D01*
G01X16870Y35860D01*
G01X16906Y35843D01*
G01X16936Y35822D01*
G01X16962Y35797D01*
G01X17919Y34842D01*
G01X17942Y34816D01*
G01X17965Y34783D01*
G01X17983Y34750D01*
G01X17995Y34715D01*
G01X18006Y34677D01*
G01X18011Y34639D01*
G01X18011Y34601D01*
G01X18006Y34562D01*
G01X17995Y34524D01*
G01X17983Y34489D01*
G01X17965Y34456D01*
G01X17942Y34423D01*
G01X17917Y34395D01*
G01X17889Y34369D01*
G01X17856Y34349D01*
G01X17823Y34331D01*
G01X17787Y34316D01*
G01X17749Y34308D01*
G01X17711Y34303D01*
G01X17673Y34303D01*
G37*
G36*
G01X18239Y34867D02*
G01X18201Y34872D01*
G01X18163Y34882D01*
G01X18127Y34895D01*
G01X18094Y34913D01*
G01X18061Y34936D01*
G01X18036Y34959D01*
G01X17078Y35914D01*
G01X17056Y35942D01*
G01X17035Y35972D01*
G01X17015Y36005D01*
G01X17002Y36043D01*
G01X16992Y36079D01*
G01X16990Y36117D01*
G01X16990Y36155D01*
G01X16992Y36196D01*
G01X17002Y36231D01*
G01X17015Y36267D01*
G01X17035Y36302D01*
G01X17056Y36333D01*
G01X17081Y36361D01*
G01X17109Y36386D01*
G01X17142Y36409D01*
G01X17175Y36427D01*
G01X17211Y36440D01*
G01X17249Y36450D01*
G01X17287Y36455D01*
G01X17325Y36455D01*
G01X17363Y36450D01*
G01X17401Y36440D01*
G01X17437Y36427D01*
G01X17470Y36409D01*
G01X17503Y36386D01*
G01X17528Y36363D01*
G01X18486Y35408D01*
G01X18508Y35380D01*
G01X18529Y35350D01*
G01X18547Y35317D01*
G01X18562Y35279D01*
G01X18569Y35243D01*
G01X18575Y35205D01*
G01X18575Y35164D01*
G01X18569Y35129D01*
G01X18562Y35091D01*
G01X18547Y35055D01*
G01X18529Y35022D01*
G01X18508Y34989D01*
G01X18483Y34961D01*
G01X18455Y34936D01*
G01X18422Y34913D01*
G01X18389Y34895D01*
G01X18354Y34882D01*
G01X18315Y34872D01*
G01X18277Y34867D01*
G01X18239Y34867D01*
G37*
G36*
G01X18806Y35434D02*
G01X18768Y35439D01*
G01X18729Y35449D01*
G01X18694Y35462D01*
G01X18658Y35479D01*
G01X18628Y35502D01*
G01X18602Y35525D01*
G01X17645Y36480D01*
G01X17622Y36508D01*
G01X17599Y36539D01*
G01X17581Y36572D01*
G01X17569Y36610D01*
G01X17559Y36645D01*
G01X17556Y36683D01*
G01X17556Y36721D01*
G01X17559Y36760D01*
G01X17569Y36798D01*
G01X17581Y36833D01*
G01X17599Y36869D01*
G01X17622Y36899D01*
G01X17647Y36927D01*
G01X17675Y36953D01*
G01X17708Y36975D01*
G01X17741Y36993D01*
G01X17777Y37006D01*
G01X17815Y37016D01*
G01X17853Y37021D01*
G01X17891Y37021D01*
G01X17929Y37016D01*
G01X17967Y37006D01*
G01X18003Y36993D01*
G01X18036Y36975D01*
G01X18067Y36953D01*
G01X18094Y36930D01*
G01X19050Y35975D01*
G01X19075Y35947D01*
G01X19095Y35916D01*
G01X19113Y35881D01*
G01X19128Y35845D01*
G01X19136Y35810D01*
G01X19141Y35771D01*
G01X19141Y35733D01*
G01X19136Y35693D01*
G01X19128Y35657D01*
G01X19113Y35622D01*
G01X19095Y35586D01*
G01X19075Y35556D01*
G01X19050Y35528D01*
G01X19019Y35502D01*
G01X18989Y35479D01*
G01X18956Y35462D01*
G01X18917Y35449D01*
G01X18882Y35439D01*
G01X18844Y35434D01*
G01X18806Y35434D01*
G37*
G36*
G01X17106Y33737D02*
G01X17071Y33742D01*
G01X17033Y33752D01*
G01X16997Y33765D01*
G01X16962Y33783D01*
G01X16931Y33806D01*
G01X16906Y33828D01*
G01X15948Y34783D01*
G01X15925Y34811D01*
G01X15902Y34842D01*
G01X15885Y34875D01*
G01X15872Y34910D01*
G01X15862Y34949D01*
G01X15859Y34987D01*
G01X15859Y35025D01*
G01X15862Y35063D01*
G01X15872Y35101D01*
G01X15885Y35136D01*
G01X15902Y35170D01*
G01X15925Y35203D01*
G01X15951Y35230D01*
G01X15979Y35256D01*
G01X16012Y35279D01*
G01X16045Y35297D01*
G01X16080Y35309D01*
G01X16118Y35319D01*
G01X16156Y35324D01*
G01X16195Y35324D01*
G01X16233Y35319D01*
G01X16271Y35309D01*
G01X16306Y35297D01*
G01X16339Y35279D01*
G01X16372Y35256D01*
G01X16398Y35233D01*
G01X17353Y34278D01*
G01X17378Y34250D01*
G01X17399Y34220D01*
G01X17416Y34184D01*
G01X17432Y34148D01*
G01X17439Y34113D01*
G01X17444Y34075D01*
G01X17444Y34034D01*
G01X17439Y33996D01*
G01X17432Y33960D01*
G01X17416Y33925D01*
G01X17399Y33889D01*
G01X17376Y33859D01*
G01X17350Y33828D01*
G01X17322Y33806D01*
G01X17292Y33783D01*
G01X17256Y33765D01*
G01X17221Y33752D01*
G01X17185Y33742D01*
G01X17147Y33737D01*
G01X17106Y33737D01*
G37*
G36*
G01X19370Y36000D02*
G01X19331Y36003D01*
G01X19293Y36013D01*
G01X19258Y36025D01*
G01X19225Y36043D01*
G01X19192Y36066D01*
G01X19166Y36089D01*
G01X18211Y37047D01*
G01X18186Y37072D01*
G01X18166Y37102D01*
G01X18148Y37138D01*
G01X18133Y37174D01*
G01X18125Y37212D01*
G01X18120Y37250D01*
G01X18120Y37288D01*
G01X18125Y37326D01*
G01X18133Y37362D01*
G01X18148Y37400D01*
G01X18166Y37433D01*
G01X18186Y37463D01*
G01X18211Y37494D01*
G01X18242Y37519D01*
G01X18272Y37539D01*
G01X18305Y37557D01*
G01X18343Y37572D01*
G01X18379Y37580D01*
G01X18417Y37585D01*
G01X18455Y37585D01*
G01X18493Y37580D01*
G01X18531Y37572D01*
G01X18567Y37557D01*
G01X18602Y37539D01*
G01X18633Y37519D01*
G01X18658Y37494D01*
G01X19616Y36539D01*
G01X19639Y36511D01*
G01X19662Y36480D01*
G01X19679Y36447D01*
G01X19692Y36412D01*
G01X19702Y36373D01*
G01X19705Y36335D01*
G01X19705Y36297D01*
G01X19702Y36259D01*
G01X19692Y36221D01*
G01X19679Y36186D01*
G01X19662Y36152D01*
G01X19639Y36119D01*
G01X19613Y36092D01*
G01X19585Y36066D01*
G01X19552Y36043D01*
G01X19519Y36025D01*
G01X19484Y36013D01*
G01X19446Y36003D01*
G01X19408Y36000D01*
G01X19370Y36000D01*
G37*
G36*
G01X18422Y37684D02*
G01X18384Y37689D01*
G01X18346Y37697D01*
G01X18310Y37712D01*
G01X18275Y37730D01*
G01X18244Y37750D01*
G01X18216Y37776D01*
G01X18191Y37806D01*
G01X18168Y37837D01*
G01X18150Y37870D01*
G01X18138Y37908D01*
G01X18127Y37943D01*
G01X18122Y37981D01*
G01X18122Y38022D01*
G01X18127Y38057D01*
G01X18138Y38096D01*
G01X18150Y38131D01*
G01X18168Y38167D01*
G01X18191Y38197D01*
G01X18214Y38223D01*
G01X19169Y39180D01*
G01X19197Y39203D01*
G01X19227Y39226D01*
G01X19260Y39244D01*
G01X19298Y39256D01*
G01X19334Y39267D01*
G01X19372Y39269D01*
G01X19410Y39269D01*
G01X19448Y39267D01*
G01X19486Y39256D01*
G01X19522Y39244D01*
G01X19555Y39226D01*
G01X19588Y39203D01*
G01X19616Y39178D01*
G01X19641Y39150D01*
G01X19664Y39117D01*
G01X19682Y39084D01*
G01X19695Y39048D01*
G01X19705Y39010D01*
G01X19710Y38972D01*
G01X19710Y38934D01*
G01X19705Y38896D01*
G01X19695Y38858D01*
G01X19682Y38822D01*
G01X19664Y38789D01*
G01X19641Y38756D01*
G01X19618Y38731D01*
G01X18663Y37776D01*
G01X18635Y37750D01*
G01X18605Y37730D01*
G01X18569Y37712D01*
G01X18534Y37697D01*
G01X18496Y37689D01*
G01X18458Y37684D01*
G01X18422Y37684D01*
G37*
G36*
G01X17846Y38258D02*
G01X17807Y38263D01*
G01X17769Y38273D01*
G01X17734Y38286D01*
G01X17701Y38304D01*
G01X17668Y38327D01*
G01X17640Y38352D01*
G01X17614Y38380D01*
G01X17594Y38411D01*
G01X17576Y38446D01*
G01X17561Y38482D01*
G01X17553Y38520D01*
G01X17548Y38558D01*
G01X17548Y38596D01*
G01X17553Y38634D01*
G01X17561Y38670D01*
G01X17576Y38708D01*
G01X17594Y38741D01*
G01X17614Y38771D01*
G01X17637Y38799D01*
G01X18595Y39754D01*
G01X18620Y39777D01*
G01X18653Y39800D01*
G01X18686Y39818D01*
G01X18722Y39830D01*
G01X18760Y39841D01*
G01X18798Y39846D01*
G01X18836Y39846D01*
G01X18874Y39841D01*
G01X18912Y39830D01*
G01X18948Y39818D01*
G01X18981Y39800D01*
G01X19014Y39777D01*
G01X19042Y39752D01*
G01X19067Y39724D01*
G01X19090Y39693D01*
G01X19108Y39658D01*
G01X19121Y39622D01*
G01X19131Y39587D01*
G01X19133Y39546D01*
G01X19133Y39508D01*
G01X19131Y39470D01*
G01X19121Y39434D01*
G01X19108Y39399D01*
G01X19090Y39363D01*
G01X19067Y39333D01*
G01X19044Y39305D01*
G01X18087Y38350D01*
G01X18061Y38327D01*
G01X18028Y38304D01*
G01X17995Y38286D01*
G01X17960Y38273D01*
G01X17922Y38263D01*
G01X17884Y38258D01*
G01X17846Y38258D01*
G37*
G36*
G01X17272Y38835D02*
G01X17233Y38837D01*
G01X17195Y38847D01*
G01X17160Y38860D01*
G01X17127Y38878D01*
G01X17094Y38901D01*
G01X17066Y38926D01*
G01X17040Y38954D01*
G01X17018Y38987D01*
G01X17000Y39020D01*
G01X16987Y39056D01*
G01X16977Y39094D01*
G01X16974Y39132D01*
G01X16974Y39170D01*
G01X16977Y39208D01*
G01X16987Y39246D01*
G01X17000Y39282D01*
G01X17018Y39315D01*
G01X17040Y39348D01*
G01X17063Y39373D01*
G01X18021Y40328D01*
G01X18046Y40354D01*
G01X18077Y40374D01*
G01X18112Y40392D01*
G01X18148Y40407D01*
G01X18186Y40415D01*
G01X18224Y40420D01*
G01X18262Y40420D01*
G01X18300Y40415D01*
G01X18336Y40407D01*
G01X18374Y40392D01*
G01X18407Y40374D01*
G01X18437Y40354D01*
G01X18468Y40328D01*
G01X18493Y40298D01*
G01X18514Y40267D01*
G01X18531Y40234D01*
G01X18547Y40196D01*
G01X18554Y40161D01*
G01X18559Y40123D01*
G01X18559Y40084D01*
G01X18554Y40046D01*
G01X18547Y40008D01*
G01X18531Y39973D01*
G01X18514Y39937D01*
G01X18493Y39907D01*
G01X18468Y39881D01*
G01X17513Y38924D01*
G01X17487Y38901D01*
G01X17454Y38878D01*
G01X17421Y38860D01*
G01X17386Y38847D01*
G01X17348Y38837D01*
G01X17310Y38835D01*
G01X17272Y38835D01*
G37*
G36*
G01X16715Y39391D02*
G01X16677Y39396D01*
G01X16639Y39404D01*
G01X16603Y39419D01*
G01X16570Y39437D01*
G01X16537Y39457D01*
G01X16510Y39482D01*
G01X16484Y39513D01*
G01X16461Y39543D01*
G01X16443Y39576D01*
G01X16431Y39612D01*
G01X16421Y39650D01*
G01X16416Y39688D01*
G01X16416Y39726D01*
G01X16421Y39764D01*
G01X16431Y39802D01*
G01X16443Y39838D01*
G01X16461Y39871D01*
G01X16484Y39904D01*
G01X16507Y39929D01*
G01X17462Y40887D01*
G01X17490Y40910D01*
G01X17520Y40930D01*
G01X17556Y40948D01*
G01X17592Y40963D01*
G01X17627Y40971D01*
G01X17665Y40976D01*
G01X17706Y40976D01*
G01X17744Y40971D01*
G01X17780Y40963D01*
G01X17815Y40948D01*
G01X17851Y40930D01*
G01X17881Y40910D01*
G01X17909Y40885D01*
G01X17934Y40854D01*
G01X17957Y40824D01*
G01X17975Y40791D01*
G01X17988Y40755D01*
G01X17998Y40717D01*
G01X18003Y40679D01*
G01X18003Y40641D01*
G01X17998Y40603D01*
G01X17988Y40564D01*
G01X17975Y40529D01*
G01X17957Y40496D01*
G01X17934Y40463D01*
G01X17912Y40437D01*
G01X16957Y39480D01*
G01X16929Y39457D01*
G01X16898Y39437D01*
G01X16865Y39419D01*
G01X16827Y39404D01*
G01X16791Y39396D01*
G01X16753Y39391D01*
G01X16715Y39391D01*
G37*
G36*
G01X15582Y40521D02*
G01X15544Y40526D01*
G01X15509Y40537D01*
G01X15471Y40549D01*
G01X15438Y40567D01*
G01X15407Y40590D01*
G01X15377Y40615D01*
G01X15351Y40643D01*
G01X15331Y40674D01*
G01X15313Y40709D01*
G01X15298Y40745D01*
G01X15290Y40783D01*
G01X15285Y40818D01*
G01X15285Y40859D01*
G01X15290Y40897D01*
G01X15298Y40933D01*
G01X15313Y40968D01*
G01X15331Y41004D01*
G01X15351Y41034D01*
G01X15377Y41062D01*
G01X16332Y42017D01*
G01X16357Y42040D01*
G01X16390Y42063D01*
G01X16423Y42081D01*
G01X16459Y42094D01*
G01X16497Y42104D01*
G01X16535Y42109D01*
G01X16573Y42109D01*
G01X16611Y42104D01*
G01X16649Y42094D01*
G01X16685Y42081D01*
G01X16718Y42063D01*
G01X16751Y42040D01*
G01X16779Y42015D01*
G01X16804Y41987D01*
G01X16827Y41956D01*
G01X16845Y41921D01*
G01X16857Y41885D01*
G01X16868Y41847D01*
G01X16870Y41812D01*
G01X16870Y41771D01*
G01X16868Y41733D01*
G01X16857Y41697D01*
G01X16845Y41662D01*
G01X16827Y41626D01*
G01X16804Y41596D01*
G01X16781Y41568D01*
G01X15824Y40613D01*
G01X15798Y40590D01*
G01X15765Y40567D01*
G01X15732Y40549D01*
G01X15697Y40537D01*
G01X15659Y40526D01*
G01X15621Y40521D01*
G01X15582Y40521D01*
G37*
G36*
G01X16159Y39947D02*
G01X16118Y39952D01*
G01X16083Y39960D01*
G01X16047Y39975D01*
G01X16012Y39993D01*
G01X15981Y40013D01*
G01X15953Y40039D01*
G01X15925Y40069D01*
G01X15905Y40100D01*
G01X15887Y40135D01*
G01X15875Y40171D01*
G01X15864Y40206D01*
G01X15859Y40244D01*
G01X15859Y40283D01*
G01X15864Y40321D01*
G01X15875Y40359D01*
G01X15887Y40394D01*
G01X15905Y40427D01*
G01X15925Y40460D01*
G01X15951Y40486D01*
G01X16906Y41443D01*
G01X16934Y41466D01*
G01X16964Y41489D01*
G01X16997Y41507D01*
G01X17035Y41520D01*
G01X17071Y41530D01*
G01X17109Y41532D01*
G01X17147Y41532D01*
G01X17185Y41530D01*
G01X17223Y41520D01*
G01X17259Y41507D01*
G01X17294Y41489D01*
G01X17325Y41466D01*
G01X17353Y41441D01*
G01X17378Y41413D01*
G01X17401Y41380D01*
G01X17419Y41347D01*
G01X17432Y41311D01*
G01X17442Y41273D01*
G01X17447Y41235D01*
G01X17447Y41197D01*
G01X17442Y41159D01*
G01X17432Y41121D01*
G01X17419Y41085D01*
G01X17401Y41052D01*
G01X17378Y41022D01*
G01X17355Y40994D01*
G01X16400Y40039D01*
G01X16372Y40013D01*
G01X16342Y39993D01*
G01X16306Y39975D01*
G01X16271Y39960D01*
G01X16235Y39952D01*
G01X16197Y39947D01*
G01X16159Y39947D01*
G37*
G36*
G01X14452Y41654D02*
G01X14414Y41659D01*
G01X14376Y41667D01*
G01X14340Y41682D01*
G01X14307Y41700D01*
G01X14274Y41720D01*
G01X14246Y41746D01*
G01X14221Y41774D01*
G01X14198Y41807D01*
G01X14180Y41840D01*
G01X14168Y41875D01*
G01X14157Y41913D01*
G01X14152Y41951D01*
G01X14152Y41989D01*
G01X14157Y42028D01*
G01X14168Y42066D01*
G01X14180Y42101D01*
G01X14198Y42134D01*
G01X14221Y42167D01*
G01X14244Y42193D01*
G01X15201Y43150D01*
G01X15227Y43173D01*
G01X15257Y43193D01*
G01X15293Y43211D01*
G01X15328Y43226D01*
G01X15364Y43234D01*
G01X15405Y43239D01*
G01X15443Y43239D01*
G01X15481Y43234D01*
G01X15516Y43226D01*
G01X15552Y43211D01*
G01X15587Y43193D01*
G01X15618Y43173D01*
G01X15648Y43148D01*
G01X15674Y43117D01*
G01X15694Y43087D01*
G01X15712Y43054D01*
G01X15725Y43018D01*
G01X15735Y42980D01*
G01X15740Y42942D01*
G01X15740Y42904D01*
G01X15735Y42866D01*
G01X15725Y42828D01*
G01X15712Y42792D01*
G01X15694Y42759D01*
G01X15674Y42726D01*
G01X15648Y42701D01*
G01X14693Y41743D01*
G01X14665Y41720D01*
G01X14635Y41700D01*
G01X14602Y41682D01*
G01X14566Y41667D01*
G01X14528Y41659D01*
G01X14490Y41654D01*
G01X14452Y41654D01*
G37*
G36*
G01X15026Y41078D02*
G01X14988Y41083D01*
G01X14950Y41093D01*
G01X14914Y41105D01*
G01X14881Y41123D01*
G01X14848Y41146D01*
G01X14820Y41172D01*
G01X14795Y41199D01*
G01X14775Y41232D01*
G01X14757Y41266D01*
G01X14742Y41301D01*
G01X14734Y41339D01*
G01X14729Y41377D01*
G01X14729Y41415D01*
G01X14734Y41453D01*
G01X14742Y41492D01*
G01X14757Y41527D01*
G01X14775Y41560D01*
G01X14795Y41593D01*
G01X14818Y41619D01*
G01X15775Y42574D01*
G01X15801Y42599D01*
G01X15834Y42619D01*
G01X15867Y42637D01*
G01X15902Y42650D01*
G01X15941Y42660D01*
G01X15979Y42665D01*
G01X16017Y42665D01*
G01X16055Y42660D01*
G01X16093Y42650D01*
G01X16129Y42637D01*
G01X16162Y42619D01*
G01X16195Y42599D01*
G01X16222Y42571D01*
G01X16248Y42543D01*
G01X16268Y42513D01*
G01X16286Y42477D01*
G01X16301Y42442D01*
G01X16309Y42406D01*
G01X16314Y42368D01*
G01X16314Y42327D01*
G01X16309Y42292D01*
G01X16301Y42254D01*
G01X16286Y42218D01*
G01X16268Y42182D01*
G01X16248Y42152D01*
G01X16225Y42127D01*
G01X15267Y41169D01*
G01X15242Y41146D01*
G01X15209Y41123D01*
G01X15176Y41105D01*
G01X15140Y41093D01*
G01X15102Y41083D01*
G01X15064Y41078D01*
G01X15026Y41078D01*
G37*
G36*
G01X16410Y24692D02*
G01X16410Y26521D01*
G01X17995Y26521D01*
G01X17995Y24692D01*
G01X16410Y24692D01*
G37*
G36*
G01X19596Y24692D02*
G01X19596Y26521D01*
G01X21181Y26521D01*
G01X21181Y24692D01*
G01X19596Y24692D01*
G37*
G54D83*
G01X17025Y16686D03*
G01X18026Y17336D03*
G01X17025Y17986D03*
G01X18026Y18637D03*
G01X17025Y19287D03*
G01X20835Y16690D03*
G01X21836Y17340D03*
G01X20835Y17990D03*
G01X21836Y18640D03*
G01X20835Y19291D03*
G36*
G01X19596Y22533D02*
G01X19596Y24362D01*
G01X21181Y24362D01*
G01X21181Y22533D01*
G01X19596Y22533D01*
G37*
G36*
G01X16410Y22533D02*
G01X16410Y24362D01*
G01X17995Y24362D01*
G01X17995Y22533D01*
G01X16410Y22533D01*
G37*
G54D84*
G01X34417Y27003D03*
G01X34417Y28400D03*
G01X36195Y27003D03*
G01X36195Y28400D03*
G01X37973Y27003D03*
G01X37973Y28400D03*
G01X39751Y27003D03*
G01X39751Y28400D03*
G01X17653Y45037D03*
G01X17653Y46434D03*
G36*
G01X6106Y50834D02*
G01X6106Y52675D01*
G01X7609Y52675D01*
G01X7609Y50834D01*
G01X6106Y50834D01*
G37*
G36*
G01X6106Y43615D02*
G01X6106Y45215D01*
G01X7609Y45215D01*
G01X7609Y43615D01*
G01X6106Y43615D01*
G37*
G36*
G01X11904Y27666D02*
G01X11904Y29388D01*
G01X14053Y29388D01*
G01X14053Y27666D01*
G01X11904Y27666D01*
G37*
G36*
G01X6774Y27666D02*
G01X6774Y29388D01*
G01X8923Y29388D01*
G01X8923Y27666D01*
G01X6774Y27666D01*
G37*
G36*
G01X14140Y27666D02*
G01X14140Y29388D01*
G01X16289Y29388D01*
G01X16289Y27666D01*
G01X14140Y27666D01*
G37*
G36*
G01X19270Y27666D02*
G01X19270Y29388D01*
G01X21419Y29388D01*
G01X21419Y27666D01*
G01X19270Y27666D01*
G37*
G36*
G01X17475Y54380D02*
G01X17475Y55497D01*
G01X18592Y55497D01*
G01X18592Y54380D01*
G01X17475Y54380D01*
G37*
G36*
G01X16078Y54380D02*
G01X16078Y55497D01*
G01X17195Y55497D01*
G01X17195Y54380D01*
G01X16078Y54380D01*
G37*
G36*
G01X17475Y56163D02*
G01X17475Y57280D01*
G01X18592Y57280D01*
G01X18592Y56163D01*
G01X17475Y56163D01*
G37*
G36*
G01X16078Y56163D02*
G01X16078Y57280D01*
G01X17195Y57280D01*
G01X17195Y56163D01*
G01X16078Y56163D01*
G37*
G01X14097Y45037D03*
G01X14097Y46434D03*
G36*
G01X6769Y32124D02*
G01X6769Y32551D01*
G01X7239Y32551D01*
G01X7239Y32124D01*
G01X6769Y32124D01*
G37*
G36*
G01X6223Y32124D02*
G01X6223Y32551D01*
G01X6692Y32551D01*
G01X6692Y32124D01*
G01X6223Y32124D01*
G37*
G36*
G01X6769Y31362D02*
G01X6769Y31789D01*
G01X7239Y31789D01*
G01X7239Y31362D01*
G01X6769Y31362D01*
G37*
G36*
G01X6223Y31362D02*
G01X6223Y31789D01*
G01X6692Y31789D01*
G01X6692Y31362D01*
G01X6223Y31362D01*
G37*
M00*
M02*
