;Layer: Drill PTH
;EasyEDA v6.4.7, 2021-02-24T17:41:02+08:00
;aefd34b0273d4d6584ca49087094e06a,119f753a6ce64b8d841f2ad33262ab0c,10
;Gerber Generator version 0.2
M48
METRIC,LZ,000.000
;Holesize 1 = 0.301 METRIC
T01C0.301
;Holesize 2 = 0.305 METRIC
T02C0.305
;Holesize 3 = 0.400 METRIC
T03C0.400
;Holesize 4 = 0.407 METRIC
T04C0.407
;Holesize 5 = 0.501 METRIC
T05C0.501
;Holesize 6 = 0.701 METRIC
T06C0.701
;Holesize 7 = 0.800 METRIC
T07C0.800
;Holesize 8 = 0.901 METRIC
T08C0.901
;Holesize 9 = 1.000 METRIC
T09C1.000
;Holesize 10 = 1.016 METRIC
T10C1.016
;Holesize 11 = 1.050 METRIC
T11C1.050
;Holesize 12 = 1.152 METRIC
T12C1.152
;Holesize 13 = 2.000 METRIC
T13C2.000
;Holesize 14 = 3.101 METRIC
T14C3.101
%
G05
G90
T01
X+059817Y+006937
X+060071Y+007572
X+060452Y+009731
X+060071Y+017859
X+060452Y+012525
X+063246Y+017986
X+063373Y+017097
X+064262Y+009731
X+064262Y+012525
X+064262Y+006937
X+064643Y+017224
X+058674Y+015700
X+058928Y+011890
X+058166Y+009350
X+002286Y+067516
X+002286Y+062436
X+002286Y+057356
X+002286Y+054816
X+002286Y+039576
X+002286Y+037036
X+002286Y+034496
X+002286Y+031956
X+002286Y+029416
X+002286Y+016716
X+002286Y+014176
X+002286Y+011763
X+002286Y+009223
X+002286Y+006556
X+002286Y+049736
X+002286Y+044656
X+046736Y+006683
X+046736Y+005668
X+034873Y+017351
X+034873Y+015051
X+033274Y+020526
X+034873Y+021909
X+036703Y+016081
X+046101Y+025606
X+057150Y+019637
X+053086Y+022939
X+050292Y+024590
X+048768Y+023828
X+058039Y+028527
X+062611Y+028527
X+056261Y+024717
X+060579Y+026241
X+058801Y+027384
X+062230Y+026241
X+049403Y+022050
X+048387Y+006175
X+056896Y+015700
X+062230Y+006048
X+062230Y+008842
X+062230Y+011636
X+056896Y+028400
X+055118Y+016462
X+044831Y+014430
X+035306Y+011763
X+035306Y+009160
X+035306Y+006556
X+037846Y+006556
X+040386Y+011763
X+040386Y+009160
X+040386Y+006556
X+012446Y+011763
X+012446Y+006556
X+012446Y+067516
X+012446Y+064976
X+012446Y+062436
X+012446Y+014176
X+007366Y+006556
X+004826Y+006556
X+009906Y+006556
X+004826Y+011763
X+004826Y+014176
X+004826Y+062436
X+004826Y+064976
X+004826Y+067516
X+009906Y+062436
X+050546Y+009160
X+053086Y+009160
X+053086Y+011763
X+053086Y+014367
X+050546Y+014367
X+055118Y+006556
X+042799Y+014176
X+007366Y+016716
X+040640Y+016208
X+033147Y+016208
X+033147Y+018537
X+037846Y+011763
X+037084Y+022812
X+009906Y+059896
X+004826Y+059896
X+009906Y+057356
X+007366Y+057356
X+004826Y+057356
X+012446Y+057356
X+004826Y+054816
X+050800Y+028973
X+050800Y+027573
X+049404Y+028972
X+049404Y+027575
X+052197Y+028973
X+053594Y+028973
X+054991Y+028973
X+048641Y+019510
X+049784Y+020145
X+049784Y+018748
X+045720Y+024082
X+045847Y+023193
X+044831Y+023320
X+020193Y+038560
X+044577Y+032972
X+046482Y+033353
X+020447Y+025606
X+064770Y+030178
X+062611Y+022177
X+042926Y+020780
X+042291Y+065865
X+033401Y+057356
X+049412Y+017572
X+038481Y+032718
X+049403Y+031829
X+045974Y+029162
X+044577Y+029162
X+046863Y+028146
X+045212Y+026495
X+044577Y+027511
X+044577Y+028273
X+046863Y+029162
X+046990Y+027130
X+055626Y+026495
X+012446Y+016716
X+012446Y+019256
X+009906Y+019256
X+020320Y+044148
X+010033Y+026876
X+012954Y+036909
X+016129Y+038306
X+024765Y+055705
X+002286Y+024336
X+002286Y+021796
X+002286Y+019256
X+028194Y+029289
X+041910Y+026241
X+033020Y+034242
X+035179Y+032464
X+048895Y+033480
X+026416Y+038814
X+051943Y+039068
X+040894Y+036909
X+023114Y+033480
X+025908Y+036401
X+014986Y+067516
X+017526Y+067516
X+025146Y+067516
X+017526Y+064976
X+022606Y+064976
X+025146Y+064976
X+014986Y+062436
X+017526Y+062436
X+020066Y+062436
X+022606Y+062436
X+025146Y+062436
X+014986Y+059896
X+018415Y+059388
X+020066Y+059896
X+005969Y+029162
X+010795Y+037671
X+022098Y+042497
X+042418Y+045291
X+046101Y+047069
X+048895Y+047069
X+021209Y+056594
X+049276Y+043513
X+044704Y+045291
X+046355Y+044021
X+028194Y+062690
X+030861Y+068024
X+033401Y+068024
X+019939Y+030051
X+013208Y+031702
X+047371Y+023828
X+053975Y+024717
X+053303Y+019882
X+058547Y+016716
X+060452Y+014303
X+064008Y+020145
X+064643Y+022431
X+025527Y+059134
X+041402Y+063833
X+043434Y+063325
X+009906Y+009223
X+020066Y+067516
X+022606Y+067516
X+007366Y+054816
X+009906Y+054816
X+022860Y+048593
X+012065Y+039068
X+015621Y+032083
X+018796Y+041862
X+018161Y+043005
X+014097Y+055197
X+022479Y+049990
X+023241Y+047196
X+014605Y+034623
X+023622Y+031448
X+021209Y+014684
X+016383Y+023828
X+018796Y+024717
X+022352Y+023828
X+025146Y+025733
X+028956Y+020653
X+028956Y+014557
X+030988Y+046180
X+037592Y+046180
X+004826Y+016716
X+009906Y+016716
X+012446Y+009160
X+002286Y+026876
X+002286Y+042116
X+002286Y+047196
X+002286Y+052276
X+002286Y+064976
X+002286Y+059896
X+007366Y+059896
X+014986Y+064976
X+012446Y+059896
X+020066Y+064976
X+004826Y+009223
X+050546Y+011763
X+032512Y+028908
X+020828Y+020526
X+021590Y+017859
X+004953Y+043767
X+023876Y+019383
X+024257Y+018113
X+018288Y+016716
T02
X+054229Y+006175
X+044831Y+013668
X+039751Y+067963
X+042291Y+067963
X+044831Y+067963
X+047371Y+067963
X+049911Y+067963
X+052451Y+067963
X+054991Y+067963
X+057531Y+067963
X+060071Y+067963
X+062611Y+067963
X+035941Y+013033
X+039624Y+013033
X+037211Y+067963
X+034671Y+067963
X+036322Y+056975
X+035941Y+068659
X+038481Y+068659
X+041021Y+068659
X+043561Y+068659
X+046101Y+068659
X+048641Y+068659
X+051181Y+068659
X+053721Y+068659
X+056261Y+068659
X+058801Y+068659
X+061341Y+068659
X+037211Y+065865
X+033528Y+065484
X+032893Y+023701
X+028448Y+065291
X+039751Y+065865
X+044831Y+065865
X+047371Y+065865
X+049911Y+065865
X+052451Y+065865
X+054991Y+065865
X+057531Y+065865
X+060071Y+065865
X+062611Y+065865
X+043053Y+056340
X+048641Y+057356
X+050292Y+056594
X+054483Y+056975
X+055753Y+054308
X+062357Y+056086
X+060833Y+051260
X+058547Y+052276
X+054102Y+051387
X+046795Y+051212
X+042418Y+052784
X+038989Y+052530
X+036449Y+052657
X+032004Y+052657
X+029464Y+052657
X+029337Y+056213
X+042799Y+049228
X+058547Y+048974
X+032004Y+055197
X+050927Y+051641
X+050326Y+049275
X+006731Y+033838
X+014605Y+034623
X+030988Y+049482
X+037592Y+049482
T03
X+047498Y+030051
X+020955Y+037925
X+022606Y+038687
X+021209Y+043386
X+018796Y+045418
X+014097Y+045037
X+016764Y+049228
X+016764Y+047958
X+007874Y+028527
X+020447Y+028527
X+015367Y+028781
X+032131Y+058118
X+018034Y+056721
X+018034Y+054943
X+046990Y+034623
X+047879Y+033988
X+025781Y+048720
X+019558Y+049990
X+026162Y+049609
X+020320Y+051514
X+024130Y+052149
X+020574Y+053038
X+019558Y+037671
X+021717Y+036782
X+025527Y+052022
X+020066Y+054562
X+025908Y+053419
X+024130Y+029035
X+009144Y+032337
X+004953Y+045672
X+029210Y+034750
X+029972Y+034115
X+026035Y+046307
X+026035Y+055705
X+024003Y+030559
X+028321Y+034115
X+025146Y+047069
X+024003Y+056086
X+025146Y+032083
X+025781Y+032845
X+024511Y+034115
X+023241Y+029797
X+023241Y+035512
X+023876Y+034750
X+027559Y+036147
X+063246Y+056848
X+062103Y+054308
X+042926Y+054308
X+039370Y+054308
X+060452Y+037798
X+060452Y+036274
X+023495Y+039449
X+023495Y+040465
X+023495Y+041481
X+023495Y+042497
X+048387Y+042243
X+049276Y+042497
X+058801Y+053800
X+050165Y+042878
X+051181Y+053800
X+049784Y+052403
X+050927Y+043513
X+051054Y+045164
X+044958Y+052022
X+052451Y+043259
X+044196Y+051768
X+041910Y+054308
X+024130Y+046561
X+022352Y+055578
X+022987Y+056467
X+021971Y+060150
X+027051Y+060150
X+008509Y+037798
X+008509Y+039957
X+004826Y+033734
X+031623Y+034623
X+039751Y+028400
X+037973Y+027003
X+016086Y+022441G85X+017136Y+022441
X+016086Y+015281G85X+017136Y+015281
T04
X+013462Y+037925
T05
X+016390Y+017561
X+017391Y+018211
X+016390Y+018861
X+017391Y+019512
X+016390Y+020162
X+020509Y+022505G85X+020509Y+022480
X+020509Y+021555G85X+020509Y+021530
X+020509Y+019705G85X+020509Y+019680
X+020509Y+018805G85X+020509Y+018780
X+020509Y+017905G85X+020509Y+017880
X+020509Y+016955G85X+020509Y+016930
X+020509Y+016005G85X+020509Y+015980
X+021909Y+016005G85X+021909Y+015980
X+021909Y+016955G85X+021909Y+016930
X+021909Y+018805G85X+021909Y+018780
X+021909Y+019705G85X+021909Y+019680
X+021909Y+020605G85X+021909Y+020580
X+021909Y+021555G85X+021909Y+021530
X+021908Y+022505G85X+021908Y+022480
T06
X+023138Y+016742G85X+023138Y+017742
X+023138Y+020742G85X+023138Y+021742
X+019279Y+016742G85X+019279Y+017742
X+019279Y+020742G85X+019279Y+021742
T07
X+026936Y+021618
X+025133Y+020818
X+025133Y+019218
X+026936Y+020018
X+026936Y+018418
T08
X+056235Y+034242
X+061112Y+034242
T09
X+060706Y+053038
X+060706Y+055578
X+060706Y+049101
X+060706Y+046561
X+054102Y+046562
X+054102Y+049102
X+047498Y+046562
X+047498Y+049102
X+040894Y+046562
X+040894Y+049102
X+034290Y+046562
X+034290Y+049102
X+027686Y+046562
X+027686Y+049102
X+054102Y+053038
X+054102Y+055578
X+047498Y+053038
X+047498Y+055578
X+040894Y+053038
X+040894Y+055578
X+034290Y+053038
X+034290Y+055578
X+027686Y+053038
X+027686Y+055578
T10
X+005080Y+020016G85X+005080Y+020021
X+005080Y+025096G85X+005080Y+025101
X+005080Y+022556G85X+005080Y+022561
T11
X+013208Y+025098
X+013208Y+022558
X+010668Y+025098
X+010668Y+022558
X+008128Y+025098
X+008128Y+022558
T12
X+037846Y+009160
X+008001Y+008334
X+008001Y+062055
X+037846Y+009160
T13
X+026047Y+016018
X+026047Y+024018
T14
X+008001Y+012448G85X+008001Y+012603
X+008001Y+066246
M30
