G04 Layer: TopPasteMaskLayer*
G04 EasyEDA v6.4.7, 2021-02-24T17:41:02+08:00*
G04 aefd34b0273d4d6584ca49087094e06a,119f753a6ce64b8d841f2ad33262ab0c,10*
G04 Gerber Generator version 0.2*
G04 Scale: 100 percent, Rotated: No, Reflected: No *
G04 Dimensions in millimeters *
G04 leading zeros omitted , absolute positions ,3 integer and 3 decimal *
%FSLAX33Y33*%
%MOMM*%
G90*
D02*

%ADD22C,1.199998*%
%ADD23C,0.343002*%
%ADD24C,0.203200*%
%ADD25C,0.599999*%
%ADD33R,2.185010X2.591994*%
%ADD35R,0.914400X0.914400*%
%ADD37R,1.399997X1.499997*%
%ADD38R,2.046376X1.620012*%
%ADD39C,0.889000*%

%LPD*%
G54D22*
G01X62611Y68420D02*
G01X62611Y67120D01*
G01X60071Y68420D02*
G01X60071Y67120D01*
G01X57531Y68420D02*
G01X57531Y67120D01*
G01X54991Y68420D02*
G01X54991Y67120D01*
G01X52451Y68420D02*
G01X52451Y67120D01*
G01X49911Y68420D02*
G01X49911Y67120D01*
G01X47371Y68420D02*
G01X47371Y67120D01*
G01X39751Y68420D02*
G01X39751Y67120D01*
G01X62611Y60800D02*
G01X62611Y59500D01*
G01X60071Y60800D02*
G01X60071Y59500D01*
G01X57531Y60800D02*
G01X57531Y59500D01*
G01X54991Y60800D02*
G01X54991Y59500D01*
G01X52451Y60800D02*
G01X52451Y59500D01*
G01X49911Y60800D02*
G01X49911Y59500D01*
G01X47371Y60800D02*
G01X47371Y59500D01*
G01X44831Y60800D02*
G01X44831Y59500D01*
G01X42291Y60800D02*
G01X42291Y59500D01*
G01X39751Y60800D02*
G01X39751Y59500D01*
G01X37211Y68420D02*
G01X37211Y67120D01*
G01X34671Y68420D02*
G01X34671Y67120D01*
G01X32131Y68420D02*
G01X32131Y67120D01*
G01X29591Y68420D02*
G01X29591Y67120D01*
G01X27051Y68420D02*
G01X27051Y67120D01*
G01X37211Y60800D02*
G01X37211Y59500D01*
G01X34671Y60800D02*
G01X34671Y59500D01*
G01X32131Y60800D02*
G01X32131Y59500D01*
G01X29591Y60800D02*
G01X29591Y59500D01*
G01X27051Y60800D02*
G01X27051Y59500D01*
G01X44831Y68420D02*
G01X44831Y67120D01*
G01X42291Y68420D02*
G01X42291Y67120D01*
G54D23*
G01X51088Y35652D02*
G01X51088Y37040D01*
G01X50438Y35652D02*
G01X50438Y37040D01*
G01X49788Y35652D02*
G01X49788Y37040D01*
G01X49138Y35652D02*
G01X49138Y37040D01*
G01X48488Y35652D02*
G01X48488Y37040D01*
G01X47838Y35652D02*
G01X47838Y37040D01*
G01X47187Y35652D02*
G01X47187Y37040D01*
G01X46537Y35652D02*
G01X46537Y37040D01*
G01X45887Y35652D02*
G01X45887Y37040D01*
G01X45237Y35652D02*
G01X45237Y37040D01*
G01X44587Y35652D02*
G01X44587Y37040D01*
G01X43937Y35652D02*
G01X43937Y37040D01*
G01X43287Y35652D02*
G01X43287Y37040D01*
G01X42637Y35652D02*
G01X42637Y37040D01*
G01X51088Y29920D02*
G01X51088Y31309D01*
G01X50438Y29920D02*
G01X50438Y31309D01*
G01X49788Y29920D02*
G01X49788Y31309D01*
G01X49138Y29920D02*
G01X49138Y31309D01*
G01X48488Y29920D02*
G01X48488Y31309D01*
G01X47838Y29920D02*
G01X47838Y31309D01*
G01X47187Y29920D02*
G01X47187Y31309D01*
G01X46537Y29920D02*
G01X46537Y31309D01*
G01X45887Y29920D02*
G01X45887Y31309D01*
G01X45237Y29920D02*
G01X45237Y31309D01*
G01X44587Y29920D02*
G01X44587Y31309D01*
G01X43937Y29920D02*
G01X43937Y31309D01*
G01X43287Y29920D02*
G01X43287Y31309D01*
G01X42637Y29920D02*
G01X42637Y31309D01*
G54D24*
G01X51286Y19577D02*
G01X52040Y20332D01*
G01X59818Y19012D02*
G01X59064Y19766D01*
G01X58404Y17598D02*
G01X57650Y18352D01*
G01X61233Y20426D02*
G01X60478Y21180D01*
G01X60950Y20143D02*
G01X60195Y20897D01*
G01X60384Y19577D02*
G01X59630Y20332D01*
G01X60101Y19295D02*
G01X59347Y20049D01*
G01X58687Y17881D02*
G01X57933Y18635D01*
G01X58970Y18163D02*
G01X58216Y18918D01*
G01X60667Y19860D02*
G01X59912Y20615D01*
G01X51192Y23113D02*
G01X50437Y23867D01*
G01X58121Y17315D02*
G01X57367Y18069D01*
G01X56518Y27073D02*
G01X57273Y27827D01*
G01X50154Y20709D02*
G01X50909Y21463D01*
G01X57556Y16749D02*
G01X56801Y17504D01*
G01X60195Y23396D02*
G01X60950Y24150D01*
G01X59253Y18446D02*
G01X58498Y19201D01*
G01X53548Y17315D02*
G01X54303Y18069D01*
G01X52134Y18729D02*
G01X52889Y19483D01*
G01X50909Y22830D02*
G01X50154Y23585D01*
G01X55152Y27073D02*
G01X54397Y27827D01*
G01X57838Y17032D02*
G01X57084Y17786D01*
G01X61515Y20709D02*
G01X60761Y21463D01*
G01X54114Y16749D02*
G01X54869Y17503D01*
G01X53831Y17032D02*
G01X54586Y17786D01*
G01X59535Y18729D02*
G01X58781Y19483D01*
G01X57273Y16466D02*
G01X56518Y17221D01*
G01X59912Y23679D02*
G01X60667Y24433D01*
G01X59630Y23962D02*
G01X60384Y24716D01*
G01X52606Y24527D02*
G01X51852Y25282D01*
G01X52889Y24810D02*
G01X52134Y25564D01*
G01X52323Y24244D02*
G01X51569Y24999D01*
G01X51757Y23679D02*
G01X51003Y24433D01*
G01X53171Y25093D02*
G01X52417Y25847D01*
G01X53454Y25376D02*
G01X52700Y26130D01*
G01X51474Y23396D02*
G01X50720Y24150D01*
G01X52040Y23962D02*
G01X51286Y24716D01*
G01X57932Y25659D02*
G01X58687Y26413D01*
G01X56801Y26790D02*
G01X57555Y27544D01*
G01X57084Y26507D02*
G01X57838Y27261D01*
G01X57650Y25941D02*
G01X58404Y26696D01*
G01X57367Y26224D02*
G01X58121Y26978D01*
G01X50720Y20143D02*
G01X51474Y20897D01*
G01X50437Y20426D02*
G01X51191Y21180D01*
G01X51003Y19860D02*
G01X51757Y20615D01*
G01X52983Y17881D02*
G01X53737Y18635D01*
G01X53266Y17598D02*
G01X54020Y18352D01*
G01X58781Y24810D02*
G01X59535Y25564D01*
G01X52700Y18163D02*
G01X53454Y18918D01*
G01X52417Y18446D02*
G01X53171Y19201D01*
G01X59064Y24527D02*
G01X59818Y25282D01*
G01X58498Y25093D02*
G01X59253Y25847D01*
G01X58215Y25376D02*
G01X58970Y26130D01*
G01X59347Y24244D02*
G01X60101Y24999D01*
G01X54397Y16466D02*
G01X55152Y17220D01*
G01X53737Y25659D02*
G01X52983Y26413D01*
G01X54586Y26507D02*
G01X53831Y27261D01*
G01X54020Y25941D02*
G01X53266Y26696D01*
G01X51851Y19012D02*
G01X52606Y19766D01*
G01X60761Y22830D02*
G01X61515Y23585D01*
G01X60478Y23113D02*
G01X61233Y23867D01*
G01X54303Y26224D02*
G01X53548Y26978D01*
G01X51568Y19295D02*
G01X52323Y20049D01*
G01X54869Y26790D02*
G01X54114Y27544D01*
G54D25*
G01X39878Y35979D02*
G01X39878Y37179D01*
G01X38608Y35979D02*
G01X38608Y37179D01*
G01X37338Y35979D02*
G01X37338Y37179D01*
G01X36068Y35979D02*
G01X36068Y37179D01*
G01X34798Y35979D02*
G01X34798Y37179D01*
G01X33528Y35979D02*
G01X33528Y37179D01*
G01X32258Y35979D02*
G01X32258Y37179D01*
G01X30988Y35979D02*
G01X30988Y37179D01*
G01X39878Y30036D02*
G01X39878Y31236D01*
G01X38608Y30036D02*
G01X38608Y31236D01*
G01X37338Y30036D02*
G01X37338Y31236D01*
G01X36068Y30036D02*
G01X36068Y31236D01*
G01X34798Y30036D02*
G01X34798Y31236D01*
G01X33528Y30036D02*
G01X33528Y31236D01*
G01X32258Y30036D02*
G01X32258Y31236D01*
G01X30988Y30036D02*
G01X30988Y31236D01*
G36*
G01X59385Y5600D02*
G01X60085Y5600D01*
G01X60085Y1300D01*
G01X59385Y1300D01*
G01X59385Y5600D01*
G37*
G36*
G01X58385Y5600D02*
G01X59085Y5600D01*
G01X59085Y1300D01*
G01X58385Y1300D01*
G01X58385Y5600D01*
G37*
G36*
G01X60385Y5600D02*
G01X61085Y5600D01*
G01X61085Y1300D01*
G01X60385Y1300D01*
G01X60385Y5600D01*
G37*
G36*
G01X62385Y5600D02*
G01X63085Y5600D01*
G01X63085Y1300D01*
G01X62385Y1300D01*
G01X62385Y5600D01*
G37*
G36*
G01X61385Y5600D02*
G01X62085Y5600D01*
G01X62085Y1300D01*
G01X61385Y1300D01*
G01X61385Y5600D01*
G37*
G36*
G01X64385Y5600D02*
G01X65085Y5600D01*
G01X65085Y1300D01*
G01X64385Y1300D01*
G01X64385Y5600D01*
G37*
G36*
G01X63385Y5600D02*
G01X64085Y5600D01*
G01X64085Y2400D01*
G01X63385Y2400D01*
G01X63385Y5600D01*
G37*
G36*
G01X46385Y5600D02*
G01X47085Y5600D01*
G01X47085Y1300D01*
G01X46385Y1300D01*
G01X46385Y5600D01*
G37*
G36*
G01X45385Y5600D02*
G01X46085Y5600D01*
G01X46085Y1300D01*
G01X45385Y1300D01*
G01X45385Y5600D01*
G37*
G36*
G01X47385Y5600D02*
G01X48085Y5600D01*
G01X48085Y1300D01*
G01X47385Y1300D01*
G01X47385Y5600D01*
G37*
G36*
G01X53385Y5600D02*
G01X54085Y5600D01*
G01X54085Y1300D01*
G01X53385Y1300D01*
G01X53385Y5600D01*
G37*
G36*
G01X52385Y5600D02*
G01X53085Y5600D01*
G01X53085Y1300D01*
G01X52385Y1300D01*
G01X52385Y5600D01*
G37*
G36*
G01X55385Y5600D02*
G01X56085Y5600D01*
G01X56085Y1300D01*
G01X55385Y1300D01*
G01X55385Y5600D01*
G37*
G36*
G01X54385Y5600D02*
G01X55085Y5600D01*
G01X55085Y1300D01*
G01X54385Y1300D01*
G01X54385Y5600D01*
G37*
G36*
G01X49385Y5600D02*
G01X50085Y5600D01*
G01X50085Y1300D01*
G01X49385Y1300D01*
G01X49385Y5600D01*
G37*
G36*
G01X48385Y5600D02*
G01X49085Y5600D01*
G01X49085Y1300D01*
G01X48385Y1300D01*
G01X48385Y5600D01*
G37*
G36*
G01X51385Y5600D02*
G01X52085Y5600D01*
G01X52085Y1300D01*
G01X51385Y1300D01*
G01X51385Y5600D01*
G37*
G36*
G01X50385Y5600D02*
G01X51085Y5600D01*
G01X51085Y1300D01*
G01X50385Y1300D01*
G01X50385Y5600D01*
G37*
G36*
G01X44436Y14912D02*
G01X44436Y17504D01*
G01X46622Y17504D01*
G01X46622Y14912D01*
G01X44436Y14912D01*
G37*
G54D33*
G01X38544Y16208D03*
G01X38544Y20907D03*
G36*
G01X44436Y19611D02*
G01X44436Y22203D01*
G01X46622Y22203D01*
G01X46622Y19611D01*
G01X44436Y19611D01*
G37*
G36*
G01X13261Y33947D02*
G01X13279Y33927D01*
G01X13293Y33906D01*
G01X13306Y33883D01*
G01X13315Y33858D01*
G01X13321Y33833D01*
G01X13324Y33807D01*
G01X13324Y33781D01*
G01X13321Y33755D01*
G01X13315Y33730D01*
G01X13306Y33706D01*
G01X13293Y33683D01*
G01X13279Y33661D01*
G01X13261Y33642D01*
G01X12309Y32690D01*
G01X12290Y32672D01*
G01X12268Y32657D01*
G01X12245Y32646D01*
G01X12221Y32636D01*
G01X12196Y32630D01*
G01X12170Y32627D01*
G01X12144Y32627D01*
G01X12118Y32630D01*
G01X12092Y32636D01*
G01X12068Y32646D01*
G01X12045Y32657D01*
G01X12024Y32672D01*
G01X12004Y32690D01*
G01X11987Y32709D01*
G01X11972Y32731D01*
G01X11960Y32754D01*
G01X11951Y32778D01*
G01X11944Y32803D01*
G01X11941Y32829D01*
G01X11941Y32855D01*
G01X11944Y32881D01*
G01X11951Y32907D01*
G01X11960Y32931D01*
G01X11972Y32954D01*
G01X11987Y32975D01*
G01X12004Y32995D01*
G01X12956Y33947D01*
G01X12976Y33964D01*
G01X12997Y33979D01*
G01X13020Y33991D01*
G01X13044Y34000D01*
G01X13070Y34007D01*
G01X13096Y34010D01*
G01X13122Y34010D01*
G01X13148Y34007D01*
G01X13173Y34000D01*
G01X13197Y33991D01*
G01X13220Y33979D01*
G01X13242Y33964D01*
G01X13261Y33947D01*
G37*
G36*
G01X12687Y34522D02*
G01X12704Y34502D01*
G01X12719Y34481D01*
G01X12731Y34458D01*
G01X12740Y34433D01*
G01X12746Y34408D01*
G01X12750Y34382D01*
G01X12750Y34356D01*
G01X12746Y34330D01*
G01X12740Y34305D01*
G01X12731Y34280D01*
G01X12719Y34257D01*
G01X12704Y34236D01*
G01X12687Y34216D01*
G01X11735Y33265D01*
G01X11715Y33247D01*
G01X11694Y33232D01*
G01X11671Y33220D01*
G01X11646Y33211D01*
G01X11621Y33205D01*
G01X11595Y33202D01*
G01X11569Y33202D01*
G01X11543Y33205D01*
G01X11518Y33211D01*
G01X11494Y33220D01*
G01X11470Y33232D01*
G01X11449Y33247D01*
G01X11430Y33265D01*
G01X11412Y33284D01*
G01X11397Y33305D01*
G01X11385Y33329D01*
G01X11376Y33353D01*
G01X11370Y33378D01*
G01X11367Y33404D01*
G01X11367Y33430D01*
G01X11370Y33456D01*
G01X11376Y33481D01*
G01X11385Y33506D01*
G01X11397Y33529D01*
G01X11412Y33550D01*
G01X11430Y33570D01*
G01X12381Y34522D01*
G01X12401Y34539D01*
G01X12422Y34554D01*
G01X12445Y34566D01*
G01X12470Y34575D01*
G01X12495Y34581D01*
G01X12521Y34585D01*
G01X12547Y34585D01*
G01X12573Y34581D01*
G01X12598Y34575D01*
G01X12623Y34566D01*
G01X12646Y34554D01*
G01X12667Y34539D01*
G01X12687Y34522D01*
G37*
G36*
G01X10998Y36210D02*
G01X11016Y36190D01*
G01X11030Y36169D01*
G01X11043Y36146D01*
G01X11052Y36122D01*
G01X11058Y36096D01*
G01X11061Y36070D01*
G01X11061Y36044D01*
G01X11058Y36018D01*
G01X11052Y35993D01*
G01X11043Y35969D01*
G01X11030Y35945D01*
G01X11016Y35924D01*
G01X10998Y35905D01*
G01X10046Y34953D01*
G01X10027Y34935D01*
G01X10006Y34921D01*
G01X9982Y34908D01*
G01X9958Y34899D01*
G01X9933Y34893D01*
G01X9907Y34890D01*
G01X9881Y34890D01*
G01X9855Y34893D01*
G01X9830Y34899D01*
G01X9805Y34908D01*
G01X9782Y34921D01*
G01X9761Y34935D01*
G01X9741Y34953D01*
G01X9724Y34972D01*
G01X9709Y34994D01*
G01X9697Y35017D01*
G01X9688Y35041D01*
G01X9681Y35066D01*
G01X9678Y35092D01*
G01X9678Y35118D01*
G01X9681Y35144D01*
G01X9688Y35170D01*
G01X9697Y35194D01*
G01X9709Y35217D01*
G01X9724Y35239D01*
G01X9741Y35258D01*
G01X10693Y36210D01*
G01X10712Y36227D01*
G01X10734Y36242D01*
G01X10757Y36254D01*
G01X10782Y36263D01*
G01X10807Y36270D01*
G01X10833Y36273D01*
G01X10859Y36273D01*
G01X10885Y36270D01*
G01X10910Y36263D01*
G01X10934Y36254D01*
G01X10957Y36242D01*
G01X10979Y36227D01*
G01X10998Y36210D01*
G37*
G36*
G01X9867Y37341D02*
G01X9884Y37322D01*
G01X9899Y37301D01*
G01X9911Y37277D01*
G01X9920Y37253D01*
G01X9927Y37228D01*
G01X9930Y37202D01*
G01X9930Y37176D01*
G01X9927Y37150D01*
G01X9920Y37125D01*
G01X9911Y37100D01*
G01X9899Y37077D01*
G01X9884Y37056D01*
G01X9867Y37036D01*
G01X8915Y36084D01*
G01X8895Y36067D01*
G01X8874Y36052D01*
G01X8851Y36040D01*
G01X8827Y36031D01*
G01X8801Y36024D01*
G01X8775Y36021D01*
G01X8749Y36021D01*
G01X8723Y36024D01*
G01X8698Y36031D01*
G01X8674Y36040D01*
G01X8650Y36052D01*
G01X8629Y36067D01*
G01X8610Y36084D01*
G01X8592Y36104D01*
G01X8578Y36125D01*
G01X8565Y36148D01*
G01X8556Y36173D01*
G01X8550Y36198D01*
G01X8547Y36224D01*
G01X8547Y36250D01*
G01X8550Y36276D01*
G01X8556Y36301D01*
G01X8565Y36325D01*
G01X8578Y36349D01*
G01X8592Y36370D01*
G01X8610Y36389D01*
G01X9562Y37341D01*
G01X9581Y37359D01*
G01X9602Y37373D01*
G01X9626Y37386D01*
G01X9650Y37395D01*
G01X9675Y37401D01*
G01X9701Y37404D01*
G01X9727Y37404D01*
G01X9753Y37401D01*
G01X9779Y37395D01*
G01X9803Y37386D01*
G01X9826Y37373D01*
G01X9847Y37359D01*
G01X9867Y37341D01*
G37*
G36*
G01X8621Y39041D02*
G01X8640Y39058D01*
G01X8662Y39073D01*
G01X8685Y39085D01*
G01X8709Y39094D01*
G01X8735Y39100D01*
G01X8760Y39104D01*
G01X8786Y39104D01*
G01X8812Y39100D01*
G01X8838Y39094D01*
G01X8862Y39085D01*
G01X8885Y39073D01*
G01X8907Y39058D01*
G01X8926Y39041D01*
G01X9878Y38089D01*
G01X9895Y38069D01*
G01X9910Y38048D01*
G01X9922Y38025D01*
G01X9931Y38001D01*
G01X9938Y37975D01*
G01X9941Y37949D01*
G01X9941Y37923D01*
G01X9938Y37897D01*
G01X9931Y37872D01*
G01X9922Y37848D01*
G01X9910Y37825D01*
G01X9895Y37803D01*
G01X9878Y37784D01*
G01X9859Y37766D01*
G01X9837Y37751D01*
G01X9814Y37739D01*
G01X9789Y37730D01*
G01X9764Y37724D01*
G01X9738Y37721D01*
G01X9712Y37721D01*
G01X9686Y37724D01*
G01X9661Y37730D01*
G01X9637Y37739D01*
G01X9614Y37751D01*
G01X9592Y37766D01*
G01X9573Y37784D01*
G01X8621Y38735D01*
G01X8603Y38755D01*
G01X8589Y38777D01*
G01X8577Y38799D01*
G01X8567Y38824D01*
G01X8561Y38849D01*
G01X8558Y38875D01*
G01X8558Y38901D01*
G01X8561Y38927D01*
G01X8567Y38952D01*
G01X8577Y38977D01*
G01X8589Y39000D01*
G01X8603Y39021D01*
G01X8621Y39041D01*
G37*
G36*
G01X9186Y39606D02*
G01X9206Y39623D01*
G01X9227Y39638D01*
G01X9250Y39650D01*
G01X9275Y39660D01*
G01X9300Y39666D01*
G01X9326Y39669D01*
G01X9352Y39669D01*
G01X9378Y39666D01*
G01X9403Y39660D01*
G01X9427Y39650D01*
G01X9451Y39638D01*
G01X9472Y39623D01*
G01X9491Y39606D01*
G01X10443Y38654D01*
G01X10461Y38635D01*
G01X10475Y38613D01*
G01X10488Y38590D01*
G01X10497Y38566D01*
G01X10503Y38541D01*
G01X10506Y38515D01*
G01X10506Y38489D01*
G01X10503Y38463D01*
G01X10497Y38437D01*
G01X10488Y38413D01*
G01X10475Y38390D01*
G01X10461Y38368D01*
G01X10443Y38349D01*
G01X10424Y38332D01*
G01X10402Y38317D01*
G01X10379Y38305D01*
G01X10355Y38295D01*
G01X10330Y38289D01*
G01X10304Y38286D01*
G01X10278Y38286D01*
G01X10252Y38289D01*
G01X10227Y38295D01*
G01X10202Y38305D01*
G01X10179Y38317D01*
G01X10157Y38332D01*
G01X10138Y38349D01*
G01X9186Y39301D01*
G01X9169Y39320D01*
G01X9154Y39342D01*
G01X9142Y39365D01*
G01X9133Y39389D01*
G01X9126Y39415D01*
G01X9123Y39441D01*
G01X9123Y39467D01*
G01X9126Y39493D01*
G01X9133Y39518D01*
G01X9142Y39542D01*
G01X9154Y39565D01*
G01X9169Y39587D01*
G01X9186Y39606D01*
G37*
G36*
G01X9752Y40172D02*
G01X9771Y40189D01*
G01X9792Y40204D01*
G01X9816Y40216D01*
G01X9840Y40225D01*
G01X9865Y40231D01*
G01X9891Y40235D01*
G01X9917Y40235D01*
G01X9943Y40231D01*
G01X9968Y40225D01*
G01X9993Y40216D01*
G01X10016Y40204D01*
G01X10037Y40189D01*
G01X10057Y40172D01*
G01X11009Y39220D01*
G01X11026Y39200D01*
G01X11041Y39179D01*
G01X11053Y39156D01*
G01X11062Y39131D01*
G01X11068Y39106D01*
G01X11072Y39080D01*
G01X11072Y39054D01*
G01X11068Y39028D01*
G01X11062Y39003D01*
G01X11053Y38978D01*
G01X11041Y38955D01*
G01X11026Y38934D01*
G01X11009Y38914D01*
G01X10989Y38897D01*
G01X10968Y38882D01*
G01X10945Y38870D01*
G01X10920Y38861D01*
G01X10895Y38855D01*
G01X10869Y38851D01*
G01X10843Y38851D01*
G01X10817Y38855D01*
G01X10792Y38861D01*
G01X10768Y38870D01*
G01X10744Y38882D01*
G01X10723Y38897D01*
G01X10703Y38914D01*
G01X9752Y39866D01*
G01X9734Y39886D01*
G01X9719Y39907D01*
G01X9707Y39930D01*
G01X9698Y39955D01*
G01X9692Y39980D01*
G01X9689Y40006D01*
G01X9689Y40032D01*
G01X9692Y40058D01*
G01X9698Y40083D01*
G01X9707Y40108D01*
G01X9719Y40131D01*
G01X9734Y40152D01*
G01X9752Y40172D01*
G37*
G36*
G01X10317Y40737D02*
G01X10337Y40754D01*
G01X10358Y40769D01*
G01X10381Y40781D01*
G01X10406Y40791D01*
G01X10431Y40797D01*
G01X10457Y40800D01*
G01X10483Y40800D01*
G01X10509Y40797D01*
G01X10534Y40791D01*
G01X10558Y40781D01*
G01X10581Y40769D01*
G01X10603Y40754D01*
G01X10623Y40737D01*
G01X11574Y39785D01*
G01X11592Y39766D01*
G01X11607Y39744D01*
G01X11618Y39721D01*
G01X11628Y39697D01*
G01X11634Y39672D01*
G01X11637Y39646D01*
G01X11637Y39620D01*
G01X11634Y39594D01*
G01X11628Y39569D01*
G01X11618Y39544D01*
G01X11607Y39521D01*
G01X11592Y39499D01*
G01X11574Y39480D01*
G01X11555Y39463D01*
G01X11533Y39448D01*
G01X11510Y39436D01*
G01X11486Y39427D01*
G01X11460Y39420D01*
G01X11435Y39417D01*
G01X11409Y39417D01*
G01X11383Y39420D01*
G01X11357Y39427D01*
G01X11333Y39436D01*
G01X11310Y39448D01*
G01X11289Y39463D01*
G01X11269Y39480D01*
G01X10317Y40432D01*
G01X10300Y40451D01*
G01X10285Y40473D01*
G01X10273Y40496D01*
G01X10264Y40520D01*
G01X10258Y40546D01*
G01X10254Y40572D01*
G01X10254Y40597D01*
G01X10258Y40623D01*
G01X10264Y40649D01*
G01X10273Y40673D01*
G01X10285Y40696D01*
G01X10300Y40718D01*
G01X10317Y40737D01*
G37*
G36*
G01X10883Y41303D02*
G01X10902Y41320D01*
G01X10924Y41335D01*
G01X10947Y41347D01*
G01X10971Y41356D01*
G01X10996Y41362D01*
G01X11022Y41366D01*
G01X11048Y41366D01*
G01X11074Y41362D01*
G01X11099Y41356D01*
G01X11124Y41347D01*
G01X11147Y41335D01*
G01X11168Y41320D01*
G01X11188Y41303D01*
G01X12140Y40351D01*
G01X12157Y40331D01*
G01X12172Y40310D01*
G01X12184Y40287D01*
G01X12193Y40262D01*
G01X12199Y40237D01*
G01X12203Y40211D01*
G01X12203Y40185D01*
G01X12199Y40159D01*
G01X12193Y40134D01*
G01X12184Y40110D01*
G01X12172Y40086D01*
G01X12157Y40065D01*
G01X12140Y40045D01*
G01X12120Y40028D01*
G01X12099Y40013D01*
G01X12076Y40001D01*
G01X12051Y39992D01*
G01X12026Y39986D01*
G01X12000Y39983D01*
G01X11974Y39983D01*
G01X11948Y39986D01*
G01X11923Y39992D01*
G01X11898Y40001D01*
G01X11876Y40013D01*
G01X11854Y40028D01*
G01X11834Y40045D01*
G01X10883Y40997D01*
G01X10865Y41017D01*
G01X10850Y41038D01*
G01X10838Y41061D01*
G01X10829Y41086D01*
G01X10823Y41111D01*
G01X10820Y41137D01*
G01X10820Y41163D01*
G01X10823Y41189D01*
G01X10829Y41214D01*
G01X10838Y41239D01*
G01X10850Y41262D01*
G01X10865Y41283D01*
G01X10883Y41303D01*
G37*
G36*
G01X12013Y42434D02*
G01X12033Y42451D01*
G01X12054Y42466D01*
G01X12077Y42478D01*
G01X12102Y42487D01*
G01X12127Y42493D01*
G01X12153Y42496D01*
G01X12179Y42496D01*
G01X12205Y42493D01*
G01X12230Y42487D01*
G01X12255Y42478D01*
G01X12278Y42466D01*
G01X12299Y42451D01*
G01X12319Y42434D01*
G01X13271Y41482D01*
G01X13288Y41462D01*
G01X13303Y41441D01*
G01X13315Y41418D01*
G01X13324Y41393D01*
G01X13330Y41368D01*
G01X13333Y41342D01*
G01X13333Y41316D01*
G01X13330Y41290D01*
G01X13324Y41265D01*
G01X13315Y41240D01*
G01X13303Y41217D01*
G01X13288Y41196D01*
G01X13271Y41176D01*
G01X13251Y41159D01*
G01X13230Y41144D01*
G01X13207Y41132D01*
G01X13182Y41123D01*
G01X13157Y41117D01*
G01X13131Y41114D01*
G01X13105Y41114D01*
G01X13079Y41117D01*
G01X13054Y41123D01*
G01X13029Y41132D01*
G01X13006Y41144D01*
G01X12985Y41159D01*
G01X12965Y41176D01*
G01X12013Y42128D01*
G01X11996Y42148D01*
G01X11981Y42169D01*
G01X11969Y42192D01*
G01X11960Y42217D01*
G01X11954Y42242D01*
G01X11951Y42268D01*
G01X11951Y42294D01*
G01X11954Y42320D01*
G01X11960Y42345D01*
G01X11969Y42370D01*
G01X11981Y42393D01*
G01X11996Y42414D01*
G01X12013Y42434D01*
G37*
G36*
G01X11448Y41868D02*
G01X11467Y41885D01*
G01X11489Y41900D01*
G01X11512Y41912D01*
G01X11536Y41922D01*
G01X11562Y41928D01*
G01X11587Y41931D01*
G01X11614Y41931D01*
G01X11640Y41928D01*
G01X11665Y41922D01*
G01X11689Y41912D01*
G01X11712Y41900D01*
G01X11734Y41885D01*
G01X11753Y41868D01*
G01X12705Y40916D01*
G01X12722Y40897D01*
G01X12737Y40875D01*
G01X12749Y40852D01*
G01X12759Y40828D01*
G01X12765Y40802D01*
G01X12768Y40777D01*
G01X12768Y40750D01*
G01X12765Y40724D01*
G01X12759Y40699D01*
G01X12749Y40675D01*
G01X12737Y40652D01*
G01X12722Y40630D01*
G01X12705Y40611D01*
G01X12686Y40593D01*
G01X12664Y40579D01*
G01X12641Y40567D01*
G01X12617Y40557D01*
G01X12591Y40551D01*
G01X12566Y40548D01*
G01X12539Y40548D01*
G01X12514Y40551D01*
G01X12488Y40557D01*
G01X12464Y40567D01*
G01X12441Y40579D01*
G01X12419Y40593D01*
G01X12400Y40611D01*
G01X11448Y41563D01*
G01X11431Y41582D01*
G01X11416Y41604D01*
G01X11404Y41627D01*
G01X11394Y41651D01*
G01X11388Y41676D01*
G01X11385Y41702D01*
G01X11385Y41728D01*
G01X11388Y41754D01*
G01X11394Y41780D01*
G01X11404Y41804D01*
G01X11416Y41827D01*
G01X11431Y41848D01*
G01X11448Y41868D01*
G37*
G36*
G01X12579Y42999D02*
G01X12598Y43016D01*
G01X12620Y43031D01*
G01X12643Y43043D01*
G01X12667Y43052D01*
G01X12693Y43059D01*
G01X12719Y43062D01*
G01X12744Y43062D01*
G01X12770Y43059D01*
G01X12796Y43052D01*
G01X12820Y43043D01*
G01X12843Y43031D01*
G01X12865Y43016D01*
G01X12884Y42999D01*
G01X13836Y42047D01*
G01X13853Y42028D01*
G01X13868Y42006D01*
G01X13880Y41983D01*
G01X13889Y41959D01*
G01X13896Y41933D01*
G01X13899Y41907D01*
G01X13899Y41881D01*
G01X13896Y41856D01*
G01X13889Y41830D01*
G01X13880Y41806D01*
G01X13868Y41783D01*
G01X13853Y41761D01*
G01X13836Y41742D01*
G01X13817Y41724D01*
G01X13795Y41710D01*
G01X13772Y41698D01*
G01X13748Y41688D01*
G01X13722Y41682D01*
G01X13696Y41679D01*
G01X13670Y41679D01*
G01X13645Y41682D01*
G01X13619Y41688D01*
G01X13595Y41698D01*
G01X13572Y41710D01*
G01X13550Y41724D01*
G01X13531Y41742D01*
G01X12579Y42694D01*
G01X12562Y42713D01*
G01X12547Y42735D01*
G01X12535Y42758D01*
G01X12526Y42782D01*
G01X12519Y42807D01*
G01X12516Y42833D01*
G01X12516Y42859D01*
G01X12519Y42885D01*
G01X12526Y42911D01*
G01X12535Y42935D01*
G01X12547Y42958D01*
G01X12562Y42980D01*
G01X12579Y42999D01*
G37*
G36*
G01X14841Y33952D02*
G01X14860Y33969D01*
G01X14882Y33984D01*
G01X14905Y33996D01*
G01X14929Y34005D01*
G01X14954Y34012D01*
G01X14980Y34015D01*
G01X15006Y34015D01*
G01X15032Y34012D01*
G01X15058Y34005D01*
G01X15082Y33996D01*
G01X15105Y33984D01*
G01X15126Y33969D01*
G01X15146Y33952D01*
G01X16098Y33000D01*
G01X16115Y32980D01*
G01X16130Y32959D01*
G01X16142Y32936D01*
G01X16151Y32911D01*
G01X16157Y32886D01*
G01X16161Y32860D01*
G01X16161Y32834D01*
G01X16157Y32808D01*
G01X16151Y32783D01*
G01X16142Y32759D01*
G01X16130Y32735D01*
G01X16115Y32714D01*
G01X16098Y32695D01*
G01X16078Y32677D01*
G01X16057Y32662D01*
G01X16034Y32650D01*
G01X16009Y32641D01*
G01X15984Y32635D01*
G01X15958Y32632D01*
G01X15932Y32632D01*
G01X15906Y32635D01*
G01X15881Y32641D01*
G01X15856Y32650D01*
G01X15834Y32662D01*
G01X15812Y32677D01*
G01X15792Y32695D01*
G01X14841Y33646D01*
G01X14823Y33666D01*
G01X14808Y33687D01*
G01X14797Y33711D01*
G01X14787Y33735D01*
G01X14781Y33760D01*
G01X14778Y33786D01*
G01X14778Y33812D01*
G01X14781Y33838D01*
G01X14787Y33863D01*
G01X14797Y33888D01*
G01X14808Y33911D01*
G01X14823Y33932D01*
G01X14841Y33952D01*
G37*
G36*
G01X15406Y34517D02*
G01X15425Y34535D01*
G01X15447Y34549D01*
G01X15470Y34561D01*
G01X15495Y34571D01*
G01X15520Y34577D01*
G01X15546Y34580D01*
G01X15572Y34580D01*
G01X15598Y34577D01*
G01X15623Y34571D01*
G01X15647Y34561D01*
G01X15670Y34549D01*
G01X15692Y34535D01*
G01X15711Y34517D01*
G01X16663Y33565D01*
G01X16680Y33546D01*
G01X16695Y33524D01*
G01X16707Y33501D01*
G01X16717Y33477D01*
G01X16723Y33451D01*
G01X16726Y33426D01*
G01X16726Y33399D01*
G01X16723Y33374D01*
G01X16717Y33348D01*
G01X16707Y33324D01*
G01X16695Y33301D01*
G01X16680Y33279D01*
G01X16663Y33260D01*
G01X16644Y33243D01*
G01X16622Y33228D01*
G01X16599Y33216D01*
G01X16575Y33206D01*
G01X16549Y33200D01*
G01X16524Y33197D01*
G01X16498Y33197D01*
G01X16472Y33200D01*
G01X16446Y33206D01*
G01X16422Y33216D01*
G01X16399Y33228D01*
G01X16377Y33243D01*
G01X16358Y33260D01*
G01X15406Y34212D01*
G01X15389Y34231D01*
G01X15374Y34253D01*
G01X15362Y34276D01*
G01X15353Y34300D01*
G01X15346Y34325D01*
G01X15343Y34351D01*
G01X15343Y34378D01*
G01X15346Y34403D01*
G01X15353Y34429D01*
G01X15362Y34453D01*
G01X15374Y34476D01*
G01X15389Y34498D01*
G01X15406Y34517D01*
G37*
G36*
G01X14285Y33390D02*
G01X14305Y33408D01*
G01X14326Y33422D01*
G01X14349Y33434D01*
G01X14374Y33444D01*
G01X14399Y33450D01*
G01X14425Y33453D01*
G01X14451Y33453D01*
G01X14477Y33450D01*
G01X14502Y33444D01*
G01X14526Y33434D01*
G01X14549Y33422D01*
G01X14571Y33408D01*
G01X14591Y33390D01*
G01X15542Y32438D01*
G01X15560Y32419D01*
G01X15575Y32397D01*
G01X15586Y32374D01*
G01X15596Y32350D01*
G01X15602Y32324D01*
G01X15605Y32299D01*
G01X15605Y32273D01*
G01X15602Y32247D01*
G01X15596Y32221D01*
G01X15586Y32197D01*
G01X15575Y32174D01*
G01X15560Y32152D01*
G01X15542Y32133D01*
G01X15523Y32116D01*
G01X15501Y32101D01*
G01X15478Y32089D01*
G01X15454Y32079D01*
G01X15428Y32073D01*
G01X15403Y32070D01*
G01X15377Y32070D01*
G01X15351Y32073D01*
G01X15325Y32079D01*
G01X15301Y32089D01*
G01X15278Y32101D01*
G01X15257Y32116D01*
G01X15237Y32133D01*
G01X14285Y33085D01*
G01X14268Y33104D01*
G01X14253Y33126D01*
G01X14241Y33149D01*
G01X14232Y33173D01*
G01X14226Y33198D01*
G01X14222Y33224D01*
G01X14222Y33251D01*
G01X14226Y33276D01*
G01X14232Y33302D01*
G01X14241Y33326D01*
G01X14253Y33349D01*
G01X14268Y33371D01*
G01X14285Y33390D01*
G37*
G36*
G01X12130Y35078D02*
G01X12147Y35059D01*
G01X12162Y35037D01*
G01X12174Y35014D01*
G01X12183Y34990D01*
G01X12189Y34965D01*
G01X12193Y34939D01*
G01X12193Y34913D01*
G01X12189Y34887D01*
G01X12183Y34861D01*
G01X12174Y34837D01*
G01X12162Y34814D01*
G01X12147Y34793D01*
G01X12130Y34773D01*
G01X11178Y33821D01*
G01X11158Y33804D01*
G01X11137Y33789D01*
G01X11114Y33777D01*
G01X11089Y33768D01*
G01X11064Y33762D01*
G01X11038Y33758D01*
G01X11012Y33758D01*
G01X10986Y33762D01*
G01X10961Y33768D01*
G01X10937Y33777D01*
G01X10914Y33789D01*
G01X10892Y33804D01*
G01X10873Y33821D01*
G01X10855Y33841D01*
G01X10840Y33862D01*
G01X10828Y33885D01*
G01X10819Y33910D01*
G01X10813Y33935D01*
G01X10810Y33961D01*
G01X10810Y33987D01*
G01X10813Y34013D01*
G01X10819Y34038D01*
G01X10828Y34063D01*
G01X10840Y34085D01*
G01X10855Y34107D01*
G01X10873Y34127D01*
G01X11824Y35078D01*
G01X11844Y35096D01*
G01X11866Y35111D01*
G01X11888Y35123D01*
G01X11913Y35132D01*
G01X11938Y35138D01*
G01X11964Y35141D01*
G01X11990Y35141D01*
G01X12016Y35138D01*
G01X12041Y35132D01*
G01X12066Y35123D01*
G01X12089Y35111D01*
G01X12110Y35096D01*
G01X12130Y35078D01*
G37*
G36*
G01X10442Y36767D02*
G01X10459Y36747D01*
G01X10474Y36726D01*
G01X10486Y36703D01*
G01X10495Y36678D01*
G01X10501Y36653D01*
G01X10504Y36627D01*
G01X10504Y36601D01*
G01X10501Y36575D01*
G01X10495Y36550D01*
G01X10486Y36525D01*
G01X10474Y36502D01*
G01X10459Y36481D01*
G01X10442Y36461D01*
G01X9490Y35509D01*
G01X9470Y35492D01*
G01X9449Y35477D01*
G01X9426Y35465D01*
G01X9401Y35456D01*
G01X9376Y35450D01*
G01X9350Y35447D01*
G01X9324Y35447D01*
G01X9298Y35450D01*
G01X9273Y35456D01*
G01X9248Y35465D01*
G01X9225Y35477D01*
G01X9204Y35492D01*
G01X9184Y35509D01*
G01X9167Y35529D01*
G01X9152Y35551D01*
G01X9140Y35574D01*
G01X9131Y35598D01*
G01X9125Y35623D01*
G01X9121Y35649D01*
G01X9121Y35675D01*
G01X9125Y35701D01*
G01X9131Y35726D01*
G01X9140Y35751D01*
G01X9152Y35774D01*
G01X9167Y35795D01*
G01X9184Y35815D01*
G01X10136Y36767D01*
G01X10156Y36784D01*
G01X10177Y36799D01*
G01X10200Y36811D01*
G01X10225Y36820D01*
G01X10250Y36826D01*
G01X10276Y36830D01*
G01X10302Y36830D01*
G01X10328Y36826D01*
G01X10353Y36820D01*
G01X10377Y36811D01*
G01X10401Y36799D01*
G01X10422Y36784D01*
G01X10442Y36767D01*
G37*
G36*
G01X11573Y35635D02*
G01X11590Y35616D01*
G01X11605Y35594D01*
G01X11617Y35571D01*
G01X11627Y35547D01*
G01X11633Y35522D01*
G01X11636Y35496D01*
G01X11636Y35469D01*
G01X11633Y35444D01*
G01X11627Y35418D01*
G01X11617Y35394D01*
G01X11605Y35371D01*
G01X11590Y35349D01*
G01X11573Y35330D01*
G01X10621Y34378D01*
G01X10602Y34361D01*
G01X10580Y34346D01*
G01X10557Y34334D01*
G01X10533Y34324D01*
G01X10507Y34318D01*
G01X10482Y34315D01*
G01X10455Y34315D01*
G01X10430Y34318D01*
G01X10404Y34324D01*
G01X10380Y34334D01*
G01X10357Y34346D01*
G01X10335Y34361D01*
G01X10316Y34378D01*
G01X10298Y34397D01*
G01X10284Y34419D01*
G01X10272Y34442D01*
G01X10262Y34466D01*
G01X10256Y34492D01*
G01X10253Y34517D01*
G01X10253Y34544D01*
G01X10256Y34570D01*
G01X10262Y34595D01*
G01X10272Y34619D01*
G01X10284Y34642D01*
G01X10298Y34664D01*
G01X10316Y34683D01*
G01X11268Y35635D01*
G01X11287Y35652D01*
G01X11309Y35667D01*
G01X11332Y35679D01*
G01X11356Y35689D01*
G01X11381Y35695D01*
G01X11407Y35698D01*
G01X11434Y35698D01*
G01X11459Y35695D01*
G01X11485Y35689D01*
G01X11509Y35679D01*
G01X11532Y35667D01*
G01X11553Y35652D01*
G01X11573Y35635D01*
G37*
G36*
G01X13827Y33369D02*
G01X13845Y33350D01*
G01X13859Y33328D01*
G01X13871Y33305D01*
G01X13881Y33281D01*
G01X13887Y33256D01*
G01X13890Y33230D01*
G01X13890Y33204D01*
G01X13887Y33178D01*
G01X13881Y33152D01*
G01X13871Y33128D01*
G01X13859Y33105D01*
G01X13845Y33083D01*
G01X13827Y33064D01*
G01X12875Y32112D01*
G01X12856Y32095D01*
G01X12834Y32080D01*
G01X12811Y32068D01*
G01X12787Y32059D01*
G01X12761Y32052D01*
G01X12736Y32049D01*
G01X12709Y32049D01*
G01X12684Y32052D01*
G01X12658Y32059D01*
G01X12634Y32068D01*
G01X12611Y32080D01*
G01X12590Y32095D01*
G01X12570Y32112D01*
G01X12553Y32132D01*
G01X12538Y32153D01*
G01X12526Y32176D01*
G01X12516Y32201D01*
G01X12510Y32226D01*
G01X12507Y32252D01*
G01X12507Y32278D01*
G01X12510Y32304D01*
G01X12516Y32329D01*
G01X12526Y32353D01*
G01X12538Y32376D01*
G01X12553Y32398D01*
G01X12570Y32417D01*
G01X13522Y33369D01*
G01X13541Y33387D01*
G01X13563Y33401D01*
G01X13586Y33414D01*
G01X13610Y33423D01*
G01X13635Y33429D01*
G01X13661Y33432D01*
G01X13688Y33432D01*
G01X13713Y33429D01*
G01X13739Y33423D01*
G01X13763Y33414D01*
G01X13786Y33401D01*
G01X13808Y33387D01*
G01X13827Y33369D01*
G37*
G36*
G01X16537Y35648D02*
G01X16556Y35665D01*
G01X16578Y35680D01*
G01X16601Y35692D01*
G01X16626Y35702D01*
G01X16651Y35708D01*
G01X16677Y35711D01*
G01X16703Y35711D01*
G01X16729Y35708D01*
G01X16754Y35702D01*
G01X16778Y35692D01*
G01X16801Y35680D01*
G01X16823Y35665D01*
G01X16842Y35648D01*
G01X17794Y34696D01*
G01X17812Y34677D01*
G01X17826Y34655D01*
G01X17838Y34632D01*
G01X17848Y34608D01*
G01X17854Y34583D01*
G01X17857Y34557D01*
G01X17857Y34530D01*
G01X17854Y34505D01*
G01X17848Y34479D01*
G01X17838Y34455D01*
G01X17826Y34432D01*
G01X17812Y34410D01*
G01X17794Y34391D01*
G01X17775Y34374D01*
G01X17753Y34359D01*
G01X17730Y34347D01*
G01X17706Y34337D01*
G01X17680Y34331D01*
G01X17655Y34328D01*
G01X17629Y34328D01*
G01X17603Y34331D01*
G01X17577Y34337D01*
G01X17553Y34347D01*
G01X17530Y34359D01*
G01X17508Y34374D01*
G01X17489Y34391D01*
G01X16537Y35343D01*
G01X16520Y35362D01*
G01X16505Y35384D01*
G01X16493Y35407D01*
G01X16484Y35431D01*
G01X16477Y35457D01*
G01X16474Y35482D01*
G01X16474Y35509D01*
G01X16477Y35535D01*
G01X16484Y35560D01*
G01X16493Y35584D01*
G01X16505Y35607D01*
G01X16520Y35629D01*
G01X16537Y35648D01*
G37*
G36*
G01X17102Y36213D02*
G01X17122Y36231D01*
G01X17143Y36246D01*
G01X17167Y36258D01*
G01X17191Y36267D01*
G01X17216Y36273D01*
G01X17242Y36276D01*
G01X17268Y36276D01*
G01X17294Y36273D01*
G01X17319Y36267D01*
G01X17344Y36258D01*
G01X17367Y36246D01*
G01X17388Y36231D01*
G01X17408Y36213D01*
G01X18360Y35262D01*
G01X18377Y35242D01*
G01X18392Y35221D01*
G01X18404Y35197D01*
G01X18413Y35173D01*
G01X18419Y35148D01*
G01X18423Y35122D01*
G01X18423Y35096D01*
G01X18419Y35070D01*
G01X18413Y35045D01*
G01X18404Y35020D01*
G01X18392Y34997D01*
G01X18377Y34976D01*
G01X18360Y34956D01*
G01X18340Y34939D01*
G01X18319Y34924D01*
G01X18296Y34912D01*
G01X18271Y34903D01*
G01X18246Y34897D01*
G01X18220Y34893D01*
G01X18194Y34893D01*
G01X18168Y34897D01*
G01X18143Y34903D01*
G01X18118Y34912D01*
G01X18095Y34924D01*
G01X18074Y34939D01*
G01X18054Y34956D01*
G01X17102Y35908D01*
G01X17085Y35928D01*
G01X17070Y35949D01*
G01X17058Y35972D01*
G01X17049Y35997D01*
G01X17043Y36022D01*
G01X17040Y36048D01*
G01X17040Y36074D01*
G01X17043Y36100D01*
G01X17049Y36125D01*
G01X17058Y36149D01*
G01X17070Y36173D01*
G01X17085Y36194D01*
G01X17102Y36213D01*
G37*
G36*
G01X17669Y36780D02*
G01X17688Y36797D01*
G01X17709Y36812D01*
G01X17733Y36824D01*
G01X17757Y36833D01*
G01X17782Y36839D01*
G01X17808Y36843D01*
G01X17834Y36843D01*
G01X17860Y36839D01*
G01X17885Y36833D01*
G01X17910Y36824D01*
G01X17933Y36812D01*
G01X17954Y36797D01*
G01X17974Y36780D01*
G01X18926Y35828D01*
G01X18943Y35808D01*
G01X18958Y35787D01*
G01X18970Y35764D01*
G01X18979Y35739D01*
G01X18985Y35714D01*
G01X18989Y35688D01*
G01X18989Y35662D01*
G01X18985Y35636D01*
G01X18979Y35611D01*
G01X18970Y35587D01*
G01X18958Y35563D01*
G01X18943Y35542D01*
G01X18926Y35522D01*
G01X18906Y35505D01*
G01X18885Y35490D01*
G01X18862Y35478D01*
G01X18837Y35469D01*
G01X18812Y35463D01*
G01X18786Y35460D01*
G01X18760Y35460D01*
G01X18734Y35463D01*
G01X18709Y35469D01*
G01X18685Y35478D01*
G01X18661Y35490D01*
G01X18640Y35505D01*
G01X18620Y35522D01*
G01X17669Y36474D01*
G01X17651Y36494D01*
G01X17636Y36515D01*
G01X17624Y36538D01*
G01X17615Y36563D01*
G01X17609Y36588D01*
G01X17606Y36614D01*
G01X17606Y36640D01*
G01X17609Y36666D01*
G01X17615Y36691D01*
G01X17624Y36716D01*
G01X17636Y36739D01*
G01X17651Y36760D01*
G01X17669Y36780D01*
G37*
G36*
G01X15972Y35083D02*
G01X15991Y35100D01*
G01X16013Y35115D01*
G01X16036Y35127D01*
G01X16060Y35136D01*
G01X16085Y35142D01*
G01X16111Y35146D01*
G01X16137Y35146D01*
G01X16163Y35142D01*
G01X16188Y35136D01*
G01X16213Y35127D01*
G01X16236Y35115D01*
G01X16258Y35100D01*
G01X16277Y35083D01*
G01X17229Y34131D01*
G01X17246Y34111D01*
G01X17261Y34090D01*
G01X17273Y34067D01*
G01X17282Y34043D01*
G01X17289Y34017D01*
G01X17292Y33991D01*
G01X17292Y33965D01*
G01X17289Y33939D01*
G01X17282Y33914D01*
G01X17273Y33890D01*
G01X17261Y33866D01*
G01X17246Y33845D01*
G01X17229Y33826D01*
G01X17209Y33808D01*
G01X17188Y33793D01*
G01X17165Y33781D01*
G01X17140Y33772D01*
G01X17115Y33766D01*
G01X17089Y33763D01*
G01X17063Y33763D01*
G01X17037Y33766D01*
G01X17012Y33772D01*
G01X16988Y33781D01*
G01X16964Y33793D01*
G01X16943Y33808D01*
G01X16924Y33826D01*
G01X15972Y34777D01*
G01X15954Y34797D01*
G01X15940Y34818D01*
G01X15927Y34841D01*
G01X15918Y34866D01*
G01X15912Y34891D01*
G01X15909Y34917D01*
G01X15909Y34943D01*
G01X15912Y34969D01*
G01X15918Y34994D01*
G01X15927Y35019D01*
G01X15940Y35042D01*
G01X15954Y35063D01*
G01X15972Y35083D01*
G37*
G36*
G01X18233Y37345D02*
G01X18253Y37362D01*
G01X18274Y37377D01*
G01X18297Y37389D01*
G01X18322Y37398D01*
G01X18347Y37404D01*
G01X18373Y37407D01*
G01X18399Y37407D01*
G01X18425Y37404D01*
G01X18450Y37398D01*
G01X18475Y37389D01*
G01X18498Y37377D01*
G01X18519Y37362D01*
G01X18539Y37345D01*
G01X19491Y36393D01*
G01X19508Y36373D01*
G01X19523Y36352D01*
G01X19535Y36329D01*
G01X19544Y36304D01*
G01X19550Y36279D01*
G01X19553Y36253D01*
G01X19553Y36227D01*
G01X19550Y36201D01*
G01X19544Y36176D01*
G01X19535Y36151D01*
G01X19523Y36128D01*
G01X19508Y36107D01*
G01X19491Y36087D01*
G01X19471Y36070D01*
G01X19450Y36055D01*
G01X19426Y36043D01*
G01X19402Y36034D01*
G01X19377Y36028D01*
G01X19351Y36024D01*
G01X19325Y36024D01*
G01X19299Y36028D01*
G01X19274Y36034D01*
G01X19249Y36043D01*
G01X19226Y36055D01*
G01X19205Y36070D01*
G01X19185Y36087D01*
G01X18233Y37039D01*
G01X18216Y37059D01*
G01X18201Y37080D01*
G01X18189Y37103D01*
G01X18180Y37128D01*
G01X18174Y37153D01*
G01X18171Y37179D01*
G01X18171Y37205D01*
G01X18174Y37231D01*
G01X18180Y37256D01*
G01X18189Y37281D01*
G01X18201Y37304D01*
G01X18216Y37325D01*
G01X18233Y37345D01*
G37*
G36*
G01X19494Y39030D02*
G01X19511Y39010D01*
G01X19526Y38989D01*
G01X19538Y38966D01*
G01X19547Y38941D01*
G01X19553Y38916D01*
G01X19556Y38890D01*
G01X19556Y38864D01*
G01X19553Y38838D01*
G01X19547Y38813D01*
G01X19538Y38789D01*
G01X19526Y38765D01*
G01X19511Y38744D01*
G01X19494Y38724D01*
G01X18542Y37773D01*
G01X18522Y37755D01*
G01X18501Y37740D01*
G01X18478Y37728D01*
G01X18453Y37719D01*
G01X18428Y37713D01*
G01X18402Y37710D01*
G01X18376Y37710D01*
G01X18350Y37713D01*
G01X18325Y37719D01*
G01X18300Y37728D01*
G01X18277Y37740D01*
G01X18256Y37755D01*
G01X18236Y37773D01*
G01X18219Y37792D01*
G01X18204Y37813D01*
G01X18192Y37837D01*
G01X18183Y37861D01*
G01X18177Y37886D01*
G01X18173Y37912D01*
G01X18173Y37938D01*
G01X18177Y37964D01*
G01X18183Y37989D01*
G01X18192Y38014D01*
G01X18204Y38037D01*
G01X18219Y38058D01*
G01X18236Y38078D01*
G01X19188Y39030D01*
G01X19208Y39047D01*
G01X19229Y39062D01*
G01X19252Y39074D01*
G01X19277Y39083D01*
G01X19302Y39089D01*
G01X19328Y39093D01*
G01X19354Y39093D01*
G01X19380Y39089D01*
G01X19405Y39083D01*
G01X19429Y39074D01*
G01X19453Y39062D01*
G01X19474Y39047D01*
G01X19494Y39030D01*
G37*
G36*
G01X18919Y39604D02*
G01X18936Y39585D01*
G01X18951Y39563D01*
G01X18963Y39540D01*
G01X18972Y39516D01*
G01X18979Y39491D01*
G01X18982Y39465D01*
G01X18982Y39439D01*
G01X18979Y39413D01*
G01X18972Y39388D01*
G01X18963Y39363D01*
G01X18951Y39340D01*
G01X18936Y39319D01*
G01X18919Y39299D01*
G01X17967Y38347D01*
G01X17947Y38330D01*
G01X17926Y38315D01*
G01X17903Y38303D01*
G01X17879Y38294D01*
G01X17853Y38288D01*
G01X17828Y38284D01*
G01X17801Y38284D01*
G01X17775Y38288D01*
G01X17750Y38294D01*
G01X17726Y38303D01*
G01X17703Y38315D01*
G01X17681Y38330D01*
G01X17662Y38347D01*
G01X17644Y38367D01*
G01X17630Y38388D01*
G01X17617Y38411D01*
G01X17608Y38436D01*
G01X17602Y38461D01*
G01X17599Y38487D01*
G01X17599Y38513D01*
G01X17602Y38539D01*
G01X17608Y38564D01*
G01X17617Y38589D01*
G01X17630Y38611D01*
G01X17644Y38633D01*
G01X17662Y38653D01*
G01X18614Y39604D01*
G01X18633Y39622D01*
G01X18655Y39637D01*
G01X18678Y39649D01*
G01X18702Y39658D01*
G01X18727Y39664D01*
G01X18753Y39667D01*
G01X18779Y39667D01*
G01X18805Y39664D01*
G01X18831Y39658D01*
G01X18855Y39649D01*
G01X18878Y39637D01*
G01X18899Y39622D01*
G01X18919Y39604D01*
G37*
G36*
G01X18344Y40179D02*
G01X18361Y40160D01*
G01X18376Y40138D01*
G01X18388Y40115D01*
G01X18398Y40091D01*
G01X18404Y40065D01*
G01X18407Y40039D01*
G01X18407Y40014D01*
G01X18404Y39988D01*
G01X18398Y39962D01*
G01X18388Y39938D01*
G01X18376Y39915D01*
G01X18361Y39893D01*
G01X18344Y39874D01*
G01X17392Y38922D01*
G01X17373Y38905D01*
G01X17351Y38890D01*
G01X17328Y38878D01*
G01X17304Y38869D01*
G01X17279Y38862D01*
G01X17253Y38859D01*
G01X17227Y38859D01*
G01X17201Y38862D01*
G01X17175Y38869D01*
G01X17151Y38878D01*
G01X17128Y38890D01*
G01X17106Y38905D01*
G01X17087Y38922D01*
G01X17070Y38941D01*
G01X17055Y38963D01*
G01X17043Y38986D01*
G01X17034Y39010D01*
G01X17027Y39036D01*
G01X17024Y39062D01*
G01X17024Y39088D01*
G01X17027Y39114D01*
G01X17034Y39139D01*
G01X17043Y39163D01*
G01X17055Y39186D01*
G01X17070Y39208D01*
G01X17087Y39227D01*
G01X18039Y40179D01*
G01X18058Y40196D01*
G01X18080Y40211D01*
G01X18103Y40223D01*
G01X18127Y40233D01*
G01X18153Y40239D01*
G01X18179Y40242D01*
G01X18204Y40242D01*
G01X18230Y40239D01*
G01X18256Y40233D01*
G01X18280Y40223D01*
G01X18303Y40211D01*
G01X18325Y40196D01*
G01X18344Y40179D01*
G37*
G36*
G01X17787Y40736D02*
G01X17805Y40716D01*
G01X17819Y40695D01*
G01X17832Y40672D01*
G01X17841Y40648D01*
G01X17847Y40622D01*
G01X17850Y40596D01*
G01X17850Y40570D01*
G01X17847Y40544D01*
G01X17841Y40519D01*
G01X17832Y40495D01*
G01X17819Y40472D01*
G01X17805Y40450D01*
G01X17787Y40431D01*
G01X16835Y39479D01*
G01X16816Y39461D01*
G01X16794Y39447D01*
G01X16771Y39434D01*
G01X16747Y39425D01*
G01X16722Y39419D01*
G01X16696Y39416D01*
G01X16670Y39416D01*
G01X16644Y39419D01*
G01X16619Y39425D01*
G01X16594Y39434D01*
G01X16571Y39447D01*
G01X16550Y39461D01*
G01X16530Y39479D01*
G01X16513Y39498D01*
G01X16498Y39520D01*
G01X16486Y39543D01*
G01X16477Y39567D01*
G01X16470Y39592D01*
G01X16467Y39618D01*
G01X16467Y39644D01*
G01X16470Y39670D01*
G01X16477Y39696D01*
G01X16486Y39720D01*
G01X16498Y39743D01*
G01X16513Y39765D01*
G01X16530Y39784D01*
G01X17482Y40736D01*
G01X17502Y40753D01*
G01X17523Y40768D01*
G01X17546Y40780D01*
G01X17570Y40790D01*
G01X17596Y40796D01*
G01X17622Y40799D01*
G01X17648Y40799D01*
G01X17674Y40796D01*
G01X17699Y40790D01*
G01X17723Y40780D01*
G01X17746Y40768D01*
G01X17768Y40753D01*
G01X17787Y40736D01*
G37*
G36*
G01X16656Y41867D02*
G01X16673Y41848D01*
G01X16688Y41827D01*
G01X16700Y41803D01*
G01X16709Y41779D01*
G01X16715Y41754D01*
G01X16719Y41728D01*
G01X16719Y41702D01*
G01X16715Y41676D01*
G01X16709Y41651D01*
G01X16700Y41626D01*
G01X16688Y41603D01*
G01X16673Y41582D01*
G01X16656Y41562D01*
G01X15704Y40610D01*
G01X15685Y40593D01*
G01X15663Y40578D01*
G01X15640Y40566D01*
G01X15616Y40557D01*
G01X15590Y40550D01*
G01X15564Y40547D01*
G01X15538Y40547D01*
G01X15512Y40550D01*
G01X15487Y40557D01*
G01X15463Y40566D01*
G01X15440Y40578D01*
G01X15418Y40593D01*
G01X15399Y40610D01*
G01X15381Y40630D01*
G01X15367Y40651D01*
G01X15355Y40674D01*
G01X15345Y40699D01*
G01X15339Y40724D01*
G01X15336Y40750D01*
G01X15336Y40776D01*
G01X15339Y40802D01*
G01X15345Y40827D01*
G01X15355Y40851D01*
G01X15367Y40875D01*
G01X15381Y40896D01*
G01X15399Y40915D01*
G01X16350Y41867D01*
G01X16370Y41885D01*
G01X16392Y41899D01*
G01X16415Y41912D01*
G01X16439Y41921D01*
G01X16464Y41927D01*
G01X16490Y41930D01*
G01X16516Y41930D01*
G01X16542Y41927D01*
G01X16567Y41921D01*
G01X16592Y41912D01*
G01X16615Y41899D01*
G01X16637Y41885D01*
G01X16656Y41867D01*
G37*
G36*
G01X17231Y41293D02*
G01X17248Y41273D01*
G01X17263Y41252D01*
G01X17275Y41229D01*
G01X17284Y41204D01*
G01X17290Y41179D01*
G01X17294Y41153D01*
G01X17294Y41127D01*
G01X17290Y41101D01*
G01X17284Y41076D01*
G01X17275Y41051D01*
G01X17263Y41028D01*
G01X17248Y41007D01*
G01X17231Y40987D01*
G01X16279Y40035D01*
G01X16259Y40018D01*
G01X16238Y40003D01*
G01X16215Y39991D01*
G01X16190Y39982D01*
G01X16165Y39976D01*
G01X16139Y39973D01*
G01X16113Y39973D01*
G01X16087Y39976D01*
G01X16062Y39982D01*
G01X16038Y39991D01*
G01X16014Y40003D01*
G01X15993Y40018D01*
G01X15973Y40035D01*
G01X15956Y40055D01*
G01X15941Y40077D01*
G01X15929Y40100D01*
G01X15920Y40124D01*
G01X15914Y40149D01*
G01X15911Y40175D01*
G01X15911Y40201D01*
G01X15914Y40227D01*
G01X15920Y40252D01*
G01X15929Y40277D01*
G01X15941Y40300D01*
G01X15956Y40321D01*
G01X15973Y40341D01*
G01X16925Y41293D01*
G01X16945Y41310D01*
G01X16966Y41325D01*
G01X16989Y41337D01*
G01X17014Y41346D01*
G01X17039Y41352D01*
G01X17065Y41356D01*
G01X17091Y41356D01*
G01X17117Y41352D01*
G01X17142Y41346D01*
G01X17167Y41337D01*
G01X17190Y41325D01*
G01X17211Y41310D01*
G01X17231Y41293D01*
G37*
G36*
G01X15524Y42999D02*
G01X15542Y42980D01*
G01X15556Y42958D01*
G01X15569Y42935D01*
G01X15578Y42911D01*
G01X15584Y42885D01*
G01X15587Y42859D01*
G01X15587Y42833D01*
G01X15584Y42807D01*
G01X15578Y42782D01*
G01X15569Y42758D01*
G01X15556Y42735D01*
G01X15542Y42713D01*
G01X15524Y42694D01*
G01X14572Y41742D01*
G01X14553Y41724D01*
G01X14532Y41710D01*
G01X14508Y41698D01*
G01X14484Y41688D01*
G01X14459Y41682D01*
G01X14433Y41679D01*
G01X14407Y41679D01*
G01X14381Y41682D01*
G01X14356Y41688D01*
G01X14331Y41698D01*
G01X14308Y41710D01*
G01X14287Y41724D01*
G01X14267Y41742D01*
G01X14250Y41761D01*
G01X14235Y41783D01*
G01X14223Y41806D01*
G01X14214Y41830D01*
G01X14207Y41856D01*
G01X14204Y41881D01*
G01X14204Y41907D01*
G01X14207Y41933D01*
G01X14214Y41959D01*
G01X14223Y41983D01*
G01X14235Y42006D01*
G01X14250Y42028D01*
G01X14267Y42047D01*
G01X15219Y42999D01*
G01X15238Y43016D01*
G01X15260Y43031D01*
G01X15283Y43043D01*
G01X15308Y43052D01*
G01X15333Y43059D01*
G01X15359Y43062D01*
G01X15385Y43062D01*
G01X15411Y43059D01*
G01X15436Y43052D01*
G01X15460Y43043D01*
G01X15483Y43031D01*
G01X15505Y43016D01*
G01X15524Y42999D01*
G37*
G36*
G01X16099Y42424D02*
G01X16116Y42405D01*
G01X16131Y42383D01*
G01X16143Y42360D01*
G01X16153Y42336D01*
G01X16159Y42310D01*
G01X16162Y42285D01*
G01X16162Y42259D01*
G01X16159Y42233D01*
G01X16153Y42207D01*
G01X16143Y42183D01*
G01X16131Y42160D01*
G01X16116Y42139D01*
G01X16099Y42119D01*
G01X15147Y41167D01*
G01X15128Y41150D01*
G01X15106Y41135D01*
G01X15083Y41123D01*
G01X15059Y41114D01*
G01X15034Y41107D01*
G01X15008Y41104D01*
G01X14981Y41104D01*
G01X14956Y41107D01*
G01X14930Y41114D01*
G01X14906Y41123D01*
G01X14883Y41135D01*
G01X14861Y41150D01*
G01X14842Y41167D01*
G01X14825Y41187D01*
G01X14810Y41208D01*
G01X14798Y41231D01*
G01X14788Y41255D01*
G01X14782Y41281D01*
G01X14779Y41307D01*
G01X14779Y41333D01*
G01X14782Y41358D01*
G01X14788Y41384D01*
G01X14798Y41408D01*
G01X14810Y41431D01*
G01X14825Y41453D01*
G01X14842Y41472D01*
G01X15794Y42424D01*
G01X15813Y42442D01*
G01X15835Y42456D01*
G01X15858Y42468D01*
G01X15882Y42478D01*
G01X15908Y42484D01*
G01X15933Y42487D01*
G01X15960Y42487D01*
G01X15985Y42484D01*
G01X16011Y42478D01*
G01X16035Y42468D01*
G01X16058Y42456D01*
G01X16080Y42442D01*
G01X16099Y42424D01*
G37*
G54D35*
G01X34417Y27003D03*
G01X34417Y28400D03*
G01X36195Y27003D03*
G01X36195Y28400D03*
G01X37973Y27003D03*
G01X37973Y28400D03*
G01X39751Y27003D03*
G01X39751Y28400D03*
G01X17653Y45037D03*
G01X17653Y46434D03*
G36*
G01X7557Y50885D02*
G01X6158Y50885D01*
G01X6158Y52625D01*
G01X7557Y52625D01*
G01X7557Y50885D01*
G37*
G54D37*
G01X6858Y44415D03*
G36*
G01X11956Y29337D02*
G01X11956Y27717D01*
G01X14002Y27717D01*
G01X14002Y29337D01*
G01X11956Y29337D01*
G37*
G36*
G01X8871Y29337D02*
G01X8871Y27717D01*
G01X6825Y27717D01*
G01X6825Y29337D01*
G01X8871Y29337D01*
G37*
G54D38*
G01X15214Y28527D03*
G36*
G01X19322Y27717D02*
G01X19322Y29337D01*
G01X21368Y29337D01*
G01X21368Y27717D01*
G01X19322Y27717D01*
G37*
G54D35*
G01X18034Y54938D03*
G01X16637Y54938D03*
G01X18034Y56721D03*
G01X16637Y56721D03*
G01X14097Y45037D03*
G01X14097Y46434D03*
G54D39*
G01X55835Y28151D03*
G01X55975Y15923D03*

%LPD*%
G36*
G01X35508Y18258D02*
G01X34224Y18258D01*
G01X34124Y18158D01*
G01X34124Y17788D01*
G01X34224Y17688D01*
G01X34528Y17688D01*
G01X34628Y17588D01*
G01X34628Y17200D01*
G01X34528Y17100D01*
G01X34224Y17100D01*
G01X34124Y17000D01*
G01X34124Y16630D01*
G01X34224Y16530D01*
G01X35508Y16530D01*
G01X35608Y16630D01*
G01X35608Y18158D01*
G01X35508Y18258D01*
G37*

%LPD*%
G36*
G01X32323Y18258D02*
G01X31039Y18258D01*
G01X30939Y18158D01*
G01X30939Y16630D01*
G01X31039Y16530D01*
G01X32323Y16530D01*
G01X32423Y16630D01*
G01X32423Y17000D01*
G01X32323Y17100D01*
G01X32019Y17100D01*
G01X31919Y17200D01*
G01X31919Y17588D01*
G01X32019Y17688D01*
G01X32323Y17688D01*
G01X32423Y17788D01*
G01X32423Y18158D01*
G01X32323Y18258D01*
G37*

%LPD*%
G36*
G01X35508Y15929D02*
G01X34224Y15929D01*
G01X34124Y15829D01*
G01X34124Y15459D01*
G01X34224Y15359D01*
G01X34528Y15359D01*
G01X34628Y15259D01*
G01X34628Y14872D01*
G01X34528Y14772D01*
G01X34224Y14772D01*
G01X34124Y14672D01*
G01X34124Y14301D01*
G01X34224Y14201D01*
G01X35508Y14201D01*
G01X35608Y14301D01*
G01X35608Y15829D01*
G01X35508Y15929D01*
G37*

%LPD*%
G36*
G01X32323Y15929D02*
G01X31039Y15929D01*
G01X30939Y15829D01*
G01X30939Y14301D01*
G01X31039Y14201D01*
G01X32323Y14201D01*
G01X32423Y14301D01*
G01X32423Y14672D01*
G01X32323Y14772D01*
G01X32019Y14772D01*
G01X31919Y14872D01*
G01X31919Y15259D01*
G01X32019Y15359D01*
G01X32323Y15359D01*
G01X32423Y15459D01*
G01X32423Y15829D01*
G01X32323Y15929D01*
G37*

%LPD*%
G36*
G01X35508Y22914D02*
G01X34224Y22914D01*
G01X34124Y22814D01*
G01X34124Y22444D01*
G01X34224Y22344D01*
G01X34528Y22344D01*
G01X34628Y22244D01*
G01X34628Y21857D01*
G01X34528Y21757D01*
G01X34224Y21757D01*
G01X34124Y21657D01*
G01X34124Y21286D01*
G01X34224Y21186D01*
G01X35508Y21186D01*
G01X35608Y21286D01*
G01X35608Y22814D01*
G01X35508Y22914D01*
G37*

%LPD*%
G36*
G01X32323Y22914D02*
G01X31039Y22914D01*
G01X30939Y22814D01*
G01X30939Y21286D01*
G01X31039Y21186D01*
G01X32323Y21186D01*
G01X32423Y21286D01*
G01X32423Y21657D01*
G01X32323Y21757D01*
G01X32019Y21757D01*
G01X31919Y21857D01*
G01X31919Y22244D01*
G01X32019Y22344D01*
G01X32323Y22344D01*
G01X32423Y22444D01*
G01X32423Y22814D01*
G01X32323Y22914D01*
G37*

%LPD*%
G36*
G01X35508Y20586D02*
G01X34224Y20586D01*
G01X34124Y20486D01*
G01X34124Y20116D01*
G01X34224Y20016D01*
G01X34528Y20016D01*
G01X34628Y19916D01*
G01X34628Y19528D01*
G01X34528Y19428D01*
G01X34224Y19428D01*
G01X34124Y19328D01*
G01X34124Y18958D01*
G01X34224Y18858D01*
G01X35508Y18858D01*
G01X35608Y18958D01*
G01X35608Y20486D01*
G01X35508Y20586D01*
G37*

%LPD*%
G36*
G01X32323Y20586D02*
G01X31039Y20586D01*
G01X30939Y20486D01*
G01X30939Y18958D01*
G01X31039Y18858D01*
G01X32323Y18858D01*
G01X32423Y18958D01*
G01X32423Y19328D01*
G01X32323Y19428D01*
G01X32019Y19428D01*
G01X31919Y19528D01*
G01X31919Y19916D01*
G01X32019Y20016D01*
G01X32323Y20016D01*
G01X32423Y20116D01*
G01X32423Y20486D01*
G01X32323Y20586D01*
G37*

%LPD*%
G36*
G01X21030Y26470D02*
G01X19746Y26470D01*
G01X19646Y26370D01*
G01X19646Y26000D01*
G01X19746Y25900D01*
G01X20050Y25900D01*
G01X20150Y25800D01*
G01X20150Y25413D01*
G01X20050Y25313D01*
G01X19746Y25313D01*
G01X19646Y25213D01*
G01X19646Y24842D01*
G01X19746Y24742D01*
G01X21030Y24742D01*
G01X21130Y24842D01*
G01X21130Y26370D01*
G01X21030Y26470D01*
G37*

%LPD*%
G36*
G01X17845Y26470D02*
G01X16561Y26470D01*
G01X16461Y26370D01*
G01X16461Y24842D01*
G01X16561Y24742D01*
G01X17845Y24742D01*
G01X17945Y24842D01*
G01X17945Y25213D01*
G01X17845Y25313D01*
G01X17541Y25313D01*
G01X17441Y25413D01*
G01X17441Y25800D01*
G01X17541Y25900D01*
G01X17845Y25900D01*
G01X17945Y26000D01*
G01X17945Y26370D01*
G01X17845Y26470D01*
G37*

%LPD*%
G36*
G01X5401Y34326D02*
G01X4250Y34326D01*
G01X4150Y34226D01*
G01X4150Y33363D01*
G01X4609Y32884D01*
G01X5042Y32884D01*
G01X5501Y33363D01*
G01X5501Y34226D01*
G01X5401Y34326D01*
G37*

%LPD*%
G36*
G01X5042Y32299D02*
G01X4609Y32299D01*
G01X4150Y31820D01*
G01X4150Y30956D01*
G01X4250Y30856D01*
G01X5401Y30856D01*
G01X5501Y30956D01*
G01X5501Y31820D01*
G01X5042Y32299D01*
G37*

%LPD*%
G36*
G01X7179Y34326D02*
G01X6028Y34326D01*
G01X5928Y34226D01*
G01X5928Y33363D01*
G01X6387Y32884D01*
G01X6820Y32884D01*
G01X7279Y33363D01*
G01X7279Y34226D01*
G01X7179Y34326D01*
G37*

%LPD*%
G36*
G01X6820Y32299D02*
G01X6387Y32299D01*
G01X5928Y31820D01*
G01X5928Y30956D01*
G01X6028Y30856D01*
G01X7179Y30856D01*
G01X7279Y30956D01*
G01X7279Y31820D01*
G01X6820Y32299D01*
G37*
M00*
M02*
